<?xml version="1.0" encoding="UTF-8" standalone="no"?>
<!-- Created with Inkscape (http://www.inkscape.org/) -->

<svg
   xmlns:dc="http://purl.org/dc/elements/1.1/"
   xmlns:cc="http://creativecommons.org/ns#"
   xmlns:rdf="http://www.w3.org/1999/02/22-rdf-syntax-ns#"
   xmlns:svg="http://www.w3.org/2000/svg"
   xmlns="http://www.w3.org/2000/svg"
   xmlns:sodipodi="http://sodipodi.sourceforge.net/DTD/sodipodi-0.dtd"
   xmlns:inkscape="http://www.inkscape.org/namespaces/inkscape"
   width="106.59234mm"
   height="65.196434mm"
   viewBox="0 0 106.59234 65.196433"
   version="1.1"
   id="svg8"
   inkscape:version="0.91 r13725"
   sodipodi:docname="Joystick_only.svg"
   inkscape:export-filename="/home/gareth/GitHub/T-BOTS/Python/Joystick/Images/Simple/joystick_only.png"
   inkscape:export-xdpi="96"
   inkscape:export-ydpi="96">
  <defs
     id="defs2">
    <marker
       inkscape:stockid="Arrow1Mend"
       orient="auto"
       refY="0"
       refX="0"
       id="Arrow1Mend"
       style="overflow:visible"
       inkscape:isstock="true">
      <path
         id="path4589"
         d="M 0,0 5,-5 -12.5,0 5,5 Z"
         style="fill:#000000;fill-opacity:1;fill-rule:evenodd;stroke:#000000;stroke-width:1pt;stroke-opacity:1"
         transform="matrix(-0.4,0,0,-0.4,-4,0)"
         inkscape:connector-curvature="0" />
    </marker>
    <marker
       inkscape:isstock="true"
       style="overflow:visible"
       id="marker4900"
       refX="0"
       refY="0"
       orient="auto"
       inkscape:stockid="Arrow1Lend">
      <path
         transform="matrix(-0.8,0,0,-0.8,-10,0)"
         style="fill:#000000;fill-opacity:1;fill-rule:evenodd;stroke:#000000;stroke-width:1pt;stroke-opacity:1"
         d="M 0,0 5,-5 -12.5,0 5,5 Z"
         id="path4898"
         inkscape:connector-curvature="0" />
    </marker>
    <marker
       inkscape:stockid="Arrow1Lend"
       orient="auto"
       refY="0"
       refX="0"
       id="Arrow1Lend"
       style="overflow:visible"
       inkscape:isstock="true">
      <path
         id="path4583"
         d="M 0,0 5,-5 -12.5,0 5,5 Z"
         style="fill:#000000;fill-opacity:1;fill-rule:evenodd;stroke:#000000;stroke-width:1pt;stroke-opacity:1"
         transform="matrix(-0.8,0,0,-0.8,-10,0)"
         inkscape:connector-curvature="0" />
    </marker>
    <marker
       inkscape:stockid="Arrow1Mend"
       orient="auto"
       refY="0"
       refX="0"
       id="Arrow1Mend-3"
       style="overflow:visible"
       inkscape:isstock="true">
      <path
         inkscape:connector-curvature="0"
         id="path4589-6"
         d="M 0,0 5,-5 -12.5,0 5,5 Z"
         style="fill:#000000;fill-opacity:1;fill-rule:evenodd;stroke:#000000;stroke-width:1pt;stroke-opacity:1"
         transform="matrix(-0.4,0,0,-0.4,-4,0)" />
    </marker>
    <filter
       style="color-interpolation-filters:sRGB"
       inkscape:label="Blur"
       id="filter920">
      <feGaussianBlur
         stdDeviation="2 2"
         result="blur"
         id="feGaussianBlur918" />
    </filter>
    <filter
       style="color-interpolation-filters:sRGB"
       inkscape:label="Blur"
       id="filter900">
      <feGaussianBlur
         stdDeviation="1 1"
         result="blur"
         id="feGaussianBlur898" />
    </filter>
    <filter
       style="color-interpolation-filters:sRGB"
       inkscape:label="Blur"
       id="filter1016">
      <feGaussianBlur
         stdDeviation="0.6 0.6"
         result="blur"
         id="feGaussianBlur1014" />
    </filter>
    <filter
       style="color-interpolation-filters:sRGB"
       inkscape:label="Blur"
       id="filter900-0">
      <feGaussianBlur
         stdDeviation="1 1"
         result="blur"
         id="feGaussianBlur898-6" />
    </filter>
    <filter
       style="color-interpolation-filters:sRGB"
       inkscape:label="Blur"
       id="filter1016-2">
      <feGaussianBlur
         stdDeviation="0.6 0.6"
         result="blur"
         id="feGaussianBlur1014-6" />
    </filter>
    <filter
       style="color-interpolation-filters:sRGB"
       inkscape:label="Blur"
       id="filter900-0-3">
      <feGaussianBlur
         stdDeviation="1 1"
         result="blur"
         id="feGaussianBlur898-6-6" />
    </filter>
    <filter
       inkscape:collect="always"
       style="color-interpolation-filters:sRGB"
       id="filter1026-7-3"
       x="-0.018211473"
       width="1.0364228"
       y="-0.030479578"
       height="1.0609592">
      <feGaussianBlur
         inkscape:collect="always"
         stdDeviation="1.0354221"
         id="feGaussianBlur1028-5-6" />
    </filter>
  </defs>
  <sodipodi:namedview
     id="base"
     pagecolor="#ffffff"
     bordercolor="#666666"
     borderopacity="1.0"
     inkscape:pageopacity="0.0"
     inkscape:pageshadow="2"
     inkscape:zoom="0.5406565"
     inkscape:cx="-29.093635"
     inkscape:cy="294.22418"
     inkscape:document-units="mm"
     inkscape:current-layer="layer1"
     showgrid="false"
     fit-margin-top="0"
     fit-margin-left="0"
     fit-margin-right="0"
     fit-margin-bottom="0"
     inkscape:window-width="1366"
     inkscape:window-height="715"
     inkscape:window-x="0"
     inkscape:window-y="0"
     inkscape:window-maximized="1"
     units="mm" />
  <metadata
     id="metadata5">
    <rdf:RDF>
      <cc:Work
         rdf:about="">
        <dc:format>image/svg+xml</dc:format>
        <dc:type
           rdf:resource="http://purl.org/dc/dcmitype/StillImage" />
        <dc:title></dc:title>
      </cc:Work>
    </rdf:RDF>
  </metadata>
  <g
     inkscape:label="Layer 1"
     inkscape:groupmode="layer"
     id="layer1"
     transform="translate(174.42987,-341.16526)">
    <g
       id="g1032-0-7"
       transform="translate(-220.67441,232.65696)"
       inkscape:export-xdpi="96"
       inkscape:export-ydpi="96">
      <path
         transform="matrix(0.75371189,0,0,0.75371189,23.447906,44.557776)"
         inkscape:connector-curvature="0"
         id="path845-7-9-5"
         d="m 60.896931,87.367567 a 18.129967,41.606801 12.841934 0 0 -25.768293,36.161553 18.129967,41.606801 12.841934 0 0 8.06944,45.07924 18.129967,41.606801 12.841934 0 0 25.856356,-31.44744 l 1.027997,0 a 12.664571,12.664571 0 0 0 9.386792,4.1839 12.664571,12.664571 0 0 0 9.386789,-4.1839 l 24.201128,0 a 12.664573,12.664573 0 0 0 9.3868,4.1839 12.664573,12.664573 0 0 0 9.38678,-4.1839 l 1.02981,0 a 41.606801,18.129967 77.158066 0 0 25.85455,31.44744 41.606801,18.129967 77.158066 0 0 8.07124,-45.07924 41.606801,18.129967 77.158066 0 0 -27.03532,-35.938699 41.606801,18.129967 77.158066 0 0 -3.98979,2.397469 l -69.607461,0 A 18.129967,41.606801 12.841934 0 0 62.16216,87.590421 18.129967,41.606801 12.841934 0 0 60.896931,87.367567 Z"
         style="opacity:0.45700001;fill:none;fill-opacity:1;stroke:#00ffff;stroke-width:2;stroke-linecap:round;stroke-linejoin:round;stroke-miterlimit:4;stroke-dasharray:none;stroke-opacity:0.99215686;paint-order:markers fill stroke;filter:url(#filter1026-7-3)" />
      <path
         inkscape:connector-curvature="0"
         id="path845-3-3"
         d="m 69.346643,110.40822 a 13.664772,31.35954 12.841934 0 0 -19.421868,27.25539 13.664772,31.35954 12.841934 0 0 6.082033,33.97676 13.664772,31.35954 12.841934 0 0 19.488242,-23.70231 l 0.774815,0 a 9.5454377,9.5454377 0 0 0 7.074935,3.15345 9.5454377,9.5454377 0 0 0 7.074935,-3.15345 l 18.240685,0 a 9.5454393,9.5454393 0 0 0 7.07493,3.15345 9.5454393,9.5454393 0 0 0 7.07493,-3.15345 l 0.77618,0 a 31.35954,13.664772 77.158066 0 0 19.48688,23.70231 31.35954,13.664772 77.158066 0 0 6.08339,-33.97676 31.35954,13.664772 77.158066 0 0 -20.37684,-27.08742 31.35954,13.664772 77.158066 0 0 -3.00715,1.807 l -52.463971,0 a 13.664772,31.35954 12.841934 0 0 -3.008507,-1.807 13.664772,31.35954 12.841934 0 0 -0.953619,-0.16797 z"
         style="opacity:0.98999999;fill:none;fill-opacity:1;stroke:#00ffff;stroke-width:0.75371188;stroke-linecap:round;stroke-linejoin:round;stroke-miterlimit:4;stroke-dasharray:none;stroke-opacity:0.99215686;paint-order:markers fill stroke" />
      <g
         style="fill:#2dfefe;fill-opacity:1"
         transform="matrix(0.0662898,0,0,0.0662898,84.336981,119.38133)"
         id="g1850-6-5">
        <g
           style="fill:#2dfefe;fill-opacity:1"
           transform="translate(-246.77215,275.12648)"
           id="g4-0-6" />
        <g
           id="g4141-6-2"
           transform="translate(24.764763,-8.7967097)"
           style="fill:#2dfefe;fill-opacity:1">
          <path
             inkscape:connector-curvature="0"
             style="color:#000000;font-style:normal;font-variant:normal;font-weight:normal;font-stretch:normal;font-size:medium;line-height:normal;font-family:sans-serif;text-indent:0;text-align:start;text-decoration:none;text-decoration-line:none;text-decoration-style:solid;text-decoration-color:#000000;letter-spacing:normal;word-spacing:normal;text-transform:none;direction:ltr;writing-mode:lr-tb;baseline-shift:baseline;text-anchor:start;white-space:normal;clip-rule:nonzero;display:inline;overflow:visible;visibility:visible;opacity:1;isolation:auto;mix-blend-mode:normal;color-interpolation:sRGB;color-interpolation-filters:linearRGB;solid-color:#000000;solid-opacity:1;fill:#2dfefe;fill-opacity:1;fill-rule:nonzero;stroke:none;stroke-width:5.58658838;stroke-linecap:butt;stroke-linejoin:round;stroke-miterlimit:4;stroke-dasharray:none;stroke-dashoffset:0;stroke-opacity:1;color-rendering:auto;image-rendering:auto;shape-rendering:auto;text-rendering:auto;enable-background:accumulate"
             d="M 37.322266,17.716753 C 25.62633,17.884534 14.083702,18.959568 2.5742188,20.187457 1.1214773,20.342348 0.03343547,21.590447 0.078125,23.050738 L 1.7714844,78.78119 c 0.047027,1.54584 1.3410448,2.75931 2.8867187,2.70703 L 33.617188,80.49603 c -0.07704,5.273801 -0.612945,20.68199 -1.136719,39.14789 -1.869713,-0.0787 -3.739474,-0.15738 -5.609375,-0.23632 l 1.052734,-11.22016 c 0.126332,-1.5504 -1.038076,-2.90537 -2.589844,-3.01367 l -13.11914,-0.9082 c -1.807039,-0.12474 -3.2531562,1.47673 -2.9453128,3.26171 2.6585018,15.36162 0.4435211,32.47793 -2.3261718,46.46092 -0.3493796,1.76616 1.0385999,3.39678 2.8378906,3.33399 l 15.136719,-0.53711 c 1.553971,-0.0552 2.763803,-1.36862 2.691406,-2.92188 l -0.845703,-16.34517 5.060547,-0.59375 -0.511719,7.46236 c -0.09508,1.69749 1.335441,3.08558 3.029297,2.93946 l 57.564453,-4.96094 c 1.782198,-0.15362 2.962823,-1.91933 2.423828,-3.625 l -3.633679,-11.42648 6.255859,0 3.727432,15.80929 c 0.35976,1.46947 1.8239,2.38554 3.30273,2.06641 l 15.9707,-3.45118 c 1.86359,-0.40333 2.78439,-2.51385 1.8125,-4.15429 -8.73125,-14.73844 -12.71376,-26.99644 -16.79492,-43.197266 -0.40455,-1.602301 -2.10402,-2.505121 -3.6582,-1.943351 l -10.519531,3.804681 c -1.37892,0.498361 -2.137914,1.977971 -1.738281,3.388671 l 3.132298,11.072745 -5.789062,0.36719 -6.954565,-27.225079 24.363281,4.380851 c 1.52209,0.27408 2.97721,-0.74065 3.24609,-2.26367 l 9.34571,-52.982396 c 0.24167,-1.373022 -0.56595,-2.714044 -1.89258,-3.142578 -9.79606,-3.163727 -19.706294,-5.448618 -29.675782,-7.44922 -0.181331,-0.03642 -0.36583,-0.05474 -0.550781,-0.05469 l 0.271484,0 -7.117187,-1.429687 c -0.02274,-0.0042 -0.04553,-0.0081 -0.06836,-0.01172 C 63.983979,18.557884 50.702409,18.263708 37.476562,17.718707 l 0,0.0039 c -0.03772,-0.0027 -0.07549,-0.0047 -0.113281,-0.0059 l -0.002,0 c -0.01302,5.6e-4 -0.02604,0.0012 -0.03906,0.002 z m 0.02539,5.587892 c 13.247457,0.544749 26.226522,0.857197 39.021485,3.091797 l 7.353515,1.47461 0.02344,0.0039 c 9.060117,1.818406 17.959994,3.931763 26.710934,6.628906 L 102.03711,82.23822 76.146484,77.583929 c -2.002976,-0.35961 -3.706008,1.474421 -3.199218,3.445311 l 8.61472,33.67624 c 0.334215,1.29888 1.544329,2.17695 2.882813,2.0918 L 95.99558,116.0629 c 1.775987,-0.1135 2.994514,-1.83651 2.509766,-3.54882 l -3.364721,-11.8989 5.220705,-1.886735 c 3.58216,13.763135 7.6078,25.451485 14.79101,38.332025 l -9.69336,2.09375 -3.60047,-15.29757 c -0.30613,-1.24971 -1.42623,-2.1287 -2.712892,-2.12891 l -12.259766,0 c -1.8882,-1e-4 -3.232628,1.83419 -2.664063,3.63476 l 3.731336,11.73508 -50.882813,4.38476 0.517579,-7.56392 c 0.09764,-1.73272 -1.39163,-3.13421 -3.115235,-2.93164 l -10.947265,1.28711 c -1.457388,0.17104 -2.534032,1.4405 -2.464844,2.90625 l 0.835937,16.12252 -8.871093,0.31445 c 2.331498,-12.6056 3.934853,-27.30631 2.09375,-41.55077 l 7.007812,0.48633 -1.060547,11.29633 c -0.128546,1.58012 1.082099,2.95041 2.666016,3.01758 3.780947,0.1596 7.564039,0.31989 11.345703,0.47852 1.556913,0.0656 2.866533,-1.15521 2.910156,-2.71289 0.585194,-21.04175 1.292584,-40.53455 1.296875,-45.026801 5.74e-4,-1.58052 -1.309063,-2.846771 -2.888672,-2.792961 L 7.2695312,75.808539 5.7421875,25.499958 C 16.31017,24.398491 26.817305,23.458331 37.347656,23.304645 Z m -7.421875,8.699219 c -9.900239,-7e-6 -17.986433,8.08609 -17.986328,17.986329 9.1e-5,9.900101 8.086226,17.984373 17.986328,17.984363 9.900103,10e-6 17.986238,-8.084262 17.986328,-17.984363 1.05e-4,-9.900239 -8.086089,-17.986336 -17.986328,-17.986329 z m 48.294922,1.695313 c -9.900057,-7e-6 -17.986172,8.086271 -17.986328,17.986328 -1.7e-4,9.90028 8.086044,17.986322 17.986328,17.986322 9.900276,-10e-6 17.986498,-8.086052 17.986328,-17.986322 -1.55e-4,-9.900048 -8.08628,-17.986322 -17.986328,-17.986328 z m -48.294922,3.890625 c 6.881,-5e-6 12.398511,5.51939 12.398438,12.400391 -6.3e-5,6.880902 -5.517535,12.398442 -12.398438,12.398432 -6.880902,1e-5 -12.398374,-5.51753 -12.398437,-12.398432 -7.3e-5,-6.881001 5.517437,-12.400396 12.398437,-12.400391 z m 48.294922,1.697265 c 6.880864,5e-6 12.398329,5.517575 12.398438,12.398438 1.18e-4,6.881029 -5.517412,12.39843 -12.398438,12.39843 -6.881033,1e-5 -12.398556,-5.517401 -12.398437,-12.39843 1.08e-4,-6.88087 5.517567,-12.398442 12.398437,-12.398438 z"
             id="line10-0-3-2-9" />
          <g
             transform="translate(0,17.716753)"
             style="font-style:normal;font-variant:normal;font-weight:normal;font-stretch:normal;font-size:69.35621643px;line-height:125%;font-family:'V Dub';-inkscape-font-specification:'V Dub';letter-spacing:0px;word-spacing:0px;fill:#2dfefe;fill-opacity:1;stroke:none;stroke-width:1px;stroke-linecap:butt;stroke-linejoin:miter;stroke-opacity:1"
             id="text4568-8-6-6-1">
            <path
               inkscape:connector-curvature="0"
               d="m 118.42899,72.186297 0,-6.311416 22.3327,0 0,6.311416 z"
               style="font-style:normal;font-variant:normal;font-weight:normal;font-stretch:normal;font-family:'V Dub';-inkscape-font-specification:'V Dub';fill:#2dfefe;fill-opacity:1"
               id="path5516-1-2" />
            <path
               inkscape:connector-curvature="0"
               d="m 150.68939,95.76741 q -3.19039,0 -3.19039,-3.259742 l 0,-44.665403 q 0,-3.190386 3.19039,-3.190386 l 37.17493,0 q 5.47914,0 9.15502,0.762918 3.74523,0.762919 5.96463,2.496824 2.2194,1.664549 3.12103,4.508154 0.97099,2.774249 0.97099,6.866265 0,1.872618 -0.20807,3.259743 -0.20807,1.387124 -0.69356,2.496823 -0.41614,1.040344 -1.24841,1.872618 -0.76292,0.832275 -1.87262,1.664549 1.31777,0.624206 2.42747,1.456481 1.1097,0.762918 1.87261,2.219399 0.76292,1.387124 1.17906,3.537167 0.48549,2.150043 0.48549,5.479141 0,4.022661 -0.83227,6.796909 -0.76292,2.774249 -2.98232,4.508154 -2.2194,1.66455 -6.1727,2.427468 -3.88395,0.762918 -10.05665,0.762918 z m 38.28463,-6.380772 q 4.57751,0 7.2824,-0.416137 2.70489,-0.485493 4.09202,-1.525837 1.45648,-1.109699 1.87261,-2.843605 0.4855,-1.733905 0.4855,-4.369441 0,-2.427468 -0.27743,-3.814592 -0.27742,-1.387124 -0.90163,-2.150043 -0.6242,-0.832274 -1.66455,-1.179055 -1.04034,-0.416138 -2.56618,-0.832275 -1.38712,-0.346781 -2.08068,-0.901631 -0.69357,-0.55485 -0.69357,-1.941974 0,-1.317768 0.55485,-1.803262 0.62421,-0.554849 1.52584,-0.970987 1.24841,-0.624206 2.08069,-1.109699 0.83227,-0.55485 1.24841,-1.248412 0.48549,-0.762918 0.62421,-1.733905 0.20806,-1.040344 0.20806,-2.704893 0,-2.843605 -0.55485,-4.57751 -0.48549,-1.803262 -1.94197,-2.704893 -1.45648,-0.970987 -3.9533,-1.248411 -2.49683,-0.346782 -6.45013,-0.346782 l -33.98455,0 0,38.423344 z"
               style="font-style:normal;font-variant:normal;font-weight:normal;font-stretch:normal;font-family:'V Dub';-inkscape-font-specification:'V Dub';fill:#2dfefe;fill-opacity:1"
               id="path5518-8-7" />
            <path
               inkscape:connector-curvature="0"
               d="m 244.92497,96.530329 q -6.51948,0 -11.16635,-0.346781 -4.57751,-0.346782 -7.76789,-1.1097 -3.12103,-0.832274 -4.99365,-2.219399 -1.80326,-1.387124 -2.8436,-3.467811 -0.97099,-2.080686 -1.24842,-4.993647 -0.27742,-2.912961 -0.27742,-6.727553 l 0,-14.842231 q 0,-3.814591 0.27742,-6.727553 0.27743,-2.912961 1.24842,-4.993647 1.04034,-2.080687 2.8436,-3.467811 1.87262,-1.387124 4.99365,-2.150043 3.19038,-0.832274 7.76789,-1.179055 4.64687,-0.346781 11.16635,-0.346781 l 9.91794,0 q 6.45013,0 11.097,0.346781 4.64686,0.346781 7.76789,1.179055 3.12103,0.762919 4.99365,2.150043 1.87262,1.387124 2.84361,3.467811 0.97098,2.080686 1.24841,4.993647 0.27742,2.912962 0.27742,6.727553 l 0,14.842231 q 0,3.814592 -0.27742,6.727553 -0.27743,2.912961 -1.24841,4.993647 -0.97099,2.080687 -2.84361,3.467811 -1.87262,1.387125 -4.99365,2.219399 -3.12103,0.762918 -7.76789,1.1097 -4.64687,0.346781 -11.097,0.346781 z m 31.83451,-33.707122 q 0,-4.161373 -0.4855,-6.58884 -0.41613,-2.496824 -2.56618,-3.745236 -2.08068,-1.317768 -6.51948,-1.733905 -4.4388,-0.416137 -12.34541,-0.416137 l -9.91794,0 q -5.34042,0 -9.0163,0.208068 -3.67588,0.138713 -6.10335,0.624206 -2.42747,0.416137 -3.81459,1.317768 -1.38713,0.832275 -2.08069,2.219399 -0.69356,1.387124 -0.83227,3.398455 -0.13872,1.941974 -0.13872,4.716222 l 0,14.842231 q 0,2.704892 0.13872,4.716223 0.13871,2.01133 0.83227,3.398454 0.69356,1.387124 2.08069,2.288755 1.38712,0.832275 3.81459,1.317768 2.42747,0.416138 6.10335,0.624206 3.67588,0.138713 9.0163,0.138713 l 9.91794,0 q 7.90661,0 12.34541,-0.416138 4.4388,-0.416137 6.51948,-1.733905 2.15005,-1.317768 2.56618,-3.745236 0.4855,-2.496823 0.4855,-6.58884 z"
               style="font-style:normal;font-variant:normal;font-weight:normal;font-stretch:normal;font-family:'V Dub';-inkscape-font-specification:'V Dub';fill:#2dfefe;fill-opacity:1"
               id="path5520-7-0" />
            <path
               inkscape:connector-curvature="0"
               d="m 288.83938,50.963294 0,-6.311415 54.51398,0 0,6.311415 z m 23.99725,44.804116 0,-37.93785 6.31141,0 0,37.93785 z"
               style="font-style:normal;font-variant:normal;font-weight:normal;font-stretch:normal;font-family:'V Dub';-inkscape-font-specification:'V Dub';fill:#2dfefe;fill-opacity:1"
               id="path5522-9-9" />
            <path
               inkscape:connector-curvature="0"
               d="m 409.09872,81.965523 q 0,4.300086 -0.97099,7.143691 -0.90163,2.774248 -3.60652,4.438797 -2.63553,1.66455 -7.49047,2.288755 -4.78558,0.693563 -12.62283,0.693563 l -10.54215,0 q -7.69854,0 -12.48412,-0.693563 -4.78557,-0.624205 -7.49047,-2.358111 -2.70489,-1.733905 -3.67588,-4.716223 -0.97098,-2.982317 -0.97098,-7.629183 l 0,-1.733906 6.31141,0 0,1.595193 q 0,2.982317 0.62421,4.785579 0.69356,1.803262 2.63553,2.774249 1.94198,0.970987 5.47915,1.317768 3.60652,0.277425 9.36309,0.277425 l 10.6115,0 q 5.96463,0 9.57115,-0.277425 3.67588,-0.277425 5.61786,-1.1097 2.01133,-0.90163 2.63553,-2.427467 0.69357,-1.595193 0.69357,-4.161373 l 0,-2.774249 q 0,-1.733905 -0.4855,-2.843605 -0.48549,-1.179055 -1.87262,-1.803261 -1.31776,-0.693562 -3.67587,-0.901631 -2.35812,-0.277425 -6.17271,-0.277425 -2.08068,0 -4.64686,0.06936 -2.56618,0.06936 -5.27108,0.138713 -2.70489,0 -5.34043,0.06936 -2.63553,0.06936 -4.85493,0.06936 -4.71622,0 -8.60017,-0.416137 -3.81459,-0.416137 -6.51949,-1.803262 -2.70489,-1.387124 -4.23073,-4.02266 -1.45648,-2.635537 -1.45648,-7.004978 l 0,-2.912961 q 0,-4.092017 0.97099,-6.727553 0.97099,-2.704893 3.60652,-4.23073 2.7049,-1.595192 7.42112,-2.219398 4.78558,-0.624206 12.34541,-0.624206 l 9.98729,0 q 7.2824,0 12.06798,0.554849 4.85494,0.55485 7.69854,2.011331 2.84361,1.387124 4.02266,3.883948 1.17906,2.496824 1.17906,6.380772 l 0,1.45648 -6.31142,0 0,-0.901631 q 0,-2.219399 -0.90163,-3.537167 -0.90163,-1.387124 -3.05167,-2.150042 -2.08069,-0.762919 -5.68721,-1.040344 -3.53717,-0.277424 -8.8776,-0.277424 l -10.47278,0 q -5.5485,0 -9.01631,0.277424 -3.46781,0.277425 -5.40979,1.1097 -1.94197,0.762918 -2.63553,2.219399 -0.62421,1.45648 -0.62421,3.814592 l 0,2.843605 q 0,2.01133 0.55485,3.398454 0.55485,1.317768 2.08069,2.150043 1.59519,0.762918 4.43879,1.109699 2.91297,0.346781 7.55983,0.346781 2.35811,0 5.5485,-0.06936 3.19039,-0.06936 6.38077,-0.138712 3.25974,-0.06936 6.10335,-0.138713 2.8436,-0.06936 4.50815,-0.06936 3.3291,0 6.17271,0.416137 2.91296,0.416138 5.063,1.66455 2.2194,1.248411 3.46781,3.537167 1.24841,2.288755 1.24841,6.03399 l 0,3.12103 z"
               style="font-style:normal;font-variant:normal;font-weight:normal;font-stretch:normal;font-family:'V Dub';-inkscape-font-specification:'V Dub';fill:#2dfefe;fill-opacity:1"
               id="path5524-2-3" />
          </g>
        </g>
      </g>
    </g>
  </g>
</svg>
