<?xml version="1.0" encoding="UTF-8" standalone="no"?>
<!-- Created with Inkscape (http://www.inkscape.org/) -->

<svg
   xmlns:rendltx="http://NOTSET"
   xmlns:dc="http://purl.org/dc/elements/1.1/"
   xmlns:cc="http://creativecommons.org/ns#"
   xmlns:rdf="http://www.w3.org/1999/02/22-rdf-syntax-ns#"
   xmlns:svg="http://www.w3.org/2000/svg"
   xmlns="http://www.w3.org/2000/svg"
   xmlns:xlink="http://www.w3.org/1999/xlink"
   xmlns:sodipodi="http://sodipodi.sourceforge.net/DTD/sodipodi-0.dtd"
   xmlns:inkscape="http://www.inkscape.org/namespaces/inkscape"
   sodipodi:docname="AlphaOmegaTheta.svg"
   inkscape:version="0.91 r13725"
   version="1.1"
   id="svg2"
   viewBox="0 0 900.00001 304"
   height="85.795555mm"
   width="254mm">
  <sodipodi:namedview
     fit-margin-bottom="0"
     fit-margin-right="0"
     fit-margin-left="0"
     fit-margin-top="0"
     inkscape:window-maximized="1"
     inkscape:window-y="0"
     inkscape:window-x="0"
     inkscape:window-height="715"
     inkscape:window-width="1366"
     showgrid="false"
     inkscape:current-layer="ltx-render-layer"
     inkscape:document-units="px"
     inkscape:cy="457.13061"
     inkscape:cx="600.88514"
     inkscape:zoom="0.7"
     inkscape:pageshadow="2"
     inkscape:pageopacity="0.0"
     borderopacity="1.0"
     bordercolor="#666666"
     pagecolor="#ffffff"
     id="base" />
  <defs
     id="defs4" />
  <metadata
     id="metadata7">
    <rdf:RDF>
      <cc:Work
         rdf:about="">
        <dc:format>image/svg+xml</dc:format>
        <dc:type
           rdf:resource="http://purl.org/dc/dcmitype/StillImage" />
        <dc:title />
      </cc:Work>
    </rdf:RDF>
  </metadata>
  <g
     inkscape:label="Layer 1"
     inkscape:groupmode="layer"
     id="layer1"
     transform="translate(-12.857142,-5.5050492)" />
  <g
     inkscape:label="Rendered Latex"
     inkscape:groupmode="layer"
     id="ltx-render-layer"
     rendltx:preamble=""
     rendltx:packages="amsmath,amssymb"
     rendltx:scale="1.0"
     rendltx:depth="0.0"
     rendltx:fontsize="10.0"
     rendltx:newline="False"
     rendltx:math="False"
     transform="translate(-12.857142,-5.5050492)">
    <rect
       style="opacity:1;fill:#000000;fill-opacity:0.99607843;stroke:none;stroke-width:2;stroke-linecap:round;stroke-linejoin:round;stroke-miterlimit:4;stroke-dasharray:none;stroke-dashoffset:0;stroke-opacity:1"
       id="rect11766"
       width="701.2218"
       height="236.85715"
       x="112.24623"
       y="39.076477"
       ry="4.9948759" />
    <g
       id="g6242"
       transform="matrix(0.77913534,0,0,0.77913534,102.22877,34.787298)">
      <g
         transform="translate(0,12.862242)"
         id="g6058">
        <g
           style="fill:#00ff00;stroke:#00ff00;stroke-width:1.17286038;stroke-miterlimit:4;stroke-dasharray:none;stroke-opacity:1"
           id="lx-text4458"
           transform="matrix(3.034888,0,0,3.034888,554.83034,74.171788)">
          <defs
             id="defs10328">
            <g
               id="g10330">
              <symbol
                 id="lx-text4458-glyph0-0"
                 overflow="visible"
                 style="overflow:visible">
                <path
                   id="path10333"
                   d=""
                   style="stroke:none"
                   inkscape:connector-curvature="0" />
              </symbol>
              <symbol
                 id="lx-text4458-glyph0-1"
                 overflow="visible"
                 style="overflow:visible">
                <path
                   id="path10336"
                   d="m 4.75,-2.359375 c 0,-1.5625 -0.921875,-2.046875 -1.65625,-2.046875 -1.375,0 -2.6875,1.421875 -2.6875,2.828125 0,0.9375 0.59375,1.6875 1.625,1.6875 0.625,0 1.34375,-0.234375 2.09375,-0.84375 0.125,0.53125 0.453125,0.84375 0.90625,0.84375 0.53125,0 0.84375,-0.546875 0.84375,-0.703125 0,-0.078125 -0.0625,-0.109375 -0.125,-0.109375 -0.0625,0 -0.09375,0.03125 -0.125,0.109375 -0.1875,0.484375 -0.546875,0.484375 -0.5625,0.484375 -0.3125,0 -0.3125,-0.78125 -0.3125,-1.015625 0,-0.203125 0,-0.234375 0.109375,-0.34375 C 5.796875,-2.65625 6,-3.8125 6,-3.8125 6,-3.84375 5.984375,-3.921875 5.875,-3.921875 c -0.09375,0 -0.09375,0.03125 -0.140625,0.21875 -0.1875,0.625 -0.515625,1.375 -0.984375,1.96875 z m -0.65625,1.375 c -0.890625,0.765625 -1.65625,0.875 -2.046875,0.875 -0.59375,0 -0.90625,-0.453125 -0.90625,-1.09375 0,-0.484375 0.265625,-1.5625 0.578125,-2.0625 C 2.1875,-4 2.734375,-4.1875 3.078125,-4.1875 c 0.984375,0 0.984375,1.3125 0.984375,2.078125 0,0.375 0,0.953125 0.03125,1.125 z m 0,0"
                   style="stroke:none"
                   inkscape:connector-curvature="0" />
              </symbol>
              <symbol
                 id="lx-text4458-glyph0-2"
                 overflow="visible"
                 style="overflow:visible">
                <path
                   id="path10339"
                   d="M 3.890625,-3.734375 C 3.625,-3.71875 3.421875,-3.5 3.421875,-3.28125 c 0,0.140625 0.09375,0.296875 0.3125,0.296875 0.21875,0 0.453125,-0.171875 0.453125,-0.5625 C 4.1875,-4 3.765625,-4.40625 3,-4.40625 c -1.3125,0 -1.6875,1.015625 -1.6875,1.453125 0,0.78125 0.734375,0.921875 1.03125,0.984375 0.515625,0.109375 1.03125,0.21875 1.03125,0.765625 0,0.25 -0.21875,1.09375 -1.421875,1.09375 -0.140625,0 -0.90625,0 -1.140625,-0.53125 0.390625,0.046875 0.640625,-0.25 0.640625,-0.53125 0,-0.21875 -0.171875,-0.34375 -0.375,-0.34375 -0.265625,0 -0.5625,0.203125 -0.5625,0.65625 0,0.5625 0.578125,0.96875 1.421875,0.96875 1.625,0 2.015625,-1.203125 2.015625,-1.65625 0,-0.359375 -0.1875,-0.609375 -0.3125,-0.71875 -0.265625,-0.28125 -0.5625,-0.34375 -1,-0.421875 -0.359375,-0.078125 -0.75,-0.15625 -0.75,-0.609375 C 1.890625,-3.578125 2.125,-4.1875 3,-4.1875 c 0.25,0 0.75,0.078125 0.890625,0.453125 z m 0,0"
                   style="stroke:none"
                   inkscape:connector-curvature="0" />
              </symbol>
              <symbol
                 id="lx-text4458-glyph0-3"
                 overflow="visible"
                 style="overflow:visible">
                <path
                   id="path10342"
                   d="m 2.828125,-6.234375 c 0,-0.203125 -0.140625,-0.359375 -0.359375,-0.359375 -0.28125,0 -0.546875,0.265625 -0.546875,0.53125 0,0.1875 0.140625,0.359375 0.375,0.359375 0.234375,0 0.53125,-0.234375 0.53125,-0.53125 z m -0.75,3.75 c 0.109375,-0.28125 0.109375,-0.3125 0.21875,-0.578125 0.078125,-0.203125 0.125,-0.34375 0.125,-0.53125 0,-0.4375 -0.3125,-0.8125 -0.8125,-0.8125 -0.9375,0 -1.3125,1.453125 -1.3125,1.53125 0,0.109375 0.09375,0.109375 0.109375,0.109375 0.109375,0 0.109375,-0.03125 0.15625,-0.1875 0.28125,-0.9375 0.671875,-1.234375 1.015625,-1.234375 0.078125,0 0.25,0 0.25,0.3125 0,0.21875 -0.078125,0.421875 -0.109375,0.53125 -0.078125,0.25 -0.53125,1.40625 -0.6875,1.84375 -0.109375,0.25 -0.234375,0.578125 -0.234375,0.796875 0,0.46875 0.34375,0.8125 0.8125,0.8125 0.9375,0 1.3125,-1.4375 1.3125,-1.53125 0,-0.109375 -0.09375,-0.109375 -0.125,-0.109375 -0.09375,0 -0.09375,0.03125 -0.140625,0.1875 -0.1875,0.625 -0.515625,1.234375 -1.015625,1.234375 -0.171875,0 -0.25,-0.09375 -0.25,-0.328125 0,-0.25 0.0625,-0.390625 0.296875,-1 z m 0,0"
                   style="stroke:none"
                   inkscape:connector-curvature="0" />
              </symbol>
              <symbol
                 id="lx-text4458-glyph0-4"
                 overflow="visible"
                 style="overflow:visible">
                <path
                   id="path10345"
                   d="m 0.875,-0.59375 c -0.03125,0.15625 -0.09375,0.390625 -0.09375,0.4375 0,0.171875 0.140625,0.265625 0.296875,0.265625 0.125,0 0.296875,-0.078125 0.375,-0.28125 0,-0.015625 0.125,-0.484375 0.1875,-0.734375 l 0.21875,-0.890625 C 1.90625,-2.03125 1.96875,-2.25 2.03125,-2.46875 c 0.03125,-0.171875 0.109375,-0.46875 0.125,-0.5 0.140625,-0.3125 0.671875,-1.21875 1.625,-1.21875 0.453125,0 0.53125,0.375 0.53125,0.703125 0,0.609375 -0.484375,1.890625 -0.640625,2.3125 C 3.578125,-0.9375 3.5625,-0.8125 3.5625,-0.703125 c 0,0.46875 0.359375,0.8125 0.828125,0.8125 0.9375,0 1.296875,-1.453125 1.296875,-1.53125 0,-0.109375 -0.078125,-0.109375 -0.109375,-0.109375 -0.109375,0 -0.109375,0.03125 -0.15625,0.1875 -0.203125,0.671875 -0.53125,1.234375 -1.015625,1.234375 -0.171875,0 -0.234375,-0.09375 -0.234375,-0.328125 0,-0.25 0.078125,-0.484375 0.171875,-0.703125 0.1875,-0.53125 0.609375,-1.625 0.609375,-2.203125 0,-0.65625 -0.421875,-1.0625 -1.140625,-1.0625 -0.90625,0 -1.390625,0.640625 -1.5625,0.875 -0.046875,-0.5625 -0.453125,-0.875 -0.921875,-0.875 -0.453125,0 -0.640625,0.390625 -0.734375,0.5625 C 0.421875,-3.5 0.296875,-2.90625 0.296875,-2.875 c 0,0.109375 0.09375,0.109375 0.109375,0.109375 0.109375,0 0.109375,-0.015625 0.171875,-0.234375 0.171875,-0.703125 0.375,-1.1875 0.734375,-1.1875 0.1875,0 0.296875,0.125 0.296875,0.453125 0,0.21875 -0.03125,0.328125 -0.15625,0.84375 z m 0,0"
                   style="stroke:none"
                   inkscape:connector-curvature="0" />
              </symbol>
              <symbol
                 id="lx-text4458-glyph0-5"
                 overflow="visible"
                 style="overflow:visible">
                <path
                   id="path10348"
                   d="m 4.53125,-4.984375 c 0,-0.65625 -0.171875,-2.046875 -1.1875,-2.046875 -1.390625,0 -2.921875,2.8125 -2.921875,5.09375 0,0.9375 0.28125,2.046875 1.1875,2.046875 1.40625,0 2.921875,-2.859375 2.921875,-5.09375 z M 1.46875,-3.625 C 1.640625,-4.25 1.84375,-5.046875 2.25,-5.765625 2.515625,-6.25 2.875,-6.8125 3.328125,-6.8125 c 0.484375,0 0.546875,0.640625 0.546875,1.203125 0,0.5 -0.078125,1 -0.3125,1.984375 z m 2,0.328125 C 3.359375,-2.84375 3.15625,-2 2.765625,-1.28125 c -0.34375,0.6875 -0.71875,1.171875 -1.15625,1.171875 -0.328125,0 -0.53125,-0.296875 -0.53125,-1.21875 0,-0.421875 0.0625,-1 0.3125,-1.96875 z m 0,0"
                   style="stroke:none"
                   inkscape:connector-curvature="0" />
              </symbol>
              <symbol
                 id="lx-text4458-glyph1-0"
                 overflow="visible"
                 style="overflow:visible">
                <path
                   id="path10351"
                   d=""
                   style="stroke:none"
                   inkscape:connector-curvature="0" />
              </symbol>
              <symbol
                 id="lx-text4458-glyph1-1"
                 overflow="visible"
                 style="overflow:visible">
                <path
                   id="path10354"
                   d="m 6.84375,-3.265625 c 0.15625,0 0.34375,0 0.34375,-0.1875 C 7.1875,-3.65625 7,-3.65625 6.859375,-3.65625 l -5.96875,0 c -0.140625,0 -0.328125,0 -0.328125,0.203125 0,0.1875 0.1875,0.1875 0.328125,0.1875 z m 0.015625,1.9375 c 0.140625,0 0.328125,0 0.328125,-0.203125 0,-0.1875 -0.1875,-0.1875 -0.34375,-0.1875 l -5.953125,0 c -0.140625,0 -0.328125,0 -0.328125,0.1875 0,0.203125 0.1875,0.203125 0.328125,0.203125 z m 0,0"
                   style="stroke:none"
                   inkscape:connector-curvature="0" />
              </symbol>
              <symbol
                 id="lx-text4458-glyph2-0"
                 overflow="visible"
                 style="overflow:visible">
                <path
                   id="path10357"
                   d=""
                   style="stroke:none"
                   inkscape:connector-curvature="0" />
              </symbol>
              <symbol
                 id="lx-text4458-glyph2-1"
                 overflow="visible"
                 style="overflow:visible">
                <path
                   id="path10360"
                   d="M 3.984375,-4.625 C 3.984375,-4.640625 4,-4.734375 4,-4.734375 4,-4.78125 3.984375,-4.84375 3.890625,-4.84375 3.75,-4.84375 3.171875,-4.78125 3,-4.765625 c -0.046875,0 -0.15625,0.015625 -0.15625,0.15625 0,0.09375 0.109375,0.09375 0.1875,0.09375 0.328125,0 0.328125,0.0625 0.328125,0.109375 0,0.046875 0,0.09375 -0.015625,0.15625 L 2.9375,-2.65625 c -0.140625,-0.234375 -0.375,-0.421875 -0.71875,-0.421875 -0.890625,0 -1.796875,0.984375 -1.796875,1.984375 0,0.6875 0.453125,1.15625 1.0625,1.15625 0.375,0 0.703125,-0.203125 0.984375,-0.484375 C 2.59375,0 3,0.0625 3.1875,0.0625 c 0.25,0 0.421875,-0.140625 0.546875,-0.359375 0.15625,-0.28125 0.25,-0.671875 0.25,-0.703125 0,-0.09375 -0.09375,-0.09375 -0.109375,-0.09375 -0.109375,0 -0.109375,0.03125 -0.15625,0.21875 C 3.625,-0.53125 3.5,-0.125 3.203125,-0.125 3.03125,-0.125 2.96875,-0.28125 2.96875,-0.46875 c 0,-0.125 0.015625,-0.1875 0.046875,-0.28125 z M 2.5,-0.875 C 2.453125,-0.671875 2.296875,-0.53125 2.140625,-0.40625 2.078125,-0.34375 1.796875,-0.125 1.5,-0.125 c -0.265625,0 -0.515625,-0.1875 -0.515625,-0.671875 0,-0.375 0.203125,-1.140625 0.375,-1.421875 0.3125,-0.5625 0.671875,-0.65625 0.859375,-0.65625 0.484375,0 0.625,0.53125 0.625,0.609375 0,0.015625 -0.015625,0.078125 -0.015625,0.09375 z m 0,0"
                   style="stroke:none"
                   inkscape:connector-curvature="0" />
              </symbol>
              <symbol
                 id="lx-text4458-glyph2-2"
                 overflow="visible"
                 style="overflow:visible">
                <path
                   id="path10363"
                   d="m 4.765625,-2.578125 c 0,-0.203125 -0.09375,-0.5 -0.375,-0.5 -0.171875,0 -0.359375,0.21875 -0.359375,0.390625 0,0.234375 0.375,0.28125 0.375,0.75 0,0.453125 -0.453125,1.453125 -1.234375,1.453125 -0.328125,0 -0.609375,-0.234375 -0.703125,-0.546875 0.09375,-0.140625 0.25,-0.625 0.25,-0.8125 0,-0.09375 -0.0625,-0.203125 -0.171875,-0.203125 -0.359375,0 -0.390625,0.75 -0.390625,1 -0.1875,0.25 -0.546875,0.5625 -1,0.5625 -0.375,0 -0.640625,-0.34375 -0.640625,-0.8125 0,-0.8125 0.703125,-1.484375 0.703125,-1.59375 0,-0.078125 -0.0625,-0.15625 -0.140625,-0.15625 -0.0625,0 -0.109375,0.03125 -0.15625,0.09375 -0.09375,0.109375 -0.1875,0.265625 -0.265625,0.40625 -0.25,0.421875 -0.421875,1 -0.421875,1.515625 0,0.546875 0.21875,1.09375 0.859375,1.09375 0.46875,0 0.875,-0.296875 1.125,-0.671875 0.140625,0.421875 0.4375,0.671875 0.890625,0.671875 1.21875,0 1.65625,-2.0625 1.65625,-2.640625 z m 0,0"
                   style="stroke:none"
                   inkscape:connector-curvature="0" />
              </symbol>
              <symbol
                 id="lx-text4458-glyph2-3"
                 overflow="visible"
                 style="overflow:visible">
                <path
                   id="path10366"
                   d="m 1.71875,-2.75 0.703125,0 c 0.140625,0 0.21875,0 0.21875,-0.15625 C 2.640625,-3 2.5625,-3 2.4375,-3 l -0.65625,0 0.25,-1.03125 C 2.046875,-4.0625 2.0625,-4.109375 2.0625,-4.125 c 0,-0.140625 -0.109375,-0.234375 -0.25,-0.234375 -0.171875,0 -0.265625,0.125 -0.328125,0.296875 C 1.4375,-3.875 1.53125,-4.21875 1.21875,-3 l -0.703125,0 c -0.125,0 -0.21875,0 -0.21875,0.15625 C 0.296875,-2.75 0.375,-2.75 0.5,-2.75 l 0.65625,0 L 0.75,-1.109375 C 0.703125,-0.9375 0.640625,-0.6875 0.640625,-0.59375 c 0,0.40625 0.359375,0.65625 0.75,0.65625 0.78125,0 1.21875,-0.96875 1.21875,-1.0625 0,-0.09375 -0.09375,-0.09375 -0.109375,-0.09375 -0.09375,0 -0.09375,0.015625 -0.15625,0.140625 -0.1875,0.4375 -0.546875,0.828125 -0.921875,0.828125 -0.15625,0 -0.25,-0.09375 -0.25,-0.34375 0,-0.0625 0.03125,-0.21875 0.046875,-0.28125 z m 0,0"
                   style="stroke:none"
                   inkscape:connector-curvature="0" />
              </symbol>
              <symbol
                 id="lx-text4458-glyph2-4"
                 overflow="visible"
                 style="overflow:visible">
                <path
                   id="path10369"
                   d="m 3.703125,-2.578125 c 0.03125,-0.09375 0.03125,-0.125 0.03125,-0.140625 0,-0.15625 -0.125,-0.21875 -0.234375,-0.21875 -0.15625,0 -0.296875,0.125 -0.328125,0.265625 -0.109375,-0.1875 -0.34375,-0.40625 -0.71875,-0.40625 -0.859375,0 -1.78125,0.9375 -1.78125,1.9375 0,0.71875 0.484375,1.140625 1.0625,1.140625 0.328125,0 0.625,-0.15625 0.875,-0.375 L 2.453125,0.25 C 2.375,0.546875 2.328125,0.734375 2.0625,0.96875 c -0.3125,0.25 -0.609375,0.25 -0.78125,0.25 -0.3125,0 -0.40625,-0.015625 -0.53125,-0.046875 0.171875,-0.078125 0.21875,-0.25 0.21875,-0.34375 0,-0.171875 -0.125,-0.25 -0.265625,-0.25 C 0.5,0.578125 0.296875,0.734375 0.296875,1 c 0,0.421875 0.609375,0.421875 1,0.421875 1.09375,0 1.546875,-0.5625 1.65625,-0.953125 z M 2.75,-0.921875 c -0.03125,0.09375 -0.03125,0.109375 -0.15625,0.25 C 2.359375,-0.375 2.015625,-0.1875 1.75,-0.1875 c -0.34375,0 -0.515625,-0.3125 -0.515625,-0.671875 0,-0.296875 0.1875,-1.078125 0.375,-1.390625 0.28125,-0.484375 0.609375,-0.625 0.84375,-0.625 0.5,0 0.625,0.515625 0.625,0.59375 0,0.015625 0,0.015625 -0.015625,0.09375 z m 0,0"
                   style="stroke:none"
                   inkscape:connector-curvature="0" />
              </symbol>
              <symbol
                 id="lx-text4458-glyph2-5"
                 overflow="visible"
                 style="overflow:visible">
                <path
                   id="path10372"
                   d="M 1.96875,-4.625 C 1.96875,-4.640625 2,-4.734375 2,-4.734375 2,-4.78125 1.96875,-4.84375 1.875,-4.84375 c -0.140625,0 -0.71875,0.0625 -0.890625,0.078125 -0.046875,0 -0.140625,0.015625 -0.140625,0.15625 0,0.09375 0.09375,0.09375 0.171875,0.09375 0.34375,0 0.34375,0.0625 0.34375,0.109375 0,0.046875 -0.015625,0.09375 -0.03125,0.15625 l -0.875,3.4375 C 0.4375,-0.734375 0.4375,-0.65625 0.4375,-0.59375 c 0,0.453125 0.390625,0.65625 0.71875,0.65625 0.171875,0 0.390625,-0.046875 0.5625,-0.359375 C 1.875,-0.5625 1.96875,-0.96875 1.96875,-1 c 0,-0.09375 -0.09375,-0.09375 -0.109375,-0.09375 -0.109375,0 -0.125,0.046875 -0.140625,0.171875 C 1.625,-0.578125 1.484375,-0.125 1.1875,-0.125 1,-0.125 0.953125,-0.296875 0.953125,-0.46875 0.953125,-0.546875 0.96875,-0.671875 1,-0.75 Z m 0,0"
                   style="stroke:none"
                   inkscape:connector-curvature="0" />
              </symbol>
            </g>
          </defs>
          <g
             id="lx-text4458-surface1"
             style="stroke:#00ff00;stroke-opacity:1">
            <g
               id="g10375"
               style="stroke:#00ff00;stroke-opacity:1">
              <use
                 id="use10377"
                 y="0"
                 x="0"
                 xlink:href="#lx-text4458-glyph0-1"
                 style="stroke:#00ff00;stroke-opacity:1"
                 width="100%"
                 height="100%" />
            </g>
            <g
               id="g10379"
               style="stroke:#00ff00;stroke-opacity:1">
              <use
                 id="use10381"
                 y="0"
                 x="9.1780005"
                 xlink:href="#lx-text4458-glyph1-1"
                 style="stroke:#00ff00;stroke-opacity:1"
                 width="100%"
                 height="100%" />
            </g>
            <g
               id="g10383"
               style="stroke:#00ff00;stroke-opacity:1">
              <use
                 id="use10385"
                 y="-3.9219999"
                 x="20.889"
                 xlink:href="#lx-text4458-glyph2-1"
                 style="stroke:#00ff00;stroke-opacity:1"
                 width="100%"
                 height="100%" />
              <use
                 id="use10387"
                 y="-3.9219999"
                 x="25.03632"
                 xlink:href="#lx-text4458-glyph2-2"
                 style="stroke:#00ff00;stroke-opacity:1"
                 width="100%"
                 height="100%" />
            </g>
            <path
               id="path10389"
               transform="matrix(1,0,0,-1,20.889,-2.49)"
               d="m 0.001375,-0.00178125 9.414063,0"
               style="fill:none;stroke:#00ff00;stroke-width:0.398;stroke-linecap:butt;stroke-linejoin:miter;stroke-miterlimit:10;stroke-opacity:1"
               inkscape:connector-curvature="0" />
            <g
               id="g10391"
               style="stroke:#00ff00;stroke-opacity:1">
              <use
                 id="use10393"
                 y="3.4360001"
                 x="22.018999"
                 xlink:href="#lx-text4458-glyph2-1"
                 style="stroke:#00ff00;stroke-opacity:1"
                 width="100%"
                 height="100%" />
              <use
                 id="use10395"
                 y="3.4360001"
                 x="26.166319"
                 xlink:href="#lx-text4458-glyph2-3"
                 style="stroke:#00ff00;stroke-opacity:1"
                 width="100%"
                 height="100%" />
            </g>
            <g
               id="g10397"
               style="stroke:#00ff00;stroke-opacity:1">
              <use
                 id="use10399"
                 y="0"
                 x="34.268002"
                 xlink:href="#lx-text4458-glyph1-1"
                 style="stroke:#00ff00;stroke-opacity:1"
                 width="100%"
                 height="100%" />
            </g>
            <g
               id="g10401"
               style="stroke:#00ff00;stroke-opacity:1">
              <use
                 id="use10403"
                 y="-4.4439998"
                 x="45.98"
                 xlink:href="#lx-text4458-glyph2-4"
                 style="stroke:#00ff00;stroke-opacity:1"
                 width="100%"
                 height="100%" />
            </g>
            <path
               id="path10405"
               transform="matrix(1,0,0,-1,45.98,-2.49)"
               d="m 2.1875e-4,-0.00178125 4.13671825,0"
               style="fill:none;stroke:#00ff00;stroke-width:0.398;stroke-linecap:butt;stroke-linejoin:miter;stroke-miterlimit:10;stroke-opacity:1"
               inkscape:connector-curvature="0" />
            <g
               id="g10407"
               style="stroke:#00ff00;stroke-opacity:1">
              <use
                 id="use10409"
                 y="3.4360001"
                 x="46.769001"
                 xlink:href="#lx-text4458-glyph2-5"
                 style="stroke:#00ff00;stroke-opacity:1"
                 width="100%"
                 height="100%" />
            </g>
            <g
               id="g10411"
               style="stroke:#00ff00;stroke-opacity:1">
              <use
                 id="use10413"
                 y="0"
                 x="51.312"
                 xlink:href="#lx-text4458-glyph0-2"
                 style="stroke:#00ff00;stroke-opacity:1"
                 width="100%"
                 height="100%" />
              <use
                 id="use10415"
                 y="0"
                 x="55.982468"
                 xlink:href="#lx-text4458-glyph0-3"
                 style="stroke:#00ff00;stroke-opacity:1"
                 width="100%"
                 height="100%" />
              <use
                 id="use10417"
                 y="0"
                 x="59.414581"
                 xlink:href="#lx-text4458-glyph0-4"
                 style="stroke:#00ff00;stroke-opacity:1"
                 width="100%"
                 height="100%" />
              <use
                 id="use10419"
                 y="0"
                 x="65.394135"
                 xlink:href="#lx-text4458-glyph0-5"
                 style="stroke:#00ff00;stroke-opacity:1"
                 width="100%"
                 height="100%" />
            </g>
          </g>
        </g>
        <g
           style="fill:#3ab0e5;fill-opacity:1;stroke:#3ab0e5;stroke-opacity:1"
           id="lx-text4458-2"
           transform="matrix(3.3616219,0,0,3.3616219,555.64306,151.87174)">
          <defs
             id="defs10422">
            <g
               id="g10424">
              <symbol
                 id="lx-text4458-2-glyph0-0"
                 overflow="visible"
                 style="overflow:visible">
                <path
                   id="path10427"
                   d=""
                   style="stroke:none"
                   inkscape:connector-curvature="0" />
              </symbol>
              <symbol
                 id="lx-text4458-2-glyph0-1"
                 overflow="visible"
                 style="overflow:visible">
                <path
                   id="path10430"
                   d="m 6.03125,-3.703125 c 0,-0.453125 -0.171875,-0.703125 -0.40625,-0.703125 -0.25,0 -0.515625,0.234375 -0.515625,0.46875 0,0.09375 0.046875,0.203125 0.140625,0.296875 0.171875,0.15625 0.359375,0.421875 0.359375,0.84375 0,0.390625 -0.203125,0.96875 -0.5,1.421875 C 4.8125,-0.953125 4.4375,-0.609375 3.96875,-0.609375 3.40625,-0.609375 3.09375,-0.96875 3,-1.5 c 0.109375,-0.265625 0.34375,-0.90625 0.34375,-1.1875 0,-0.109375 -0.046875,-0.21875 -0.1875,-0.21875 -0.078125,0 -0.1875,0.03125 -0.265625,0.171875 C 2.78125,-2.53125 2.65625,-1.890625 2.65625,-1.53125 2.328125,-1.0625 1.9375,-0.609375 1.3125,-0.609375 c -0.671875,0 -0.875,-0.59375 -0.875,-1.140625 0,-1.25 1.015625,-2.296875 1.015625,-2.421875 0,-0.109375 -0.078125,-0.1875 -0.1875,-0.1875 -0.125,0 -0.203125,0.125 -0.265625,0.21875 -0.5,0.734375 -0.875,1.921875 -0.875,2.828125 0,0.6875 0.21875,1.421875 1.046875,1.421875 0.703125,0 1.171875,-0.5 1.53125,-1.046875 0.09375,0.578125 0.484375,1.046875 1.09375,1.046875 0.78125,0 1.25,-0.609375 1.609375,-1.359375 0.25,-0.484375 0.625,-1.84375 0.625,-2.453125 z m 0,0"
                   style="stroke:none"
                   inkscape:connector-curvature="0" />
              </symbol>
              <symbol
                 id="lx-text4458-2-glyph0-2"
                 overflow="visible"
                 style="overflow:visible">
                <path
                   id="path10433"
                   d="M 3.890625,-3.734375 C 3.625,-3.71875 3.421875,-3.5 3.421875,-3.28125 c 0,0.140625 0.09375,0.296875 0.3125,0.296875 0.21875,0 0.453125,-0.171875 0.453125,-0.5625 C 4.1875,-4 3.765625,-4.40625 3,-4.40625 c -1.3125,0 -1.6875,1.015625 -1.6875,1.453125 0,0.78125 0.734375,0.921875 1.03125,0.984375 0.515625,0.109375 1.03125,0.21875 1.03125,0.765625 0,0.25 -0.21875,1.09375 -1.421875,1.09375 -0.140625,0 -0.90625,0 -1.140625,-0.53125 0.390625,0.046875 0.640625,-0.25 0.640625,-0.53125 0,-0.21875 -0.171875,-0.34375 -0.375,-0.34375 -0.265625,0 -0.5625,0.203125 -0.5625,0.65625 0,0.5625 0.578125,0.96875 1.421875,0.96875 1.625,0 2.015625,-1.203125 2.015625,-1.65625 0,-0.359375 -0.1875,-0.609375 -0.3125,-0.71875 -0.265625,-0.28125 -0.5625,-0.34375 -1,-0.421875 -0.359375,-0.078125 -0.75,-0.15625 -0.75,-0.609375 C 1.890625,-3.578125 2.125,-4.1875 3,-4.1875 c 0.25,0 0.75,0.078125 0.890625,0.453125 z m 0,0"
                   style="stroke:none"
                   inkscape:connector-curvature="0" />
              </symbol>
              <symbol
                 id="lx-text4458-2-glyph0-3"
                 overflow="visible"
                 style="overflow:visible">
                <path
                   id="path10436"
                   d="m 2.828125,-6.234375 c 0,-0.203125 -0.140625,-0.359375 -0.359375,-0.359375 -0.28125,0 -0.546875,0.265625 -0.546875,0.53125 0,0.1875 0.140625,0.359375 0.375,0.359375 0.234375,0 0.53125,-0.234375 0.53125,-0.53125 z m -0.75,3.75 c 0.109375,-0.28125 0.109375,-0.3125 0.21875,-0.578125 0.078125,-0.203125 0.125,-0.34375 0.125,-0.53125 0,-0.4375 -0.3125,-0.8125 -0.8125,-0.8125 -0.9375,0 -1.3125,1.453125 -1.3125,1.53125 0,0.109375 0.09375,0.109375 0.109375,0.109375 0.109375,0 0.109375,-0.03125 0.15625,-0.1875 0.28125,-0.9375 0.671875,-1.234375 1.015625,-1.234375 0.078125,0 0.25,0 0.25,0.3125 0,0.21875 -0.078125,0.421875 -0.109375,0.53125 -0.078125,0.25 -0.53125,1.40625 -0.6875,1.84375 -0.109375,0.25 -0.234375,0.578125 -0.234375,0.796875 0,0.46875 0.34375,0.8125 0.8125,0.8125 0.9375,0 1.3125,-1.4375 1.3125,-1.53125 0,-0.109375 -0.09375,-0.109375 -0.125,-0.109375 -0.09375,0 -0.09375,0.03125 -0.140625,0.1875 -0.1875,0.625 -0.515625,1.234375 -1.015625,1.234375 -0.171875,0 -0.25,-0.09375 -0.25,-0.328125 0,-0.25 0.0625,-0.390625 0.296875,-1 z m 0,0"
                   style="stroke:none"
                   inkscape:connector-curvature="0" />
              </symbol>
              <symbol
                 id="lx-text4458-2-glyph0-4"
                 overflow="visible"
                 style="overflow:visible">
                <path
                   id="path10439"
                   d="m 0.875,-0.59375 c -0.03125,0.15625 -0.09375,0.390625 -0.09375,0.4375 0,0.171875 0.140625,0.265625 0.296875,0.265625 0.125,0 0.296875,-0.078125 0.375,-0.28125 0,-0.015625 0.125,-0.484375 0.1875,-0.734375 l 0.21875,-0.890625 C 1.90625,-2.03125 1.96875,-2.25 2.03125,-2.46875 c 0.03125,-0.171875 0.109375,-0.46875 0.125,-0.5 0.140625,-0.3125 0.671875,-1.21875 1.625,-1.21875 0.453125,0 0.53125,0.375 0.53125,0.703125 0,0.609375 -0.484375,1.890625 -0.640625,2.3125 C 3.578125,-0.9375 3.5625,-0.8125 3.5625,-0.703125 c 0,0.46875 0.359375,0.8125 0.828125,0.8125 0.9375,0 1.296875,-1.453125 1.296875,-1.53125 0,-0.109375 -0.078125,-0.109375 -0.109375,-0.109375 -0.109375,0 -0.109375,0.03125 -0.15625,0.1875 -0.203125,0.671875 -0.53125,1.234375 -1.015625,1.234375 -0.171875,0 -0.234375,-0.09375 -0.234375,-0.328125 0,-0.25 0.078125,-0.484375 0.171875,-0.703125 0.1875,-0.53125 0.609375,-1.625 0.609375,-2.203125 0,-0.65625 -0.421875,-1.0625 -1.140625,-1.0625 -0.90625,0 -1.390625,0.640625 -1.5625,0.875 -0.046875,-0.5625 -0.453125,-0.875 -0.921875,-0.875 -0.453125,0 -0.640625,0.390625 -0.734375,0.5625 C 0.421875,-3.5 0.296875,-2.90625 0.296875,-2.875 c 0,0.109375 0.09375,0.109375 0.109375,0.109375 0.109375,0 0.109375,-0.015625 0.171875,-0.234375 0.171875,-0.703125 0.375,-1.1875 0.734375,-1.1875 0.1875,0 0.296875,0.125 0.296875,0.453125 0,0.21875 -0.03125,0.328125 -0.15625,0.84375 z m 0,0"
                   style="stroke:none"
                   inkscape:connector-curvature="0" />
              </symbol>
              <symbol
                 id="lx-text4458-2-glyph0-5"
                 overflow="visible"
                 style="overflow:visible">
                <path
                   id="path10442"
                   d="m 4.53125,-4.984375 c 0,-0.65625 -0.171875,-2.046875 -1.1875,-2.046875 -1.390625,0 -2.921875,2.8125 -2.921875,5.09375 0,0.9375 0.28125,2.046875 1.1875,2.046875 1.40625,0 2.921875,-2.859375 2.921875,-5.09375 z M 1.46875,-3.625 C 1.640625,-4.25 1.84375,-5.046875 2.25,-5.765625 2.515625,-6.25 2.875,-6.8125 3.328125,-6.8125 c 0.484375,0 0.546875,0.640625 0.546875,1.203125 0,0.5 -0.078125,1 -0.3125,1.984375 z m 2,0.328125 C 3.359375,-2.84375 3.15625,-2 2.765625,-1.28125 c -0.34375,0.6875 -0.71875,1.171875 -1.15625,1.171875 -0.328125,0 -0.53125,-0.296875 -0.53125,-1.21875 0,-0.421875 0.0625,-1 0.3125,-1.96875 z m 0,0"
                   style="stroke:none"
                   inkscape:connector-curvature="0" />
              </symbol>
              <symbol
                 id="lx-text4458-2-glyph0-6"
                 overflow="visible"
                 style="overflow:visible">
                <path
                   id="path10445"
                   d="m 5.140625,-6.8125 c 0,0 0,-0.109375 -0.125,-0.109375 -0.15625,0 -1.09375,0.09375 -1.265625,0.109375 -0.078125,0.015625 -0.140625,0.0625 -0.140625,0.1875 0,0.125 0.09375,0.125 0.234375,0.125 0.484375,0 0.5,0.0625 0.5,0.171875 L 4.3125,-6.125 3.71875,-3.765625 C 3.53125,-4.140625 3.25,-4.40625 2.796875,-4.40625 c -1.15625,0 -2.390625,1.46875 -2.390625,2.921875 0,0.9375 0.546875,1.59375 1.3125,1.59375 0.203125,0 0.703125,-0.046875 1.296875,-0.75 0.078125,0.421875 0.4375,0.75 0.90625,0.75 0.359375,0 0.578125,-0.234375 0.75,-0.546875 0.15625,-0.359375 0.296875,-0.96875 0.296875,-0.984375 0,-0.109375 -0.09375,-0.109375 -0.125,-0.109375 -0.09375,0 -0.109375,0.046875 -0.140625,0.1875 -0.171875,0.640625 -0.34375,1.234375 -0.75,1.234375 -0.28125,0 -0.296875,-0.265625 -0.296875,-0.453125 0,-0.25 0.015625,-0.3125 0.046875,-0.484375 z m -2.0625,5.625 C 3.015625,-1 3.015625,-0.984375 2.875,-0.8125 2.4375,-0.265625 2.03125,-0.109375 1.75,-0.109375 c -0.5,0 -0.640625,-0.546875 -0.640625,-0.9375 0,-0.5 0.3125,-1.71875 0.546875,-2.1875 0.3125,-0.578125 0.75,-0.953125 1.15625,-0.953125 0.640625,0 0.78125,0.8125 0.78125,0.875 0,0.0625 -0.015625,0.125 -0.03125,0.171875 z m 0,0"
                   style="stroke:none"
                   inkscape:connector-curvature="0" />
              </symbol>
              <symbol
                 id="lx-text4458-2-glyph0-7"
                 overflow="visible"
                 style="overflow:visible">
                <path
                   id="path10448"
                   d="m 2.046875,-3.984375 0.9375,0 c 0.203125,0 0.3125,0 0.3125,-0.203125 0,-0.109375 -0.109375,-0.109375 -0.28125,-0.109375 l -0.875,0 C 2.5,-5.71875 2.546875,-5.90625 2.546875,-5.96875 c 0,-0.171875 -0.125,-0.265625 -0.296875,-0.265625 -0.03125,0 -0.3125,0 -0.390625,0.359375 l -0.390625,1.578125 -0.9375,0 c -0.203125,0 -0.296875,0 -0.296875,0.1875 0,0.125 0.078125,0.125 0.28125,0.125 l 0.875,0 C 0.671875,-1.15625 0.625,-0.984375 0.625,-0.8125 0.625,-0.265625 1,0.109375 1.546875,0.109375 2.5625,0.109375 3.125,-1.34375 3.125,-1.421875 3.125,-1.53125 3.046875,-1.53125 3.015625,-1.53125 2.921875,-1.53125 2.90625,-1.5 2.859375,-1.390625 2.4375,-0.34375 1.90625,-0.109375 1.5625,-0.109375 c -0.203125,0 -0.3125,-0.125 -0.3125,-0.453125 0,-0.25 0.03125,-0.3125 0.0625,-0.484375 z m 0,0"
                   style="stroke:none"
                   inkscape:connector-curvature="0" />
              </symbol>
              <symbol
                 id="lx-text4458-2-glyph1-0"
                 overflow="visible"
                 style="overflow:visible">
                <path
                   id="path10451"
                   d=""
                   style="stroke:none"
                   inkscape:connector-curvature="0" />
              </symbol>
              <symbol
                 id="lx-text4458-2-glyph1-1"
                 overflow="visible"
                 style="overflow:visible">
                <path
                   id="path10454"
                   d="m 6.84375,-3.265625 c 0.15625,0 0.34375,0 0.34375,-0.1875 C 7.1875,-3.65625 7,-3.65625 6.859375,-3.65625 l -5.96875,0 c -0.140625,0 -0.328125,0 -0.328125,0.203125 0,0.1875 0.1875,0.1875 0.328125,0.1875 z m 0.015625,1.9375 c 0.140625,0 0.328125,0 0.328125,-0.203125 0,-0.1875 -0.1875,-0.1875 -0.34375,-0.1875 l -5.953125,0 c -0.140625,0 -0.328125,0 -0.328125,0.1875 0,0.203125 0.1875,0.203125 0.328125,0.203125 z m 0,0"
                   style="stroke:none"
                   inkscape:connector-curvature="0" />
              </symbol>
              <symbol
                 id="lx-text4458-2-glyph2-0"
                 overflow="visible"
                 style="overflow:visible">
                <path
                   id="path10457"
                   d=""
                   style="stroke:none"
                   inkscape:connector-curvature="0" />
              </symbol>
              <symbol
                 id="lx-text4458-2-glyph2-1"
                 overflow="visible"
                 style="overflow:visible">
                <path
                   id="path10460"
                   d="m 2.71875,8.765625 c -0.140625,1.640625 -0.5,2.09375 -1.0625,2.09375 -0.125,0 -0.4375,-0.03125 -0.640625,-0.21875 0.296875,-0.03125 0.375,-0.265625 0.375,-0.40625 0,-0.28125 -0.21875,-0.421875 -0.40625,-0.421875 -0.203125,0 -0.421875,0.140625 -0.421875,0.4375 0,0.46875 0.5,0.828125 1.09375,0.828125 0.953125,0 1.421875,-0.875 1.640625,-1.765625 C 3.421875,8.796875 3.78125,5.890625 3.875,4.78125 L 4.0625,2.296875 C 4.203125,0.46875 4.53125,0.21875 4.984375,0.21875 c 0.09375,0 0.40625,0.015625 0.625,0.203125 C 5.328125,0.46875 5.25,0.703125 5.25,0.84375 5.25,1.125 5.46875,1.25 5.65625,1.25 5.859375,1.25 6.078125,1.125 6.078125,0.828125 6.078125,0.34375 5.578125,0 4.96875,0 c -0.9375,0 -1.328125,0.96875 -1.5,1.71875 -0.125,0.546875 -0.484375,3.359375 -0.5625,4.578125 z m 0,0"
                   style="stroke:none"
                   inkscape:connector-curvature="0" />
              </symbol>
              <symbol
                 id="lx-text4458-2-glyph3-0"
                 overflow="visible"
                 style="overflow:visible">
                <path
                   id="path10463"
                   d=""
                   style="stroke:none"
                   inkscape:connector-curvature="0" />
              </symbol>
              <symbol
                 id="lx-text4458-2-glyph3-1"
                 overflow="visible"
                 style="overflow:visible">
                <path
                   id="path10466"
                   d="m 3.703125,-2.578125 c 0.03125,-0.09375 0.03125,-0.125 0.03125,-0.140625 0,-0.15625 -0.125,-0.21875 -0.234375,-0.21875 -0.15625,0 -0.296875,0.125 -0.328125,0.265625 -0.109375,-0.1875 -0.34375,-0.40625 -0.71875,-0.40625 -0.859375,0 -1.78125,0.9375 -1.78125,1.9375 0,0.71875 0.484375,1.140625 1.0625,1.140625 0.328125,0 0.625,-0.15625 0.875,-0.375 L 2.453125,0.25 C 2.375,0.546875 2.328125,0.734375 2.0625,0.96875 c -0.3125,0.25 -0.609375,0.25 -0.78125,0.25 -0.3125,0 -0.40625,-0.015625 -0.53125,-0.046875 0.171875,-0.078125 0.21875,-0.25 0.21875,-0.34375 0,-0.171875 -0.125,-0.25 -0.265625,-0.25 C 0.5,0.578125 0.296875,0.734375 0.296875,1 c 0,0.421875 0.609375,0.421875 1,0.421875 1.09375,0 1.546875,-0.5625 1.65625,-0.953125 z M 2.75,-0.921875 c -0.03125,0.09375 -0.03125,0.109375 -0.15625,0.25 C 2.359375,-0.375 2.015625,-0.1875 1.75,-0.1875 c -0.34375,0 -0.515625,-0.3125 -0.515625,-0.671875 0,-0.296875 0.1875,-1.078125 0.375,-1.390625 0.28125,-0.484375 0.609375,-0.625 0.84375,-0.625 0.5,0 0.625,0.515625 0.625,0.59375 0,0.015625 0,0.015625 -0.015625,0.09375 z m 0,0"
                   style="stroke:none"
                   inkscape:connector-curvature="0" />
              </symbol>
              <symbol
                 id="lx-text4458-2-glyph3-2"
                 overflow="visible"
                 style="overflow:visible">
                <path
                   id="path10469"
                   d="M 1.96875,-4.625 C 1.96875,-4.640625 2,-4.734375 2,-4.734375 2,-4.78125 1.96875,-4.84375 1.875,-4.84375 c -0.140625,0 -0.71875,0.0625 -0.890625,0.078125 -0.046875,0 -0.140625,0.015625 -0.140625,0.15625 0,0.09375 0.09375,0.09375 0.171875,0.09375 0.34375,0 0.34375,0.0625 0.34375,0.109375 0,0.046875 -0.015625,0.09375 -0.03125,0.15625 l -0.875,3.4375 C 0.4375,-0.734375 0.4375,-0.65625 0.4375,-0.59375 c 0,0.453125 0.390625,0.65625 0.71875,0.65625 0.171875,0 0.390625,-0.046875 0.5625,-0.359375 C 1.875,-0.5625 1.96875,-0.96875 1.96875,-1 c 0,-0.09375 -0.09375,-0.09375 -0.109375,-0.09375 -0.109375,0 -0.125,0.046875 -0.140625,0.171875 C 1.625,-0.578125 1.484375,-0.125 1.1875,-0.125 1,-0.125 0.953125,-0.296875 0.953125,-0.46875 0.953125,-0.546875 0.96875,-0.671875 1,-0.75 Z m 0,0"
                   style="stroke:none"
                   inkscape:connector-curvature="0" />
              </symbol>
            </g>
          </defs>
          <g
             id="lx-text4458-2-surface1"
             style="stroke:#3ab0e5;stroke-opacity:1">
            <g
               id="g10472"
               style="stroke:#3ab0e5;stroke-opacity:1">
              <use
                 id="use10474"
                 y="0"
                 x="0"
                 xlink:href="#lx-text4458-2-glyph0-1"
                 width="100%"
                 height="100%"
                 style="stroke:#3ab0e5;stroke-opacity:1" />
            </g>
            <g
               id="g10476"
               style="stroke:#3ab0e5;stroke-opacity:1">
              <use
                 id="use10478"
                 y="0"
                 x="9.3260002"
                 xlink:href="#lx-text4458-2-glyph1-1"
                 width="100%"
                 height="100%"
                 style="stroke:#3ab0e5;stroke-opacity:1" />
            </g>
            <g
               id="g10480"
               style="stroke:#3ab0e5;stroke-opacity:1">
              <use
                 id="use10482"
                 y="-8.0249996"
                 x="19.841999"
                 xlink:href="#lx-text4458-2-glyph2-1"
                 width="100%"
                 height="100%"
                 style="stroke:#3ab0e5;stroke-opacity:1" />
            </g>
            <g
               id="g10484"
               style="stroke:#3ab0e5;stroke-opacity:1">
              <use
                 id="use10486"
                 y="-4.4439998"
                 x="29.34"
                 xlink:href="#lx-text4458-2-glyph3-1"
                 width="100%"
                 height="100%"
                 style="stroke:#3ab0e5;stroke-opacity:1" />
            </g>
            <path
               id="path10488"
               transform="matrix(1,0,0,-1,29.34,-2.49)"
               d="m -4.0625e-4,-0.00178125 4.13671925,0"
               style="fill:none;stroke:#3ab0e5;stroke-width:0.398;stroke-linecap:butt;stroke-linejoin:miter;stroke-miterlimit:10;stroke-opacity:1"
               inkscape:connector-curvature="0" />
            <g
               id="g10490"
               style="stroke:#3ab0e5;stroke-opacity:1">
              <use
                 id="use10492"
                 y="3.4360001"
                 x="30.129"
                 xlink:href="#lx-text4458-2-glyph3-2"
                 width="100%"
                 height="100%"
                 style="stroke:#3ab0e5;stroke-opacity:1" />
            </g>
            <g
               id="g10494"
               style="stroke:#3ab0e5;stroke-opacity:1">
              <use
                 id="use10496"
                 y="0"
                 x="34.672001"
                 xlink:href="#lx-text4458-2-glyph0-2"
                 width="100%"
                 height="100%"
                 style="stroke:#3ab0e5;stroke-opacity:1" />
              <use
                 id="use10498"
                 y="0"
                 x="39.342468"
                 xlink:href="#lx-text4458-2-glyph0-3"
                 width="100%"
                 height="100%"
                 style="stroke:#3ab0e5;stroke-opacity:1" />
              <use
                 id="use10500"
                 y="0"
                 x="42.774582"
                 xlink:href="#lx-text4458-2-glyph0-4"
                 width="100%"
                 height="100%"
                 style="stroke:#3ab0e5;stroke-opacity:1" />
              <use
                 id="use10502"
                 y="0"
                 x="48.754135"
                 xlink:href="#lx-text4458-2-glyph0-5"
                 width="100%"
                 height="100%"
                 style="stroke:#3ab0e5;stroke-opacity:1" />
            </g>
            <g
               id="g10504"
               style="stroke:#3ab0e5;stroke-opacity:1">
              <use
                 id="use10506"
                 y="0"
                 x="53.709534"
                 xlink:href="#lx-text4458-2-glyph0-6"
                 width="100%"
                 height="100%"
                 style="stroke:#3ab0e5;stroke-opacity:1" />
              <use
                 id="use10508"
                 y="0"
                 x="58.895065"
                 xlink:href="#lx-text4458-2-glyph0-7"
                 width="100%"
                 height="100%"
                 style="stroke:#3ab0e5;stroke-opacity:1" />
            </g>
          </g>
        </g>
        <g
           style="fill:#ff7e2a;fill-opacity:0.99607843"
           id="lx-text4458-2-1"
           transform="matrix(3.4967695,0,0,3.4967695,554.58806,231.04082)">
          <defs
             id="defs10511">
            <g
               id="g10513">
              <symbol
                 id="lx-text4458-2-1-glyph0-0"
                 overflow="visible"
                 style="overflow:visible">
                <path
                   id="path10516"
                   d=""
                   style="stroke:none"
                   inkscape:connector-curvature="0" />
              </symbol>
              <symbol
                 id="lx-text4458-2-1-glyph0-1"
                 overflow="visible"
                 style="overflow:visible">
                <path
                   id="path10519"
                   d="m 4.53125,-4.984375 c 0,-0.65625 -0.171875,-2.046875 -1.1875,-2.046875 -1.390625,0 -2.921875,2.8125 -2.921875,5.09375 0,0.9375 0.28125,2.046875 1.1875,2.046875 1.40625,0 2.921875,-2.859375 2.921875,-5.09375 z M 1.46875,-3.625 C 1.640625,-4.25 1.84375,-5.046875 2.25,-5.765625 2.515625,-6.25 2.875,-6.8125 3.328125,-6.8125 c 0.484375,0 0.546875,0.640625 0.546875,1.203125 0,0.5 -0.078125,1 -0.3125,1.984375 z m 2,0.328125 C 3.359375,-2.84375 3.15625,-2 2.765625,-1.28125 c -0.34375,0.6875 -0.71875,1.171875 -1.15625,1.171875 -0.328125,0 -0.53125,-0.296875 -0.53125,-1.21875 0,-0.421875 0.0625,-1 0.3125,-1.96875 z m 0,0"
                   style="stroke:none"
                   inkscape:connector-curvature="0" />
              </symbol>
              <symbol
                 id="lx-text4458-2-1-glyph0-2"
                 overflow="visible"
                 style="overflow:visible">
                <path
                   id="path10522"
                   d="m 6.03125,-3.703125 c 0,-0.453125 -0.171875,-0.703125 -0.40625,-0.703125 -0.25,0 -0.515625,0.234375 -0.515625,0.46875 0,0.09375 0.046875,0.203125 0.140625,0.296875 0.171875,0.15625 0.359375,0.421875 0.359375,0.84375 0,0.390625 -0.203125,0.96875 -0.5,1.421875 C 4.8125,-0.953125 4.4375,-0.609375 3.96875,-0.609375 3.40625,-0.609375 3.09375,-0.96875 3,-1.5 c 0.109375,-0.265625 0.34375,-0.90625 0.34375,-1.1875 0,-0.109375 -0.046875,-0.21875 -0.1875,-0.21875 -0.078125,0 -0.1875,0.03125 -0.265625,0.171875 C 2.78125,-2.53125 2.65625,-1.890625 2.65625,-1.53125 2.328125,-1.0625 1.9375,-0.609375 1.3125,-0.609375 c -0.671875,0 -0.875,-0.59375 -0.875,-1.140625 0,-1.25 1.015625,-2.296875 1.015625,-2.421875 0,-0.109375 -0.078125,-0.1875 -0.1875,-0.1875 -0.125,0 -0.203125,0.125 -0.265625,0.21875 -0.5,0.734375 -0.875,1.921875 -0.875,2.828125 0,0.6875 0.21875,1.421875 1.046875,1.421875 0.703125,0 1.171875,-0.5 1.53125,-1.046875 0.09375,0.578125 0.484375,1.046875 1.09375,1.046875 0.78125,0 1.25,-0.609375 1.609375,-1.359375 0.25,-0.484375 0.625,-1.84375 0.625,-2.453125 z m 0,0"
                   style="stroke:none"
                   inkscape:connector-curvature="0" />
              </symbol>
              <symbol
                 id="lx-text4458-2-1-glyph0-3"
                 overflow="visible"
                 style="overflow:visible">
                <path
                   id="path10525"
                   d="m 5.140625,-6.8125 c 0,0 0,-0.109375 -0.125,-0.109375 -0.15625,0 -1.09375,0.09375 -1.265625,0.109375 -0.078125,0.015625 -0.140625,0.0625 -0.140625,0.1875 0,0.125 0.09375,0.125 0.234375,0.125 0.484375,0 0.5,0.0625 0.5,0.171875 L 4.3125,-6.125 3.71875,-3.765625 C 3.53125,-4.140625 3.25,-4.40625 2.796875,-4.40625 c -1.15625,0 -2.390625,1.46875 -2.390625,2.921875 0,0.9375 0.546875,1.59375 1.3125,1.59375 0.203125,0 0.703125,-0.046875 1.296875,-0.75 0.078125,0.421875 0.4375,0.75 0.90625,0.75 0.359375,0 0.578125,-0.234375 0.75,-0.546875 0.15625,-0.359375 0.296875,-0.96875 0.296875,-0.984375 0,-0.109375 -0.09375,-0.109375 -0.125,-0.109375 -0.09375,0 -0.109375,0.046875 -0.140625,0.1875 -0.171875,0.640625 -0.34375,1.234375 -0.75,1.234375 -0.28125,0 -0.296875,-0.265625 -0.296875,-0.453125 0,-0.25 0.015625,-0.3125 0.046875,-0.484375 z m -2.0625,5.625 C 3.015625,-1 3.015625,-0.984375 2.875,-0.8125 2.4375,-0.265625 2.03125,-0.109375 1.75,-0.109375 c -0.5,0 -0.640625,-0.546875 -0.640625,-0.9375 0,-0.5 0.3125,-1.71875 0.546875,-2.1875 0.3125,-0.578125 0.75,-0.953125 1.15625,-0.953125 0.640625,0 0.78125,0.8125 0.78125,0.875 0,0.0625 -0.015625,0.125 -0.03125,0.171875 z m 0,0"
                   style="stroke:none"
                   inkscape:connector-curvature="0" />
              </symbol>
              <symbol
                 id="lx-text4458-2-1-glyph0-4"
                 overflow="visible"
                 style="overflow:visible">
                <path
                   id="path10528"
                   d="m 2.046875,-3.984375 0.9375,0 c 0.203125,0 0.3125,0 0.3125,-0.203125 0,-0.109375 -0.109375,-0.109375 -0.28125,-0.109375 l -0.875,0 C 2.5,-5.71875 2.546875,-5.90625 2.546875,-5.96875 c 0,-0.171875 -0.125,-0.265625 -0.296875,-0.265625 -0.03125,0 -0.3125,0 -0.390625,0.359375 l -0.390625,1.578125 -0.9375,0 c -0.203125,0 -0.296875,0 -0.296875,0.1875 0,0.125 0.078125,0.125 0.28125,0.125 l 0.875,0 C 0.671875,-1.15625 0.625,-0.984375 0.625,-0.8125 0.625,-0.265625 1,0.109375 1.546875,0.109375 2.5625,0.109375 3.125,-1.34375 3.125,-1.421875 3.125,-1.53125 3.046875,-1.53125 3.015625,-1.53125 2.921875,-1.53125 2.90625,-1.5 2.859375,-1.390625 2.4375,-0.34375 1.90625,-0.109375 1.5625,-0.109375 c -0.203125,0 -0.3125,-0.125 -0.3125,-0.453125 0,-0.25 0.03125,-0.3125 0.0625,-0.484375 z m 0,0"
                   style="stroke:none"
                   inkscape:connector-curvature="0" />
              </symbol>
              <symbol
                 id="lx-text4458-2-1-glyph1-0"
                 overflow="visible"
                 style="overflow:visible">
                <path
                   id="path10531"
                   d=""
                   style="stroke:none"
                   inkscape:connector-curvature="0" />
              </symbol>
              <symbol
                 id="lx-text4458-2-1-glyph1-1"
                 overflow="visible"
                 style="overflow:visible">
                <path
                   id="path10534"
                   d="m 6.84375,-3.265625 c 0.15625,0 0.34375,0 0.34375,-0.1875 C 7.1875,-3.65625 7,-3.65625 6.859375,-3.65625 l -5.96875,0 c -0.140625,0 -0.328125,0 -0.328125,0.203125 0,0.1875 0.1875,0.1875 0.328125,0.1875 z m 0.015625,1.9375 c 0.140625,0 0.328125,0 0.328125,-0.203125 0,-0.1875 -0.1875,-0.1875 -0.34375,-0.1875 l -5.953125,0 c -0.140625,0 -0.328125,0 -0.328125,0.1875 0,0.203125 0.1875,0.203125 0.328125,0.203125 z m 0,0"
                   style="stroke:none"
                   inkscape:connector-curvature="0" />
              </symbol>
              <symbol
                 id="lx-text4458-2-1-glyph2-0"
                 overflow="visible"
                 style="overflow:visible">
                <path
                   id="path10537"
                   d=""
                   style="stroke:none"
                   inkscape:connector-curvature="0" />
              </symbol>
              <symbol
                 id="lx-text4458-2-1-glyph2-1"
                 overflow="visible"
                 style="overflow:visible">
                <path
                   id="path10540"
                   d="m 2.71875,8.765625 c -0.140625,1.640625 -0.5,2.09375 -1.0625,2.09375 -0.125,0 -0.4375,-0.03125 -0.640625,-0.21875 0.296875,-0.03125 0.375,-0.265625 0.375,-0.40625 0,-0.28125 -0.21875,-0.421875 -0.40625,-0.421875 -0.203125,0 -0.421875,0.140625 -0.421875,0.4375 0,0.46875 0.5,0.828125 1.09375,0.828125 0.953125,0 1.421875,-0.875 1.640625,-1.765625 C 3.421875,8.796875 3.78125,5.890625 3.875,4.78125 L 4.0625,2.296875 C 4.203125,0.46875 4.53125,0.21875 4.984375,0.21875 c 0.09375,0 0.40625,0.015625 0.625,0.203125 C 5.328125,0.46875 5.25,0.703125 5.25,0.84375 5.25,1.125 5.46875,1.25 5.65625,1.25 5.859375,1.25 6.078125,1.125 6.078125,0.828125 6.078125,0.34375 5.578125,0 4.96875,0 c -0.9375,0 -1.328125,0.96875 -1.5,1.71875 -0.125,0.546875 -0.484375,3.359375 -0.5625,4.578125 z m 0,0"
                   style="stroke:none"
                   inkscape:connector-curvature="0" />
              </symbol>
            </g>
          </defs>
          <g
             id="lx-text4458-2-1-surface1">
            <g
               id="g10543">
              <use
                 id="use10545"
                 y="0"
                 x="0"
                 xlink:href="#lx-text4458-2-1-glyph0-1"
                 width="100%"
                 height="100%" />
            </g>
            <g
               id="g10547">
              <use
                 id="use10549"
                 y="0"
                 x="7.7210002"
                 xlink:href="#lx-text4458-2-1-glyph1-1"
                 width="100%"
                 height="100%" />
            </g>
            <g
               id="g10551">
              <use
                 id="use10553"
                 y="-8.0249996"
                 x="18.237"
                 xlink:href="#lx-text4458-2-1-glyph2-1"
                 width="100%"
                 height="100%" />
            </g>
            <g
               id="g10555">
              <use
                 id="use10557"
                 y="0"
                 x="26.539"
                 xlink:href="#lx-text4458-2-1-glyph0-2"
                 width="100%"
                 height="100%" />
            </g>
            <g
               id="g10559">
              <use
                 id="use10561"
                 y="0"
                 x="33.099373"
                 xlink:href="#lx-text4458-2-1-glyph0-3"
                 width="100%"
                 height="100%" />
              <use
                 id="use10563"
                 y="0"
                 x="38.284904"
                 xlink:href="#lx-text4458-2-1-glyph0-4"
                 width="100%"
                 height="100%" />
            </g>
          </g>
        </g>
      </g>
      <g
         transform="translate(0,0.25000163)"
         id="g6201">
        <path
           style="opacity:1;fill:none;fill-opacity:1;stroke:#8dadff;stroke-width:3.1500001;stroke-linejoin:round;stroke-miterlimit:4;stroke-dasharray:none;stroke-dashoffset:0;stroke-opacity:1"
           id="path4192-7"
           sodipodi:type="arc"
           sodipodi:cx="196.38141"
           sodipodi:cy="245.8546"
           sodipodi:rx="164.17596"
           sodipodi:ry="164.17596"
           sodipodi:start="4.712389"
           sodipodi:end="5.1487213"
           d="m 196.38141,81.678635 a 164.17596,164.17596 0 0 1 69.38376,15.38201 L 196.38141,245.8546 Z" />
        <path
           style="opacity:0.95999995;fill:none;fill-opacity:1;stroke:#8dadff;stroke-width:3;stroke-linejoin:round;stroke-miterlimit:4;stroke-dasharray:6, 3;stroke-dashoffset:0;stroke-opacity:1"
           id="path4192-7-5"
           sodipodi:type="arc"
           sodipodi:cx="196.38141"
           sodipodi:cy="245.85405"
           sodipodi:rx="164.17596"
           sodipodi:ry="164.17596"
           sodipodi:start="4.712389"
           sodipodi:end="0"
           d="M 196.38141,81.678085 A 164.17596,164.17596 0 0 1 360.55737,245.85405 l -164.17596,0 z" />
        <path
           style="fill:#00ff00;fill-rule:evenodd;stroke:#dc2dff;stroke-width:4.19999981;stroke-linecap:round;stroke-linejoin:round;stroke-miterlimit:4;stroke-dasharray:none;stroke-opacity:1"
           d="m 196.37414,245.82419 0,-207.273634"
           id="path4162"
           inkscape:connector-curvature="0" />
        <path
           style="fill:#00ff00;fill-rule:evenodd;stroke:#dc2dff;stroke-width:4.19999981;stroke-linecap:round;stroke-linejoin:miter;stroke-miterlimit:4;stroke-dasharray:none;stroke-opacity:1"
           d="m 196.40383,245.85389 207.27363,0"
           id="path4162-6"
           inkscape:connector-curvature="0" />
        <g
           id="lx-text4254"
           transform="matrix(4.2979613,0,0,4.2979613,209.2309,150.81073)"
           style="fill:#ff7f2a">
          <defs
             id="defs4369">
            <g
               id="g4371">
              <symbol
                 id="lx-text4254-glyph0-0"
                 overflow="visible"
                 style="overflow:visible">
                <path
                   id="path4374"
                   d=""
                   style="stroke:none"
                   inkscape:connector-curvature="0" />
              </symbol>
              <symbol
                 id="lx-text4254-glyph0-1"
                 overflow="visible"
                 style="overflow:visible">
                <path
                   id="path4377"
                   d="m 4.53125,-4.984375 c 0,-0.65625 -0.171875,-2.046875 -1.1875,-2.046875 -1.390625,0 -2.921875,2.8125 -2.921875,5.09375 0,0.9375 0.28125,2.046875 1.1875,2.046875 1.40625,0 2.921875,-2.859375 2.921875,-5.09375 z M 1.46875,-3.625 C 1.640625,-4.25 1.84375,-5.046875 2.25,-5.765625 2.515625,-6.25 2.875,-6.8125 3.328125,-6.8125 c 0.484375,0 0.546875,0.640625 0.546875,1.203125 0,0.5 -0.078125,1 -0.3125,1.984375 z m 2,0.328125 C 3.359375,-2.84375 3.15625,-2 2.765625,-1.28125 c -0.34375,0.6875 -0.71875,1.171875 -1.15625,1.171875 -0.328125,0 -0.53125,-0.296875 -0.53125,-1.21875 0,-0.421875 0.0625,-1 0.3125,-1.96875 z m 0,0"
                   style="stroke:none"
                   inkscape:connector-curvature="0" />
              </symbol>
            </g>
          </defs>
          <g
             id="lx-text4254-surface1"
             style="fill:#ff7f2a">
            <g
               id="g4380"
               style="fill:#ff7f2a;fill-opacity:1">
              <use
                 id="use4382"
                 y="0"
                 x="0"
                 xlink:href="#lx-text4254-glyph0-1"
                 width="100%"
                 height="100%"
                 style="fill:#ff7f2a" />
            </g>
          </g>
        </g>
        <path
           sodipodi:type="star"
           style="opacity:1;fill:#3ab0e5;fill-opacity:1;stroke:none;stroke-width:1.11216033;stroke-linejoin:round;stroke-miterlimit:4;stroke-dasharray:none;stroke-dashoffset:0;stroke-opacity:1"
           id="path4405"
           sodipodi:sides="3"
           sodipodi:cx="-360.75336"
           sodipodi:cy="-236.47414"
           sodipodi:r1="10.471583"
           sodipodi:r2="5.2357917"
           sodipodi:arg1="0.52359878"
           sodipodi:arg2="1.5707963"
           inkscape:flatsided="false"
           inkscape:rounded="0"
           inkscape:randomized="0"
           d="m -351.6847,-231.23834 -9.06866,0 -9.06865,0 4.53432,-7.85369 4.53433,-7.85369 4.53433,7.85369 z"
           transform="scale(-1,-1)"
           inkscape:transform-center-y="2.4932323" />
        <g
           style="fill:#ff0000"
           transform="matrix(4.3342917,0,0,4.3342917,157.99103,90.551706)"
           id="lx-text10781">
          <defs
             id="defs10952">
            <g
               id="g10954">
              <symbol
                 style="overflow:visible"
                 overflow="visible"
                 id="lx-text10781-glyph0-0">
                <path
                   inkscape:connector-curvature="0"
                   style="stroke:none"
                   d=""
                   id="path10957" />
              </symbol>
              <symbol
                 style="overflow:visible"
                 overflow="visible"
                 id="lx-text10781-glyph0-1">
                <path
                   inkscape:connector-curvature="0"
                   style="stroke:none"
                   d="M 4.6875,-3.765625 C 4.703125,-3.8125 4.71875,-3.875 4.71875,-3.9375 c 0,-0.171875 -0.109375,-0.265625 -0.28125,-0.265625 -0.09375,0 -0.375,0.0625 -0.40625,0.421875 -0.1875,-0.359375 -0.53125,-0.625 -0.9375,-0.625 -1.125,0 -2.359375,1.390625 -2.359375,2.828125 0,0.984375 0.59375,1.578125 1.3125,1.578125 0.59375,0 1.0625,-0.46875 1.15625,-0.578125 L 3.21875,-0.5625 C 3.015625,0.3125 2.890625,0.734375 2.890625,0.75 2.84375,0.84375 2.515625,1.828125 1.453125,1.828125 1.265625,1.828125 0.9375,1.8125 0.65625,1.71875 0.953125,1.640625 1.0625,1.375 1.0625,1.203125 c 0,-0.15625 -0.109375,-0.34375 -0.375,-0.34375 -0.21875,0 -0.53125,0.171875 -0.53125,0.578125 0,0.40625 0.359375,0.609375 1.3125,0.609375 1.25,0 1.96875,-0.78125 2.125,-1.375 z M 3.40625,-1.28125 C 3.34375,-1.015625 3.109375,-0.765625 2.890625,-0.578125 2.6875,-0.40625 2.375,-0.21875 2.078125,-0.21875 c -0.5,0 -0.640625,-0.515625 -0.640625,-0.921875 0,-0.46875 0.28125,-1.65625 0.5625,-2.15625 C 2.265625,-3.78125 2.6875,-4.1875 3.109375,-4.1875 c 0.65625,0 0.796875,0.8125 0.796875,0.859375 0,0.046875 -0.015625,0.109375 -0.03125,0.140625 z m 0,0"
                   id="path10960" />
              </symbol>
            </g>
          </defs>
          <g
             style="fill:#ff0000"
             id="lx-text10781-surface1">
            <g
               style="fill:#ff0000;fill-opacity:1"
               id="g10963">
              <use
                 style="fill:#ff0000"
                 height="100%"
                 width="100%"
                 xlink:href="#lx-text10781-glyph0-1"
                 x="0"
                 y="0"
                 id="use10965" />
            </g>
          </g>
        </g>
        <g
           transform="matrix(1.05,0,0,1.05,-24.944137,-28.743411)"
           id="g11158">
          <path
             style="fill:#ff0000;fill-rule:evenodd;stroke:#ff0000;stroke-width:2;stroke-linecap:butt;stroke-linejoin:miter;stroke-miterlimit:4;stroke-dasharray:none;stroke-opacity:1"
             d="m 184.28572,134.50504 0,107.14285"
             id="path11141"
             inkscape:connector-curvature="0" />
          <path
             inkscape:transform-center-y="2.4932323"
             transform="scale(-1,-1)"
             d="m -175.6489,-238.45395 -8.63682,0 -8.63682,0 4.31841,-7.4797 4.31841,-7.4797 4.31841,7.4797 z"
             inkscape:randomized="0"
             inkscape:rounded="0"
             inkscape:flatsided="false"
             sodipodi:arg2="1.5707963"
             sodipodi:arg1="0.52359878"
             sodipodi:r2="4.9864683"
             sodipodi:r1="9.9729366"
             sodipodi:cy="-243.44041"
             sodipodi:cx="-184.28572"
             sodipodi:sides="3"
             id="path4405-7"
             style="opacity:1;fill:#ff0000;fill-opacity:1;stroke:none;stroke-width:1.11216033;stroke-linejoin:round;stroke-miterlimit:4;stroke-dasharray:none;stroke-dashoffset:0;stroke-opacity:1"
             sodipodi:type="star" />
        </g>
        <g
           id="lx-text11194"
           transform="matrix(4.8945219,0,0,4.8945219,272.37905,277.55411)"
           style="fill:#ff00ff">
          <defs
             id="defs11379">
            <g
               id="g11381">
              <symbol
                 id="lx-text11194-glyph0-0"
                 overflow="visible"
                 style="overflow:visible">
                <path
                   id="path11384"
                   d=""
                   style="stroke:none"
                   inkscape:connector-curvature="0" />
              </symbol>
              <symbol
                 id="lx-text11194-glyph0-1"
                 overflow="visible"
                 style="overflow:visible">
                <path
                   id="path11387"
                   d="M 3.328125,-3.015625 C 3.390625,-3.265625 3.625,-4.1875 4.3125,-4.1875 c 0.046875,0 0.296875,0 0.5,0.125 C 4.53125,-4 4.34375,-3.765625 4.34375,-3.515625 c 0,0.15625 0.109375,0.34375 0.375,0.34375 0.21875,0 0.53125,-0.171875 0.53125,-0.578125 0,-0.515625 -0.578125,-0.65625 -0.921875,-0.65625 -0.578125,0 -0.921875,0.53125 -1.046875,0.75 -0.25,-0.65625 -0.78125,-0.75 -1.078125,-0.75 -1.03125,0 -1.609375,1.28125 -1.609375,1.53125 0,0.109375 0.109375,0.109375 0.125,0.109375 0.078125,0 0.109375,-0.03125 0.125,-0.109375 0.34375,-1.0625 1,-1.3125 1.34375,-1.3125 0.1875,0 0.53125,0.09375 0.53125,0.671875 0,0.3125 -0.171875,0.96875 -0.53125,2.375 -0.15625,0.609375 -0.515625,1.03125 -0.953125,1.03125 -0.0625,0 -0.28125,0 -0.5,-0.125 0.25,-0.0625 0.46875,-0.265625 0.46875,-0.546875 0,-0.265625 -0.21875,-0.34375 -0.359375,-0.34375 -0.3125,0 -0.546875,0.25 -0.546875,0.578125 0,0.453125 0.484375,0.65625 0.921875,0.65625 0.671875,0 1.03125,-0.703125 1.046875,-0.75 0.125,0.359375 0.484375,0.75 1.078125,0.75 1.03125,0 1.59375,-1.28125 1.59375,-1.53125 0,-0.109375 -0.078125,-0.109375 -0.109375,-0.109375 -0.09375,0 -0.109375,0.046875 -0.140625,0.109375 -0.328125,1.078125 -1,1.3125 -1.3125,1.3125 -0.390625,0 -0.546875,-0.3125 -0.546875,-0.65625 0,-0.21875 0.046875,-0.4375 0.15625,-0.875 z m 0,0"
                   style="stroke:none"
                   inkscape:connector-curvature="0" />
              </symbol>
            </g>
          </defs>
          <g
             id="lx-text11194-surface1"
             style="fill:#ff00ff">
            <g
               id="g11390"
               style="fill:#ff00ff;fill-opacity:1">
              <use
                 id="use11392"
                 y="0"
                 x="0"
                 xlink:href="#lx-text11194-glyph0-1"
                 width="100%"
                 height="100%"
                 style="fill:#ff00ff" />
            </g>
          </g>
        </g>
        <circle
           style="opacity:1;fill:#000000;fill-opacity:1;stroke:#8dadff;stroke-width:3.1500001;stroke-linejoin:round;stroke-miterlimit:4;stroke-dasharray:none;stroke-dashoffset:0;stroke-opacity:1"
           id="path4318"
           cx="265.54971"
           cy="97.442543"
           r="8.4375" />
      </g>
    </g>
  </g>
</svg>
