<?xml version="1.0" encoding="UTF-8" standalone="no"?>
<!-- Created with Inkscape (http://www.inkscape.org/) -->

<svg
   xmlns:dc="http://purl.org/dc/elements/1.1/"
   xmlns:cc="http://creativecommons.org/ns#"
   xmlns:rdf="http://www.w3.org/1999/02/22-rdf-syntax-ns#"
   xmlns:svg="http://www.w3.org/2000/svg"
   xmlns="http://www.w3.org/2000/svg"
   xmlns:sodipodi="http://sodipodi.sourceforge.net/DTD/sodipodi-0.dtd"
   xmlns:inkscape="http://www.inkscape.org/namespaces/inkscape"
   width="16.933332mm"
   height="19.552929mm"
   viewBox="0 0 59.999994 69.28203"
   id="svg4688"
   version="1.1"
   inkscape:version="0.91 r13725"
   sodipodi:docname="AndroidIcon60.svg">
  <defs
     id="defs4690" />
  <sodipodi:namedview
     id="base"
     pagecolor="#ffffff"
     bordercolor="#666666"
     borderopacity="1.0"
     inkscape:pageopacity="0.0"
     inkscape:pageshadow="2"
     inkscape:zoom="2.8"
     inkscape:cx="-2.3947166"
     inkscape:cy="5.3301805"
     inkscape:document-units="px"
     inkscape:current-layer="layer1"
     showgrid="false"
     inkscape:window-width="1366"
     inkscape:window-height="715"
     inkscape:window-x="0"
     inkscape:window-y="0"
     inkscape:window-maximized="1"
     fit-margin-top="0"
     fit-margin-left="0"
     fit-margin-right="0"
     fit-margin-bottom="0" />
  <metadata
     id="metadata4693">
    <rdf:RDF>
      <cc:Work
         rdf:about="">
        <dc:format>image/svg+xml</dc:format>
        <dc:type
           rdf:resource="http://purl.org/dc/dcmitype/StillImage" />
        <dc:title></dc:title>
      </cc:Work>
    </rdf:RDF>
  </metadata>
  <g
     inkscape:label="Layer 1"
     inkscape:groupmode="layer"
     id="layer1"
     transform="translate(-312.50489,-650.27)">
    <path
       sodipodi:type="star"
       style="opacity:0.98000004;fill:none;fill-opacity:0.98039216;stroke:#828282;stroke-width:4.03952217;stroke-linecap:round;stroke-linejoin:miter;stroke-miterlimit:4;stroke-dasharray:none;stroke-dashoffset:0;stroke-opacity:1"
       id="path4138"
       sodipodi:sides="6"
       sodipodi:cx="342.50488"
       sodipodi:cy="684.91102"
       sodipodi:r1="32.308796"
       sodipodi:r2="27.947109"
       sodipodi:arg1="0.52359878"
       sodipodi:arg2="1.0471976"
       inkscape:flatsided="true"
       inkscape:rounded="0"
       inkscape:randomized="0"
       d="m 370.48512,701.06541 -27.98024,16.1544 -27.98024,-16.1544 0,-32.3088 27.98024,-16.1544 27.98024,16.1544 z" />
    <path
       inkscape:connector-curvature="0"
       id="path4159"
       d="m 338.82248,700.10312 c -0.25845,-0.0781 -0.66603,-0.33408 -0.85689,-0.53814 -0.11119,-0.11885 -0.26542,-0.34968 -0.34277,-0.51296 l -0.14063,-0.29686 -0.0111,-2.18564 c -0.006,-1.2021 -0.0209,-2.22854 -0.0329,-2.28099 -0.0213,-0.093 -0.0439,-0.0959 -0.89408,-0.1141 -0.995,-0.0214 -1.16501,-0.0585 -1.60098,-0.34963 -0.3303,-0.22058 -0.61814,-0.57482 -0.78303,-0.96371 l -0.12191,-0.28753 -0.0118,-6.29198 c -0.0111,-5.89096 -0.007,-6.2955 0.0636,-6.34718 0.10805,-0.079 16.74932,-0.0812 16.82835,-0.002 0.0701,0.0701 0.0764,12.04875 0.007,12.48683 -0.0868,0.5441 -0.37462,1.01519 -0.82862,1.35611 -0.42397,0.31835 -0.68669,0.38208 -1.6859,0.40897 l -0.861,0.0231 -0.0221,2.22979 c -0.0212,2.14444 -0.0257,2.23936 -0.1168,2.48005 -0.19025,0.50257 -0.51654,0.85207 -1.01221,1.08421 -0.23877,0.1118 -0.30668,0.12262 -0.77055,0.12262 -0.48711,0 -0.52137,-0.006 -0.80712,-0.14691 -0.33406,-0.16446 -0.69106,-0.49442 -0.83035,-0.76747 -0.23944,-0.46932 -0.23186,-0.38783 -0.25793,-2.7725 l -0.0244,-2.22979 -1.23632,0 -1.23632,0 -0.0221,2.27394 -0.0221,2.27395 -0.13857,0.29244 c -0.34137,0.72049 -0.94646,1.10249 -1.73386,1.09461 -0.20869,-0.002 -0.432,-0.0197 -0.49623,-0.0391 z m -7.96392,-9.02088 c -0.53852,-0.20605 -0.93143,-0.58068 -1.13328,-1.08057 l -0.10255,-0.25398 0,-4.39335 0,-4.39335 0.14136,-0.29841 c 0.46851,-0.98909 1.59202,-1.39174 2.55733,-0.91653 0.37204,0.18317 0.76316,0.60801 0.90586,0.984 l 0.10441,0.2751 0,4.39334 0,4.39335 -0.14083,0.29825 c -0.18502,0.39185 -0.53624,0.74342 -0.92391,0.92483 -0.25196,0.11791 -0.35502,0.13989 -0.71857,0.15326 -0.36074,0.0132 -0.46423,3.6e-4 -0.68982,-0.086 z m 22.07703,0.021 c -0.33307,-0.11517 -0.59716,-0.28546 -0.83185,-0.53636 -0.27199,-0.29078 -0.4209,-0.63131 -0.47258,-1.0807 -0.0576,-0.50128 -0.0534,-7.96194 0.005,-8.32654 0.0998,-0.62587 0.46901,-1.13742 1.01486,-1.40614 0.7468,-0.36765 1.57207,-0.23735 2.15716,0.34058 0.27395,0.2706 0.46869,0.62939 0.53695,0.98933 0.0245,0.12916 0.0419,1.91816 0.0419,4.31179 0,4.4609 0.006,4.35152 -0.25276,4.82644 -0.12786,0.23494 -0.4386,0.55846 -0.67776,0.70567 -0.40351,0.24834 -1.08363,0.32704 -1.52062,0.17593 z m -18.86433,-11.87147 c -0.12539,-0.0506 -0.0185,-1.08805 0.19219,-1.86577 0.51203,-1.88976 1.81419,-3.57219 3.58068,-4.62634 0.22724,-0.13561 0.42385,-0.26386 0.43692,-0.28501 0.0131,-0.0211 -0.20375,-0.45054 -0.48183,-0.9542 -0.79606,-1.44188 -0.83989,-1.53361 -0.78321,-1.63953 0.0643,-0.12032 0.20612,-0.19279 0.31158,-0.15932 0.10041,0.0319 0.212,0.21535 0.90921,1.49507 0.28922,0.53086 0.54899,0.97443 0.57725,0.9857 0.0282,0.0112 0.24674,-0.0526 0.48548,-0.14209 0.55804,-0.20901 1.31565,-0.39791 1.95784,-0.48818 0.72948,-0.10253 2.21574,-0.0676 2.89211,0.0679 0.63833,0.1279 1.01127,0.23164 1.53424,0.42678 0.3412,0.12731 0.44351,0.1497 0.49368,0.10807 0.0348,-0.0289 0.33454,-0.55294 0.66609,-1.16455 0.57631,-1.06315 0.74345,-1.31073 0.88495,-1.31073 0.0961,0 0.24038,0.16385 0.24038,0.27298 0,0.053 -0.2881,0.62004 -0.64024,1.26009 -0.35213,0.64006 -0.64023,1.18802 -0.64023,1.21771 0,0.0297 0.16392,0.15156 0.36427,0.27085 0.93956,0.55942 1.93671,1.46129 2.51741,2.27689 0.5576,0.78314 1.04852,1.91222 1.24728,2.86864 0.0976,0.46941 0.15842,1.28956 0.10084,1.35893 -0.0366,0.0441 -1.75522,0.0547 -8.41882,0.0519 -4.60508,-0.002 -8.39771,-0.0135 -8.42807,-0.0257 z m 4.97697,-3.193 c 0.41726,-0.29711 0.37478,-0.92842 -0.0797,-1.18383 -0.62888,-0.35344 -1.32215,0.39491 -0.92366,0.99706 0.062,0.0937 0.17936,0.20435 0.26072,0.24582 0.20424,0.10407 0.5524,0.0764 0.74261,-0.0591 z m 7.63119,0.0477 c 0.23827,-0.12155 0.37869,-0.391 0.35146,-0.6744 -0.0224,-0.23263 -0.11532,-0.3923 -0.31538,-0.54167 -0.17197,-0.12839 -0.58952,-0.12762 -0.7635,9.6e-4 -0.20772,0.15407 -0.32963,0.40622 -0.31015,0.64148 0.0427,0.5159 0.57426,0.80953 1.03757,0.57317 z"
       style="fill:#2479c7;fill-opacity:0.94509804" />
  </g>
</svg>
