<?xml version="1.0" encoding="UTF-8" standalone="no"?>
<!-- Created with Inkscape (http://www.inkscape.org/) -->

<svg
   xmlns:dc="http://purl.org/dc/elements/1.1/"
   xmlns:cc="http://creativecommons.org/ns#"
   xmlns:rdf="http://www.w3.org/1999/02/22-rdf-syntax-ns#"
   xmlns:svg="http://www.w3.org/2000/svg"
   xmlns="http://www.w3.org/2000/svg"
   xmlns:sodipodi="http://sodipodi.sourceforge.net/DTD/sodipodi-0.dtd"
   xmlns:inkscape="http://www.inkscape.org/namespaces/inkscape"
   width="16.933332mm"
   height="19.552929mm"
   viewBox="0 0 59.999994 69.28203"
   id="svg4688"
   version="1.1"
   inkscape:version="0.91 r13725"
   sodipodi:docname="ArduinoLogo60.svg">
  <defs
     id="defs4690" />
  <sodipodi:namedview
     id="base"
     pagecolor="#ffffff"
     bordercolor="#666666"
     borderopacity="1.0"
     inkscape:pageopacity="0.0"
     inkscape:pageshadow="2"
     inkscape:zoom="3.959798"
     inkscape:cx="-7.0297573"
     inkscape:cy="61.675802"
     inkscape:document-units="px"
     inkscape:current-layer="layer1"
     showgrid="false"
     inkscape:window-width="1366"
     inkscape:window-height="715"
     inkscape:window-x="0"
     inkscape:window-y="0"
     inkscape:window-maximized="1"
     fit-margin-top="0"
     fit-margin-left="0"
     fit-margin-right="0"
     fit-margin-bottom="0" />
  <metadata
     id="metadata4693">
    <rdf:RDF>
      <cc:Work
         rdf:about="">
        <dc:format>image/svg+xml</dc:format>
        <dc:type
           rdf:resource="http://purl.org/dc/dcmitype/StillImage" />
        <dc:title></dc:title>
      </cc:Work>
    </rdf:RDF>
  </metadata>
  <g
     inkscape:label="Layer 1"
     inkscape:groupmode="layer"
     id="layer1"
     transform="translate(-312.50489,-650.27)">
    <g
       id="g6154"
       transform="matrix(0.02019637,0,0,0.02019637,378.53452,681.37533)"
       style="opacity:0.98000004">
      <path
         style="fill:#fefefe"
         d="m -2792.1428,160.93365 0,-680.5 1000,0 1000,0 0,680.5 0,680.5 -1000,0 -1000,0 0,-680.5 z"
         id="path6158"
         inkscape:connector-curvature="0" />
      <path
         style="fill:#00969b"
         d="m -1804.1428,839.37375 c -30.1503,-3.7109 -52.4784,-13.2785 -68.5565,-29.3762 -13.3007,-13.3169 -21.2319,-29.8867 -26.1172,-54.5639 -1.5062,-7.6082 -1.7206,-20.9073 -2.0431,-126.7632 l -0.3604,-118.2631 34.2886,0.2631 34.2886,0.2632 0.5127,115.5 0.5127,115.5 2.2383,7.9138 c 6.4182,22.6925 20.6331,33.1932 46.486,34.3397 20.477,0.908 32.972,-2.3146 42.3159,-10.9139 5.6642,-5.2128 8.3782,-9.3528 11.3671,-17.3396 5.5037,-14.7068 5.3433,-11.0267 5.7833,-132.75 l 0.4076,-112.75 33.9706,0 33.9706,0 -0.3156,113.75 c -0.2898,104.433 -0.462,114.4835 -2.102,122.7054 -10.2163,51.2148 -40.1516,80.9704 -91.6472,91.0967 -10.0088,1.9682 -43.4329,2.8117 -55,1.388 z m 850.5,-0.4966 c -63.625,-9.4844 -99.4905,-53.5662 -107.528,-132.1611 -1.4381,-14.0624 -1.4378,-49.9329 6e-4,-63.2824 9.7326,-90.3318 62.9907,-141.2271 144.0274,-137.6376 72.033,3.1906 113.436,45.6713 123.4649,126.6783 2.0786,16.7895 2.0909,60.5236 0.022,76.6581 -10.7109,83.5124 -61.1949,131.6791 -137.4864,131.1754 -7.425,-0.049 -17.55,-0.6928 -22.5,-1.4307 z m 44.4251,-61.0995 c 17.0352,-4.4268 30.1667,-18.586 37.673,-40.6212 10.247,-30.0808 10.4238,-94.54 0.3489,-127.2228 -7.1358,-23.1485 -20.0018,-37.1229 -38.5913,-41.9158 -8.0267,-2.0695 -25.9643,-2.0976 -33.8141,-0.053 -8.9948,2.3428 -16.9719,7.105 -23.3843,13.9598 -17.3487,18.5458 -23.9455,46.5919 -22.8793,97.2703 0.7324,34.8139 3.9612,52.7579 12.7282,70.7387 8.5591,17.5545 21.4783,26.8705 40.9938,29.5607 6.9083,0.9522 19.8231,0.1288 26.9251,-1.7167 z m -1864.2255,56.9192 c -0.2391,-0.4198 21.8757,-73.5507 49.1439,-162.5132 l 49.5786,-161.75 45.742,0 45.7419,0 0.9218,3.25 c 0.507,1.7875 22.8032,74.6411 49.547,161.8968 26.7439,87.2558 48.6252,158.9237 48.6252,159.2621 0,0.3383 -16.9403,0.4972 -37.645,0.3531 l -37.645,-0.262 -9.0199,-31.25 -9.0199,-31.25 -54.8063,0 -54.8063,0 -2.0335,6.75 c -1.1184,3.7125 -5.3022,17.775 -9.2973,31.25 l -7.2639,24.5 -33.6643,0.2632 c -18.5153,0.1448 -33.8599,-0.08 -34.099,-0.5 z m 179.2955,-121.0132 c -0.4955,-1.5125 -8.8147,-30.2 -18.4872,-63.75 -20.6355,-71.5767 -18.6114,-64.7298 -19.0158,-64.3254 -0.179,0.179 -8.6969,28.9004 -18.9289,63.8254 -10.2319,34.925 -18.8497,64.2875 -19.1507,65.25 -0.5147,1.6458 1.745,1.75 37.9681,1.75 l 38.5154,0 -0.9009,-2.75 z m 136.4718,120.5133 c -0.2642,-0.6948 -0.3649,-73.7133 -0.2237,-162.2633 l 0.2568,-161 60.5,0.074 c 50.6175,0.062 62.4717,0.3455 72.5709,1.7371 30.1535,4.155 51.0186,12.6727 65.0301,26.5471 10.4838,10.3812 15.4565,18.7637 20.0714,33.8345 2.5037,8.1764 2.7005,10.1332 2.7452,27.3075 0.053,20.5506 -0.8478,25.6086 -6.8601,38.5 -8.8236,18.9194 -24.2418,32.0784 -46.9688,40.0863 -7.8265,2.7577 -7.8854,2.8043 -5.5,4.3506 7.9163,5.1316 17.28,16.5234 25.1219,30.5631 4.8565,8.6948 59.7894,119.6974 59.7894,120.816 0,0.3762 -17.9182,0.684 -39.8182,0.684 l -39.8183,0 -24.3277,-53.75 c -13.3802,-29.5625 -25.8845,-56.118 -27.7872,-59.0123 -8.4123,-12.7966 -21.7804,-19.2379 -39.9251,-19.2379 l -6.3091,0 -0.2572,65.75 -0.2572,65.75 -33.7763,0.2633 c -26.4848,0.2065 -33.88,-0.01 -34.2568,-1 z m 113.0044,-186.1818 c 26.141,-5.8859 39.9117,-23.7285 36.5588,-47.3694 -1.8901,-13.3264 -7.4875,-21.4448 -18.3185,-26.5687 -10.2403,-4.8444 -16.5394,-5.8356 -40.4616,-6.3665 l -22.25,-0.4939 0,41.7396 0,41.7397 18.75,-0.5556 c 11.3807,-0.3372 21.4899,-1.1725 25.7213,-2.1252 z m 160.1954,186.7518 c -0.3667,-0.3666 -0.6667,-73.5345 -0.6667,-162.5953 l 0,-161.9286 61.75,0.4698 c 66.4067,0.5052 73.4964,0.9713 94.75,6.2287 38.4884,9.5207 65.6978,30.5507 81.5013,62.9921 12.0951,24.8287 17.9043,58.4442 16.6766,96.5 -1.6819,52.1384 -14.9091,88.4048 -42.1292,115.5107 -26.4858,26.3746 -61.3735,39.7272 -111.0487,42.5016 -19.3237,1.0793 -99.8188,1.3356 -100.8333,0.321 z m 107.3595,-57.3693 c 40.7936,-4.9874 63.8511,-28.2278 71.3977,-71.964 3.6422,-21.1078 2.9781,-54.2704 -1.5319,-76.5 -6.0089,-29.6179 -20.822,-47.9954 -45.6167,-56.5929 -9.7429,-3.3783 -23.3653,-4.8949 -44.0253,-4.9012 l -19.25,-0.006 0,105.5 0,105.5 15.2762,0 c 8.402,0 19.0895,-0.4662 23.75,-1.036 z m 475.9738,30.036 0,-28 36,0 36,0 0,-106.5 0,-106.5 -36,0 -36,0 0,-28 0,-28 107,0 107,0 0,28 0,28 -36,0 -36,0 0,106.5 0,106.5 36,0 36,0 0,28 0,28 -107,0 -107,0 0,-28 z m 269.6667,27.3333 c -0.3667,-0.3666 -0.6667,-73.4916 -0.6667,-162.5 l 0,-161.8333 40.7729,0 40.7729,0 46.1916,98.25 c 25.4054,54.0375 47.8951,102.3 49.9771,107.25 l 3.7855,9 0.2545,-107.25 0.2545,-107.25 31.4985,0 31.4985,0 -0.253,162.25 -0.253,162.25 -40.3762,0 -40.3763,0 -43.4121,-93.5 c -23.8766,-51.425 -46.4323,-100.25 -50.1237,-108.5 l -6.7117,-15 -0.2544,108.75 -0.2545,108.75 -30.8289,0 c -16.9559,0 -31.1289,-0.3 -31.4955,-0.6667 z m -995.1667,-410.39482 c -73.5561,-2.73589 -143.0048,-20.49249 -207,-52.92562 -94.3666,-47.8255 -168.0086,-121.25264 -214.3629,-213.7375 -19.4585,-38.82312 -34.622,-84.9602 -41.639,-126.69271 l -2.5902,-15.40469 0.3409,-67.33898 0.341,-67.33898 4.1792,-19.5 c 9.4951,-44.30386 23.0252,-82.6359 42.2098,-119.58436 35.2221,-67.83571 84.4909,-124.40844 148.1369,-170.09778 37.367,-26.82449 88.532,-52.48006 133.9329,-67.1577 71.8242,-23.22002 150.0498,-29.66299 232.4514,-19.14561 90.3121,11.52704 173.6138,45.11957 247.5,99.80767 61.4109,45.4543 119.7471,108.2401 177.8639,191.43046 l 10.3062,14.75269 11.0881,-15.75269 c 84.1635,-119.57002 164.6462,-194.16867 260.2418,-241.21561 69.3618,-34.13608 144.2042,-51.72461 228.5,-53.69919 129.5119,-3.03374 249.4953,40.39628 344.5,124.69761 45.3337,40.22634 83.8866,90.98375 110.4878,145.46451 66.7303,136.66715 61.6194,296.33809 -13.7477,429.5 -35.9148,63.45568 -90.7952,121.84455 -152.6237,162.38082 -49.7473,32.61555 -104.9417,56.12379 -163.1164,69.47406 -34.1623,7.83976 -59.5027,10.74926 -107.3839,12.32947 -40.4628,1.33537 -67.7884,0.4181 -96.1161,-3.22644 -94.9123,-12.21111 -178.3193,-49.92909 -254.5,-115.08906 -15.908,-13.60661 -52.1374,-49.88791 -67.2726,-67.36885 -27.4473,-31.70121 -54.3291,-67.27932 -83.3358,-110.29486 -8.7918,-13.03782 -16.3015,-23.80903 -16.6883,-23.93601 -0.3868,-0.12698 -3.8533,4.57843 -7.7033,10.45645 -72.1066,110.08944 -140.1523,183.81135 -214.7788,232.69507 -61.5113,40.29263 -128.2706,64.85392 -199.8351,73.52093 -33.3041,4.03338 -61.0686,4.79405 -109.3861,2.9969 z m 76.5,-166.98523 c 99.8374,-9.02808 177.1715,-57.93104 258.4931,-163.46075 22.9863,-29.82885 49.8748,-69.38499 81.396,-119.74299 l 17.3702,-27.7505 -5.8345,-9.2495 c -121.563,-192.71644 -218.2427,-269.98805 -359.4248,-287.2716 -17.9357,-2.19569 -61.6928,-3.07282 -79.0488,-1.58456 -113.2423,9.71042 -212.4914,75.39093 -261.2065,172.85985 -10.3494,20.70701 -16.6713,37.6865 -22.2453,59.7468 -22.5747,89.34511 -2.5621,181.469 55.5038,255.5 4.5296,5.775 15.9444,18.17211 25.3662,27.54913 26.0159,25.89222 49.1291,42.47802 82.6306,59.29486 39.4095,19.7825 81.9316,31.24718 126.4478,34.09246 18.3876,1.17525 67.6278,1.18552 80.5522,0.0168 z m -212.7625,-318.20325 0.2625,-36.25 167,0 167,0 0.2625,36.25 0.2624,36.25 -167.5249,0 -167.525,0 0.2625,-36.25 z m 1220.2625,316.82553 c 77.0219,-9.76472 142.5246,-41.25449 194.5042,-93.50593 56.6382,-56.93445 88.0065,-131.82258 87.9915,-210.0696 -0.014,-73.88354 -28.8524,-146.53943 -79.9454,-201.41653 -54.2167,-58.23202 -125.5578,-93.48895 -206.5503,-102.07748 -16.387,-1.7377 -51.8091,-1.96562 -70.1955,-0.45166 -121.8996,10.03731 -213.8185,67.08166 -306.8765,190.44567 -20.2968,26.90681 -41.6844,57.95126 -64.2083,93.199 l -9.0733,14.19901 18.0277,28.80099 c 54.4345,86.96408 91.2864,136.71825 131.6388,177.72705 33.4416,33.98565 62.4605,55.93568 97.1871,73.51291 34.902,17.666 67.5903,26.72356 113.5,31.44961 10.1171,1.04149 82.4956,-0.35453 94,-1.81304 z m -110.5,-225.07553 0,-45.5 -45,0 -45,0 0,-46.5 0,-46.5 45,0 45,0 0,-45.5 0,-45.5 47,0 47,0 0,45.5 0,45.5 45.5,0 45.5,0 0,46.5 0,46.5 -45.5,0 -45.5,0 0,45.5 0,45.5 -47,0 -47,0 0,-45.5 z m 453,-486.5 0,-19 -7.5,0 -7.5,0 0,-4.5 0,-4.5 19.5,0 19.5,0 0,4.5 0,4.5 -7,0 -7,0 0,19 0,19 -5,0 -5,0 0,-19 z m 27,-4.5 0,-23.5 6.4566,0 6.4565,0 4.7184,15 c 2.595,8.25 4.982,15 5.3043,15 0.3223,0 2.6105,-6.6375 5.0848,-14.75 l 4.4987,-14.75 6.7403,-0.29569 6.7404,-0.29569 0,23.60048 0,23.60048 -4.75,-0.30479 -4.75,-0.30479 -0.5,-13.35876 -0.5,-13.35876 -4.0295,13.35876 -4.0296,13.35876 -4.4385,0 -4.4386,0 -4.6941,-14.5 -4.6942,-14.5 -0.088,14.75 -0.0875,14.75 -4.5,0 -4.5,0 0,-23.5 z"
         id="path6156"
         inkscape:connector-curvature="0" />
    </g>
    <path
       sodipodi:type="star"
       style="opacity:0.98000004;fill:none;fill-opacity:0.98039216;stroke:#828282;stroke-width:4.03952217;stroke-linecap:round;stroke-linejoin:miter;stroke-miterlimit:4;stroke-dasharray:none;stroke-dashoffset:0;stroke-opacity:1"
       id="path4138"
       sodipodi:sides="6"
       sodipodi:cx="342.50488"
       sodipodi:cy="684.91101"
       sodipodi:r1="32.308796"
       sodipodi:r2="27.947109"
       sodipodi:arg1="0.52359878"
       sodipodi:arg2="1.0471976"
       inkscape:flatsided="true"
       inkscape:rounded="0"
       inkscape:randomized="0"
       d="m 370.48512,701.06541 -27.98024,16.1544 -27.98024,-16.1544 0,-32.3088 27.98024,-16.1544 27.98024,16.1544 z" />
  </g>
</svg>
