<?xml version="1.0" encoding="UTF-8" standalone="no"?>
<!-- Created with Inkscape (http://www.inkscape.org/) -->

<svg
   xmlns:dc="http://purl.org/dc/elements/1.1/"
   xmlns:cc="http://creativecommons.org/ns#"
   xmlns:rdf="http://www.w3.org/1999/02/22-rdf-syntax-ns#"
   xmlns:svg="http://www.w3.org/2000/svg"
   xmlns="http://www.w3.org/2000/svg"
   xmlns:sodipodi="http://sodipodi.sourceforge.net/DTD/sodipodi-0.dtd"
   xmlns:inkscape="http://www.inkscape.org/namespaces/inkscape"
   width="28.222221mm"
   height="31.722599mm"
   viewBox="0 0 99.999997 112.40291"
   id="svg4688"
   version="1.1"
   inkscape:version="0.91 r13725"
   sodipodi:docname="CLogo.svg">
  <defs
     id="defs4690" />
  <sodipodi:namedview
     id="base"
     pagecolor="#ffffff"
     bordercolor="#666666"
     borderopacity="1.0"
     inkscape:pageopacity="0.0"
     inkscape:pageshadow="2"
     inkscape:zoom="0.98994949"
     inkscape:cx="-46.06301"
     inkscape:cy="58.928715"
     inkscape:document-units="px"
     inkscape:current-layer="layer1"
     showgrid="false"
     inkscape:window-width="1366"
     inkscape:window-height="715"
     inkscape:window-x="0"
     inkscape:window-y="0"
     inkscape:window-maximized="1"
     fit-margin-top="0"
     fit-margin-left="0"
     fit-margin-right="0"
     fit-margin-bottom="0" />
  <metadata
     id="metadata4693">
    <rdf:RDF>
      <cc:Work
         rdf:about="">
        <dc:format>image/svg+xml</dc:format>
        <dc:type
           rdf:resource="http://purl.org/dc/dcmitype/StillImage" />
        <dc:title></dc:title>
      </cc:Work>
    </rdf:RDF>
  </metadata>
  <g
     inkscape:label="Layer 1"
     inkscape:groupmode="layer"
     id="layer1"
     transform="translate(-322.04725,-467.93957)">
    <g
       id="g6140"
       transform="matrix(0.08333907,0,0,0.08333907,573.33906,519.50688)"
       style="opacity:0.98000004">
      <path
         style="fill:#6498d0"
         d="m -2443.8185,728.54489 c -3.3153,-0.7285 -9.0277,-2.4537 -12.6943,-3.8338 -5.75,-2.1643 -497.6386,-285.2153 -511.2918,-294.2164 -21.9045,-14.4408 -40.275,-43.911 -45.9893,-73.7767 -1.3079,-6.83618 -1.4969,-44.71703 -1.4969,-300.10478 0,-318.8206 -0.3311,-300.09903 5.6007,-316.70512 7.7489,-21.69294 22.5918,-42.68527 38.7114,-54.74968 6.109,-4.57212 499.9145,-289.83188 510.1879,-294.72344 26.4631,-12.60015 66.9936,-12.21345 93,0.88731 6.6766,3.36335 495.0835,285.17798 503,290.235 20.9903,13.40839 40.9667,41.82662 47.2791,67.25856 1.5455,6.22671 1.7037,29.79929 2.0249,301.75435 0.2685,227.41629 0.07,297.17642 -0.8674,304.5 -1.286,10.04874 -5.1962,22.55602 -10.1606,32.5 -8.1527,16.3306 -23.211,34.2949 -35.776,42.6806 -4.0604,2.7098 -325.6621,188.6041 -494.1019,285.6039 -21.5542,12.4125 -29.3518,14.2557 -59.7135,14.1151 -13.9315,-0.064 -23.8397,-0.574 -27.7123,-1.4249 z m 76.5277,-275.907 c 78.5271,-11.0273 143.487,-38.614 203,-86.20831 15.8129,-12.64607 43.8815,-40.26821 56.5823,-55.68222 16.8944,-20.50365 38.6855,-52.86775 36.7955,-54.6488 -1.525,-1.43711 -167.6871,-97.2965 -169.4542,-97.75861 -1.2215,-0.31942 -3.1871,1.85574 -7.1343,7.89467 -15.3764,23.52533 -39.3191,46.66466 -63.2893,61.1659 -22.0038,13.31158 -45.3426,22.08227 -71.5,26.86951 -15.3652,2.8121 -48.4261,3.05385 -63.5,0.46433 -27.4457,-4.71484 -52.7412,-14.10892 -74.7538,-27.76158 -23.893,-14.81892 -47.2729,-37.48977 -61.8466,-59.97102 -7.5111,-11.58655 -18.0555,-34.01441 -22.7699,-48.43157 -27.9637,-85.51614 4.251,-178.48711 79.1896,-228.53914 73.8021,-49.29303 171.1508,-43.87443 239.2933,13.3195 15.3286,12.86567 33.9369,34.24943 41.474,47.6599 1.2549,2.23286 2.7259,4.05974 3.2687,4.05974 2.1593,0 171.5971,-98.59133 171.6201,-99.86112 0.036,-1.97989 -8.9298,-16.50001 -18.1698,-29.42657 -29.6345,-41.4582 -63.6579,-74.47362 -105.3056,-102.18584 -88.7106,-59.0277 -195.8528,-80.26422 -300,-59.46268 -159.9671,31.95058 -285.4325,159.42335 -314.8979,319.93621 -4.849,26.41477 -6.0207,40.38886 -6.0371,72 -0.012,22.32979 0.4191,33.02434 1.7718,44 9.8538,79.95173 36.9745,144.04561 87.9299,207.80277 19.8917,24.88922 52.3789,55.17735 80.2333,74.80233 46.4296,32.7122 99.3056,55.1508 155,65.7762 11.0234,2.1031 26.7497,4.2454 44,5.9938 10.3873,1.0529 67.4948,-0.262 78.5,-1.8074 z m 307,-352.5677 0.5,-21.5 21.5,-0.5 21.5,-0.5 0.2699,-21.25 0.2699,-21.25 -20.7699,-0.0153 c -11.4235,-0.008 -21.3232,-0.36679 -21.9994,-0.79636 -0.8959,-0.56909 -1.3029,-6.60309 -1.5,-22.23469 l -0.2705,-21.45365 -21,0 -21,0 -0.2708,20.92262 c -0.1706,13.17985 -0.6725,21.40659 -1.3562,22.23042 -0.8176,0.98509 -6.3029,1.37432 -22.2292,1.57738 l -21.1438,0.26958 -0.2703,20.11074 c -0.2137,15.9012 0.012,20.34485 1.0774,21.22919 0.8741,0.72544 8.6995,1.2136 22.2703,1.38926 l 20.9226,0.27081 0.2696,21.76983 0.2695,21.76983 21.2305,-0.26983 21.2304,-0.26983 0.5,-21.5 z m 166.393,20.41821 c 0.3339,-0.86998 0.607,-10.7612 0.607,-21.9805 l 0,-20.39871 21.75,-0.2695 21.75,-0.2695 0.2699,-21.25 0.2699,-21.25 -20.4381,0 c -11.241,0 -21.1499,-0.27314 -22.0199,-0.60699 -1.3706,-0.52593 -1.5818,-3.31952 -1.5818,-20.91821 0,-11.17117 -0.2731,-21.02303 -0.607,-21.89301 -0.5265,-1.37219 -3.3614,-1.58179 -21.393,-1.58179 -18.0316,0 -20.8665,0.2096 -21.393,1.58179 -0.3339,0.86998 -0.607,10.72184 -0.607,21.89301 0,17.59869 -0.2112,20.39228 -1.5818,20.91821 -0.87,0.33385 -10.7789,0.60699 -22.0199,0.60699 l -20.4381,0 0.2699,21.25 0.2699,21.25 21.75,0.2695 21.75,0.2695 0,20.39871 c 0,11.2193 0.2731,21.11052 0.607,21.9805 0.5265,1.37219 3.3614,1.58179 21.393,1.58179 18.0316,0 20.8665,-0.2096 21.393,-1.58179 z"
         id="path6144"
         inkscape:connector-curvature="0" />
      <path
         style="fill:#004b8b"
         d="m -2436.7908,729.40269 c -6.7539,-1.7507 -21.6956,-6.945 -25.5662,-8.8879 -14.1853,-7.1204 -503.6727,-290.5936 -509.7616,-295.2145 -4.0302,-3.0586 -9.7708,-8.4409 -12.7569,-11.9607 -6.9541,-8.197 -13.6531,-18.0559 -13.1976,-19.4225 0.4276,-1.2829 231.4314,-134.93641 234.2873,-135.55331 1.6421,-0.35469 3.4475,1.84296 9.9727,12.13976 42.3678,66.85648 105.712,121.28275 178.0223,152.95945 72.9807,31.9703 154.043,41.3846 232.5,27.0018 65.5475,-12.0163 127.0399,-40.3617 180.5,-83.20285 14.6622,-11.74981 46.0973,-42.92108 57.6758,-57.19175 14.2192,-17.52543 36.8242,-50.59986 36.8242,-53.87929 0,-1.11269 -169.6797,-99.33682 -172.5495,-99.88543 -1.6277,-0.31114 -2.8628,0.89327 -5.8057,5.66115 -31.2296,50.59586 -86.6133,85.17671 -147.61,92.16562 -13.0882,1.49962 -41.2408,0.71426 -53.5348,-1.49344 -20.7461,-3.72551 -34.8155,-8.24504 -53.3013,-17.12205 -32.7507,-15.72719 -58.0544,-37.44815 -79.0478,-67.85567 -3.383,-4.90001 -6.1509,-9.68796 -6.1509,-10.63988 0,-1.24254 23.4841,-15.27994 83.25,-49.76193 45.7875,-26.41713 85.275,-49.11364 87.75,-50.43668 2.475,-1.32304 42.3,-24.23207 88.5,-50.90896 46.2,-26.67688 84.8172,-48.80218 85.8159,-49.16734 2.5794,-0.94305 169.3478,-97.37049 174.1841,-100.71527 2.2,-1.52151 46.75,-27.40969 99,-57.52928 52.25,-30.11959 104.225,-60.1022 115.5,-66.62801 20.1712,-11.6748 20.5265,-11.8327 22.1529,-9.84351 2.3549,2.88027 7.3131,15.16836 9.9019,24.53997 1.2155,4.4 2.7129,9.08062 3.3276,10.40139 1.6673,3.58243 1.5902,595.84665 -0.078,599.19722 -0.6576,1.32077 -2.1447,6.00139 -3.3047,10.40139 -2.6702,10.12844 -10.3118,26.2245 -17.1848,36.1976 -6.0329,8.754 -17.1394,20.399 -23.8212,24.9762 -4.7096,3.2262 -498.3227,288.4052 -506.0604,292.3703 -2.4383,1.2495 -8.9333,3.8394 -14.4333,5.7555 l -10,3.4837 -21.5,0.2838 c -11.825,0.1561 -22.4,0.051 -23.5,-0.2346 z m 377.3,-606.5325 c 0.8564,-0.85641 1.2,-7.15556 1.2,-22 l 0,-20.8 20.3089,0 c 14.6804,0 20.7831,-0.3468 22.0202,-1.25135 1.5401,-1.1262 1.6843,-3.45157 1.4411,-23.25 l -0.2702,-21.99865 -21.75,-0.2695 -21.75,-0.2695 0,-20.90907 c 0,-17.67492 -0.2431,-21.15214 -1.5714,-22.4805 -1.3279,-1.32787 -4.7963,-1.57143 -22.3776,-1.57143 -16.0719,0 -21.0568,0.30204 -21.9077,1.32738 -0.7043,0.84854 -1.1994,8.8751 -1.3725,22.25 l -0.2708,20.92262 -21.2254,0.26982 c -20.1296,0.25588 -21.2813,0.37413 -22.3069,2.29045 -0.7049,1.31715 -0.9745,9.15689 -0.7745,22.51819 0.2529,16.89772 0.5702,20.66382 1.8068,21.44424 0.825,0.52067 10.8375,0.95357 22.25,0.96199 l 20.75,0.01531 0,21.33333 c 0,11.73334 0.3,21.63334 0.6667,22 1.2681,1.26816 43.8348,0.76516 45.1333,-0.53333 z m 167.2,-20.8 0.5,-21.5 21,-0.5 c 11.55,-0.275 21.5625,-0.86406 22.25,-1.30902 0.936,-0.60582 1.2462,-6.13139 1.2347,-22 -0.01,-11.65504 -0.3668,-21.74426 -0.7964,-22.4205 -0.5691,-0.89585 -6.6031,-1.30292 -22.2347,-1.5 l -21.4536,-0.27048 -0.2705,-21.45364 c -0.1971,-15.6316 -0.6041,-21.6656 -1.5,-22.23469 -0.6762,-0.42957 -10.4545,-0.78104 -21.7295,-0.78104 -11.275,0 -21.0533,0.35147 -21.7295,0.78104 -0.8959,0.56909 -1.3029,6.60309 -1.5,22.23469 l -0.2705,21.45364 -21.4536,0.27048 c -15.6316,0.19708 -21.6656,0.60415 -22.2347,1.5 -0.4296,0.67624 -0.788,10.76546 -0.7964,22.4205 -0.012,15.86861 0.2987,21.39418 1.2347,22 0.6875,0.44496 10.7,1.03402 22.25,1.30902 l 21,0.5 0.2563,20.5 c 0.141,11.275 0.4677,21.07114 0.726,21.7692 0.3644,0.98477 5.4612,1.20887 22.7437,1 l 22.274,-0.2692 0.5,-21.5 z"
         id="path6142"
         inkscape:connector-curvature="0" />
    </g>
  </g>
</svg>
