<?xml version="1.0" encoding="UTF-8" standalone="no"?>
<!-- Created with Inkscape (http://www.inkscape.org/) -->

<svg
   xmlns:dc="http://purl.org/dc/elements/1.1/"
   xmlns:cc="http://creativecommons.org/ns#"
   xmlns:rdf="http://www.w3.org/1999/02/22-rdf-syntax-ns#"
   xmlns:svg="http://www.w3.org/2000/svg"
   xmlns="http://www.w3.org/2000/svg"
   xmlns:sodipodi="http://sodipodi.sourceforge.net/DTD/sodipodi-0.dtd"
   xmlns:inkscape="http://www.inkscape.org/namespaces/inkscape"
   width="11.288889mm"
   height="5.7750769mm"
   viewBox="0 0 40 20.462871"
   id="svg4688"
   version="1.1"
   inkscape:version="0.91 r13725"
   sodipodi:docname="Empty.svg">
  <defs
     id="defs4690" />
  <sodipodi:namedview
     id="base"
     pagecolor="#ffffff"
     bordercolor="#666666"
     borderopacity="1.0"
     inkscape:pageopacity="0.0"
     inkscape:pageshadow="2"
     inkscape:zoom="3.959798"
     inkscape:cx="-5.2835451"
     inkscape:cy="11.295437"
     inkscape:document-units="px"
     inkscape:current-layer="layer1"
     showgrid="false"
     inkscape:window-width="1366"
     inkscape:window-height="715"
     inkscape:window-x="0"
     inkscape:window-y="0"
     inkscape:window-maximized="1"
     fit-margin-top="0"
     fit-margin-left="0"
     fit-margin-right="0"
     fit-margin-bottom="0" />
  <metadata
     id="metadata4693">
    <rdf:RDF>
      <cc:Work
         rdf:about="">
        <dc:format>image/svg+xml</dc:format>
        <dc:type
           rdf:resource="http://purl.org/dc/dcmitype/StillImage" />
        <dc:title></dc:title>
      </cc:Work>
    </rdf:RDF>
  </metadata>
  <g
     inkscape:label="Layer 1"
     inkscape:groupmode="layer"
     id="layer1"
     transform="translate(-352.04725,-513.90959)">
    <g
       id="g4152"
       transform="matrix(0.02062154,0,0,0.04031016,408.16842,495.6671)">
      <path
         inkscape:connector-curvature="0"
         id="path4146"
         d="m -2302.7051,959.26547 c -3.486,-1.4657 -8.0549,-6.9616 -8.0717,-9.7092 -0.01,-1.1953 -10e-4,-100.61082 0.013,-220.92332 0.014,-120.3125 -0.1751,-218.75 -0.4213,-218.75 -1.9101,0 -16.328,3.4493 -21.5785,5.1624 -6.633,2.1642 -20.8965,9.0394 -26.75,12.8939 -1.7875,1.1771 -3.25,1.9 -3.25,1.6066 0,-0.2934 11.7,-32.3599 26,-71.2588 14.3,-38.8989 26.0028,-71.4405 26.0061,-72.3147 0,-0.8742 0.7298,-2.9394 1.6143,-4.5894 1.6939,-3.1601 11.4886,-28.77516 11.1037,-29.03827 -0.1233,-0.0843 -5.1838,-0.67497 -11.2456,-1.3127 -31.1387,-3.27591 -56.1289,-18.03557 -72.3359,-42.72299 -9.6715,-14.73205 -14.3172,-30.62724 -14.3144,-48.97594 0.01,-35.09294 19.5636,-65.36033 52.6718,-81.51285 41.8703,-20.42728 93.4582,-8.28207 120.6951,28.41497 9.0175,12.14941 14.6969,25.60248 17.2657,40.89778 l 0.6298,3.75 57.8918,0 57.8918,0 -0.5761,-3.75 c -1.7968,-11.69418 -9.0521,-30.57671 -15.4348,-40.17055 -2.1476,-3.22803 -2.1656,-3.39147 -0.3195,-2.90388 1.0759,0.28417 30.5312,10.95034 65.4562,23.70261 34.925,12.75226 64.625,23.58949 66,24.08272 1.375,0.49323 7,2.64489 12.5,4.78146 l 10,3.88468 0.2533,-146.31352 0.2533,-146.313519 330.9967,0 330.9967,0 0,130.5 0,130.499999 154.5,0 c 84.975,0 154.49998,-0.26681 154.49998,-0.59292 0,-0.3261 -0.9029,-5.02338 -2.0064,-10.4384 -3.417,-16.76772 -10.2872,-33.78526 -19.36558,-47.96868 -1.9362,-3.025 -3.1758,-5.62292 -2.7547,-5.77315 0.4211,-0.15023 3.8843,0.90838 7.69608,2.35246 3.8118,1.44409 22.0056,8.16054 40.4306,14.92545 18.425,6.76491 55.0387,20.2188 81.3639,29.89754 26.3251,9.67873 48.6001,17.59806 49.5,17.59849 0.8998,4.3e-4 4.3361,1.27169 7.6361,2.82501 3.3,1.55332 12.6375,5.25787 20.75,8.23233 8.1125,2.97446 14.75,5.65617 14.75,5.95936 0,0.30319 -6.6375,2.93898 -14.75,5.85731 -8.1125,2.91834 -16.4561,6.4091 -18.5414,7.75724 -2.0853,1.34815 -6.2252,2.90107 -9.1997,3.45094 -2.9745,0.54987 -15.2183,4.60989 -27.2085,9.02227 -121.8865,44.85411 -152.51498,56.0135 -152.84118,55.6873 -0.2091,-0.20914 0.9778,-2.38553 2.6376,-4.83641 5.04188,-7.44473 12.87068,-23.67642 15.91958,-33.00631 3.1901,-9.76224 6.2887,-24.64722 5.4224,-26.04884 -0.3204,-0.51844 -26.00878,-0.90099 -60.50218,-0.90099 l -59.9453,0 0.3791,338.25 c 0.2085,186.0375 0.6943,340.50002 1.0796,343.25002 0.5993,4.2778 0.3641,5.4977 -1.6282,8.4459 -1.2807,1.8953 -3.7142,4.2552 -5.4076,5.2442 -2.9533,1.7248 -27.4076,1.8087 -598.3886,2.0541 -436.8531,0.1877 -596.017,-0.042 -597.9672,-0.8617 z m 1170.9416,-362.88862 0,-333.50609 -78.25,0.2561 -78.25,0.25609 -0.2538,126.25 -0.2539,126.25 -330.9961,0 -330.9962,0 0,-125 c 0,-68.75 -0.2831,-125 -0.629,-125 -1.558,0 -14.3451,5.03554 -18.77,7.39155 -2.6944,1.43465 -5.856,2.60845 -7.0259,2.60845 -1.1698,0 -30.6903,10.51902 -65.601,23.37561 -34.9108,12.85658 -63.5976,23.27062 -63.7485,23.1423 -0.1509,-0.12831 1.5069,-3.16529 3.684,-6.74883 6.3285,-10.41698 11.2362,-23.7198 13.4725,-36.51908 l 0.5679,-3.25 -58.5064,0 c -45.961,0 -58.5777,0.26803 -58.8391,1.25 -0.1829,0.6875 -1.3508,4.625 -2.5951,8.75 -10.4201,34.54189 -41.9105,60.20717 -79.6157,64.88828 -4.1542,0.51575 -7.7982,1.18291 -8.0979,1.48257 -0.7765,0.77655 7.65,23.5843 9.9273,26.86965 1.0447,1.5073 2.1621,4.4323 2.483,6.5 0.321,2.0677 10.912,31.8845 23.5357,66.2595 12.6237,34.375 24.2303,65.9961 25.7923,70.2692 l 2.8402,7.7692 -4.1872,-2.5944 c -12.4878,-7.7377 -31.0592,-14.9284 -43.4371,-16.8186 l -4.25,-0.649 0,210.0118 0,210.01182 576,0 576,0 0,-333.50612 z m -181,-354.4939 0,-249.9999989 -307,0 -307,0 0,249.9999989 0,250 307,0 307,0 0,-250 z m -971,76.38753 c 11.3944,-2.57432 20.4879,-7.8273 30.0551,-17.36172 9.4246,-9.39242 13.7287,-16.76343 16.3957,-28.0787 9.298,-39.4481 -24.8593,-76.57007 -67.7033,-73.57951 -25.9202,1.80927 -47.8219,17.68951 -56.7288,41.1324 -2.8157,7.41103 -3.8397,23.22816 -2.0591,31.80543 1.9927,9.59877 8.3269,20.91677 15.95,28.49983 17.1468,17.05647 39.3984,23.16088 64.0904,17.58227 z m -303.7095,6.49795 c 4.3214,-6.76729 9.1493,-16.31271 11.7001,-23.13273 2.6569,-7.10376 6.0094,-20.42953 6.0094,-23.88686 l 0,-2.81418 -70.9273,-0.27585 c -69.8585,-0.2717 -70.9689,-0.30693 -73.6882,-2.33765 -9.2744,-6.9259 -9.5004,-18.14671 -0.4866,-24.16828 l 3.3979,-2.26993 70.9897,0 70.9898,0 -0.6302,-5.36252 c -1.4939,-12.71052 -10.0396,-35.08322 -17.5957,-46.06569 -1.73,-2.51449 -2.8525,-4.57179 -2.4944,-4.57179 0.3582,0 34.3202,12.37932 75.4711,27.5096 41.151,15.13028 76.3171,27.78931 78.1469,28.13118 1.8298,0.34187 4.677,1.40976 6.327,2.37309 1.65,0.96333 8.9579,3.92385 16.2399,6.57893 7.2819,2.65509 12.9069,5.14781 12.5,5.5394 -0.407,0.39158 -5.781,2.55981 -11.9424,4.81829 -6.1613,2.25848 -13.7445,5.44354 -16.8515,7.07792 -3.107,1.63437 -6.7279,2.97159 -8.0465,2.97159 -1.7145,0 -129.6096,46.29381 -150.7238,54.55702 -1.3948,0.5459 -1.0148,-0.55364 1.6148,-4.67154 z"
         style="fill:#000000" />
      <path
         transform="translate(322.04725,467.93957)"
         inkscape:connector-curvature="0"
         id="path4148"
         d="m -2665.2541,-170.82229 c -26.6126,-26.6126 -26.3989,-49.02961 0.7258,-76.15433 18.574,-18.57399 22.2113,-19.92248 46.3869,-17.19755 35.8731,4.04343 56.0562,24.2863 56.0562,56.22237 0,19.22366 -3.3347,26.42147 -18.5318,40 -27.1918,24.29594 -58.5336,23.23298 -84.6371,-2.87049 z"
         style="opacity:0.98000004;fill:#00ff00;fill-opacity:0.98039216;stroke:#ffffff;stroke-width:26.2857132;stroke-linecap:round;stroke-linejoin:round;stroke-miterlimit:4;stroke-dasharray:none;stroke-dashoffset:0;stroke-opacity:0" />
      <path
         transform="translate(322.04725,467.93957)"
         inkscape:connector-curvature="0"
         id="path4150"
         d="m -2244.6826,-225.67943 0,-245.71429 302.8571,0 302.8571,0 0,245.71429 0,245.714286 -302.8571,0 -302.8571,0 0,-245.714286 z"
         style="opacity:0.98000004;fill:#ff00ff;fill-opacity:0.98039216;stroke:#ffffff;stroke-width:26.2857132;stroke-linecap:round;stroke-linejoin:round;stroke-miterlimit:4;stroke-dasharray:none;stroke-dashoffset:0;stroke-opacity:0" />
    </g>
  </g>
</svg>
