<?xml version="1.0" encoding="UTF-8" standalone="no"?>
<!-- Created with Inkscape (http://www.inkscape.org/) -->

<svg
   xmlns:dc="http://purl.org/dc/elements/1.1/"
   xmlns:cc="http://creativecommons.org/ns#"
   xmlns:rdf="http://www.w3.org/1999/02/22-rdf-syntax-ns#"
   xmlns:svg="http://www.w3.org/2000/svg"
   xmlns="http://www.w3.org/2000/svg"
   xmlns:sodipodi="http://sodipodi.sourceforge.net/DTD/sodipodi-0.dtd"
   xmlns:inkscape="http://www.inkscape.org/namespaces/inkscape"
   width="16.933332mm"
   height="19.552929mm"
   viewBox="0 0 59.999994 69.28203"
   id="svg4688"
   version="1.1"
   inkscape:version="0.91 r13725"
   sodipodi:docname="MathsIcon60.svg">
  <defs
     id="defs4690" />
  <sodipodi:namedview
     id="base"
     pagecolor="#ffffff"
     bordercolor="#666666"
     borderopacity="1.0"
     inkscape:pageopacity="0.0"
     inkscape:pageshadow="2"
     inkscape:zoom="3.959798"
     inkscape:cx="12.508906"
     inkscape:cy="19.98252"
     inkscape:document-units="px"
     inkscape:current-layer="layer1"
     showgrid="false"
     inkscape:window-width="1366"
     inkscape:window-height="715"
     inkscape:window-x="0"
     inkscape:window-y="0"
     inkscape:window-maximized="1"
     fit-margin-top="0"
     fit-margin-left="0"
     fit-margin-right="0"
     fit-margin-bottom="0" />
  <metadata
     id="metadata4693">
    <rdf:RDF>
      <cc:Work
         rdf:about="">
        <dc:format>image/svg+xml</dc:format>
        <dc:type
           rdf:resource="http://purl.org/dc/dcmitype/StillImage" />
        <dc:title></dc:title>
      </cc:Work>
    </rdf:RDF>
  </metadata>
  <g
     inkscape:label="Layer 1"
     inkscape:groupmode="layer"
     id="layer1"
     transform="translate(-312.50489,-650.27)">
    <path
       sodipodi:type="star"
       style="opacity:0.98000004;fill:none;fill-opacity:0.98039216;stroke:#828282;stroke-width:4.03952217;stroke-linecap:round;stroke-linejoin:miter;stroke-miterlimit:4;stroke-dasharray:none;stroke-dashoffset:0;stroke-opacity:1"
       id="path4138"
       sodipodi:sides="6"
       sodipodi:cx="342.50488"
       sodipodi:cy="684.91102"
       sodipodi:r1="32.308796"
       sodipodi:r2="27.947109"
       sodipodi:arg1="0.52359878"
       sodipodi:arg2="1.0471976"
       inkscape:flatsided="true"
       inkscape:rounded="0"
       inkscape:randomized="0"
       d="m 370.48512,701.06541 -27.98024,16.1544 -27.98024,-16.1544 0,-32.3088 27.98024,-16.1544 27.98024,16.1544 z" />
    <g
       id="g4412"
       transform="matrix(0.108747,0,0,0.108747,379.72251,572.173)">
      <path
         transform="translate(312.50489,650.27)"
         id="path4410"
         d="m -564.95312,494.10938 c -1.53745,0 -2.8859,0.10526 -4.09961,0.34765 -1.21372,0.2424 -2.29245,0.62101 -3.29297,1.16602 -1.00053,0.545 -1.92244,1.25623 -2.82032,2.16406 -0.89787,0.90783 -1.77196,2.01287 -2.67773,3.34375 -0.60447,0.88814 -1.07584,1.83462 -1.42187,2.81836 -0.34604,0.98373 -0.56772,2.00488 -0.66993,3.04101 -0.1022,1.03614 -0.086,2.08749 0.041,3.13282 0.12703,1.04533 0.36536,2.08437 0.70703,3.0957 0.34167,1.01133 0.78836,1.9936 1.33008,2.92773 0.54172,0.93414 1.17907,1.81908 1.90625,2.63282 0.72717,0.81373 1.54337,1.55689 2.4414,2.20703 0.89804,0.65013 1.87735,1.20705 2.93165,1.65039 0.86342,0.36307 1.98303,0.58499 3.2207,0.67773 1.23766,0.0928 2.59396,0.0578 3.93359,-0.0898 1.33964,-0.14759 2.6627,-0.4077 3.83203,-0.76563 1.16934,-0.35792 2.18534,-0.81524 2.91211,-1.35351 1.13306,-0.83919 2.12281,-1.75302 2.97071,-2.72461 0.8479,-0.97159 1.55423,-1.99998 2.11718,-3.06641 0.56295,-1.06642 0.98352,-2.17123 1.26172,-3.29492 0.27821,-1.12369 0.41258,-2.26677 0.40625,-3.41015 -0.006,-1.14339 -0.15465,-2.28661 -0.44531,-3.41211 -0.29066,-1.12551 -0.7221,-2.23268 -1.29688,-3.30274 -0.57477,-1.07006 -1.2917,-2.10303 -2.15039,-3.08008 -0.85868,-0.97704 -1.85956,-1.89767 -3.00195,-2.74414 -0.98866,-0.73255 -1.99748,-1.22408 -3.27148,-1.53125 -1.27401,-0.30716 -2.81359,-0.42968 -4.86328,-0.42968 z"
         style="opacity:0.98000004;fill:#2479c7;fill-opacity:0.94509804;stroke:none;stroke-width:4.5999999;stroke-linecap:round;stroke-linejoin:round;stroke-miterlimit:4;stroke-dasharray:none;stroke-dashoffset:0;stroke-opacity:1"
         inkscape:connector-curvature="0" />
      <path
         transform="translate(312.50489,650.27)"
         id="path4408"
         d="m -564.95312,494.10938 c 2.04969,0 3.58927,0.12252 4.86328,0.42968 1.274,0.30717 2.28282,0.7987 3.27148,1.53125 1.14239,0.84647 2.14327,1.7671 3.00195,2.74414 0.85869,0.97705 1.57562,2.01002 2.15039,3.08008 0.57478,1.07006 1.00622,2.17723 1.29688,3.30274 0.29066,1.1255 0.43898,2.26872 0.44531,3.41211 0.006,1.14338 -0.12804,2.28646 -0.40625,3.41015 -0.2782,1.12369 -0.69877,2.2285 -1.26172,3.29492 -0.56295,1.06643 -1.26928,2.09482 -2.11718,3.06641 -0.8479,0.97159 -1.83765,1.88542 -2.97071,2.72461 -0.72677,0.53827 -1.74277,0.99559 -2.91211,1.35351 -1.16933,0.35793 -2.49239,0.61804 -3.83203,0.76563 -1.33963,0.14759 -2.69593,0.18259 -3.93359,0.0898 -1.23767,-0.0927 -2.35728,-0.31466 -3.2207,-0.67773 -1.0543,-0.44334 -2.03361,-1.00026 -2.93165,-1.65039 -0.89803,-0.65014 -1.71423,-1.3933 -2.4414,-2.20703 -0.72718,-0.81374 -1.36453,-1.69868 -1.90625,-2.63282 -0.54172,-0.93413 -0.98841,-1.9164 -1.33008,-2.92773 -0.34167,-1.01133 -0.58,-2.05037 -0.70703,-3.0957 -0.12703,-1.04533 -0.14322,-2.09668 -0.041,-3.13282 0.10221,-1.03613 0.32389,-2.05728 0.66993,-3.04101 0.34603,-0.98374 0.8174,-1.93022 1.42187,-2.81836 0.90577,-1.33088 1.77986,-2.43592 2.67773,-3.34375 0.89788,-0.90783 1.81979,-1.61906 2.82032,-2.16406 1.00052,-0.54501 2.07925,-0.92362 3.29297,-1.16602 1.21371,-0.24239 2.56216,-0.34765 4.09961,-0.34765 z"
         style="opacity:0.98000004;fill:#2479c7;fill-opacity:0.94509804;stroke:none;stroke-width:4.5999999;stroke-linecap:round;stroke-linejoin:round;stroke-miterlimit:4;stroke-dasharray:none;stroke-dashoffset:0;stroke-opacity:1"
         inkscape:connector-curvature="0" />
      <path
         transform="translate(312.50489,650.27)"
         id="path4406"
         d="m -614.36328,448.64062 -3.16406,2.13086 c -1.10605,0.74537 -2.09227,1.56846 -2.95704,2.45118 -0.86476,0.88271 -1.60687,1.82532 -2.22656,2.81054 -0.61968,0.98522 -1.1155,2.01352 -1.48633,3.06641 -0.37082,1.05289 -0.61621,2.12912 -0.73437,3.21484 -0.11817,1.08573 -0.11094,2.17996 0.0273,3.26367 0.13829,1.08372 0.40617,2.15821 0.80469,3.20508 0.39852,1.04688 0.92924,2.06583 1.5918,3.04102 0.66255,0.97519 1.45829,1.90673 2.38867,2.77539 1.20941,1.1292 3.25221,2.4792 4.54102,3 0.74797,0.3023 5.79934,0.52113 14.60351,0.65039 8.80417,0.12926 21.36124,0.16923 37.125,0.10938 24.24587,-0.0921 36.605,-0.14843 43.22656,-0.42188 3.31079,-0.13673 5.18713,-0.32814 6.39844,-0.60547 1.21131,-0.27733 1.75669,-0.6416 2.40625,-1.12305 1.17942,-0.87413 2.20718,-1.82302 3.08398,-2.83007 0.87681,-1.00706 1.60267,-2.07181 2.17774,-3.17188 0.57507,-1.10007 0.99922,-2.2355 1.27344,-3.38867 0.27421,-1.15317 0.3988,-2.32388 0.37304,-3.49024 -0.0257,-1.16635 -0.20054,-2.3291 -0.52539,-3.46874 -0.32484,-1.13965 -0.80077,-2.25512 -1.42383,-3.32813 -0.62305,-1.07301 -1.39407,-2.10384 -2.31445,-3.07031 -0.92038,-0.96648 -1.98825,-1.86943 -3.20508,-2.68946 l -3.16406,-2.13086 -49.41015,0 -49.41016,0 z"
         style="opacity:0.98000004;fill:#2479c7;fill-opacity:0.94509804;stroke:none;stroke-width:4.5999999;stroke-linecap:round;stroke-linejoin:round;stroke-miterlimit:4;stroke-dasharray:none;stroke-dashoffset:0;stroke-opacity:1"
         inkscape:connector-curvature="0" />
      <path
         transform="translate(312.50489,650.27)"
         id="path4404"
         d="m -614.36328,448.64062 49.41016,0 49.41015,0 3.16406,2.13086 c 1.21683,0.82003 2.2847,1.72298 3.20508,2.68946 0.92038,0.96647 1.6914,1.9973 2.31445,3.07031 0.62306,1.07301 1.09899,2.18848 1.42383,3.32813 0.32485,1.13964 0.49964,2.30239 0.52539,3.46874 0.0258,1.16636 -0.0988,2.33707 -0.37304,3.49024 -0.27422,1.15317 -0.69837,2.2886 -1.27344,3.38867 -0.57507,1.10007 -1.30093,2.16482 -2.17774,3.17188 -0.8768,1.00705 -1.90456,1.95594 -3.08398,2.83007 -0.64956,0.48145 -1.19494,0.84572 -2.40625,1.12305 -1.21131,0.27733 -3.08765,0.46874 -6.39844,0.60547 -6.62156,0.27345 -18.98069,0.32978 -43.22656,0.42188 -15.76376,0.0599 -28.32083,0.0199 -37.125,-0.10938 -8.80417,-0.12926 -13.85554,-0.34809 -14.60351,-0.65039 -1.28881,-0.5208 -3.33161,-1.8708 -4.54102,-3 -0.93038,-0.86866 -1.72612,-1.8002 -2.38867,-2.77539 -0.66256,-0.97519 -1.19328,-1.99414 -1.5918,-3.04102 -0.39852,-1.04687 -0.6664,-2.12136 -0.80469,-3.20508 -0.13828,-1.08371 -0.14551,-2.17794 -0.0273,-3.26367 0.11816,-1.08572 0.36355,-2.16195 0.73437,-3.21484 0.37083,-1.05289 0.86665,-2.08119 1.48633,-3.06641 0.61969,-0.98522 1.3618,-1.92783 2.22656,-2.81054 0.86477,-0.88272 1.85099,-1.70581 2.95704,-2.45118 l 3.16406,-2.13086 z"
         style="opacity:0.98000004;fill:#2479c7;fill-opacity:0.94509804;stroke:none;stroke-width:4.5999999;stroke-linecap:round;stroke-linejoin:round;stroke-miterlimit:4;stroke-dasharray:none;stroke-dashoffset:0;stroke-opacity:1"
         inkscape:connector-curvature="0" />
      <path
         transform="translate(312.50489,650.27)"
         id="path4402"
         d="m -706.26758,416.00391 c -0.77036,0.12672 -1.5469,0.35227 -2.36719,0.69726 -0.82028,0.34499 -1.68327,0.80911 -2.62695,1.41992 -1.88735,1.22163 -4.09424,3.0235 -6.91601,5.59375 -2.82178,2.57025 -6.25955,5.90966 -10.60352,10.20899 l -16.17187,16.00781 -16.17383,-16.00781 c -6.45034,-6.38405 -10.68937,-10.44445 -13.70508,-13.02539 -1.50786,-1.29047 -2.70965,-2.21112 -3.72852,-2.86719 -1.01886,-0.65607 -1.85453,-1.0467 -2.63086,-1.2793 -1.3269,-0.39755 -2.64487,-0.60741 -3.93164,-0.64648 -1.28677,-0.0391 -2.54246,0.0916 -3.74414,0.37109 -1.20168,0.27947 -2.35024,0.70757 -3.42187,1.26563 -1.07163,0.55805 -2.06628,1.24628 -2.96289,2.04297 -0.89662,0.79669 -1.69445,1.70188 -2.3711,2.69726 -0.67664,0.99538 -1.23281,2.08025 -1.64453,3.23438 -0.41172,1.15412 -0.67942,2.37747 -0.78125,3.65039 -0.10183,1.27291 -0.0382,2.5955 0.21485,3.94726 0.14302,0.76413 0.41369,1.52954 0.95312,2.46485 0.53944,0.9353 1.34811,2.04093 2.57227,3.48828 2.4483,2.8947 6.55368,7.15453 13.4707,14.14258 4.48837,4.5345 8.5691,8.78455 11.52734,11.98046 2.95825,3.19592 4.79492,5.3379 4.79493,5.65235 0,0.3145 -1.68276,2.23601 -4.39258,5.08008 -2.70983,2.84406 -6.44714,6.61068 -10.5586,10.61133 -4.09025,3.98005 -7.34641,7.23673 -9.91797,9.98242 -2.57155,2.74568 -4.45847,4.98079 -5.80664,6.91601 -0.67408,0.96761 -1.21311,1.85865 -1.63671,2.70313 -0.42361,0.84447 -0.73138,1.64169 -0.94141,2.41601 -0.21004,0.77433 -0.32209,1.52604 -0.35547,2.28321 -0.0334,0.75716 0.0108,1.51951 0.11719,2.3125 0.16468,1.2278 0.49128,2.41663 0.96093,3.54296 0.46966,1.12634 1.08273,2.19017 1.82032,3.16602 0.73758,0.97585 1.59989,1.86427 2.56836,2.64063 0.96846,0.77635 2.04278,1.4409 3.20508,1.96875 2.22778,1.01175 3.60842,1.5411 4.97851,1.66015 0.68505,0.0595 1.36728,0.0152 2.15234,-0.12109 0.78507,-0.13633 1.67286,-0.36571 2.76758,-0.67969 0.57892,-0.16602 1.35426,-0.58871 2.3711,-1.30859 1.01683,-0.71988 2.27474,-1.7366 3.82031,-3.08985 3.09114,-2.70648 7.3311,-6.75956 13.08203,-12.47656 4.4119,-4.38585 8.56445,-8.37298 11.70117,-11.26367 3.13673,-2.89069 5.25822,-4.6836 5.60547,-4.6836 0.34726,0 2.51687,1.83313 5.73438,4.78711 3.2175,2.95399 7.48309,7.02782 12.01757,11.50977 7.37515,7.2897 11.5996,11.38093 14.41993,13.72266 1.41016,1.17086 2.46899,1.9039 3.39453,2.38086 0.92553,0.47695 1.71874,0.69865 2.5957,0.84375 0.98117,0.16233 1.96353,0.2104 2.93555,0.15625 0.97202,-0.0542 1.93394,-0.21091 2.86914,-0.46094 0.93519,-0.25003 1.84414,-0.59229 2.71484,-1.01758 0.8707,-0.42529 1.70194,-0.93373 2.48047,-1.51367 0.77853,-0.57994 1.50342,-1.23134 2.16211,-1.94531 0.65868,-0.71398 1.25055,-1.49098 1.76172,-2.31836 0.51116,-0.82739 0.94332,-1.70481 1.27929,-2.625 0.33598,-0.92019 0.57588,-1.88263 0.70899,-2.875 0.10636,-0.79299 0.15252,-1.55534 0.11914,-2.3125 -0.0334,-0.75717 -0.14543,-1.50888 -0.35547,-2.28321 -0.21003,-0.77432 -0.5178,-1.57154 -0.9414,-2.41601 -0.42361,-0.84448 -0.96264,-1.73552 -1.63672,-2.70313 -1.34817,-1.93522 -3.23509,-4.17033 -5.80664,-6.91601 -2.57156,-2.74569 -5.82772,-6.00237 -9.91797,-9.98242 -4.11146,-4.00065 -7.84877,-7.76727 -10.5586,-10.61133 -2.70982,-2.84407 -4.39257,-4.76558 -4.39257,-5.08008 0,-0.31445 1.83667,-2.45643 4.79492,-5.65235 2.95824,-3.19591 7.03702,-7.44596 11.52539,-11.98046 6.91701,-6.98805 11.02435,-11.24788 13.47265,-14.14258 1.22416,-1.44735 2.03283,-2.55298 2.57227,-3.48828 0.53943,-0.93531 0.8101,-1.70072 0.95312,-2.46485 0.1778,-0.94988 0.24827,-1.9077 0.22266,-2.85937 -0.0256,-0.95167 -0.14718,-1.89706 -0.35742,-2.82227 -0.21025,-0.92521 -0.50865,-1.83066 -0.88477,-2.70117 -0.37612,-0.87051 -0.83028,-1.70658 -1.35351,-2.49414 -0.52324,-0.78756 -1.116,-1.5248 -1.76758,-2.20117 -0.65158,-0.67638 -1.36188,-1.29118 -2.12305,-1.82813 -0.76117,-0.53694 -1.57379,-0.99791 -2.42578,-1.36718 -0.85199,-0.36928 -1.74391,-0.64695 -2.66797,-0.82032 -1.78186,-0.33427 -3.29717,-0.47024 -4.83789,-0.21679 z"
         style="opacity:0.98000004;fill:#2479c7;fill-opacity:0.94509804;stroke:none;stroke-width:4.5999999;stroke-linecap:round;stroke-linejoin:round;stroke-miterlimit:4;stroke-dasharray:none;stroke-dashoffset:0;stroke-opacity:1"
         inkscape:connector-curvature="0" />
      <path
         transform="translate(312.50489,650.27)"
         id="path4400"
         d="m -564.73047,403.58984 c -1.2706,0.0107 -2.54126,0.19598 -3.77539,0.53516 -1.23413,0.33918 -2.433,0.83233 -3.56055,1.46094 -1.12754,0.62861 -2.18392,1.39254 -3.13476,2.27148 -0.95084,0.87895 -1.79599,1.87271 -2.5,2.96289 -0.70401,1.09019 -1.26723,2.27673 -1.6543,3.53907 -0.38706,1.26233 -0.59765,2.60069 -0.59765,3.99609 0,1.57187 0.22859,3.10059 0.6621,4.54687 0.43352,1.44629 1.07114,2.81039 1.88672,4.05274 0.81559,1.24234 1.81082,2.36417 2.95703,3.32422 1.14622,0.96005 2.44375,1.75802 3.86915,2.35742 0.86342,0.36307 1.98303,0.585 3.2207,0.67773 1.23766,0.0927 2.59396,0.0578 3.93359,-0.0898 1.33964,-0.1476 2.6627,-0.40769 3.83203,-0.76563 1.16934,-0.35793 2.18534,-0.81524 2.91211,-1.35351 1.16202,-0.86063 2.17338,-1.79887 3.03516,-2.79688 0.86178,-0.99801 1.57405,-2.0559 2.13672,-3.15039 0.56267,-1.09448 0.97554,-2.2269 1.24023,-3.37695 0.26469,-1.15005 0.37982,-2.31771 0.34766,-3.48242 -0.0322,-1.16471 -0.21119,-2.32638 -0.53906,-3.46485 -0.32788,-1.13846 -0.80332,-2.25291 -1.42579,-3.32421 -0.62247,-1.0713 -1.39266,-2.09927 -2.30859,-3.0625 -0.91593,-0.96323 -1.97728,-1.86154 -3.18555,-2.67579 -1.13317,-0.76363 -2.33727,-1.31493 -3.57421,-1.67187 -1.23695,-0.35694 -2.50675,-0.52043 -3.77735,-0.50977 z"
         style="opacity:0.98000004;fill:#2479c7;fill-opacity:0.94509804;stroke:none;stroke-width:4.5999999;stroke-linecap:round;stroke-linejoin:round;stroke-miterlimit:4;stroke-dasharray:none;stroke-dashoffset:0;stroke-opacity:1"
         inkscape:connector-curvature="0" />
      <path
         transform="translate(312.50489,650.27)"
         id="path4398"
         d="m -564.95312,291.14062 c -23.65346,0 -35.51011,10e-4 -41.97461,0.26563 -3.23226,0.13215 -5.11602,0.3286 -6.45313,0.625 -1.33711,0.2964 -2.12655,0.69266 -3.16992,1.21875 -1.12571,0.56767 -2.21415,1.36577 -3.21289,2.31836 -0.99874,0.95259 -1.90894,2.05874 -2.67774,3.23828 -0.76879,1.17954 -1.39615,2.43314 -1.83203,3.68164 -0.43588,1.24851 -0.67968,2.49286 -0.67968,3.65234 0,1.15949 0.2438,2.40189 0.67968,3.6504 0.43588,1.2485 1.06324,2.5021 1.83203,3.68164 0.7688,1.17954 1.679,2.28569 2.67774,3.23828 0.99874,0.95259 2.08718,1.75265 3.21289,2.32031 1.04337,0.52614 1.83281,0.92039 3.16992,1.2168 1.33711,0.2964 3.22087,0.49481 6.45313,0.62695 6.4645,0.26427 18.32115,0.26562 41.97461,0.26562 23.65345,0 35.5101,-0.001 41.9746,-0.26562 3.23226,-0.13215 5.11602,-0.33056 6.45313,-0.62695 1.33711,-0.2964 2.12655,-0.69071 3.16992,-1.2168 1.12571,-0.56766 2.21415,-1.36772 3.21289,-2.32031 0.99874,-0.95259 1.90894,-2.05874 2.67774,-3.23828 0.76879,-1.17954 1.39615,-2.43314 1.83203,-3.68164 0.43588,-1.24851 0.67969,-2.49091 0.67969,-3.6504 0,-1.15948 -0.24381,-2.40383 -0.67969,-3.65234 -0.43588,-1.2485 -1.06324,-2.5021 -1.83203,-3.68164 -0.7688,-1.17954 -1.679,-2.28569 -2.67774,-3.23828 -0.99874,-0.95259 -2.08718,-1.75069 -3.21289,-2.31836 -1.04337,-0.52614 -1.83281,-0.92235 -3.16992,-1.21875 -1.33711,-0.2964 -3.22087,-0.49482 -6.45313,-0.62695 -6.4645,-0.26428 -18.32115,-0.26368 -41.9746,-0.26368 z"
         style="opacity:0.98000004;fill:#2479c7;fill-opacity:0.94509804;stroke:none;stroke-width:4.5999999;stroke-linecap:round;stroke-linejoin:round;stroke-miterlimit:4;stroke-dasharray:none;stroke-dashoffset:0;stroke-opacity:1"
         inkscape:connector-curvature="0" />
      <path
         transform="translate(312.50489,650.27)"
         id="path4396"
         d="m -564.95312,291.14062 c 23.65345,0 35.5101,-6e-4 41.9746,0.26368 3.23226,0.13213 5.11602,0.33055 6.45313,0.62695 1.33711,0.2964 2.12655,0.69261 3.16992,1.21875 1.12571,0.56767 2.21415,1.36577 3.21289,2.31836 0.99874,0.95259 1.90894,2.05874 2.67774,3.23828 0.76879,1.17954 1.39615,2.43314 1.83203,3.68164 0.43588,1.24851 0.67969,2.49286 0.67969,3.65234 0,1.15949 -0.24381,2.40189 -0.67969,3.6504 -0.43588,1.2485 -1.06324,2.5021 -1.83203,3.68164 -0.7688,1.17954 -1.679,2.28569 -2.67774,3.23828 -0.99874,0.95259 -2.08718,1.75265 -3.21289,2.32031 -1.04337,0.52609 -1.83281,0.9204 -3.16992,1.2168 -1.33711,0.29639 -3.22087,0.4948 -6.45313,0.62695 -6.4645,0.2643 -18.32115,0.26562 -41.9746,0.26562 -23.65346,0 -35.51011,-0.001 -41.97461,-0.26562 -3.23226,-0.13214 -5.11602,-0.33055 -6.45313,-0.62695 -1.33711,-0.29641 -2.12655,-0.69066 -3.16992,-1.2168 -1.12571,-0.56766 -2.21415,-1.36772 -3.21289,-2.32031 -0.99874,-0.95259 -1.90894,-2.05874 -2.67774,-3.23828 -0.76879,-1.17954 -1.39615,-2.43314 -1.83203,-3.68164 -0.43588,-1.24851 -0.67968,-2.49091 -0.67968,-3.6504 0,-1.15948 0.2438,-2.40383 0.67968,-3.65234 0.43588,-1.2485 1.06324,-2.5021 1.83203,-3.68164 0.7688,-1.17954 1.679,-2.28569 2.67774,-3.23828 0.99874,-0.95259 2.08718,-1.75069 3.21289,-2.31836 1.04337,-0.52609 1.83281,-0.92235 3.16992,-1.21875 1.33711,-0.2964 3.22087,-0.49285 6.45313,-0.625 6.4645,-0.2643 18.32115,-0.26563 41.97461,-0.26563 z"
         style="opacity:0.98000004;fill:#2479c7;fill-opacity:0.94509804;stroke:none;stroke-width:4.5999999;stroke-linecap:round;stroke-linejoin:round;stroke-miterlimit:4;stroke-dasharray:none;stroke-dashoffset:0;stroke-opacity:1"
         inkscape:connector-curvature="0" />
      <path
         transform="translate(312.50489,650.27)"
         id="path4394"
         d="m -744.95312,246.50781 c -1.56534,0 -3.13036,0.17098 -4.53126,0.50977 -1.40089,0.33879 -2.63737,0.84586 -3.54492,1.52344 -1.53924,1.1492 -2.7097,2.06758 -3.60742,3.09765 -0.44886,0.51504 -0.82973,1.05832 -1.1543,1.67188 -0.32456,0.61355 -0.59402,1.29809 -0.81836,2.0957 -0.44866,1.59521 -0.72005,3.64367 -0.9121,6.48828 -0.19205,2.84461 -0.30375,6.4854 -0.43164,11.26367 l -0.46876,17.51368 -17.51367,0.46874 c -4.77827,0.1279 -8.4171,0.2396 -11.26172,0.43165 -2.84461,0.19205 -4.89502,0.46344 -6.49023,0.91211 -0.79761,0.22433 -1.4802,0.49379 -2.09375,0.81835 -0.61355,0.32457 -1.15684,0.70349 -1.67187,1.15235 -1.03008,0.89772 -1.94846,2.06818 -3.09766,3.60742 -0.67758,0.90754 -1.1866,2.14403 -1.52539,3.54492 -0.33879,1.40089 -0.50781,2.96787 -0.50781,4.5332 0,1.56534 0.16902,3.13036 0.50781,4.53126 0.33879,1.40089 0.84781,2.63737 1.52539,3.54492 1.1492,1.53924 2.06758,2.7097 3.09766,3.60742 0.51503,0.44886 1.05832,0.82973 1.67187,1.1543 0.61355,0.32456 1.29614,0.59207 2.09375,0.8164 1.59521,0.44866 3.64562,0.72006 6.49023,0.91211 2.84462,0.19205 6.48345,0.3057 11.26172,0.43359 l 17.51367,0.46876 0.46876,17.34374 c 0.143,5.29107 0.36664,9.80952 0.63671,13.14844 0.27008,3.33892 0.58673,5.49831 0.91797,6.07032 0.77079,1.33105 2.04102,2.78404 3.46094,4.04882 1.41992,1.26479 2.98889,2.33972 4.35938,2.91602 0.85838,0.36095 1.97498,0.58096 3.21093,0.67383 1.23596,0.0929 2.5923,0.0593 3.92969,-0.0859 1.33739,-0.14523 2.65568,-0.40251 3.81836,-0.75586 1.16268,-0.35335 2.16901,-0.80251 2.88086,-1.33398 1.50046,-1.12025 2.64388,-2.02267 3.52148,-3.04297 0.43881,-0.51016 0.81087,-1.04872 1.12891,-1.66016 0.31804,-0.61144 0.58021,-1.29489 0.80078,-2.0918 0.44115,-1.5938 0.71125,-3.64363 0.90234,-6.48437 0.19109,-2.84074 0.30421,-6.47326 0.43165,-11.23438 l 0.46874,-17.51171 17.51368,-0.46876 c 4.77827,-0.12789 8.4171,-0.24154 11.26172,-0.43359 2.84461,-0.19205 4.89502,-0.46345 6.49023,-0.91211 0.79761,-0.22433 1.4802,-0.49184 2.09375,-0.8164 0.61355,-0.32457 1.15684,-0.70544 1.67188,-1.1543 1.03007,-0.89772 1.94845,-2.06818 3.09765,-3.60742 0.67758,-0.90755 1.1866,-2.14403 1.52539,-3.54492 0.33879,-1.4009 0.50781,-2.96592 0.50781,-4.53126 0,-1.56533 -0.16902,-3.13231 -0.50781,-4.5332 -0.33879,-1.40089 -0.84781,-2.63737 -1.52539,-3.54492 -1.1492,-1.53924 -2.06758,-2.7097 -3.09765,-3.60742 -0.51504,-0.44886 -1.05833,-0.82778 -1.67188,-1.15235 -0.61355,-0.32456 -1.29614,-0.59402 -2.09375,-0.81835 -1.59521,-0.44867 -3.64562,-0.72006 -6.49023,-0.91211 -2.84462,-0.19205 -6.48345,-0.30375 -11.26172,-0.43165 l -17.51368,-0.46874 -0.46874,-17.51368 c -0.1279,-4.77827 -0.2396,-8.41906 -0.43165,-11.26367 -0.19205,-2.84461 -0.4654,-4.89307 -0.91406,-6.48828 -0.22433,-0.79761 -0.49184,-1.48215 -0.8164,-2.0957 -0.32457,-0.61356 -0.70544,-1.15684 -1.1543,-1.67188 -0.89772,-1.03007 -2.06818,-1.94845 -3.60742,-3.09765 -0.90755,-0.67758 -2.14403,-1.18465 -3.54493,-1.52344 -1.40089,-0.33879 -2.96591,-0.50977 -4.53124,-0.50977 z"
         style="opacity:0.98000004;fill:#2479c7;fill-opacity:0.94509804;stroke:none;stroke-width:4.5999999;stroke-linecap:round;stroke-linejoin:round;stroke-miterlimit:4;stroke-dasharray:none;stroke-dashoffset:0;stroke-opacity:1"
         inkscape:connector-curvature="0" />
    </g>
  </g>
</svg>
