<?xml version="1.0" encoding="utf-8" standalone="no"?>
<!DOCTYPE svg PUBLIC "-//W3C//DTD SVG 1.1//EN"
  "http://www.w3.org/Graphics/SVG/1.1/DTD/svg11.dtd">
<!-- Created with matplotlib (http://matplotlib.org/) -->
<svg height="288pt" version="1.1" viewBox="0 0 720 288" width="720pt" xmlns="http://www.w3.org/2000/svg" xmlns:xlink="http://www.w3.org/1999/xlink">
 <defs>
  <style type="text/css">
*{stroke-linecap:butt;stroke-linejoin:round;stroke-miterlimit:100000;}
  </style>
 </defs>
 <g id="figure_1">
  <g id="patch_1">
   <path d="M 0 288 
L 720 288 
L 720 0 
L 0 0 
z
" style="fill:#ffffff;"/>
  </g>
  <g id="axes_1">
   <g id="patch_2">
    <path d="M 90 244.8 
L 648 244.8 
L 648 28.8 
L 90 28.8 
z
" style="fill:#ffffff;"/>
   </g>
   <g id="PolyCollection_1">
    <defs>
     <path d="M 90 -151.2 
L 90 -151.2 
L 91.554318 -151.2 
L 93.108635 -151.2 
L 94.662953 -151.2 
L 96.21727 -151.2 
L 97.771588 -151.2 
L 99.325905 -151.2 
L 100.880223 -151.2 
L 102.43454 -151.2 
L 103.988858 -151.2 
L 105.543175 -151.2 
L 107.097493 -151.2 
L 108.651811 -151.2 
L 110.206128 -151.2 
L 111.760446 -151.2 
L 113.314763 -151.2 
L 114.869081 -151.2 
L 116.423398 -151.2 
L 117.977716 -151.2 
L 119.532033 -151.2 
L 121.086351 -151.2 
L 122.640669 -151.2 
L 124.194986 -151.2 
L 125.749304 -151.2 
L 127.303621 -151.2 
L 128.857939 -151.2 
L 130.412256 -151.2 
L 131.966574 -151.2 
L 133.520891 -151.2 
L 135.075209 -151.2 
L 136.629526 -151.2 
L 138.183844 -151.2 
L 139.738162 -151.2 
L 141.292479 -151.2 
L 142.846797 -151.2 
L 144.401114 -151.2 
L 145.955432 -151.2 
L 147.509749 -151.2 
L 149.064067 -151.2 
L 150.618384 -151.2 
L 152.172702 -151.2 
L 153.727019 -151.2 
L 155.281337 -151.2 
L 156.835655 -151.2 
L 158.389972 -151.2 
L 159.94429 -151.2 
L 161.498607 -151.2 
L 163.052925 -151.2 
L 164.607242 -151.2 
L 166.16156 -151.2 
L 167.715877 -151.2 
L 169.270195 -151.2 
L 170.824513 -151.2 
L 172.37883 -151.2 
L 173.933148 -151.2 
L 175.487465 -151.2 
L 177.041783 -151.2 
L 178.5961 -151.2 
L 180.150418 -151.2 
L 181.704735 -151.2 
L 183.259053 -151.2 
L 184.81337 -151.2 
L 186.367688 -151.2 
L 187.922006 -151.2 
L 189.476323 -151.2 
L 191.030641 -151.2 
L 192.584958 -151.2 
L 194.139276 -151.2 
L 195.693593 -151.2 
L 197.247911 -151.2 
L 198.802228 -151.2 
L 200.356546 -151.2 
L 201.910864 -151.2 
L 203.465181 -151.2 
L 205.019499 -151.2 
L 206.573816 -151.2 
L 208.128134 -151.2 
L 209.682451 -151.2 
L 211.236769 -151.2 
L 212.791086 -151.2 
L 214.345404 -151.2 
L 215.899721 -151.2 
L 217.454039 -151.2 
L 219.008357 -151.2 
L 220.562674 -151.2 
L 222.116992 -151.2 
L 223.671309 -151.2 
L 225.225627 -151.2 
L 226.779944 -151.2 
L 228.334262 -151.2 
L 229.888579 -151.2 
L 231.442897 -151.2 
L 232.997214 -151.2 
L 234.551532 -151.2 
L 236.10585 -151.2 
L 237.660167 -151.2 
L 239.214485 -151.2 
L 240.768802 -151.2 
L 242.32312 -151.2 
L 243.877437 -151.2 
L 245.431755 -151.2 
L 246.986072 -151.2 
L 248.54039 -151.2 
L 250.094708 -151.2 
L 251.649025 -151.2 
L 253.203343 -151.2 
L 254.75766 -151.2 
L 256.311978 -151.2 
L 257.866295 -151.2 
L 259.420613 -151.2 
L 260.97493 -151.2 
L 262.529248 -151.2 
L 264.083565 -151.2 
L 265.637883 -151.2 
L 267.192201 -151.2 
L 268.746518 -151.2 
L 270.300836 -151.2 
L 271.855153 -151.2 
L 273.409471 -151.2 
L 274.963788 -151.2 
L 276.518106 -151.2 
L 278.072423 -151.2 
L 279.626741 -151.2 
L 281.181058 -151.2 
L 282.735376 -151.2 
L 284.289694 -151.2 
L 285.844011 -151.2 
L 287.398329 -151.2 
L 288.952646 -151.2 
L 290.506964 -151.2 
L 292.061281 -151.2 
L 293.615599 -151.2 
L 295.169916 -151.2 
L 296.724234 -151.2 
L 298.278552 -151.2 
L 299.832869 -151.2 
L 301.387187 -151.2 
L 302.941504 -151.2 
L 304.495822 -151.2 
L 306.050139 -151.2 
L 307.604457 -151.2 
L 309.158774 -151.2 
L 310.713092 -151.2 
L 312.267409 -151.2 
L 313.821727 -151.2 
L 315.376045 -151.2 
L 316.930362 -151.2 
L 318.48468 -151.2 
L 320.038997 -151.2 
L 321.593315 -151.2 
L 323.147632 -151.2 
L 324.70195 -151.2 
L 326.256267 -151.2 
L 327.810585 -151.2 
L 329.364903 -151.2 
L 330.91922 -151.2 
L 332.473538 -151.2 
L 334.027855 -151.2 
L 335.582173 -151.2 
L 337.13649 -151.2 
L 338.690808 -151.2 
L 340.245125 -151.2 
L 341.799443 -151.2 
L 343.35376 -151.2 
L 344.908078 -151.2 
L 346.462396 -151.2 
L 348.016713 -151.2 
L 349.571031 -151.2 
L 351.125348 -151.2 
L 352.679666 -151.2 
L 354.233983 -151.2 
L 355.788301 -151.2 
L 357.342618 -151.2 
L 358.896936 -151.2 
L 360.451253 -151.2 
L 362.005571 -151.2 
L 363.559889 -151.2 
L 365.114206 -151.2 
L 366.668524 -151.2 
L 368.222841 -151.2 
L 369.777159 -151.2 
L 371.331476 -151.2 
L 372.885794 -151.2 
L 374.440111 -151.2 
L 375.994429 -151.2 
L 377.548747 -151.2 
L 379.103064 -151.2 
L 380.657382 -151.2 
L 382.211699 -151.2 
L 383.766017 -151.2 
L 385.320334 -151.2 
L 386.874652 -151.2 
L 388.428969 -151.2 
L 389.983287 -151.2 
L 391.537604 -151.2 
L 393.091922 -151.2 
L 394.64624 -151.2 
L 396.200557 -151.2 
L 397.754875 -151.2 
L 399.309192 -151.2 
L 400.86351 -151.2 
L 402.417827 -151.2 
L 403.972145 -151.2 
L 405.526462 -151.2 
L 407.08078 -151.2 
L 408.635097 -151.2 
L 410.189415 -151.2 
L 411.743733 -151.2 
L 413.29805 -151.2 
L 414.852368 -151.2 
L 416.406685 -151.2 
L 417.961003 -151.2 
L 419.51532 -151.2 
L 421.069638 -151.2 
L 422.623955 -151.2 
L 424.178273 -151.2 
L 425.732591 -151.2 
L 427.286908 -151.2 
L 428.841226 -151.2 
L 430.395543 -151.2 
L 431.949861 -151.2 
L 433.504178 -151.2 
L 435.058496 -151.2 
L 436.612813 -151.2 
L 438.167131 -151.2 
L 439.721448 -151.2 
L 441.275766 -151.2 
L 442.830084 -151.2 
L 444.384401 -151.2 
L 445.938719 -151.2 
L 447.493036 -151.2 
L 449.047354 -151.2 
L 450.601671 -151.2 
L 452.155989 -151.2 
L 453.710306 -151.2 
L 455.264624 -151.2 
L 456.818942 -151.2 
L 458.373259 -151.2 
L 459.927577 -151.2 
L 461.481894 -151.2 
L 463.036212 -151.2 
L 464.590529 -151.2 
L 466.144847 -151.2 
L 467.699164 -151.2 
L 469.253482 -151.2 
L 470.807799 -151.2 
L 472.362117 -151.2 
L 473.916435 -151.2 
L 475.470752 -151.2 
L 477.02507 -151.2 
L 478.579387 -151.2 
L 480.133705 -151.2 
L 481.688022 -151.2 
L 483.24234 -151.2 
L 484.796657 -151.2 
L 486.350975 -151.2 
L 487.905292 -151.2 
L 489.45961 -151.2 
L 491.013928 -151.2 
L 492.568245 -151.2 
L 494.122563 -151.2 
L 495.67688 -151.2 
L 497.231198 -151.2 
L 498.785515 -151.2 
L 500.339833 -151.2 
L 501.89415 -151.2 
L 503.448468 -151.2 
L 505.002786 -151.2 
L 506.557103 -151.2 
L 508.111421 -151.2 
L 509.665738 -151.2 
L 511.220056 -151.2 
L 512.774373 -151.2 
L 514.328691 -151.2 
L 515.883008 -151.2 
L 517.437326 -151.2 
L 518.991643 -151.2 
L 520.545961 -151.2 
L 522.100279 -151.2 
L 523.654596 -151.2 
L 525.208914 -151.2 
L 526.763231 -151.2 
L 528.317549 -151.2 
L 529.871866 -151.2 
L 531.426184 -151.2 
L 532.980501 -151.2 
L 534.534819 -151.2 
L 536.089136 -151.2 
L 537.643454 -151.2 
L 539.197772 -151.2 
L 540.752089 -151.2 
L 542.306407 -151.2 
L 543.860724 -151.2 
L 545.415042 -151.2 
L 546.969359 -151.2 
L 548.523677 -151.2 
L 550.077994 -151.2 
L 551.632312 -151.2 
L 553.18663 -151.2 
L 554.740947 -151.2 
L 556.295265 -151.2 
L 557.849582 -151.2 
L 559.4039 -151.2 
L 560.958217 -151.2 
L 562.512535 -151.2 
L 564.066852 -151.2 
L 565.62117 -151.2 
L 567.175487 -151.2 
L 568.729805 -151.2 
L 570.284123 -151.2 
L 571.83844 -151.2 
L 573.392758 -151.2 
L 574.947075 -151.2 
L 576.501393 -151.2 
L 578.05571 -151.2 
L 579.610028 -151.2 
L 581.164345 -151.2 
L 582.718663 -151.2 
L 584.272981 -151.2 
L 585.827298 -151.2 
L 587.381616 -151.2 
L 588.935933 -151.2 
L 590.490251 -151.2 
L 592.044568 -151.2 
L 593.598886 -151.2 
L 595.153203 -151.2 
L 596.707521 -151.2 
L 598.261838 -151.2 
L 599.816156 -151.2 
L 601.370474 -151.2 
L 602.924791 -151.2 
L 604.479109 -151.2 
L 606.033426 -151.2 
L 607.587744 -151.2 
L 609.142061 -151.2 
L 610.696379 -151.2 
L 612.250696 -151.2 
L 613.805014 -151.2 
L 615.359331 -151.2 
L 616.913649 -151.2 
L 618.467967 -151.2 
L 620.022284 -151.2 
L 621.576602 -151.2 
L 623.130919 -151.2 
L 624.685237 -151.2 
L 626.239554 -151.2 
L 627.793872 -151.2 
L 629.348189 -151.2 
L 630.902507 -151.2 
L 632.456825 -151.2 
L 634.011142 -151.2 
L 635.56546 -151.2 
L 637.119777 -151.2 
L 638.674095 -151.2 
L 640.228412 -151.2 
L 641.78273 -151.2 
L 643.337047 -151.2 
L 644.891365 -151.2 
L 646.445682 -151.2 
L 648 -151.2 
L 648 -151.2 
L 648 -151.2 
L 646.445682 -144.799102 
L 644.891365 -137.985254 
L 643.337047 -132.854513 
L 641.78273 -126.808047 
L 640.228412 -120.914192 
L 638.674095 -114.428714 
L 637.119777 -107.045379 
L 635.56546 -104.216309 
L 634.011142 -95.158123 
L 632.456825 -91.674579 
L 630.902507 -85.793562 
L 629.348189 -79.39162 
L 627.793872 -81.323839 
L 626.239554 -76.978369 
L 624.685237 -66.375006 
L 623.130919 -69.314875 
L 621.576602 -62.526248 
L 620.022284 -55.512913 
L 618.467967 -56.097757 
L 616.913649 -53.103895 
L 615.359331 -56.781497 
L 613.805014 -51.202798 
L 612.250696 -44.964779 
L 610.696379 -48.507347 
L 609.142061 -47.792295 
L 607.587744 -43.2 
L 606.033426 -45.994252 
L 604.479109 -48.627607 
L 602.924791 -43.792474 
L 601.370474 -48.219858 
L 599.816156 -48.948179 
L 598.261838 -47.93569 
L 596.707521 -50.964665 
L 595.153203 -53.372091 
L 593.598886 -59.789391 
L 592.044568 -59.318435 
L 590.490251 -63.636206 
L 588.935933 -68.317263 
L 587.381616 -72.804615 
L 585.827298 -72.62133 
L 584.272981 -81.267488 
L 582.718663 -86.594961 
L 581.164345 -90.113075 
L 579.610028 -93.332193 
L 578.05571 -94.740122 
L 576.501393 -102.33393 
L 574.947075 -104.938236 
L 573.392758 -111.202061 
L 571.83844 -117.086342 
L 570.284123 -121.645748 
L 568.729805 -127.842419 
L 567.175487 -133.563473 
L 565.62117 -139.113286 
L 564.066852 -144.505412 
L 562.512535 -149.939164 
L 560.958217 -155.466522 
L 559.4039 -160.266549 
L 557.849582 -166.304687 
L 556.295265 -171.244645 
L 554.740947 -175.705242 
L 553.18663 -181.174595 
L 551.632312 -184.909416 
L 550.077994 -191.789841 
L 548.523677 -196.662288 
L 546.969359 -200.834542 
L 545.415042 -201.40774 
L 543.860724 -209.819935 
L 542.306407 -211.296883 
L 540.752089 -216.859702 
L 539.197772 -220.292741 
L 537.643454 -225.055382 
L 536.089136 -223.030948 
L 534.534819 -225.290919 
L 532.980501 -225.760361 
L 531.426184 -232.466632 
L 529.871866 -235.124979 
L 528.317549 -232.862604 
L 526.763231 -237.57575 
L 525.208914 -235.589555 
L 523.654596 -241.062228 
L 522.100279 -241.798566 
L 520.545961 -236.52193 
L 518.991643 -237.475396 
L 517.437326 -237.627082 
L 515.883008 -235.369822 
L 514.328691 -235.922445 
L 512.774373 -236.927459 
L 511.220056 -229.024879 
L 509.665738 -234.250208 
L 508.111421 -225.267435 
L 506.557103 -223.551081 
L 505.002786 -223.013781 
L 503.448468 -222.452763 
L 501.89415 -215.955771 
L 500.339833 -217.050482 
L 498.785515 -213.005327 
L 497.231198 -206.830601 
L 495.67688 -205.666297 
L 494.122563 -199.980953 
L 492.568245 -197.294783 
L 491.013928 -194.25582 
L 489.45961 -190.241849 
L 487.905292 -185.577915 
L 486.350975 -180.984968 
L 484.796657 -175.075693 
L 483.24234 -170.763375 
L 481.688022 -165.933205 
L 480.133705 -162.303339 
L 478.579387 -157.99276 
L 477.02507 -153.273428 
L 475.470752 -148.734467 
L 473.916435 -144.345809 
L 472.362117 -139.947507 
L 470.807799 -135.344083 
L 469.253482 -132.502056 
L 467.699164 -128.279722 
L 466.144847 -123.480267 
L 464.590529 -120.269403 
L 463.036212 -115.541979 
L 461.481894 -112.95205 
L 459.927577 -107.973985 
L 458.373259 -107.817907 
L 456.818942 -102.474806 
L 455.264624 -97.509288 
L 453.710306 -96.951609 
L 452.155989 -95.723865 
L 450.601671 -91.517071 
L 449.047354 -87.305861 
L 447.493036 -88.707486 
L 445.938719 -89.468324 
L 444.384401 -86.4686 
L 442.830084 -83.75073 
L 441.275766 -84.832797 
L 439.721448 -79.990826 
L 438.167131 -79.378322 
L 436.612813 -82.428544 
L 435.058496 -81.597276 
L 433.504178 -83.777904 
L 431.949861 -80.800668 
L 430.395543 -81.349606 
L 428.841226 -85.526372 
L 427.286908 -86.765917 
L 425.732591 -86.690265 
L 424.178273 -86.696645 
L 422.623955 -92.022004 
L 421.069638 -91.536676 
L 419.51532 -91.05775 
L 417.961003 -94.128065 
L 416.406685 -95.125695 
L 414.852368 -100.809391 
L 413.29805 -102.578224 
L 411.743733 -103.687689 
L 410.189415 -108.292946 
L 408.635097 -111.982995 
L 407.08078 -115.473772 
L 405.526462 -116.258325 
L 403.972145 -121.225456 
L 402.417827 -124.729008 
L 400.86351 -126.905242 
L 399.309192 -130.486658 
L 397.754875 -134.781781 
L 396.200557 -138.257304 
L 394.64624 -141.984545 
L 393.091922 -145.490844 
L 391.537604 -148.791428 
L 389.983287 -152.281075 
L 388.428969 -155.688078 
L 386.874652 -158.704048 
L 385.320334 -162.693559 
L 383.766017 -164.890149 
L 382.211699 -168.928855 
L 380.657382 -172.385825 
L 379.103064 -174.959011 
L 377.548747 -176.600697 
L 375.994429 -180.035749 
L 374.440111 -184.283534 
L 372.885794 -185.696689 
L 371.331476 -188.807566 
L 369.777159 -189.738798 
L 368.222841 -191.686545 
L 366.668524 -195.709928 
L 365.114206 -196.135203 
L 363.559889 -196.655033 
L 362.005571 -198.037939 
L 360.451253 -199.07472 
L 358.896936 -199.786821 
L 357.342618 -202.549461 
L 355.788301 -202.563783 
L 354.233983 -204.358705 
L 352.679666 -203.881072 
L 351.125348 -203.036426 
L 349.571031 -203.787795 
L 348.016713 -200.952052 
L 346.462396 -203.494924 
L 344.908078 -203.417267 
L 343.35376 -202.735001 
L 341.799443 -200.451277 
L 340.245125 -199.914381 
L 338.690808 -199.312041 
L 337.13649 -197.779587 
L 335.582173 -196.422661 
L 334.027855 -192.941106 
L 332.473538 -191.893077 
L 330.91922 -192.483181 
L 329.364903 -187.75883 
L 327.810585 -186.210276 
L 326.256267 -186.114967 
L 324.70195 -183.312769 
L 323.147632 -179.959935 
L 321.593315 -178.726505 
L 320.038997 -176.111971 
L 318.48468 -172.492953 
L 316.930362 -170.784527 
L 315.376045 -168.271846 
L 313.821727 -165.998151 
L 312.267409 -163.207292 
L 310.713092 -161.318636 
L 309.158774 -158.195958 
L 307.604457 -156.100987 
L 306.050139 -153.449591 
L 304.495822 -151.007059 
L 302.941504 -148.473763 
L 301.387187 -146.129862 
L 299.832869 -143.903407 
L 298.278552 -141.70402 
L 296.724234 -139.155481 
L 295.169916 -136.61916 
L 293.615599 -135.517097 
L 292.061281 -132.244154 
L 290.506964 -130.724398 
L 288.952646 -129.267273 
L 287.398329 -126.595879 
L 285.844011 -126.232867 
L 284.289694 -124.624369 
L 282.735376 -123.706795 
L 281.181058 -121.341643 
L 279.626741 -120.729093 
L 278.072423 -118.444213 
L 276.518106 -119.743306 
L 274.963788 -119.103883 
L 273.409471 -116.864482 
L 271.855153 -116.871527 
L 270.300836 -118.132778 
L 268.746518 -115.421332 
L 267.192201 -116.046225 
L 265.637883 -114.860136 
L 264.083565 -114.869166 
L 262.529248 -116.840895 
L 260.97493 -116.927656 
L 259.420613 -118.590409 
L 257.866295 -119.212406 
L 256.311978 -118.229302 
L 254.75766 -120.324357 
L 253.203343 -119.643909 
L 251.649025 -121.930489 
L 250.094708 -121.383782 
L 248.54039 -121.466541 
L 246.986072 -123.006192 
L 245.431755 -126.300073 
L 243.877437 -126.897648 
L 242.32312 -127.396849 
L 240.768802 -130.086414 
L 239.214485 -130.965856 
L 237.660167 -132.242877 
L 236.10585 -133.529666 
L 234.551532 -136.011555 
L 232.997214 -136.535222 
L 231.442897 -138.159852 
L 229.888579 -139.549851 
L 228.334262 -141.369897 
L 226.779944 -142.866193 
L 225.225627 -145.031715 
L 223.671309 -146.448813 
L 222.116992 -147.900102 
L 220.562674 -149.416355 
L 219.008357 -150.969801 
L 217.454039 -152.383029 
L 215.899721 -153.917076 
L 214.345404 -155.381364 
L 212.791086 -156.39578 
L 211.236769 -157.611505 
L 209.682451 -159.453 
L 208.128134 -159.814472 
L 206.573816 -160.970626 
L 205.019499 -162.667638 
L 203.465181 -163.618068 
L 201.910864 -163.861896 
L 200.356546 -165.025083 
L 198.802228 -166.48267 
L 197.247911 -166.441507 
L 195.693593 -166.591683 
L 194.139276 -167.51321 
L 192.584958 -168.691019 
L 191.030641 -168.590806 
L 189.476323 -168.425137 
L 187.922006 -169.340882 
L 186.367688 -169.181537 
L 184.81337 -169.810674 
L 183.259053 -169.035779 
L 181.704735 -169.604273 
L 180.150418 -169.587859 
L 178.5961 -168.53699 
L 177.041783 -169.333772 
L 175.487465 -168.037942 
L 173.933148 -167.324408 
L 172.37883 -168.481126 
L 170.824513 -166.933876 
L 169.270195 -167.305049 
L 167.715877 -166.611337 
L 166.16156 -166.073372 
L 164.607242 -165.570781 
L 163.052925 -164.461784 
L 161.498607 -164.274526 
L 159.94429 -162.656053 
L 158.389972 -162.545538 
L 156.835655 -161.843129 
L 155.281337 -160.892855 
L 153.727019 -159.888838 
L 152.172702 -159.503301 
L 150.618384 -158.489815 
L 149.064067 -158.045642 
L 147.509749 -157.009662 
L 145.955432 -156.291981 
L 144.401114 -155.653023 
L 142.846797 -155.127463 
L 141.292479 -154.464286 
L 139.738162 -153.691471 
L 138.183844 -153.037378 
L 136.629526 -152.512155 
L 135.075209 -151.88124 
L 133.520891 -151.400008 
L 131.966574 -150.898638 
L 130.412256 -150.435634 
L 128.857939 -149.984839 
L 127.303621 -149.730613 
L 125.749304 -149.323167 
L 124.194986 -149.125733 
L 122.640669 -148.757038 
L 121.086351 -148.680337 
L 119.532033 -148.423425 
L 117.977716 -148.121945 
L 116.423398 -148.116598 
L 114.869081 -148.034905 
L 113.314763 -148.080356 
L 111.760446 -148.28015 
L 110.206128 -148.161385 
L 108.651811 -148.172541 
L 107.097493 -148.415271 
L 105.543175 -148.618539 
L 103.988858 -148.753388 
L 102.43454 -148.864933 
L 100.880223 -149.252099 
L 99.325905 -149.369931 
L 97.771588 -149.634481 
L 96.21727 -150.017829 
L 94.662953 -150.287157 
L 93.108635 -150.580582 
L 91.554318 -150.885375 
L 90 -151.2 
z
" id="m39fb02c24f" style="stroke:#bfd3ff;stroke-opacity:0.6;"/>
    </defs>
    <g clip-path="url(#p20e879d69f)">
     <use style="fill:#bfd3ff;fill-opacity:0.6;stroke:#bfd3ff;stroke-opacity:0.6;" x="0.0" xlink:href="#m39fb02c24f" y="288.0"/>
    </g>
   </g>
   <g id="line2d_1">
    <path clip-path="url(#p20e879d69f)" d="M 90 136.8 
L 99.325905 134.969931 
L 100.880223 134.852099 
L 102.43454 134.464933 
L 105.543175 134.218539 
L 108.651811 133.772541 
L 110.206128 133.761385 
L 111.760446 133.88015 
L 113.314763 133.680356 
L 114.869081 133.634905 
L 117.977716 133.721945 
L 121.086351 134.280337 
L 122.640669 134.357038 
L 124.194986 134.725733 
L 125.749304 134.923167 
L 127.303621 135.330613 
L 128.857939 135.584839 
L 135.075209 137.48124 
L 147.509749 142.609662 
L 149.064067 143.645642 
L 150.618384 144.089815 
L 152.172702 145.103301 
L 153.727019 145.488838 
L 156.835655 147.443129 
L 158.389972 148.145538 
L 159.94429 148.256053 
L 161.498607 149.874526 
L 163.052925 150.061784 
L 164.607242 151.170781 
L 167.715877 152.211337 
L 169.270195 152.905049 
L 170.824513 152.533876 
L 172.37883 154.081126 
L 173.933148 152.924408 
L 175.487465 153.637942 
L 177.041783 154.933772 
L 178.5961 154.13699 
L 180.150418 155.187859 
L 181.704735 155.204273 
L 183.259053 154.635779 
L 184.81337 155.410674 
L 186.367688 154.781537 
L 187.922006 154.940882 
L 189.476323 154.025137 
L 192.584958 154.291019 
L 194.139276 153.11321 
L 195.693593 152.191683 
L 197.247911 152.041507 
L 198.802228 152.08267 
L 200.356546 150.625083 
L 201.910864 149.461896 
L 203.465181 149.218068 
L 205.019499 148.267638 
L 206.573816 146.570626 
L 208.128134 145.414472 
L 209.682451 145.053 
L 211.236769 143.211505 
L 212.791086 141.99578 
L 214.345404 140.981364 
L 220.562674 135.016355 
L 223.671309 132.048813 
L 225.225627 130.631715 
L 226.779944 128.466193 
L 228.334262 126.969897 
L 229.888579 125.149851 
L 231.442897 123.759852 
L 232.997214 122.135222 
L 234.551532 121.611555 
L 236.10585 119.129666 
L 239.214485 116.565856 
L 240.768802 115.686414 
L 242.32312 112.996849 
L 245.431755 111.900073 
L 246.986072 108.606192 
L 248.54039 107.066541 
L 250.094708 106.983782 
L 251.649025 107.530489 
L 253.203343 105.243909 
L 254.75766 105.924357 
L 256.311978 103.829302 
L 257.866295 104.812406 
L 259.420613 104.190409 
L 260.97493 102.527656 
L 262.529248 102.440895 
L 264.083565 100.469166 
L 265.637883 100.460136 
L 267.192201 101.646225 
L 268.746518 101.021332 
L 270.300836 103.732778 
L 271.855153 102.471527 
L 273.409471 102.464482 
L 274.963788 104.703883 
L 276.518106 105.343306 
L 278.072423 104.044213 
L 279.626741 106.329093 
L 281.181058 106.941643 
L 282.735376 109.306795 
L 284.289694 110.224369 
L 285.844011 111.832867 
L 287.398329 112.195879 
L 288.952646 114.867273 
L 292.061281 117.844154 
L 293.615599 121.117097 
L 295.169916 122.21916 
L 298.278552 127.30402 
L 302.941504 134.073763 
L 307.604457 141.700987 
L 309.158774 143.795958 
L 310.713092 146.918636 
L 312.267409 148.807292 
L 313.821727 151.598151 
L 315.376045 153.871846 
L 316.930362 156.384527 
L 318.48468 158.092953 
L 320.038997 161.711971 
L 321.593315 164.326505 
L 323.147632 165.559935 
L 324.70195 168.912769 
L 326.256267 171.714967 
L 327.810585 171.810276 
L 329.364903 173.35883 
L 330.91922 178.083181 
L 332.473538 177.493077 
L 334.027855 178.541106 
L 335.582173 182.022661 
L 337.13649 183.379587 
L 338.690808 184.912041 
L 341.799443 186.051277 
L 343.35376 188.335001 
L 344.908078 189.017267 
L 346.462396 189.094924 
L 348.016713 186.552052 
L 349.571031 189.387795 
L 351.125348 188.636426 
L 352.679666 189.481072 
L 354.233983 189.958705 
L 355.788301 188.163783 
L 357.342618 188.149461 
L 358.896936 185.386821 
L 360.451253 184.67472 
L 362.005571 183.637939 
L 363.559889 182.255033 
L 366.668524 181.309928 
L 368.222841 177.286545 
L 369.777159 175.338798 
L 371.331476 174.407566 
L 372.885794 171.296689 
L 374.440111 169.883534 
L 375.994429 165.635749 
L 377.548747 162.200697 
L 379.103064 160.559011 
L 380.657382 157.985825 
L 382.211699 154.528855 
L 383.766017 150.490149 
L 385.320334 148.293559 
L 386.874652 144.304048 
L 388.428969 141.288078 
L 394.64624 127.584545 
L 397.754875 120.381781 
L 399.309192 116.086658 
L 400.86351 112.505242 
L 402.417827 110.329008 
L 403.972145 106.825456 
L 405.526462 101.858325 
L 407.08078 101.073772 
L 410.189415 93.892946 
L 411.743733 89.287689 
L 413.29805 88.178224 
L 414.852368 86.409391 
L 416.406685 80.725695 
L 417.961003 79.728065 
L 419.51532 76.65775 
L 422.623955 77.622004 
L 424.178273 72.296645 
L 427.286908 72.365917 
L 428.841226 71.126372 
L 430.395543 66.949606 
L 431.949861 66.400668 
L 433.504178 69.377904 
L 435.058496 67.197276 
L 436.612813 68.028544 
L 438.167131 64.978322 
L 439.721448 65.590826 
L 441.275766 70.432797 
L 442.830084 69.35073 
L 444.384401 72.0686 
L 445.938719 75.068324 
L 447.493036 74.307486 
L 449.047354 72.905861 
L 452.155989 81.323865 
L 453.710306 82.551609 
L 455.264624 83.109288 
L 456.818942 88.074806 
L 458.373259 93.417907 
L 459.927577 93.573985 
L 461.481894 98.55205 
L 463.036212 101.141979 
L 464.590529 105.869403 
L 466.144847 109.080267 
L 467.699164 113.879722 
L 469.253482 118.102056 
L 470.807799 120.944083 
L 473.916435 129.945809 
L 477.02507 138.873428 
L 478.579387 143.59276 
L 480.133705 147.903339 
L 481.688022 151.533205 
L 483.24234 156.363375 
L 484.796657 160.675693 
L 486.350975 166.584968 
L 489.45961 175.841849 
L 491.013928 179.85582 
L 492.568245 182.894783 
L 494.122563 185.580953 
L 495.67688 191.266297 
L 497.231198 192.430601 
L 498.785515 198.605327 
L 500.339833 202.650482 
L 501.89415 201.555771 
L 503.448468 208.052763 
L 506.557103 209.151081 
L 508.111421 210.867435 
L 509.665738 219.850208 
L 511.220056 214.624879 
L 512.774373 222.527459 
L 514.328691 221.522445 
L 515.883008 220.969822 
L 517.437326 223.227082 
L 518.991643 223.075396 
L 520.545961 222.12193 
L 522.100279 227.398566 
L 523.654596 226.662228 
L 525.208914 221.189555 
L 526.763231 223.17575 
L 528.317549 218.462604 
L 529.871866 220.724979 
L 531.426184 218.066632 
L 532.980501 211.360361 
L 534.534819 210.890919 
L 536.089136 208.630948 
L 537.643454 210.655382 
L 539.197772 205.892741 
L 540.752089 202.459702 
L 542.306407 196.896883 
L 543.860724 195.419935 
L 545.415042 187.00774 
L 546.969359 186.434542 
L 548.523677 182.262288 
L 550.077994 177.389841 
L 551.632312 170.509416 
L 553.18663 166.774595 
L 554.740947 161.305242 
L 556.295265 156.844645 
L 557.849582 151.904687 
L 559.4039 145.866549 
L 560.958217 141.066522 
L 568.729805 113.442419 
L 570.284123 107.245748 
L 571.83844 102.686342 
L 574.947075 90.538236 
L 576.501393 87.93393 
L 578.05571 80.340122 
L 579.610028 78.932193 
L 581.164345 75.713075 
L 582.718663 72.194961 
L 584.272981 66.867488 
L 585.827298 58.22133 
L 587.381616 58.404615 
L 592.044568 44.918435 
L 593.598886 45.389391 
L 595.153203 38.972091 
L 596.707521 36.564665 
L 598.261838 33.53569 
L 599.816156 34.548179 
L 601.370474 33.819858 
L 602.924791 29.392474 
L 604.479109 34.227607 
L 607.587744 28.8 
L 609.142061 33.392295 
L 610.696379 34.107347 
L 612.250696 30.564779 
L 613.805014 36.802798 
L 615.359331 42.381497 
L 616.913649 38.703895 
L 618.467967 41.697757 
L 620.022284 41.112913 
L 623.130919 54.914875 
L 624.685237 51.975006 
L 626.239554 62.578369 
L 627.793872 66.923839 
L 629.348189 64.99162 
L 630.902507 71.393562 
L 632.456825 77.274579 
L 634.011142 80.758123 
L 635.56546 89.816309 
L 637.119777 92.645379 
L 638.674095 100.028714 
L 640.228412 106.514192 
L 643.337047 118.454513 
L 644.891365 123.585254 
L 648 136.8 
L 648 136.8 
" style="fill:none;stroke:#5b6fbd;stroke-linecap:square;"/>
   </g>
   <g id="line2d_2">
    <path clip-path="url(#p20e879d69f)" d="M 90 136.8 
L 99.325905 137.715034 
L 100.880223 137.773951 
L 102.43454 137.967534 
L 107.097493 138.192365 
L 108.651811 138.31373 
L 117.977716 138.339027 
L 121.086351 138.059831 
L 122.640669 138.021481 
L 127.303621 137.534694 
L 130.412256 137.182183 
L 136.629526 136.143922 
L 139.738162 135.554264 
L 142.846797 134.836268 
L 145.955432 134.254009 
L 147.509749 133.895169 
L 149.064067 133.377179 
L 150.618384 133.155092 
L 152.172702 132.648349 
L 153.727019 132.455581 
L 156.835655 131.478435 
L 158.389972 131.127231 
L 159.94429 131.071974 
L 161.498607 130.262737 
L 163.052925 130.169108 
L 164.607242 129.614609 
L 167.715877 129.094331 
L 169.270195 128.747476 
L 170.824513 128.933062 
L 172.37883 128.159437 
L 173.933148 128.737796 
L 175.487465 128.381029 
L 177.041783 127.733114 
L 178.5961 128.131505 
L 180.150418 127.60607 
L 181.704735 127.597863 
L 183.259053 127.88211 
L 184.81337 127.494663 
L 186.367688 127.809231 
L 187.922006 127.729559 
L 189.476323 128.187431 
L 192.584958 128.054491 
L 194.139276 128.643395 
L 195.693593 129.104159 
L 198.802228 129.158665 
L 200.356546 129.887458 
L 201.910864 130.469052 
L 203.465181 130.590966 
L 205.019499 131.066181 
L 206.573816 131.914687 
L 208.128134 132.492764 
L 209.682451 132.6735 
L 211.236769 133.594247 
L 215.899721 135.441462 
L 223.671309 139.175594 
L 225.225627 139.884142 
L 226.779944 140.966904 
L 228.334262 141.715051 
L 229.888579 142.625074 
L 232.997214 144.132389 
L 234.551532 144.394223 
L 236.10585 145.635167 
L 239.214485 146.917072 
L 240.768802 147.356793 
L 242.32312 148.701575 
L 245.431755 149.249963 
L 246.986072 150.896904 
L 248.54039 151.66673 
L 250.094708 151.708109 
L 251.649025 151.434756 
L 253.203343 152.578045 
L 254.75766 152.237822 
L 256.311978 153.285349 
L 257.866295 152.793797 
L 259.420613 153.104795 
L 260.97493 153.936172 
L 262.529248 153.979553 
L 264.083565 154.965417 
L 265.637883 154.969932 
L 267.192201 154.376887 
L 268.746518 154.689334 
L 270.300836 153.333611 
L 271.855153 153.964236 
L 273.409471 153.967759 
L 274.963788 152.848058 
L 276.518106 152.528347 
L 278.072423 153.177894 
L 279.626741 152.035453 
L 281.181058 151.729179 
L 282.735376 150.546602 
L 284.289694 150.087816 
L 285.844011 149.283566 
L 287.398329 149.102061 
L 288.952646 147.766364 
L 292.061281 146.277923 
L 293.615599 144.641452 
L 295.169916 144.09042 
L 298.278552 141.54799 
L 302.941504 138.163118 
L 307.604457 134.349506 
L 309.158774 133.302021 
L 310.713092 131.740682 
L 312.267409 130.796354 
L 313.821727 129.400925 
L 316.930362 127.007736 
L 318.48468 126.153524 
L 320.038997 124.344014 
L 321.593315 123.036747 
L 323.147632 122.420033 
L 324.70195 120.743615 
L 326.256267 119.342517 
L 327.810585 119.294862 
L 329.364903 118.520585 
L 330.91922 116.158409 
L 332.473538 116.453462 
L 334.027855 115.929447 
L 335.582173 114.188669 
L 338.690808 112.74398 
L 341.799443 112.174362 
L 343.35376 111.032499 
L 344.908078 110.691367 
L 346.462396 110.652538 
L 348.016713 111.923974 
L 349.571031 110.506102 
L 351.125348 110.881787 
L 352.679666 110.459464 
L 354.233983 110.220648 
L 355.788301 111.118109 
L 357.342618 111.12527 
L 358.896936 112.506589 
L 360.451253 112.86264 
L 362.005571 113.38103 
L 363.559889 114.072484 
L 366.668524 114.545036 
L 368.222841 116.556727 
L 369.777159 117.530601 
L 371.331476 117.996217 
L 372.885794 119.551655 
L 374.440111 120.258233 
L 375.994429 122.382125 
L 377.548747 124.099652 
L 379.103064 124.920495 
L 380.657382 126.207088 
L 382.211699 127.935572 
L 383.766017 129.954925 
L 385.320334 131.053221 
L 386.874652 133.047976 
L 388.428969 134.555961 
L 394.64624 141.407727 
L 400.86351 148.947379 
L 402.417827 150.035496 
L 403.972145 151.787272 
L 405.526462 154.270837 
L 407.08078 154.663114 
L 410.189415 158.253527 
L 411.743733 160.556156 
L 413.29805 161.110888 
L 414.852368 161.995305 
L 416.406685 164.837152 
L 417.961003 165.335968 
L 419.51532 166.871125 
L 422.623955 166.388998 
L 424.178273 169.051678 
L 427.286908 169.017041 
L 428.841226 169.636814 
L 430.395543 171.725197 
L 431.949861 171.999666 
L 433.504178 170.511048 
L 435.058496 171.601362 
L 436.612813 171.185728 
L 438.167131 172.710839 
L 439.721448 172.404587 
L 441.275766 169.983602 
L 442.830084 170.524635 
L 445.938719 167.665838 
L 447.493036 168.046257 
L 449.047354 168.747069 
L 452.155989 164.538068 
L 453.710306 163.924195 
L 455.264624 163.645356 
L 458.373259 158.491046 
L 459.927577 158.413007 
L 461.481894 155.923975 
L 463.036212 154.62901 
L 464.590529 152.265299 
L 466.144847 150.659866 
L 467.699164 148.260139 
L 469.253482 146.148972 
L 470.807799 144.727958 
L 473.916435 140.227095 
L 477.02507 135.763286 
L 478.579387 133.40362 
L 480.133705 131.24833 
L 481.688022 129.433398 
L 483.24234 127.018312 
L 484.796657 124.862154 
L 486.350975 121.907516 
L 489.45961 117.279076 
L 491.013928 115.27209 
L 492.568245 113.752609 
L 494.122563 112.409524 
L 495.67688 109.566852 
L 497.231198 108.984699 
L 498.785515 105.897337 
L 500.339833 103.874759 
L 501.89415 104.422115 
L 503.448468 101.173618 
L 506.557103 100.62446 
L 508.111421 99.766282 
L 509.665738 95.274896 
L 511.220056 97.887561 
L 512.774373 93.93627 
L 514.328691 94.438778 
L 515.883008 94.715089 
L 517.437326 93.586459 
L 518.991643 93.662302 
L 520.545961 94.139035 
L 522.100279 91.500717 
L 523.654596 91.868886 
L 525.208914 94.605222 
L 526.763231 93.612125 
L 528.317549 95.968698 
L 529.871866 94.837511 
L 531.426184 96.166684 
L 532.980501 99.51982 
L 534.534819 99.754541 
L 536.089136 100.884526 
L 537.643454 99.872309 
L 539.197772 102.253629 
L 540.752089 103.970149 
L 542.306407 106.751559 
L 543.860724 107.490033 
L 545.415042 111.69613 
L 546.969359 111.982729 
L 548.523677 114.068856 
L 550.077994 116.505079 
L 551.632312 119.945292 
L 553.18663 121.812703 
L 554.740947 124.547379 
L 556.295265 126.777678 
L 557.849582 129.247657 
L 559.4039 132.266726 
L 560.958217 134.666739 
L 568.729805 148.478791 
L 570.284123 151.577126 
L 571.83844 153.856829 
L 574.947075 159.930882 
L 576.501393 161.233035 
L 578.05571 165.029939 
L 579.610028 165.733903 
L 582.718663 169.10252 
L 584.272981 171.766256 
L 585.827298 176.089335 
L 587.381616 175.997692 
L 592.044568 182.740783 
L 593.598886 182.505305 
L 595.153203 185.713955 
L 596.707521 186.917667 
L 598.261838 188.432155 
L 599.816156 187.92591 
L 601.370474 188.290071 
L 602.924791 190.503763 
L 604.479109 188.086196 
L 607.587744 190.8 
L 609.142061 188.503852 
L 610.696379 188.146327 
L 612.250696 189.91761 
L 613.805014 186.798601 
L 615.359331 184.009251 
L 616.913649 185.848052 
L 618.467967 184.351121 
L 620.022284 184.643543 
L 623.130919 177.742562 
L 624.685237 179.212497 
L 626.239554 173.910815 
L 627.793872 171.738081 
L 629.348189 172.70419 
L 630.902507 169.503219 
L 632.456825 166.562711 
L 634.011142 164.820939 
L 635.56546 160.291846 
L 637.119777 158.87731 
L 638.674095 155.185643 
L 640.228412 151.942904 
L 643.337047 145.972744 
L 644.891365 143.407373 
L 648 136.8 
L 648 136.8 
" style="fill:none;stroke:#38c0ff;stroke-linecap:square;"/>
   </g>
   <g id="line2d_3">
    <path clip-path="url(#p20e879d69f)" d="M 90 136.8 
L 97.771588 136.94974 
L 107.097493 137.40359 
L 125.749304 138.483067 
L 131.966574 138.605291 
L 138.183844 138.473925 
L 142.846797 138.158344 
L 147.509749 137.657927 
L 152.172702 136.926636 
L 156.835655 135.980702 
L 161.498607 134.811481 
L 166.16156 133.42619 
L 172.37883 131.323077 
L 177.041783 129.657828 
L 183.259053 127.312454 
L 189.476323 124.967297 
L 195.693593 122.7972 
L 200.356546 121.351835 
L 205.019499 120.160729 
L 209.682451 119.292579 
L 212.791086 118.914292 
L 215.899721 118.689468 
L 219.008357 118.658415 
L 222.116992 118.82409 
L 225.225627 119.179961 
L 228.334262 119.771933 
L 231.442897 120.576602 
L 236.10585 122.12542 
L 240.768802 124.090787 
L 245.431755 126.470073 
L 250.094708 129.32968 
L 254.75766 132.318272 
L 262.529248 137.734796 
L 268.746518 142.414898 
L 279.626741 149.862184 
L 282.735376 151.731301 
L 287.398329 154.212969 
L 290.506964 155.595079 
L 293.615599 156.723974 
L 296.724234 157.591708 
L 299.832869 158.138987 
L 302.941504 158.393075 
L 306.050139 158.326048 
L 309.158774 157.93832 
L 312.267409 157.217224 
L 315.376045 156.178564 
L 318.48468 154.846345 
L 321.593315 153.137348 
L 324.70195 151.153474 
L 329.364903 147.683102 
L 335.582173 142.177257 
L 340.245125 137.503579 
L 343.35376 134.218901 
L 357.342618 118.991254 
L 362.005571 114.321048 
L 366.668524 109.92458 
L 369.777159 107.349102 
L 372.885794 104.999187 
L 374.440111 103.920977 
L 377.548747 102.153382 
L 380.657382 100.688606 
L 382.211699 100.110814 
L 385.320334 99.290063 
L 388.428969 98.899233 
L 389.983287 98.864001 
L 393.091922 99.128562 
L 394.64624 99.428898 
L 397.754875 100.385786 
L 400.86351 101.852624 
L 403.972145 103.692214 
L 407.08078 105.995318 
L 410.189415 108.671785 
L 414.852368 113.447102 
L 419.51532 119.094666 
L 424.178273 125.069966 
L 428.841226 131.412651 
L 442.830084 151.713074 
L 447.493036 157.871237 
L 450.601671 161.898679 
L 455.264624 167.224468 
L 456.818942 168.812448 
L 459.927577 171.635052 
L 463.036212 174.043687 
L 466.144847 175.955132 
L 467.699164 176.702116 
L 470.807799 177.828245 
L 472.362117 178.194969 
L 473.916435 178.418351 
L 475.470752 178.498704 
L 477.02507 178.43113 
L 478.579387 178.20975 
L 480.133705 177.847887 
L 481.688022 177.367724 
L 483.24234 176.730143 
L 484.796657 175.952021 
L 486.350975 174.981314 
L 487.905292 173.860919 
L 491.013928 171.185313 
L 494.122563 168.093262 
L 497.231198 164.505146 
L 500.339833 160.344776 
L 501.89415 158.234351 
L 508.111421 148.799879 
L 518.991643 129.630218 
L 522.100279 123.896876 
L 525.208914 118.217919 
L 528.317549 112.74146 
L 531.426184 107.357778 
L 537.643454 97.765159 
L 540.752089 93.373506 
L 543.860724 89.504462 
L 546.969359 86.250549 
L 548.523677 84.768909 
L 550.077994 83.446065 
L 553.18663 81.370569 
L 554.740947 80.57193 
L 556.295265 79.918665 
L 557.849582 79.426395 
L 559.4039 79.130911 
L 560.958217 78.991863 
L 562.512535 79.032954 
L 564.066852 79.251135 
L 565.62117 79.645047 
L 567.175487 80.219831 
L 568.729805 80.981067 
L 570.284123 81.944255 
L 571.83844 83.056037 
L 573.392758 84.359591 
L 576.501393 87.459858 
L 579.610028 91.185858 
L 582.718663 95.282225 
L 584.272981 97.561363 
L 588.935933 105.378423 
L 592.044568 111.226642 
L 595.153203 117.394025 
L 601.370474 130.714805 
L 607.587744 144.50665 
L 613.805014 157.944793 
L 621.576602 173.326796 
L 626.239554 181.178889 
L 630.902507 187.928094 
L 634.011142 191.694493 
L 637.119777 194.664739 
L 638.674095 195.863135 
L 640.228412 196.850165 
L 641.78273 197.645112 
L 643.337047 198.243001 
L 644.891365 198.673677 
L 646.445682 198.882285 
L 648 198.882285 
L 648 198.882285 
" style="fill:none;stroke:#ff0000;stroke-linecap:square;"/>
   </g>
   <g id="line2d_4">
    <path clip-path="url(#p20e879d69f)" d="M 93.108635 135.86478 
L 96.21727 135.9736 
L 97.771588 135.623744 
L 100.880223 136.438446 
L 102.43454 135.612029 
L 103.988858 136.457739 
L 105.543175 136.386231 
L 108.651811 136.055213 
L 110.206128 136.765771 
L 111.760446 137.164415 
L 113.314763 136.186958 
L 116.423398 137.050663 
L 117.977716 136.816409 
L 119.532033 137.725053 
L 121.086351 137.588303 
L 122.640669 137.035347 
L 124.194986 137.931293 
L 125.749304 137.405804 
L 127.303621 138.050195 
L 128.857939 137.580062 
L 130.412256 138.18321 
L 135.075209 138.276598 
L 136.629526 138.735886 
L 138.183844 138.41158 
L 141.292479 139.171286 
L 144.401114 138.412617 
L 147.509749 139.002116 
L 149.064067 139.978774 
L 150.618384 138.162892 
L 152.172702 139.909756 
L 153.727019 137.982974 
L 155.281337 139.8807 
L 156.835655 139.715799 
L 158.389972 138.955253 
L 159.94429 137.139102 
L 161.498607 141.766084 
L 163.052925 137.374578 
L 164.607242 140.202821 
L 166.16156 138.342139 
L 167.715877 138.450678 
L 169.270195 138.928568 
L 170.824513 135.661103 
L 172.37883 141.547543 
L 173.933148 133.250756 
L 175.487465 138.989389 
L 177.041783 140.776096 
L 178.5961 134.355171 
L 180.150418 140.024464 
L 181.704735 136.850363 
L 183.259053 135.055647 
L 184.81337 139.177669 
L 186.367688 134.869571 
L 187.922006 137.28893 
L 189.476323 133.990151 
L 191.030641 137.308333 
L 192.584958 137.10749 
L 194.139276 133.18604 
L 195.693593 133.972408 
L 197.247911 136.339205 
L 198.802228 136.926302 
L 200.356546 132.327577 
L 201.910864 133.230903 
L 203.465181 136.051844 
L 206.573816 131.592929 
L 208.128134 133.252487 
L 209.682451 135.690867 
L 211.236769 131.149601 
L 212.791086 133.069699 
L 214.345404 133.687387 
L 215.899721 132.307016 
L 217.454039 132.092967 
L 219.008357 132.463685 
L 220.562674 132.033443 
L 225.225627 132.451812 
L 226.779944 130.155362 
L 228.334262 132.208802 
L 229.888579 131.215415 
L 231.442897 132.534959 
L 232.997214 131.815023 
L 234.551532 135.193193 
L 236.10585 129.184632 
L 237.660167 132.851647 
L 239.214485 132.881621 
L 240.768802 134.10154 
L 242.32312 128.547403 
L 243.877437 135.268263 
L 245.431755 134.966416 
L 246.986072 126.693134 
L 248.54039 132.075771 
L 250.094708 136.546065 
L 251.649025 138.477502 
L 253.203343 129.783913 
L 254.75766 138.88787 
L 256.311978 130.371584 
L 257.866295 139.816532 
L 259.420613 134.891481 
L 260.97493 131.698047 
L 262.529248 136.533784 
L 264.083565 130.749993 
L 265.637883 136.772292 
L 267.192201 140.439369 
L 268.746518 134.882593 
L 270.300836 145.119737 
L 271.855153 132.930006 
L 273.409471 136.778384 
L 274.963788 143.671325 
L 276.518106 138.76199 
L 278.072423 132.813893 
L 279.626741 143.810873 
L 281.181058 138.679532 
L 282.735376 144.057177 
L 284.289694 139.61546 
L 285.844011 141.73548 
L 287.398329 137.913855 
L 288.952646 144.996842 
L 290.506964 141.271008 
L 292.061281 141.463183 
L 293.615599 146.842618 
L 295.169916 140.181545 
L 296.724234 144.582386 
L 298.278552 144.619876 
L 299.832869 143.548546 
L 301.387187 143.631603 
L 302.941504 143.991969 
L 304.495822 144.573104 
L 306.050139 144.294606 
L 307.604457 144.935481 
L 309.158774 143.228157 
L 310.713092 146.381552 
L 312.267409 142.595107 
L 313.821727 145.363403 
L 315.376045 143.776553 
L 316.930362 144.509851 
L 318.48468 142.042093 
L 320.038997 147.90451 
L 321.593315 144.822373 
L 323.147632 140.584626 
L 324.70195 147.087756 
L 326.256267 145.398196 
L 327.810585 137.092445 
L 329.364903 141.551546 
L 330.91922 151.296087 
L 332.473538 134.989336 
L 334.027855 140.015749 
L 335.582173 147.48272 
L 337.13649 140.963558 
L 338.690808 141.502146 
L 340.245125 138.648206 
L 341.799443 138.447398 
L 343.35376 143.807326 
L 344.908078 138.893448 
L 346.462396 137.038281 
L 348.016713 128.997511 
L 349.571031 145.501127 
L 351.125348 134.494515 
L 352.679666 139.391694 
L 354.233983 138.265556 
L 355.788301 131.292503 
L 357.342618 136.756056 
L 358.896936 128.323182 
L 360.451253 134.615006 
L 363.559889 132.556724 
L 365.114206 135.204967 
L 366.668524 135.495097 
L 368.222841 124.454747 
L 369.777159 130.823579 
L 371.331476 133.94263 
L 372.885794 127.25466 
L 374.440111 132.46391 
L 375.994429 123.766197 
L 377.548747 126.259967 
L 379.103064 131.762691 
L 382.211699 126.192717 
L 383.766017 124.407731 
L 385.320334 130.060035 
L 386.874652 124.55868 
L 388.428969 127.54587 
L 389.983287 126.346034 
L 391.537604 126.092452 
L 393.091922 126.672567 
L 396.200557 125.363423 
L 397.754875 126.135787 
L 399.309192 123.620947 
L 400.86351 125.810871 
L 402.417827 130.122493 
L 403.972145 126.049784 
L 405.526462 121.558976 
L 407.08078 134.392694 
L 408.635097 126.088985 
L 410.189415 125.477542 
L 411.743733 122.669339 
L 413.29805 133.395745 
L 414.852368 131.372554 
L 416.406685 119.360285 
L 417.961003 133.738894 
L 419.51532 127.379122 
L 421.069638 138.269523 
L 422.623955 138.28917 
L 424.178273 120.459794 
L 425.732591 136.780425 
L 427.286908 137.03213 
L 428.841226 132.99661 
L 430.395543 123.984112 
L 433.504178 145.93528 
L 435.058496 130.109013 
L 436.612813 139.350644 
L 438.167131 127.440769 
L 439.721448 138.679393 
L 441.275766 151.656989 
L 442.830084 133.479814 
L 444.384401 145.139447 
L 445.938719 146.004281 
L 447.493036 134.465463 
L 449.047354 132.499288 
L 450.601671 149.721576 
L 452.155989 149.708024 
L 453.710306 140.567182 
L 455.264624 138.511168 
L 456.818942 152.036078 
L 458.373259 153.194643 
L 459.927577 137.278907 
L 461.481894 152.074575 
L 463.036212 144.746876 
L 464.590529 151.305514 
L 466.144847 146.652139 
L 467.699164 151.526532 
L 469.253482 149.755708 
L 470.807799 145.520409 
L 472.362117 150.925035 
L 473.916435 150.295645 
L 475.470752 150.266054 
L 478.579387 151.280686 
L 480.133705 150.026477 
L 481.688022 147.937791 
L 483.24234 151.62078 
L 484.796657 150.031812 
L 486.350975 154.931878 
L 487.905292 150.892891 
L 489.45961 151.110701 
L 491.013928 149.116375 
L 492.568245 146.12468 
L 494.122563 145.042179 
L 495.67688 154.244775 
L 497.231198 140.372523 
L 498.785515 155.746381 
L 500.339833 149.212058 
L 501.89415 133.441013 
L 503.448468 156.735217 
L 505.002786 138.521412 
L 506.557103 138.448639 
L 508.111421 142.066422 
L 509.665738 164.362524 
L 511.220056 120.766724 
L 512.774373 161.04809 
L 514.328691 133.716236 
L 515.883008 135.104347 
L 517.437326 143.726122 
L 518.991643 136.334571 
L 520.545961 133.874406 
L 522.100279 152.990704 
L 523.654596 134.54064 
L 525.208914 120.007781 
L 526.763231 142.894391 
L 528.317549 122.338296 
L 529.871866 143.741817 
L 531.426184 128.643191 
L 532.980501 116.22264 
L 534.534819 135.359574 
L 536.089136 129.86556 
L 537.643454 143.011725 
L 539.197772 122.186427 
L 540.752089 126.266144 
L 542.306407 119.731179 
L 543.860724 132.268168 
L 545.415042 110.988222 
L 546.969359 135.041215 
L 548.523677 123.997955 
L 550.077994 121.8495 
L 551.632312 115.688267 
L 553.18663 125.340166 
L 554.740947 120.017967 
L 556.295265 123.113211 
L 557.849582 121.642351 
L 559.4039 118.272721 
L 560.958217 122.071713 
L 562.512535 119.839988 
L 564.066852 120.127204 
L 565.62117 120.254929 
L 568.729805 119.245653 
L 570.284123 117.786285 
L 571.83844 122.810027 
L 573.392758 118.744811 
L 574.947075 117.58023 
L 576.501393 128.809008 
L 578.05571 113.499341 
L 579.610028 132.479945 
L 581.164345 126.922534 
L 582.718663 126.005104 
L 584.272981 120.453309 
L 585.827298 110.270337 
L 587.381616 137.362387 
L 588.935933 123.031115 
L 590.490251 122.436757 
L 592.044568 123.551455 
L 593.598886 138.245069 
L 595.153203 117.109311 
L 596.707521 129.413112 
L 598.261838 127.505966 
L 599.816156 139.906698 
L 601.370474 134.565236 
L 602.924791 123.21512 
L 604.479109 151.636009 
L 606.033426 128.719875 
L 607.587744 128.226184 
L 609.142061 150.890889 
L 610.696379 138.994047 
L 612.250696 125.930071 
L 613.805014 155.940588 
L 615.359331 153.917546 
L 616.913649 125.515734 
L 618.467967 145.986294 
L 620.022284 135.005479 
L 621.576602 158.319549 
L 623.130919 157.630062 
L 624.685237 127.779374 
L 626.239554 169.335107 
L 629.348189 130.871225 
L 630.902507 156.443567 
L 632.456825 154.84517 
L 634.011142 147.488824 
L 635.56546 164.593922 
L 637.119777 145.480652 
L 638.674095 159.454848 
L 640.228412 156.699885 
L 641.78273 154.884564 
L 643.337047 155.352829 
L 644.891365 152.543045 
L 646.445682 157.707448 
L 648 156.440362 
L 648 156.440362 
" style="fill:none;stroke:#ff9600;stroke-linecap:square;"/>
   </g>
   <g id="patch_3">
    <path d="M 90 28.8 
L 648 28.8 
" style="fill:none;stroke:#000000;stroke-linecap:square;stroke-linejoin:miter;"/>
   </g>
   <g id="patch_4">
    <path d="M 648 244.8 
L 648 28.8 
" style="fill:none;stroke:#000000;stroke-linecap:square;stroke-linejoin:miter;"/>
   </g>
   <g id="patch_5">
    <path d="M 90 244.8 
L 648 244.8 
" style="fill:none;stroke:#000000;stroke-linecap:square;stroke-linejoin:miter;"/>
   </g>
   <g id="patch_6">
    <path d="M 90 244.8 
L 90 28.8 
" style="fill:none;stroke:#000000;stroke-linecap:square;stroke-linejoin:miter;"/>
   </g>
   <g id="matplotlib.axis_1">
    <g id="xtick_1">
     <g id="line2d_5">
      <defs>
       <path d="M 0 0 
L 0 -4 
" id="mc1a3bddac2" style="stroke:#000000;stroke-width:0.5;"/>
      </defs>
      <g>
       <use style="stroke:#000000;stroke-width:0.5;" x="90.0" xlink:href="#mc1a3bddac2" y="244.8"/>
      </g>
     </g>
     <g id="line2d_6">
      <defs>
       <path d="M 0 0 
L 0 4 
" id="m06ef37cea6" style="stroke:#000000;stroke-width:0.5;"/>
      </defs>
      <g>
       <use style="stroke:#000000;stroke-width:0.5;" x="90.0" xlink:href="#m06ef37cea6" y="28.8"/>
      </g>
     </g>
     <g id="text_1">
      <!-- 0 -->
      <defs>
       <path d="M 31.78125 66.40625 
Q 24.171875 66.40625 20.328125 58.90625 
Q 16.5 51.421875 16.5 36.375 
Q 16.5 21.390625 20.328125 13.890625 
Q 24.171875 6.390625 31.78125 6.390625 
Q 39.453125 6.390625 43.28125 13.890625 
Q 47.125 21.390625 47.125 36.375 
Q 47.125 51.421875 43.28125 58.90625 
Q 39.453125 66.40625 31.78125 66.40625 
M 31.78125 74.21875 
Q 44.046875 74.21875 50.515625 64.515625 
Q 56.984375 54.828125 56.984375 36.375 
Q 56.984375 17.96875 50.515625 8.265625 
Q 44.046875 -1.421875 31.78125 -1.421875 
Q 19.53125 -1.421875 13.0625 8.265625 
Q 6.59375 17.96875 6.59375 36.375 
Q 6.59375 54.828125 13.0625 64.515625 
Q 19.53125 74.21875 31.78125 74.21875 
" id="BitstreamVeraSans-Roman-30"/>
      </defs>
      <g transform="translate(86.1825 257.918125)scale(0.12 -0.12)">
       <use xlink:href="#BitstreamVeraSans-Roman-30"/>
      </g>
     </g>
    </g>
    <g id="xtick_2">
     <g id="line2d_7">
      <g>
       <use style="stroke:#000000;stroke-width:0.5;" x="185.384615385" xlink:href="#mc1a3bddac2" y="244.8"/>
      </g>
     </g>
     <g id="line2d_8">
      <g>
       <use style="stroke:#000000;stroke-width:0.5;" x="185.384615385" xlink:href="#m06ef37cea6" y="28.8"/>
      </g>
     </g>
     <g id="text_2">
      <!-- 200 -->
      <defs>
       <path d="M 19.1875 8.296875 
L 53.609375 8.296875 
L 53.609375 0 
L 7.328125 0 
L 7.328125 8.296875 
Q 12.9375 14.109375 22.625 23.890625 
Q 32.328125 33.6875 34.8125 36.53125 
Q 39.546875 41.84375 41.421875 45.53125 
Q 43.3125 49.21875 43.3125 52.78125 
Q 43.3125 58.59375 39.234375 62.25 
Q 35.15625 65.921875 28.609375 65.921875 
Q 23.96875 65.921875 18.8125 64.3125 
Q 13.671875 62.703125 7.8125 59.421875 
L 7.8125 69.390625 
Q 13.765625 71.78125 18.9375 73 
Q 24.125 74.21875 28.421875 74.21875 
Q 39.75 74.21875 46.484375 68.546875 
Q 53.21875 62.890625 53.21875 53.421875 
Q 53.21875 48.921875 51.53125 44.890625 
Q 49.859375 40.875 45.40625 35.40625 
Q 44.1875 33.984375 37.640625 27.21875 
Q 31.109375 20.453125 19.1875 8.296875 
" id="BitstreamVeraSans-Roman-32"/>
      </defs>
      <g transform="translate(173.932115385 257.918125)scale(0.12 -0.12)">
       <use xlink:href="#BitstreamVeraSans-Roman-32"/>
       <use x="63.623046875" xlink:href="#BitstreamVeraSans-Roman-30"/>
       <use x="127.24609375" xlink:href="#BitstreamVeraSans-Roman-30"/>
      </g>
     </g>
    </g>
    <g id="xtick_3">
     <g id="line2d_9">
      <g>
       <use style="stroke:#000000;stroke-width:0.5;" x="280.769230769" xlink:href="#mc1a3bddac2" y="244.8"/>
      </g>
     </g>
     <g id="line2d_10">
      <g>
       <use style="stroke:#000000;stroke-width:0.5;" x="280.769230769" xlink:href="#m06ef37cea6" y="28.8"/>
      </g>
     </g>
     <g id="text_3">
      <!-- 400 -->
      <defs>
       <path d="M 37.796875 64.3125 
L 12.890625 25.390625 
L 37.796875 25.390625 
z
M 35.203125 72.90625 
L 47.609375 72.90625 
L 47.609375 25.390625 
L 58.015625 25.390625 
L 58.015625 17.1875 
L 47.609375 17.1875 
L 47.609375 0 
L 37.796875 0 
L 37.796875 17.1875 
L 4.890625 17.1875 
L 4.890625 26.703125 
z
" id="BitstreamVeraSans-Roman-34"/>
      </defs>
      <g transform="translate(269.316730769 257.918125)scale(0.12 -0.12)">
       <use xlink:href="#BitstreamVeraSans-Roman-34"/>
       <use x="63.623046875" xlink:href="#BitstreamVeraSans-Roman-30"/>
       <use x="127.24609375" xlink:href="#BitstreamVeraSans-Roman-30"/>
      </g>
     </g>
    </g>
    <g id="xtick_4">
     <g id="line2d_11">
      <g>
       <use style="stroke:#000000;stroke-width:0.5;" x="376.153846154" xlink:href="#mc1a3bddac2" y="244.8"/>
      </g>
     </g>
     <g id="line2d_12">
      <g>
       <use style="stroke:#000000;stroke-width:0.5;" x="376.153846154" xlink:href="#m06ef37cea6" y="28.8"/>
      </g>
     </g>
     <g id="text_4">
      <!-- 600 -->
      <defs>
       <path d="M 33.015625 40.375 
Q 26.375 40.375 22.484375 35.828125 
Q 18.609375 31.296875 18.609375 23.390625 
Q 18.609375 15.53125 22.484375 10.953125 
Q 26.375 6.390625 33.015625 6.390625 
Q 39.65625 6.390625 43.53125 10.953125 
Q 47.40625 15.53125 47.40625 23.390625 
Q 47.40625 31.296875 43.53125 35.828125 
Q 39.65625 40.375 33.015625 40.375 
M 52.59375 71.296875 
L 52.59375 62.3125 
Q 48.875 64.0625 45.09375 64.984375 
Q 41.3125 65.921875 37.59375 65.921875 
Q 27.828125 65.921875 22.671875 59.328125 
Q 17.53125 52.734375 16.796875 39.40625 
Q 19.671875 43.65625 24.015625 45.921875 
Q 28.375 48.1875 33.59375 48.1875 
Q 44.578125 48.1875 50.953125 41.515625 
Q 57.328125 34.859375 57.328125 23.390625 
Q 57.328125 12.15625 50.6875 5.359375 
Q 44.046875 -1.421875 33.015625 -1.421875 
Q 20.359375 -1.421875 13.671875 8.265625 
Q 6.984375 17.96875 6.984375 36.375 
Q 6.984375 53.65625 15.1875 63.9375 
Q 23.390625 74.21875 37.203125 74.21875 
Q 40.921875 74.21875 44.703125 73.484375 
Q 48.484375 72.75 52.59375 71.296875 
" id="BitstreamVeraSans-Roman-36"/>
      </defs>
      <g transform="translate(364.701346154 257.918125)scale(0.12 -0.12)">
       <use xlink:href="#BitstreamVeraSans-Roman-36"/>
       <use x="63.623046875" xlink:href="#BitstreamVeraSans-Roman-30"/>
       <use x="127.24609375" xlink:href="#BitstreamVeraSans-Roman-30"/>
      </g>
     </g>
    </g>
    <g id="xtick_5">
     <g id="line2d_13">
      <g>
       <use style="stroke:#000000;stroke-width:0.5;" x="471.538461538" xlink:href="#mc1a3bddac2" y="244.8"/>
      </g>
     </g>
     <g id="line2d_14">
      <g>
       <use style="stroke:#000000;stroke-width:0.5;" x="471.538461538" xlink:href="#m06ef37cea6" y="28.8"/>
      </g>
     </g>
     <g id="text_5">
      <!-- 800 -->
      <defs>
       <path d="M 31.78125 34.625 
Q 24.75 34.625 20.71875 30.859375 
Q 16.703125 27.09375 16.703125 20.515625 
Q 16.703125 13.921875 20.71875 10.15625 
Q 24.75 6.390625 31.78125 6.390625 
Q 38.8125 6.390625 42.859375 10.171875 
Q 46.921875 13.96875 46.921875 20.515625 
Q 46.921875 27.09375 42.890625 30.859375 
Q 38.875 34.625 31.78125 34.625 
M 21.921875 38.8125 
Q 15.578125 40.375 12.03125 44.71875 
Q 8.5 49.078125 8.5 55.328125 
Q 8.5 64.0625 14.71875 69.140625 
Q 20.953125 74.21875 31.78125 74.21875 
Q 42.671875 74.21875 48.875 69.140625 
Q 55.078125 64.0625 55.078125 55.328125 
Q 55.078125 49.078125 51.53125 44.71875 
Q 48 40.375 41.703125 38.8125 
Q 48.828125 37.15625 52.796875 32.3125 
Q 56.78125 27.484375 56.78125 20.515625 
Q 56.78125 9.90625 50.3125 4.234375 
Q 43.84375 -1.421875 31.78125 -1.421875 
Q 19.734375 -1.421875 13.25 4.234375 
Q 6.78125 9.90625 6.78125 20.515625 
Q 6.78125 27.484375 10.78125 32.3125 
Q 14.796875 37.15625 21.921875 38.8125 
M 18.3125 54.390625 
Q 18.3125 48.734375 21.84375 45.5625 
Q 25.390625 42.390625 31.78125 42.390625 
Q 38.140625 42.390625 41.71875 45.5625 
Q 45.3125 48.734375 45.3125 54.390625 
Q 45.3125 60.0625 41.71875 63.234375 
Q 38.140625 66.40625 31.78125 66.40625 
Q 25.390625 66.40625 21.84375 63.234375 
Q 18.3125 60.0625 18.3125 54.390625 
" id="BitstreamVeraSans-Roman-38"/>
      </defs>
      <g transform="translate(460.085961538 257.918125)scale(0.12 -0.12)">
       <use xlink:href="#BitstreamVeraSans-Roman-38"/>
       <use x="63.623046875" xlink:href="#BitstreamVeraSans-Roman-30"/>
       <use x="127.24609375" xlink:href="#BitstreamVeraSans-Roman-30"/>
      </g>
     </g>
    </g>
    <g id="xtick_6">
     <g id="line2d_15">
      <g>
       <use style="stroke:#000000;stroke-width:0.5;" x="566.923076923" xlink:href="#mc1a3bddac2" y="244.8"/>
      </g>
     </g>
     <g id="line2d_16">
      <g>
       <use style="stroke:#000000;stroke-width:0.5;" x="566.923076923" xlink:href="#m06ef37cea6" y="28.8"/>
      </g>
     </g>
     <g id="text_6">
      <!-- 1000 -->
      <defs>
       <path d="M 12.40625 8.296875 
L 28.515625 8.296875 
L 28.515625 63.921875 
L 10.984375 60.40625 
L 10.984375 69.390625 
L 28.421875 72.90625 
L 38.28125 72.90625 
L 38.28125 8.296875 
L 54.390625 8.296875 
L 54.390625 0 
L 12.40625 0 
z
" id="BitstreamVeraSans-Roman-31"/>
      </defs>
      <g transform="translate(551.653076923 257.918125)scale(0.12 -0.12)">
       <use xlink:href="#BitstreamVeraSans-Roman-31"/>
       <use x="63.623046875" xlink:href="#BitstreamVeraSans-Roman-30"/>
       <use x="127.24609375" xlink:href="#BitstreamVeraSans-Roman-30"/>
       <use x="190.869140625" xlink:href="#BitstreamVeraSans-Roman-30"/>
      </g>
     </g>
    </g>
    <g id="text_7">
     <!-- t (s) -->
     <defs>
      <path d="M 8.015625 75.875 
L 15.828125 75.875 
Q 23.140625 64.359375 26.78125 53.3125 
Q 30.421875 42.28125 30.421875 31.390625 
Q 30.421875 20.453125 26.78125 9.375 
Q 23.140625 -1.703125 15.828125 -13.1875 
L 8.015625 -13.1875 
Q 14.5 -2 17.703125 9.0625 
Q 20.90625 20.125 20.90625 31.390625 
Q 20.90625 42.671875 17.703125 53.65625 
Q 14.5 64.65625 8.015625 75.875 
" id="BitstreamVeraSans-Roman-29"/>
      <path id="BitstreamVeraSans-Roman-20"/>
      <path d="M 18.3125 70.21875 
L 18.3125 54.6875 
L 36.8125 54.6875 
L 36.8125 47.703125 
L 18.3125 47.703125 
L 18.3125 18.015625 
Q 18.3125 11.328125 20.140625 9.421875 
Q 21.96875 7.515625 27.59375 7.515625 
L 36.8125 7.515625 
L 36.8125 0 
L 27.59375 0 
Q 17.1875 0 13.234375 3.875 
Q 9.28125 7.765625 9.28125 18.015625 
L 9.28125 47.703125 
L 2.6875 47.703125 
L 2.6875 54.6875 
L 9.28125 54.6875 
L 9.28125 70.21875 
z
" id="BitstreamVeraSans-Roman-74"/>
      <path d="M 44.28125 53.078125 
L 44.28125 44.578125 
Q 40.484375 46.53125 36.375 47.5 
Q 32.28125 48.484375 27.875 48.484375 
Q 21.1875 48.484375 17.84375 46.4375 
Q 14.5 44.390625 14.5 40.28125 
Q 14.5 37.15625 16.890625 35.375 
Q 19.28125 33.59375 26.515625 31.984375 
L 29.59375 31.296875 
Q 39.15625 29.25 43.1875 25.515625 
Q 47.21875 21.78125 47.21875 15.09375 
Q 47.21875 7.46875 41.1875 3.015625 
Q 35.15625 -1.421875 24.609375 -1.421875 
Q 20.21875 -1.421875 15.453125 -0.5625 
Q 10.6875 0.296875 5.421875 2 
L 5.421875 11.28125 
Q 10.40625 8.6875 15.234375 7.390625 
Q 20.0625 6.109375 24.8125 6.109375 
Q 31.15625 6.109375 34.5625 8.28125 
Q 37.984375 10.453125 37.984375 14.40625 
Q 37.984375 18.0625 35.515625 20.015625 
Q 33.0625 21.96875 24.703125 23.78125 
L 21.578125 24.515625 
Q 13.234375 26.265625 9.515625 29.90625 
Q 5.8125 33.546875 5.8125 39.890625 
Q 5.8125 47.609375 11.28125 51.796875 
Q 16.75 56 26.8125 56 
Q 31.78125 56 36.171875 55.265625 
Q 40.578125 54.546875 44.28125 53.078125 
" id="BitstreamVeraSans-Roman-73"/>
      <path d="M 31 75.875 
Q 24.46875 64.65625 21.28125 53.65625 
Q 18.109375 42.671875 18.109375 31.390625 
Q 18.109375 20.125 21.3125 9.0625 
Q 24.515625 -2 31 -13.1875 
L 23.1875 -13.1875 
Q 15.875 -1.703125 12.234375 9.375 
Q 8.59375 20.453125 8.59375 31.390625 
Q 8.59375 42.28125 12.203125 53.3125 
Q 15.828125 64.359375 23.1875 75.875 
z
" id="BitstreamVeraSans-Roman-28"/>
     </defs>
     <g transform="translate(356.9334375 274.531875)scale(0.12 -0.12)">
      <use xlink:href="#BitstreamVeraSans-Roman-74"/>
      <use x="39.208984375" xlink:href="#BitstreamVeraSans-Roman-20"/>
      <use x="70.99609375" xlink:href="#BitstreamVeraSans-Roman-28"/>
      <use x="110.009765625" xlink:href="#BitstreamVeraSans-Roman-73"/>
      <use x="162.109375" xlink:href="#BitstreamVeraSans-Roman-29"/>
     </g>
    </g>
   </g>
   <g id="matplotlib.axis_2">
    <g id="ytick_1">
     <g id="line2d_17">
      <defs>
       <path d="M 0 0 
L 4 0 
" id="mf79b64e352" style="stroke:#000000;stroke-width:0.5;"/>
      </defs>
      <g>
       <use style="stroke:#000000;stroke-width:0.5;" x="90.0" xlink:href="#mf79b64e352" y="233.035693348"/>
      </g>
     </g>
     <g id="line2d_18">
      <defs>
       <path d="M 0 0 
L -4 0 
" id="m8e8007a87b" style="stroke:#000000;stroke-width:0.5;"/>
      </defs>
      <g>
       <use style="stroke:#000000;stroke-width:0.5;" x="648.0" xlink:href="#m8e8007a87b" y="233.035693348"/>
      </g>
     </g>
     <g id="text_8">
      <!-- 1000 -->
      <defs>
       <path d="M 10.59375 35.5 
L 73.1875 35.5 
L 73.1875 27.203125 
L 10.59375 27.203125 
z
" id="BitstreamVeraSans-Roman-2212"/>
      </defs>
      <g transform="translate(45.404375 236.346943348)scale(0.12 -0.12)">
       <use xlink:href="#BitstreamVeraSans-Roman-2212"/>
       <use x="83.7890625" xlink:href="#BitstreamVeraSans-Roman-31"/>
       <use x="147.412109375" xlink:href="#BitstreamVeraSans-Roman-30"/>
       <use x="211.03515625" xlink:href="#BitstreamVeraSans-Roman-30"/>
       <use x="274.658203125" xlink:href="#BitstreamVeraSans-Roman-30"/>
      </g>
     </g>
    </g>
    <g id="ytick_2">
     <g id="line2d_19">
      <g>
       <use style="stroke:#000000;stroke-width:0.5;" x="90.0" xlink:href="#mf79b64e352" y="184.917846674"/>
      </g>
     </g>
     <g id="line2d_20">
      <g>
       <use style="stroke:#000000;stroke-width:0.5;" x="648.0" xlink:href="#m8e8007a87b" y="184.917846674"/>
      </g>
     </g>
     <g id="text_9">
      <!-- 500 -->
      <defs>
       <path d="M 10.796875 72.90625 
L 49.515625 72.90625 
L 49.515625 64.59375 
L 19.828125 64.59375 
L 19.828125 46.734375 
Q 21.96875 47.46875 24.109375 47.828125 
Q 26.265625 48.1875 28.421875 48.1875 
Q 40.625 48.1875 47.75 41.5 
Q 54.890625 34.8125 54.890625 23.390625 
Q 54.890625 11.625 47.5625 5.09375 
Q 40.234375 -1.421875 26.90625 -1.421875 
Q 22.3125 -1.421875 17.546875 -0.640625 
Q 12.796875 0.140625 7.71875 1.703125 
L 7.71875 11.625 
Q 12.109375 9.234375 16.796875 8.0625 
Q 21.484375 6.890625 26.703125 6.890625 
Q 35.15625 6.890625 40.078125 11.328125 
Q 45.015625 15.765625 45.015625 23.390625 
Q 45.015625 31 40.078125 35.4375 
Q 35.15625 39.890625 26.703125 39.890625 
Q 22.75 39.890625 18.8125 39.015625 
Q 14.890625 38.140625 10.796875 36.28125 
z
" id="BitstreamVeraSans-Roman-35"/>
      </defs>
      <g transform="translate(53.039375 188.229096674)scale(0.12 -0.12)">
       <use xlink:href="#BitstreamVeraSans-Roman-2212"/>
       <use x="83.7890625" xlink:href="#BitstreamVeraSans-Roman-35"/>
       <use x="147.412109375" xlink:href="#BitstreamVeraSans-Roman-30"/>
       <use x="211.03515625" xlink:href="#BitstreamVeraSans-Roman-30"/>
      </g>
     </g>
    </g>
    <g id="ytick_3">
     <g id="line2d_21">
      <g>
       <use style="stroke:#000000;stroke-width:0.5;" x="90.0" xlink:href="#mf79b64e352" y="136.8"/>
      </g>
     </g>
     <g id="line2d_22">
      <g>
       <use style="stroke:#000000;stroke-width:0.5;" x="648.0" xlink:href="#m8e8007a87b" y="136.8"/>
      </g>
     </g>
     <g id="text_10">
      <!-- 0 -->
      <g transform="translate(78.365 140.11125)scale(0.12 -0.12)">
       <use xlink:href="#BitstreamVeraSans-Roman-30"/>
      </g>
     </g>
    </g>
    <g id="ytick_4">
     <g id="line2d_23">
      <g>
       <use style="stroke:#000000;stroke-width:0.5;" x="90.0" xlink:href="#mf79b64e352" y="88.6821533259"/>
      </g>
     </g>
     <g id="line2d_24">
      <g>
       <use style="stroke:#000000;stroke-width:0.5;" x="648.0" xlink:href="#m8e8007a87b" y="88.6821533259"/>
      </g>
     </g>
     <g id="text_11">
      <!-- 500 -->
      <g transform="translate(63.095 91.9934033259)scale(0.12 -0.12)">
       <use xlink:href="#BitstreamVeraSans-Roman-35"/>
       <use x="63.623046875" xlink:href="#BitstreamVeraSans-Roman-30"/>
       <use x="127.24609375" xlink:href="#BitstreamVeraSans-Roman-30"/>
      </g>
     </g>
    </g>
    <g id="ytick_5">
     <g id="line2d_25">
      <g>
       <use style="stroke:#000000;stroke-width:0.5;" x="90.0" xlink:href="#mf79b64e352" y="40.5643066517"/>
      </g>
     </g>
     <g id="line2d_26">
      <g>
       <use style="stroke:#000000;stroke-width:0.5;" x="648.0" xlink:href="#m8e8007a87b" y="40.5643066517"/>
      </g>
     </g>
     <g id="text_12">
      <!-- 1000 -->
      <g transform="translate(55.46 43.8755566517)scale(0.12 -0.12)">
       <use xlink:href="#BitstreamVeraSans-Roman-31"/>
       <use x="63.623046875" xlink:href="#BitstreamVeraSans-Roman-30"/>
       <use x="127.24609375" xlink:href="#BitstreamVeraSans-Roman-30"/>
       <use x="190.869140625" xlink:href="#BitstreamVeraSans-Roman-30"/>
      </g>
     </g>
    </g>
    <g id="text_13">
     <!-- Deviation (Arb. Units) -->
     <defs>
      <path d="M 54.890625 33.015625 
L 54.890625 0 
L 45.90625 0 
L 45.90625 32.71875 
Q 45.90625 40.484375 42.875 44.328125 
Q 39.84375 48.1875 33.796875 48.1875 
Q 26.515625 48.1875 22.3125 43.546875 
Q 18.109375 38.921875 18.109375 30.90625 
L 18.109375 0 
L 9.078125 0 
L 9.078125 54.6875 
L 18.109375 54.6875 
L 18.109375 46.1875 
Q 21.34375 51.125 25.703125 53.5625 
Q 30.078125 56 35.796875 56 
Q 45.21875 56 50.046875 50.171875 
Q 54.890625 44.34375 54.890625 33.015625 
" id="BitstreamVeraSans-Roman-6e"/>
      <path d="M 41.109375 46.296875 
Q 39.59375 47.171875 37.8125 47.578125 
Q 36.03125 48 33.890625 48 
Q 26.265625 48 22.1875 43.046875 
Q 18.109375 38.09375 18.109375 28.8125 
L 18.109375 0 
L 9.078125 0 
L 9.078125 54.6875 
L 18.109375 54.6875 
L 18.109375 46.1875 
Q 20.953125 51.171875 25.484375 53.578125 
Q 30.03125 56 36.53125 56 
Q 37.453125 56 38.578125 55.875 
Q 39.703125 55.765625 41.0625 55.515625 
z
" id="BitstreamVeraSans-Roman-72"/>
      <path d="M 30.609375 48.390625 
Q 23.390625 48.390625 19.1875 42.75 
Q 14.984375 37.109375 14.984375 27.296875 
Q 14.984375 17.484375 19.15625 11.84375 
Q 23.34375 6.203125 30.609375 6.203125 
Q 37.796875 6.203125 41.984375 11.859375 
Q 46.1875 17.53125 46.1875 27.296875 
Q 46.1875 37.015625 41.984375 42.703125 
Q 37.796875 48.390625 30.609375 48.390625 
M 30.609375 56 
Q 42.328125 56 49.015625 48.375 
Q 55.71875 40.765625 55.71875 27.296875 
Q 55.71875 13.875 49.015625 6.21875 
Q 42.328125 -1.421875 30.609375 -1.421875 
Q 18.84375 -1.421875 12.171875 6.21875 
Q 5.515625 13.875 5.515625 27.296875 
Q 5.515625 40.765625 12.171875 48.375 
Q 18.84375 56 30.609375 56 
" id="BitstreamVeraSans-Roman-6f"/>
      <path d="M 2.984375 54.6875 
L 12.5 54.6875 
L 29.59375 8.796875 
L 46.6875 54.6875 
L 56.203125 54.6875 
L 35.6875 0 
L 23.484375 0 
z
" id="BitstreamVeraSans-Roman-76"/>
      <path d="M 19.671875 64.796875 
L 19.671875 8.109375 
L 31.59375 8.109375 
Q 46.6875 8.109375 53.6875 14.9375 
Q 60.6875 21.78125 60.6875 36.53125 
Q 60.6875 51.171875 53.6875 57.984375 
Q 46.6875 64.796875 31.59375 64.796875 
z
M 9.8125 72.90625 
L 30.078125 72.90625 
Q 51.265625 72.90625 61.171875 64.09375 
Q 71.09375 55.28125 71.09375 36.53125 
Q 71.09375 17.671875 61.125 8.828125 
Q 51.171875 0 30.078125 0 
L 9.8125 0 
z
" id="BitstreamVeraSans-Roman-44"/>
      <path d="M 9.421875 54.6875 
L 18.40625 54.6875 
L 18.40625 0 
L 9.421875 0 
z
M 9.421875 75.984375 
L 18.40625 75.984375 
L 18.40625 64.59375 
L 9.421875 64.59375 
z
" id="BitstreamVeraSans-Roman-69"/>
      <path d="M 8.6875 72.90625 
L 18.609375 72.90625 
L 18.609375 28.609375 
Q 18.609375 16.890625 22.84375 11.734375 
Q 27.09375 6.59375 36.625 6.59375 
Q 46.09375 6.59375 50.34375 11.734375 
Q 54.59375 16.890625 54.59375 28.609375 
L 54.59375 72.90625 
L 64.5 72.90625 
L 64.5 27.390625 
Q 64.5 13.140625 57.4375 5.859375 
Q 50.390625 -1.421875 36.625 -1.421875 
Q 22.796875 -1.421875 15.734375 5.859375 
Q 8.6875 13.140625 8.6875 27.390625 
z
" id="BitstreamVeraSans-Roman-55"/>
      <path d="M 34.1875 63.1875 
L 20.796875 26.90625 
L 47.609375 26.90625 
z
M 28.609375 72.90625 
L 39.796875 72.90625 
L 67.578125 0 
L 57.328125 0 
L 50.6875 18.703125 
L 17.828125 18.703125 
L 11.1875 0 
L 0.78125 0 
z
" id="BitstreamVeraSans-Roman-41"/>
      <path d="M 56.203125 29.59375 
L 56.203125 25.203125 
L 14.890625 25.203125 
Q 15.484375 15.921875 20.484375 11.0625 
Q 25.484375 6.203125 34.421875 6.203125 
Q 39.59375 6.203125 44.453125 7.46875 
Q 49.3125 8.734375 54.109375 11.28125 
L 54.109375 2.78125 
Q 49.265625 0.734375 44.1875 -0.34375 
Q 39.109375 -1.421875 33.890625 -1.421875 
Q 20.796875 -1.421875 13.15625 6.1875 
Q 5.515625 13.8125 5.515625 26.8125 
Q 5.515625 40.234375 12.765625 48.109375 
Q 20.015625 56 32.328125 56 
Q 43.359375 56 49.78125 48.890625 
Q 56.203125 41.796875 56.203125 29.59375 
M 47.21875 32.234375 
Q 47.125 39.59375 43.09375 43.984375 
Q 39.0625 48.390625 32.421875 48.390625 
Q 24.90625 48.390625 20.390625 44.140625 
Q 15.875 39.890625 15.1875 32.171875 
z
" id="BitstreamVeraSans-Roman-65"/>
      <path d="M 10.6875 12.40625 
L 21 12.40625 
L 21 0 
L 10.6875 0 
z
" id="BitstreamVeraSans-Roman-2e"/>
      <path d="M 34.28125 27.484375 
Q 23.390625 27.484375 19.1875 25 
Q 14.984375 22.515625 14.984375 16.5 
Q 14.984375 11.71875 18.140625 8.90625 
Q 21.296875 6.109375 26.703125 6.109375 
Q 34.1875 6.109375 38.703125 11.40625 
Q 43.21875 16.703125 43.21875 25.484375 
L 43.21875 27.484375 
z
M 52.203125 31.203125 
L 52.203125 0 
L 43.21875 0 
L 43.21875 8.296875 
Q 40.140625 3.328125 35.546875 0.953125 
Q 30.953125 -1.421875 24.3125 -1.421875 
Q 15.921875 -1.421875 10.953125 3.296875 
Q 6 8.015625 6 15.921875 
Q 6 25.140625 12.171875 29.828125 
Q 18.359375 34.515625 30.609375 34.515625 
L 43.21875 34.515625 
L 43.21875 35.40625 
Q 43.21875 41.609375 39.140625 45 
Q 35.0625 48.390625 27.6875 48.390625 
Q 23 48.390625 18.546875 47.265625 
Q 14.109375 46.140625 10.015625 43.890625 
L 10.015625 52.203125 
Q 14.9375 54.109375 19.578125 55.046875 
Q 24.21875 56 28.609375 56 
Q 40.484375 56 46.34375 49.84375 
Q 52.203125 43.703125 52.203125 31.203125 
" id="BitstreamVeraSans-Roman-61"/>
      <path d="M 48.6875 27.296875 
Q 48.6875 37.203125 44.609375 42.84375 
Q 40.53125 48.484375 33.40625 48.484375 
Q 26.265625 48.484375 22.1875 42.84375 
Q 18.109375 37.203125 18.109375 27.296875 
Q 18.109375 17.390625 22.1875 11.75 
Q 26.265625 6.109375 33.40625 6.109375 
Q 40.53125 6.109375 44.609375 11.75 
Q 48.6875 17.390625 48.6875 27.296875 
M 18.109375 46.390625 
Q 20.953125 51.265625 25.265625 53.625 
Q 29.59375 56 35.59375 56 
Q 45.5625 56 51.78125 48.09375 
Q 58.015625 40.1875 58.015625 27.296875 
Q 58.015625 14.40625 51.78125 6.484375 
Q 45.5625 -1.421875 35.59375 -1.421875 
Q 29.59375 -1.421875 25.265625 0.953125 
Q 20.953125 3.328125 18.109375 8.203125 
L 18.109375 0 
L 9.078125 0 
L 9.078125 75.984375 
L 18.109375 75.984375 
z
" id="BitstreamVeraSans-Roman-62"/>
     </defs>
     <g transform="translate(37.90875 201.620625)rotate(-90.0)scale(0.12 -0.12)">
      <use xlink:href="#BitstreamVeraSans-Roman-44"/>
      <use x="77.001953125" xlink:href="#BitstreamVeraSans-Roman-65"/>
      <use x="138.525390625" xlink:href="#BitstreamVeraSans-Roman-76"/>
      <use x="197.705078125" xlink:href="#BitstreamVeraSans-Roman-69"/>
      <use x="225.48828125" xlink:href="#BitstreamVeraSans-Roman-61"/>
      <use x="286.767578125" xlink:href="#BitstreamVeraSans-Roman-74"/>
      <use x="325.9765625" xlink:href="#BitstreamVeraSans-Roman-69"/>
      <use x="353.759765625" xlink:href="#BitstreamVeraSans-Roman-6f"/>
      <use x="414.94140625" xlink:href="#BitstreamVeraSans-Roman-6e"/>
      <use x="478.3203125" xlink:href="#BitstreamVeraSans-Roman-20"/>
      <use x="510.107421875" xlink:href="#BitstreamVeraSans-Roman-28"/>
      <use x="549.12109375" xlink:href="#BitstreamVeraSans-Roman-41"/>
      <use x="617.529296875" xlink:href="#BitstreamVeraSans-Roman-72"/>
      <use x="658.642578125" xlink:href="#BitstreamVeraSans-Roman-62"/>
      <use x="722.119140625" xlink:href="#BitstreamVeraSans-Roman-2e"/>
      <use x="753.90625" xlink:href="#BitstreamVeraSans-Roman-20"/>
      <use x="785.693359375" xlink:href="#BitstreamVeraSans-Roman-55"/>
      <use x="858.88671875" xlink:href="#BitstreamVeraSans-Roman-6e"/>
      <use x="922.265625" xlink:href="#BitstreamVeraSans-Roman-69"/>
      <use x="950.048828125" xlink:href="#BitstreamVeraSans-Roman-74"/>
      <use x="989.2578125" xlink:href="#BitstreamVeraSans-Roman-73"/>
      <use x="1041.35742188" xlink:href="#BitstreamVeraSans-Roman-29"/>
     </g>
    </g>
   </g>
   <g id="text_14">
    <!-- PID -->
    <defs>
     <path d="M 19.671875 64.796875 
L 19.671875 37.40625 
L 32.078125 37.40625 
Q 38.96875 37.40625 42.71875 40.96875 
Q 46.484375 44.53125 46.484375 51.125 
Q 46.484375 57.671875 42.71875 61.234375 
Q 38.96875 64.796875 32.078125 64.796875 
z
M 9.8125 72.90625 
L 32.078125 72.90625 
Q 44.34375 72.90625 50.609375 67.359375 
Q 56.890625 61.8125 56.890625 51.125 
Q 56.890625 40.328125 50.609375 34.8125 
Q 44.34375 29.296875 32.078125 29.296875 
L 19.671875 29.296875 
L 19.671875 0 
L 9.8125 0 
z
" id="BitstreamVeraSans-Roman-50"/>
     <path d="M 9.8125 72.90625 
L 19.671875 72.90625 
L 19.671875 0 
L 9.8125 0 
z
" id="BitstreamVeraSans-Roman-49"/>
    </defs>
    <g transform="translate(356.990625 23.8)scale(0.144 -0.144)">
     <use xlink:href="#BitstreamVeraSans-Roman-50"/>
     <use x="60.302734375" xlink:href="#BitstreamVeraSans-Roman-49"/>
     <use x="89.794921875" xlink:href="#BitstreamVeraSans-Roman-44"/>
    </g>
   </g>
   <g id="legend_1">
    <g id="patch_7">
     <path d="M 94 93.9125 
L 208.89375 93.9125 
L 208.89375 32.8 
L 94 32.8 
z
" style="fill:#ffffff;stroke:#000000;stroke-linejoin:miter;"/>
    </g>
    <g id="line2d_27">
     <path d="M 99.6 39.27875 
L 110.8 39.27875 
" style="fill:none;stroke:#5b6fbd;stroke-linecap:square;"/>
    </g>
    <g id="line2d_28"/>
    <g id="text_15">
     <!-- Signal -->
     <defs>
      <path d="M 45.40625 27.984375 
Q 45.40625 37.75 41.375 43.109375 
Q 37.359375 48.484375 30.078125 48.484375 
Q 22.859375 48.484375 18.828125 43.109375 
Q 14.796875 37.75 14.796875 27.984375 
Q 14.796875 18.265625 18.828125 12.890625 
Q 22.859375 7.515625 30.078125 7.515625 
Q 37.359375 7.515625 41.375 12.890625 
Q 45.40625 18.265625 45.40625 27.984375 
M 54.390625 6.78125 
Q 54.390625 -7.171875 48.1875 -13.984375 
Q 42 -20.796875 29.203125 -20.796875 
Q 24.46875 -20.796875 20.265625 -20.09375 
Q 16.0625 -19.390625 12.109375 -17.921875 
L 12.109375 -9.1875 
Q 16.0625 -11.328125 19.921875 -12.34375 
Q 23.78125 -13.375 27.78125 -13.375 
Q 36.625 -13.375 41.015625 -8.765625 
Q 45.40625 -4.15625 45.40625 5.171875 
L 45.40625 9.625 
Q 42.625 4.78125 38.28125 2.390625 
Q 33.9375 0 27.875 0 
Q 17.828125 0 11.671875 7.65625 
Q 5.515625 15.328125 5.515625 27.984375 
Q 5.515625 40.671875 11.671875 48.328125 
Q 17.828125 56 27.875 56 
Q 33.9375 56 38.28125 53.609375 
Q 42.625 51.21875 45.40625 46.390625 
L 45.40625 54.6875 
L 54.390625 54.6875 
z
" id="BitstreamVeraSans-Roman-67"/>
      <path d="M 53.515625 70.515625 
L 53.515625 60.890625 
Q 47.90625 63.578125 42.921875 64.890625 
Q 37.9375 66.21875 33.296875 66.21875 
Q 25.25 66.21875 20.875 63.09375 
Q 16.5 59.96875 16.5 54.203125 
Q 16.5 49.359375 19.40625 46.890625 
Q 22.3125 44.4375 30.421875 42.921875 
L 36.375 41.703125 
Q 47.40625 39.59375 52.65625 34.296875 
Q 57.90625 29 57.90625 20.125 
Q 57.90625 9.515625 50.796875 4.046875 
Q 43.703125 -1.421875 29.984375 -1.421875 
Q 24.8125 -1.421875 18.96875 -0.25 
Q 13.140625 0.921875 6.890625 3.21875 
L 6.890625 13.375 
Q 12.890625 10.015625 18.65625 8.296875 
Q 24.421875 6.59375 29.984375 6.59375 
Q 38.421875 6.59375 43.015625 9.90625 
Q 47.609375 13.234375 47.609375 19.390625 
Q 47.609375 24.75 44.3125 27.78125 
Q 41.015625 30.8125 33.5 32.328125 
L 27.484375 33.5 
Q 16.453125 35.6875 11.515625 40.375 
Q 6.59375 45.0625 6.59375 53.421875 
Q 6.59375 63.09375 13.40625 68.65625 
Q 20.21875 74.21875 32.171875 74.21875 
Q 37.3125 74.21875 42.625 73.28125 
Q 47.953125 72.359375 53.515625 70.515625 
" id="BitstreamVeraSans-Roman-53"/>
      <path d="M 9.421875 75.984375 
L 18.40625 75.984375 
L 18.40625 0 
L 9.421875 0 
z
" id="BitstreamVeraSans-Roman-6c"/>
     </defs>
     <g transform="translate(119.6 42.07875)scale(0.08 -0.08)">
      <use xlink:href="#BitstreamVeraSans-Roman-53"/>
      <use x="63.4765625" xlink:href="#BitstreamVeraSans-Roman-69"/>
      <use x="91.259765625" xlink:href="#BitstreamVeraSans-Roman-67"/>
      <use x="154.736328125" xlink:href="#BitstreamVeraSans-Roman-6e"/>
      <use x="218.115234375" xlink:href="#BitstreamVeraSans-Roman-61"/>
      <use x="279.39453125" xlink:href="#BitstreamVeraSans-Roman-6c"/>
     </g>
    </g>
    <g id="line2d_29">
     <path d="M 99.6 51.02125 
L 110.8 51.02125 
" style="fill:none;stroke:#38c0ff;stroke-linecap:square;"/>
    </g>
    <g id="line2d_30"/>
    <g id="text_16">
     <!-- Proportional Kp = 0.5 -->
     <defs>
      <path d="M 10.59375 45.40625 
L 73.1875 45.40625 
L 73.1875 37.203125 
L 10.59375 37.203125 
z
M 10.59375 25.484375 
L 73.1875 25.484375 
L 73.1875 17.1875 
L 10.59375 17.1875 
z
" id="BitstreamVeraSans-Roman-3d"/>
      <path d="M 9.8125 72.90625 
L 19.671875 72.90625 
L 19.671875 42.09375 
L 52.390625 72.90625 
L 65.09375 72.90625 
L 28.90625 38.921875 
L 67.671875 0 
L 54.6875 0 
L 19.671875 35.109375 
L 19.671875 0 
L 9.8125 0 
z
" id="BitstreamVeraSans-Roman-4b"/>
      <path d="M 18.109375 8.203125 
L 18.109375 -20.796875 
L 9.078125 -20.796875 
L 9.078125 54.6875 
L 18.109375 54.6875 
L 18.109375 46.390625 
Q 20.953125 51.265625 25.265625 53.625 
Q 29.59375 56 35.59375 56 
Q 45.5625 56 51.78125 48.09375 
Q 58.015625 40.1875 58.015625 27.296875 
Q 58.015625 14.40625 51.78125 6.484375 
Q 45.5625 -1.421875 35.59375 -1.421875 
Q 29.59375 -1.421875 25.265625 0.953125 
Q 20.953125 3.328125 18.109375 8.203125 
M 48.6875 27.296875 
Q 48.6875 37.203125 44.609375 42.84375 
Q 40.53125 48.484375 33.40625 48.484375 
Q 26.265625 48.484375 22.1875 42.84375 
Q 18.109375 37.203125 18.109375 27.296875 
Q 18.109375 17.390625 22.1875 11.75 
Q 26.265625 6.109375 33.40625 6.109375 
Q 40.53125 6.109375 44.609375 11.75 
Q 48.6875 17.390625 48.6875 27.296875 
" id="BitstreamVeraSans-Roman-70"/>
     </defs>
     <g transform="translate(119.6 53.82125)scale(0.08 -0.08)">
      <use xlink:href="#BitstreamVeraSans-Roman-50"/>
      <use x="60.287109375" xlink:href="#BitstreamVeraSans-Roman-72"/>
      <use x="101.369140625" xlink:href="#BitstreamVeraSans-Roman-6f"/>
      <use x="162.55078125" xlink:href="#BitstreamVeraSans-Roman-70"/>
      <use x="226.02734375" xlink:href="#BitstreamVeraSans-Roman-6f"/>
      <use x="287.208984375" xlink:href="#BitstreamVeraSans-Roman-72"/>
      <use x="328.322265625" xlink:href="#BitstreamVeraSans-Roman-74"/>
      <use x="367.53125" xlink:href="#BitstreamVeraSans-Roman-69"/>
      <use x="395.314453125" xlink:href="#BitstreamVeraSans-Roman-6f"/>
      <use x="456.49609375" xlink:href="#BitstreamVeraSans-Roman-6e"/>
      <use x="519.875" xlink:href="#BitstreamVeraSans-Roman-61"/>
      <use x="581.154296875" xlink:href="#BitstreamVeraSans-Roman-6c"/>
      <use x="608.9375" xlink:href="#BitstreamVeraSans-Roman-20"/>
      <use x="640.724609375" xlink:href="#BitstreamVeraSans-Roman-4b"/>
      <use x="706.30078125" xlink:href="#BitstreamVeraSans-Roman-70"/>
      <use x="769.77734375" xlink:href="#BitstreamVeraSans-Roman-20"/>
      <use x="801.564453125" xlink:href="#BitstreamVeraSans-Roman-3d"/>
      <use x="885.353515625" xlink:href="#BitstreamVeraSans-Roman-20"/>
      <use x="917.140625" xlink:href="#BitstreamVeraSans-Roman-30"/>
      <use x="980.763671875" xlink:href="#BitstreamVeraSans-Roman-2e"/>
      <use x="1012.55078125" xlink:href="#BitstreamVeraSans-Roman-35"/>
     </g>
    </g>
    <g id="line2d_31">
     <path d="M 99.6 62.76375 
L 110.8 62.76375 
" style="fill:none;stroke:#ff0000;stroke-linecap:square;"/>
    </g>
    <g id="line2d_32"/>
    <g id="text_17">
     <!-- Integral Ki = 0.01 -->
     <g transform="translate(119.6 65.56375)scale(0.08 -0.08)">
      <use xlink:href="#BitstreamVeraSans-Roman-49"/>
      <use x="29.4921875" xlink:href="#BitstreamVeraSans-Roman-6e"/>
      <use x="92.87109375" xlink:href="#BitstreamVeraSans-Roman-74"/>
      <use x="132.080078125" xlink:href="#BitstreamVeraSans-Roman-65"/>
      <use x="193.603515625" xlink:href="#BitstreamVeraSans-Roman-67"/>
      <use x="257.080078125" xlink:href="#BitstreamVeraSans-Roman-72"/>
      <use x="298.193359375" xlink:href="#BitstreamVeraSans-Roman-61"/>
      <use x="359.47265625" xlink:href="#BitstreamVeraSans-Roman-6c"/>
      <use x="387.255859375" xlink:href="#BitstreamVeraSans-Roman-20"/>
      <use x="419.04296875" xlink:href="#BitstreamVeraSans-Roman-4b"/>
      <use x="484.619140625" xlink:href="#BitstreamVeraSans-Roman-69"/>
      <use x="512.40234375" xlink:href="#BitstreamVeraSans-Roman-20"/>
      <use x="544.189453125" xlink:href="#BitstreamVeraSans-Roman-3d"/>
      <use x="627.978515625" xlink:href="#BitstreamVeraSans-Roman-20"/>
      <use x="659.765625" xlink:href="#BitstreamVeraSans-Roman-30"/>
      <use x="723.388671875" xlink:href="#BitstreamVeraSans-Roman-2e"/>
      <use x="755.17578125" xlink:href="#BitstreamVeraSans-Roman-30"/>
      <use x="818.798828125" xlink:href="#BitstreamVeraSans-Roman-31"/>
     </g>
    </g>
    <g id="line2d_33">
     <path d="M 99.6 74.50625 
L 110.8 74.50625 
" style="fill:none;stroke:#ff9600;stroke-linecap:square;"/>
    </g>
    <g id="line2d_34"/>
    <g id="text_18">
     <!-- Derivitave Kd = 10 -->
     <defs>
      <path d="M 45.40625 46.390625 
L 45.40625 75.984375 
L 54.390625 75.984375 
L 54.390625 0 
L 45.40625 0 
L 45.40625 8.203125 
Q 42.578125 3.328125 38.25 0.953125 
Q 33.9375 -1.421875 27.875 -1.421875 
Q 17.96875 -1.421875 11.734375 6.484375 
Q 5.515625 14.40625 5.515625 27.296875 
Q 5.515625 40.1875 11.734375 48.09375 
Q 17.96875 56 27.875 56 
Q 33.9375 56 38.25 53.625 
Q 42.578125 51.265625 45.40625 46.390625 
M 14.796875 27.296875 
Q 14.796875 17.390625 18.875 11.75 
Q 22.953125 6.109375 30.078125 6.109375 
Q 37.203125 6.109375 41.296875 11.75 
Q 45.40625 17.390625 45.40625 27.296875 
Q 45.40625 37.203125 41.296875 42.84375 
Q 37.203125 48.484375 30.078125 48.484375 
Q 22.953125 48.484375 18.875 42.84375 
Q 14.796875 37.203125 14.796875 27.296875 
" id="BitstreamVeraSans-Roman-64"/>
     </defs>
     <g transform="translate(119.6 77.30625)scale(0.08 -0.08)">
      <use xlink:href="#BitstreamVeraSans-Roman-44"/>
      <use x="77.001953125" xlink:href="#BitstreamVeraSans-Roman-65"/>
      <use x="138.525390625" xlink:href="#BitstreamVeraSans-Roman-72"/>
      <use x="179.638671875" xlink:href="#BitstreamVeraSans-Roman-69"/>
      <use x="207.421875" xlink:href="#BitstreamVeraSans-Roman-76"/>
      <use x="266.6015625" xlink:href="#BitstreamVeraSans-Roman-69"/>
      <use x="294.384765625" xlink:href="#BitstreamVeraSans-Roman-74"/>
      <use x="333.59375" xlink:href="#BitstreamVeraSans-Roman-61"/>
      <use x="394.873046875" xlink:href="#BitstreamVeraSans-Roman-76"/>
      <use x="454.052734375" xlink:href="#BitstreamVeraSans-Roman-65"/>
      <use x="515.576171875" xlink:href="#BitstreamVeraSans-Roman-20"/>
      <use x="547.36328125" xlink:href="#BitstreamVeraSans-Roman-4b"/>
      <use x="612.939453125" xlink:href="#BitstreamVeraSans-Roman-64"/>
      <use x="676.416015625" xlink:href="#BitstreamVeraSans-Roman-20"/>
      <use x="708.203125" xlink:href="#BitstreamVeraSans-Roman-3d"/>
      <use x="791.9921875" xlink:href="#BitstreamVeraSans-Roman-20"/>
      <use x="823.779296875" xlink:href="#BitstreamVeraSans-Roman-31"/>
      <use x="887.40234375" xlink:href="#BitstreamVeraSans-Roman-30"/>
     </g>
    </g>
    <g id="patch_8">
     <path d="M 97.2 89.04875 
L 113.2 89.04875 
L 113.2 83.44875 
L 97.2 83.44875 
z
" style="fill:#bfd3ff;opacity:0.6;stroke:#bfd3ff;stroke-linejoin:miter;"/>
    </g>
    <g id="text_19">
     <!-- Error -->
     <defs>
      <path d="M 9.8125 72.90625 
L 55.90625 72.90625 
L 55.90625 64.59375 
L 19.671875 64.59375 
L 19.671875 43.015625 
L 54.390625 43.015625 
L 54.390625 34.71875 
L 19.671875 34.71875 
L 19.671875 8.296875 
L 56.78125 8.296875 
L 56.78125 0 
L 9.8125 0 
z
" id="BitstreamVeraSans-Roman-45"/>
     </defs>
     <g transform="translate(119.6 89.04875)scale(0.08 -0.08)">
      <use xlink:href="#BitstreamVeraSans-Roman-45"/>
      <use x="63.18359375" xlink:href="#BitstreamVeraSans-Roman-72"/>
      <use x="104.28125" xlink:href="#BitstreamVeraSans-Roman-72"/>
      <use x="145.36328125" xlink:href="#BitstreamVeraSans-Roman-6f"/>
      <use x="206.544921875" xlink:href="#BitstreamVeraSans-Roman-72"/>
     </g>
    </g>
   </g>
  </g>
 </g>
 <defs>
  <clipPath id="p20e879d69f">
   <rect height="216.0" width="558.0" x="90.0" y="28.8"/>
  </clipPath>
 </defs>
</svg>
