<?xml version="1.0" encoding="utf-8" standalone="no"?>
<!DOCTYPE svg PUBLIC "-//W3C//DTD SVG 1.1//EN"
  "http://www.w3.org/Graphics/SVG/1.1/DTD/svg11.dtd">
<!-- Created with matplotlib (http://matplotlib.org/) -->
<svg height="576pt" version="1.1" viewBox="0 0 720 576" width="720pt" xmlns="http://www.w3.org/2000/svg" xmlns:xlink="http://www.w3.org/1999/xlink">
 <defs>
  <style type="text/css">
*{stroke-linecap:butt;stroke-linejoin:round;stroke-miterlimit:100000;}
  </style>
 </defs>
 <g id="figure_1">
  <g id="patch_1">
   <path d="M 0 576 
L 720 576 
L 720 0 
L 0 0 
z
" style="fill:#ffffff;"/>
  </g>
  <g id="axes_1">
   <g id="patch_2">
    <path d="M 90 182.140541 
L 648 182.140541 
L 648 57.6 
L 90 57.6 
z
" style="fill:#ffffff;"/>
   </g>
   <g id="line2d_1">
    <path clip-path="url(#pa0af727c83)" d="M 90 160.230631 
L 648.27914 160.230631 
L 648.27914 160.230631 
" style="fill:none;stroke:#0000ff;stroke-linecap:square;"/>
   </g>
   <g id="line2d_2">
    <path clip-path="url(#pa0af727c83)" d="M 90 62.212613 
L 95.024512 62.212613 
L 95.582791 177.527928 
L 126.846423 177.527928 
L 127.404702 62.212613 
L 132.429215 62.212613 
L 132.987494 177.527928 
L 164.251126 177.527928 
L 164.809405 62.212613 
L 169.833917 62.212613 
L 170.392196 177.527928 
L 201.097549 177.527928 
L 201.655828 62.212613 
L 206.68034 62.212613 
L 207.238619 177.527928 
L 238.502251 177.527928 
L 239.06053 62.212613 
L 244.085043 62.212613 
L 244.643322 177.527928 
L 275.906953 177.527928 
L 276.465233 62.212613 
L 281.489745 62.212613 
L 282.048024 177.527928 
L 312.753377 177.527928 
L 313.311656 62.212613 
L 318.336168 62.212613 
L 318.894447 177.527928 
L 350.158079 177.527928 
L 350.716358 62.212613 
L 355.74087 62.212613 
L 356.29915 177.527928 
L 387.562781 177.527928 
L 388.121061 62.212613 
L 393.145573 62.212613 
L 393.703852 177.527928 
L 424.409205 177.527928 
L 424.967484 62.212613 
L 429.991996 62.212613 
L 430.550275 177.527928 
L 461.813907 177.527928 
L 462.372186 62.212613 
L 467.396698 62.212613 
L 467.954977 177.527928 
L 498.66033 177.527928 
L 499.218609 62.212613 
L 504.243122 62.212613 
L 504.801401 177.527928 
L 536.065033 177.527928 
L 536.623312 62.212613 
L 541.647824 62.212613 
L 542.206103 177.527928 
L 573.469735 177.527928 
L 574.028014 62.212613 
L 579.052526 62.212613 
L 579.610805 177.527928 
L 610.316158 177.527928 
L 610.874437 62.212613 
L 615.898949 62.212613 
L 616.457229 177.527928 
L 647.72086 177.527928 
L 648.27914 62.212613 
L 648.27914 62.212613 
" style="fill:none;stroke:#ff7500;stroke-linecap:square;"/>
   </g>
   <g id="patch_3">
    <path d="M 90 57.6 
L 648 57.6 
" style="fill:none;stroke:#000000;stroke-linecap:square;stroke-linejoin:miter;"/>
   </g>
   <g id="patch_4">
    <path d="M 648 182.140541 
L 648 57.6 
" style="fill:none;stroke:#000000;stroke-linecap:square;stroke-linejoin:miter;"/>
   </g>
   <g id="patch_5">
    <path d="M 90 182.140541 
L 648 182.140541 
" style="fill:none;stroke:#000000;stroke-linecap:square;stroke-linejoin:miter;"/>
   </g>
   <g id="patch_6">
    <path d="M 90 182.140541 
L 90 57.6 
" style="fill:none;stroke:#000000;stroke-linecap:square;stroke-linejoin:miter;"/>
   </g>
   <g id="matplotlib.axis_1">
    <g id="xtick_1">
     <g id="line2d_3">
      <defs>
       <path d="M 0 0 
L 0 -4 
" id="ma45ed3aae8" style="stroke:#000000;stroke-width:0.5;"/>
      </defs>
      <g>
       <use style="stroke:#000000;stroke-width:0.5;" x="90.0" xlink:href="#ma45ed3aae8" y="182.140540541"/>
      </g>
     </g>
     <g id="line2d_4">
      <defs>
       <path d="M 0 0 
L 0 4 
" id="m4894b0f678" style="stroke:#000000;stroke-width:0.5;"/>
      </defs>
      <g>
       <use style="stroke:#000000;stroke-width:0.5;" x="90.0" xlink:href="#m4894b0f678" y="57.6"/>
      </g>
     </g>
     <g id="text_1">
      <!-- 0.0 -->
      <defs>
       <path d="M 31.78125 66.40625 
Q 24.171875 66.40625 20.328125 58.90625 
Q 16.5 51.421875 16.5 36.375 
Q 16.5 21.390625 20.328125 13.890625 
Q 24.171875 6.390625 31.78125 6.390625 
Q 39.453125 6.390625 43.28125 13.890625 
Q 47.125 21.390625 47.125 36.375 
Q 47.125 51.421875 43.28125 58.90625 
Q 39.453125 66.40625 31.78125 66.40625 
M 31.78125 74.21875 
Q 44.046875 74.21875 50.515625 64.515625 
Q 56.984375 54.828125 56.984375 36.375 
Q 56.984375 17.96875 50.515625 8.265625 
Q 44.046875 -1.421875 31.78125 -1.421875 
Q 19.53125 -1.421875 13.0625 8.265625 
Q 6.59375 17.96875 6.59375 36.375 
Q 6.59375 54.828125 13.0625 64.515625 
Q 19.53125 74.21875 31.78125 74.21875 
" id="BitstreamVeraSans-Roman-30"/>
       <path d="M 10.6875 12.40625 
L 21 12.40625 
L 21 0 
L 10.6875 0 
z
" id="BitstreamVeraSans-Roman-2e"/>
      </defs>
      <g transform="translate(80.458125 195.258665541)scale(0.12 -0.12)">
       <use xlink:href="#BitstreamVeraSans-Roman-30"/>
       <use x="63.623046875" xlink:href="#BitstreamVeraSans-Roman-2e"/>
       <use x="95.41015625" xlink:href="#BitstreamVeraSans-Roman-30"/>
      </g>
     </g>
    </g>
    <g id="xtick_2">
     <g id="line2d_5">
      <g>
       <use style="stroke:#000000;stroke-width:0.5;" x="201.6" xlink:href="#ma45ed3aae8" y="182.140540541"/>
      </g>
     </g>
     <g id="line2d_6">
      <g>
       <use style="stroke:#000000;stroke-width:0.5;" x="201.6" xlink:href="#m4894b0f678" y="57.6"/>
      </g>
     </g>
     <g id="text_2">
      <!-- 0.1 -->
      <defs>
       <path d="M 12.40625 8.296875 
L 28.515625 8.296875 
L 28.515625 63.921875 
L 10.984375 60.40625 
L 10.984375 69.390625 
L 28.421875 72.90625 
L 38.28125 72.90625 
L 38.28125 8.296875 
L 54.390625 8.296875 
L 54.390625 0 
L 12.40625 0 
z
" id="BitstreamVeraSans-Roman-31"/>
      </defs>
      <g transform="translate(192.058125 195.258665541)scale(0.12 -0.12)">
       <use xlink:href="#BitstreamVeraSans-Roman-30"/>
       <use x="63.623046875" xlink:href="#BitstreamVeraSans-Roman-2e"/>
       <use x="95.41015625" xlink:href="#BitstreamVeraSans-Roman-31"/>
      </g>
     </g>
    </g>
    <g id="xtick_3">
     <g id="line2d_7">
      <g>
       <use style="stroke:#000000;stroke-width:0.5;" x="313.2" xlink:href="#ma45ed3aae8" y="182.140540541"/>
      </g>
     </g>
     <g id="line2d_8">
      <g>
       <use style="stroke:#000000;stroke-width:0.5;" x="313.2" xlink:href="#m4894b0f678" y="57.6"/>
      </g>
     </g>
     <g id="text_3">
      <!-- 0.2 -->
      <defs>
       <path d="M 19.1875 8.296875 
L 53.609375 8.296875 
L 53.609375 0 
L 7.328125 0 
L 7.328125 8.296875 
Q 12.9375 14.109375 22.625 23.890625 
Q 32.328125 33.6875 34.8125 36.53125 
Q 39.546875 41.84375 41.421875 45.53125 
Q 43.3125 49.21875 43.3125 52.78125 
Q 43.3125 58.59375 39.234375 62.25 
Q 35.15625 65.921875 28.609375 65.921875 
Q 23.96875 65.921875 18.8125 64.3125 
Q 13.671875 62.703125 7.8125 59.421875 
L 7.8125 69.390625 
Q 13.765625 71.78125 18.9375 73 
Q 24.125 74.21875 28.421875 74.21875 
Q 39.75 74.21875 46.484375 68.546875 
Q 53.21875 62.890625 53.21875 53.421875 
Q 53.21875 48.921875 51.53125 44.890625 
Q 49.859375 40.875 45.40625 35.40625 
Q 44.1875 33.984375 37.640625 27.21875 
Q 31.109375 20.453125 19.1875 8.296875 
" id="BitstreamVeraSans-Roman-32"/>
      </defs>
      <g transform="translate(303.658125 195.258665541)scale(0.12 -0.12)">
       <use xlink:href="#BitstreamVeraSans-Roman-30"/>
       <use x="63.623046875" xlink:href="#BitstreamVeraSans-Roman-2e"/>
       <use x="95.41015625" xlink:href="#BitstreamVeraSans-Roman-32"/>
      </g>
     </g>
    </g>
    <g id="xtick_4">
     <g id="line2d_9">
      <g>
       <use style="stroke:#000000;stroke-width:0.5;" x="424.8" xlink:href="#ma45ed3aae8" y="182.140540541"/>
      </g>
     </g>
     <g id="line2d_10">
      <g>
       <use style="stroke:#000000;stroke-width:0.5;" x="424.8" xlink:href="#m4894b0f678" y="57.6"/>
      </g>
     </g>
     <g id="text_4">
      <!-- 0.3 -->
      <defs>
       <path d="M 40.578125 39.3125 
Q 47.65625 37.796875 51.625 33 
Q 55.609375 28.21875 55.609375 21.1875 
Q 55.609375 10.40625 48.1875 4.484375 
Q 40.765625 -1.421875 27.09375 -1.421875 
Q 22.515625 -1.421875 17.65625 -0.515625 
Q 12.796875 0.390625 7.625 2.203125 
L 7.625 11.71875 
Q 11.71875 9.328125 16.59375 8.109375 
Q 21.484375 6.890625 26.8125 6.890625 
Q 36.078125 6.890625 40.9375 10.546875 
Q 45.796875 14.203125 45.796875 21.1875 
Q 45.796875 27.640625 41.28125 31.265625 
Q 36.765625 34.90625 28.71875 34.90625 
L 20.21875 34.90625 
L 20.21875 43.015625 
L 29.109375 43.015625 
Q 36.375 43.015625 40.234375 45.921875 
Q 44.09375 48.828125 44.09375 54.296875 
Q 44.09375 59.90625 40.109375 62.90625 
Q 36.140625 65.921875 28.71875 65.921875 
Q 24.65625 65.921875 20.015625 65.03125 
Q 15.375 64.15625 9.8125 62.3125 
L 9.8125 71.09375 
Q 15.4375 72.65625 20.34375 73.4375 
Q 25.25 74.21875 29.59375 74.21875 
Q 40.828125 74.21875 47.359375 69.109375 
Q 53.90625 64.015625 53.90625 55.328125 
Q 53.90625 49.265625 50.4375 45.09375 
Q 46.96875 40.921875 40.578125 39.3125 
" id="BitstreamVeraSans-Roman-33"/>
      </defs>
      <g transform="translate(415.258125 195.258665541)scale(0.12 -0.12)">
       <use xlink:href="#BitstreamVeraSans-Roman-30"/>
       <use x="63.623046875" xlink:href="#BitstreamVeraSans-Roman-2e"/>
       <use x="95.41015625" xlink:href="#BitstreamVeraSans-Roman-33"/>
      </g>
     </g>
    </g>
    <g id="xtick_5">
     <g id="line2d_11">
      <g>
       <use style="stroke:#000000;stroke-width:0.5;" x="536.4" xlink:href="#ma45ed3aae8" y="182.140540541"/>
      </g>
     </g>
     <g id="line2d_12">
      <g>
       <use style="stroke:#000000;stroke-width:0.5;" x="536.4" xlink:href="#m4894b0f678" y="57.6"/>
      </g>
     </g>
     <g id="text_5">
      <!-- 0.4 -->
      <defs>
       <path d="M 37.796875 64.3125 
L 12.890625 25.390625 
L 37.796875 25.390625 
z
M 35.203125 72.90625 
L 47.609375 72.90625 
L 47.609375 25.390625 
L 58.015625 25.390625 
L 58.015625 17.1875 
L 47.609375 17.1875 
L 47.609375 0 
L 37.796875 0 
L 37.796875 17.1875 
L 4.890625 17.1875 
L 4.890625 26.703125 
z
" id="BitstreamVeraSans-Roman-34"/>
      </defs>
      <g transform="translate(526.858125 195.258665541)scale(0.12 -0.12)">
       <use xlink:href="#BitstreamVeraSans-Roman-30"/>
       <use x="63.623046875" xlink:href="#BitstreamVeraSans-Roman-2e"/>
       <use x="95.41015625" xlink:href="#BitstreamVeraSans-Roman-34"/>
      </g>
     </g>
    </g>
    <g id="xtick_6">
     <g id="line2d_13">
      <g>
       <use style="stroke:#000000;stroke-width:0.5;" x="648.0" xlink:href="#ma45ed3aae8" y="182.140540541"/>
      </g>
     </g>
     <g id="line2d_14">
      <g>
       <use style="stroke:#000000;stroke-width:0.5;" x="648.0" xlink:href="#m4894b0f678" y="57.6"/>
      </g>
     </g>
     <g id="text_6">
      <!-- 0.5 -->
      <defs>
       <path d="M 10.796875 72.90625 
L 49.515625 72.90625 
L 49.515625 64.59375 
L 19.828125 64.59375 
L 19.828125 46.734375 
Q 21.96875 47.46875 24.109375 47.828125 
Q 26.265625 48.1875 28.421875 48.1875 
Q 40.625 48.1875 47.75 41.5 
Q 54.890625 34.8125 54.890625 23.390625 
Q 54.890625 11.625 47.5625 5.09375 
Q 40.234375 -1.421875 26.90625 -1.421875 
Q 22.3125 -1.421875 17.546875 -0.640625 
Q 12.796875 0.140625 7.71875 1.703125 
L 7.71875 11.625 
Q 12.109375 9.234375 16.796875 8.0625 
Q 21.484375 6.890625 26.703125 6.890625 
Q 35.15625 6.890625 40.078125 11.328125 
Q 45.015625 15.765625 45.015625 23.390625 
Q 45.015625 31 40.078125 35.4375 
Q 35.15625 39.890625 26.703125 39.890625 
Q 22.75 39.890625 18.8125 39.015625 
Q 14.890625 38.140625 10.796875 36.28125 
z
" id="BitstreamVeraSans-Roman-35"/>
      </defs>
      <g transform="translate(638.458125 195.258665541)scale(0.12 -0.12)">
       <use xlink:href="#BitstreamVeraSans-Roman-30"/>
       <use x="63.623046875" xlink:href="#BitstreamVeraSans-Roman-2e"/>
       <use x="95.41015625" xlink:href="#BitstreamVeraSans-Roman-35"/>
      </g>
     </g>
    </g>
   </g>
   <g id="matplotlib.axis_2">
    <g id="ytick_1">
     <g id="line2d_15">
      <defs>
       <path d="M 0 0 
L 4 0 
" id="md084260843" style="stroke:#000000;stroke-width:0.5;"/>
      </defs>
      <g>
       <use style="stroke:#000000;stroke-width:0.5;" x="90.0" xlink:href="#md084260843" y="177.527927928"/>
      </g>
     </g>
     <g id="line2d_16">
      <defs>
       <path d="M 0 0 
L -4 0 
" id="me31d87a30e" style="stroke:#000000;stroke-width:0.5;"/>
      </defs>
      <g>
       <use style="stroke:#000000;stroke-width:0.5;" x="648.0" xlink:href="#me31d87a30e" y="177.527927928"/>
      </g>
     </g>
     <g id="text_7">
      <!-- 0 -->
      <g transform="translate(78.365 180.839177928)scale(0.12 -0.12)">
       <use xlink:href="#BitstreamVeraSans-Roman-30"/>
      </g>
     </g>
    </g>
    <g id="ytick_2">
     <g id="line2d_17">
      <g>
       <use style="stroke:#000000;stroke-width:0.5;" x="90.0" xlink:href="#md084260843" y="154.464864865"/>
      </g>
     </g>
     <g id="line2d_18">
      <g>
       <use style="stroke:#000000;stroke-width:0.5;" x="648.0" xlink:href="#me31d87a30e" y="154.464864865"/>
      </g>
     </g>
     <g id="text_8">
      <!-- 1 -->
      <g transform="translate(78.365 157.776114865)scale(0.12 -0.12)">
       <use xlink:href="#BitstreamVeraSans-Roman-31"/>
      </g>
     </g>
    </g>
    <g id="ytick_3">
     <g id="line2d_19">
      <g>
       <use style="stroke:#000000;stroke-width:0.5;" x="90.0" xlink:href="#md084260843" y="131.401801802"/>
      </g>
     </g>
     <g id="line2d_20">
      <g>
       <use style="stroke:#000000;stroke-width:0.5;" x="648.0" xlink:href="#me31d87a30e" y="131.401801802"/>
      </g>
     </g>
     <g id="text_9">
      <!-- 2 -->
      <g transform="translate(78.365 134.713051802)scale(0.12 -0.12)">
       <use xlink:href="#BitstreamVeraSans-Roman-32"/>
      </g>
     </g>
    </g>
    <g id="ytick_4">
     <g id="line2d_21">
      <g>
       <use style="stroke:#000000;stroke-width:0.5;" x="90.0" xlink:href="#md084260843" y="108.338738739"/>
      </g>
     </g>
     <g id="line2d_22">
      <g>
       <use style="stroke:#000000;stroke-width:0.5;" x="648.0" xlink:href="#me31d87a30e" y="108.338738739"/>
      </g>
     </g>
     <g id="text_10">
      <!-- 3 -->
      <g transform="translate(78.365 111.649988739)scale(0.12 -0.12)">
       <use xlink:href="#BitstreamVeraSans-Roman-33"/>
      </g>
     </g>
    </g>
    <g id="ytick_5">
     <g id="line2d_23">
      <g>
       <use style="stroke:#000000;stroke-width:0.5;" x="90.0" xlink:href="#md084260843" y="85.2756756757"/>
      </g>
     </g>
     <g id="line2d_24">
      <g>
       <use style="stroke:#000000;stroke-width:0.5;" x="648.0" xlink:href="#me31d87a30e" y="85.2756756757"/>
      </g>
     </g>
     <g id="text_11">
      <!-- 4 -->
      <g transform="translate(78.365 88.5869256757)scale(0.12 -0.12)">
       <use xlink:href="#BitstreamVeraSans-Roman-34"/>
      </g>
     </g>
    </g>
    <g id="ytick_6">
     <g id="line2d_25">
      <g>
       <use style="stroke:#000000;stroke-width:0.5;" x="90.0" xlink:href="#md084260843" y="62.2126126126"/>
      </g>
     </g>
     <g id="line2d_26">
      <g>
       <use style="stroke:#000000;stroke-width:0.5;" x="648.0" xlink:href="#me31d87a30e" y="62.2126126126"/>
      </g>
     </g>
     <g id="text_12">
      <!-- 5 -->
      <g transform="translate(78.365 65.5238626126)scale(0.12 -0.12)">
       <use xlink:href="#BitstreamVeraSans-Roman-35"/>
      </g>
     </g>
    </g>
    <g id="text_13">
     <!-- Voltage (V) -->
     <defs>
      <path id="BitstreamVeraSans-Roman-20"/>
      <path d="M 8.015625 75.875 
L 15.828125 75.875 
Q 23.140625 64.359375 26.78125 53.3125 
Q 30.421875 42.28125 30.421875 31.390625 
Q 30.421875 20.453125 26.78125 9.375 
Q 23.140625 -1.703125 15.828125 -13.1875 
L 8.015625 -13.1875 
Q 14.5 -2 17.703125 9.0625 
Q 20.90625 20.125 20.90625 31.390625 
Q 20.90625 42.671875 17.703125 53.65625 
Q 14.5 64.65625 8.015625 75.875 
" id="BitstreamVeraSans-Roman-29"/>
      <path d="M 31 75.875 
Q 24.46875 64.65625 21.28125 53.65625 
Q 18.109375 42.671875 18.109375 31.390625 
Q 18.109375 20.125 21.3125 9.0625 
Q 24.515625 -2 31 -13.1875 
L 23.1875 -13.1875 
Q 15.875 -1.703125 12.234375 9.375 
Q 8.59375 20.453125 8.59375 31.390625 
Q 8.59375 42.28125 12.203125 53.3125 
Q 15.828125 64.359375 23.1875 75.875 
z
" id="BitstreamVeraSans-Roman-28"/>
      <path d="M 30.609375 48.390625 
Q 23.390625 48.390625 19.1875 42.75 
Q 14.984375 37.109375 14.984375 27.296875 
Q 14.984375 17.484375 19.15625 11.84375 
Q 23.34375 6.203125 30.609375 6.203125 
Q 37.796875 6.203125 41.984375 11.859375 
Q 46.1875 17.53125 46.1875 27.296875 
Q 46.1875 37.015625 41.984375 42.703125 
Q 37.796875 48.390625 30.609375 48.390625 
M 30.609375 56 
Q 42.328125 56 49.015625 48.375 
Q 55.71875 40.765625 55.71875 27.296875 
Q 55.71875 13.875 49.015625 6.21875 
Q 42.328125 -1.421875 30.609375 -1.421875 
Q 18.84375 -1.421875 12.171875 6.21875 
Q 5.515625 13.875 5.515625 27.296875 
Q 5.515625 40.765625 12.171875 48.375 
Q 18.84375 56 30.609375 56 
" id="BitstreamVeraSans-Roman-6f"/>
      <path d="M 9.421875 75.984375 
L 18.40625 75.984375 
L 18.40625 0 
L 9.421875 0 
z
" id="BitstreamVeraSans-Roman-6c"/>
      <path d="M 28.609375 0 
L 0.78125 72.90625 
L 11.078125 72.90625 
L 34.1875 11.53125 
L 57.328125 72.90625 
L 67.578125 72.90625 
L 39.796875 0 
z
" id="BitstreamVeraSans-Roman-56"/>
      <path d="M 56.203125 29.59375 
L 56.203125 25.203125 
L 14.890625 25.203125 
Q 15.484375 15.921875 20.484375 11.0625 
Q 25.484375 6.203125 34.421875 6.203125 
Q 39.59375 6.203125 44.453125 7.46875 
Q 49.3125 8.734375 54.109375 11.28125 
L 54.109375 2.78125 
Q 49.265625 0.734375 44.1875 -0.34375 
Q 39.109375 -1.421875 33.890625 -1.421875 
Q 20.796875 -1.421875 13.15625 6.1875 
Q 5.515625 13.8125 5.515625 26.8125 
Q 5.515625 40.234375 12.765625 48.109375 
Q 20.015625 56 32.328125 56 
Q 43.359375 56 49.78125 48.890625 
Q 56.203125 41.796875 56.203125 29.59375 
M 47.21875 32.234375 
Q 47.125 39.59375 43.09375 43.984375 
Q 39.0625 48.390625 32.421875 48.390625 
Q 24.90625 48.390625 20.390625 44.140625 
Q 15.875 39.890625 15.1875 32.171875 
z
" id="BitstreamVeraSans-Roman-65"/>
      <path d="M 45.40625 27.984375 
Q 45.40625 37.75 41.375 43.109375 
Q 37.359375 48.484375 30.078125 48.484375 
Q 22.859375 48.484375 18.828125 43.109375 
Q 14.796875 37.75 14.796875 27.984375 
Q 14.796875 18.265625 18.828125 12.890625 
Q 22.859375 7.515625 30.078125 7.515625 
Q 37.359375 7.515625 41.375 12.890625 
Q 45.40625 18.265625 45.40625 27.984375 
M 54.390625 6.78125 
Q 54.390625 -7.171875 48.1875 -13.984375 
Q 42 -20.796875 29.203125 -20.796875 
Q 24.46875 -20.796875 20.265625 -20.09375 
Q 16.0625 -19.390625 12.109375 -17.921875 
L 12.109375 -9.1875 
Q 16.0625 -11.328125 19.921875 -12.34375 
Q 23.78125 -13.375 27.78125 -13.375 
Q 36.625 -13.375 41.015625 -8.765625 
Q 45.40625 -4.15625 45.40625 5.171875 
L 45.40625 9.625 
Q 42.625 4.78125 38.28125 2.390625 
Q 33.9375 0 27.875 0 
Q 17.828125 0 11.671875 7.65625 
Q 5.515625 15.328125 5.515625 27.984375 
Q 5.515625 40.671875 11.671875 48.328125 
Q 17.828125 56 27.875 56 
Q 33.9375 56 38.28125 53.609375 
Q 42.625 51.21875 45.40625 46.390625 
L 45.40625 54.6875 
L 54.390625 54.6875 
z
" id="BitstreamVeraSans-Roman-67"/>
      <path d="M 34.28125 27.484375 
Q 23.390625 27.484375 19.1875 25 
Q 14.984375 22.515625 14.984375 16.5 
Q 14.984375 11.71875 18.140625 8.90625 
Q 21.296875 6.109375 26.703125 6.109375 
Q 34.1875 6.109375 38.703125 11.40625 
Q 43.21875 16.703125 43.21875 25.484375 
L 43.21875 27.484375 
z
M 52.203125 31.203125 
L 52.203125 0 
L 43.21875 0 
L 43.21875 8.296875 
Q 40.140625 3.328125 35.546875 0.953125 
Q 30.953125 -1.421875 24.3125 -1.421875 
Q 15.921875 -1.421875 10.953125 3.296875 
Q 6 8.015625 6 15.921875 
Q 6 25.140625 12.171875 29.828125 
Q 18.359375 34.515625 30.609375 34.515625 
L 43.21875 34.515625 
L 43.21875 35.40625 
Q 43.21875 41.609375 39.140625 45 
Q 35.0625 48.390625 27.6875 48.390625 
Q 23 48.390625 18.546875 47.265625 
Q 14.109375 46.140625 10.015625 43.890625 
L 10.015625 52.203125 
Q 14.9375 54.109375 19.578125 55.046875 
Q 24.21875 56 28.609375 56 
Q 40.484375 56 46.34375 49.84375 
Q 52.203125 43.703125 52.203125 31.203125 
" id="BitstreamVeraSans-Roman-61"/>
      <path d="M 18.3125 70.21875 
L 18.3125 54.6875 
L 36.8125 54.6875 
L 36.8125 47.703125 
L 18.3125 47.703125 
L 18.3125 18.015625 
Q 18.3125 11.328125 20.140625 9.421875 
Q 21.96875 7.515625 27.59375 7.515625 
L 36.8125 7.515625 
L 36.8125 0 
L 27.59375 0 
Q 17.1875 0 13.234375 3.875 
Q 9.28125 7.765625 9.28125 18.015625 
L 9.28125 47.703125 
L 2.6875 47.703125 
L 2.6875 54.6875 
L 9.28125 54.6875 
L 9.28125 70.21875 
z
" id="BitstreamVeraSans-Roman-74"/>
     </defs>
     <g transform="translate(70.869375 153.52933277)rotate(-90.0)scale(0.12 -0.12)">
      <use xlink:href="#BitstreamVeraSans-Roman-56"/>
      <use x="68.298828125" xlink:href="#BitstreamVeraSans-Roman-6f"/>
      <use x="129.48046875" xlink:href="#BitstreamVeraSans-Roman-6c"/>
      <use x="157.263671875" xlink:href="#BitstreamVeraSans-Roman-74"/>
      <use x="196.47265625" xlink:href="#BitstreamVeraSans-Roman-61"/>
      <use x="257.751953125" xlink:href="#BitstreamVeraSans-Roman-67"/>
      <use x="321.228515625" xlink:href="#BitstreamVeraSans-Roman-65"/>
      <use x="382.751953125" xlink:href="#BitstreamVeraSans-Roman-20"/>
      <use x="414.5390625" xlink:href="#BitstreamVeraSans-Roman-28"/>
      <use x="453.552734375" xlink:href="#BitstreamVeraSans-Roman-56"/>
      <use x="521.9609375" xlink:href="#BitstreamVeraSans-Roman-29"/>
     </g>
    </g>
   </g>
   <g id="text_14">
    <!-- 15% Duty Cycle -->
    <defs>
     <path d="M 72.703125 32.078125 
Q 68.453125 32.078125 66.03125 28.46875 
Q 63.625 24.859375 63.625 18.40625 
Q 63.625 12.0625 66.03125 8.421875 
Q 68.453125 4.78125 72.703125 4.78125 
Q 76.859375 4.78125 79.265625 8.421875 
Q 81.6875 12.0625 81.6875 18.40625 
Q 81.6875 24.8125 79.265625 28.4375 
Q 76.859375 32.078125 72.703125 32.078125 
M 72.703125 38.28125 
Q 80.421875 38.28125 84.953125 32.90625 
Q 89.5 27.546875 89.5 18.40625 
Q 89.5 9.28125 84.9375 3.921875 
Q 80.375 -1.421875 72.703125 -1.421875 
Q 64.890625 -1.421875 60.34375 3.921875 
Q 55.8125 9.28125 55.8125 18.40625 
Q 55.8125 27.59375 60.375 32.9375 
Q 64.9375 38.28125 72.703125 38.28125 
M 22.3125 68.015625 
Q 18.109375 68.015625 15.6875 64.375 
Q 13.28125 60.75 13.28125 54.390625 
Q 13.28125 47.953125 15.671875 44.328125 
Q 18.0625 40.71875 22.3125 40.71875 
Q 26.5625 40.71875 28.96875 44.328125 
Q 31.390625 47.953125 31.390625 54.390625 
Q 31.390625 60.6875 28.953125 64.34375 
Q 26.515625 68.015625 22.3125 68.015625 
M 66.40625 74.21875 
L 74.21875 74.21875 
L 28.609375 -1.421875 
L 20.796875 -1.421875 
z
M 22.3125 74.21875 
Q 30.03125 74.21875 34.609375 68.875 
Q 39.203125 63.53125 39.203125 54.390625 
Q 39.203125 45.171875 34.640625 39.84375 
Q 30.078125 34.515625 22.3125 34.515625 
Q 14.546875 34.515625 10.03125 39.859375 
Q 5.515625 45.21875 5.515625 54.390625 
Q 5.515625 63.484375 10.046875 68.84375 
Q 14.59375 74.21875 22.3125 74.21875 
" id="BitstreamVeraSans-Roman-25"/>
     <path d="M 19.671875 64.796875 
L 19.671875 8.109375 
L 31.59375 8.109375 
Q 46.6875 8.109375 53.6875 14.9375 
Q 60.6875 21.78125 60.6875 36.53125 
Q 60.6875 51.171875 53.6875 57.984375 
Q 46.6875 64.796875 31.59375 64.796875 
z
M 9.8125 72.90625 
L 30.078125 72.90625 
Q 51.265625 72.90625 61.171875 64.09375 
Q 71.09375 55.28125 71.09375 36.53125 
Q 71.09375 17.671875 61.125 8.828125 
Q 51.171875 0 30.078125 0 
L 9.8125 0 
z
" id="BitstreamVeraSans-Roman-44"/>
     <path d="M 64.40625 67.28125 
L 64.40625 56.890625 
Q 59.421875 61.53125 53.78125 63.8125 
Q 48.140625 66.109375 41.796875 66.109375 
Q 29.296875 66.109375 22.65625 58.46875 
Q 16.015625 50.828125 16.015625 36.375 
Q 16.015625 21.96875 22.65625 14.328125 
Q 29.296875 6.6875 41.796875 6.6875 
Q 48.140625 6.6875 53.78125 8.984375 
Q 59.421875 11.28125 64.40625 15.921875 
L 64.40625 5.609375 
Q 59.234375 2.09375 53.4375 0.328125 
Q 47.65625 -1.421875 41.21875 -1.421875 
Q 24.65625 -1.421875 15.125 8.703125 
Q 5.609375 18.84375 5.609375 36.375 
Q 5.609375 53.953125 15.125 64.078125 
Q 24.65625 74.21875 41.21875 74.21875 
Q 47.75 74.21875 53.53125 72.484375 
Q 59.328125 70.75 64.40625 67.28125 
" id="BitstreamVeraSans-Roman-43"/>
     <path d="M 32.171875 -5.078125 
Q 28.375 -14.84375 24.75 -17.8125 
Q 21.140625 -20.796875 15.09375 -20.796875 
L 7.90625 -20.796875 
L 7.90625 -13.28125 
L 13.1875 -13.28125 
Q 16.890625 -13.28125 18.9375 -11.515625 
Q 21 -9.765625 23.484375 -3.21875 
L 25.09375 0.875 
L 2.984375 54.6875 
L 12.5 54.6875 
L 29.59375 11.921875 
L 46.6875 54.6875 
L 56.203125 54.6875 
z
" id="BitstreamVeraSans-Roman-79"/>
     <path d="M 8.5 21.578125 
L 8.5 54.6875 
L 17.484375 54.6875 
L 17.484375 21.921875 
Q 17.484375 14.15625 20.5 10.265625 
Q 23.53125 6.390625 29.59375 6.390625 
Q 36.859375 6.390625 41.078125 11.03125 
Q 45.3125 15.671875 45.3125 23.6875 
L 45.3125 54.6875 
L 54.296875 54.6875 
L 54.296875 0 
L 45.3125 0 
L 45.3125 8.40625 
Q 42.046875 3.421875 37.71875 1 
Q 33.40625 -1.421875 27.6875 -1.421875 
Q 18.265625 -1.421875 13.375 4.4375 
Q 8.5 10.296875 8.5 21.578125 
" id="BitstreamVeraSans-Roman-75"/>
     <path d="M 48.78125 52.59375 
L 48.78125 44.1875 
Q 44.96875 46.296875 41.140625 47.34375 
Q 37.3125 48.390625 33.40625 48.390625 
Q 24.65625 48.390625 19.8125 42.84375 
Q 14.984375 37.3125 14.984375 27.296875 
Q 14.984375 17.28125 19.8125 11.734375 
Q 24.65625 6.203125 33.40625 6.203125 
Q 37.3125 6.203125 41.140625 7.25 
Q 44.96875 8.296875 48.78125 10.40625 
L 48.78125 2.09375 
Q 45.015625 0.34375 40.984375 -0.53125 
Q 36.96875 -1.421875 32.421875 -1.421875 
Q 20.0625 -1.421875 12.78125 6.34375 
Q 5.515625 14.109375 5.515625 27.296875 
Q 5.515625 40.671875 12.859375 48.328125 
Q 20.21875 56 33.015625 56 
Q 37.15625 56 41.109375 55.140625 
Q 45.0625 54.296875 48.78125 52.59375 
" id="BitstreamVeraSans-Roman-63"/>
    </defs>
    <g transform="translate(311.55075 52.6)scale(0.144 -0.144)">
     <use xlink:href="#BitstreamVeraSans-Roman-31"/>
     <use x="63.623046875" xlink:href="#BitstreamVeraSans-Roman-35"/>
     <use x="127.24609375" xlink:href="#BitstreamVeraSans-Roman-25"/>
     <use x="222.265625" xlink:href="#BitstreamVeraSans-Roman-20"/>
     <use x="254.052734375" xlink:href="#BitstreamVeraSans-Roman-44"/>
     <use x="331.0546875" xlink:href="#BitstreamVeraSans-Roman-75"/>
     <use x="394.43359375" xlink:href="#BitstreamVeraSans-Roman-74"/>
     <use x="433.642578125" xlink:href="#BitstreamVeraSans-Roman-79"/>
     <use x="492.822265625" xlink:href="#BitstreamVeraSans-Roman-20"/>
     <use x="524.609375" xlink:href="#BitstreamVeraSans-Roman-43"/>
     <use x="594.43359375" xlink:href="#BitstreamVeraSans-Roman-79"/>
     <use x="653.61328125" xlink:href="#BitstreamVeraSans-Roman-63"/>
     <use x="708.59375" xlink:href="#BitstreamVeraSans-Roman-6c"/>
     <use x="736.376953125" xlink:href="#BitstreamVeraSans-Roman-65"/>
    </g>
   </g>
   <g id="legend_1">
    <g id="patch_7">
     <path d="M 547.01125 132.81277 
L 644 132.81277 
L 644 106.92777 
L 547.01125 106.92777 
z
" style="fill:#ffffff;stroke:#000000;stroke-linejoin:miter;"/>
    </g>
    <g id="line2d_27">
     <path d="M 552.61125 113.40652 
L 563.81125 113.40652 
" style="fill:none;stroke:#0000ff;stroke-linecap:square;"/>
    </g>
    <g id="line2d_28"/>
    <g id="text_15">
     <!-- Effective Voltage -->
     <defs>
      <path d="M 2.984375 54.6875 
L 12.5 54.6875 
L 29.59375 8.796875 
L 46.6875 54.6875 
L 56.203125 54.6875 
L 35.6875 0 
L 23.484375 0 
z
" id="BitstreamVeraSans-Roman-76"/>
      <path d="M 9.8125 72.90625 
L 55.90625 72.90625 
L 55.90625 64.59375 
L 19.671875 64.59375 
L 19.671875 43.015625 
L 54.390625 43.015625 
L 54.390625 34.71875 
L 19.671875 34.71875 
L 19.671875 8.296875 
L 56.78125 8.296875 
L 56.78125 0 
L 9.8125 0 
z
" id="BitstreamVeraSans-Roman-45"/>
      <path d="M 37.109375 75.984375 
L 37.109375 68.5 
L 28.515625 68.5 
Q 23.6875 68.5 21.796875 66.546875 
Q 19.921875 64.59375 19.921875 59.515625 
L 19.921875 54.6875 
L 34.71875 54.6875 
L 34.71875 47.703125 
L 19.921875 47.703125 
L 19.921875 0 
L 10.890625 0 
L 10.890625 47.703125 
L 2.296875 47.703125 
L 2.296875 54.6875 
L 10.890625 54.6875 
L 10.890625 58.5 
Q 10.890625 67.625 15.140625 71.796875 
Q 19.390625 75.984375 28.609375 75.984375 
z
" id="BitstreamVeraSans-Roman-66"/>
      <path d="M 9.421875 54.6875 
L 18.40625 54.6875 
L 18.40625 0 
L 9.421875 0 
z
M 9.421875 75.984375 
L 18.40625 75.984375 
L 18.40625 64.59375 
L 9.421875 64.59375 
z
" id="BitstreamVeraSans-Roman-69"/>
     </defs>
     <g transform="translate(572.61125 116.20652027)scale(0.08 -0.08)">
      <use xlink:href="#BitstreamVeraSans-Roman-45"/>
      <use x="63.18359375" xlink:href="#BitstreamVeraSans-Roman-66"/>
      <use x="98.388671875" xlink:href="#BitstreamVeraSans-Roman-66"/>
      <use x="133.59375" xlink:href="#BitstreamVeraSans-Roman-65"/>
      <use x="195.1171875" xlink:href="#BitstreamVeraSans-Roman-63"/>
      <use x="250.09765625" xlink:href="#BitstreamVeraSans-Roman-74"/>
      <use x="289.306640625" xlink:href="#BitstreamVeraSans-Roman-69"/>
      <use x="317.08984375" xlink:href="#BitstreamVeraSans-Roman-76"/>
      <use x="376.26953125" xlink:href="#BitstreamVeraSans-Roman-65"/>
      <use x="437.79296875" xlink:href="#BitstreamVeraSans-Roman-20"/>
      <use x="469.580078125" xlink:href="#BitstreamVeraSans-Roman-56"/>
      <use x="537.87890625" xlink:href="#BitstreamVeraSans-Roman-6f"/>
      <use x="599.060546875" xlink:href="#BitstreamVeraSans-Roman-6c"/>
      <use x="626.84375" xlink:href="#BitstreamVeraSans-Roman-74"/>
      <use x="666.052734375" xlink:href="#BitstreamVeraSans-Roman-61"/>
      <use x="727.33203125" xlink:href="#BitstreamVeraSans-Roman-67"/>
      <use x="790.80859375" xlink:href="#BitstreamVeraSans-Roman-65"/>
     </g>
    </g>
    <g id="line2d_29">
     <path d="M 552.61125 125.14902 
L 563.81125 125.14902 
" style="fill:none;stroke:#ff7500;stroke-linecap:square;"/>
    </g>
    <g id="line2d_30"/>
    <g id="text_16">
     <!-- Voltage -->
     <g transform="translate(572.61125 127.94902027)scale(0.08 -0.08)">
      <use xlink:href="#BitstreamVeraSans-Roman-56"/>
      <use x="68.298828125" xlink:href="#BitstreamVeraSans-Roman-6f"/>
      <use x="129.48046875" xlink:href="#BitstreamVeraSans-Roman-6c"/>
      <use x="157.263671875" xlink:href="#BitstreamVeraSans-Roman-74"/>
      <use x="196.47265625" xlink:href="#BitstreamVeraSans-Roman-61"/>
      <use x="257.751953125" xlink:href="#BitstreamVeraSans-Roman-67"/>
      <use x="321.228515625" xlink:href="#BitstreamVeraSans-Roman-65"/>
     </g>
    </g>
   </g>
  </g>
  <g id="axes_2">
   <g id="patch_8">
    <path d="M 90 350.27027 
L 648 350.27027 
L 648 225.72973 
L 90 225.72973 
z
" style="fill:#ffffff;"/>
   </g>
   <g id="line2d_31">
    <path clip-path="url(#p519315f2b3)" d="M 90 247.63964 
L 648.27914 247.63964 
L 648.27914 247.63964 
" style="fill:none;stroke:#0000ff;stroke-linecap:square;"/>
   </g>
   <g id="line2d_32">
    <path clip-path="url(#p519315f2b3)" d="M 90 230.342342 
L 121.263632 230.342342 
L 121.821911 345.657658 
L 126.846423 345.657658 
L 127.404702 230.342342 
L 158.668334 230.342342 
L 159.226613 345.657658 
L 164.251126 345.657658 
L 164.809405 230.342342 
L 195.514757 230.342342 
L 196.073037 345.657658 
L 201.097549 345.657658 
L 201.655828 230.342342 
L 232.91946 230.342342 
L 233.477739 345.657658 
L 238.502251 345.657658 
L 239.06053 230.342342 
L 270.324162 230.342342 
L 270.882441 345.657658 
L 275.906953 345.657658 
L 276.465233 230.342342 
L 307.170585 230.342342 
L 307.728864 345.657658 
L 312.753377 345.657658 
L 313.311656 230.342342 
L 344.575288 230.342342 
L 345.133567 345.657658 
L 350.158079 345.657658 
L 350.716358 230.342342 
L 381.97999 230.342342 
L 382.538269 345.657658 
L 387.562781 345.657658 
L 388.121061 230.342342 
L 418.826413 230.342342 
L 419.384692 345.657658 
L 424.409205 345.657658 
L 424.967484 230.342342 
L 456.231116 230.342342 
L 456.789395 345.657658 
L 461.813907 345.657658 
L 462.372186 230.342342 
L 493.077539 230.342342 
L 493.635818 345.657658 
L 498.66033 345.657658 
L 499.218609 230.342342 
L 530.482241 230.342342 
L 531.04052 345.657658 
L 536.065033 345.657658 
L 536.623312 230.342342 
L 567.886943 230.342342 
L 568.445223 345.657658 
L 573.469735 345.657658 
L 574.028014 230.342342 
L 604.733367 230.342342 
L 605.291646 345.657658 
L 610.316158 345.657658 
L 610.874437 230.342342 
L 642.138069 230.342342 
L 642.696348 345.657658 
L 647.72086 345.657658 
L 648.27914 230.342342 
L 648.27914 230.342342 
" style="fill:none;stroke:#ff7500;stroke-linecap:square;"/>
   </g>
   <g id="patch_9">
    <path d="M 90 225.72973 
L 648 225.72973 
" style="fill:none;stroke:#000000;stroke-linecap:square;stroke-linejoin:miter;"/>
   </g>
   <g id="patch_10">
    <path d="M 648 350.27027 
L 648 225.72973 
" style="fill:none;stroke:#000000;stroke-linecap:square;stroke-linejoin:miter;"/>
   </g>
   <g id="patch_11">
    <path d="M 90 350.27027 
L 648 350.27027 
" style="fill:none;stroke:#000000;stroke-linecap:square;stroke-linejoin:miter;"/>
   </g>
   <g id="patch_12">
    <path d="M 90 350.27027 
L 90 225.72973 
" style="fill:none;stroke:#000000;stroke-linecap:square;stroke-linejoin:miter;"/>
   </g>
   <g id="matplotlib.axis_3">
    <g id="xtick_7">
     <g id="line2d_33">
      <g>
       <use style="stroke:#000000;stroke-width:0.5;" x="90.0" xlink:href="#ma45ed3aae8" y="350.27027027"/>
      </g>
     </g>
     <g id="line2d_34">
      <g>
       <use style="stroke:#000000;stroke-width:0.5;" x="90.0" xlink:href="#m4894b0f678" y="225.72972973"/>
      </g>
     </g>
     <g id="text_17">
      <!-- 0.0 -->
      <g transform="translate(80.458125 363.38839527)scale(0.12 -0.12)">
       <use xlink:href="#BitstreamVeraSans-Roman-30"/>
       <use x="63.623046875" xlink:href="#BitstreamVeraSans-Roman-2e"/>
       <use x="95.41015625" xlink:href="#BitstreamVeraSans-Roman-30"/>
      </g>
     </g>
    </g>
    <g id="xtick_8">
     <g id="line2d_35">
      <g>
       <use style="stroke:#000000;stroke-width:0.5;" x="201.6" xlink:href="#ma45ed3aae8" y="350.27027027"/>
      </g>
     </g>
     <g id="line2d_36">
      <g>
       <use style="stroke:#000000;stroke-width:0.5;" x="201.6" xlink:href="#m4894b0f678" y="225.72972973"/>
      </g>
     </g>
     <g id="text_18">
      <!-- 0.1 -->
      <g transform="translate(192.058125 363.38839527)scale(0.12 -0.12)">
       <use xlink:href="#BitstreamVeraSans-Roman-30"/>
       <use x="63.623046875" xlink:href="#BitstreamVeraSans-Roman-2e"/>
       <use x="95.41015625" xlink:href="#BitstreamVeraSans-Roman-31"/>
      </g>
     </g>
    </g>
    <g id="xtick_9">
     <g id="line2d_37">
      <g>
       <use style="stroke:#000000;stroke-width:0.5;" x="313.2" xlink:href="#ma45ed3aae8" y="350.27027027"/>
      </g>
     </g>
     <g id="line2d_38">
      <g>
       <use style="stroke:#000000;stroke-width:0.5;" x="313.2" xlink:href="#m4894b0f678" y="225.72972973"/>
      </g>
     </g>
     <g id="text_19">
      <!-- 0.2 -->
      <g transform="translate(303.658125 363.38839527)scale(0.12 -0.12)">
       <use xlink:href="#BitstreamVeraSans-Roman-30"/>
       <use x="63.623046875" xlink:href="#BitstreamVeraSans-Roman-2e"/>
       <use x="95.41015625" xlink:href="#BitstreamVeraSans-Roman-32"/>
      </g>
     </g>
    </g>
    <g id="xtick_10">
     <g id="line2d_39">
      <g>
       <use style="stroke:#000000;stroke-width:0.5;" x="424.8" xlink:href="#ma45ed3aae8" y="350.27027027"/>
      </g>
     </g>
     <g id="line2d_40">
      <g>
       <use style="stroke:#000000;stroke-width:0.5;" x="424.8" xlink:href="#m4894b0f678" y="225.72972973"/>
      </g>
     </g>
     <g id="text_20">
      <!-- 0.3 -->
      <g transform="translate(415.258125 363.38839527)scale(0.12 -0.12)">
       <use xlink:href="#BitstreamVeraSans-Roman-30"/>
       <use x="63.623046875" xlink:href="#BitstreamVeraSans-Roman-2e"/>
       <use x="95.41015625" xlink:href="#BitstreamVeraSans-Roman-33"/>
      </g>
     </g>
    </g>
    <g id="xtick_11">
     <g id="line2d_41">
      <g>
       <use style="stroke:#000000;stroke-width:0.5;" x="536.4" xlink:href="#ma45ed3aae8" y="350.27027027"/>
      </g>
     </g>
     <g id="line2d_42">
      <g>
       <use style="stroke:#000000;stroke-width:0.5;" x="536.4" xlink:href="#m4894b0f678" y="225.72972973"/>
      </g>
     </g>
     <g id="text_21">
      <!-- 0.4 -->
      <g transform="translate(526.858125 363.38839527)scale(0.12 -0.12)">
       <use xlink:href="#BitstreamVeraSans-Roman-30"/>
       <use x="63.623046875" xlink:href="#BitstreamVeraSans-Roman-2e"/>
       <use x="95.41015625" xlink:href="#BitstreamVeraSans-Roman-34"/>
      </g>
     </g>
    </g>
    <g id="xtick_12">
     <g id="line2d_43">
      <g>
       <use style="stroke:#000000;stroke-width:0.5;" x="648.0" xlink:href="#ma45ed3aae8" y="350.27027027"/>
      </g>
     </g>
     <g id="line2d_44">
      <g>
       <use style="stroke:#000000;stroke-width:0.5;" x="648.0" xlink:href="#m4894b0f678" y="225.72972973"/>
      </g>
     </g>
     <g id="text_22">
      <!-- 0.5 -->
      <g transform="translate(638.458125 363.38839527)scale(0.12 -0.12)">
       <use xlink:href="#BitstreamVeraSans-Roman-30"/>
       <use x="63.623046875" xlink:href="#BitstreamVeraSans-Roman-2e"/>
       <use x="95.41015625" xlink:href="#BitstreamVeraSans-Roman-35"/>
      </g>
     </g>
    </g>
   </g>
   <g id="matplotlib.axis_4">
    <g id="ytick_7">
     <g id="line2d_45">
      <g>
       <use style="stroke:#000000;stroke-width:0.5;" x="90.0" xlink:href="#md084260843" y="345.657657658"/>
      </g>
     </g>
     <g id="line2d_46">
      <g>
       <use style="stroke:#000000;stroke-width:0.5;" x="648.0" xlink:href="#me31d87a30e" y="345.657657658"/>
      </g>
     </g>
     <g id="text_23">
      <!-- 0 -->
      <g transform="translate(78.365 348.968907658)scale(0.12 -0.12)">
       <use xlink:href="#BitstreamVeraSans-Roman-30"/>
      </g>
     </g>
    </g>
    <g id="ytick_8">
     <g id="line2d_47">
      <g>
       <use style="stroke:#000000;stroke-width:0.5;" x="90.0" xlink:href="#md084260843" y="322.594594595"/>
      </g>
     </g>
     <g id="line2d_48">
      <g>
       <use style="stroke:#000000;stroke-width:0.5;" x="648.0" xlink:href="#me31d87a30e" y="322.594594595"/>
      </g>
     </g>
     <g id="text_24">
      <!-- 1 -->
      <g transform="translate(78.365 325.905844595)scale(0.12 -0.12)">
       <use xlink:href="#BitstreamVeraSans-Roman-31"/>
      </g>
     </g>
    </g>
    <g id="ytick_9">
     <g id="line2d_49">
      <g>
       <use style="stroke:#000000;stroke-width:0.5;" x="90.0" xlink:href="#md084260843" y="299.531531532"/>
      </g>
     </g>
     <g id="line2d_50">
      <g>
       <use style="stroke:#000000;stroke-width:0.5;" x="648.0" xlink:href="#me31d87a30e" y="299.531531532"/>
      </g>
     </g>
     <g id="text_25">
      <!-- 2 -->
      <g transform="translate(78.365 302.842781532)scale(0.12 -0.12)">
       <use xlink:href="#BitstreamVeraSans-Roman-32"/>
      </g>
     </g>
    </g>
    <g id="ytick_10">
     <g id="line2d_51">
      <g>
       <use style="stroke:#000000;stroke-width:0.5;" x="90.0" xlink:href="#md084260843" y="276.468468468"/>
      </g>
     </g>
     <g id="line2d_52">
      <g>
       <use style="stroke:#000000;stroke-width:0.5;" x="648.0" xlink:href="#me31d87a30e" y="276.468468468"/>
      </g>
     </g>
     <g id="text_26">
      <!-- 3 -->
      <g transform="translate(78.365 279.779718468)scale(0.12 -0.12)">
       <use xlink:href="#BitstreamVeraSans-Roman-33"/>
      </g>
     </g>
    </g>
    <g id="ytick_11">
     <g id="line2d_53">
      <g>
       <use style="stroke:#000000;stroke-width:0.5;" x="90.0" xlink:href="#md084260843" y="253.405405405"/>
      </g>
     </g>
     <g id="line2d_54">
      <g>
       <use style="stroke:#000000;stroke-width:0.5;" x="648.0" xlink:href="#me31d87a30e" y="253.405405405"/>
      </g>
     </g>
     <g id="text_27">
      <!-- 4 -->
      <g transform="translate(78.365 256.716655405)scale(0.12 -0.12)">
       <use xlink:href="#BitstreamVeraSans-Roman-34"/>
      </g>
     </g>
    </g>
    <g id="ytick_12">
     <g id="line2d_55">
      <g>
       <use style="stroke:#000000;stroke-width:0.5;" x="90.0" xlink:href="#md084260843" y="230.342342342"/>
      </g>
     </g>
     <g id="line2d_56">
      <g>
       <use style="stroke:#000000;stroke-width:0.5;" x="648.0" xlink:href="#me31d87a30e" y="230.342342342"/>
      </g>
     </g>
     <g id="text_28">
      <!-- 5 -->
      <g transform="translate(78.365 233.653592342)scale(0.12 -0.12)">
       <use xlink:href="#BitstreamVeraSans-Roman-35"/>
      </g>
     </g>
    </g>
    <g id="text_29">
     <!-- Voltage (V) -->
     <g transform="translate(70.869375 321.6590625)rotate(-90.0)scale(0.12 -0.12)">
      <use xlink:href="#BitstreamVeraSans-Roman-56"/>
      <use x="68.298828125" xlink:href="#BitstreamVeraSans-Roman-6f"/>
      <use x="129.48046875" xlink:href="#BitstreamVeraSans-Roman-6c"/>
      <use x="157.263671875" xlink:href="#BitstreamVeraSans-Roman-74"/>
      <use x="196.47265625" xlink:href="#BitstreamVeraSans-Roman-61"/>
      <use x="257.751953125" xlink:href="#BitstreamVeraSans-Roman-67"/>
      <use x="321.228515625" xlink:href="#BitstreamVeraSans-Roman-65"/>
      <use x="382.751953125" xlink:href="#BitstreamVeraSans-Roman-20"/>
      <use x="414.5390625" xlink:href="#BitstreamVeraSans-Roman-28"/>
      <use x="453.552734375" xlink:href="#BitstreamVeraSans-Roman-56"/>
      <use x="521.9609375" xlink:href="#BitstreamVeraSans-Roman-29"/>
     </g>
    </g>
   </g>
   <g id="text_30">
    <!-- 85% Duty Cycle -->
    <defs>
     <path d="M 31.78125 34.625 
Q 24.75 34.625 20.71875 30.859375 
Q 16.703125 27.09375 16.703125 20.515625 
Q 16.703125 13.921875 20.71875 10.15625 
Q 24.75 6.390625 31.78125 6.390625 
Q 38.8125 6.390625 42.859375 10.171875 
Q 46.921875 13.96875 46.921875 20.515625 
Q 46.921875 27.09375 42.890625 30.859375 
Q 38.875 34.625 31.78125 34.625 
M 21.921875 38.8125 
Q 15.578125 40.375 12.03125 44.71875 
Q 8.5 49.078125 8.5 55.328125 
Q 8.5 64.0625 14.71875 69.140625 
Q 20.953125 74.21875 31.78125 74.21875 
Q 42.671875 74.21875 48.875 69.140625 
Q 55.078125 64.0625 55.078125 55.328125 
Q 55.078125 49.078125 51.53125 44.71875 
Q 48 40.375 41.703125 38.8125 
Q 48.828125 37.15625 52.796875 32.3125 
Q 56.78125 27.484375 56.78125 20.515625 
Q 56.78125 9.90625 50.3125 4.234375 
Q 43.84375 -1.421875 31.78125 -1.421875 
Q 19.734375 -1.421875 13.25 4.234375 
Q 6.78125 9.90625 6.78125 20.515625 
Q 6.78125 27.484375 10.78125 32.3125 
Q 14.796875 37.15625 21.921875 38.8125 
M 18.3125 54.390625 
Q 18.3125 48.734375 21.84375 45.5625 
Q 25.390625 42.390625 31.78125 42.390625 
Q 38.140625 42.390625 41.71875 45.5625 
Q 45.3125 48.734375 45.3125 54.390625 
Q 45.3125 60.0625 41.71875 63.234375 
Q 38.140625 66.40625 31.78125 66.40625 
Q 25.390625 66.40625 21.84375 63.234375 
Q 18.3125 60.0625 18.3125 54.390625 
" id="BitstreamVeraSans-Roman-38"/>
    </defs>
    <g transform="translate(311.55075 220.72972973)scale(0.144 -0.144)">
     <use xlink:href="#BitstreamVeraSans-Roman-38"/>
     <use x="63.623046875" xlink:href="#BitstreamVeraSans-Roman-35"/>
     <use x="127.24609375" xlink:href="#BitstreamVeraSans-Roman-25"/>
     <use x="222.265625" xlink:href="#BitstreamVeraSans-Roman-20"/>
     <use x="254.052734375" xlink:href="#BitstreamVeraSans-Roman-44"/>
     <use x="331.0546875" xlink:href="#BitstreamVeraSans-Roman-75"/>
     <use x="394.43359375" xlink:href="#BitstreamVeraSans-Roman-74"/>
     <use x="433.642578125" xlink:href="#BitstreamVeraSans-Roman-79"/>
     <use x="492.822265625" xlink:href="#BitstreamVeraSans-Roman-20"/>
     <use x="524.609375" xlink:href="#BitstreamVeraSans-Roman-43"/>
     <use x="594.43359375" xlink:href="#BitstreamVeraSans-Roman-79"/>
     <use x="653.61328125" xlink:href="#BitstreamVeraSans-Roman-63"/>
     <use x="708.59375" xlink:href="#BitstreamVeraSans-Roman-6c"/>
     <use x="736.376953125" xlink:href="#BitstreamVeraSans-Roman-65"/>
    </g>
   </g>
   <g id="legend_2">
    <g id="patch_13">
     <path d="M 547.01125 300.9425 
L 644 300.9425 
L 644 275.0575 
L 547.01125 275.0575 
z
" style="fill:#ffffff;stroke:#000000;stroke-linejoin:miter;"/>
    </g>
    <g id="line2d_57">
     <path d="M 552.61125 281.53625 
L 563.81125 281.53625 
" style="fill:none;stroke:#0000ff;stroke-linecap:square;"/>
    </g>
    <g id="line2d_58"/>
    <g id="text_31">
     <!-- Effective Voltage -->
     <g transform="translate(572.61125 284.33625)scale(0.08 -0.08)">
      <use xlink:href="#BitstreamVeraSans-Roman-45"/>
      <use x="63.18359375" xlink:href="#BitstreamVeraSans-Roman-66"/>
      <use x="98.388671875" xlink:href="#BitstreamVeraSans-Roman-66"/>
      <use x="133.59375" xlink:href="#BitstreamVeraSans-Roman-65"/>
      <use x="195.1171875" xlink:href="#BitstreamVeraSans-Roman-63"/>
      <use x="250.09765625" xlink:href="#BitstreamVeraSans-Roman-74"/>
      <use x="289.306640625" xlink:href="#BitstreamVeraSans-Roman-69"/>
      <use x="317.08984375" xlink:href="#BitstreamVeraSans-Roman-76"/>
      <use x="376.26953125" xlink:href="#BitstreamVeraSans-Roman-65"/>
      <use x="437.79296875" xlink:href="#BitstreamVeraSans-Roman-20"/>
      <use x="469.580078125" xlink:href="#BitstreamVeraSans-Roman-56"/>
      <use x="537.87890625" xlink:href="#BitstreamVeraSans-Roman-6f"/>
      <use x="599.060546875" xlink:href="#BitstreamVeraSans-Roman-6c"/>
      <use x="626.84375" xlink:href="#BitstreamVeraSans-Roman-74"/>
      <use x="666.052734375" xlink:href="#BitstreamVeraSans-Roman-61"/>
      <use x="727.33203125" xlink:href="#BitstreamVeraSans-Roman-67"/>
      <use x="790.80859375" xlink:href="#BitstreamVeraSans-Roman-65"/>
     </g>
    </g>
    <g id="line2d_59">
     <path d="M 552.61125 293.27875 
L 563.81125 293.27875 
" style="fill:none;stroke:#ff7500;stroke-linecap:square;"/>
    </g>
    <g id="line2d_60"/>
    <g id="text_32">
     <!-- Voltage -->
     <g transform="translate(572.61125 296.07875)scale(0.08 -0.08)">
      <use xlink:href="#BitstreamVeraSans-Roman-56"/>
      <use x="68.298828125" xlink:href="#BitstreamVeraSans-Roman-6f"/>
      <use x="129.48046875" xlink:href="#BitstreamVeraSans-Roman-6c"/>
      <use x="157.263671875" xlink:href="#BitstreamVeraSans-Roman-74"/>
      <use x="196.47265625" xlink:href="#BitstreamVeraSans-Roman-61"/>
      <use x="257.751953125" xlink:href="#BitstreamVeraSans-Roman-67"/>
      <use x="321.228515625" xlink:href="#BitstreamVeraSans-Roman-65"/>
     </g>
    </g>
   </g>
  </g>
  <g id="axes_3">
   <g id="patch_14">
    <path d="M 90 518.4 
L 648 518.4 
L 648 393.859459 
L 90 393.859459 
z
" style="fill:#ffffff;"/>
   </g>
   <g id="line2d_61">
    <path clip-path="url(#p485216f1d0)" d="M 90 456.12973 
L 111.214607 442.48706 
L 122.65933 435.400823 
L 132.150075 429.780265 
L 140.524262 425.068607 
L 148.34017 420.919246 
L 155.597799 417.309657 
L 162.576288 414.082982 
L 169.275638 411.229268 
L 175.695848 408.73391 
L 181.836918 406.578562 
L 187.977989 404.660057 
L 193.83992 403.058133 
L 199.701851 401.687351 
L 205.284642 400.60221 
L 210.867434 399.73643 
L 216.450225 399.093431 
L 222.033017 398.675754 
L 227.615808 398.485048 
L 233.198599 398.522067 
L 238.781391 398.786665 
L 244.364182 399.277796 
L 249.946973 399.99352 
L 255.529765 400.93101 
L 261.112556 402.086561 
L 266.974487 403.529573 
L 272.836418 405.201673 
L 278.977489 407.19116 
L 285.118559 409.414562 
L 291.538769 411.977585 
L 298.238119 414.897732 
L 305.216608 418.188675 
L 312.474237 421.859343 
L 320.290145 426.067452 
L 328.664332 430.833465 
L 337.875938 436.333981 
L 348.762381 443.104158 
L 363.277639 452.417137 
L 391.749875 470.738759 
L 402.915458 477.617535 
L 412.127064 483.041774 
L 420.501251 487.723349 
L 428.317159 491.840356 
L 435.574787 495.416431 
L 442.553277 498.607941 
L 449.252626 501.425388 
L 455.672836 503.883879 
L 461.813907 506.002207 
L 467.954977 507.882157 
L 473.816908 509.446015 
L 479.678839 510.777666 
L 485.261631 511.824704 
L 490.844422 512.65172 
L 496.427214 513.255445 
L 502.010005 513.633496 
L 507.592796 513.784379 
L 513.175588 513.707498 
L 518.758379 513.403156 
L 524.341171 512.872556 
L 529.923962 512.117794 
L 535.506753 511.141852 
L 541.089545 509.948584 
L 546.951476 508.466927 
L 552.813407 506.757328 
L 558.954477 504.729961 
L 565.095548 502.470297 
L 571.515758 499.871281 
L 578.215108 496.915866 
L 585.193597 493.590884 
L 592.451226 489.887961 
L 600.267134 485.648944 
L 608.641321 480.854485 
L 618.132066 475.157573 
L 629.297649 468.182421 
L 644.650325 458.303944 
L 648 456.12973 
L 648 456.12973 
" style="fill:none;stroke:#0000ff;stroke-linecap:square;"/>
   </g>
   <g id="line2d_62">
    <path clip-path="url(#p485216f1d0)" d="M 90 398.472072 
L 100.328164 398.472072 
L 100.607304 513.787387 
L 108.423212 513.787387 
L 108.702351 398.472072 
L 120.984492 398.472072 
L 121.263632 513.787387 
L 127.125563 513.787387 
L 127.404702 398.472072 
L 141.361681 398.472072 
L 141.64082 513.787387 
L 145.548774 513.787387 
L 145.827914 398.472072 
L 161.738869 398.472072 
L 162.018009 513.787387 
L 164.251126 513.787387 
L 164.530265 398.472072 
L 181.557779 398.472072 
L 181.836918 513.787387 
L 182.953477 513.787387 
L 183.232616 398.472072 
L 201.097549 398.472072 
L 201.376688 513.787387 
L 201.655828 398.472072 
L 238.502251 398.472072 
L 238.781391 513.787387 
L 239.06053 398.472072 
L 256.925463 398.472072 
L 257.204602 513.787387 
L 257.483742 398.472072 
L 274.790395 398.472072 
L 275.069535 513.787387 
L 275.906953 513.787387 
L 276.186093 398.472072 
L 292.097049 398.472072 
L 292.376188 513.787387 
L 294.330165 513.787387 
L 294.609305 398.472072 
L 309.403702 398.472072 
L 309.682841 513.787387 
L 313.032516 513.787387 
L 313.311656 398.472072 
L 326.710355 398.472072 
L 326.989495 513.787387 
L 331.734867 513.787387 
L 332.014007 398.472072 
L 343.458729 398.472072 
L 343.737869 513.787387 
L 350.158079 513.787387 
L 350.437219 398.472072 
L 360.486243 398.472072 
L 360.765383 513.787387 
L 368.86043 513.787387 
L 369.13957 398.472072 
L 377.234617 398.472072 
L 377.513757 513.787387 
L 387.562781 513.787387 
L 387.841921 398.472072 
L 394.262131 398.472072 
L 394.541271 513.787387 
L 405.985993 513.787387 
L 406.265133 398.472072 
L 411.010505 398.472072 
L 411.289645 513.787387 
L 424.688344 513.787387 
L 424.967484 398.472072 
L 428.317159 398.472072 
L 428.596298 513.787387 
L 443.390695 513.787387 
L 443.669835 398.472072 
L 445.623812 398.472072 
L 445.902951 513.787387 
L 461.813907 513.787387 
L 462.093047 398.472072 
L 462.930465 398.472072 
L 463.209605 513.787387 
L 480.516258 513.787387 
L 480.795398 398.472072 
L 481.074537 513.787387 
L 498.93947 513.787387 
L 499.218609 398.472072 
L 499.497749 513.787387 
L 536.344172 513.787387 
L 536.623312 398.472072 
L 536.902451 513.787387 
L 554.767384 513.787387 
L 555.046523 398.472072 
L 556.163082 398.472072 
L 556.442221 513.787387 
L 573.469735 513.787387 
L 573.748874 398.472072 
L 575.981991 398.472072 
L 576.261131 513.787387 
L 592.172086 513.787387 
L 592.451226 398.472072 
L 596.35918 398.472072 
L 596.638319 513.787387 
L 610.595298 513.787387 
L 610.874437 398.472072 
L 616.736368 398.472072 
L 617.015508 513.787387 
L 629.297649 513.787387 
L 629.576788 398.472072 
L 637.392696 398.472072 
L 637.671836 513.787387 
L 648 513.787387 
L 648 513.787387 
" style="fill:none;stroke:#ff7500;stroke-linecap:square;"/>
   </g>
   <g id="patch_15">
    <path d="M 90 393.859459 
L 648 393.859459 
" style="fill:none;stroke:#000000;stroke-linecap:square;stroke-linejoin:miter;"/>
   </g>
   <g id="patch_16">
    <path d="M 648 518.4 
L 648 393.859459 
" style="fill:none;stroke:#000000;stroke-linecap:square;stroke-linejoin:miter;"/>
   </g>
   <g id="patch_17">
    <path d="M 90 518.4 
L 648 518.4 
" style="fill:none;stroke:#000000;stroke-linecap:square;stroke-linejoin:miter;"/>
   </g>
   <g id="patch_18">
    <path d="M 90 518.4 
L 90 393.859459 
" style="fill:none;stroke:#000000;stroke-linecap:square;stroke-linejoin:miter;"/>
   </g>
   <g id="matplotlib.axis_5">
    <g id="xtick_13">
     <g id="line2d_63">
      <g>
       <use style="stroke:#000000;stroke-width:0.5;" x="90.0" xlink:href="#ma45ed3aae8" y="518.4"/>
      </g>
     </g>
     <g id="line2d_64">
      <g>
       <use style="stroke:#000000;stroke-width:0.5;" x="90.0" xlink:href="#m4894b0f678" y="393.859459459"/>
      </g>
     </g>
     <g id="text_33">
      <!-- 0.0 -->
      <g transform="translate(80.458125 531.518125)scale(0.12 -0.12)">
       <use xlink:href="#BitstreamVeraSans-Roman-30"/>
       <use x="63.623046875" xlink:href="#BitstreamVeraSans-Roman-2e"/>
       <use x="95.41015625" xlink:href="#BitstreamVeraSans-Roman-30"/>
      </g>
     </g>
    </g>
    <g id="xtick_14">
     <g id="line2d_65">
      <g>
       <use style="stroke:#000000;stroke-width:0.5;" x="201.6" xlink:href="#ma45ed3aae8" y="518.4"/>
      </g>
     </g>
     <g id="line2d_66">
      <g>
       <use style="stroke:#000000;stroke-width:0.5;" x="201.6" xlink:href="#m4894b0f678" y="393.859459459"/>
      </g>
     </g>
     <g id="text_34">
      <!-- 0.2 -->
      <g transform="translate(192.058125 531.518125)scale(0.12 -0.12)">
       <use xlink:href="#BitstreamVeraSans-Roman-30"/>
       <use x="63.623046875" xlink:href="#BitstreamVeraSans-Roman-2e"/>
       <use x="95.41015625" xlink:href="#BitstreamVeraSans-Roman-32"/>
      </g>
     </g>
    </g>
    <g id="xtick_15">
     <g id="line2d_67">
      <g>
       <use style="stroke:#000000;stroke-width:0.5;" x="313.2" xlink:href="#ma45ed3aae8" y="518.4"/>
      </g>
     </g>
     <g id="line2d_68">
      <g>
       <use style="stroke:#000000;stroke-width:0.5;" x="313.2" xlink:href="#m4894b0f678" y="393.859459459"/>
      </g>
     </g>
     <g id="text_35">
      <!-- 0.4 -->
      <g transform="translate(303.658125 531.518125)scale(0.12 -0.12)">
       <use xlink:href="#BitstreamVeraSans-Roman-30"/>
       <use x="63.623046875" xlink:href="#BitstreamVeraSans-Roman-2e"/>
       <use x="95.41015625" xlink:href="#BitstreamVeraSans-Roman-34"/>
      </g>
     </g>
    </g>
    <g id="xtick_16">
     <g id="line2d_69">
      <g>
       <use style="stroke:#000000;stroke-width:0.5;" x="424.8" xlink:href="#ma45ed3aae8" y="518.4"/>
      </g>
     </g>
     <g id="line2d_70">
      <g>
       <use style="stroke:#000000;stroke-width:0.5;" x="424.8" xlink:href="#m4894b0f678" y="393.859459459"/>
      </g>
     </g>
     <g id="text_36">
      <!-- 0.6 -->
      <defs>
       <path d="M 33.015625 40.375 
Q 26.375 40.375 22.484375 35.828125 
Q 18.609375 31.296875 18.609375 23.390625 
Q 18.609375 15.53125 22.484375 10.953125 
Q 26.375 6.390625 33.015625 6.390625 
Q 39.65625 6.390625 43.53125 10.953125 
Q 47.40625 15.53125 47.40625 23.390625 
Q 47.40625 31.296875 43.53125 35.828125 
Q 39.65625 40.375 33.015625 40.375 
M 52.59375 71.296875 
L 52.59375 62.3125 
Q 48.875 64.0625 45.09375 64.984375 
Q 41.3125 65.921875 37.59375 65.921875 
Q 27.828125 65.921875 22.671875 59.328125 
Q 17.53125 52.734375 16.796875 39.40625 
Q 19.671875 43.65625 24.015625 45.921875 
Q 28.375 48.1875 33.59375 48.1875 
Q 44.578125 48.1875 50.953125 41.515625 
Q 57.328125 34.859375 57.328125 23.390625 
Q 57.328125 12.15625 50.6875 5.359375 
Q 44.046875 -1.421875 33.015625 -1.421875 
Q 20.359375 -1.421875 13.671875 8.265625 
Q 6.984375 17.96875 6.984375 36.375 
Q 6.984375 53.65625 15.1875 63.9375 
Q 23.390625 74.21875 37.203125 74.21875 
Q 40.921875 74.21875 44.703125 73.484375 
Q 48.484375 72.75 52.59375 71.296875 
" id="BitstreamVeraSans-Roman-36"/>
      </defs>
      <g transform="translate(415.258125 531.518125)scale(0.12 -0.12)">
       <use xlink:href="#BitstreamVeraSans-Roman-30"/>
       <use x="63.623046875" xlink:href="#BitstreamVeraSans-Roman-2e"/>
       <use x="95.41015625" xlink:href="#BitstreamVeraSans-Roman-36"/>
      </g>
     </g>
    </g>
    <g id="xtick_17">
     <g id="line2d_71">
      <g>
       <use style="stroke:#000000;stroke-width:0.5;" x="536.4" xlink:href="#ma45ed3aae8" y="518.4"/>
      </g>
     </g>
     <g id="line2d_72">
      <g>
       <use style="stroke:#000000;stroke-width:0.5;" x="536.4" xlink:href="#m4894b0f678" y="393.859459459"/>
      </g>
     </g>
     <g id="text_37">
      <!-- 0.8 -->
      <g transform="translate(526.858125 531.518125)scale(0.12 -0.12)">
       <use xlink:href="#BitstreamVeraSans-Roman-30"/>
       <use x="63.623046875" xlink:href="#BitstreamVeraSans-Roman-2e"/>
       <use x="95.41015625" xlink:href="#BitstreamVeraSans-Roman-38"/>
      </g>
     </g>
    </g>
    <g id="xtick_18">
     <g id="line2d_73">
      <g>
       <use style="stroke:#000000;stroke-width:0.5;" x="648.0" xlink:href="#ma45ed3aae8" y="518.4"/>
      </g>
     </g>
     <g id="line2d_74">
      <g>
       <use style="stroke:#000000;stroke-width:0.5;" x="648.0" xlink:href="#m4894b0f678" y="393.859459459"/>
      </g>
     </g>
     <g id="text_38">
      <!-- 1.0 -->
      <g transform="translate(638.458125 531.518125)scale(0.12 -0.12)">
       <use xlink:href="#BitstreamVeraSans-Roman-31"/>
       <use x="63.623046875" xlink:href="#BitstreamVeraSans-Roman-2e"/>
       <use x="95.41015625" xlink:href="#BitstreamVeraSans-Roman-30"/>
      </g>
     </g>
    </g>
    <g id="text_39">
     <!-- t (s) -->
     <defs>
      <path d="M 44.28125 53.078125 
L 44.28125 44.578125 
Q 40.484375 46.53125 36.375 47.5 
Q 32.28125 48.484375 27.875 48.484375 
Q 21.1875 48.484375 17.84375 46.4375 
Q 14.5 44.390625 14.5 40.28125 
Q 14.5 37.15625 16.890625 35.375 
Q 19.28125 33.59375 26.515625 31.984375 
L 29.59375 31.296875 
Q 39.15625 29.25 43.1875 25.515625 
Q 47.21875 21.78125 47.21875 15.09375 
Q 47.21875 7.46875 41.1875 3.015625 
Q 35.15625 -1.421875 24.609375 -1.421875 
Q 20.21875 -1.421875 15.453125 -0.5625 
Q 10.6875 0.296875 5.421875 2 
L 5.421875 11.28125 
Q 10.40625 8.6875 15.234375 7.390625 
Q 20.0625 6.109375 24.8125 6.109375 
Q 31.15625 6.109375 34.5625 8.28125 
Q 37.984375 10.453125 37.984375 14.40625 
Q 37.984375 18.0625 35.515625 20.015625 
Q 33.0625 21.96875 24.703125 23.78125 
L 21.578125 24.515625 
Q 13.234375 26.265625 9.515625 29.90625 
Q 5.8125 33.546875 5.8125 39.890625 
Q 5.8125 47.609375 11.28125 51.796875 
Q 16.75 56 26.8125 56 
Q 31.78125 56 36.171875 55.265625 
Q 40.578125 54.546875 44.28125 53.078125 
" id="BitstreamVeraSans-Roman-73"/>
     </defs>
     <g transform="translate(356.9334375 548.131875)scale(0.12 -0.12)">
      <use xlink:href="#BitstreamVeraSans-Roman-74"/>
      <use x="39.208984375" xlink:href="#BitstreamVeraSans-Roman-20"/>
      <use x="70.99609375" xlink:href="#BitstreamVeraSans-Roman-28"/>
      <use x="110.009765625" xlink:href="#BitstreamVeraSans-Roman-73"/>
      <use x="162.109375" xlink:href="#BitstreamVeraSans-Roman-29"/>
     </g>
    </g>
   </g>
   <g id="matplotlib.axis_6">
    <g id="ytick_13">
     <g id="line2d_75">
      <g>
       <use style="stroke:#000000;stroke-width:0.5;" x="90.0" xlink:href="#md084260843" y="513.787387387"/>
      </g>
     </g>
     <g id="line2d_76">
      <g>
       <use style="stroke:#000000;stroke-width:0.5;" x="648.0" xlink:href="#me31d87a30e" y="513.787387387"/>
      </g>
     </g>
     <g id="text_40">
      <!-- 0 -->
      <g transform="translate(78.365 517.098637387)scale(0.12 -0.12)">
       <use xlink:href="#BitstreamVeraSans-Roman-30"/>
      </g>
     </g>
    </g>
    <g id="ytick_14">
     <g id="line2d_77">
      <g>
       <use style="stroke:#000000;stroke-width:0.5;" x="90.0" xlink:href="#md084260843" y="490.724324324"/>
      </g>
     </g>
     <g id="line2d_78">
      <g>
       <use style="stroke:#000000;stroke-width:0.5;" x="648.0" xlink:href="#me31d87a30e" y="490.724324324"/>
      </g>
     </g>
     <g id="text_41">
      <!-- 1 -->
      <g transform="translate(78.365 494.035574324)scale(0.12 -0.12)">
       <use xlink:href="#BitstreamVeraSans-Roman-31"/>
      </g>
     </g>
    </g>
    <g id="ytick_15">
     <g id="line2d_79">
      <g>
       <use style="stroke:#000000;stroke-width:0.5;" x="90.0" xlink:href="#md084260843" y="467.661261261"/>
      </g>
     </g>
     <g id="line2d_80">
      <g>
       <use style="stroke:#000000;stroke-width:0.5;" x="648.0" xlink:href="#me31d87a30e" y="467.661261261"/>
      </g>
     </g>
     <g id="text_42">
      <!-- 2 -->
      <g transform="translate(78.365 470.972511261)scale(0.12 -0.12)">
       <use xlink:href="#BitstreamVeraSans-Roman-32"/>
      </g>
     </g>
    </g>
    <g id="ytick_16">
     <g id="line2d_81">
      <g>
       <use style="stroke:#000000;stroke-width:0.5;" x="90.0" xlink:href="#md084260843" y="444.598198198"/>
      </g>
     </g>
     <g id="line2d_82">
      <g>
       <use style="stroke:#000000;stroke-width:0.5;" x="648.0" xlink:href="#me31d87a30e" y="444.598198198"/>
      </g>
     </g>
     <g id="text_43">
      <!-- 3 -->
      <g transform="translate(78.365 447.909448198)scale(0.12 -0.12)">
       <use xlink:href="#BitstreamVeraSans-Roman-33"/>
      </g>
     </g>
    </g>
    <g id="ytick_17">
     <g id="line2d_83">
      <g>
       <use style="stroke:#000000;stroke-width:0.5;" x="90.0" xlink:href="#md084260843" y="421.535135135"/>
      </g>
     </g>
     <g id="line2d_84">
      <g>
       <use style="stroke:#000000;stroke-width:0.5;" x="648.0" xlink:href="#me31d87a30e" y="421.535135135"/>
      </g>
     </g>
     <g id="text_44">
      <!-- 4 -->
      <g transform="translate(78.365 424.846385135)scale(0.12 -0.12)">
       <use xlink:href="#BitstreamVeraSans-Roman-34"/>
      </g>
     </g>
    </g>
    <g id="ytick_18">
     <g id="line2d_85">
      <g>
       <use style="stroke:#000000;stroke-width:0.5;" x="90.0" xlink:href="#md084260843" y="398.472072072"/>
      </g>
     </g>
     <g id="line2d_86">
      <g>
       <use style="stroke:#000000;stroke-width:0.5;" x="648.0" xlink:href="#me31d87a30e" y="398.472072072"/>
      </g>
     </g>
     <g id="text_45">
      <!-- 5 -->
      <g transform="translate(78.365 401.783322072)scale(0.12 -0.12)">
       <use xlink:href="#BitstreamVeraSans-Roman-35"/>
      </g>
     </g>
    </g>
    <g id="text_46">
     <!-- Voltage (V) -->
     <g transform="translate(70.869375 489.78879223)rotate(-90.0)scale(0.12 -0.12)">
      <use xlink:href="#BitstreamVeraSans-Roman-56"/>
      <use x="68.298828125" xlink:href="#BitstreamVeraSans-Roman-6f"/>
      <use x="129.48046875" xlink:href="#BitstreamVeraSans-Roman-6c"/>
      <use x="157.263671875" xlink:href="#BitstreamVeraSans-Roman-74"/>
      <use x="196.47265625" xlink:href="#BitstreamVeraSans-Roman-61"/>
      <use x="257.751953125" xlink:href="#BitstreamVeraSans-Roman-67"/>
      <use x="321.228515625" xlink:href="#BitstreamVeraSans-Roman-65"/>
      <use x="382.751953125" xlink:href="#BitstreamVeraSans-Roman-20"/>
      <use x="414.5390625" xlink:href="#BitstreamVeraSans-Roman-28"/>
      <use x="453.552734375" xlink:href="#BitstreamVeraSans-Roman-56"/>
      <use x="521.9609375" xlink:href="#BitstreamVeraSans-Roman-29"/>
     </g>
    </g>
   </g>
   <g id="text_47">
    <!-- Variable Duty Cycle -->
    <defs>
     <path d="M 41.109375 46.296875 
Q 39.59375 47.171875 37.8125 47.578125 
Q 36.03125 48 33.890625 48 
Q 26.265625 48 22.1875 43.046875 
Q 18.109375 38.09375 18.109375 28.8125 
L 18.109375 0 
L 9.078125 0 
L 9.078125 54.6875 
L 18.109375 54.6875 
L 18.109375 46.1875 
Q 20.953125 51.171875 25.484375 53.578125 
Q 30.03125 56 36.53125 56 
Q 37.453125 56 38.578125 55.875 
Q 39.703125 55.765625 41.0625 55.515625 
z
" id="BitstreamVeraSans-Roman-72"/>
     <path d="M 48.6875 27.296875 
Q 48.6875 37.203125 44.609375 42.84375 
Q 40.53125 48.484375 33.40625 48.484375 
Q 26.265625 48.484375 22.1875 42.84375 
Q 18.109375 37.203125 18.109375 27.296875 
Q 18.109375 17.390625 22.1875 11.75 
Q 26.265625 6.109375 33.40625 6.109375 
Q 40.53125 6.109375 44.609375 11.75 
Q 48.6875 17.390625 48.6875 27.296875 
M 18.109375 46.390625 
Q 20.953125 51.265625 25.265625 53.625 
Q 29.59375 56 35.59375 56 
Q 45.5625 56 51.78125 48.09375 
Q 58.015625 40.1875 58.015625 27.296875 
Q 58.015625 14.40625 51.78125 6.484375 
Q 45.5625 -1.421875 35.59375 -1.421875 
Q 29.59375 -1.421875 25.265625 0.953125 
Q 20.953125 3.328125 18.109375 8.203125 
L 18.109375 0 
L 9.078125 0 
L 9.078125 75.984375 
L 18.109375 75.984375 
z
" id="BitstreamVeraSans-Roman-62"/>
    </defs>
    <g transform="translate(297.8505 388.859459459)scale(0.144 -0.144)">
     <use xlink:href="#BitstreamVeraSans-Roman-56"/>
     <use x="68.298828125" xlink:href="#BitstreamVeraSans-Roman-61"/>
     <use x="129.578125" xlink:href="#BitstreamVeraSans-Roman-72"/>
     <use x="170.69140625" xlink:href="#BitstreamVeraSans-Roman-69"/>
     <use x="198.474609375" xlink:href="#BitstreamVeraSans-Roman-61"/>
     <use x="259.75390625" xlink:href="#BitstreamVeraSans-Roman-62"/>
     <use x="323.23046875" xlink:href="#BitstreamVeraSans-Roman-6c"/>
     <use x="351.013671875" xlink:href="#BitstreamVeraSans-Roman-65"/>
     <use x="412.537109375" xlink:href="#BitstreamVeraSans-Roman-20"/>
     <use x="444.32421875" xlink:href="#BitstreamVeraSans-Roman-44"/>
     <use x="521.326171875" xlink:href="#BitstreamVeraSans-Roman-75"/>
     <use x="584.705078125" xlink:href="#BitstreamVeraSans-Roman-74"/>
     <use x="623.9140625" xlink:href="#BitstreamVeraSans-Roman-79"/>
     <use x="683.09375" xlink:href="#BitstreamVeraSans-Roman-20"/>
     <use x="714.880859375" xlink:href="#BitstreamVeraSans-Roman-43"/>
     <use x="784.705078125" xlink:href="#BitstreamVeraSans-Roman-79"/>
     <use x="843.884765625" xlink:href="#BitstreamVeraSans-Roman-63"/>
     <use x="898.865234375" xlink:href="#BitstreamVeraSans-Roman-6c"/>
     <use x="926.6484375" xlink:href="#BitstreamVeraSans-Roman-65"/>
    </g>
   </g>
   <g id="legend_3">
    <g id="patch_19">
     <path d="M 547.01125 469.07223 
L 644 469.07223 
L 644 443.18723 
L 547.01125 443.18723 
z
" style="fill:#ffffff;stroke:#000000;stroke-linejoin:miter;"/>
    </g>
    <g id="line2d_87">
     <path d="M 552.61125 449.66598 
L 563.81125 449.66598 
" style="fill:none;stroke:#0000ff;stroke-linecap:square;"/>
    </g>
    <g id="line2d_88"/>
    <g id="text_48">
     <!-- Effective Voltage -->
     <g transform="translate(572.61125 452.46597973)scale(0.08 -0.08)">
      <use xlink:href="#BitstreamVeraSans-Roman-45"/>
      <use x="63.18359375" xlink:href="#BitstreamVeraSans-Roman-66"/>
      <use x="98.388671875" xlink:href="#BitstreamVeraSans-Roman-66"/>
      <use x="133.59375" xlink:href="#BitstreamVeraSans-Roman-65"/>
      <use x="195.1171875" xlink:href="#BitstreamVeraSans-Roman-63"/>
      <use x="250.09765625" xlink:href="#BitstreamVeraSans-Roman-74"/>
      <use x="289.306640625" xlink:href="#BitstreamVeraSans-Roman-69"/>
      <use x="317.08984375" xlink:href="#BitstreamVeraSans-Roman-76"/>
      <use x="376.26953125" xlink:href="#BitstreamVeraSans-Roman-65"/>
      <use x="437.79296875" xlink:href="#BitstreamVeraSans-Roman-20"/>
      <use x="469.580078125" xlink:href="#BitstreamVeraSans-Roman-56"/>
      <use x="537.87890625" xlink:href="#BitstreamVeraSans-Roman-6f"/>
      <use x="599.060546875" xlink:href="#BitstreamVeraSans-Roman-6c"/>
      <use x="626.84375" xlink:href="#BitstreamVeraSans-Roman-74"/>
      <use x="666.052734375" xlink:href="#BitstreamVeraSans-Roman-61"/>
      <use x="727.33203125" xlink:href="#BitstreamVeraSans-Roman-67"/>
      <use x="790.80859375" xlink:href="#BitstreamVeraSans-Roman-65"/>
     </g>
    </g>
    <g id="line2d_89">
     <path d="M 552.61125 461.40848 
L 563.81125 461.40848 
" style="fill:none;stroke:#ff7500;stroke-linecap:square;"/>
    </g>
    <g id="line2d_90"/>
    <g id="text_49">
     <!-- Voltage -->
     <g transform="translate(572.61125 464.20847973)scale(0.08 -0.08)">
      <use xlink:href="#BitstreamVeraSans-Roman-56"/>
      <use x="68.298828125" xlink:href="#BitstreamVeraSans-Roman-6f"/>
      <use x="129.48046875" xlink:href="#BitstreamVeraSans-Roman-6c"/>
      <use x="157.263671875" xlink:href="#BitstreamVeraSans-Roman-74"/>
      <use x="196.47265625" xlink:href="#BitstreamVeraSans-Roman-61"/>
      <use x="257.751953125" xlink:href="#BitstreamVeraSans-Roman-67"/>
      <use x="321.228515625" xlink:href="#BitstreamVeraSans-Roman-65"/>
     </g>
    </g>
   </g>
  </g>
 </g>
 <defs>
  <clipPath id="pa0af727c83">
   <rect height="124.540540541" width="558.0" x="90.0" y="57.6"/>
  </clipPath>
  <clipPath id="p485216f1d0">
   <rect height="124.540540541" width="558.0" x="90.0" y="393.859459459"/>
  </clipPath>
  <clipPath id="p519315f2b3">
   <rect height="124.540540541" width="558.0" x="90.0" y="225.72972973"/>
  </clipPath>
 </defs>
</svg>
