<?xml version="1.0" encoding="UTF-8" standalone="no"?>
<!-- Created with Inkscape (http://www.inkscape.org/) -->

<svg
   xmlns:dc="http://purl.org/dc/elements/1.1/"
   xmlns:cc="http://creativecommons.org/ns#"
   xmlns:rdf="http://www.w3.org/1999/02/22-rdf-syntax-ns#"
   xmlns:svg="http://www.w3.org/2000/svg"
   xmlns="http://www.w3.org/2000/svg"
   xmlns:sodipodi="http://sodipodi.sourceforge.net/DTD/sodipodi-0.dtd"
   xmlns:inkscape="http://www.inkscape.org/namespaces/inkscape"
   width="16.933332mm"
   height="19.552929mm"
   viewBox="0 0 59.999994 69.28203"
   id="svg4688"
   version="1.1"
   inkscape:version="0.91 r13725"
   sodipodi:docname="PythonIcon60.svg">
  <defs
     id="defs4690" />
  <sodipodi:namedview
     id="base"
     pagecolor="#ffffff"
     bordercolor="#666666"
     borderopacity="1.0"
     inkscape:pageopacity="0.0"
     inkscape:pageshadow="2"
     inkscape:zoom="3.959798"
     inkscape:cx="-7.0297573"
     inkscape:cy="61.675802"
     inkscape:document-units="px"
     inkscape:current-layer="layer1"
     showgrid="false"
     inkscape:window-width="1366"
     inkscape:window-height="715"
     inkscape:window-x="0"
     inkscape:window-y="0"
     inkscape:window-maximized="1"
     fit-margin-top="0"
     fit-margin-left="0"
     fit-margin-right="0"
     fit-margin-bottom="0" />
  <metadata
     id="metadata4693">
    <rdf:RDF>
      <cc:Work
         rdf:about="">
        <dc:format>image/svg+xml</dc:format>
        <dc:type
           rdf:resource="http://purl.org/dc/dcmitype/StillImage" />
        <dc:title></dc:title>
      </cc:Work>
    </rdf:RDF>
  </metadata>
  <g
     inkscape:label="Layer 1"
     inkscape:groupmode="layer"
     id="layer1"
     transform="translate(-312.50489,-650.27)">
    <path
       sodipodi:type="star"
       style="opacity:0.98000004;fill:none;fill-opacity:0.98039216;stroke:#828282;stroke-width:4.03952217;stroke-linecap:round;stroke-linejoin:miter;stroke-miterlimit:4;stroke-dasharray:none;stroke-dashoffset:0;stroke-opacity:1"
       id="path4138"
       sodipodi:sides="6"
       sodipodi:cx="342.50488"
       sodipodi:cy="684.91102"
       sodipodi:r1="32.308796"
       sodipodi:r2="27.947109"
       sodipodi:arg1="0.52359878"
       sodipodi:arg2="1.0471976"
       inkscape:flatsided="true"
       inkscape:rounded="0"
       inkscape:randomized="0"
       d="m 370.48512,701.06541 -27.98024,16.1544 -27.98024,-16.1544 0,-32.3088 27.98024,-16.1544 27.98024,16.1544 z" />
    <g
       id="g4174"
       transform="translate(1.9674984,-0.54934276)">
      <path
         style="fill:#fccf40"
         d="m 339.23454,705.38681 c -1.40585,-0.0865 -2.5934,-0.25853 -3.58081,-0.51872 -2.49288,-0.6569 -4.02701,-1.83599 -4.59513,-3.5317 l -0.10529,-0.31428 -0.009,-5.02963 c -0.009,-5.28785 -0.003,-5.5503 0.14556,-6.17548 0.092,-0.38761 0.31727,-0.95477 0.51338,-1.2928 0.69654,-1.20054 1.84048,-1.94564 3.60932,-2.3509 l 0.38811,-0.0889 2.84105,-0.002 c 1.56258,-10e-4 4.10668,-0.0153 5.65355,-0.0315 2.68383,-0.0281 2.82997,-0.0329 3.19444,-0.10504 0.44898,-0.0889 1.19877,-0.32899 1.49357,-0.47826 1.05135,-0.53232 1.85673,-1.44844 2.35811,-2.68235 0.11777,-0.28983 0.31709,-1.02466 0.36495,-1.34544 0.0207,-0.13874 0.0452,-0.63093 0.0544,-1.09375 0.0197,-0.98643 0.0513,-3.59079 0.0516,-4.25297 l 3.5e-4,-0.46007 2.04759,0 2.04759,0 0.42566,0.13978 c 0.49722,0.16327 0.88398,0.34493 1.23151,0.57842 0.86671,0.58232 1.52956,1.3826 2.09414,2.52833 0.31305,0.63528 0.53713,1.25792 0.73102,2.03125 0.33111,1.3206 0.3567,1.69347 0.33725,4.9132 -0.0142,2.34369 -0.0186,2.48656 -0.0908,2.89691 -0.13482,0.76652 -0.34621,1.53607 -0.59831,2.17811 -0.67051,1.70767 -1.65375,2.88475 -2.97921,3.56657 -0.45973,0.23649 -1.13627,0.46828 -1.48885,0.51011 -0.27884,0.0331 -7.92778,0.0919 -12.88084,0.099 l -1.88368,0.003 0,0.65972 0,0.65972 0.37327,0.005 c 0.20529,0.003 2.38107,0.0145 4.83507,0.026 l 4.4618,0.021 0,2.60417 0,2.60417 -0.0974,0.27778 c -0.17398,0.49607 -0.34679,0.75544 -0.82273,1.23478 -0.58522,0.58942 -1.04861,0.89249 -1.89916,1.24211 -1.64873,0.67773 -3.99632,1.0232 -6.84725,1.00765 -0.50805,-0.003 -1.12685,-0.0175 -1.37511,-0.0328 z m 7.14041,-3.06747 c 0.38839,-0.0693 0.69137,-0.22715 0.96423,-0.50245 0.44247,-0.44643 0.61873,-1.04804 0.47204,-1.61121 -0.33973,-1.30432 -1.89654,-1.78355 -2.85846,-0.87992 -0.23623,0.22192 -0.39669,0.46734 -0.49402,0.75562 -0.0628,0.18594 -0.0724,0.27783 -0.0595,0.56897 0.0181,0.41001 0.0798,0.60638 0.29022,0.92438 0.24564,0.37116 0.65173,0.63709 1.13221,0.74142 0.27371,0.0594 0.23912,0.0592 0.55331,0.003 z m -20.64735,-7.03295 c -0.65503,-0.0644 -1.50149,-0.43211 -2.1875,-0.95013 -1.99767,-1.50849 -3.08368,-4.86255 -2.99228,-9.24146 0.0488,-2.33905 0.33667,-3.93724 0.97556,-5.41667 0.78714,-1.8227 1.98815,-3.00319 3.59999,-3.53848 0.79277,-0.26328 0.0515,-0.23953 8.15631,-0.26136 4.00087,-0.0108 7.29384,-0.0322 7.31771,-0.0477 0.0322,-0.0208 0.0434,-0.1969 0.0434,-0.6815 l 0,-0.65341 -4.83889,-0.0259 -4.83889,-0.0259 -0.0236,-2.08771 c -0.025,-2.21058 0.002,-3.11661 0.0994,-3.38903 0.0857,-0.23845 0.31298,-0.64211 0.49561,-0.88008 0.79122,-1.03099 2.26797,-1.77844 4.33205,-2.19265 1.27004,-0.25487 2.34681,-0.35783 4.0625,-0.38846 3.29851,-0.0589 5.78073,0.35174 7.59219,1.25598 0.88925,0.4439 1.67119,1.08316 2.10185,1.71833 0.17908,0.26411 0.42859,0.79312 0.55253,1.17147 l 0.11802,0.36029 -0.002,4.34696 c -10e-4,2.39084 -0.0152,4.8001 -0.0312,5.35392 -0.0265,0.9138 -0.0374,1.03745 -0.11731,1.3368 -0.10929,0.40934 -0.28104,0.89942 -0.39547,1.12847 -0.29212,0.58474 -0.91483,1.28677 -1.46789,1.65488 -0.65926,0.43878 -1.5371,0.78531 -2.30903,0.9115 -0.50253,0.0821 -1.01752,0.0923 -6.37153,0.12569 -3.17712,0.0198 -5.21716,0.0458 -5.43403,0.0692 -0.59788,0.0646 -1.2663,0.26736 -1.78676,0.54209 -1.2241,0.64615 -2.07482,1.75751 -2.50448,3.27178 -0.19186,0.67616 -0.20528,0.88205 -0.22441,3.44221 -0.01,1.28907 -0.0264,2.51953 -0.0373,2.73438 l -0.0198,0.39062 -1.81081,-0.005 c -0.99595,-0.003 -1.92019,-0.0159 -2.05387,-0.029 z m 9.63001,-23.26237 c 0.79273,-0.0918 1.49846,-0.89412 1.49846,-1.70352 0,-0.57505 -0.42624,-1.28618 -0.92112,-1.53678 -0.5795,-0.29346 -1.24982,-0.26617 -1.77332,0.0722 -0.48364,0.31259 -0.81148,0.9043 -0.81148,1.4646 0,0.80089 0.63986,1.56597 1.42258,1.70099 0.21199,0.0366 0.2882,0.0369 0.58488,0.003 z"
         id="path6150"
         inkscape:connector-curvature="0" />
      <path
         style="fill:#336fa1"
         d="m 325.7276,695.28639 c -0.65503,-0.0644 -1.50149,-0.43211 -2.1875,-0.95013 -1.99767,-1.50849 -3.08368,-4.86255 -2.99228,-9.24146 0.0488,-2.33905 0.33667,-3.93724 0.97556,-5.41667 0.78714,-1.8227 1.98815,-3.00319 3.59999,-3.53848 0.79277,-0.26328 0.0515,-0.23953 8.15631,-0.26136 4.00087,-0.0108 7.29384,-0.0322 7.31771,-0.0477 0.0322,-0.0208 0.0434,-0.1969 0.0434,-0.6815 l 0,-0.65341 -4.83889,-0.0259 -4.83889,-0.0259 -0.0236,-2.08771 c -0.025,-2.21058 0.002,-3.11661 0.0994,-3.38903 0.0857,-0.23845 0.31298,-0.64211 0.49561,-0.88008 0.79122,-1.03099 2.26797,-1.77844 4.33205,-2.19265 1.27004,-0.25487 2.34681,-0.35783 4.0625,-0.38846 3.29851,-0.0589 5.78073,0.35174 7.59219,1.25598 0.88925,0.4439 1.67119,1.08316 2.10185,1.71833 0.17908,0.26411 0.42859,0.79312 0.55253,1.17147 l 0.11802,0.36029 -0.002,4.34696 c -10e-4,2.39084 -0.0152,4.8001 -0.0312,5.35392 -0.0265,0.9138 -0.0374,1.03745 -0.11731,1.3368 -0.10929,0.40934 -0.28104,0.89942 -0.39547,1.12847 -0.29212,0.58474 -0.91483,1.28677 -1.46789,1.65488 -0.65926,0.43878 -1.5371,0.78531 -2.30903,0.9115 -0.50253,0.0821 -1.01752,0.0923 -6.37153,0.12569 -3.17712,0.0198 -5.21716,0.0458 -5.43403,0.0692 -0.59788,0.0646 -1.2663,0.26736 -1.78676,0.54209 -1.2241,0.64615 -2.07482,1.75751 -2.50448,3.27178 -0.19186,0.67616 -0.20528,0.88205 -0.22441,3.44221 -0.01,1.28907 -0.0264,2.51953 -0.0373,2.73438 l -0.0198,0.39062 -1.81081,-0.005 c -0.99595,-0.003 -1.92019,-0.0159 -2.05387,-0.029 z m 9.63001,-23.26237 c 0.79273,-0.0918 1.49846,-0.89412 1.49846,-1.70352 0,-0.57505 -0.42624,-1.28618 -0.92112,-1.53678 -0.5795,-0.29346 -1.24982,-0.26617 -1.77332,0.0722 -0.48364,0.31259 -0.81148,0.9043 -0.81148,1.4646 0,0.80089 0.63986,1.56597 1.42258,1.70099 0.21199,0.0366 0.2882,0.0369 0.58488,0.003 z"
         id="path6148"
         inkscape:connector-curvature="0" />
    </g>
  </g>
</svg>
