<?xml version="1.0" encoding="UTF-8" standalone="no"?>
<!-- Created with Inkscape (http://www.inkscape.org/) -->

<svg
   xmlns:dc="http://purl.org/dc/elements/1.1/"
   xmlns:cc="http://creativecommons.org/ns#"
   xmlns:rdf="http://www.w3.org/1999/02/22-rdf-syntax-ns#"
   xmlns:svg="http://www.w3.org/2000/svg"
   xmlns="http://www.w3.org/2000/svg"
   xmlns:sodipodi="http://sodipodi.sourceforge.net/DTD/sodipodi-0.dtd"
   xmlns:inkscape="http://www.inkscape.org/namespaces/inkscape"
   width="11.288888mm"
   height="11.269289mm"
   viewBox="0 0 39.999995 39.930552"
   id="svg4688"
   version="1.1"
   inkscape:version="0.91 r13725"
   sodipodi:docname="PythonLogo40.svg">
  <defs
     id="defs4690" />
  <sodipodi:namedview
     id="base"
     pagecolor="#ffffff"
     bordercolor="#666666"
     borderopacity="1.0"
     inkscape:pageopacity="0.0"
     inkscape:pageshadow="2"
     inkscape:zoom="0.98994949"
     inkscape:cx="-218.29403"
     inkscape:cy="-37.167702"
     inkscape:document-units="px"
     inkscape:current-layer="layer1"
     showgrid="false"
     inkscape:window-width="1366"
     inkscape:window-height="715"
     inkscape:window-x="0"
     inkscape:window-y="0"
     inkscape:window-maximized="1"
     fit-margin-top="0"
     fit-margin-left="0"
     fit-margin-right="0"
     fit-margin-bottom="0" />
  <metadata
     id="metadata4693">
    <rdf:RDF>
      <cc:Work
         rdf:about="">
        <dc:format>image/svg+xml</dc:format>
        <dc:type
           rdf:resource="http://purl.org/dc/dcmitype/StillImage" />
        <dc:title></dc:title>
      </cc:Work>
    </rdf:RDF>
  </metadata>
  <g
     inkscape:label="Layer 1"
     inkscape:groupmode="layer"
     id="layer1"
     transform="translate(-322.04725,-253.29847)">
    <g
       id="g6146"
       transform="matrix(0.03472222,0,0,0.03472222,426.89348,269.85831)"
       style="opacity:0.98000004">
      <path
         style="fill:#fefefe"
         d="m -3019.5715,98.07648 0,-575 576,0 576,0 0,575 0,575 -576,0 -576,0 0,-575 z"
         id="path6152"
         inkscape:connector-curvature="0" />
      <path
         style="fill:#fccf40"
         d="m -2481.0715,671.98638 c -40.4884,-2.4912 -74.69,-7.4456 -103.1272,-14.9391 -71.7952,-18.9186 -115.9781,-52.8764 -132.3399,-101.713 l -3.0323,-9.0511 -0.2486,-144.85335 c -0.2614,-152.29009 -0.083,-159.84869 4.1922,-177.85393 2.6508,-11.16327 9.1372,-27.49734 14.7854,-37.23255 20.0602,-34.57572 53.0057,-56.03455 103.9482,-67.70594 l 11.1777,-2.56093 81.8223,-0.0592 c 45.0022,-0.0326 118.2722,-0.4403 162.8222,-0.90609 77.2943,-0.80815 81.5032,-0.94655 92,-3.02504 12.9306,-2.56044 34.5245,-9.47505 43.0147,-13.77382 30.2789,-15.33082 53.4738,-41.71503 67.9137,-77.25179 3.3917,-8.34711 9.1321,-29.51015 10.5104,-38.74876 0.5962,-3.99558 1.3012,-18.17058 1.5669,-31.5 0.5661,-28.40907 1.4768,-103.41472 1.4871,-122.48531 l 0.01,-13.24999 58.9706,0 58.9706,0 12.2591,4.02552 c 14.3199,4.70222 25.4585,9.93389 35.4675,16.65864 24.9612,16.77057 44.0512,39.81864 60.3113,72.81584 9.0158,18.29609 15.4692,36.22797 21.0533,58.5 9.5358,38.03331 10.2729,48.77183 9.7127,141.5 -0.4078,67.49852 -0.5368,71.61306 -2.6155,83.43108 -3.883,22.07579 -9.971,44.23891 -17.2314,62.72968 -19.3107,49.18079 -47.6279,83.08077 -85.8011,102.71706 -13.2405,6.81091 -32.7246,13.48656 -42.8791,14.69123 -8.0304,0.95269 -228.3201,2.64664 -370.968,2.85262 l -54.25,0.0783 0,19 0,19 10.75,0.14628 c 5.9125,0.0804 68.575,0.41795 139.25,0.75 l 128.5,0.60372 0,75 0,75 -2.8056,8 c -5.0104,14.287 -9.9874,21.7568 -23.6944,35.5619 -16.8544,16.9752 -30.2,25.7035 -54.6958,35.7727 -47.4836,19.5186 -115.0942,29.4682 -197.2008,29.0203 -14.6319,-0.08 -32.4534,-0.5051 -39.6034,-0.945 z m 205.6437,-88.343 c 11.1858,-1.995 19.9117,-6.542 27.77,-14.4706 12.7432,-12.8572 17.8193,-30.1835 13.5946,-46.403 -9.7842,-37.56429 -54.6201,-51.36613 -82.3235,-25.34166 -6.8035,6.39122 -11.4246,13.45932 -14.2279,21.76179 -1.8081,5.35507 -2.085,8.00167 -1.7145,16.38657 0.5219,11.8083 2.2974,17.4636 8.3585,26.622 7.0743,10.6893 18.7698,18.3481 32.6077,21.3529 7.8827,1.7117 6.8865,1.7059 15.9351,0.092 z m -594.6437,-202.54899 c -18.8648,-1.85628 -43.2428,-12.44482 -63,-27.36398 -57.5329,-43.4445 -88.8098,-140.04117 -86.1775,-266.15393 1.4061,-67.36472 9.6959,-113.39254 28.0961,-156 22.6697,-52.4938 57.2588,-86.49203 103.6796,-101.90834 22.8319,-7.58248 1.4827,-6.89837 234.9018,-7.52723 115.225,-0.31044 210.0625,-0.92849 210.75,-1.37345 0.9271,-0.6 1.25,-5.6708 1.25,-19.62723 l 0,-18.81822 -139.36,-0.74657 -139.36,-0.74657 -0.6803,-60.12619 c -0.7204,-63.66469 0.045,-89.75819 2.8637,-97.60403 2.4671,-6.86739 9.0136,-18.49266 14.2733,-25.34619 22.7873,-29.69264 65.3176,-51.21918 124.7633,-63.14853 36.5769,-7.3401 67.5881,-10.30543 117,-11.18764 94.9969,-1.69609 166.4849,10.1303 218.6549,36.17247 25.6104,12.78417 48.1303,31.19479 60.5335,49.48772 5.1574,7.60653 12.3432,22.84204 15.9126,33.73848 l 3.399,10.3762 -0.057,125.19266 c -0.032,68.85596 -0.4362,138.24266 -0.8992,154.19266 -0.7639,26.31744 -1.0764,29.87877 -3.3783,38.5 -3.1476,11.78896 -8.0939,25.90312 -11.3896,32.5 -8.413,16.84031 -26.3472,37.059 -42.2754,47.66034 -18.9865,12.63686 -44.2683,22.61701 -66.5,26.2513 -14.4729,2.36593 -29.3045,2.6585 -183.5,3.61979 -91.5012,0.57044 -150.2542,1.31876 -156.5,1.99329 -17.2189,1.85958 -36.4695,7.70009 -51.4588,15.61228 -35.254,18.60907 -59.7548,50.61614 -72.1291,94.22718 -5.5254,19.4734 -5.9119,25.40303 -6.4628,99.13582 -0.2774,37.125 -0.7613,72.5625 -1.0755,78.75 l -0.5711,11.25 -52.1514,-0.14665 c -28.6832,-0.0807 -55.3013,-0.45661 -59.1513,-0.83544 z m 277.3444,-669.95638 c 22.8307,-2.64434 43.1556,-25.75067 43.1556,-49.06153 0,-16.56126 -12.2756,-37.04173 -26.5281,-44.2592 -16.6896,-8.45157 -35.9948,-7.66572 -51.0717,2.07894 -13.9288,9.00261 -23.3706,26.04363 -23.3706,42.18026 0,23.06582 18.4278,45.10003 40.9704,48.98853 6.1053,1.05313 8.2999,1.06264 16.8444,0.073 z"
         id="path6150"
         inkscape:connector-curvature="0" />
      <path
         style="fill:#336fa1"
         d="m -2870.0715,381.09439 c -18.8648,-1.85628 -43.2428,-12.44482 -63,-27.36398 -57.5329,-43.4445 -88.8098,-140.04117 -86.1775,-266.15393 1.4061,-67.36472 9.6959,-113.39254 28.0961,-156 22.6697,-52.4938 57.2588,-86.49203 103.6796,-101.90834 22.8319,-7.58248 1.4827,-6.89837 234.9018,-7.52723 115.225,-0.31044 210.0625,-0.92849 210.75,-1.37345 0.9271,-0.6 1.25,-5.6708 1.25,-19.62723 l 0,-18.81822 -139.36,-0.74657 -139.36,-0.74657 -0.6803,-60.12619 c -0.7204,-63.66469 0.045,-89.75819 2.8637,-97.60403 2.4671,-6.86739 9.0136,-18.49266 14.2733,-25.34619 22.7873,-29.69264 65.3176,-51.21918 124.7633,-63.14853 36.5769,-7.3401 67.5881,-10.30543 117,-11.18764 94.9969,-1.69609 166.4849,10.1303 218.6549,36.17247 25.6104,12.78417 48.1303,31.19479 60.5335,49.48772 5.1574,7.60653 12.3432,22.84204 15.9126,33.73848 l 3.399,10.3762 -0.057,125.19266 c -0.032,68.85596 -0.4362,138.24266 -0.8992,154.19266 -0.7639,26.31744 -1.0764,29.87877 -3.3783,38.5 -3.1476,11.78896 -8.0939,25.90312 -11.3896,32.5 -8.413,16.84031 -26.3472,37.059 -42.2754,47.66034 -18.9865,12.63686 -44.2683,22.61701 -66.5,26.2513 -14.4729,2.36593 -29.3045,2.6585 -183.5,3.61979 -91.5012,0.57044 -150.2542,1.31876 -156.5,1.99329 -17.2189,1.85958 -36.4695,7.70009 -51.4588,15.61228 -35.254,18.60907 -59.7548,50.61614 -72.1291,94.22718 -5.5254,19.4734 -5.9119,25.40303 -6.4628,99.13582 -0.2774,37.125 -0.7613,72.5625 -1.0755,78.75 l -0.5711,11.25 -52.1514,-0.14665 c -28.6832,-0.0807 -55.3013,-0.45661 -59.1513,-0.83544 z m 277.3444,-669.95638 c 22.8307,-2.64434 43.1556,-25.75067 43.1556,-49.06153 0,-16.56126 -12.2756,-37.04173 -26.5281,-44.2592 -16.6896,-8.45157 -35.9948,-7.66572 -51.0717,2.07894 -13.9288,9.00261 -23.3706,26.04363 -23.3706,42.18026 0,23.06582 18.4278,45.10003 40.9704,48.98853 6.1053,1.05313 8.2999,1.06264 16.8444,0.073 z"
         id="path6148"
         inkscape:connector-curvature="0" />
    </g>
  </g>
</svg>
