<?xml version="1.0" encoding="UTF-8" standalone="no"?>
<!-- Created with Inkscape (http://www.inkscape.org/) -->

<svg
   xmlns:dc="http://purl.org/dc/elements/1.1/"
   xmlns:cc="http://creativecommons.org/ns#"
   xmlns:rdf="http://www.w3.org/1999/02/22-rdf-syntax-ns#"
   xmlns:svg="http://www.w3.org/2000/svg"
   xmlns="http://www.w3.org/2000/svg"
   xmlns:sodipodi="http://sodipodi.sourceforge.net/DTD/sodipodi-0.dtd"
   xmlns:inkscape="http://www.inkscape.org/namespaces/inkscape"
   width="16.933332mm"
   height="19.552929mm"
   viewBox="0 0 59.999994 69.28203"
   id="svg4688"
   version="1.1"
   inkscape:version="0.91 r13725"
   sodipodi:docname="TBotSoildIcon60.svg">
  <defs
     id="defs4690" />
  <sodipodi:namedview
     id="base"
     pagecolor="#ffffff"
     bordercolor="#666666"
     borderopacity="1.0"
     inkscape:pageopacity="0.0"
     inkscape:pageshadow="2"
     inkscape:zoom="2.8"
     inkscape:cx="64.749309"
     inkscape:cy="0.063793504"
     inkscape:document-units="px"
     inkscape:current-layer="layer1"
     showgrid="false"
     inkscape:window-width="1366"
     inkscape:window-height="715"
     inkscape:window-x="0"
     inkscape:window-y="0"
     inkscape:window-maximized="1"
     fit-margin-top="0"
     fit-margin-left="0"
     fit-margin-right="0"
     fit-margin-bottom="0" />
  <metadata
     id="metadata4693">
    <rdf:RDF>
      <cc:Work
         rdf:about="">
        <dc:format>image/svg+xml</dc:format>
        <dc:type
           rdf:resource="http://purl.org/dc/dcmitype/StillImage" />
        <dc:title></dc:title>
      </cc:Work>
    </rdf:RDF>
  </metadata>
  <g
     inkscape:label="Layer 1"
     inkscape:groupmode="layer"
     id="layer1"
     transform="translate(-312.50489,-650.27)">
    <path
       sodipodi:type="star"
       style="opacity:0.98000004;fill:none;fill-opacity:0.98039216;stroke:#828282;stroke-width:4.03952217;stroke-linecap:round;stroke-linejoin:miter;stroke-miterlimit:4;stroke-dasharray:none;stroke-dashoffset:0;stroke-opacity:1"
       id="path4138"
       sodipodi:sides="6"
       sodipodi:cx="342.50488"
       sodipodi:cy="684.91101"
       sodipodi:r1="32.308796"
       sodipodi:r2="27.947109"
       sodipodi:arg1="0.52359878"
       sodipodi:arg2="1.0471976"
       inkscape:flatsided="true"
       inkscape:rounded="0"
       inkscape:randomized="0"
       d="m 370.48512,701.06541 -27.98024,16.1544 -27.98024,-16.1544 0,-32.3088 27.98024,-16.1544 27.98024,16.1544 z" />
    <path
       style="color:#000000;font-style:normal;font-variant:normal;font-weight:normal;font-stretch:normal;font-size:medium;line-height:normal;font-family:sans-serif;text-indent:0;text-align:start;text-decoration:none;text-decoration-line:none;text-decoration-style:solid;text-decoration-color:#000000;letter-spacing:normal;word-spacing:normal;text-transform:none;direction:ltr;block-progression:tb;writing-mode:lr-tb;baseline-shift:baseline;text-anchor:start;white-space:normal;clip-rule:nonzero;display:inline;overflow:visible;visibility:visible;opacity:1;isolation:auto;mix-blend-mode:normal;color-interpolation:sRGB;color-interpolation-filters:linearRGB;solid-color:#000000;solid-opacity:1;fill:#2479c7;fill-opacity:0.94509804;fill-rule:nonzero;stroke:none;stroke-width:5.58658838;stroke-linecap:butt;stroke-linejoin:round;stroke-miterlimit:4;stroke-dasharray:none;stroke-dashoffset:0;stroke-opacity:1;color-rendering:auto;image-rendering:auto;shape-rendering:auto;text-rendering:auto;enable-background:accumulate"
       d="M 24.806641 19.410156 C 22.25518 19.446948 19.735407 19.681347 17.224609 19.949219 C 16.907609 19.983019 16.671891 20.255579 16.681641 20.574219 L 17.050781 32.734375 C 17.061081 33.071695 17.342417 33.335629 17.679688 33.324219 L 24 33.109375 C 23.9832 34.260155 23.866243 37.621011 23.751953 41.650391 C 23.343973 41.633191 22.935364 41.616909 22.527344 41.599609 L 22.757812 39.150391 C 22.785413 38.812081 22.530016 38.517781 22.191406 38.494141 L 19.330078 38.294922 C 18.935768 38.267722 18.618377 38.616359 18.685547 39.005859 C 19.265647 42.357859 18.784067 46.093361 18.179688 49.144531 C 18.103487 49.529921 18.406218 49.886747 18.798828 49.873047 L 22.101562 49.755859 C 22.440644 49.743759 22.70329 49.456118 22.6875 49.117188 L 22.503906 45.550781 L 23.607422 45.421875 L 23.496094 47.048828 C 23.475394 47.419238 23.788593 47.723286 24.158203 47.691406 L 36.71875 46.609375 C 37.10764 46.575875 37.365667 46.190549 37.248047 45.818359 L 36.455078 43.324219 L 37.820312 43.324219 L 38.632812 46.773438 C 38.711313 47.094088 39.030826 47.294249 39.353516 47.224609 L 42.837891 46.472656 C 43.244541 46.384656 43.446445 45.922403 43.234375 45.564453 C 41.329165 42.348433 40.458889 39.673792 39.568359 36.138672 C 39.480059 35.789042 39.110614 35.592264 38.771484 35.714844 L 36.474609 36.544922 C 36.173729 36.653672 36.008503 36.977336 36.095703 37.285156 L 36.779297 39.701172 L 35.515625 39.78125 L 33.998047 33.839844 L 39.314453 34.796875 C 39.646583 34.856675 39.964778 34.635074 40.023438 34.302734 L 42.0625 22.742188 C 42.1152 22.442587 41.939871 22.150151 41.650391 22.056641 C 39.512831 21.366291 37.349238 20.866236 35.173828 20.429688 C 35.134228 20.421686 35.095067 20.417969 35.054688 20.417969 L 35.113281 20.417969 L 33.560547 20.105469 C 33.555547 20.104679 33.549822 20.103516 33.544922 20.103516 C 30.625042 19.592796 27.727767 19.529076 24.841797 19.410156 L 24.841797 19.412109 C 24.833797 19.411449 24.824706 19.411366 24.816406 19.410156 C 24.814006 19.410252 24.810994 19.410017 24.808594 19.410156 L 24.806641 19.410156 z M 23.234375 23.068359 A 3.3461304 3.3461304 0 0 1 26.580078 26.414062 A 3.3461304 3.3461304 0 0 1 23.234375 29.759766 A 3.3461304 3.3461304 0 0 1 19.886719 26.414062 A 3.3461304 3.3461304 0 0 1 23.234375 23.068359 z M 33.902344 23.634766 A 3.3461304 3.3461304 0 0 1 37.25 26.982422 A 3.3461304 3.3461304 0 0 1 33.902344 30.328125 A 3.3461304 3.3461304 0 0 1 30.556641 26.982422 A 3.3461304 3.3461304 0 0 1 33.902344 23.634766 z "
       transform="translate(312.50489,650.27)"
       id="line10-0-3" />
  </g>
</svg>
