<?xml version="1.0" encoding="UTF-8" standalone="no"?>
<!-- Created with Inkscape (http://www.inkscape.org/) -->

<svg
   xmlns:dc="http://purl.org/dc/elements/1.1/"
   xmlns:cc="http://creativecommons.org/ns#"
   xmlns:rdf="http://www.w3.org/1999/02/22-rdf-syntax-ns#"
   xmlns:svg="http://www.w3.org/2000/svg"
   xmlns="http://www.w3.org/2000/svg"
   xmlns:sodipodi="http://sodipodi.sourceforge.net/DTD/sodipodi-0.dtd"
   xmlns:inkscape="http://www.inkscape.org/namespaces/inkscape"
   width="16.933332mm"
   height="19.439043mm"
   viewBox="0 0 59.999996 68.878498"
   id="svg2"
   version="1.1"
   inkscape:version="0.91 r13725"
   sodipodi:docname="ToolsIcon60.svg">
  <defs
     id="defs4" />
  <sodipodi:namedview
     id="base"
     pagecolor="#ffffff"
     bordercolor="#666666"
     borderopacity="1.0"
     inkscape:pageopacity="0.0"
     inkscape:pageshadow="2"
     inkscape:zoom="1.4"
     inkscape:cx="148.12074"
     inkscape:cy="83.742619"
     inkscape:document-units="px"
     inkscape:current-layer="layer1"
     showgrid="false"
     inkscape:window-width="1366"
     inkscape:window-height="715"
     inkscape:window-x="0"
     inkscape:window-y="0"
     inkscape:window-maximized="1"
     fit-margin-top="0"
     fit-margin-left="0"
     fit-margin-right="0"
     fit-margin-bottom="0"
     showguides="false">
    <sodipodi:guide
       position="-210.50482,672.37267"
       orientation="1,0"
       id="guide15446" />
  </sodipodi:namedview>
  <metadata
     id="metadata7">
    <rdf:RDF>
      <cc:Work
         rdf:about="">
        <dc:format>image/svg+xml</dc:format>
        <dc:type
           rdf:resource="http://purl.org/dc/dcmitype/StillImage" />
        <dc:title></dc:title>
      </cc:Work>
    </rdf:RDF>
  </metadata>
  <g
     inkscape:label="Layer 1"
     inkscape:groupmode="layer"
     id="layer1"
     transform="translate(-101.75416,-485.55197)">
    <path
       inkscape:tile-y0="-519.70982"
       inkscape:tile-x0="-200.87787"
       transform="matrix(0,0.70933116,-0.71022731,0,396.76282,436.8609)"
       d="m 151.37251,392.86436 -11.49648,19.5519 -22.68068,0.1803 -22.680682,-0.1803 -11.496478,-19.5519 -11.184202,-19.73219 11.184202,-19.73219 11.496481,-19.5519 22.680679,-0.18029 22.68068,0.18029 11.49648,19.5519 11.1842,19.73219 z"
       inkscape:randomized="0"
       inkscape:rounded="0"
       inkscape:flatsided="false"
       sodipodi:arg2="1.0471976"
       sodipodi:arg1="0.52359878"
       sodipodi:r2="45.361362"
       sodipodi:r1="39.464386"
       sodipodi:cy="373.13217"
       sodipodi:cx="117.19535"
       sodipodi:sides="6"
       id="use9558"
       style="opacity:1;fill:none;fill-opacity:1;stroke:#828282;stroke-width:5.55104828;stroke-linecap:round;stroke-linejoin:miter;stroke-miterlimit:4;stroke-dasharray:none;stroke-dashoffset:0;stroke-opacity:1"
       sodipodi:type="star"
       inkscape:export-ydpi="300"
       inkscape:export-xdpi="300" />
    <path
       inkscape:connector-curvature="0"
       id="path8395-7"
       d="m 117.31108,537.22517 c -1.23278,-0.17468 -2.25284,-0.90722 -2.83029,-2.03255 -0.55046,-1.07272 -0.46019,-2.48747 0.22582,-3.53889 0.13919,-0.21335 1.69573,-1.77216 5.89108,-5.89971 3.13604,-3.08538 5.73288,-5.60977 5.77074,-5.60977 0.0752,0 5.17633,4.99054 5.17633,5.06402 0,0.0248 -2.59985,2.5952 -5.77747,5.71207 -5.29321,5.19205 -5.806,5.68255 -6.11798,5.85206 -0.42337,0.23003 -0.91374,0.39185 -1.37671,0.45432 -0.40067,0.0541 -0.57093,0.0538 -0.96152,-0.002 z m 1.9069,-1.90968 c 0.12531,-0.0576 1.62698,-1.50611 4.84364,-4.67197 4.14566,-4.08018 4.66544,-4.60692 4.69286,-4.75568 0.0487,-0.26402 -0.0136,-0.47138 -0.20088,-0.66863 -0.14604,-0.15382 -0.20338,-0.18245 -0.40318,-0.20131 -0.12812,-0.0121 -0.29022,-0.008 -0.36025,0.009 -0.17705,0.0424 -9.37765,9.07375 -9.50402,9.32924 -0.1807,0.36532 -0.0515,0.75187 0.3147,0.9417 0.24079,0.12481 0.37671,0.12882 0.61713,0.0182 z m -2.27011,-2.10418 c 0.15722,-0.0415 0.80514,-0.65969 4.82711,-4.60577 2.62341,-2.57393 4.68368,-4.62992 4.73322,-4.72338 0.15343,-0.28958 0.0895,-0.61143 -0.16778,-0.84523 -0.12834,-0.11659 -0.42652,-0.22596 -0.5311,-0.1948 -0.0294,0.009 -0.11466,0.0289 -0.18959,0.0446 -0.10306,0.0218 -1.26654,1.13794 -4.78179,4.58744 -2.62625,2.57714 -4.68368,4.63066 -4.73321,4.72422 -0.2132,0.40273 6.1e-4,0.88394 0.45328,1.01863 0.16335,0.0487 0.1848,0.0483 0.38986,-0.006 z m 17.48014,-15.96655 -0.72519,-0.71358 3.74804,-3.6917 c 4.00462,-3.94439 3.89123,-3.8215 4.48912,-4.86544 0.286,-0.49939 0.64751,-1.246 0.96104,-1.98489 0.12696,-0.29921 0.26447,-0.57638 0.30557,-0.61593 0.11157,-0.10737 4.50444,-2.64008 4.6126,-2.6594 0.0703,-0.0125 0.26492,0.15277 0.79256,0.67328 l 0.69937,0.68991 -0.25676,0.4387 c -0.14122,0.24129 -0.76318,1.28004 -1.38215,2.30835 l -1.12538,1.86963 -0.27069,0.11152 c -0.75143,0.30955 -1.82334,0.80169 -2.26838,1.04146 -1.12641,0.60684 -0.97119,0.46956 -5.01762,4.43776 -2.06048,2.02066 -3.76672,3.67392 -3.79164,3.67392 -0.0248,0 -0.37164,-0.32112 -0.77049,-0.71359 z"
       style="fill:#247bc7;fill-opacity:1;stroke:#247bc7;stroke-width:0.60817671;stroke-opacity:1"
       sodipodi:nodetypes="cscsssssccccscccccccccsscccsccccscsscccsccsccssss" />
    <path
       inkscape:connector-curvature="0"
       id="path8395-4-9"
       d="m 143.06024,537.79769 c -0.80118,-0.11587 -1.59864,-0.36364 -2.37455,-0.73775 -1.50278,-0.72461 -2.59765,-2.08566 -2.91941,-3.62916 -0.0796,-0.38179 -0.0663,-1.22383 0.026,-1.65059 0.0425,-0.19628 0.14697,-0.53455 0.23218,-0.7517 0.27057,-0.68942 0.48116,-0.39415 -2.10335,-2.94906 -5.86014,-5.79298 -10.09201,-9.9542 -12.27708,-12.07205 -2.73319,-2.64914 -2.41365,-2.42774 -3.12093,-2.16254 -0.54121,0.20293 -1.04088,0.29194 -1.63883,0.29194 -1.35149,0 -2.67766,-0.49832 -3.62896,-1.36363 -0.63931,-0.58151 -1.25241,-1.5446 -1.43222,-2.24981 -0.10584,-0.41513 -0.13839,-1.1566 -0.0736,-1.67746 0.0891,-0.7164 0.16685,-0.90994 0.3656,-0.90994 0.0458,0 0.68283,0.36847 1.41559,0.81884 0.73275,0.45035 1.44465,0.88043 1.58198,0.95574 0.85877,0.47082 1.6269,0.33905 2.38743,-0.40958 0.91709,-0.90272 1.42456,-2.04044 1.28633,-2.88383 -0.10203,-0.62243 -0.37265,-0.9446 -1.24471,-1.48183 -0.99754,-0.61449 -2.40289,-1.53095 -2.46978,-1.61057 -0.14742,-0.1755 0.14272,-0.4418 0.83801,-0.76908 0.64293,-0.30265 1.08625,-0.39348 1.92688,-0.39479 0.7971,-9.8e-4 1.32086,0.0888 2.07425,0.35681 1.67407,0.59542 2.77113,1.5151 3.44494,2.88797 0.54814,1.11684 0.59324,2.3456 0.12945,3.52737 -0.0852,0.21716 -0.15494,0.46792 -0.15494,0.55726 0,0.15653 0.30798,0.46507 8.45623,8.4715 8.26346,8.11964 8.46015,8.30906 8.62794,8.30906 0.0945,0 0.3294,-0.0595 0.52211,-0.13232 0.69062,-0.26079 0.87358,-0.29113 1.73519,-0.28781 0.70743,0.003 0.84292,0.0159 1.23588,0.11947 1.05224,0.27755 1.76773,0.66952 2.46239,1.34901 0.66741,0.65285 1.12602,1.39134 1.31592,2.11899 0.1159,0.44411 0.13949,1.22681 0.0548,1.81746 -0.0837,0.58408 -0.16218,0.76994 -0.32481,0.76994 -0.0651,0 -0.54214,-0.26569 -1.14524,-0.63784 -2.09048,-1.28994 -2.33886,-1.41423 -2.82633,-1.41423 -0.71135,0 -1.45319,0.51992 -2.06868,1.44984 -0.70424,1.06401 -0.85822,1.89581 -0.48833,2.63803 0.14736,0.29569 0.48723,0.61478 0.94447,0.88673 0.58392,0.34726 2.44235,1.54157 2.5539,1.64123 0.13478,0.12043 0.1291,0.1763 -0.0368,0.36201 -0.18736,0.20966 -1.04479,0.62259 -1.54089,0.74206 -0.37563,0.0905 -1.41489,0.15248 -1.74799,0.10431 z m -3.31438,-9.55912 c 0.42107,-0.19094 0.58473,-0.60138 0.40671,-1.02 -0.0493,-0.1157 -2.36721,-2.4232 -7.79788,-7.76253 -4.25032,-4.17883 -7.79865,-7.64155 -7.88517,-7.69491 -0.1933,-0.11924 -0.54961,-0.12836 -0.75975,-0.0195 -0.0799,0.0415 -0.20245,0.149 -0.27241,0.23913 -0.10754,0.13853 -0.1272,0.20636 -0.1272,0.43881 0,0.22719 0.0216,0.30526 0.12409,0.44957 0.0683,0.096 3.60284,3.59096 7.85463,7.7665 6.16461,6.05403 7.76273,7.6007 7.88945,7.6355 0.2388,0.0656 0.36726,0.0582 0.56753,-0.0326 z"
       style="fill:#828282;fill-opacity:1;stroke:#828282;stroke-width:0.60817671;stroke-opacity:1"
       sodipodi:nodetypes="cscccssssssssssssscscsscssscccsscssssscscsccsscccscsccc" />
  </g>
</svg>
