<?xml version="1.0" encoding="utf-8" standalone="no"?>
<!DOCTYPE svg PUBLIC "-//W3C//DTD SVG 1.1//EN"
  "http://www.w3.org/Graphics/SVG/1.1/DTD/svg11.dtd">
<!-- Created with matplotlib (http://matplotlib.org/) -->
<svg height="288pt" version="1.1" viewBox="0 0 720 288" width="720pt" xmlns="http://www.w3.org/2000/svg" xmlns:xlink="http://www.w3.org/1999/xlink">
 <defs>
  <style type="text/css">
*{stroke-linecap:butt;stroke-linejoin:round;stroke-miterlimit:100000;}
  </style>
 </defs>
 <g id="figure_1">
  <g id="patch_1">
   <path d="M 0 288 
L 720 288 
L 720 0 
L 0 0 
z
" style="fill:#ffffff;"/>
  </g>
  <g id="axes_1">
   <g id="patch_2">
    <path d="M 90 244.8 
L 648 244.8 
L 648 28.8 
L 90 28.8 
z
" style="fill:#ffffff;"/>
   </g>
   <g id="line2d_1">
    <path clip-path="url(#pa21484418a)" d="M 90 30.158491 
L 92.80402 31.516981 
L 95.60804 30.158491 
L 98.41206 31.516981 
L 101.21608 30.158491 
L 106.824121 30.158491 
L 109.628141 31.516981 
L 112.432161 31.516981 
L 115.236181 30.158491 
L 118.040201 30.158491 
L 120.844221 31.516981 
L 123.648241 31.516981 
L 126.452261 30.158491 
L 132.060302 30.158491 
L 134.864322 31.516981 
L 137.668342 31.516981 
L 140.472362 30.158491 
L 143.276382 31.516981 
L 146.080402 31.516981 
L 148.884422 30.158491 
L 154.492462 30.158491 
L 157.296482 28.8 
L 160.100503 30.158491 
L 162.904523 121.177358 
L 165.708543 123.89434 
L 168.512563 129.328302 
L 174.120603 134.762264 
L 176.924623 138.837736 
L 179.728643 140.196226 
L 185.336683 140.196226 
L 188.140704 136.120755 
L 190.944724 138.837736 
L 199.356784 138.837736 
L 202.160804 142.913208 
L 204.964824 244.8 
L 213.376884 244.8 
L 216.180905 142.913208 
L 218.984925 137.479245 
L 221.788945 137.479245 
L 224.592965 141.554717 
L 227.396985 138.837736 
L 230.201005 244.8 
L 238.613065 244.8 
L 241.417085 151.064151 
L 247.025126 153.781132 
L 249.829146 244.8 
L 258.241206 244.8 
L 261.045226 164.649057 
L 263.849246 164.649057 
L 266.653266 167.366038 
L 269.457286 167.366038 
L 272.261307 170.083019 
L 275.065327 170.083019 
L 277.869347 174.158491 
L 289.085427 179.592453 
L 291.889447 182.309434 
L 294.693467 182.309434 
L 297.497487 183.667925 
L 300.301508 186.384906 
L 305.909548 189.101887 
L 308.713568 191.818868 
L 319.929648 197.25283 
L 322.733668 197.25283 
L 325.537688 198.611321 
L 328.341709 202.686792 
L 331.145729 205.403774 
L 333.949749 198.611321 
L 336.753769 208.120755 
L 339.557789 209.479245 
L 345.165829 214.913208 
L 347.969849 216.271698 
L 350.773869 218.988679 
L 353.577889 220.34717 
L 356.38191 223.064151 
L 364.79397 227.139623 
L 367.59799 227.139623 
L 370.40201 229.856604 
L 373.20603 229.856604 
L 376.01005 231.215094 
L 378.81407 233.932075 
L 390.030151 239.366038 
L 404.050251 239.366038 
L 409.658291 236.649057 
L 415.266332 231.215094 
L 418.070352 229.856604 
L 423.678392 224.422642 
L 432.090452 220.34717 
L 437.698492 214.913208 
L 440.502513 213.554717 
L 446.110553 208.120755 
L 448.914573 204.045283 
L 454.522613 198.611321 
L 460.130653 195.89434 
L 462.934673 193.177358 
L 468.542714 190.460377 
L 471.346734 183.667925 
L 474.150754 185.026415 
L 476.954774 244.8 
L 479.758794 244.8 
L 482.562814 178.233962 
L 485.366834 176.875472 
L 488.170854 174.158491 
L 490.974874 244.8 
L 493.778894 244.8 
L 496.582915 168.724528 
L 499.386935 166.007547 
L 502.190955 244.8 
L 510.603015 244.8 
L 513.407035 156.498113 
L 516.211055 244.8 
L 519.015075 244.8 
L 521.819095 149.70566 
L 524.623116 244.8 
L 527.427136 244.8 
L 530.231156 146.988679 
L 533.035176 244.8 
L 541.447236 244.8 
L 544.251256 141.554717 
L 547.055276 244.8 
L 555.467337 244.8 
L 558.271357 144.271698 
L 561.075377 244.8 
L 569.487437 244.8 
L 572.291457 153.781132 
L 575.095477 244.8 
L 577.899497 244.8 
L 580.703518 156.498113 
L 583.507538 161.932075 
L 586.311558 163.290566 
L 589.115578 244.8 
L 591.919598 244.8 
L 594.723618 170.083019 
L 597.527638 171.441509 
L 600.331658 244.8 
L 603.135678 244.8 
L 605.939698 180.950943 
L 611.547739 183.667925 
L 614.351759 244.8 
L 617.155779 244.8 
L 619.959799 191.818868 
L 625.567839 191.818868 
L 628.371859 195.89434 
L 631.175879 195.89434 
L 633.979899 198.611321 
L 636.78392 199.969811 
L 639.58794 204.045283 
L 642.39196 205.403774 
L 645.19598 208.120755 
L 648 209.479245 
L 648 209.479245 
" style="fill:none;stroke:#5b6fbd;stroke-linecap:square;"/>
    <defs>
     <path d="M -1.5 -2.598076 
L -3 -0 
L -1.5 2.598076 
L 1.5 2.598076 
L 3 0 
L 1.5 -2.598076 
z
" id="m634066a5bb" style="stroke:#000000;stroke-linejoin:miter;stroke-width:0.5;"/>
    </defs>
    <g clip-path="url(#pa21484418a)">
     <use style="fill:#5b6fbd;stroke:#000000;stroke-linejoin:miter;stroke-width:0.5;" x="90.0" xlink:href="#m634066a5bb" y="30.158490566"/>
     <use style="fill:#5b6fbd;stroke:#000000;stroke-linejoin:miter;stroke-width:0.5;" x="92.8040201005" xlink:href="#m634066a5bb" y="31.5169811321"/>
     <use style="fill:#5b6fbd;stroke:#000000;stroke-linejoin:miter;stroke-width:0.5;" x="95.608040201" xlink:href="#m634066a5bb" y="30.158490566"/>
     <use style="fill:#5b6fbd;stroke:#000000;stroke-linejoin:miter;stroke-width:0.5;" x="98.4120603015" xlink:href="#m634066a5bb" y="31.5169811321"/>
     <use style="fill:#5b6fbd;stroke:#000000;stroke-linejoin:miter;stroke-width:0.5;" x="101.216080402" xlink:href="#m634066a5bb" y="30.158490566"/>
     <use style="fill:#5b6fbd;stroke:#000000;stroke-linejoin:miter;stroke-width:0.5;" x="104.020100503" xlink:href="#m634066a5bb" y="30.158490566"/>
     <use style="fill:#5b6fbd;stroke:#000000;stroke-linejoin:miter;stroke-width:0.5;" x="106.824120603" xlink:href="#m634066a5bb" y="30.158490566"/>
     <use style="fill:#5b6fbd;stroke:#000000;stroke-linejoin:miter;stroke-width:0.5;" x="109.628140704" xlink:href="#m634066a5bb" y="31.5169811321"/>
     <use style="fill:#5b6fbd;stroke:#000000;stroke-linejoin:miter;stroke-width:0.5;" x="112.432160804" xlink:href="#m634066a5bb" y="31.5169811321"/>
     <use style="fill:#5b6fbd;stroke:#000000;stroke-linejoin:miter;stroke-width:0.5;" x="115.236180905" xlink:href="#m634066a5bb" y="30.158490566"/>
     <use style="fill:#5b6fbd;stroke:#000000;stroke-linejoin:miter;stroke-width:0.5;" x="118.040201005" xlink:href="#m634066a5bb" y="30.158490566"/>
     <use style="fill:#5b6fbd;stroke:#000000;stroke-linejoin:miter;stroke-width:0.5;" x="120.844221106" xlink:href="#m634066a5bb" y="31.5169811321"/>
     <use style="fill:#5b6fbd;stroke:#000000;stroke-linejoin:miter;stroke-width:0.5;" x="123.648241206" xlink:href="#m634066a5bb" y="31.5169811321"/>
     <use style="fill:#5b6fbd;stroke:#000000;stroke-linejoin:miter;stroke-width:0.5;" x="126.452261307" xlink:href="#m634066a5bb" y="30.158490566"/>
     <use style="fill:#5b6fbd;stroke:#000000;stroke-linejoin:miter;stroke-width:0.5;" x="129.256281407" xlink:href="#m634066a5bb" y="30.158490566"/>
     <use style="fill:#5b6fbd;stroke:#000000;stroke-linejoin:miter;stroke-width:0.5;" x="132.060301508" xlink:href="#m634066a5bb" y="30.158490566"/>
     <use style="fill:#5b6fbd;stroke:#000000;stroke-linejoin:miter;stroke-width:0.5;" x="134.864321608" xlink:href="#m634066a5bb" y="31.5169811321"/>
     <use style="fill:#5b6fbd;stroke:#000000;stroke-linejoin:miter;stroke-width:0.5;" x="137.668341709" xlink:href="#m634066a5bb" y="31.5169811321"/>
     <use style="fill:#5b6fbd;stroke:#000000;stroke-linejoin:miter;stroke-width:0.5;" x="140.472361809" xlink:href="#m634066a5bb" y="30.158490566"/>
     <use style="fill:#5b6fbd;stroke:#000000;stroke-linejoin:miter;stroke-width:0.5;" x="143.27638191" xlink:href="#m634066a5bb" y="31.5169811321"/>
     <use style="fill:#5b6fbd;stroke:#000000;stroke-linejoin:miter;stroke-width:0.5;" x="146.08040201" xlink:href="#m634066a5bb" y="31.5169811321"/>
     <use style="fill:#5b6fbd;stroke:#000000;stroke-linejoin:miter;stroke-width:0.5;" x="148.884422111" xlink:href="#m634066a5bb" y="30.158490566"/>
     <use style="fill:#5b6fbd;stroke:#000000;stroke-linejoin:miter;stroke-width:0.5;" x="151.688442211" xlink:href="#m634066a5bb" y="30.158490566"/>
     <use style="fill:#5b6fbd;stroke:#000000;stroke-linejoin:miter;stroke-width:0.5;" x="154.492462312" xlink:href="#m634066a5bb" y="30.158490566"/>
     <use style="fill:#5b6fbd;stroke:#000000;stroke-linejoin:miter;stroke-width:0.5;" x="157.296482412" xlink:href="#m634066a5bb" y="28.8"/>
     <use style="fill:#5b6fbd;stroke:#000000;stroke-linejoin:miter;stroke-width:0.5;" x="160.100502513" xlink:href="#m634066a5bb" y="30.158490566"/>
     <use style="fill:#5b6fbd;stroke:#000000;stroke-linejoin:miter;stroke-width:0.5;" x="162.904522613" xlink:href="#m634066a5bb" y="121.177358491"/>
     <use style="fill:#5b6fbd;stroke:#000000;stroke-linejoin:miter;stroke-width:0.5;" x="165.708542714" xlink:href="#m634066a5bb" y="123.894339623"/>
     <use style="fill:#5b6fbd;stroke:#000000;stroke-linejoin:miter;stroke-width:0.5;" x="168.512562814" xlink:href="#m634066a5bb" y="129.328301887"/>
     <use style="fill:#5b6fbd;stroke:#000000;stroke-linejoin:miter;stroke-width:0.5;" x="171.316582915" xlink:href="#m634066a5bb" y="132.045283019"/>
     <use style="fill:#5b6fbd;stroke:#000000;stroke-linejoin:miter;stroke-width:0.5;" x="174.120603015" xlink:href="#m634066a5bb" y="134.762264151"/>
     <use style="fill:#5b6fbd;stroke:#000000;stroke-linejoin:miter;stroke-width:0.5;" x="176.924623116" xlink:href="#m634066a5bb" y="138.837735849"/>
     <use style="fill:#5b6fbd;stroke:#000000;stroke-linejoin:miter;stroke-width:0.5;" x="179.728643216" xlink:href="#m634066a5bb" y="140.196226415"/>
     <use style="fill:#5b6fbd;stroke:#000000;stroke-linejoin:miter;stroke-width:0.5;" x="182.532663317" xlink:href="#m634066a5bb" y="140.196226415"/>
     <use style="fill:#5b6fbd;stroke:#000000;stroke-linejoin:miter;stroke-width:0.5;" x="185.336683417" xlink:href="#m634066a5bb" y="140.196226415"/>
     <use style="fill:#5b6fbd;stroke:#000000;stroke-linejoin:miter;stroke-width:0.5;" x="188.140703518" xlink:href="#m634066a5bb" y="136.120754717"/>
     <use style="fill:#5b6fbd;stroke:#000000;stroke-linejoin:miter;stroke-width:0.5;" x="190.944723618" xlink:href="#m634066a5bb" y="138.837735849"/>
     <use style="fill:#5b6fbd;stroke:#000000;stroke-linejoin:miter;stroke-width:0.5;" x="193.748743719" xlink:href="#m634066a5bb" y="138.837735849"/>
     <use style="fill:#5b6fbd;stroke:#000000;stroke-linejoin:miter;stroke-width:0.5;" x="196.552763819" xlink:href="#m634066a5bb" y="138.837735849"/>
     <use style="fill:#5b6fbd;stroke:#000000;stroke-linejoin:miter;stroke-width:0.5;" x="199.35678392" xlink:href="#m634066a5bb" y="138.837735849"/>
     <use style="fill:#5b6fbd;stroke:#000000;stroke-linejoin:miter;stroke-width:0.5;" x="202.16080402" xlink:href="#m634066a5bb" y="142.913207547"/>
     <use style="fill:#5b6fbd;stroke:#000000;stroke-linejoin:miter;stroke-width:0.5;" x="204.964824121" xlink:href="#m634066a5bb" y="244.8"/>
     <use style="fill:#5b6fbd;stroke:#000000;stroke-linejoin:miter;stroke-width:0.5;" x="207.768844221" xlink:href="#m634066a5bb" y="244.8"/>
     <use style="fill:#5b6fbd;stroke:#000000;stroke-linejoin:miter;stroke-width:0.5;" x="210.572864322" xlink:href="#m634066a5bb" y="244.8"/>
     <use style="fill:#5b6fbd;stroke:#000000;stroke-linejoin:miter;stroke-width:0.5;" x="213.376884422" xlink:href="#m634066a5bb" y="244.8"/>
     <use style="fill:#5b6fbd;stroke:#000000;stroke-linejoin:miter;stroke-width:0.5;" x="216.180904523" xlink:href="#m634066a5bb" y="142.913207547"/>
     <use style="fill:#5b6fbd;stroke:#000000;stroke-linejoin:miter;stroke-width:0.5;" x="218.984924623" xlink:href="#m634066a5bb" y="137.479245283"/>
     <use style="fill:#5b6fbd;stroke:#000000;stroke-linejoin:miter;stroke-width:0.5;" x="221.788944724" xlink:href="#m634066a5bb" y="137.479245283"/>
     <use style="fill:#5b6fbd;stroke:#000000;stroke-linejoin:miter;stroke-width:0.5;" x="224.592964824" xlink:href="#m634066a5bb" y="141.554716981"/>
     <use style="fill:#5b6fbd;stroke:#000000;stroke-linejoin:miter;stroke-width:0.5;" x="227.396984925" xlink:href="#m634066a5bb" y="138.837735849"/>
     <use style="fill:#5b6fbd;stroke:#000000;stroke-linejoin:miter;stroke-width:0.5;" x="230.201005025" xlink:href="#m634066a5bb" y="244.8"/>
     <use style="fill:#5b6fbd;stroke:#000000;stroke-linejoin:miter;stroke-width:0.5;" x="233.005025126" xlink:href="#m634066a5bb" y="244.8"/>
     <use style="fill:#5b6fbd;stroke:#000000;stroke-linejoin:miter;stroke-width:0.5;" x="235.809045226" xlink:href="#m634066a5bb" y="244.8"/>
     <use style="fill:#5b6fbd;stroke:#000000;stroke-linejoin:miter;stroke-width:0.5;" x="238.613065327" xlink:href="#m634066a5bb" y="244.8"/>
     <use style="fill:#5b6fbd;stroke:#000000;stroke-linejoin:miter;stroke-width:0.5;" x="241.417085427" xlink:href="#m634066a5bb" y="151.064150943"/>
     <use style="fill:#5b6fbd;stroke:#000000;stroke-linejoin:miter;stroke-width:0.5;" x="244.221105528" xlink:href="#m634066a5bb" y="152.422641509"/>
     <use style="fill:#5b6fbd;stroke:#000000;stroke-linejoin:miter;stroke-width:0.5;" x="247.025125628" xlink:href="#m634066a5bb" y="153.781132075"/>
     <use style="fill:#5b6fbd;stroke:#000000;stroke-linejoin:miter;stroke-width:0.5;" x="249.829145729" xlink:href="#m634066a5bb" y="244.8"/>
     <use style="fill:#5b6fbd;stroke:#000000;stroke-linejoin:miter;stroke-width:0.5;" x="252.633165829" xlink:href="#m634066a5bb" y="244.8"/>
     <use style="fill:#5b6fbd;stroke:#000000;stroke-linejoin:miter;stroke-width:0.5;" x="255.43718593" xlink:href="#m634066a5bb" y="244.8"/>
     <use style="fill:#5b6fbd;stroke:#000000;stroke-linejoin:miter;stroke-width:0.5;" x="258.24120603" xlink:href="#m634066a5bb" y="244.8"/>
     <use style="fill:#5b6fbd;stroke:#000000;stroke-linejoin:miter;stroke-width:0.5;" x="261.045226131" xlink:href="#m634066a5bb" y="164.649056604"/>
     <use style="fill:#5b6fbd;stroke:#000000;stroke-linejoin:miter;stroke-width:0.5;" x="263.849246231" xlink:href="#m634066a5bb" y="164.649056604"/>
     <use style="fill:#5b6fbd;stroke:#000000;stroke-linejoin:miter;stroke-width:0.5;" x="266.653266332" xlink:href="#m634066a5bb" y="167.366037736"/>
     <use style="fill:#5b6fbd;stroke:#000000;stroke-linejoin:miter;stroke-width:0.5;" x="269.457286432" xlink:href="#m634066a5bb" y="167.366037736"/>
     <use style="fill:#5b6fbd;stroke:#000000;stroke-linejoin:miter;stroke-width:0.5;" x="272.261306533" xlink:href="#m634066a5bb" y="170.083018868"/>
     <use style="fill:#5b6fbd;stroke:#000000;stroke-linejoin:miter;stroke-width:0.5;" x="275.065326633" xlink:href="#m634066a5bb" y="170.083018868"/>
     <use style="fill:#5b6fbd;stroke:#000000;stroke-linejoin:miter;stroke-width:0.5;" x="277.869346734" xlink:href="#m634066a5bb" y="174.158490566"/>
     <use style="fill:#5b6fbd;stroke:#000000;stroke-linejoin:miter;stroke-width:0.5;" x="280.673366834" xlink:href="#m634066a5bb" y="175.516981132"/>
     <use style="fill:#5b6fbd;stroke:#000000;stroke-linejoin:miter;stroke-width:0.5;" x="283.477386935" xlink:href="#m634066a5bb" y="176.875471698"/>
     <use style="fill:#5b6fbd;stroke:#000000;stroke-linejoin:miter;stroke-width:0.5;" x="286.281407035" xlink:href="#m634066a5bb" y="178.233962264"/>
     <use style="fill:#5b6fbd;stroke:#000000;stroke-linejoin:miter;stroke-width:0.5;" x="289.085427136" xlink:href="#m634066a5bb" y="179.59245283"/>
     <use style="fill:#5b6fbd;stroke:#000000;stroke-linejoin:miter;stroke-width:0.5;" x="291.889447236" xlink:href="#m634066a5bb" y="182.309433962"/>
     <use style="fill:#5b6fbd;stroke:#000000;stroke-linejoin:miter;stroke-width:0.5;" x="294.693467337" xlink:href="#m634066a5bb" y="182.309433962"/>
     <use style="fill:#5b6fbd;stroke:#000000;stroke-linejoin:miter;stroke-width:0.5;" x="297.497487437" xlink:href="#m634066a5bb" y="183.667924528"/>
     <use style="fill:#5b6fbd;stroke:#000000;stroke-linejoin:miter;stroke-width:0.5;" x="300.301507538" xlink:href="#m634066a5bb" y="186.38490566"/>
     <use style="fill:#5b6fbd;stroke:#000000;stroke-linejoin:miter;stroke-width:0.5;" x="303.105527638" xlink:href="#m634066a5bb" y="187.743396226"/>
     <use style="fill:#5b6fbd;stroke:#000000;stroke-linejoin:miter;stroke-width:0.5;" x="305.909547739" xlink:href="#m634066a5bb" y="189.101886792"/>
     <use style="fill:#5b6fbd;stroke:#000000;stroke-linejoin:miter;stroke-width:0.5;" x="308.713567839" xlink:href="#m634066a5bb" y="191.818867925"/>
     <use style="fill:#5b6fbd;stroke:#000000;stroke-linejoin:miter;stroke-width:0.5;" x="311.51758794" xlink:href="#m634066a5bb" y="193.177358491"/>
     <use style="fill:#5b6fbd;stroke:#000000;stroke-linejoin:miter;stroke-width:0.5;" x="314.32160804" xlink:href="#m634066a5bb" y="194.535849057"/>
     <use style="fill:#5b6fbd;stroke:#000000;stroke-linejoin:miter;stroke-width:0.5;" x="317.125628141" xlink:href="#m634066a5bb" y="195.894339623"/>
     <use style="fill:#5b6fbd;stroke:#000000;stroke-linejoin:miter;stroke-width:0.5;" x="319.929648241" xlink:href="#m634066a5bb" y="197.252830189"/>
     <use style="fill:#5b6fbd;stroke:#000000;stroke-linejoin:miter;stroke-width:0.5;" x="322.733668342" xlink:href="#m634066a5bb" y="197.252830189"/>
     <use style="fill:#5b6fbd;stroke:#000000;stroke-linejoin:miter;stroke-width:0.5;" x="325.537688442" xlink:href="#m634066a5bb" y="198.611320755"/>
     <use style="fill:#5b6fbd;stroke:#000000;stroke-linejoin:miter;stroke-width:0.5;" x="328.341708543" xlink:href="#m634066a5bb" y="202.686792453"/>
     <use style="fill:#5b6fbd;stroke:#000000;stroke-linejoin:miter;stroke-width:0.5;" x="331.145728643" xlink:href="#m634066a5bb" y="205.403773585"/>
     <use style="fill:#5b6fbd;stroke:#000000;stroke-linejoin:miter;stroke-width:0.5;" x="333.949748744" xlink:href="#m634066a5bb" y="198.611320755"/>
     <use style="fill:#5b6fbd;stroke:#000000;stroke-linejoin:miter;stroke-width:0.5;" x="336.753768844" xlink:href="#m634066a5bb" y="208.120754717"/>
     <use style="fill:#5b6fbd;stroke:#000000;stroke-linejoin:miter;stroke-width:0.5;" x="339.557788945" xlink:href="#m634066a5bb" y="209.479245283"/>
     <use style="fill:#5b6fbd;stroke:#000000;stroke-linejoin:miter;stroke-width:0.5;" x="342.361809045" xlink:href="#m634066a5bb" y="212.196226415"/>
     <use style="fill:#5b6fbd;stroke:#000000;stroke-linejoin:miter;stroke-width:0.5;" x="345.165829146" xlink:href="#m634066a5bb" y="214.913207547"/>
     <use style="fill:#5b6fbd;stroke:#000000;stroke-linejoin:miter;stroke-width:0.5;" x="347.969849246" xlink:href="#m634066a5bb" y="216.271698113"/>
     <use style="fill:#5b6fbd;stroke:#000000;stroke-linejoin:miter;stroke-width:0.5;" x="350.773869347" xlink:href="#m634066a5bb" y="218.988679245"/>
     <use style="fill:#5b6fbd;stroke:#000000;stroke-linejoin:miter;stroke-width:0.5;" x="353.577889447" xlink:href="#m634066a5bb" y="220.347169811"/>
     <use style="fill:#5b6fbd;stroke:#000000;stroke-linejoin:miter;stroke-width:0.5;" x="356.381909548" xlink:href="#m634066a5bb" y="223.064150943"/>
     <use style="fill:#5b6fbd;stroke:#000000;stroke-linejoin:miter;stroke-width:0.5;" x="359.185929648" xlink:href="#m634066a5bb" y="224.422641509"/>
     <use style="fill:#5b6fbd;stroke:#000000;stroke-linejoin:miter;stroke-width:0.5;" x="361.989949749" xlink:href="#m634066a5bb" y="225.781132075"/>
     <use style="fill:#5b6fbd;stroke:#000000;stroke-linejoin:miter;stroke-width:0.5;" x="364.793969849" xlink:href="#m634066a5bb" y="227.139622642"/>
     <use style="fill:#5b6fbd;stroke:#000000;stroke-linejoin:miter;stroke-width:0.5;" x="367.59798995" xlink:href="#m634066a5bb" y="227.139622642"/>
     <use style="fill:#5b6fbd;stroke:#000000;stroke-linejoin:miter;stroke-width:0.5;" x="370.40201005" xlink:href="#m634066a5bb" y="229.856603774"/>
     <use style="fill:#5b6fbd;stroke:#000000;stroke-linejoin:miter;stroke-width:0.5;" x="373.206030151" xlink:href="#m634066a5bb" y="229.856603774"/>
     <use style="fill:#5b6fbd;stroke:#000000;stroke-linejoin:miter;stroke-width:0.5;" x="376.010050251" xlink:href="#m634066a5bb" y="231.21509434"/>
     <use style="fill:#5b6fbd;stroke:#000000;stroke-linejoin:miter;stroke-width:0.5;" x="378.814070352" xlink:href="#m634066a5bb" y="233.932075472"/>
     <use style="fill:#5b6fbd;stroke:#000000;stroke-linejoin:miter;stroke-width:0.5;" x="381.618090452" xlink:href="#m634066a5bb" y="235.290566038"/>
     <use style="fill:#5b6fbd;stroke:#000000;stroke-linejoin:miter;stroke-width:0.5;" x="384.422110553" xlink:href="#m634066a5bb" y="236.649056604"/>
     <use style="fill:#5b6fbd;stroke:#000000;stroke-linejoin:miter;stroke-width:0.5;" x="387.226130653" xlink:href="#m634066a5bb" y="238.00754717"/>
     <use style="fill:#5b6fbd;stroke:#000000;stroke-linejoin:miter;stroke-width:0.5;" x="390.030150754" xlink:href="#m634066a5bb" y="239.366037736"/>
     <use style="fill:#5b6fbd;stroke:#000000;stroke-linejoin:miter;stroke-width:0.5;" x="392.834170854" xlink:href="#m634066a5bb" y="239.366037736"/>
     <use style="fill:#5b6fbd;stroke:#000000;stroke-linejoin:miter;stroke-width:0.5;" x="395.638190955" xlink:href="#m634066a5bb" y="239.366037736"/>
     <use style="fill:#5b6fbd;stroke:#000000;stroke-linejoin:miter;stroke-width:0.5;" x="398.442211055" xlink:href="#m634066a5bb" y="239.366037736"/>
     <use style="fill:#5b6fbd;stroke:#000000;stroke-linejoin:miter;stroke-width:0.5;" x="401.246231156" xlink:href="#m634066a5bb" y="239.366037736"/>
     <use style="fill:#5b6fbd;stroke:#000000;stroke-linejoin:miter;stroke-width:0.5;" x="404.050251256" xlink:href="#m634066a5bb" y="239.366037736"/>
     <use style="fill:#5b6fbd;stroke:#000000;stroke-linejoin:miter;stroke-width:0.5;" x="406.854271357" xlink:href="#m634066a5bb" y="238.00754717"/>
     <use style="fill:#5b6fbd;stroke:#000000;stroke-linejoin:miter;stroke-width:0.5;" x="409.658291457" xlink:href="#m634066a5bb" y="236.649056604"/>
     <use style="fill:#5b6fbd;stroke:#000000;stroke-linejoin:miter;stroke-width:0.5;" x="412.462311558" xlink:href="#m634066a5bb" y="233.932075472"/>
     <use style="fill:#5b6fbd;stroke:#000000;stroke-linejoin:miter;stroke-width:0.5;" x="415.266331658" xlink:href="#m634066a5bb" y="231.21509434"/>
     <use style="fill:#5b6fbd;stroke:#000000;stroke-linejoin:miter;stroke-width:0.5;" x="418.070351759" xlink:href="#m634066a5bb" y="229.856603774"/>
     <use style="fill:#5b6fbd;stroke:#000000;stroke-linejoin:miter;stroke-width:0.5;" x="420.874371859" xlink:href="#m634066a5bb" y="227.139622642"/>
     <use style="fill:#5b6fbd;stroke:#000000;stroke-linejoin:miter;stroke-width:0.5;" x="423.67839196" xlink:href="#m634066a5bb" y="224.422641509"/>
     <use style="fill:#5b6fbd;stroke:#000000;stroke-linejoin:miter;stroke-width:0.5;" x="426.48241206" xlink:href="#m634066a5bb" y="223.064150943"/>
     <use style="fill:#5b6fbd;stroke:#000000;stroke-linejoin:miter;stroke-width:0.5;" x="429.286432161" xlink:href="#m634066a5bb" y="221.705660377"/>
     <use style="fill:#5b6fbd;stroke:#000000;stroke-linejoin:miter;stroke-width:0.5;" x="432.090452261" xlink:href="#m634066a5bb" y="220.347169811"/>
     <use style="fill:#5b6fbd;stroke:#000000;stroke-linejoin:miter;stroke-width:0.5;" x="434.894472362" xlink:href="#m634066a5bb" y="217.630188679"/>
     <use style="fill:#5b6fbd;stroke:#000000;stroke-linejoin:miter;stroke-width:0.5;" x="437.698492462" xlink:href="#m634066a5bb" y="214.913207547"/>
     <use style="fill:#5b6fbd;stroke:#000000;stroke-linejoin:miter;stroke-width:0.5;" x="440.502512563" xlink:href="#m634066a5bb" y="213.554716981"/>
     <use style="fill:#5b6fbd;stroke:#000000;stroke-linejoin:miter;stroke-width:0.5;" x="443.306532663" xlink:href="#m634066a5bb" y="210.837735849"/>
     <use style="fill:#5b6fbd;stroke:#000000;stroke-linejoin:miter;stroke-width:0.5;" x="446.110552764" xlink:href="#m634066a5bb" y="208.120754717"/>
     <use style="fill:#5b6fbd;stroke:#000000;stroke-linejoin:miter;stroke-width:0.5;" x="448.914572864" xlink:href="#m634066a5bb" y="204.045283019"/>
     <use style="fill:#5b6fbd;stroke:#000000;stroke-linejoin:miter;stroke-width:0.5;" x="451.718592965" xlink:href="#m634066a5bb" y="201.328301887"/>
     <use style="fill:#5b6fbd;stroke:#000000;stroke-linejoin:miter;stroke-width:0.5;" x="454.522613065" xlink:href="#m634066a5bb" y="198.611320755"/>
     <use style="fill:#5b6fbd;stroke:#000000;stroke-linejoin:miter;stroke-width:0.5;" x="457.326633166" xlink:href="#m634066a5bb" y="197.252830189"/>
     <use style="fill:#5b6fbd;stroke:#000000;stroke-linejoin:miter;stroke-width:0.5;" x="460.130653266" xlink:href="#m634066a5bb" y="195.894339623"/>
     <use style="fill:#5b6fbd;stroke:#000000;stroke-linejoin:miter;stroke-width:0.5;" x="462.934673367" xlink:href="#m634066a5bb" y="193.177358491"/>
     <use style="fill:#5b6fbd;stroke:#000000;stroke-linejoin:miter;stroke-width:0.5;" x="465.738693467" xlink:href="#m634066a5bb" y="191.818867925"/>
     <use style="fill:#5b6fbd;stroke:#000000;stroke-linejoin:miter;stroke-width:0.5;" x="468.542713568" xlink:href="#m634066a5bb" y="190.460377358"/>
     <use style="fill:#5b6fbd;stroke:#000000;stroke-linejoin:miter;stroke-width:0.5;" x="471.346733668" xlink:href="#m634066a5bb" y="183.667924528"/>
     <use style="fill:#5b6fbd;stroke:#000000;stroke-linejoin:miter;stroke-width:0.5;" x="474.150753769" xlink:href="#m634066a5bb" y="185.026415094"/>
     <use style="fill:#5b6fbd;stroke:#000000;stroke-linejoin:miter;stroke-width:0.5;" x="476.954773869" xlink:href="#m634066a5bb" y="244.8"/>
     <use style="fill:#5b6fbd;stroke:#000000;stroke-linejoin:miter;stroke-width:0.5;" x="479.75879397" xlink:href="#m634066a5bb" y="244.8"/>
     <use style="fill:#5b6fbd;stroke:#000000;stroke-linejoin:miter;stroke-width:0.5;" x="482.56281407" xlink:href="#m634066a5bb" y="178.233962264"/>
     <use style="fill:#5b6fbd;stroke:#000000;stroke-linejoin:miter;stroke-width:0.5;" x="485.366834171" xlink:href="#m634066a5bb" y="176.875471698"/>
     <use style="fill:#5b6fbd;stroke:#000000;stroke-linejoin:miter;stroke-width:0.5;" x="488.170854271" xlink:href="#m634066a5bb" y="174.158490566"/>
     <use style="fill:#5b6fbd;stroke:#000000;stroke-linejoin:miter;stroke-width:0.5;" x="490.974874372" xlink:href="#m634066a5bb" y="244.8"/>
     <use style="fill:#5b6fbd;stroke:#000000;stroke-linejoin:miter;stroke-width:0.5;" x="493.778894472" xlink:href="#m634066a5bb" y="244.8"/>
     <use style="fill:#5b6fbd;stroke:#000000;stroke-linejoin:miter;stroke-width:0.5;" x="496.582914573" xlink:href="#m634066a5bb" y="168.724528302"/>
     <use style="fill:#5b6fbd;stroke:#000000;stroke-linejoin:miter;stroke-width:0.5;" x="499.386934673" xlink:href="#m634066a5bb" y="166.00754717"/>
     <use style="fill:#5b6fbd;stroke:#000000;stroke-linejoin:miter;stroke-width:0.5;" x="502.190954774" xlink:href="#m634066a5bb" y="244.8"/>
     <use style="fill:#5b6fbd;stroke:#000000;stroke-linejoin:miter;stroke-width:0.5;" x="504.994974874" xlink:href="#m634066a5bb" y="244.8"/>
     <use style="fill:#5b6fbd;stroke:#000000;stroke-linejoin:miter;stroke-width:0.5;" x="507.798994975" xlink:href="#m634066a5bb" y="244.8"/>
     <use style="fill:#5b6fbd;stroke:#000000;stroke-linejoin:miter;stroke-width:0.5;" x="510.603015075" xlink:href="#m634066a5bb" y="244.8"/>
     <use style="fill:#5b6fbd;stroke:#000000;stroke-linejoin:miter;stroke-width:0.5;" x="513.407035176" xlink:href="#m634066a5bb" y="156.498113208"/>
     <use style="fill:#5b6fbd;stroke:#000000;stroke-linejoin:miter;stroke-width:0.5;" x="516.211055276" xlink:href="#m634066a5bb" y="244.8"/>
     <use style="fill:#5b6fbd;stroke:#000000;stroke-linejoin:miter;stroke-width:0.5;" x="519.015075377" xlink:href="#m634066a5bb" y="244.8"/>
     <use style="fill:#5b6fbd;stroke:#000000;stroke-linejoin:miter;stroke-width:0.5;" x="521.819095477" xlink:href="#m634066a5bb" y="149.705660377"/>
     <use style="fill:#5b6fbd;stroke:#000000;stroke-linejoin:miter;stroke-width:0.5;" x="524.623115578" xlink:href="#m634066a5bb" y="244.8"/>
     <use style="fill:#5b6fbd;stroke:#000000;stroke-linejoin:miter;stroke-width:0.5;" x="527.427135678" xlink:href="#m634066a5bb" y="244.8"/>
     <use style="fill:#5b6fbd;stroke:#000000;stroke-linejoin:miter;stroke-width:0.5;" x="530.231155779" xlink:href="#m634066a5bb" y="146.988679245"/>
     <use style="fill:#5b6fbd;stroke:#000000;stroke-linejoin:miter;stroke-width:0.5;" x="533.035175879" xlink:href="#m634066a5bb" y="244.8"/>
     <use style="fill:#5b6fbd;stroke:#000000;stroke-linejoin:miter;stroke-width:0.5;" x="535.83919598" xlink:href="#m634066a5bb" y="244.8"/>
     <use style="fill:#5b6fbd;stroke:#000000;stroke-linejoin:miter;stroke-width:0.5;" x="538.64321608" xlink:href="#m634066a5bb" y="244.8"/>
     <use style="fill:#5b6fbd;stroke:#000000;stroke-linejoin:miter;stroke-width:0.5;" x="541.447236181" xlink:href="#m634066a5bb" y="244.8"/>
     <use style="fill:#5b6fbd;stroke:#000000;stroke-linejoin:miter;stroke-width:0.5;" x="544.251256281" xlink:href="#m634066a5bb" y="141.554716981"/>
     <use style="fill:#5b6fbd;stroke:#000000;stroke-linejoin:miter;stroke-width:0.5;" x="547.055276382" xlink:href="#m634066a5bb" y="244.8"/>
     <use style="fill:#5b6fbd;stroke:#000000;stroke-linejoin:miter;stroke-width:0.5;" x="549.859296482" xlink:href="#m634066a5bb" y="244.8"/>
     <use style="fill:#5b6fbd;stroke:#000000;stroke-linejoin:miter;stroke-width:0.5;" x="552.663316583" xlink:href="#m634066a5bb" y="244.8"/>
     <use style="fill:#5b6fbd;stroke:#000000;stroke-linejoin:miter;stroke-width:0.5;" x="555.467336683" xlink:href="#m634066a5bb" y="244.8"/>
     <use style="fill:#5b6fbd;stroke:#000000;stroke-linejoin:miter;stroke-width:0.5;" x="558.271356784" xlink:href="#m634066a5bb" y="144.271698113"/>
     <use style="fill:#5b6fbd;stroke:#000000;stroke-linejoin:miter;stroke-width:0.5;" x="561.075376884" xlink:href="#m634066a5bb" y="244.8"/>
     <use style="fill:#5b6fbd;stroke:#000000;stroke-linejoin:miter;stroke-width:0.5;" x="563.879396985" xlink:href="#m634066a5bb" y="244.8"/>
     <use style="fill:#5b6fbd;stroke:#000000;stroke-linejoin:miter;stroke-width:0.5;" x="566.683417085" xlink:href="#m634066a5bb" y="244.8"/>
     <use style="fill:#5b6fbd;stroke:#000000;stroke-linejoin:miter;stroke-width:0.5;" x="569.487437186" xlink:href="#m634066a5bb" y="244.8"/>
     <use style="fill:#5b6fbd;stroke:#000000;stroke-linejoin:miter;stroke-width:0.5;" x="572.291457286" xlink:href="#m634066a5bb" y="153.781132075"/>
     <use style="fill:#5b6fbd;stroke:#000000;stroke-linejoin:miter;stroke-width:0.5;" x="575.095477387" xlink:href="#m634066a5bb" y="244.8"/>
     <use style="fill:#5b6fbd;stroke:#000000;stroke-linejoin:miter;stroke-width:0.5;" x="577.899497487" xlink:href="#m634066a5bb" y="244.8"/>
     <use style="fill:#5b6fbd;stroke:#000000;stroke-linejoin:miter;stroke-width:0.5;" x="580.703517588" xlink:href="#m634066a5bb" y="156.498113208"/>
     <use style="fill:#5b6fbd;stroke:#000000;stroke-linejoin:miter;stroke-width:0.5;" x="583.507537688" xlink:href="#m634066a5bb" y="161.932075472"/>
     <use style="fill:#5b6fbd;stroke:#000000;stroke-linejoin:miter;stroke-width:0.5;" x="586.311557789" xlink:href="#m634066a5bb" y="163.290566038"/>
     <use style="fill:#5b6fbd;stroke:#000000;stroke-linejoin:miter;stroke-width:0.5;" x="589.115577889" xlink:href="#m634066a5bb" y="244.8"/>
     <use style="fill:#5b6fbd;stroke:#000000;stroke-linejoin:miter;stroke-width:0.5;" x="591.91959799" xlink:href="#m634066a5bb" y="244.8"/>
     <use style="fill:#5b6fbd;stroke:#000000;stroke-linejoin:miter;stroke-width:0.5;" x="594.72361809" xlink:href="#m634066a5bb" y="170.083018868"/>
     <use style="fill:#5b6fbd;stroke:#000000;stroke-linejoin:miter;stroke-width:0.5;" x="597.527638191" xlink:href="#m634066a5bb" y="171.441509434"/>
     <use style="fill:#5b6fbd;stroke:#000000;stroke-linejoin:miter;stroke-width:0.5;" x="600.331658291" xlink:href="#m634066a5bb" y="244.8"/>
     <use style="fill:#5b6fbd;stroke:#000000;stroke-linejoin:miter;stroke-width:0.5;" x="603.135678392" xlink:href="#m634066a5bb" y="244.8"/>
     <use style="fill:#5b6fbd;stroke:#000000;stroke-linejoin:miter;stroke-width:0.5;" x="605.939698492" xlink:href="#m634066a5bb" y="180.950943396"/>
     <use style="fill:#5b6fbd;stroke:#000000;stroke-linejoin:miter;stroke-width:0.5;" x="608.743718593" xlink:href="#m634066a5bb" y="182.309433962"/>
     <use style="fill:#5b6fbd;stroke:#000000;stroke-linejoin:miter;stroke-width:0.5;" x="611.547738693" xlink:href="#m634066a5bb" y="183.667924528"/>
     <use style="fill:#5b6fbd;stroke:#000000;stroke-linejoin:miter;stroke-width:0.5;" x="614.351758794" xlink:href="#m634066a5bb" y="244.8"/>
     <use style="fill:#5b6fbd;stroke:#000000;stroke-linejoin:miter;stroke-width:0.5;" x="617.155778894" xlink:href="#m634066a5bb" y="244.8"/>
     <use style="fill:#5b6fbd;stroke:#000000;stroke-linejoin:miter;stroke-width:0.5;" x="619.959798995" xlink:href="#m634066a5bb" y="191.818867925"/>
     <use style="fill:#5b6fbd;stroke:#000000;stroke-linejoin:miter;stroke-width:0.5;" x="622.763819095" xlink:href="#m634066a5bb" y="191.818867925"/>
     <use style="fill:#5b6fbd;stroke:#000000;stroke-linejoin:miter;stroke-width:0.5;" x="625.567839196" xlink:href="#m634066a5bb" y="191.818867925"/>
     <use style="fill:#5b6fbd;stroke:#000000;stroke-linejoin:miter;stroke-width:0.5;" x="628.371859296" xlink:href="#m634066a5bb" y="195.894339623"/>
     <use style="fill:#5b6fbd;stroke:#000000;stroke-linejoin:miter;stroke-width:0.5;" x="631.175879397" xlink:href="#m634066a5bb" y="195.894339623"/>
     <use style="fill:#5b6fbd;stroke:#000000;stroke-linejoin:miter;stroke-width:0.5;" x="633.979899497" xlink:href="#m634066a5bb" y="198.611320755"/>
     <use style="fill:#5b6fbd;stroke:#000000;stroke-linejoin:miter;stroke-width:0.5;" x="636.783919598" xlink:href="#m634066a5bb" y="199.969811321"/>
     <use style="fill:#5b6fbd;stroke:#000000;stroke-linejoin:miter;stroke-width:0.5;" x="639.587939698" xlink:href="#m634066a5bb" y="204.045283019"/>
     <use style="fill:#5b6fbd;stroke:#000000;stroke-linejoin:miter;stroke-width:0.5;" x="642.391959799" xlink:href="#m634066a5bb" y="205.403773585"/>
     <use style="fill:#5b6fbd;stroke:#000000;stroke-linejoin:miter;stroke-width:0.5;" x="645.195979899" xlink:href="#m634066a5bb" y="208.120754717"/>
     <use style="fill:#5b6fbd;stroke:#000000;stroke-linejoin:miter;stroke-width:0.5;" x="648.0" xlink:href="#m634066a5bb" y="209.479245283"/>
    </g>
   </g>
   <g id="line2d_2">
    <path clip-path="url(#pa21484418a)" d="M 90 30.973585 
L 95.60804 30.430189 
L 98.41206 30.973585 
L 101.21608 30.973585 
L 104.020101 30.701887 
L 106.824121 30.158491 
L 109.628141 30.430189 
L 112.432161 30.973585 
L 115.236181 30.973585 
L 118.040201 30.430189 
L 123.648241 30.973585 
L 126.452261 30.973585 
L 132.060302 30.430189 
L 134.864322 30.973585 
L 137.668342 30.973585 
L 140.472362 30.701887 
L 146.080402 31.245283 
L 148.884422 31.245283 
L 151.688442 30.973585 
L 154.492462 29.886792 
L 157.296482 29.343396 
L 160.100503 29.886792 
L 162.904523 65.479245 
L 165.708543 102.973585 
L 168.512563 124.981132 
L 176.924623 135.577358 
L 179.728643 137.750943 
L 182.532663 139.109434 
L 185.336683 139.65283 
L 188.140704 139.109434 
L 190.944724 139.109434 
L 193.748744 138.837736 
L 196.552764 139.381132 
L 199.356784 139.109434 
L 202.160804 140.196226 
L 207.768844 140.196226 
L 210.572864 140.739623 
L 213.376884 140.739623 
L 216.180905 141.554717 
L 218.984925 141.011321 
L 221.788945 139.381132 
L 224.592965 139.109434 
L 227.396985 139.65283 
L 233.005025 139.65283 
L 235.809045 141.011321 
L 238.613065 141.011321 
L 241.417085 143.184906 
L 247.025126 152.422642 
L 252.633166 152.422642 
L 255.437186 153.781132 
L 258.241206 153.781132 
L 261.045226 156.226415 
L 263.849246 160.845283 
L 266.653266 164.920755 
L 269.457286 166.550943 
L 272.261307 168.724528 
L 275.065327 169.539623 
L 277.869347 171.441509 
L 283.477387 175.788679 
L 286.281407 176.875472 
L 289.085427 178.233962 
L 291.889447 180.135849 
L 300.301508 184.211321 
L 303.105528 185.841509 
L 308.713568 189.645283 
L 317.125628 194.535849 
L 319.929648 195.89434 
L 322.733668 196.981132 
L 328.341709 199.698113 
L 331.145729 201.871698 
L 333.949749 202.958491 
L 339.557789 206.218868 
L 342.361809 210.022642 
L 345.165829 212.196226 
L 347.969849 214.641509 
L 350.773869 216.815094 
L 353.577889 218.716981 
L 356.38191 220.890566 
L 359.18593 222.792453 
L 361.98995 224.422642 
L 367.59799 227.139623 
L 370.40201 228.226415 
L 373.20603 229.041509 
L 378.81407 231.758491 
L 384.422111 235.018868 
L 390.030151 237.735849 
L 392.834171 238.822642 
L 395.638191 239.366038 
L 404.050251 239.366038 
L 406.854271 239.09434 
L 409.658291 238.007547 
L 412.462312 236.10566 
L 415.266332 233.932075 
L 418.070352 231.486792 
L 420.874372 229.313208 
L 423.678392 227.411321 
L 426.482412 225.237736 
L 429.286432 223.335849 
L 432.090452 221.70566 
L 443.306533 213.011321 
L 446.110553 210.566038 
L 454.522613 201.6 
L 457.326633 199.426415 
L 462.934673 195.622642 
L 465.738693 193.449057 
L 468.542714 191.818868 
L 471.346734 189.101887 
L 474.150754 186.656604 
L 479.758794 186.656604 
L 482.562814 182.85283 
L 488.170854 176.332075 
L 493.778894 176.332075 
L 496.582915 173.343396 
L 499.386935 169.811321 
L 504.994975 169.811321 
L 507.798995 167.09434 
L 510.603015 167.09434 
L 513.407035 164.10566 
L 519.015075 164.10566 
L 521.819095 157.313208 
L 524.623116 153.781132 
L 527.427136 153.781132 
L 530.231156 151.064151 
L 535.839196 151.064151 
L 538.643216 148.618868 
L 541.447236 148.618868 
L 544.251256 146.173585 
L 549.859296 146.173585 
L 552.663317 145.086792 
L 555.467337 145.086792 
L 558.271357 144.271698 
L 563.879397 144.271698 
L 566.683417 145.086792 
L 569.487437 145.086792 
L 572.291457 146.988679 
L 575.095477 149.162264 
L 577.899497 149.162264 
L 580.703518 151.607547 
L 583.507538 156.498113 
L 586.311558 160.030189 
L 591.919598 160.030189 
L 594.723618 165.192453 
L 597.527638 169.267925 
L 600.331658 170.898113 
L 603.135678 170.898113 
L 605.939698 173.071698 
L 608.743719 177.14717 
L 611.547739 181.766038 
L 614.351759 182.581132 
L 617.155779 182.581132 
L 619.959799 185.026415 
L 622.763819 188.830189 
L 625.567839 191.818868 
L 628.371859 192.90566 
L 631.175879 194.264151 
L 633.979899 196.437736 
L 636.78392 198.339623 
L 639.58794 201.056604 
L 642.39196 202.958491 
L 645.19598 205.675472 
L 648 208.120755 
L 648 208.120755 
" style="fill:none;stroke:#ff0b13;stroke-linecap:square;stroke-width:2.0;"/>
   </g>
   <g id="patch_3">
    <path d="M 90 28.8 
L 648 28.8 
" style="fill:none;stroke:#000000;stroke-linecap:square;stroke-linejoin:miter;"/>
   </g>
   <g id="patch_4">
    <path d="M 648 244.8 
L 648 28.8 
" style="fill:none;stroke:#000000;stroke-linecap:square;stroke-linejoin:miter;"/>
   </g>
   <g id="patch_5">
    <path d="M 90 244.8 
L 648 244.8 
" style="fill:none;stroke:#000000;stroke-linecap:square;stroke-linejoin:miter;"/>
   </g>
   <g id="patch_6">
    <path d="M 90 244.8 
L 90 28.8 
" style="fill:none;stroke:#000000;stroke-linecap:square;stroke-linejoin:miter;"/>
   </g>
   <g id="matplotlib.axis_1">
    <g id="xtick_1">
     <g id="line2d_3">
      <defs>
       <path d="M 0 0 
L 0 -4 
" id="m335ee74f4a" style="stroke:#000000;stroke-width:0.5;"/>
      </defs>
      <g>
       <use style="stroke:#000000;stroke-width:0.5;" x="90.0" xlink:href="#m335ee74f4a" y="244.8"/>
      </g>
     </g>
     <g id="line2d_4">
      <defs>
       <path d="M 0 0 
L 0 4 
" id="m9c02e48abf" style="stroke:#000000;stroke-width:0.5;"/>
      </defs>
      <g>
       <use style="stroke:#000000;stroke-width:0.5;" x="90.0" xlink:href="#m9c02e48abf" y="28.8"/>
      </g>
     </g>
     <g id="text_1">
      <!-- 0 -->
      <defs>
       <path d="M 31.78125 66.40625 
Q 24.171875 66.40625 20.328125 58.90625 
Q 16.5 51.421875 16.5 36.375 
Q 16.5 21.390625 20.328125 13.890625 
Q 24.171875 6.390625 31.78125 6.390625 
Q 39.453125 6.390625 43.28125 13.890625 
Q 47.125 21.390625 47.125 36.375 
Q 47.125 51.421875 43.28125 58.90625 
Q 39.453125 66.40625 31.78125 66.40625 
M 31.78125 74.21875 
Q 44.046875 74.21875 50.515625 64.515625 
Q 56.984375 54.828125 56.984375 36.375 
Q 56.984375 17.96875 50.515625 8.265625 
Q 44.046875 -1.421875 31.78125 -1.421875 
Q 19.53125 -1.421875 13.0625 8.265625 
Q 6.59375 17.96875 6.59375 36.375 
Q 6.59375 54.828125 13.0625 64.515625 
Q 19.53125 74.21875 31.78125 74.21875 
" id="BitstreamVeraSans-Roman-30"/>
      </defs>
      <g transform="translate(86.1825 257.918125)scale(0.12 -0.12)">
       <use xlink:href="#BitstreamVeraSans-Roman-30"/>
      </g>
     </g>
    </g>
    <g id="xtick_2">
     <g id="line2d_5">
      <g>
       <use style="stroke:#000000;stroke-width:0.5;" x="230.201005025" xlink:href="#m335ee74f4a" y="244.8"/>
      </g>
     </g>
     <g id="line2d_6">
      <g>
       <use style="stroke:#000000;stroke-width:0.5;" x="230.201005025" xlink:href="#m9c02e48abf" y="28.8"/>
      </g>
     </g>
     <g id="text_2">
      <!-- 50 -->
      <defs>
       <path d="M 10.796875 72.90625 
L 49.515625 72.90625 
L 49.515625 64.59375 
L 19.828125 64.59375 
L 19.828125 46.734375 
Q 21.96875 47.46875 24.109375 47.828125 
Q 26.265625 48.1875 28.421875 48.1875 
Q 40.625 48.1875 47.75 41.5 
Q 54.890625 34.8125 54.890625 23.390625 
Q 54.890625 11.625 47.5625 5.09375 
Q 40.234375 -1.421875 26.90625 -1.421875 
Q 22.3125 -1.421875 17.546875 -0.640625 
Q 12.796875 0.140625 7.71875 1.703125 
L 7.71875 11.625 
Q 12.109375 9.234375 16.796875 8.0625 
Q 21.484375 6.890625 26.703125 6.890625 
Q 35.15625 6.890625 40.078125 11.328125 
Q 45.015625 15.765625 45.015625 23.390625 
Q 45.015625 31 40.078125 35.4375 
Q 35.15625 39.890625 26.703125 39.890625 
Q 22.75 39.890625 18.8125 39.015625 
Q 14.890625 38.140625 10.796875 36.28125 
z
" id="BitstreamVeraSans-Roman-35"/>
      </defs>
      <g transform="translate(222.566005025 257.918125)scale(0.12 -0.12)">
       <use xlink:href="#BitstreamVeraSans-Roman-35"/>
       <use x="63.623046875" xlink:href="#BitstreamVeraSans-Roman-30"/>
      </g>
     </g>
    </g>
    <g id="xtick_3">
     <g id="line2d_7">
      <g>
       <use style="stroke:#000000;stroke-width:0.5;" x="370.40201005" xlink:href="#m335ee74f4a" y="244.8"/>
      </g>
     </g>
     <g id="line2d_8">
      <g>
       <use style="stroke:#000000;stroke-width:0.5;" x="370.40201005" xlink:href="#m9c02e48abf" y="28.8"/>
      </g>
     </g>
     <g id="text_3">
      <!-- 100 -->
      <defs>
       <path d="M 12.40625 8.296875 
L 28.515625 8.296875 
L 28.515625 63.921875 
L 10.984375 60.40625 
L 10.984375 69.390625 
L 28.421875 72.90625 
L 38.28125 72.90625 
L 38.28125 8.296875 
L 54.390625 8.296875 
L 54.390625 0 
L 12.40625 0 
z
" id="BitstreamVeraSans-Roman-31"/>
      </defs>
      <g transform="translate(358.94951005 257.918125)scale(0.12 -0.12)">
       <use xlink:href="#BitstreamVeraSans-Roman-31"/>
       <use x="63.623046875" xlink:href="#BitstreamVeraSans-Roman-30"/>
       <use x="127.24609375" xlink:href="#BitstreamVeraSans-Roman-30"/>
      </g>
     </g>
    </g>
    <g id="xtick_4">
     <g id="line2d_9">
      <g>
       <use style="stroke:#000000;stroke-width:0.5;" x="510.603015075" xlink:href="#m335ee74f4a" y="244.8"/>
      </g>
     </g>
     <g id="line2d_10">
      <g>
       <use style="stroke:#000000;stroke-width:0.5;" x="510.603015075" xlink:href="#m9c02e48abf" y="28.8"/>
      </g>
     </g>
     <g id="text_4">
      <!-- 150 -->
      <g transform="translate(499.150515075 257.918125)scale(0.12 -0.12)">
       <use xlink:href="#BitstreamVeraSans-Roman-31"/>
       <use x="63.623046875" xlink:href="#BitstreamVeraSans-Roman-35"/>
       <use x="127.24609375" xlink:href="#BitstreamVeraSans-Roman-30"/>
      </g>
     </g>
    </g>
    <g id="text_5">
     <!-- t (s) -->
     <defs>
      <path d="M 8.015625 75.875 
L 15.828125 75.875 
Q 23.140625 64.359375 26.78125 53.3125 
Q 30.421875 42.28125 30.421875 31.390625 
Q 30.421875 20.453125 26.78125 9.375 
Q 23.140625 -1.703125 15.828125 -13.1875 
L 8.015625 -13.1875 
Q 14.5 -2 17.703125 9.0625 
Q 20.90625 20.125 20.90625 31.390625 
Q 20.90625 42.671875 17.703125 53.65625 
Q 14.5 64.65625 8.015625 75.875 
" id="BitstreamVeraSans-Roman-29"/>
      <path id="BitstreamVeraSans-Roman-20"/>
      <path d="M 18.3125 70.21875 
L 18.3125 54.6875 
L 36.8125 54.6875 
L 36.8125 47.703125 
L 18.3125 47.703125 
L 18.3125 18.015625 
Q 18.3125 11.328125 20.140625 9.421875 
Q 21.96875 7.515625 27.59375 7.515625 
L 36.8125 7.515625 
L 36.8125 0 
L 27.59375 0 
Q 17.1875 0 13.234375 3.875 
Q 9.28125 7.765625 9.28125 18.015625 
L 9.28125 47.703125 
L 2.6875 47.703125 
L 2.6875 54.6875 
L 9.28125 54.6875 
L 9.28125 70.21875 
z
" id="BitstreamVeraSans-Roman-74"/>
      <path d="M 44.28125 53.078125 
L 44.28125 44.578125 
Q 40.484375 46.53125 36.375 47.5 
Q 32.28125 48.484375 27.875 48.484375 
Q 21.1875 48.484375 17.84375 46.4375 
Q 14.5 44.390625 14.5 40.28125 
Q 14.5 37.15625 16.890625 35.375 
Q 19.28125 33.59375 26.515625 31.984375 
L 29.59375 31.296875 
Q 39.15625 29.25 43.1875 25.515625 
Q 47.21875 21.78125 47.21875 15.09375 
Q 47.21875 7.46875 41.1875 3.015625 
Q 35.15625 -1.421875 24.609375 -1.421875 
Q 20.21875 -1.421875 15.453125 -0.5625 
Q 10.6875 0.296875 5.421875 2 
L 5.421875 11.28125 
Q 10.40625 8.6875 15.234375 7.390625 
Q 20.0625 6.109375 24.8125 6.109375 
Q 31.15625 6.109375 34.5625 8.28125 
Q 37.984375 10.453125 37.984375 14.40625 
Q 37.984375 18.0625 35.515625 20.015625 
Q 33.0625 21.96875 24.703125 23.78125 
L 21.578125 24.515625 
Q 13.234375 26.265625 9.515625 29.90625 
Q 5.8125 33.546875 5.8125 39.890625 
Q 5.8125 47.609375 11.28125 51.796875 
Q 16.75 56 26.8125 56 
Q 31.78125 56 36.171875 55.265625 
Q 40.578125 54.546875 44.28125 53.078125 
" id="BitstreamVeraSans-Roman-73"/>
      <path d="M 31 75.875 
Q 24.46875 64.65625 21.28125 53.65625 
Q 18.109375 42.671875 18.109375 31.390625 
Q 18.109375 20.125 21.3125 9.0625 
Q 24.515625 -2 31 -13.1875 
L 23.1875 -13.1875 
Q 15.875 -1.703125 12.234375 9.375 
Q 8.59375 20.453125 8.59375 31.390625 
Q 8.59375 42.28125 12.203125 53.3125 
Q 15.828125 64.359375 23.1875 75.875 
z
" id="BitstreamVeraSans-Roman-28"/>
     </defs>
     <g transform="translate(356.9334375 274.531875)scale(0.12 -0.12)">
      <use xlink:href="#BitstreamVeraSans-Roman-74"/>
      <use x="39.208984375" xlink:href="#BitstreamVeraSans-Roman-20"/>
      <use x="70.99609375" xlink:href="#BitstreamVeraSans-Roman-28"/>
      <use x="110.009765625" xlink:href="#BitstreamVeraSans-Roman-73"/>
      <use x="162.109375" xlink:href="#BitstreamVeraSans-Roman-29"/>
     </g>
    </g>
   </g>
   <g id="matplotlib.axis_2">
    <g id="ytick_1">
     <g id="line2d_11">
      <defs>
       <path d="M 0 0 
L 4 0 
" id="mbc87aaed28" style="stroke:#000000;stroke-width:0.5;"/>
      </defs>
      <g>
       <use style="stroke:#000000;stroke-width:0.5;" x="90.0" xlink:href="#mbc87aaed28" y="244.8"/>
      </g>
     </g>
     <g id="line2d_12">
      <defs>
       <path d="M 0 0 
L -4 0 
" id="m384a14cc83" style="stroke:#000000;stroke-width:0.5;"/>
      </defs>
      <g>
       <use style="stroke:#000000;stroke-width:0.5;" x="648.0" xlink:href="#m384a14cc83" y="244.8"/>
      </g>
     </g>
     <g id="text_6">
      <!-- 0 -->
      <g transform="translate(78.365 248.11125)scale(0.12 -0.12)">
       <use xlink:href="#BitstreamVeraSans-Roman-30"/>
      </g>
     </g>
    </g>
    <g id="ytick_2">
     <g id="line2d_13">
      <g>
       <use style="stroke:#000000;stroke-width:0.5;" x="90.0" xlink:href="#mbc87aaed28" y="217.630188679"/>
      </g>
     </g>
     <g id="line2d_14">
      <g>
       <use style="stroke:#000000;stroke-width:0.5;" x="648.0" xlink:href="#m384a14cc83" y="217.630188679"/>
      </g>
     </g>
     <g id="text_7">
      <!-- 20 -->
      <defs>
       <path d="M 19.1875 8.296875 
L 53.609375 8.296875 
L 53.609375 0 
L 7.328125 0 
L 7.328125 8.296875 
Q 12.9375 14.109375 22.625 23.890625 
Q 32.328125 33.6875 34.8125 36.53125 
Q 39.546875 41.84375 41.421875 45.53125 
Q 43.3125 49.21875 43.3125 52.78125 
Q 43.3125 58.59375 39.234375 62.25 
Q 35.15625 65.921875 28.609375 65.921875 
Q 23.96875 65.921875 18.8125 64.3125 
Q 13.671875 62.703125 7.8125 59.421875 
L 7.8125 69.390625 
Q 13.765625 71.78125 18.9375 73 
Q 24.125 74.21875 28.421875 74.21875 
Q 39.75 74.21875 46.484375 68.546875 
Q 53.21875 62.890625 53.21875 53.421875 
Q 53.21875 48.921875 51.53125 44.890625 
Q 49.859375 40.875 45.40625 35.40625 
Q 44.1875 33.984375 37.640625 27.21875 
Q 31.109375 20.453125 19.1875 8.296875 
" id="BitstreamVeraSans-Roman-32"/>
      </defs>
      <g transform="translate(70.73 220.941438679)scale(0.12 -0.12)">
       <use xlink:href="#BitstreamVeraSans-Roman-32"/>
       <use x="63.623046875" xlink:href="#BitstreamVeraSans-Roman-30"/>
      </g>
     </g>
    </g>
    <g id="ytick_3">
     <g id="line2d_15">
      <g>
       <use style="stroke:#000000;stroke-width:0.5;" x="90.0" xlink:href="#mbc87aaed28" y="190.460377358"/>
      </g>
     </g>
     <g id="line2d_16">
      <g>
       <use style="stroke:#000000;stroke-width:0.5;" x="648.0" xlink:href="#m384a14cc83" y="190.460377358"/>
      </g>
     </g>
     <g id="text_8">
      <!-- 40 -->
      <defs>
       <path d="M 37.796875 64.3125 
L 12.890625 25.390625 
L 37.796875 25.390625 
z
M 35.203125 72.90625 
L 47.609375 72.90625 
L 47.609375 25.390625 
L 58.015625 25.390625 
L 58.015625 17.1875 
L 47.609375 17.1875 
L 47.609375 0 
L 37.796875 0 
L 37.796875 17.1875 
L 4.890625 17.1875 
L 4.890625 26.703125 
z
" id="BitstreamVeraSans-Roman-34"/>
      </defs>
      <g transform="translate(70.73 193.771627358)scale(0.12 -0.12)">
       <use xlink:href="#BitstreamVeraSans-Roman-34"/>
       <use x="63.623046875" xlink:href="#BitstreamVeraSans-Roman-30"/>
      </g>
     </g>
    </g>
    <g id="ytick_4">
     <g id="line2d_17">
      <g>
       <use style="stroke:#000000;stroke-width:0.5;" x="90.0" xlink:href="#mbc87aaed28" y="163.290566038"/>
      </g>
     </g>
     <g id="line2d_18">
      <g>
       <use style="stroke:#000000;stroke-width:0.5;" x="648.0" xlink:href="#m384a14cc83" y="163.290566038"/>
      </g>
     </g>
     <g id="text_9">
      <!-- 60 -->
      <defs>
       <path d="M 33.015625 40.375 
Q 26.375 40.375 22.484375 35.828125 
Q 18.609375 31.296875 18.609375 23.390625 
Q 18.609375 15.53125 22.484375 10.953125 
Q 26.375 6.390625 33.015625 6.390625 
Q 39.65625 6.390625 43.53125 10.953125 
Q 47.40625 15.53125 47.40625 23.390625 
Q 47.40625 31.296875 43.53125 35.828125 
Q 39.65625 40.375 33.015625 40.375 
M 52.59375 71.296875 
L 52.59375 62.3125 
Q 48.875 64.0625 45.09375 64.984375 
Q 41.3125 65.921875 37.59375 65.921875 
Q 27.828125 65.921875 22.671875 59.328125 
Q 17.53125 52.734375 16.796875 39.40625 
Q 19.671875 43.65625 24.015625 45.921875 
Q 28.375 48.1875 33.59375 48.1875 
Q 44.578125 48.1875 50.953125 41.515625 
Q 57.328125 34.859375 57.328125 23.390625 
Q 57.328125 12.15625 50.6875 5.359375 
Q 44.046875 -1.421875 33.015625 -1.421875 
Q 20.359375 -1.421875 13.671875 8.265625 
Q 6.984375 17.96875 6.984375 36.375 
Q 6.984375 53.65625 15.1875 63.9375 
Q 23.390625 74.21875 37.203125 74.21875 
Q 40.921875 74.21875 44.703125 73.484375 
Q 48.484375 72.75 52.59375 71.296875 
" id="BitstreamVeraSans-Roman-36"/>
      </defs>
      <g transform="translate(70.73 166.601816038)scale(0.12 -0.12)">
       <use xlink:href="#BitstreamVeraSans-Roman-36"/>
       <use x="63.623046875" xlink:href="#BitstreamVeraSans-Roman-30"/>
      </g>
     </g>
    </g>
    <g id="ytick_5">
     <g id="line2d_19">
      <g>
       <use style="stroke:#000000;stroke-width:0.5;" x="90.0" xlink:href="#mbc87aaed28" y="136.120754717"/>
      </g>
     </g>
     <g id="line2d_20">
      <g>
       <use style="stroke:#000000;stroke-width:0.5;" x="648.0" xlink:href="#m384a14cc83" y="136.120754717"/>
      </g>
     </g>
     <g id="text_10">
      <!-- 80 -->
      <defs>
       <path d="M 31.78125 34.625 
Q 24.75 34.625 20.71875 30.859375 
Q 16.703125 27.09375 16.703125 20.515625 
Q 16.703125 13.921875 20.71875 10.15625 
Q 24.75 6.390625 31.78125 6.390625 
Q 38.8125 6.390625 42.859375 10.171875 
Q 46.921875 13.96875 46.921875 20.515625 
Q 46.921875 27.09375 42.890625 30.859375 
Q 38.875 34.625 31.78125 34.625 
M 21.921875 38.8125 
Q 15.578125 40.375 12.03125 44.71875 
Q 8.5 49.078125 8.5 55.328125 
Q 8.5 64.0625 14.71875 69.140625 
Q 20.953125 74.21875 31.78125 74.21875 
Q 42.671875 74.21875 48.875 69.140625 
Q 55.078125 64.0625 55.078125 55.328125 
Q 55.078125 49.078125 51.53125 44.71875 
Q 48 40.375 41.703125 38.8125 
Q 48.828125 37.15625 52.796875 32.3125 
Q 56.78125 27.484375 56.78125 20.515625 
Q 56.78125 9.90625 50.3125 4.234375 
Q 43.84375 -1.421875 31.78125 -1.421875 
Q 19.734375 -1.421875 13.25 4.234375 
Q 6.78125 9.90625 6.78125 20.515625 
Q 6.78125 27.484375 10.78125 32.3125 
Q 14.796875 37.15625 21.921875 38.8125 
M 18.3125 54.390625 
Q 18.3125 48.734375 21.84375 45.5625 
Q 25.390625 42.390625 31.78125 42.390625 
Q 38.140625 42.390625 41.71875 45.5625 
Q 45.3125 48.734375 45.3125 54.390625 
Q 45.3125 60.0625 41.71875 63.234375 
Q 38.140625 66.40625 31.78125 66.40625 
Q 25.390625 66.40625 21.84375 63.234375 
Q 18.3125 60.0625 18.3125 54.390625 
" id="BitstreamVeraSans-Roman-38"/>
      </defs>
      <g transform="translate(70.73 139.432004717)scale(0.12 -0.12)">
       <use xlink:href="#BitstreamVeraSans-Roman-38"/>
       <use x="63.623046875" xlink:href="#BitstreamVeraSans-Roman-30"/>
      </g>
     </g>
    </g>
    <g id="ytick_6">
     <g id="line2d_21">
      <g>
       <use style="stroke:#000000;stroke-width:0.5;" x="90.0" xlink:href="#mbc87aaed28" y="108.950943396"/>
      </g>
     </g>
     <g id="line2d_22">
      <g>
       <use style="stroke:#000000;stroke-width:0.5;" x="648.0" xlink:href="#m384a14cc83" y="108.950943396"/>
      </g>
     </g>
     <g id="text_11">
      <!-- 100 -->
      <g transform="translate(63.095 112.262193396)scale(0.12 -0.12)">
       <use xlink:href="#BitstreamVeraSans-Roman-31"/>
       <use x="63.623046875" xlink:href="#BitstreamVeraSans-Roman-30"/>
       <use x="127.24609375" xlink:href="#BitstreamVeraSans-Roman-30"/>
      </g>
     </g>
    </g>
    <g id="ytick_7">
     <g id="line2d_23">
      <g>
       <use style="stroke:#000000;stroke-width:0.5;" x="90.0" xlink:href="#mbc87aaed28" y="81.7811320755"/>
      </g>
     </g>
     <g id="line2d_24">
      <g>
       <use style="stroke:#000000;stroke-width:0.5;" x="648.0" xlink:href="#m384a14cc83" y="81.7811320755"/>
      </g>
     </g>
     <g id="text_12">
      <!-- 120 -->
      <g transform="translate(63.095 85.0923820755)scale(0.12 -0.12)">
       <use xlink:href="#BitstreamVeraSans-Roman-31"/>
       <use x="63.623046875" xlink:href="#BitstreamVeraSans-Roman-32"/>
       <use x="127.24609375" xlink:href="#BitstreamVeraSans-Roman-30"/>
      </g>
     </g>
    </g>
    <g id="ytick_8">
     <g id="line2d_25">
      <g>
       <use style="stroke:#000000;stroke-width:0.5;" x="90.0" xlink:href="#mbc87aaed28" y="54.6113207547"/>
      </g>
     </g>
     <g id="line2d_26">
      <g>
       <use style="stroke:#000000;stroke-width:0.5;" x="648.0" xlink:href="#m384a14cc83" y="54.6113207547"/>
      </g>
     </g>
     <g id="text_13">
      <!-- 140 -->
      <g transform="translate(63.095 57.9225707547)scale(0.12 -0.12)">
       <use xlink:href="#BitstreamVeraSans-Roman-31"/>
       <use x="63.623046875" xlink:href="#BitstreamVeraSans-Roman-34"/>
       <use x="127.24609375" xlink:href="#BitstreamVeraSans-Roman-30"/>
      </g>
     </g>
    </g>
    <g id="text_14">
     <!-- Distance (cm) -->
     <defs>
      <path d="M 54.890625 33.015625 
L 54.890625 0 
L 45.90625 0 
L 45.90625 32.71875 
Q 45.90625 40.484375 42.875 44.328125 
Q 39.84375 48.1875 33.796875 48.1875 
Q 26.515625 48.1875 22.3125 43.546875 
Q 18.109375 38.921875 18.109375 30.90625 
L 18.109375 0 
L 9.078125 0 
L 9.078125 54.6875 
L 18.109375 54.6875 
L 18.109375 46.1875 
Q 21.34375 51.125 25.703125 53.5625 
Q 30.078125 56 35.796875 56 
Q 45.21875 56 50.046875 50.171875 
Q 54.890625 44.34375 54.890625 33.015625 
" id="BitstreamVeraSans-Roman-6e"/>
      <path d="M 52 44.1875 
Q 55.375 50.25 60.0625 53.125 
Q 64.75 56 71.09375 56 
Q 79.640625 56 84.28125 50.015625 
Q 88.921875 44.046875 88.921875 33.015625 
L 88.921875 0 
L 79.890625 0 
L 79.890625 32.71875 
Q 79.890625 40.578125 77.09375 44.375 
Q 74.3125 48.1875 68.609375 48.1875 
Q 61.625 48.1875 57.5625 43.546875 
Q 53.515625 38.921875 53.515625 30.90625 
L 53.515625 0 
L 44.484375 0 
L 44.484375 32.71875 
Q 44.484375 40.625 41.703125 44.40625 
Q 38.921875 48.1875 33.109375 48.1875 
Q 26.21875 48.1875 22.15625 43.53125 
Q 18.109375 38.875 18.109375 30.90625 
L 18.109375 0 
L 9.078125 0 
L 9.078125 54.6875 
L 18.109375 54.6875 
L 18.109375 46.1875 
Q 21.1875 51.21875 25.484375 53.609375 
Q 29.78125 56 35.6875 56 
Q 41.65625 56 45.828125 52.96875 
Q 50 49.953125 52 44.1875 
" id="BitstreamVeraSans-Roman-6d"/>
      <path d="M 19.671875 64.796875 
L 19.671875 8.109375 
L 31.59375 8.109375 
Q 46.6875 8.109375 53.6875 14.9375 
Q 60.6875 21.78125 60.6875 36.53125 
Q 60.6875 51.171875 53.6875 57.984375 
Q 46.6875 64.796875 31.59375 64.796875 
z
M 9.8125 72.90625 
L 30.078125 72.90625 
Q 51.265625 72.90625 61.171875 64.09375 
Q 71.09375 55.28125 71.09375 36.53125 
Q 71.09375 17.671875 61.125 8.828125 
Q 51.171875 0 30.078125 0 
L 9.8125 0 
z
" id="BitstreamVeraSans-Roman-44"/>
      <path d="M 9.421875 54.6875 
L 18.40625 54.6875 
L 18.40625 0 
L 9.421875 0 
z
M 9.421875 75.984375 
L 18.40625 75.984375 
L 18.40625 64.59375 
L 9.421875 64.59375 
z
" id="BitstreamVeraSans-Roman-69"/>
      <path d="M 56.203125 29.59375 
L 56.203125 25.203125 
L 14.890625 25.203125 
Q 15.484375 15.921875 20.484375 11.0625 
Q 25.484375 6.203125 34.421875 6.203125 
Q 39.59375 6.203125 44.453125 7.46875 
Q 49.3125 8.734375 54.109375 11.28125 
L 54.109375 2.78125 
Q 49.265625 0.734375 44.1875 -0.34375 
Q 39.109375 -1.421875 33.890625 -1.421875 
Q 20.796875 -1.421875 13.15625 6.1875 
Q 5.515625 13.8125 5.515625 26.8125 
Q 5.515625 40.234375 12.765625 48.109375 
Q 20.015625 56 32.328125 56 
Q 43.359375 56 49.78125 48.890625 
Q 56.203125 41.796875 56.203125 29.59375 
M 47.21875 32.234375 
Q 47.125 39.59375 43.09375 43.984375 
Q 39.0625 48.390625 32.421875 48.390625 
Q 24.90625 48.390625 20.390625 44.140625 
Q 15.875 39.890625 15.1875 32.171875 
z
" id="BitstreamVeraSans-Roman-65"/>
      <path d="M 34.28125 27.484375 
Q 23.390625 27.484375 19.1875 25 
Q 14.984375 22.515625 14.984375 16.5 
Q 14.984375 11.71875 18.140625 8.90625 
Q 21.296875 6.109375 26.703125 6.109375 
Q 34.1875 6.109375 38.703125 11.40625 
Q 43.21875 16.703125 43.21875 25.484375 
L 43.21875 27.484375 
z
M 52.203125 31.203125 
L 52.203125 0 
L 43.21875 0 
L 43.21875 8.296875 
Q 40.140625 3.328125 35.546875 0.953125 
Q 30.953125 -1.421875 24.3125 -1.421875 
Q 15.921875 -1.421875 10.953125 3.296875 
Q 6 8.015625 6 15.921875 
Q 6 25.140625 12.171875 29.828125 
Q 18.359375 34.515625 30.609375 34.515625 
L 43.21875 34.515625 
L 43.21875 35.40625 
Q 43.21875 41.609375 39.140625 45 
Q 35.0625 48.390625 27.6875 48.390625 
Q 23 48.390625 18.546875 47.265625 
Q 14.109375 46.140625 10.015625 43.890625 
L 10.015625 52.203125 
Q 14.9375 54.109375 19.578125 55.046875 
Q 24.21875 56 28.609375 56 
Q 40.484375 56 46.34375 49.84375 
Q 52.203125 43.703125 52.203125 31.203125 
" id="BitstreamVeraSans-Roman-61"/>
      <path d="M 48.78125 52.59375 
L 48.78125 44.1875 
Q 44.96875 46.296875 41.140625 47.34375 
Q 37.3125 48.390625 33.40625 48.390625 
Q 24.65625 48.390625 19.8125 42.84375 
Q 14.984375 37.3125 14.984375 27.296875 
Q 14.984375 17.28125 19.8125 11.734375 
Q 24.65625 6.203125 33.40625 6.203125 
Q 37.3125 6.203125 41.140625 7.25 
Q 44.96875 8.296875 48.78125 10.40625 
L 48.78125 2.09375 
Q 45.015625 0.34375 40.984375 -0.53125 
Q 36.96875 -1.421875 32.421875 -1.421875 
Q 20.0625 -1.421875 12.78125 6.34375 
Q 5.515625 14.109375 5.515625 27.296875 
Q 5.515625 40.671875 12.859375 48.328125 
Q 20.21875 56 33.015625 56 
Q 37.15625 56 41.109375 55.140625 
Q 45.0625 54.296875 48.78125 52.59375 
" id="BitstreamVeraSans-Roman-63"/>
     </defs>
     <g transform="translate(55.599375 178.7671875)rotate(-90.0)scale(0.12 -0.12)">
      <use xlink:href="#BitstreamVeraSans-Roman-44"/>
      <use x="77.001953125" xlink:href="#BitstreamVeraSans-Roman-69"/>
      <use x="104.78515625" xlink:href="#BitstreamVeraSans-Roman-73"/>
      <use x="156.884765625" xlink:href="#BitstreamVeraSans-Roman-74"/>
      <use x="196.09375" xlink:href="#BitstreamVeraSans-Roman-61"/>
      <use x="257.373046875" xlink:href="#BitstreamVeraSans-Roman-6e"/>
      <use x="320.751953125" xlink:href="#BitstreamVeraSans-Roman-63"/>
      <use x="375.732421875" xlink:href="#BitstreamVeraSans-Roman-65"/>
      <use x="437.255859375" xlink:href="#BitstreamVeraSans-Roman-20"/>
      <use x="469.04296875" xlink:href="#BitstreamVeraSans-Roman-28"/>
      <use x="508.056640625" xlink:href="#BitstreamVeraSans-Roman-63"/>
      <use x="563.037109375" xlink:href="#BitstreamVeraSans-Roman-6d"/>
      <use x="660.44921875" xlink:href="#BitstreamVeraSans-Roman-29"/>
     </g>
    </g>
   </g>
   <g id="text_15">
    <!-- Ultrasound Data -->
    <defs>
     <path d="M 30.609375 48.390625 
Q 23.390625 48.390625 19.1875 42.75 
Q 14.984375 37.109375 14.984375 27.296875 
Q 14.984375 17.484375 19.15625 11.84375 
Q 23.34375 6.203125 30.609375 6.203125 
Q 37.796875 6.203125 41.984375 11.859375 
Q 46.1875 17.53125 46.1875 27.296875 
Q 46.1875 37.015625 41.984375 42.703125 
Q 37.796875 48.390625 30.609375 48.390625 
M 30.609375 56 
Q 42.328125 56 49.015625 48.375 
Q 55.71875 40.765625 55.71875 27.296875 
Q 55.71875 13.875 49.015625 6.21875 
Q 42.328125 -1.421875 30.609375 -1.421875 
Q 18.84375 -1.421875 12.171875 6.21875 
Q 5.515625 13.875 5.515625 27.296875 
Q 5.515625 40.765625 12.171875 48.375 
Q 18.84375 56 30.609375 56 
" id="BitstreamVeraSans-Roman-6f"/>
     <path d="M 9.421875 75.984375 
L 18.40625 75.984375 
L 18.40625 0 
L 9.421875 0 
z
" id="BitstreamVeraSans-Roman-6c"/>
     <path d="M 8.6875 72.90625 
L 18.609375 72.90625 
L 18.609375 28.609375 
Q 18.609375 16.890625 22.84375 11.734375 
Q 27.09375 6.59375 36.625 6.59375 
Q 46.09375 6.59375 50.34375 11.734375 
Q 54.59375 16.890625 54.59375 28.609375 
L 54.59375 72.90625 
L 64.5 72.90625 
L 64.5 27.390625 
Q 64.5 13.140625 57.4375 5.859375 
Q 50.390625 -1.421875 36.625 -1.421875 
Q 22.796875 -1.421875 15.734375 5.859375 
Q 8.6875 13.140625 8.6875 27.390625 
z
" id="BitstreamVeraSans-Roman-55"/>
     <path d="M 45.40625 46.390625 
L 45.40625 75.984375 
L 54.390625 75.984375 
L 54.390625 0 
L 45.40625 0 
L 45.40625 8.203125 
Q 42.578125 3.328125 38.25 0.953125 
Q 33.9375 -1.421875 27.875 -1.421875 
Q 17.96875 -1.421875 11.734375 6.484375 
Q 5.515625 14.40625 5.515625 27.296875 
Q 5.515625 40.1875 11.734375 48.09375 
Q 17.96875 56 27.875 56 
Q 33.9375 56 38.25 53.625 
Q 42.578125 51.265625 45.40625 46.390625 
M 14.796875 27.296875 
Q 14.796875 17.390625 18.875 11.75 
Q 22.953125 6.109375 30.078125 6.109375 
Q 37.203125 6.109375 41.296875 11.75 
Q 45.40625 17.390625 45.40625 27.296875 
Q 45.40625 37.203125 41.296875 42.84375 
Q 37.203125 48.484375 30.078125 48.484375 
Q 22.953125 48.484375 18.875 42.84375 
Q 14.796875 37.203125 14.796875 27.296875 
" id="BitstreamVeraSans-Roman-64"/>
     <path d="M 8.5 21.578125 
L 8.5 54.6875 
L 17.484375 54.6875 
L 17.484375 21.921875 
Q 17.484375 14.15625 20.5 10.265625 
Q 23.53125 6.390625 29.59375 6.390625 
Q 36.859375 6.390625 41.078125 11.03125 
Q 45.3125 15.671875 45.3125 23.6875 
L 45.3125 54.6875 
L 54.296875 54.6875 
L 54.296875 0 
L 45.3125 0 
L 45.3125 8.40625 
Q 42.046875 3.421875 37.71875 1 
Q 33.40625 -1.421875 27.6875 -1.421875 
Q 18.265625 -1.421875 13.375 4.4375 
Q 8.5 10.296875 8.5 21.578125 
" id="BitstreamVeraSans-Roman-75"/>
     <path d="M 41.109375 46.296875 
Q 39.59375 47.171875 37.8125 47.578125 
Q 36.03125 48 33.890625 48 
Q 26.265625 48 22.1875 43.046875 
Q 18.109375 38.09375 18.109375 28.8125 
L 18.109375 0 
L 9.078125 0 
L 9.078125 54.6875 
L 18.109375 54.6875 
L 18.109375 46.1875 
Q 20.953125 51.171875 25.484375 53.578125 
Q 30.03125 56 36.53125 56 
Q 37.453125 56 38.578125 55.875 
Q 39.703125 55.765625 41.0625 55.515625 
z
" id="BitstreamVeraSans-Roman-72"/>
    </defs>
    <g transform="translate(310.203 23.8)scale(0.144 -0.144)">
     <use xlink:href="#BitstreamVeraSans-Roman-55"/>
     <use x="73.193359375" xlink:href="#BitstreamVeraSans-Roman-6c"/>
     <use x="100.9765625" xlink:href="#BitstreamVeraSans-Roman-74"/>
     <use x="140.185546875" xlink:href="#BitstreamVeraSans-Roman-72"/>
     <use x="181.298828125" xlink:href="#BitstreamVeraSans-Roman-61"/>
     <use x="242.578125" xlink:href="#BitstreamVeraSans-Roman-73"/>
     <use x="294.677734375" xlink:href="#BitstreamVeraSans-Roman-6f"/>
     <use x="355.859375" xlink:href="#BitstreamVeraSans-Roman-75"/>
     <use x="419.23828125" xlink:href="#BitstreamVeraSans-Roman-6e"/>
     <use x="482.6171875" xlink:href="#BitstreamVeraSans-Roman-64"/>
     <use x="546.09375" xlink:href="#BitstreamVeraSans-Roman-20"/>
     <use x="577.880859375" xlink:href="#BitstreamVeraSans-Roman-44"/>
     <use x="654.8828125" xlink:href="#BitstreamVeraSans-Roman-61"/>
     <use x="716.162109375" xlink:href="#BitstreamVeraSans-Roman-74"/>
     <use x="755.37109375" xlink:href="#BitstreamVeraSans-Roman-61"/>
    </g>
   </g>
   <g id="legend_1">
    <g id="patch_7">
     <path d="M 552.07625 67.64325 
L 644 67.64325 
L 644 32.8 
L 552.07625 32.8 
z
" style="fill:#ffffff;stroke:#000000;stroke-linejoin:miter;"/>
    </g>
    <g id="line2d_27">
     <path d="M 557.67625 39.27875 
L 568.87625 39.27875 
" style="fill:none;stroke:#5b6fbd;stroke-linecap:square;"/>
    </g>
    <g id="line2d_28">
     <g>
      <use style="fill:#5b6fbd;stroke:#000000;stroke-linejoin:miter;stroke-width:0.5;" x="557.67625" xlink:href="#m634066a5bb" y="39.27875"/>
      <use style="fill:#5b6fbd;stroke:#000000;stroke-linejoin:miter;stroke-width:0.5;" x="568.87625" xlink:href="#m634066a5bb" y="39.27875"/>
     </g>
    </g>
    <g id="text_16">
     <!-- Raw Signal -->
     <defs>
      <path d="M 4.203125 54.6875 
L 13.1875 54.6875 
L 24.421875 12.015625 
L 35.59375 54.6875 
L 46.1875 54.6875 
L 57.421875 12.015625 
L 68.609375 54.6875 
L 77.59375 54.6875 
L 63.28125 0 
L 52.6875 0 
L 40.921875 44.828125 
L 29.109375 0 
L 18.5 0 
z
" id="BitstreamVeraSans-Roman-77"/>
      <path d="M 44.390625 34.1875 
Q 47.5625 33.109375 50.5625 29.59375 
Q 53.5625 26.078125 56.59375 19.921875 
L 66.609375 0 
L 56 0 
L 46.6875 18.703125 
Q 43.0625 26.03125 39.671875 28.421875 
Q 36.28125 30.8125 30.421875 30.8125 
L 19.671875 30.8125 
L 19.671875 0 
L 9.8125 0 
L 9.8125 72.90625 
L 32.078125 72.90625 
Q 44.578125 72.90625 50.734375 67.671875 
Q 56.890625 62.453125 56.890625 51.90625 
Q 56.890625 45.015625 53.6875 40.46875 
Q 50.484375 35.9375 44.390625 34.1875 
M 19.671875 64.796875 
L 19.671875 38.921875 
L 32.078125 38.921875 
Q 39.203125 38.921875 42.84375 42.21875 
Q 46.484375 45.515625 46.484375 51.90625 
Q 46.484375 58.296875 42.84375 61.546875 
Q 39.203125 64.796875 32.078125 64.796875 
z
" id="BitstreamVeraSans-Roman-52"/>
      <path d="M 53.515625 70.515625 
L 53.515625 60.890625 
Q 47.90625 63.578125 42.921875 64.890625 
Q 37.9375 66.21875 33.296875 66.21875 
Q 25.25 66.21875 20.875 63.09375 
Q 16.5 59.96875 16.5 54.203125 
Q 16.5 49.359375 19.40625 46.890625 
Q 22.3125 44.4375 30.421875 42.921875 
L 36.375 41.703125 
Q 47.40625 39.59375 52.65625 34.296875 
Q 57.90625 29 57.90625 20.125 
Q 57.90625 9.515625 50.796875 4.046875 
Q 43.703125 -1.421875 29.984375 -1.421875 
Q 24.8125 -1.421875 18.96875 -0.25 
Q 13.140625 0.921875 6.890625 3.21875 
L 6.890625 13.375 
Q 12.890625 10.015625 18.65625 8.296875 
Q 24.421875 6.59375 29.984375 6.59375 
Q 38.421875 6.59375 43.015625 9.90625 
Q 47.609375 13.234375 47.609375 19.390625 
Q 47.609375 24.75 44.3125 27.78125 
Q 41.015625 30.8125 33.5 32.328125 
L 27.484375 33.5 
Q 16.453125 35.6875 11.515625 40.375 
Q 6.59375 45.0625 6.59375 53.421875 
Q 6.59375 63.09375 13.40625 68.65625 
Q 20.21875 74.21875 32.171875 74.21875 
Q 37.3125 74.21875 42.625 73.28125 
Q 47.953125 72.359375 53.515625 70.515625 
" id="BitstreamVeraSans-Roman-53"/>
      <path d="M 45.40625 27.984375 
Q 45.40625 37.75 41.375 43.109375 
Q 37.359375 48.484375 30.078125 48.484375 
Q 22.859375 48.484375 18.828125 43.109375 
Q 14.796875 37.75 14.796875 27.984375 
Q 14.796875 18.265625 18.828125 12.890625 
Q 22.859375 7.515625 30.078125 7.515625 
Q 37.359375 7.515625 41.375 12.890625 
Q 45.40625 18.265625 45.40625 27.984375 
M 54.390625 6.78125 
Q 54.390625 -7.171875 48.1875 -13.984375 
Q 42 -20.796875 29.203125 -20.796875 
Q 24.46875 -20.796875 20.265625 -20.09375 
Q 16.0625 -19.390625 12.109375 -17.921875 
L 12.109375 -9.1875 
Q 16.0625 -11.328125 19.921875 -12.34375 
Q 23.78125 -13.375 27.78125 -13.375 
Q 36.625 -13.375 41.015625 -8.765625 
Q 45.40625 -4.15625 45.40625 5.171875 
L 45.40625 9.625 
Q 42.625 4.78125 38.28125 2.390625 
Q 33.9375 0 27.875 0 
Q 17.828125 0 11.671875 7.65625 
Q 5.515625 15.328125 5.515625 27.984375 
Q 5.515625 40.671875 11.671875 48.328125 
Q 17.828125 56 27.875 56 
Q 33.9375 56 38.28125 53.609375 
Q 42.625 51.21875 45.40625 46.390625 
L 45.40625 54.6875 
L 54.390625 54.6875 
z
" id="BitstreamVeraSans-Roman-67"/>
     </defs>
     <g transform="translate(577.67625 42.07875)scale(0.08 -0.08)">
      <use xlink:href="#BitstreamVeraSans-Roman-52"/>
      <use x="69.451171875" xlink:href="#BitstreamVeraSans-Roman-61"/>
      <use x="130.73046875" xlink:href="#BitstreamVeraSans-Roman-77"/>
      <use x="212.517578125" xlink:href="#BitstreamVeraSans-Roman-20"/>
      <use x="244.3046875" xlink:href="#BitstreamVeraSans-Roman-53"/>
      <use x="307.78125" xlink:href="#BitstreamVeraSans-Roman-69"/>
      <use x="335.564453125" xlink:href="#BitstreamVeraSans-Roman-67"/>
      <use x="399.041015625" xlink:href="#BitstreamVeraSans-Roman-6e"/>
      <use x="462.419921875" xlink:href="#BitstreamVeraSans-Roman-61"/>
      <use x="523.69921875" xlink:href="#BitstreamVeraSans-Roman-6c"/>
     </g>
    </g>
    <g id="line2d_29">
     <path d="M 557.67625 56.33225 
L 568.87625 56.33225 
" style="fill:none;stroke:#ff0b13;stroke-linecap:square;stroke-width:2.0;"/>
    </g>
    <g id="line2d_30"/>
    <g id="text_17">
     <!-- Rolling Average -->
     <defs>
      <path d="M 2.984375 54.6875 
L 12.5 54.6875 
L 29.59375 8.796875 
L 46.6875 54.6875 
L 56.203125 54.6875 
L 35.6875 0 
L 23.484375 0 
z
" id="BitstreamVeraSans-Roman-76"/>
      <path d="M 34.1875 63.1875 
L 20.796875 26.90625 
L 47.609375 26.90625 
z
M 28.609375 72.90625 
L 39.796875 72.90625 
L 67.578125 0 
L 57.328125 0 
L 50.6875 18.703125 
L 17.828125 18.703125 
L 11.1875 0 
L 0.78125 0 
z
" id="BitstreamVeraSans-Roman-41"/>
     </defs>
     <g transform="translate(577.67625 53.82125)scale(0.08 -0.08)">
      <use xlink:href="#BitstreamVeraSans-Roman-52"/>
      <use x="69.419921875" xlink:href="#BitstreamVeraSans-Roman-6f"/>
      <use x="130.6015625" xlink:href="#BitstreamVeraSans-Roman-6c"/>
      <use x="158.384765625" xlink:href="#BitstreamVeraSans-Roman-6c"/>
      <use x="186.16796875" xlink:href="#BitstreamVeraSans-Roman-69"/>
      <use x="213.951171875" xlink:href="#BitstreamVeraSans-Roman-6e"/>
      <use x="277.330078125" xlink:href="#BitstreamVeraSans-Roman-67"/>
      <use x="340.806640625" xlink:href="#BitstreamVeraSans-Roman-20"/>
      <use x="372.59375" xlink:href="#BitstreamVeraSans-Roman-41"/>
      <use x="440.923828125" xlink:href="#BitstreamVeraSans-Roman-76"/>
      <use x="500.103515625" xlink:href="#BitstreamVeraSans-Roman-65"/>
      <use x="561.626953125" xlink:href="#BitstreamVeraSans-Roman-72"/>
      <use x="602.740234375" xlink:href="#BitstreamVeraSans-Roman-61"/>
      <use x="664.01953125" xlink:href="#BitstreamVeraSans-Roman-67"/>
      <use x="727.49609375" xlink:href="#BitstreamVeraSans-Roman-65"/>
     </g>
     <!-- Ignoring Zeros -->
     <defs>
      <path d="M 5.609375 72.90625 
L 62.890625 72.90625 
L 62.890625 65.375 
L 16.796875 8.296875 
L 64.015625 8.296875 
L 64.015625 0 
L 4.5 0 
L 4.5 7.515625 
L 50.59375 64.59375 
L 5.609375 64.59375 
z
" id="BitstreamVeraSans-Roman-5a"/>
      <path d="M 9.8125 72.90625 
L 19.671875 72.90625 
L 19.671875 0 
L 9.8125 0 
z
" id="BitstreamVeraSans-Roman-49"/>
     </defs>
     <g transform="translate(577.67625 62.7795)scale(0.08 -0.08)">
      <use xlink:href="#BitstreamVeraSans-Roman-49"/>
      <use x="29.4921875" xlink:href="#BitstreamVeraSans-Roman-67"/>
      <use x="92.96875" xlink:href="#BitstreamVeraSans-Roman-6e"/>
      <use x="156.34765625" xlink:href="#BitstreamVeraSans-Roman-6f"/>
      <use x="217.529296875" xlink:href="#BitstreamVeraSans-Roman-72"/>
      <use x="258.642578125" xlink:href="#BitstreamVeraSans-Roman-69"/>
      <use x="286.42578125" xlink:href="#BitstreamVeraSans-Roman-6e"/>
      <use x="349.8046875" xlink:href="#BitstreamVeraSans-Roman-67"/>
      <use x="413.28125" xlink:href="#BitstreamVeraSans-Roman-20"/>
      <use x="445.068359375" xlink:href="#BitstreamVeraSans-Roman-5a"/>
      <use x="513.57421875" xlink:href="#BitstreamVeraSans-Roman-65"/>
      <use x="575.09765625" xlink:href="#BitstreamVeraSans-Roman-72"/>
      <use x="616.1796875" xlink:href="#BitstreamVeraSans-Roman-6f"/>
      <use x="677.361328125" xlink:href="#BitstreamVeraSans-Roman-73"/>
     </g>
    </g>
   </g>
  </g>
 </g>
 <defs>
  <clipPath id="pa21484418a">
   <rect height="216.0" width="558.0" x="90.0" y="28.8"/>
  </clipPath>
 </defs>
</svg>
