<?xml version="1.0" encoding="utf-8" standalone="no"?>
<!DOCTYPE svg PUBLIC "-//W3C//DTD SVG 1.1//EN"
  "http://www.w3.org/Graphics/SVG/1.1/DTD/svg11.dtd">
<!-- Created with matplotlib (http://matplotlib.org/) -->
<svg height="288pt" version="1.1" viewBox="0 0 720 288" width="720pt" xmlns="http://www.w3.org/2000/svg" xmlns:xlink="http://www.w3.org/1999/xlink">
 <defs>
  <style type="text/css">
*{stroke-linecap:butt;stroke-linejoin:round;stroke-miterlimit:100000;}
  </style>
 </defs>
 <g id="figure_1">
  <g id="patch_1">
   <path d="M 0 288 
L 720 288 
L 720 0 
L 0 0 
z
" style="fill:#ffffff;"/>
  </g>
  <g id="axes_1">
   <g id="patch_2">
    <path d="M 90 244.8 
L 648 244.8 
L 648 28.8 
L 90 28.8 
z
" style="fill:#ffffff;"/>
   </g>
   <g id="line2d_1">
    <path clip-path="url(#pc4954830c6)" d="M 90 239.137963 
L 90.571361 238.948955 
L 91.142722 239.195488 
L 91.582231 238.899648 
L 92.153592 239.179052 
L 92.724953 239.18727 
L 93.296314 239.014697 
L 93.867675 239.400932 
L 94.307183 239.409149 
L 94.878544 239.236576 
L 95.449905 239.310536 
L 96.021267 239.121528 
L 97.163989 239.03935 
L 98.306711 239.302319 
L 98.878072 239.129746 
L 99.449433 239.244794 
L 100.899811 239.055786 
L 101.471172 238.998261 
L 101.910681 239.26123 
L 102.482042 238.948955 
L 104.943289 238.907866 
L 105.51465 239.318754 
L 107.844045 238.998261 
L 108.415406 238.776382 
L 109.426276 239.179052 
L 109.997637 239.03935 
L 110.437146 239.129746 
L 112.019376 239.105092 
L 112.590737 239.203705 
L 113.733459 239.11331 
L 114.30482 239.392714 
L 114.744329 239.294101 
L 115.31569 239.326972 
L 115.887051 239.211923 
L 116.458412 238.973608 
L 117.029773 239.302319 
L 117.601134 239.146181 
L 118.172495 239.318754 
L 118.743856 238.96539 
L 119.183365 239.121528 
L 119.754726 239.73786 
L 121.205104 239.310536 
L 121.776465 239.154399 
L 122.215974 239.203705 
L 122.787335 238.998261 
L 123.666352 239.228359 
L 124.237713 238.899648 
L 124.809074 238.842124 
L 125.248582 239.014697 
L 126.69896 239.080439 
L 127.138469 238.973608 
L 128.149338 239.129746 
L 128.720699 238.899648 
L 129.29206 238.874995 
L 129.731569 239.474892 
L 130.30293 239.055786 
L 130.874291 239.047568 
L 131.445652 239.253012 
L 132.017013 239.137963 
L 132.456522 239.33519 
L 133.599244 238.96539 
L 134.170605 239.146181 
L 134.741966 239.170834 
L 135.313327 239.729642 
L 135.884688 239.269448 
L 137.02741 238.85856 
L 137.598771 239.228359 
L 138.477788 239.211923 
L 139.049149 239.006479 
L 139.62051 239.11331 
L 140.63138 238.948955 
L 141.510397 239.269448 
L 142.081758 238.907866 
L 143.092628 238.916084 
L 143.663989 238.948955 
L 145.114367 239.154399 
L 146.125236 239.006479 
L 146.696597 239.195488 
L 147.575614 239.343407 
L 148.015123 239.179052 
L 148.586484 238.809253 
L 149.157845 239.203705 
L 149.729206 238.981826 
L 150.740076 238.743511 
L 151.311437 239.014697 
L 151.882798 238.842124 
L 153.02552 238.998261 
L 153.465028 239.433803 
L 154.036389 239.672118 
L 155.750473 239.672118 
L 156.189981 239.244794 
L 156.761342 238.948955 
L 157.332703 239.022915 
L 157.904064 239.680336 
L 158.475425 238.809253 
L 158.914934 239.129746 
L 160.057656 239.072221 
L 160.629017 238.496978 
L 161.771739 238.899648 
L 162.914461 239.121528 
L 163.485822 239.746078 
L 164.057183 239.548851 
L 164.628544 239.672118 
L 165.199905 239.639247 
L 165.771267 239.294101 
L 166.210775 238.801035 
L 166.782136 238.661333 
L 167.661153 238.653116 
L 168.232514 238.809253 
L 168.803875 239.105092 
L 169.243384 239.557069 
L 172.275992 239.088657 
L 172.847353 238.768164 
L 173.726371 238.628462 
L 174.869093 238.842124 
L 175.308601 239.154399 
L 175.879962 239.302319 
L 176.319471 239.73786 
L 176.890832 239.417367 
L 177.901701 239.318754 
L 179.352079 238.685987 
L 179.92344 238.587373 
L 180.93431 238.874995 
L 181.505671 239.014697 
L 182.648393 239.672118 
L 183.791115 239.491327 
L 184.933837 238.661333 
L 185.505198 238.883213 
L 185.944707 240.83904 
L 187.087429 240.534983 
L 187.65879 239.162617 
L 188.230151 238.250445 
L 188.66966 236.721942 
L 189.241021 236.598676 
L 189.812382 235.867295 
L 190.383743 237.091741 
L 190.955104 241.282799 
L 191.965974 236.590458 
L 192.537335 235.546802 
L 193.108696 231.610495 
L 193.680057 229.630015 
L 194.119565 231.421487 
L 194.690926 237.749162 
L 195.262287 235.661851 
L 195.833648 236.541151 
L 196.405009 237.001346 
L 196.844518 239.729642 
L 197.415879 240.518547 
L 197.98724 244.8 
L 198.558601 243.394763 
L 199.129962 243.559118 
L 199.569471 238.644898 
L 200.140832 236.697289 
L 200.712193 236.828773 
L 201.283554 238.250445 
L 201.854915 238.940737 
L 202.294423 237.215008 
L 202.865784 238.406583 
L 203.437146 235.744028 
L 204.008507 230.369613 
L 204.887524 233.927904 
L 205.327032 230.953074 
L 205.898393 228.906852 
L 206.337902 222.546306 
L 206.909263 218.963363 
L 207.78828 201.467752 
L 208.227788 203.842684 
L 209.37051 207.548894 
L 209.941871 208.99522 
L 210.38138 209.17601 
L 211.39225 201.221219 
L 211.963611 203.629022 
L 212.534972 205.453365 
L 213.106333 205.256139 
L 213.677694 203.275659 
L 214.249055 200.859637 
L 214.820416 196.66858 
L 215.391777 197.884808 
L 215.963138 199.396876 
L 216.402647 194.285429 
L 216.974008 195.501658 
L 217.413516 193.808799 
L 217.984877 192.592571 
L 218.424386 191.302382 
L 218.995747 197.178081 
L 219.435255 197.777977 
L 220.006616 199.05173 
L 220.577977 190.899712 
L 221.149338 191.93515 
L 221.588847 182.550468 
L 222.028355 181.613643 
L 222.599716 193.159596 
L 223.039225 192.148812 
L 223.610586 189.888928 
L 224.050095 194.720971 
L 224.621456 192.255643 
L 225.060964 182.936703 
L 225.632325 182.336806 
L 226.071834 185.163716 
L 226.643195 184.399464 
L 227.214556 184.506295 
L 227.785917 182.944921 
L 228.928639 180.85761 
L 229.5 177.439021 
L 230.071361 177.365062 
L 230.642722 170.971644 
L 231.082231 169.147302 
L 231.653592 163.781104 
L 232.972117 153.270589 
L 233.543478 156.237201 
L 234.114839 161.184292 
L 234.6862 163.781104 
L 235.125709 170.601845 
L 235.69707 172.426188 
L 236.136578 173.453408 
L 236.70794 173.798554 
L 237.147448 173.584892 
L 237.718809 164.241299 
L 238.158318 160.304992 
L 238.729679 159.516087 
L 239.169187 162.252601 
L 239.740548 163.181208 
L 240.180057 159.565393 
L 240.751418 159.39282 
L 241.322779 158.225899 
L 241.89414 155.842748 
L 242.465501 154.963448 
L 243.036862 155.374336 
L 243.608223 156.360467 
L 244.179584 148.800128 
L 244.750945 146.425195 
L 245.322306 150.690213 
L 245.761815 148.274191 
L 246.333176 151.051794 
L 246.904537 149.276758 
L 247.475898 145.63629 
L 248.047259 146.942914 
L 248.61862 149.556162 
L 249.058129 149.01379 
L 249.62949 149.74517 
L 250.200851 147.879739 
L 250.772212 148.767257 
L 251.343573 152.481684 
L 251.914934 143.006607 
L 252.486295 146.203316 
L 253.057656 143.072349 
L 253.629017 143.902343 
L 254.200378 143.17918 
L 254.771739 146.154009 
L 255.3431 146.647075 
L 255.914461 148.496071 
L 256.485822 147.28806 
L 257.057183 144.009174 
L 257.628544 144.789861 
L 258.771267 143.565415 
L 259.342628 144.559764 
L 259.913989 144.017392 
L 260.48535 144.469368 
L 261.056711 141.1987 
L 261.628072 147.485286 
L 262.199433 146.162227 
L 262.638941 147.460633 
L 263.210302 148.652208 
L 263.781664 147.329149 
L 264.353025 150.345067 
L 265.495747 150.525857 
L 265.935255 150.986052 
L 266.506616 148.824781 
L 266.946125 148.53716 
L 267.517486 150.99427 
L 267.956994 154.14989 
L 268.528355 154.80731 
L 269.099716 157.971148 
L 269.671078 157.971148 
L 270.110586 157.034323 
L 270.681947 156.927492 
L 271.121456 160.132419 
L 271.692817 159.433909 
L 272.835539 165.893069 
L 273.275047 172.081042 
L 273.846408 171.71946 
L 275.164934 179.493461 
L 275.604442 177.932087 
L 276.175803 178.006047 
L 276.747164 185.607475 
L 277.318526 182.944921 
L 277.758034 184.169367 
L 278.329395 186.922316 
L 278.768904 182.032749 
L 279.340265 182.61621 
L 279.779773 180.364544 
L 280.351134 183.553035 
L 280.790643 189.535564 
L 281.362004 190.324469 
L 281.933365 187.924883 
L 282.372873 187.053801 
L 282.944234 186.938752 
L 283.383743 187.308551 
L 283.955104 188.335771 
L 284.394612 181.276715 
L 284.965974 183.446204 
L 286.284499 192.839104 
L 286.724008 197.449267 
L 287.295369 198.607971 
L 287.86673 198.90381 
L 288.438091 197.268476 
L 289.009452 198.772326 
L 289.580813 197.441049 
L 290.152174 197.942333 
L 290.723535 196.537096 
L 291.294896 196.619273 
L 291.866257 196.405611 
L 292.305766 197.120557 
L 292.877127 195.756408 
L 293.316635 193.200685 
L 293.887996 189.050716 
L 294.327505 191.064067 
L 294.898866 191.096938 
L 295.338374 189.634177 
L 296.349244 187.226374 
L 297.799622 185.07332 
L 298.370983 179.501679 
L 298.810491 178.852476 
L 299.381853 177.069222 
L 299.821361 176.288535 
L 300.832231 172.483712 
L 301.403592 172.533019 
L 301.8431 173.412319 
L 302.414461 171.900251 
L 302.85397 174.061522 
L 303.864839 169.056906 
L 304.4362 170.166304 
L 304.875709 166.550489 
L 305.44707 165.901286 
L 305.886578 162.038939 
L 306.45794 163.551007 
L 306.897448 160.650138 
L 307.468809 161.570527 
L 307.908318 159.154505 
L 309.05104 160.16529 
L 309.622401 155.587998 
L 310.061909 154.610084 
L 310.63327 155.464731 
L 311.072779 155.267505 
L 311.64414 152.391289 
L 312.083648 152.57208 
L 312.655009 152.407724 
L 313.094518 148.734386 
L 313.665879 148.800128 
L 314.105388 146.942914 
L 315.116257 145.258273 
L 315.687618 143.598286 
L 316.127127 143.335317 
L 316.698488 143.828383 
L 317.137996 141.428797 
L 318.148866 137.747241 
L 318.720227 139.612672 
L 319.159735 136.982989 
L 319.731096 136.859723 
L 320.170605 135.265477 
L 320.741966 137.739023 
L 321.181474 136.547448 
L 321.752836 134.575185 
L 322.324197 133.86024 
L 322.895558 135.388744 
L 323.466919 133.334304 
L 324.03828 132.528963 
L 324.477788 131.304517 
L 325.049149 131.411348 
L 325.488658 130.696403 
L 326.499527 132.841238 
L 327.070888 135.84072 
L 327.510397 136.31735 
L 328.081758 135.306566 
L 328.521267 136.720021 
L 329.092628 137.56645 
L 329.532136 137.574668 
L 330.103497 136.39131 
L 330.543006 136.103689 
L 331.114367 138.74159 
L 331.553875 137.911596 
L 332.125236 142.316315 
L 332.564745 143.294229 
L 333.136106 141.395926 
L 333.707467 144.707683 
L 334.278828 145.899259 
L 334.850189 146.384106 
L 335.42155 147.772908 
L 335.992911 148.101618 
L 336.43242 150.936745 
L 337.003781 153.328114 
L 337.443289 152.383071 
L 338.454159 160.074895 
L 339.02552 159.318861 
L 339.465028 161.151421 
L 340.036389 160.830928 
L 340.475898 163.707144 
L 341.047259 164.586445 
L 341.486767 166.829893 
L 341.926276 170.445708 
L 342.497637 171.160653 
L 343.068998 173.141133 
L 343.640359 175.779034 
L 344.21172 176.559721 
L 345.22259 181.021965 
L 345.793951 182.2875 
L 346.233459 184.629561 
L 346.80482 183.298284 
L 347.244329 184.481642 
L 348.255198 188.623393 
L 348.82656 188.812401 
L 349.397921 192.937717 
L 349.837429 193.595138 
L 350.40879 194.112856 
L 350.848299 195.575618 
L 351.41966 195.649578 
L 352.738185 198.50114 
L 353.309546 199.068166 
L 353.749055 200.818549 
L 354.320416 201.903293 
L 355.638941 201.738938 
L 356.210302 203.316748 
L 356.649811 202.051213 
L 357.221172 201.944382 
L 358.539698 203.357836 
L 359.111059 201.837551 
L 359.550567 202.61002 
L 360.121928 202.35527 
L 360.693289 204.179612 
L 361.132798 202.996255 
L 361.704159 203.070215 
L 362.27552 202.930513 
L 363.286389 204.393274 
L 363.85775 200.802113 
L 364.429112 198.969553 
L 365.000473 201.697849 
L 366.318998 197.564316 
L 366.890359 196.906895 
L 367.46172 191.729706 
L 368.033081 188.253594 
L 369.351607 181.482159 
L 369.922968 182.994227 
L 370.494329 183.380462 
L 371.06569 182.386113 
L 372.384216 178.441588 
L 373.395085 172.500148 
L 375.856333 165.498616 
L 376.427694 160.395387 
L 376.999055 159.984499 
L 377.570416 154.815528 
L 378.581285 154.306027 
L 379.152647 155.57978 
L 379.592155 152.20228 
L 380.163516 154.758004 
L 380.603025 152.744653 
L 381.174386 151.002488 
L 381.613894 151.109318 
L 382.624764 147.624988 
L 383.196125 146.351235 
L 383.635633 147.033309 
L 384.206994 145.545895 
L 384.646503 143.573632 
L 385.217864 143.72977 
L 385.657372 144.042045 
L 386.228733 142.110871 
L 386.668242 141.075433 
L 387.239603 141.568499 
L 387.679112 140.680981 
L 388.250473 141.165829 
L 388.689981 137.213086 
L 389.700851 135.627059 
L 390.272212 135.142211 
L 390.71172 136.711803 
L 391.283081 136.662496 
L 391.72259 135.668147 
L 392.293951 135.068251 
L 392.733459 133.358957 
L 393.30482 133.794498 
L 393.744329 133.547965 
L 394.31569 131.148379 
L 394.755198 130.540265 
L 395.32656 132.405697 
L 395.897921 131.961938 
L 396.469282 129.291166 
L 396.90879 128.239292 
L 397.480151 130.014329 
L 398.051512 130.252644 
L 398.622873 127.77088 
L 399.194234 130.556701 
L 399.765595 129.028197 
L 400.205104 129.89928 
L 400.776465 131.468872 
L 401.347826 127.286032 
L 401.919187 120.892615 
L 402.358696 131.748276 
L 402.930057 130.992242 
L 403.369565 131.65788 
L 403.940926 132.90698 
L 404.380435 133.252126 
L 404.951796 133.087771 
L 405.391304 132.496092 
L 405.962665 131.929067 
L 406.402174 133.145295 
L 406.973535 132.405697 
L 407.413043 136.514577 
L 407.984405 134.48479 
L 408.423913 135.717454 
L 408.995274 135.043598 
L 409.566635 141.058998 
L 410.137996 141.165829 
L 410.709357 139.924947 
L 411.280718 143.737988 
L 411.852079 146.614204 
L 412.291588 150.77239 
L 412.862949 151.429811 
L 413.43431 150.254671 
L 414.005671 155.160674 
L 414.44518 157.395905 
L 415.016541 159.425691 
L 415.456049 160.362516 
L 416.02741 161.167857 
L 416.466919 163.57566 
L 417.03828 164.627534 
L 417.477788 164.816542 
L 418.049149 165.728713 
L 418.488658 168.440574 
L 419.060019 170.667587 
L 419.499527 170.421054 
L 420.070888 170.527885 
L 421.389414 174.94904 
L 421.828922 176.000913 
L 422.400284 178.630597 
L 422.971645 177.989611 
L 423.543006 179.271582 
L 423.982514 179.797519 
L 424.553875 181.597208 
L 424.993384 183.536599 
L 425.564745 182.016314 
L 426.004253 182.21354 
L 426.575614 184.851441 
L 427.015123 185.722523 
L 427.586484 185.656781 
L 428.157845 187.267462 
L 428.597353 189.165765 
L 429.168715 185.804701 
L 429.608223 189.469822 
L 430.179584 190.053283 
L 431.190454 190.151896 
L 432.508979 188.500126 
L 433.08034 192.15703 
L 433.519849 191.639311 
L 434.09121 192.15703 
L 435.409735 194.038897 
L 435.981096 194.06355 
L 436.420605 195.813933 
L 436.991966 195.509876 
L 438.310491 195.435916 
L 438.881853 195.912546 
L 439.321361 195.550964 
L 439.892722 197.252041 
L 440.464083 195.707102 
L 440.903592 197.482138 
L 441.474953 197.843719 
L 442.046314 197.408178 
L 442.617675 198.468269 
L 443.057183 193.997808 
L 443.628544 193.069201 
L 444.068053 190.447735 
L 444.639414 189.100023 
L 445.95794 186.79905 
L 446.968809 186.190936 
L 447.54017 184.440553 
L 448.111531 183.446204 
L 448.55104 180.956223 
L 448.990548 179.320888 
L 449.561909 178.400499 
L 450.13327 179.485244 
L 450.572779 175.310622 
L 451.012287 173.543803 
L 451.583648 173.379448 
L 452.155009 171.735896 
L 452.594518 166.994248 
L 453.034026 166.221779 
L 453.605388 166.525836 
L 454.044896 164.471396 
L 454.616257 163.09903 
L 455.187618 163.164772 
L 455.758979 162.589529 
L 456.33034 160.124201 
L 456.901701 160.066677 
L 457.473062 159.565393 
L 458.044423 155.703046 
L 458.615784 158.069761 
L 459.055293 155.83453 
L 459.626654 155.423642 
L 460.066163 156.401556 
L 460.637524 153.352767 
L 461.077032 152.457031 
L 461.648393 154.281374 
L 462.087902 151.709215 
L 462.659263 150.468333 
L 463.098771 150.419027 
L 463.670132 148.348151 
L 464.109641 149.284976 
L 464.681002 148.849434 
L 465.12051 147.740037 
L 465.691871 148.676861 
L 466.13138 147.772908 
L 466.702741 146.162227 
L 467.14225 146.351235 
L 467.713611 145.940347 
L 468.153119 144.017392 
L 468.72448 142.234138 
L 469.295841 143.688681 
L 469.867202 144.781643 
L 470.438563 142.85047 
L 471.009924 143.58185 
L 471.449433 141.773943 
L 472.020794 142.431364 
L 472.460302 141.946516 
L 473.031664 139.87564 
L 474.174386 140.048213 
L 474.613894 138.314266 
L 475.185255 140.533061 
L 475.756616 136.991207 
L 476.327977 136.161213 
L 476.899338 138.74159 
L 477.470699 137.747241 
L 477.910208 137.410312 
L 478.481569 133.490441 
L 479.05293 134.797065 
L 479.624291 136.982989 
L 480.195652 131.485308 
L 480.767013 133.161731 
L 481.338374 133.424699 
L 481.909735 134.238257 
L 482.481096 135.396961 
L 483.052457 132.323519 
L 483.623819 131.115508 
L 484.19518 132.233124 
L 484.766541 130.819669 
L 485.337902 131.140162 
L 485.909263 132.882327 
L 486.348771 130.573136 
L 486.920132 132.816585 
L 487.491493 132.898762 
L 488.062854 131.846889 
L 488.634216 132.28243 
L 489.205577 134.139644 
L 489.776938 134.994291 
L 490.348299 135.495574 
L 490.91966 135.191517 
L 492.062382 136.736456 
L 492.633743 134.246475 
L 493.205104 138.651194 
L 493.776465 138.141693 
L 494.347826 139.012776 
L 494.787335 138.001991 
L 495.358696 140.360488 
L 495.930057 140.607021 
L 496.501418 140.483755 
L 496.940926 146.236187 
L 497.512287 144.263924 
L 497.951796 145.151442 
L 498.523157 144.526893 
L 498.962665 147.855085 
L 499.534026 149.556162 
L 499.973535 148.660426 
L 500.544896 149.852001 
L 500.984405 152.728217 
L 501.555766 152.580297 
L 501.995274 152.161192 
L 502.566635 155.472949 
L 503.006144 154.840181 
L 503.577505 155.842748 
L 504.148866 159.590047 
L 504.720227 160.617267 
L 505.291588 160.56796 
L 505.862949 159.524305 
L 506.302457 161.59518 
L 506.873819 162.36765 
L 507.313327 162.433392 
L 507.884688 163.255168 
L 508.456049 163.279821 
L 509.02741 165.539705 
L 509.598771 166.090295 
L 510.03828 167.972162 
L 510.609641 169.073342 
L 511.181002 169.056906 
L 511.62051 169.476012 
L 512.63138 172.656285 
L 513.202741 171.859162 
L 513.64225 174.036869 
L 514.213611 174.439539 
L 514.653119 175.565372 
L 515.22448 176.420019 
L 515.795841 176.346059 
L 516.23535 176.732294 
L 516.806711 178.556637 
L 517.246219 177.915651 
L 517.81758 180.569988 
L 518.257089 179.353759 
L 518.82845 181.087707 
L 519.267958 180.413851 
L 519.839319 182.345024 
L 521.157845 184.087189 
L 521.729206 185.927967 
L 522.300567 186.39638 
L 522.871928 189.560217 
L 524.190454 189.823186 
L 524.761815 190.620308 
L 525.201323 190.258727 
L 527.09121 193.249992 
L 527.662571 192.378909 
L 528.102079 192.148812 
L 528.67344 194.112856 
L 529.991966 196.652144 
L 530.563327 198.016292 
L 531.002836 198.049163 
L 532.145558 197.07125 
L 532.585066 198.895593 
L 533.024575 199.150343 
L 533.595936 200.547362 
L 534.167297 199.93103 
L 534.606805 204.467234 
L 535.046314 204.26179 
L 536.189036 205.395841 
L 536.628544 204.122088 
L 537.199905 207.598201 
L 537.771267 204.631589 
L 538.342628 203.522192 
L 539.661153 204.302879 
L 540.803875 201.755373 
L 541.375236 197.835502 
L 542.693762 199.207868 
L 543.836484 194.112856 
L 544.407845 193.759493 
L 545.726371 190.718922 
L 546.297732 190.020412 
L 546.869093 190.036847 
L 547.440454 187.982407 
L 548.758979 186.010145 
L 549.33034 184.678868 
L 549.769849 180.282366 
L 550.34121 180.339891 
L 552.231096 174.431321 
L 552.670605 173.658852 
L 553.241966 174.332708 
L 553.813327 172.409752 
L 554.824197 165.695842 
L 555.395558 167.306523 
L 555.835066 166.492965 
L 556.406427 164.627534 
L 556.845936 164.323476 
L 557.417297 162.951111 
L 557.856805 159.976281 
L 558.428166 160.01737 
L 558.867675 158.636787 
L 559.439036 155.90849 
L 559.878544 156.960363 
L 560.449905 155.275723 
L 560.889414 152.177627 
L 561.460775 153.130887 
L 561.900284 151.051794 
L 562.471645 152.128321 
L 562.911153 150.764172 
L 563.482514 150.131405 
L 563.922023 149.852001 
L 565.504253 145.997872 
L 565.943762 146.40876 
L 566.515123 145.775992 
L 566.954631 145.471935 
L 567.525992 145.628072 
L 568.097353 144.543328 
L 570.119093 143.129873 
L 570.690454 141.798596 
L 571.261815 143.696899 
L 571.833176 142.078 
L 572.272684 142.899776 
L 572.844045 140.754941 
L 573.415406 139.703068 
L 573.986767 141.165829 
L 574.558129 139.160695 
L 575.12949 140.031778 
L 575.700851 137.032296 
L 576.272212 136.473488 
L 576.843573 135.709236 
L 577.414934 137.870507 
L 577.986295 133.983507 
L 578.557656 134.460137 
L 579.700378 133.063117 
L 580.271739 134.493008 
L 580.8431 131.016895 
L 581.414461 131.682534 
L 581.985822 130.334821 
L 582.557183 134.041031 
L 583.128544 133.884893 
L 583.699905 131.912631 
L 584.271267 128.773447 
L 584.842628 132.389261 
L 585.282136 129.151464 
L 585.721645 128.09959 
L 586.293006 129.036415 
L 586.864367 128.091373 
L 587.435728 129.660965 
L 588.007089 128.066719 
L 589.149811 128.929584 
L 589.721172 128.592656 
L 590.292533 128.387212 
L 590.863894 128.625527 
L 591.435255 128.600874 
L 592.006616 128.140679 
L 592.577977 127.187419 
L 593.149338 126.973757 
L 593.720699 127.047717 
L 595.171078 128.074937 
L 596.181947 126.365643 
L 596.753308 126.406732 
L 598.071834 124.705656 
L 598.511342 123.530516 
L 599.082703 122.897748 
L 599.654064 122.63478 
L 600.225425 121.813004 
L 600.796786 121.500729 
L 601.368147 122.642998 
L 601.939509 122.314287 
L 603.082231 123.152499 
L 603.653592 123.316854 
L 604.796314 124.648131 
L 605.367675 124.722091 
L 606.510397 125.839706 
L 607.653119 127.277814 
L 609.23535 128.683051 
L 609.674858 130.022546 
L 610.246219 130.088288 
L 610.685728 129.808885 
L 611.257089 130.260861 
L 611.696597 131.131944 
L 612.267958 131.55105 
L 612.707467 133.999942 
L 613.278828 130.507394 
L 613.718336 131.649663 
L 614.289698 131.427783 
L 614.729206 133.556183 
L 615.300567 132.619358 
L 615.740076 135.323001 
L 616.311437 136.884376 
L 616.882798 135.91468 
L 617.454159 133.638361 
L 617.893667 139.735939 
L 618.465028 139.251091 
L 618.904537 140.212569 
L 619.475898 140.393359 
L 620.047259 141.058998 
L 620.61862 144.477586 
L 621.058129 143.080567 
L 621.62949 145.102136 
L 622.200851 146.704599 
L 623.914934 147.115487 
L 624.486295 148.668644 
L 625.057656 149.473984 
L 626.068526 153.015839 
L 626.639887 151.347633 
L 627.079395 154.799093 
L 627.650756 156.426209 
L 628.090265 155.793442 
L 628.661626 155.694828 
L 629.101134 158.332729 
L 629.672495 161.085679 
L 630.112004 160.559742 
L 630.683365 161.422607 
L 631.122873 165.046639 
L 631.694234 165.950593 
L 632.265595 165.350696 
L 632.836957 168.070775 
L 633.276465 169.254132 
L 633.847826 169.097995 
L 635.166352 173.017867 
L 636.748582 175.532501 
L 637.319943 176.839125 
L 637.891304 176.551503 
L 638.462665 179.041485 
L 638.902174 179.361977 
L 639.473535 178.778516 
L 639.913043 181.161667 
L 640.484405 180.619295 
L 640.923913 181.679386 
L 641.495274 181.777999 
L 641.934783 182.788783 
L 642.506144 182.624428 
L 643.077505 183.980358 
L 643.517013 184.613126 
L 644.088374 183.86531 
L 644.527883 184.333722 
L 645.099244 185.286982 
L 646.417769 186.223807 
L 646.98913 186.24846 
L 647.428639 187.505777 
L 648 187.4236 
L 648 187.4236 
" style="fill:none;stroke:#5b6fbd;stroke-linecap:square;"/>
   </g>
   <g id="line2d_2">
    <path clip-path="url(#pc4954830c6)" d="M 90 164.867122 
L 137.598771 164.455166 
L 166.782136 164.0747 
L 168.803875 164.05741 
L 170.693762 164.130367 
L 175.308601 164.015532 
L 177.33034 164.046908 
L 180.93431 163.951327 
L 183.791115 163.980171 
L 185.944707 163.82797 
L 187.65879 163.389429 
L 188.66966 163.127053 
L 189.812382 163.042656 
L 192.537335 163.215566 
L 193.680057 162.639961 
L 194.119565 162.77728 
L 196.405009 162.758371 
L 197.415879 162.224356 
L 197.98724 161.80825 
L 198.558601 161.142587 
L 200.712193 157.992794 
L 201.854915 156.531133 
L 202.865784 154.527323 
L 204.008507 151.842877 
L 205.327032 147.251203 
L 206.909263 140.124252 
L 208.227788 134.585236 
L 209.37051 130.67138 
L 210.38138 127.889002 
L 211.963611 124.647959 
L 215.963138 117.150033 
L 217.413516 113.823829 
L 218.424386 112.076043 
L 219.435255 111.031278 
L 220.577977 110.293397 
L 221.149338 110.025038 
L 222.028355 108.528748 
L 223.039225 106.301957 
L 224.050095 103.689227 
L 225.632325 99.449545 
L 226.643195 97.6088 
L 228.928639 94.237431 
L 230.642722 91.11594 
L 231.653592 89.174083 
L 232.972117 88.121634 
L 233.543478 88.014056 
L 235.69707 88.885467 
L 236.136578 88.609761 
L 236.70794 87.966212 
L 237.147448 86.773075 
L 240.180057 76.582519 
L 241.322779 73.880445 
L 243.036862 71.107223 
L 244.179584 69.517259 
L 248.047259 65.041604 
L 250.200851 61.696934 
L 251.343573 60.267644 
L 252.486295 59.8791 
L 254.200378 59.319306 
L 254.771739 59.381161 
L 256.485822 60.1653 
L 257.628544 60.673494 
L 262.199433 63.652367 
L 263.210302 64.461915 
L 263.781664 65.095635 
L 264.924386 66.874049 
L 266.506616 70.519308 
L 270.110586 79.318014 
L 273.846408 90.457533 
L 275.164934 93.675279 
L 276.175803 95.054926 
L 277.318526 96.155711 
L 279.779773 98.091347 
L 280.790643 99.428869 
L 282.372873 102.167019 
L 283.955104 104.574025 
L 284.965974 105.767548 
L 286.284499 106.239659 
L 287.295369 106.081253 
L 288.438091 105.780951 
L 290.152174 105.572311 
L 291.294896 104.945213 
L 292.305766 103.757049 
L 297.360113 96.107999 
L 300.392722 89.869412 
L 301.8431 86.672868 
L 303.425331 83.783808 
L 304.875709 81.179131 
L 306.45794 77.802536 
L 311.072779 67.502379 
L 316.127127 56.706321 
L 317.137996 54.5427 
L 318.148866 52.686818 
L 319.731096 50.248411 
L 320.741966 48.997824 
L 321.752836 48.192336 
L 322.324197 47.856139 
L 323.466919 47.736702 
L 324.477788 48.067434 
L 327.070888 49.281205 
L 328.081758 50.104551 
L 329.092628 51.399612 
L 330.103497 53.231852 
L 331.553875 56.214357 
L 333.136106 59.861432 
L 334.850189 64.397364 
L 341.926276 84.174694 
L 345.22259 92.411223 
L 346.80482 96.01877 
L 349.837429 102.177447 
L 351.41966 104.802183 
L 354.320416 108.445396 
L 356.649811 110.053192 
L 357.221172 110.313432 
L 360.121928 110.709849 
L 360.693289 110.708674 
L 361.704159 110.256615 
L 362.846881 109.466921 
L 363.85775 107.645331 
L 365.000473 105.080749 
L 366.890359 100.581632 
L 368.033081 97.293164 
L 371.06569 88.546065 
L 373.966446 80.729455 
L 380.603025 62.176095 
L 382.185255 58.923194 
L 386.668242 50.356516 
L 389.700851 45.410829 
L 391.72259 42.313474 
L 392.733459 41.109925 
L 394.755198 39.235051 
L 395.897921 38.365341 
L 396.90879 37.84906 
L 398.622873 37.40614 
L 400.776465 37.086888 
L 401.919187 37.08208 
L 402.930057 37.498335 
L 403.940926 38.561335 
L 404.951796 40.429544 
L 406.402174 44.146248 
L 407.984405 48.741751 
L 411.280718 58.505994 
L 413.43431 64.128339 
L 419.499527 78.956178 
L 420.070888 80.215393 
L 422.971645 85.733553 
L 424.993384 89.069011 
L 428.157845 93.763924 
L 430.179584 96.2602 
L 431.190454 97.316371 
L 434.09121 99.644314 
L 436.420605 101.174248 
L 436.991966 101.431817 
L 438.881853 101.500361 
L 440.464083 101.14888 
L 441.474953 100.423079 
L 442.617675 99.244414 
L 446.529301 92.894493 
L 448.55104 89.808576 
L 450.13327 86.950727 
L 451.583648 83.636348 
L 453.034026 80.360913 
L 455.758979 74.918965 
L 458.044423 70.78493 
L 461.648393 64.736585 
L 464.109641 60.924251 
L 466.702741 57.354045 
L 468.72448 54.918926 
L 471.449433 51.959398 
L 473.603025 49.980603 
L 479.05293 45.406392 
L 480.195652 44.603558 
L 481.909735 43.786195 
L 483.052457 43.486214 
L 484.19518 43.340603 
L 485.909263 43.408761 
L 486.920132 43.644085 
L 489.205577 44.676071 
L 490.348299 45.508818 
L 491.491021 46.716114 
L 492.633743 48.310137 
L 493.776465 50.318558 
L 496.501418 55.698364 
L 506.873819 74.078921 
L 515.22448 87.803517 
L 519.267958 93.720649 
L 522.871928 98.782222 
L 525.772684 102.327742 
L 528.67344 105.370022 
L 530.563327 107.391369 
L 533.024575 109.417006 
L 534.167297 110.253812 
L 535.046314 110.489498 
L 536.189036 110.437364 
L 537.199905 109.94554 
L 538.342628 109.179455 
L 540.232514 106.997155 
L 541.375236 105.34993 
L 544.407845 99.569722 
L 547.440454 93.869522 
L 550.34121 87.761738 
L 561.900284 62.787513 
L 563.482514 59.888978 
L 564.932892 57.809326 
L 568.668715 53.130544 
L 571.833176 49.346011 
L 575.700851 44.337228 
L 577.986295 41.670409 
L 580.271739 39.365533 
L 583.128544 36.85928 
L 584.842628 35.664163 
L 587.435728 34.423487 
L 592.006616 31.61704 
L 594.160208 30.334954 
L 596.181947 29.091114 
L 596.753308 28.8 
L 598.511342 28.879712 
L 600.225425 29.317505 
L 602.51087 30.138928 
L 604.796314 31.288321 
L 608.663989 33.624146 
L 609.674858 34.317281 
L 611.257089 35.84562 
L 612.267958 37.08176 
L 617.893667 46.535627 
L 619.475898 48.850266 
L 621.058129 51.524868 
L 623.343573 56.025012 
L 627.079395 63.962891 
L 630.683365 71.574879 
L 632.836957 75.799481 
L 636.748582 82.775554 
L 638.902174 85.879345 
L 641.495274 88.982519 
L 643.077505 90.468586 
L 644.527883 91.535464 
L 646.417769 92.704334 
L 648 93.480986 
L 648 93.480986 
" style="fill:none;stroke:#38c0ff;stroke-linecap:square;"/>
   </g>
   <g id="line2d_3">
    <path clip-path="url(#pc4954830c6)" d="M 90 164.963549 
L 91.142722 165.436906 
L 92.724953 166.761403 
L 93.867675 168.088484 
L 94.878544 169.705985 
L 96.592628 172.654521 
L 98.306711 176.157704 
L 99.449433 178.749503 
L 100.32845 180.162682 
L 101.471172 183.030123 
L 101.910681 184.472443 
L 102.482042 185.936861 
L 103.361059 187.500878 
L 104.503781 190.578542 
L 104.943289 192.077504 
L 105.51465 193.609388 
L 106.393667 195.230609 
L 106.833176 196.730937 
L 108.986767 202.638043 
L 109.426276 204.027846 
L 111.579868 209.453095 
L 112.019376 210.703821 
L 115.31569 217.947972 
L 117.601134 222.253542 
L 119.754726 226.054222 
L 121.205104 228.024539 
L 122.787335 230.358443 
L 124.809074 232.710398 
L 125.819943 233.9326 
L 130.874291 238.554314 
L 133.027883 240.035403 
L 135.884688 241.622025 
L 139.049149 242.946948 
L 142.081758 243.797364 
L 145.685728 244.388155 
L 146.696597 244.411665 
L 147.575614 244.628364 
L 148.586484 244.59566 
L 150.300567 244.621539 
L 151.311437 244.540938 
L 155.179112 244.541973 
L 156.189981 244.453585 
L 159.486295 244.178252 
L 160.629017 244.052005 
L 162.3431 243.844546 
L 166.210775 243.575912 
L 166.782136 243.456685 
L 168.803875 243.334015 
L 169.814745 243.296358 
L 171.265123 243.25429 
L 175.308601 242.673448 
L 177.33034 242.485346 
L 178.912571 242.208221 
L 180.362949 241.948652 
L 186.516068 241.453499 
L 187.65879 241.15326 
L 189.812382 240.307577 
L 190.383743 240.244245 
L 190.955104 240.460758 
L 191.394612 240.505198 
L 191.965974 240.396861 
L 192.537335 240.15918 
L 194.119565 238.562946 
L 194.690926 238.565305 
L 195.833648 238.399321 
L 196.844518 238.250519 
L 197.415879 238.086838 
L 197.98724 238.077107 
L 198.558601 237.764959 
L 199.569471 236.756158 
L 200.712193 235.388817 
L 201.854915 234.476885 
L 202.865784 233.064533 
L 203.437146 232.082153 
L 204.008507 230.71292 
L 205.327032 226.849155 
L 206.337902 222.768417 
L 207.78828 215.623351 
L 208.227788 213.438725 
L 209.37051 209.255709 
L 210.38138 206.784376 
L 211.963611 203.516644 
L 214.820416 199.107707 
L 215.963138 196.968199 
L 216.974008 194.654102 
L 217.984877 192.735799 
L 218.424386 192.098813 
L 218.995747 191.788051 
L 220.006616 191.820016 
L 221.149338 191.406195 
L 222.028355 189.211989 
L 223.039225 187.608172 
L 226.071834 181.593354 
L 226.643195 180.885881 
L 228.357278 179.236539 
L 228.928639 178.578163 
L 230.071361 176.784009 
L 231.082231 174.507961 
L 231.653592 173.018005 
L 233.543478 170.307598 
L 234.114839 170.088719 
L 234.6862 170.090184 
L 235.69707 170.633202 
L 236.136578 170.560281 
L 236.70794 170.175256 
L 237.147448 169.26612 
L 238.158318 165.366126 
L 239.169187 161.731701 
L 240.180057 158.963524 
L 241.322779 156.559596 
L 242.465501 154.797347 
L 245.761815 150.472998 
L 246.904537 149.465735 
L 248.61862 147.126714 
L 250.200851 145.31765 
L 250.772212 144.827825 
L 252.486295 144.428549 
L 254.200378 143.959577 
L 254.771739 144.198462 
L 256.485822 145.586043 
L 257.057183 145.769735 
L 259.913989 147.243895 
L 261.056711 147.493291 
L 261.628072 147.989417 
L 262.638941 148.601472 
L 263.781664 149.670174 
L 264.924386 151.481914 
L 266.946125 155.392586 
L 268.528355 158.407453 
L 272.264178 167.371911 
L 273.275047 170.269093 
L 273.846408 171.987854 
L 275.164934 175.430276 
L 276.747164 178.017955 
L 278.768904 180.540486 
L 279.779773 181.523603 
L 280.351134 182.307302 
L 281.933365 185.757633 
L 282.944234 187.542219 
L 283.955104 188.994496 
L 284.394612 189.140181 
L 284.965974 189.502747 
L 286.284499 190.183694 
L 286.724008 190.562903 
L 287.86673 191.215071 
L 288.438091 191.456623 
L 289.580813 192.14277 
L 290.152174 192.424023 
L 291.294896 192.403295 
L 292.305766 191.883174 
L 293.316635 190.868644 
L 294.327505 189.523736 
L 295.909735 187.703745 
L 296.920605 186.442046 
L 298.370983 183.608845 
L 299.821361 180.254228 
L 301.8431 175.213261 
L 302.85397 173.356788 
L 304.4362 170.577219 
L 305.886578 167.234246 
L 311.64414 153.881755 
L 314.105388 148.818415 
L 318.148866 139.945723 
L 320.170605 136.861263 
L 321.181474 135.939464 
L 322.324197 135.132885 
L 323.466919 134.990826 
L 326.499527 135.25842 
L 327.510397 135.942378 
L 328.081758 136.389469 
L 329.092628 137.678473 
L 331.553875 141.782061 
L 334.278828 147.842363 
L 339.02552 160.167456 
L 343.640359 172.622894 
L 348.255198 184.650643 
L 351.41966 191.82934 
L 353.309546 194.84877 
L 354.320416 196.7017 
L 355.638941 197.985091 
L 356.649811 199.159668 
L 357.221172 199.608893 
L 360.693289 201.050222 
L 361.704159 200.955112 
L 362.846881 200.613287 
L 363.286389 200.177361 
L 364.429112 198.137261 
L 365.000473 197.157347 
L 366.890359 193.34318 
L 368.033081 190.117217 
L 370.494329 182.933155 
L 372.955577 176.708191 
L 376.999055 164.330808 
L 378.581285 158.751815 
L 380.163516 154.374068 
L 381.613894 151.236187 
L 386.228733 142.253754 
L 387.679112 139.94925 
L 388.689981 138.440239 
L 390.71172 135.210169 
L 392.293951 133.389474 
L 393.30482 132.51933 
L 394.31569 131.701603 
L 394.755198 131.313278 
L 396.90879 130.072448 
L 399.194234 129.644769 
L 400.205104 129.52907 
L 400.776465 129.635363 
L 401.347826 129.542578 
L 401.919187 129.144673 
L 402.930057 129.804235 
L 403.940926 131.096802 
L 405.391304 134.121571 
L 407.413043 138.983221 
L 412.862949 152.400544 
L 414.005671 155.035189 
L 420.070888 170.454215 
L 424.553875 179.422403 
L 425.564745 181.228836 
L 427.015123 183.658825 
L 428.597353 186.251123 
L 429.608223 187.579323 
L 430.619093 188.92308 
L 431.190454 189.560534 
L 436.991966 194.191118 
L 439.321361 194.525897 
L 439.892722 194.594912 
L 440.903592 194.479289 
L 442.046314 193.96527 
L 442.617675 193.669177 
L 443.628544 192.156342 
L 444.639414 190.31915 
L 448.111531 185.070877 
L 450.13327 180.907242 
L 452.594518 174.053454 
L 454.044896 170.164266 
L 456.33034 164.704571 
L 459.626654 157.813527 
L 464.681002 148.830394 
L 466.13138 146.842785 
L 467.14225 145.490923 
L 470.438563 141.694093 
L 474.613894 138.135173 
L 475.185255 137.771163 
L 476.899338 136.311365 
L 478.481569 135.066819 
L 479.05293 134.592106 
L 479.624291 134.297875 
L 480.195652 133.768423 
L 481.338374 133.142532 
L 482.481096 132.879074 
L 484.766541 132.350842 
L 485.337902 132.27888 
L 486.920132 132.461643 
L 489.205577 133.35354 
L 490.348299 134.273361 
L 491.491021 135.48357 
L 493.205104 137.903712 
L 500.984405 151.340186 
L 504.720227 158.082918 
L 506.873819 161.69668 
L 512.191871 170.457532 
L 513.64225 172.933223 
L 516.806711 177.814601 
L 525.201323 189.550331 
L 525.772684 190.248734 
L 528.67344 193.36455 
L 531.574197 196.634685 
L 532.585066 197.536393 
L 534.606805 199.432866 
L 535.046314 199.766031 
L 536.189036 200.299352 
L 537.771267 200.373401 
L 538.342628 200.179212 
L 540.803875 198.168396 
L 541.375236 197.377228 
L 543.836484 193.372458 
L 549.33034 183.70611 
L 550.34121 181.380739 
L 552.231096 177.102845 
L 554.824197 170.775966 
L 560.449905 157.610925 
L 561.900284 154.083304 
L 563.482514 151.051197 
L 565.943762 147.364079 
L 567.525992 145.310436 
L 569.679584 142.857378 
L 572.844045 139.40106 
L 573.986767 138.130077 
L 576.843573 135.058498 
L 577.414934 134.609452 
L 578.557656 133.472335 
L 579.700378 132.437836 
L 580.271739 132.056061 
L 581.985822 130.565008 
L 583.699905 129.829223 
L 584.271267 129.425221 
L 585.282136 129.090777 
L 586.864367 128.437914 
L 588.007089 127.917857 
L 590.863894 126.740739 
L 596.753308 124.84181 
L 602.51087 125.492439 
L 604.224953 126.045873 
L 606.510397 127.159715 
L 609.23535 128.834859 
L 611.257089 130.81149 
L 612.267958 132.059006 
L 612.707467 132.884509 
L 616.882798 139.036082 
L 617.454159 139.580133 
L 621.058129 144.766038 
L 625.057656 152.148884 
L 629.672495 161.041058 
L 632.836957 167.166536 
L 635.60586 172.396892 
L 637.891304 176.12312 
L 639.473535 178.397641 
L 640.923913 180.334561 
L 642.506144 182.082034 
L 644.088374 183.499441 
L 646.417769 185.086051 
L 648 186.075203 
L 648 186.075203 
" style="fill:none;stroke:#008000;stroke-linecap:square;stroke-width:2.0;"/>
   </g>
   <g id="line2d_4">
    <path clip-path="url(#pc4954830c6)" d="M 90 167.837956 
L 92.724953 180.9656 
L 95.449905 191.714706 
L 97.163989 197.15172 
L 98.878072 201.991495 
L 99.449433 203.48214 
L 100.32845 204.902456 
L 102.482042 210.02075 
L 103.361059 211.172343 
L 105.51465 215.363328 
L 106.393667 216.310355 
L 106.833176 217.21586 
L 110.437146 222.623563 
L 113.162098 225.655633 
L 115.887051 228.142553 
L 119.183365 230.514787 
L 119.754726 230.877248 
L 121.205104 231.530826 
L 122.787335 232.390442 
L 124.237713 232.89704 
L 128.149338 234.395141 
L 133.599244 235.940706 
L 137.598771 236.722127 
L 151.311437 238.044175 
L 154.036389 238.248375 
L 156.189981 238.438784 
L 158.475425 238.449474 
L 160.057656 238.550137 
L 162.3431 238.495719 
L 166.210775 238.702394 
L 168.232514 238.624697 
L 171.836484 238.798659 
L 174.869093 238.744613 
L 177.901701 238.89541 
L 180.93431 238.826531 
L 184.362476 238.93923 
L 187.65879 238.617649 
L 189.241021 238.150528 
L 190.383743 238.037549 
L 191.394612 238.35894 
L 191.965974 238.313635 
L 192.537335 238.149939 
L 194.119565 236.922894 
L 194.690926 236.958816 
L 195.833648 236.89551 
L 196.844518 236.799241 
L 198.558601 236.188946 
L 199.569471 235.116534 
L 200.712193 233.741368 
L 201.854915 232.747099 
L 202.865784 231.253238 
L 203.437146 230.227099 
L 204.008507 228.861501 
L 205.327032 224.841832 
L 206.337902 220.722349 
L 208.799149 209.513088 
L 209.941871 206.118223 
L 211.39225 202.97993 
L 212.534972 201.066206 
L 214.249055 198.504171 
L 215.963138 195.29563 
L 216.974008 193.007344 
L 217.984877 191.105531 
L 218.424386 190.492695 
L 218.995747 190.117587 
L 220.006616 190.0069 
L 221.149338 189.58019 
L 222.599716 186.662974 
L 224.050095 183.939028 
L 226.071834 179.622643 
L 226.643195 178.863827 
L 228.357278 177.058468 
L 228.928639 176.357052 
L 230.071361 174.525161 
L 231.082231 172.358489 
L 231.653592 170.963153 
L 233.543478 168.621508 
L 234.114839 168.543493 
L 234.6862 168.647543 
L 235.69707 169.18816 
L 236.136578 169.094092 
L 236.70794 168.664463 
L 237.147448 167.715869 
L 238.158318 163.935665 
L 239.169187 160.360284 
L 240.180057 157.566617 
L 241.322779 155.125133 
L 242.465501 153.359122 
L 245.761815 149.141363 
L 246.904537 148.127547 
L 249.058129 145.264401 
L 250.772212 143.36983 
L 251.914934 142.858226 
L 252.486295 142.854295 
L 254.200378 142.399672 
L 254.771739 142.609226 
L 256.485822 143.890711 
L 257.057183 144.09195 
L 260.48535 145.915231 
L 261.056711 146.088599 
L 261.628072 146.593771 
L 262.638941 147.26657 
L 263.781664 148.37705 
L 264.924386 150.211294 
L 269.671078 160.31755 
L 272.264178 167.003621 
L 273.275047 169.949864 
L 273.846408 171.68844 
L 275.164934 175.089677 
L 276.747164 177.566021 
L 278.768904 179.885202 
L 279.779773 180.874427 
L 280.351134 181.64512 
L 282.372873 185.770646 
L 283.955104 188.190392 
L 287.86673 190.190296 
L 289.009452 190.613921 
L 290.152174 191.038639 
L 291.294896 190.880853 
L 292.305766 190.224619 
L 293.316635 189.112397 
L 294.327505 187.750703 
L 296.349244 185.329372 
L 296.920605 184.585088 
L 298.370983 181.789432 
L 299.821361 178.564074 
L 301.8431 173.690409 
L 302.85397 171.858073 
L 304.875709 168.214653 
L 305.886578 165.910123 
L 311.64414 152.842193 
L 314.105388 147.879801 
L 318.148866 139.161141 
L 320.170605 136.140883 
L 321.181474 135.215565 
L 322.324197 134.440276 
L 323.466919 134.322148 
L 326.499527 134.854019 
L 327.510397 135.553391 
L 328.081758 136.021129 
L 329.092628 137.332889 
L 331.553875 141.62376 
L 333.707467 146.43044 
L 335.992911 152.311522 
L 340.036389 163.20319 
L 346.233459 179.884549 
L 350.848299 190.454793 
L 351.41966 191.542529 
L 353.309546 194.378274 
L 354.320416 196.07043 
L 356.210302 197.855104 
L 357.221172 198.649873 
L 361.132798 199.722484 
L 362.27552 199.378781 
L 362.846881 199.144802 
L 363.286389 198.649539 
L 364.429112 196.547188 
L 365.000473 195.487243 
L 367.46172 189.903312 
L 370.494329 181.020193 
L 373.395085 173.443822 
L 376.427694 164.516896 
L 379.592155 154.649449 
L 381.174386 151.032523 
L 386.668242 140.624281 
L 390.71172 134.374255 
L 392.293951 132.504515 
L 393.744329 131.304118 
L 394.755198 130.427296 
L 396.90879 129.186168 
L 399.194234 128.756107 
L 400.205104 128.647564 
L 400.776465 128.731392 
L 401.347826 128.661886 
L 401.919187 128.358192 
L 402.930057 128.987285 
L 403.940926 130.251464 
L 404.951796 132.244818 
L 407.413043 138.319417 
L 412.862949 152.31655 
L 414.005671 155.019316 
L 419.499527 169.107598 
L 421.389414 173.065952 
L 423.543006 177.342251 
L 425.564745 180.929058 
L 428.157845 185.113357 
L 428.597353 185.827529 
L 429.608223 187.143284 
L 431.190454 189.075297 
L 436.991966 193.550497 
L 439.321361 193.780711 
L 440.464083 193.727484 
L 440.903592 193.615438 
L 442.046314 192.978546 
L 442.617675 192.600429 
L 443.628544 191.058279 
L 444.639414 189.250453 
L 448.55104 183.195345 
L 450.572779 178.96308 
L 453.605388 171.008434 
L 455.187618 167.250482 
L 458.044423 161.168115 
L 462.659263 152.693997 
L 464.681002 149.432524 
L 466.13138 147.456916 
L 467.713611 145.433915 
L 469.295841 143.502093 
L 473.031664 140.007507 
L 479.05293 135.091941 
L 479.624291 134.767197 
L 480.195652 134.265586 
L 481.338374 133.641802 
L 482.481096 133.33246 
L 484.766541 132.850283 
L 485.337902 132.79398 
L 486.920132 132.986075 
L 489.205577 133.894717 
L 490.348299 134.785479 
L 491.491021 135.985786 
L 493.205104 138.426432 
L 500.984405 152.033378 
L 503.577505 156.629807 
L 505.862949 160.629658 
L 513.64225 173.482701 
L 516.806711 178.317649 
L 524.761815 189.384563 
L 525.772684 190.599345 
L 528.67344 193.671587 
L 531.002836 196.299952 
L 535.046314 199.65876 
L 536.189036 200.035753 
L 537.771267 199.877027 
L 538.342628 199.625012 
L 540.803875 197.306827 
L 541.375236 196.495924 
L 544.407845 191.238094 
L 549.33034 182.243831 
L 562.911153 151.648934 
L 563.922023 149.973697 
L 565.943762 147.072417 
L 567.525992 145.054013 
L 569.679584 142.61913 
L 572.272684 139.787607 
L 574.558129 137.133928 
L 575.700851 135.905048 
L 577.414934 134.127185 
L 579.129017 132.433936 
L 581.414461 130.492632 
L 581.985822 129.993941 
L 585.721645 128.138958 
L 587.435728 127.453968 
L 588.57845 126.859012 
L 595.171078 124.168766 
L 596.753308 123.633482 
L 598.511342 123.746812 
L 601.939509 124.32791 
L 603.653592 124.906556 
L 605.367675 125.718157 
L 607.653119 127.066885 
L 609.23535 128.091689 
L 611.257089 130.087425 
L 612.267958 131.353124 
L 613.278828 133.047058 
L 616.882798 138.623791 
L 617.893667 139.879908 
L 619.475898 142.027225 
L 620.61862 143.866135 
L 621.62949 145.639113 
L 631.122873 164.213835 
L 633.276465 168.385718 
L 637.319943 175.610403 
L 639.473535 178.6969 
L 640.923913 180.580828 
L 642.506144 182.299142 
L 644.088374 183.677321 
L 646.417769 185.233229 
L 648 186.159619 
L 648 186.159619 
" style="fill:none;stroke:#ff0000;stroke-dasharray:6.000000,6.000000;stroke-dashoffset:0.0;stroke-width:2.0;"/>
   </g>
   <g id="patch_3">
    <path d="M 90 28.8 
L 648 28.8 
" style="fill:none;stroke:#000000;stroke-linecap:square;stroke-linejoin:miter;"/>
   </g>
   <g id="patch_4">
    <path d="M 648 244.8 
L 648 28.8 
" style="fill:none;stroke:#000000;stroke-linecap:square;stroke-linejoin:miter;"/>
   </g>
   <g id="patch_5">
    <path d="M 90 244.8 
L 648 244.8 
" style="fill:none;stroke:#000000;stroke-linecap:square;stroke-linejoin:miter;"/>
   </g>
   <g id="patch_6">
    <path d="M 90 244.8 
L 90 28.8 
" style="fill:none;stroke:#000000;stroke-linecap:square;stroke-linejoin:miter;"/>
   </g>
   <g id="matplotlib.axis_1">
    <g id="xtick_1">
     <g id="line2d_5">
      <defs>
       <path d="M 0 0 
L 0 -4 
" id="m37f00dec46" style="stroke:#000000;stroke-width:0.5;"/>
      </defs>
      <g>
       <use style="stroke:#000000;stroke-width:0.5;" x="177.330340265" xlink:href="#m37f00dec46" y="244.8"/>
      </g>
     </g>
     <g id="line2d_6">
      <defs>
       <path d="M 0 0 
L 0 4 
" id="m7a34e89bdd" style="stroke:#000000;stroke-width:0.5;"/>
      </defs>
      <g>
       <use style="stroke:#000000;stroke-width:0.5;" x="177.330340265" xlink:href="#m7a34e89bdd" y="28.8"/>
      </g>
     </g>
     <g id="text_1">
      <!-- 2 -->
      <defs>
       <path d="M 19.1875 8.296875 
L 53.609375 8.296875 
L 53.609375 0 
L 7.328125 0 
L 7.328125 8.296875 
Q 12.9375 14.109375 22.625 23.890625 
Q 32.328125 33.6875 34.8125 36.53125 
Q 39.546875 41.84375 41.421875 45.53125 
Q 43.3125 49.21875 43.3125 52.78125 
Q 43.3125 58.59375 39.234375 62.25 
Q 35.15625 65.921875 28.609375 65.921875 
Q 23.96875 65.921875 18.8125 64.3125 
Q 13.671875 62.703125 7.8125 59.421875 
L 7.8125 69.390625 
Q 13.765625 71.78125 18.9375 73 
Q 24.125 74.21875 28.421875 74.21875 
Q 39.75 74.21875 46.484375 68.546875 
Q 53.21875 62.890625 53.21875 53.421875 
Q 53.21875 48.921875 51.53125 44.890625 
Q 49.859375 40.875 45.40625 35.40625 
Q 44.1875 33.984375 37.640625 27.21875 
Q 31.109375 20.453125 19.1875 8.296875 
" id="BitstreamVeraSans-Roman-32"/>
      </defs>
      <g transform="translate(173.512840265 257.918125)scale(0.12 -0.12)">
       <use xlink:href="#BitstreamVeraSans-Roman-32"/>
      </g>
     </g>
    </g>
    <g id="xtick_2">
     <g id="line2d_7">
      <g>
       <use style="stroke:#000000;stroke-width:0.5;" x="265.232041588" xlink:href="#m37f00dec46" y="244.8"/>
      </g>
     </g>
     <g id="line2d_8">
      <g>
       <use style="stroke:#000000;stroke-width:0.5;" x="265.232041588" xlink:href="#m7a34e89bdd" y="28.8"/>
      </g>
     </g>
     <g id="text_2">
      <!-- 4 -->
      <defs>
       <path d="M 37.796875 64.3125 
L 12.890625 25.390625 
L 37.796875 25.390625 
z
M 35.203125 72.90625 
L 47.609375 72.90625 
L 47.609375 25.390625 
L 58.015625 25.390625 
L 58.015625 17.1875 
L 47.609375 17.1875 
L 47.609375 0 
L 37.796875 0 
L 37.796875 17.1875 
L 4.890625 17.1875 
L 4.890625 26.703125 
z
" id="BitstreamVeraSans-Roman-34"/>
      </defs>
      <g transform="translate(261.414541588 257.918125)scale(0.12 -0.12)">
       <use xlink:href="#BitstreamVeraSans-Roman-34"/>
      </g>
     </g>
    </g>
    <g id="xtick_3">
     <g id="line2d_9">
      <g>
       <use style="stroke:#000000;stroke-width:0.5;" x="353.133742911" xlink:href="#m37f00dec46" y="244.8"/>
      </g>
     </g>
     <g id="line2d_10">
      <g>
       <use style="stroke:#000000;stroke-width:0.5;" x="353.133742911" xlink:href="#m7a34e89bdd" y="28.8"/>
      </g>
     </g>
     <g id="text_3">
      <!-- 6 -->
      <defs>
       <path d="M 33.015625 40.375 
Q 26.375 40.375 22.484375 35.828125 
Q 18.609375 31.296875 18.609375 23.390625 
Q 18.609375 15.53125 22.484375 10.953125 
Q 26.375 6.390625 33.015625 6.390625 
Q 39.65625 6.390625 43.53125 10.953125 
Q 47.40625 15.53125 47.40625 23.390625 
Q 47.40625 31.296875 43.53125 35.828125 
Q 39.65625 40.375 33.015625 40.375 
M 52.59375 71.296875 
L 52.59375 62.3125 
Q 48.875 64.0625 45.09375 64.984375 
Q 41.3125 65.921875 37.59375 65.921875 
Q 27.828125 65.921875 22.671875 59.328125 
Q 17.53125 52.734375 16.796875 39.40625 
Q 19.671875 43.65625 24.015625 45.921875 
Q 28.375 48.1875 33.59375 48.1875 
Q 44.578125 48.1875 50.953125 41.515625 
Q 57.328125 34.859375 57.328125 23.390625 
Q 57.328125 12.15625 50.6875 5.359375 
Q 44.046875 -1.421875 33.015625 -1.421875 
Q 20.359375 -1.421875 13.671875 8.265625 
Q 6.984375 17.96875 6.984375 36.375 
Q 6.984375 53.65625 15.1875 63.9375 
Q 23.390625 74.21875 37.203125 74.21875 
Q 40.921875 74.21875 44.703125 73.484375 
Q 48.484375 72.75 52.59375 71.296875 
" id="BitstreamVeraSans-Roman-36"/>
      </defs>
      <g transform="translate(349.316242911 257.918125)scale(0.12 -0.12)">
       <use xlink:href="#BitstreamVeraSans-Roman-36"/>
      </g>
     </g>
    </g>
    <g id="xtick_4">
     <g id="line2d_11">
      <g>
       <use style="stroke:#000000;stroke-width:0.5;" x="441.035444234" xlink:href="#m37f00dec46" y="244.8"/>
      </g>
     </g>
     <g id="line2d_12">
      <g>
       <use style="stroke:#000000;stroke-width:0.5;" x="441.035444234" xlink:href="#m7a34e89bdd" y="28.8"/>
      </g>
     </g>
     <g id="text_4">
      <!-- 8 -->
      <defs>
       <path d="M 31.78125 34.625 
Q 24.75 34.625 20.71875 30.859375 
Q 16.703125 27.09375 16.703125 20.515625 
Q 16.703125 13.921875 20.71875 10.15625 
Q 24.75 6.390625 31.78125 6.390625 
Q 38.8125 6.390625 42.859375 10.171875 
Q 46.921875 13.96875 46.921875 20.515625 
Q 46.921875 27.09375 42.890625 30.859375 
Q 38.875 34.625 31.78125 34.625 
M 21.921875 38.8125 
Q 15.578125 40.375 12.03125 44.71875 
Q 8.5 49.078125 8.5 55.328125 
Q 8.5 64.0625 14.71875 69.140625 
Q 20.953125 74.21875 31.78125 74.21875 
Q 42.671875 74.21875 48.875 69.140625 
Q 55.078125 64.0625 55.078125 55.328125 
Q 55.078125 49.078125 51.53125 44.71875 
Q 48 40.375 41.703125 38.8125 
Q 48.828125 37.15625 52.796875 32.3125 
Q 56.78125 27.484375 56.78125 20.515625 
Q 56.78125 9.90625 50.3125 4.234375 
Q 43.84375 -1.421875 31.78125 -1.421875 
Q 19.734375 -1.421875 13.25 4.234375 
Q 6.78125 9.90625 6.78125 20.515625 
Q 6.78125 27.484375 10.78125 32.3125 
Q 14.796875 37.15625 21.921875 38.8125 
M 18.3125 54.390625 
Q 18.3125 48.734375 21.84375 45.5625 
Q 25.390625 42.390625 31.78125 42.390625 
Q 38.140625 42.390625 41.71875 45.5625 
Q 45.3125 48.734375 45.3125 54.390625 
Q 45.3125 60.0625 41.71875 63.234375 
Q 38.140625 66.40625 31.78125 66.40625 
Q 25.390625 66.40625 21.84375 63.234375 
Q 18.3125 60.0625 18.3125 54.390625 
" id="BitstreamVeraSans-Roman-38"/>
      </defs>
      <g transform="translate(437.217944234 257.918125)scale(0.12 -0.12)">
       <use xlink:href="#BitstreamVeraSans-Roman-38"/>
      </g>
     </g>
    </g>
    <g id="xtick_5">
     <g id="line2d_13">
      <g>
       <use style="stroke:#000000;stroke-width:0.5;" x="528.937145558" xlink:href="#m37f00dec46" y="244.8"/>
      </g>
     </g>
     <g id="line2d_14">
      <g>
       <use style="stroke:#000000;stroke-width:0.5;" x="528.937145558" xlink:href="#m7a34e89bdd" y="28.8"/>
      </g>
     </g>
     <g id="text_5">
      <!-- 10 -->
      <defs>
       <path d="M 31.78125 66.40625 
Q 24.171875 66.40625 20.328125 58.90625 
Q 16.5 51.421875 16.5 36.375 
Q 16.5 21.390625 20.328125 13.890625 
Q 24.171875 6.390625 31.78125 6.390625 
Q 39.453125 6.390625 43.28125 13.890625 
Q 47.125 21.390625 47.125 36.375 
Q 47.125 51.421875 43.28125 58.90625 
Q 39.453125 66.40625 31.78125 66.40625 
M 31.78125 74.21875 
Q 44.046875 74.21875 50.515625 64.515625 
Q 56.984375 54.828125 56.984375 36.375 
Q 56.984375 17.96875 50.515625 8.265625 
Q 44.046875 -1.421875 31.78125 -1.421875 
Q 19.53125 -1.421875 13.0625 8.265625 
Q 6.59375 17.96875 6.59375 36.375 
Q 6.59375 54.828125 13.0625 64.515625 
Q 19.53125 74.21875 31.78125 74.21875 
" id="BitstreamVeraSans-Roman-30"/>
       <path d="M 12.40625 8.296875 
L 28.515625 8.296875 
L 28.515625 63.921875 
L 10.984375 60.40625 
L 10.984375 69.390625 
L 28.421875 72.90625 
L 38.28125 72.90625 
L 38.28125 8.296875 
L 54.390625 8.296875 
L 54.390625 0 
L 12.40625 0 
z
" id="BitstreamVeraSans-Roman-31"/>
      </defs>
      <g transform="translate(521.302145558 257.918125)scale(0.12 -0.12)">
       <use xlink:href="#BitstreamVeraSans-Roman-31"/>
       <use x="63.623046875" xlink:href="#BitstreamVeraSans-Roman-30"/>
      </g>
     </g>
    </g>
    <g id="xtick_6">
     <g id="line2d_15">
      <g>
       <use style="stroke:#000000;stroke-width:0.5;" x="616.838846881" xlink:href="#m37f00dec46" y="244.8"/>
      </g>
     </g>
     <g id="line2d_16">
      <g>
       <use style="stroke:#000000;stroke-width:0.5;" x="616.838846881" xlink:href="#m7a34e89bdd" y="28.8"/>
      </g>
     </g>
     <g id="text_6">
      <!-- 12 -->
      <g transform="translate(609.203846881 257.918125)scale(0.12 -0.12)">
       <use xlink:href="#BitstreamVeraSans-Roman-31"/>
       <use x="63.623046875" xlink:href="#BitstreamVeraSans-Roman-32"/>
      </g>
     </g>
    </g>
    <g id="text_7">
     <!-- t (s) -->
     <defs>
      <path d="M 8.015625 75.875 
L 15.828125 75.875 
Q 23.140625 64.359375 26.78125 53.3125 
Q 30.421875 42.28125 30.421875 31.390625 
Q 30.421875 20.453125 26.78125 9.375 
Q 23.140625 -1.703125 15.828125 -13.1875 
L 8.015625 -13.1875 
Q 14.5 -2 17.703125 9.0625 
Q 20.90625 20.125 20.90625 31.390625 
Q 20.90625 42.671875 17.703125 53.65625 
Q 14.5 64.65625 8.015625 75.875 
" id="BitstreamVeraSans-Roman-29"/>
      <path id="BitstreamVeraSans-Roman-20"/>
      <path d="M 18.3125 70.21875 
L 18.3125 54.6875 
L 36.8125 54.6875 
L 36.8125 47.703125 
L 18.3125 47.703125 
L 18.3125 18.015625 
Q 18.3125 11.328125 20.140625 9.421875 
Q 21.96875 7.515625 27.59375 7.515625 
L 36.8125 7.515625 
L 36.8125 0 
L 27.59375 0 
Q 17.1875 0 13.234375 3.875 
Q 9.28125 7.765625 9.28125 18.015625 
L 9.28125 47.703125 
L 2.6875 47.703125 
L 2.6875 54.6875 
L 9.28125 54.6875 
L 9.28125 70.21875 
z
" id="BitstreamVeraSans-Roman-74"/>
      <path d="M 44.28125 53.078125 
L 44.28125 44.578125 
Q 40.484375 46.53125 36.375 47.5 
Q 32.28125 48.484375 27.875 48.484375 
Q 21.1875 48.484375 17.84375 46.4375 
Q 14.5 44.390625 14.5 40.28125 
Q 14.5 37.15625 16.890625 35.375 
Q 19.28125 33.59375 26.515625 31.984375 
L 29.59375 31.296875 
Q 39.15625 29.25 43.1875 25.515625 
Q 47.21875 21.78125 47.21875 15.09375 
Q 47.21875 7.46875 41.1875 3.015625 
Q 35.15625 -1.421875 24.609375 -1.421875 
Q 20.21875 -1.421875 15.453125 -0.5625 
Q 10.6875 0.296875 5.421875 2 
L 5.421875 11.28125 
Q 10.40625 8.6875 15.234375 7.390625 
Q 20.0625 6.109375 24.8125 6.109375 
Q 31.15625 6.109375 34.5625 8.28125 
Q 37.984375 10.453125 37.984375 14.40625 
Q 37.984375 18.0625 35.515625 20.015625 
Q 33.0625 21.96875 24.703125 23.78125 
L 21.578125 24.515625 
Q 13.234375 26.265625 9.515625 29.90625 
Q 5.8125 33.546875 5.8125 39.890625 
Q 5.8125 47.609375 11.28125 51.796875 
Q 16.75 56 26.8125 56 
Q 31.78125 56 36.171875 55.265625 
Q 40.578125 54.546875 44.28125 53.078125 
" id="BitstreamVeraSans-Roman-73"/>
      <path d="M 31 75.875 
Q 24.46875 64.65625 21.28125 53.65625 
Q 18.109375 42.671875 18.109375 31.390625 
Q 18.109375 20.125 21.3125 9.0625 
Q 24.515625 -2 31 -13.1875 
L 23.1875 -13.1875 
Q 15.875 -1.703125 12.234375 9.375 
Q 8.59375 20.453125 8.59375 31.390625 
Q 8.59375 42.28125 12.203125 53.3125 
Q 15.828125 64.359375 23.1875 75.875 
z
" id="BitstreamVeraSans-Roman-28"/>
     </defs>
     <g transform="translate(356.9334375 274.531875)scale(0.12 -0.12)">
      <use xlink:href="#BitstreamVeraSans-Roman-74"/>
      <use x="39.208984375" xlink:href="#BitstreamVeraSans-Roman-20"/>
      <use x="70.99609375" xlink:href="#BitstreamVeraSans-Roman-28"/>
      <use x="110.009765625" xlink:href="#BitstreamVeraSans-Roman-73"/>
      <use x="162.109375" xlink:href="#BitstreamVeraSans-Roman-29"/>
     </g>
    </g>
   </g>
   <g id="matplotlib.axis_2">
    <g id="ytick_1">
     <g id="line2d_17">
      <defs>
       <path d="M 0 0 
L 4 0 
" id="m038f24fc4f" style="stroke:#000000;stroke-width:0.5;"/>
      </defs>
      <g>
       <use style="stroke:#000000;stroke-width:0.5;" x="90.0" xlink:href="#m038f24fc4f" y="205.962866301"/>
      </g>
     </g>
     <g id="line2d_18">
      <defs>
       <path d="M 0 0 
L -4 0 
" id="mcaf1532ad4" style="stroke:#000000;stroke-width:0.5;"/>
      </defs>
      <g>
       <use style="stroke:#000000;stroke-width:0.5;" x="648.0" xlink:href="#mcaf1532ad4" y="205.962866301"/>
      </g>
     </g>
     <g id="text_8">
      <!-- 50 -->
      <defs>
       <path d="M 10.59375 35.5 
L 73.1875 35.5 
L 73.1875 27.203125 
L 10.59375 27.203125 
z
" id="BitstreamVeraSans-Roman-2212"/>
       <path d="M 10.796875 72.90625 
L 49.515625 72.90625 
L 49.515625 64.59375 
L 19.828125 64.59375 
L 19.828125 46.734375 
Q 21.96875 47.46875 24.109375 47.828125 
Q 26.265625 48.1875 28.421875 48.1875 
Q 40.625 48.1875 47.75 41.5 
Q 54.890625 34.8125 54.890625 23.390625 
Q 54.890625 11.625 47.5625 5.09375 
Q 40.234375 -1.421875 26.90625 -1.421875 
Q 22.3125 -1.421875 17.546875 -0.640625 
Q 12.796875 0.140625 7.71875 1.703125 
L 7.71875 11.625 
Q 12.109375 9.234375 16.796875 8.0625 
Q 21.484375 6.890625 26.703125 6.890625 
Q 35.15625 6.890625 40.078125 11.328125 
Q 45.015625 15.765625 45.015625 23.390625 
Q 45.015625 31 40.078125 35.4375 
Q 35.15625 39.890625 26.703125 39.890625 
Q 22.75 39.890625 18.8125 39.015625 
Q 14.890625 38.140625 10.796875 36.28125 
z
" id="BitstreamVeraSans-Roman-35"/>
      </defs>
      <g transform="translate(60.674375 209.274116301)scale(0.12 -0.12)">
       <use xlink:href="#BitstreamVeraSans-Roman-2212"/>
       <use x="83.7890625" xlink:href="#BitstreamVeraSans-Roman-35"/>
       <use x="147.412109375" xlink:href="#BitstreamVeraSans-Roman-30"/>
      </g>
     </g>
    </g>
    <g id="ytick_2">
     <g id="line2d_19">
      <g>
       <use style="stroke:#000000;stroke-width:0.5;" x="90.0" xlink:href="#m038f24fc4f" y="164.874066366"/>
      </g>
     </g>
     <g id="line2d_20">
      <g>
       <use style="stroke:#000000;stroke-width:0.5;" x="648.0" xlink:href="#mcaf1532ad4" y="164.874066366"/>
      </g>
     </g>
     <g id="text_9">
      <!-- 0 -->
      <g transform="translate(78.365 168.185316366)scale(0.12 -0.12)">
       <use xlink:href="#BitstreamVeraSans-Roman-30"/>
      </g>
     </g>
    </g>
    <g id="ytick_3">
     <g id="line2d_21">
      <g>
       <use style="stroke:#000000;stroke-width:0.5;" x="90.0" xlink:href="#m038f24fc4f" y="123.785266431"/>
      </g>
     </g>
     <g id="line2d_22">
      <g>
       <use style="stroke:#000000;stroke-width:0.5;" x="648.0" xlink:href="#mcaf1532ad4" y="123.785266431"/>
      </g>
     </g>
     <g id="text_10">
      <!-- 50 -->
      <g transform="translate(70.73 127.096516431)scale(0.12 -0.12)">
       <use xlink:href="#BitstreamVeraSans-Roman-35"/>
       <use x="63.623046875" xlink:href="#BitstreamVeraSans-Roman-30"/>
      </g>
     </g>
    </g>
    <g id="ytick_4">
     <g id="line2d_23">
      <g>
       <use style="stroke:#000000;stroke-width:0.5;" x="90.0" xlink:href="#m038f24fc4f" y="82.6964664964"/>
      </g>
     </g>
     <g id="line2d_24">
      <g>
       <use style="stroke:#000000;stroke-width:0.5;" x="648.0" xlink:href="#mcaf1532ad4" y="82.6964664964"/>
      </g>
     </g>
     <g id="text_11">
      <!-- 100 -->
      <g transform="translate(63.095 86.0077164964)scale(0.12 -0.12)">
       <use xlink:href="#BitstreamVeraSans-Roman-31"/>
       <use x="63.623046875" xlink:href="#BitstreamVeraSans-Roman-30"/>
       <use x="127.24609375" xlink:href="#BitstreamVeraSans-Roman-30"/>
      </g>
     </g>
    </g>
    <g id="ytick_5">
     <g id="line2d_25">
      <g>
       <use style="stroke:#000000;stroke-width:0.5;" x="90.0" xlink:href="#m038f24fc4f" y="41.6076665613"/>
      </g>
     </g>
     <g id="line2d_26">
      <g>
       <use style="stroke:#000000;stroke-width:0.5;" x="648.0" xlink:href="#mcaf1532ad4" y="41.6076665613"/>
      </g>
     </g>
     <g id="text_12">
      <!-- 150 -->
      <g transform="translate(63.095 44.9189165613)scale(0.12 -0.12)">
       <use xlink:href="#BitstreamVeraSans-Roman-31"/>
       <use x="63.623046875" xlink:href="#BitstreamVeraSans-Roman-35"/>
       <use x="127.24609375" xlink:href="#BitstreamVeraSans-Roman-30"/>
      </g>
     </g>
    </g>
    <g id="text_13">
     <!-- angle (deg) -->
     <defs>
      <path d="M 54.890625 33.015625 
L 54.890625 0 
L 45.90625 0 
L 45.90625 32.71875 
Q 45.90625 40.484375 42.875 44.328125 
Q 39.84375 48.1875 33.796875 48.1875 
Q 26.515625 48.1875 22.3125 43.546875 
Q 18.109375 38.921875 18.109375 30.90625 
L 18.109375 0 
L 9.078125 0 
L 9.078125 54.6875 
L 18.109375 54.6875 
L 18.109375 46.1875 
Q 21.34375 51.125 25.703125 53.5625 
Q 30.078125 56 35.796875 56 
Q 45.21875 56 50.046875 50.171875 
Q 54.890625 44.34375 54.890625 33.015625 
" id="BitstreamVeraSans-Roman-6e"/>
      <path d="M 9.421875 75.984375 
L 18.40625 75.984375 
L 18.40625 0 
L 9.421875 0 
z
" id="BitstreamVeraSans-Roman-6c"/>
      <path d="M 56.203125 29.59375 
L 56.203125 25.203125 
L 14.890625 25.203125 
Q 15.484375 15.921875 20.484375 11.0625 
Q 25.484375 6.203125 34.421875 6.203125 
Q 39.59375 6.203125 44.453125 7.46875 
Q 49.3125 8.734375 54.109375 11.28125 
L 54.109375 2.78125 
Q 49.265625 0.734375 44.1875 -0.34375 
Q 39.109375 -1.421875 33.890625 -1.421875 
Q 20.796875 -1.421875 13.15625 6.1875 
Q 5.515625 13.8125 5.515625 26.8125 
Q 5.515625 40.234375 12.765625 48.109375 
Q 20.015625 56 32.328125 56 
Q 43.359375 56 49.78125 48.890625 
Q 56.203125 41.796875 56.203125 29.59375 
M 47.21875 32.234375 
Q 47.125 39.59375 43.09375 43.984375 
Q 39.0625 48.390625 32.421875 48.390625 
Q 24.90625 48.390625 20.390625 44.140625 
Q 15.875 39.890625 15.1875 32.171875 
z
" id="BitstreamVeraSans-Roman-65"/>
      <path d="M 45.40625 46.390625 
L 45.40625 75.984375 
L 54.390625 75.984375 
L 54.390625 0 
L 45.40625 0 
L 45.40625 8.203125 
Q 42.578125 3.328125 38.25 0.953125 
Q 33.9375 -1.421875 27.875 -1.421875 
Q 17.96875 -1.421875 11.734375 6.484375 
Q 5.515625 14.40625 5.515625 27.296875 
Q 5.515625 40.1875 11.734375 48.09375 
Q 17.96875 56 27.875 56 
Q 33.9375 56 38.25 53.625 
Q 42.578125 51.265625 45.40625 46.390625 
M 14.796875 27.296875 
Q 14.796875 17.390625 18.875 11.75 
Q 22.953125 6.109375 30.078125 6.109375 
Q 37.203125 6.109375 41.296875 11.75 
Q 45.40625 17.390625 45.40625 27.296875 
Q 45.40625 37.203125 41.296875 42.84375 
Q 37.203125 48.484375 30.078125 48.484375 
Q 22.953125 48.484375 18.875 42.84375 
Q 14.796875 37.203125 14.796875 27.296875 
" id="BitstreamVeraSans-Roman-64"/>
      <path d="M 45.40625 27.984375 
Q 45.40625 37.75 41.375 43.109375 
Q 37.359375 48.484375 30.078125 48.484375 
Q 22.859375 48.484375 18.828125 43.109375 
Q 14.796875 37.75 14.796875 27.984375 
Q 14.796875 18.265625 18.828125 12.890625 
Q 22.859375 7.515625 30.078125 7.515625 
Q 37.359375 7.515625 41.375 12.890625 
Q 45.40625 18.265625 45.40625 27.984375 
M 54.390625 6.78125 
Q 54.390625 -7.171875 48.1875 -13.984375 
Q 42 -20.796875 29.203125 -20.796875 
Q 24.46875 -20.796875 20.265625 -20.09375 
Q 16.0625 -19.390625 12.109375 -17.921875 
L 12.109375 -9.1875 
Q 16.0625 -11.328125 19.921875 -12.34375 
Q 23.78125 -13.375 27.78125 -13.375 
Q 36.625 -13.375 41.015625 -8.765625 
Q 45.40625 -4.15625 45.40625 5.171875 
L 45.40625 9.625 
Q 42.625 4.78125 38.28125 2.390625 
Q 33.9375 0 27.875 0 
Q 17.828125 0 11.671875 7.65625 
Q 5.515625 15.328125 5.515625 27.984375 
Q 5.515625 40.671875 11.671875 48.328125 
Q 17.828125 56 27.875 56 
Q 33.9375 56 38.28125 53.609375 
Q 42.625 51.21875 45.40625 46.390625 
L 45.40625 54.6875 
L 54.390625 54.6875 
z
" id="BitstreamVeraSans-Roman-67"/>
      <path d="M 34.28125 27.484375 
Q 23.390625 27.484375 19.1875 25 
Q 14.984375 22.515625 14.984375 16.5 
Q 14.984375 11.71875 18.140625 8.90625 
Q 21.296875 6.109375 26.703125 6.109375 
Q 34.1875 6.109375 38.703125 11.40625 
Q 43.21875 16.703125 43.21875 25.484375 
L 43.21875 27.484375 
z
M 52.203125 31.203125 
L 52.203125 0 
L 43.21875 0 
L 43.21875 8.296875 
Q 40.140625 3.328125 35.546875 0.953125 
Q 30.953125 -1.421875 24.3125 -1.421875 
Q 15.921875 -1.421875 10.953125 3.296875 
Q 6 8.015625 6 15.921875 
Q 6 25.140625 12.171875 29.828125 
Q 18.359375 34.515625 30.609375 34.515625 
L 43.21875 34.515625 
L 43.21875 35.40625 
Q 43.21875 41.609375 39.140625 45 
Q 35.0625 48.390625 27.6875 48.390625 
Q 23 48.390625 18.546875 47.265625 
Q 14.109375 46.140625 10.015625 43.890625 
L 10.015625 52.203125 
Q 14.9375 54.109375 19.578125 55.046875 
Q 24.21875 56 28.609375 56 
Q 40.484375 56 46.34375 49.84375 
Q 52.203125 43.703125 52.203125 31.203125 
" id="BitstreamVeraSans-Roman-61"/>
     </defs>
     <g transform="translate(53.17875 171.3459375)rotate(-90.0)scale(0.12 -0.12)">
      <use xlink:href="#BitstreamVeraSans-Roman-61"/>
      <use x="61.279296875" xlink:href="#BitstreamVeraSans-Roman-6e"/>
      <use x="124.658203125" xlink:href="#BitstreamVeraSans-Roman-67"/>
      <use x="188.134765625" xlink:href="#BitstreamVeraSans-Roman-6c"/>
      <use x="215.91796875" xlink:href="#BitstreamVeraSans-Roman-65"/>
      <use x="277.44140625" xlink:href="#BitstreamVeraSans-Roman-20"/>
      <use x="309.228515625" xlink:href="#BitstreamVeraSans-Roman-28"/>
      <use x="348.2421875" xlink:href="#BitstreamVeraSans-Roman-64"/>
      <use x="411.71875" xlink:href="#BitstreamVeraSans-Roman-65"/>
      <use x="473.2421875" xlink:href="#BitstreamVeraSans-Roman-67"/>
      <use x="536.71875" xlink:href="#BitstreamVeraSans-Roman-29"/>
     </g>
    </g>
   </g>
   <g id="patch_7">
    <path d="M 259.487584 175.288534 
Q 250.294892 177.11717 241.1022 178.945807 
L 241.980151 183.359331 
Q 235.60871 182.077774 229.237269 180.796216 
Q 234.633209 177.173857 240.029149 173.551498 
L 240.9071 177.965023 
Q 250.099792 176.136387 259.292483 174.30775 
L 259.487584 175.288534 
z
" style="fill:#5b6fbd;stroke:#000000;stroke-linecap:round;"/>
   </g>
   <g id="text_14">
    <!-- Noisy accelerometer -->
    <defs>
     <path d="M 9.8125 72.90625 
L 23.09375 72.90625 
L 55.421875 11.921875 
L 55.421875 72.90625 
L 64.984375 72.90625 
L 64.984375 0 
L 51.703125 0 
L 19.390625 60.984375 
L 19.390625 0 
L 9.8125 0 
z
" id="BitstreamVeraSans-Roman-4e"/>
     <path d="M 52 44.1875 
Q 55.375 50.25 60.0625 53.125 
Q 64.75 56 71.09375 56 
Q 79.640625 56 84.28125 50.015625 
Q 88.921875 44.046875 88.921875 33.015625 
L 88.921875 0 
L 79.890625 0 
L 79.890625 32.71875 
Q 79.890625 40.578125 77.09375 44.375 
Q 74.3125 48.1875 68.609375 48.1875 
Q 61.625 48.1875 57.5625 43.546875 
Q 53.515625 38.921875 53.515625 30.90625 
L 53.515625 0 
L 44.484375 0 
L 44.484375 32.71875 
Q 44.484375 40.625 41.703125 44.40625 
Q 38.921875 48.1875 33.109375 48.1875 
Q 26.21875 48.1875 22.15625 43.53125 
Q 18.109375 38.875 18.109375 30.90625 
L 18.109375 0 
L 9.078125 0 
L 9.078125 54.6875 
L 18.109375 54.6875 
L 18.109375 46.1875 
Q 21.1875 51.21875 25.484375 53.609375 
Q 29.78125 56 35.6875 56 
Q 41.65625 56 45.828125 52.96875 
Q 50 49.953125 52 44.1875 
" id="BitstreamVeraSans-Roman-6d"/>
     <path d="M 30.609375 48.390625 
Q 23.390625 48.390625 19.1875 42.75 
Q 14.984375 37.109375 14.984375 27.296875 
Q 14.984375 17.484375 19.15625 11.84375 
Q 23.34375 6.203125 30.609375 6.203125 
Q 37.796875 6.203125 41.984375 11.859375 
Q 46.1875 17.53125 46.1875 27.296875 
Q 46.1875 37.015625 41.984375 42.703125 
Q 37.796875 48.390625 30.609375 48.390625 
M 30.609375 56 
Q 42.328125 56 49.015625 48.375 
Q 55.71875 40.765625 55.71875 27.296875 
Q 55.71875 13.875 49.015625 6.21875 
Q 42.328125 -1.421875 30.609375 -1.421875 
Q 18.84375 -1.421875 12.171875 6.21875 
Q 5.515625 13.875 5.515625 27.296875 
Q 5.515625 40.765625 12.171875 48.375 
Q 18.84375 56 30.609375 56 
" id="BitstreamVeraSans-Roman-6f"/>
     <path d="M 9.421875 54.6875 
L 18.40625 54.6875 
L 18.40625 0 
L 9.421875 0 
z
M 9.421875 75.984375 
L 18.40625 75.984375 
L 18.40625 64.59375 
L 9.421875 64.59375 
z
" id="BitstreamVeraSans-Roman-69"/>
     <path d="M 32.171875 -5.078125 
Q 28.375 -14.84375 24.75 -17.8125 
Q 21.140625 -20.796875 15.09375 -20.796875 
L 7.90625 -20.796875 
L 7.90625 -13.28125 
L 13.1875 -13.28125 
Q 16.890625 -13.28125 18.9375 -11.515625 
Q 21 -9.765625 23.484375 -3.21875 
L 25.09375 0.875 
L 2.984375 54.6875 
L 12.5 54.6875 
L 29.59375 11.921875 
L 46.6875 54.6875 
L 56.203125 54.6875 
z
" id="BitstreamVeraSans-Roman-79"/>
     <path d="M 41.109375 46.296875 
Q 39.59375 47.171875 37.8125 47.578125 
Q 36.03125 48 33.890625 48 
Q 26.265625 48 22.1875 43.046875 
Q 18.109375 38.09375 18.109375 28.8125 
L 18.109375 0 
L 9.078125 0 
L 9.078125 54.6875 
L 18.109375 54.6875 
L 18.109375 46.1875 
Q 20.953125 51.171875 25.484375 53.578125 
Q 30.03125 56 36.53125 56 
Q 37.453125 56 38.578125 55.875 
Q 39.703125 55.765625 41.0625 55.515625 
z
" id="BitstreamVeraSans-Roman-72"/>
     <path d="M 48.78125 52.59375 
L 48.78125 44.1875 
Q 44.96875 46.296875 41.140625 47.34375 
Q 37.3125 48.390625 33.40625 48.390625 
Q 24.65625 48.390625 19.8125 42.84375 
Q 14.984375 37.3125 14.984375 27.296875 
Q 14.984375 17.28125 19.8125 11.734375 
Q 24.65625 6.203125 33.40625 6.203125 
Q 37.3125 6.203125 41.140625 7.25 
Q 44.96875 8.296875 48.78125 10.40625 
L 48.78125 2.09375 
Q 45.015625 0.34375 40.984375 -0.53125 
Q 36.96875 -1.421875 32.421875 -1.421875 
Q 20.0625 -1.421875 12.78125 6.34375 
Q 5.515625 14.109375 5.515625 27.296875 
Q 5.515625 40.671875 12.859375 48.328125 
Q 20.21875 56 33.015625 56 
Q 37.15625 56 41.109375 55.140625 
Q 45.0625 54.296875 48.78125 52.59375 
" id="BitstreamVeraSans-Roman-63"/>
    </defs>
    <g transform="translate(197.775171905 183.855754515)scale(0.12 -0.12)">
     <use xlink:href="#BitstreamVeraSans-Roman-4e"/>
     <use x="74.8046875" xlink:href="#BitstreamVeraSans-Roman-6f"/>
     <use x="135.986328125" xlink:href="#BitstreamVeraSans-Roman-69"/>
     <use x="163.76953125" xlink:href="#BitstreamVeraSans-Roman-73"/>
     <use x="215.869140625" xlink:href="#BitstreamVeraSans-Roman-79"/>
     <use x="275.048828125" xlink:href="#BitstreamVeraSans-Roman-20"/>
     <use x="306.8359375" xlink:href="#BitstreamVeraSans-Roman-61"/>
     <use x="368.115234375" xlink:href="#BitstreamVeraSans-Roman-63"/>
     <use x="423.095703125" xlink:href="#BitstreamVeraSans-Roman-63"/>
     <use x="478.076171875" xlink:href="#BitstreamVeraSans-Roman-65"/>
     <use x="539.599609375" xlink:href="#BitstreamVeraSans-Roman-6c"/>
     <use x="567.3828125" xlink:href="#BitstreamVeraSans-Roman-65"/>
     <use x="628.90625" xlink:href="#BitstreamVeraSans-Roman-72"/>
     <use x="669.98828125" xlink:href="#BitstreamVeraSans-Roman-6f"/>
     <use x="731.169921875" xlink:href="#BitstreamVeraSans-Roman-6d"/>
     <use x="828.58203125" xlink:href="#BitstreamVeraSans-Roman-65"/>
     <use x="890.10546875" xlink:href="#BitstreamVeraSans-Roman-74"/>
     <use x="929.314453125" xlink:href="#BitstreamVeraSans-Roman-65"/>
     <use x="990.837890625" xlink:href="#BitstreamVeraSans-Roman-72"/>
    </g>
    <!-- signal -->
    <g transform="translate(241.946421905 197.293129515)scale(0.12 -0.12)">
     <use xlink:href="#BitstreamVeraSans-Roman-73"/>
     <use x="52.099609375" xlink:href="#BitstreamVeraSans-Roman-69"/>
     <use x="79.8828125" xlink:href="#BitstreamVeraSans-Roman-67"/>
     <use x="143.359375" xlink:href="#BitstreamVeraSans-Roman-6e"/>
     <use x="206.73828125" xlink:href="#BitstreamVeraSans-Roman-61"/>
     <use x="268.017578125" xlink:href="#BitstreamVeraSans-Roman-6c"/>
    </g>
   </g>
   <g id="patch_8">
    <path d="M 456.817255 42.482518 
Q 461.612508 43.120605 466.407761 43.758692 
L 466.803472 40.784904 
Q 472.519174 43.310898 478.234875 45.836891 
Q 472.057511 46.780316 465.880146 47.723742 
L 466.275857 44.749954 
Q 461.480604 44.111867 456.685351 43.47378 
L 456.817255 42.482518 
z
" style="fill:#38c0ff;stroke:#000000;stroke-linecap:round;"/>
   </g>
   <g id="text_15">
    <!-- Gyro integral drift -->
    <defs>
     <path d="M 59.515625 10.40625 
L 59.515625 29.984375 
L 43.40625 29.984375 
L 43.40625 38.09375 
L 69.28125 38.09375 
L 69.28125 6.78125 
Q 63.578125 2.734375 56.6875 0.65625 
Q 49.8125 -1.421875 42 -1.421875 
Q 24.90625 -1.421875 15.25 8.5625 
Q 5.609375 18.5625 5.609375 36.375 
Q 5.609375 54.25 15.25 64.234375 
Q 24.90625 74.21875 42 74.21875 
Q 49.125 74.21875 55.546875 72.453125 
Q 61.96875 70.703125 67.390625 67.28125 
L 67.390625 56.78125 
Q 61.921875 61.421875 55.765625 63.765625 
Q 49.609375 66.109375 42.828125 66.109375 
Q 29.4375 66.109375 22.71875 58.640625 
Q 16.015625 51.171875 16.015625 36.375 
Q 16.015625 21.625 22.71875 14.15625 
Q 29.4375 6.6875 42.828125 6.6875 
Q 48.046875 6.6875 52.140625 7.59375 
Q 56.25 8.5 59.515625 10.40625 
" id="BitstreamVeraSans-Roman-47"/>
     <path d="M 37.109375 75.984375 
L 37.109375 68.5 
L 28.515625 68.5 
Q 23.6875 68.5 21.796875 66.546875 
Q 19.921875 64.59375 19.921875 59.515625 
L 19.921875 54.6875 
L 34.71875 54.6875 
L 34.71875 47.703125 
L 19.921875 47.703125 
L 19.921875 0 
L 10.890625 0 
L 10.890625 47.703125 
L 2.296875 47.703125 
L 2.296875 54.6875 
L 10.890625 54.6875 
L 10.890625 58.5 
Q 10.890625 67.625 15.140625 71.796875 
Q 19.390625 75.984375 28.609375 75.984375 
z
" id="BitstreamVeraSans-Roman-66"/>
    </defs>
    <g transform="translate(346.629017013 40.1172853923)scale(0.12 -0.12)">
     <use xlink:href="#BitstreamVeraSans-Roman-47"/>
     <use x="77.490234375" xlink:href="#BitstreamVeraSans-Roman-79"/>
     <use x="136.669921875" xlink:href="#BitstreamVeraSans-Roman-72"/>
     <use x="177.751953125" xlink:href="#BitstreamVeraSans-Roman-6f"/>
     <use x="238.93359375" xlink:href="#BitstreamVeraSans-Roman-20"/>
     <use x="270.720703125" xlink:href="#BitstreamVeraSans-Roman-69"/>
     <use x="298.50390625" xlink:href="#BitstreamVeraSans-Roman-6e"/>
     <use x="361.8828125" xlink:href="#BitstreamVeraSans-Roman-74"/>
     <use x="401.091796875" xlink:href="#BitstreamVeraSans-Roman-65"/>
     <use x="462.615234375" xlink:href="#BitstreamVeraSans-Roman-67"/>
     <use x="526.091796875" xlink:href="#BitstreamVeraSans-Roman-72"/>
     <use x="567.205078125" xlink:href="#BitstreamVeraSans-Roman-61"/>
     <use x="628.484375" xlink:href="#BitstreamVeraSans-Roman-6c"/>
     <use x="656.267578125" xlink:href="#BitstreamVeraSans-Roman-20"/>
     <use x="688.0546875" xlink:href="#BitstreamVeraSans-Roman-64"/>
     <use x="751.53125" xlink:href="#BitstreamVeraSans-Roman-72"/>
     <use x="792.64453125" xlink:href="#BitstreamVeraSans-Roman-69"/>
     <use x="820.427734375" xlink:href="#BitstreamVeraSans-Roman-66"/>
     <use x="855.6171875" xlink:href="#BitstreamVeraSans-Roman-74"/>
    </g>
   </g>
   <g id="text_16">
    <!-- Kalman Filter vs Simple Combination Filter -->
    <defs>
     <path d="M 9.8125 72.90625 
L 19.671875 72.90625 
L 19.671875 42.09375 
L 52.390625 72.90625 
L 65.09375 72.90625 
L 28.90625 38.921875 
L 67.671875 0 
L 54.6875 0 
L 19.671875 35.109375 
L 19.671875 0 
L 9.8125 0 
z
" id="BitstreamVeraSans-Roman-4b"/>
     <path d="M 9.8125 72.90625 
L 51.703125 72.90625 
L 51.703125 64.59375 
L 19.671875 64.59375 
L 19.671875 43.109375 
L 48.578125 43.109375 
L 48.578125 34.8125 
L 19.671875 34.8125 
L 19.671875 0 
L 9.8125 0 
z
" id="BitstreamVeraSans-Roman-46"/>
     <path d="M 53.515625 70.515625 
L 53.515625 60.890625 
Q 47.90625 63.578125 42.921875 64.890625 
Q 37.9375 66.21875 33.296875 66.21875 
Q 25.25 66.21875 20.875 63.09375 
Q 16.5 59.96875 16.5 54.203125 
Q 16.5 49.359375 19.40625 46.890625 
Q 22.3125 44.4375 30.421875 42.921875 
L 36.375 41.703125 
Q 47.40625 39.59375 52.65625 34.296875 
Q 57.90625 29 57.90625 20.125 
Q 57.90625 9.515625 50.796875 4.046875 
Q 43.703125 -1.421875 29.984375 -1.421875 
Q 24.8125 -1.421875 18.96875 -0.25 
Q 13.140625 0.921875 6.890625 3.21875 
L 6.890625 13.375 
Q 12.890625 10.015625 18.65625 8.296875 
Q 24.421875 6.59375 29.984375 6.59375 
Q 38.421875 6.59375 43.015625 9.90625 
Q 47.609375 13.234375 47.609375 19.390625 
Q 47.609375 24.75 44.3125 27.78125 
Q 41.015625 30.8125 33.5 32.328125 
L 27.484375 33.5 
Q 16.453125 35.6875 11.515625 40.375 
Q 6.59375 45.0625 6.59375 53.421875 
Q 6.59375 63.09375 13.40625 68.65625 
Q 20.21875 74.21875 32.171875 74.21875 
Q 37.3125 74.21875 42.625 73.28125 
Q 47.953125 72.359375 53.515625 70.515625 
" id="BitstreamVeraSans-Roman-53"/>
     <path d="M 64.40625 67.28125 
L 64.40625 56.890625 
Q 59.421875 61.53125 53.78125 63.8125 
Q 48.140625 66.109375 41.796875 66.109375 
Q 29.296875 66.109375 22.65625 58.46875 
Q 16.015625 50.828125 16.015625 36.375 
Q 16.015625 21.96875 22.65625 14.328125 
Q 29.296875 6.6875 41.796875 6.6875 
Q 48.140625 6.6875 53.78125 8.984375 
Q 59.421875 11.28125 64.40625 15.921875 
L 64.40625 5.609375 
Q 59.234375 2.09375 53.4375 0.328125 
Q 47.65625 -1.421875 41.21875 -1.421875 
Q 24.65625 -1.421875 15.125 8.703125 
Q 5.609375 18.84375 5.609375 36.375 
Q 5.609375 53.953125 15.125 64.078125 
Q 24.65625 74.21875 41.21875 74.21875 
Q 47.75 74.21875 53.53125 72.484375 
Q 59.328125 70.75 64.40625 67.28125 
" id="BitstreamVeraSans-Roman-43"/>
     <path d="M 2.984375 54.6875 
L 12.5 54.6875 
L 29.59375 8.796875 
L 46.6875 54.6875 
L 56.203125 54.6875 
L 35.6875 0 
L 23.484375 0 
z
" id="BitstreamVeraSans-Roman-76"/>
     <path d="M 18.109375 8.203125 
L 18.109375 -20.796875 
L 9.078125 -20.796875 
L 9.078125 54.6875 
L 18.109375 54.6875 
L 18.109375 46.390625 
Q 20.953125 51.265625 25.265625 53.625 
Q 29.59375 56 35.59375 56 
Q 45.5625 56 51.78125 48.09375 
Q 58.015625 40.1875 58.015625 27.296875 
Q 58.015625 14.40625 51.78125 6.484375 
Q 45.5625 -1.421875 35.59375 -1.421875 
Q 29.59375 -1.421875 25.265625 0.953125 
Q 20.953125 3.328125 18.109375 8.203125 
M 48.6875 27.296875 
Q 48.6875 37.203125 44.609375 42.84375 
Q 40.53125 48.484375 33.40625 48.484375 
Q 26.265625 48.484375 22.1875 42.84375 
Q 18.109375 37.203125 18.109375 27.296875 
Q 18.109375 17.390625 22.1875 11.75 
Q 26.265625 6.109375 33.40625 6.109375 
Q 40.53125 6.109375 44.609375 11.75 
Q 48.6875 17.390625 48.6875 27.296875 
" id="BitstreamVeraSans-Roman-70"/>
     <path d="M 48.6875 27.296875 
Q 48.6875 37.203125 44.609375 42.84375 
Q 40.53125 48.484375 33.40625 48.484375 
Q 26.265625 48.484375 22.1875 42.84375 
Q 18.109375 37.203125 18.109375 27.296875 
Q 18.109375 17.390625 22.1875 11.75 
Q 26.265625 6.109375 33.40625 6.109375 
Q 40.53125 6.109375 44.609375 11.75 
Q 48.6875 17.390625 48.6875 27.296875 
M 18.109375 46.390625 
Q 20.953125 51.265625 25.265625 53.625 
Q 29.59375 56 35.59375 56 
Q 45.5625 56 51.78125 48.09375 
Q 58.015625 40.1875 58.015625 27.296875 
Q 58.015625 14.40625 51.78125 6.484375 
Q 45.5625 -1.421875 35.59375 -1.421875 
Q 29.59375 -1.421875 25.265625 0.953125 
Q 20.953125 3.328125 18.109375 8.203125 
L 18.109375 0 
L 9.078125 0 
L 9.078125 75.984375 
L 18.109375 75.984375 
z
" id="BitstreamVeraSans-Roman-62"/>
    </defs>
    <g transform="translate(215.362125 23.8)scale(0.144 -0.144)">
     <use xlink:href="#BitstreamVeraSans-Roman-4b"/>
     <use x="65.560546875" xlink:href="#BitstreamVeraSans-Roman-61"/>
     <use x="126.83984375" xlink:href="#BitstreamVeraSans-Roman-6c"/>
     <use x="154.623046875" xlink:href="#BitstreamVeraSans-Roman-6d"/>
     <use x="252.03515625" xlink:href="#BitstreamVeraSans-Roman-61"/>
     <use x="313.314453125" xlink:href="#BitstreamVeraSans-Roman-6e"/>
     <use x="376.693359375" xlink:href="#BitstreamVeraSans-Roman-20"/>
     <use x="408.48046875" xlink:href="#BitstreamVeraSans-Roman-46"/>
     <use x="465.890625" xlink:href="#BitstreamVeraSans-Roman-69"/>
     <use x="493.673828125" xlink:href="#BitstreamVeraSans-Roman-6c"/>
     <use x="521.45703125" xlink:href="#BitstreamVeraSans-Roman-74"/>
     <use x="560.666015625" xlink:href="#BitstreamVeraSans-Roman-65"/>
     <use x="622.189453125" xlink:href="#BitstreamVeraSans-Roman-72"/>
     <use x="663.302734375" xlink:href="#BitstreamVeraSans-Roman-20"/>
     <use x="695.08984375" xlink:href="#BitstreamVeraSans-Roman-76"/>
     <use x="754.26953125" xlink:href="#BitstreamVeraSans-Roman-73"/>
     <use x="806.369140625" xlink:href="#BitstreamVeraSans-Roman-20"/>
     <use x="838.15625" xlink:href="#BitstreamVeraSans-Roman-53"/>
     <use x="901.6328125" xlink:href="#BitstreamVeraSans-Roman-69"/>
     <use x="929.416015625" xlink:href="#BitstreamVeraSans-Roman-6d"/>
     <use x="1026.828125" xlink:href="#BitstreamVeraSans-Roman-70"/>
     <use x="1090.3046875" xlink:href="#BitstreamVeraSans-Roman-6c"/>
     <use x="1118.08789062" xlink:href="#BitstreamVeraSans-Roman-65"/>
     <use x="1179.61132812" xlink:href="#BitstreamVeraSans-Roman-20"/>
     <use x="1211.3984375" xlink:href="#BitstreamVeraSans-Roman-43"/>
     <use x="1281.22265625" xlink:href="#BitstreamVeraSans-Roman-6f"/>
     <use x="1342.40429688" xlink:href="#BitstreamVeraSans-Roman-6d"/>
     <use x="1439.81640625" xlink:href="#BitstreamVeraSans-Roman-62"/>
     <use x="1503.29296875" xlink:href="#BitstreamVeraSans-Roman-69"/>
     <use x="1531.07617188" xlink:href="#BitstreamVeraSans-Roman-6e"/>
     <use x="1594.45507812" xlink:href="#BitstreamVeraSans-Roman-61"/>
     <use x="1655.734375" xlink:href="#BitstreamVeraSans-Roman-74"/>
     <use x="1694.94335938" xlink:href="#BitstreamVeraSans-Roman-69"/>
     <use x="1722.7265625" xlink:href="#BitstreamVeraSans-Roman-6f"/>
     <use x="1783.90820312" xlink:href="#BitstreamVeraSans-Roman-6e"/>
     <use x="1847.28710938" xlink:href="#BitstreamVeraSans-Roman-20"/>
     <use x="1879.07421875" xlink:href="#BitstreamVeraSans-Roman-46"/>
     <use x="1936.484375" xlink:href="#BitstreamVeraSans-Roman-69"/>
     <use x="1964.26757812" xlink:href="#BitstreamVeraSans-Roman-6c"/>
     <use x="1992.05078125" xlink:href="#BitstreamVeraSans-Roman-74"/>
     <use x="2031.25976562" xlink:href="#BitstreamVeraSans-Roman-65"/>
     <use x="2092.78320312" xlink:href="#BitstreamVeraSans-Roman-72"/>
    </g>
   </g>
   <g id="legend_1">
    <g id="patch_9">
     <path d="M 94 82.17 
L 209.29875 82.17 
L 209.29875 32.8 
L 94 32.8 
z
" style="fill:#ffffff;stroke:#000000;stroke-linejoin:miter;"/>
    </g>
    <g id="line2d_27">
     <path d="M 99.6 39.27875 
L 110.8 39.27875 
" style="fill:none;stroke:#5b6fbd;stroke-linecap:square;"/>
    </g>
    <g id="line2d_28"/>
    <g id="text_17">
     <!-- Measured Pitch -->
     <defs>
      <path d="M 19.671875 64.796875 
L 19.671875 37.40625 
L 32.078125 37.40625 
Q 38.96875 37.40625 42.71875 40.96875 
Q 46.484375 44.53125 46.484375 51.125 
Q 46.484375 57.671875 42.71875 61.234375 
Q 38.96875 64.796875 32.078125 64.796875 
z
M 9.8125 72.90625 
L 32.078125 72.90625 
Q 44.34375 72.90625 50.609375 67.359375 
Q 56.890625 61.8125 56.890625 51.125 
Q 56.890625 40.328125 50.609375 34.8125 
Q 44.34375 29.296875 32.078125 29.296875 
L 19.671875 29.296875 
L 19.671875 0 
L 9.8125 0 
z
" id="BitstreamVeraSans-Roman-50"/>
      <path d="M 8.5 21.578125 
L 8.5 54.6875 
L 17.484375 54.6875 
L 17.484375 21.921875 
Q 17.484375 14.15625 20.5 10.265625 
Q 23.53125 6.390625 29.59375 6.390625 
Q 36.859375 6.390625 41.078125 11.03125 
Q 45.3125 15.671875 45.3125 23.6875 
L 45.3125 54.6875 
L 54.296875 54.6875 
L 54.296875 0 
L 45.3125 0 
L 45.3125 8.40625 
Q 42.046875 3.421875 37.71875 1 
Q 33.40625 -1.421875 27.6875 -1.421875 
Q 18.265625 -1.421875 13.375 4.4375 
Q 8.5 10.296875 8.5 21.578125 
" id="BitstreamVeraSans-Roman-75"/>
      <path d="M 9.8125 72.90625 
L 24.515625 72.90625 
L 43.109375 23.296875 
L 61.8125 72.90625 
L 76.515625 72.90625 
L 76.515625 0 
L 66.890625 0 
L 66.890625 64.015625 
L 48.09375 14.015625 
L 38.1875 14.015625 
L 19.390625 64.015625 
L 19.390625 0 
L 9.8125 0 
z
" id="BitstreamVeraSans-Roman-4d"/>
      <path d="M 54.890625 33.015625 
L 54.890625 0 
L 45.90625 0 
L 45.90625 32.71875 
Q 45.90625 40.484375 42.875 44.328125 
Q 39.84375 48.1875 33.796875 48.1875 
Q 26.515625 48.1875 22.3125 43.546875 
Q 18.109375 38.921875 18.109375 30.90625 
L 18.109375 0 
L 9.078125 0 
L 9.078125 75.984375 
L 18.109375 75.984375 
L 18.109375 46.1875 
Q 21.34375 51.125 25.703125 53.5625 
Q 30.078125 56 35.796875 56 
Q 45.21875 56 50.046875 50.171875 
Q 54.890625 44.34375 54.890625 33.015625 
" id="BitstreamVeraSans-Roman-68"/>
     </defs>
     <g transform="translate(119.6 42.07875)scale(0.08 -0.08)">
      <use xlink:href="#BitstreamVeraSans-Roman-4d"/>
      <use x="86.279296875" xlink:href="#BitstreamVeraSans-Roman-65"/>
      <use x="147.802734375" xlink:href="#BitstreamVeraSans-Roman-61"/>
      <use x="209.08203125" xlink:href="#BitstreamVeraSans-Roman-73"/>
      <use x="261.181640625" xlink:href="#BitstreamVeraSans-Roman-75"/>
      <use x="324.560546875" xlink:href="#BitstreamVeraSans-Roman-72"/>
      <use x="365.642578125" xlink:href="#BitstreamVeraSans-Roman-65"/>
      <use x="427.166015625" xlink:href="#BitstreamVeraSans-Roman-64"/>
      <use x="490.642578125" xlink:href="#BitstreamVeraSans-Roman-20"/>
      <use x="522.4296875" xlink:href="#BitstreamVeraSans-Roman-50"/>
      <use x="582.701171875" xlink:href="#BitstreamVeraSans-Roman-69"/>
      <use x="610.484375" xlink:href="#BitstreamVeraSans-Roman-74"/>
      <use x="649.693359375" xlink:href="#BitstreamVeraSans-Roman-63"/>
      <use x="704.673828125" xlink:href="#BitstreamVeraSans-Roman-68"/>
     </g>
    </g>
    <g id="line2d_29">
     <path d="M 99.6 51.02125 
L 110.8 51.02125 
" style="fill:none;stroke:#38c0ff;stroke-linecap:square;"/>
    </g>
    <g id="line2d_30"/>
    <g id="text_18">
     <!-- Unfiltered Gyro Angle -->
     <defs>
      <path d="M 8.6875 72.90625 
L 18.609375 72.90625 
L 18.609375 28.609375 
Q 18.609375 16.890625 22.84375 11.734375 
Q 27.09375 6.59375 36.625 6.59375 
Q 46.09375 6.59375 50.34375 11.734375 
Q 54.59375 16.890625 54.59375 28.609375 
L 54.59375 72.90625 
L 64.5 72.90625 
L 64.5 27.390625 
Q 64.5 13.140625 57.4375 5.859375 
Q 50.390625 -1.421875 36.625 -1.421875 
Q 22.796875 -1.421875 15.734375 5.859375 
Q 8.6875 13.140625 8.6875 27.390625 
z
" id="BitstreamVeraSans-Roman-55"/>
      <path d="M 34.1875 63.1875 
L 20.796875 26.90625 
L 47.609375 26.90625 
z
M 28.609375 72.90625 
L 39.796875 72.90625 
L 67.578125 0 
L 57.328125 0 
L 50.6875 18.703125 
L 17.828125 18.703125 
L 11.1875 0 
L 0.78125 0 
z
" id="BitstreamVeraSans-Roman-41"/>
     </defs>
     <g transform="translate(119.6 53.82125)scale(0.08 -0.08)">
      <use xlink:href="#BitstreamVeraSans-Roman-55"/>
      <use x="73.193359375" xlink:href="#BitstreamVeraSans-Roman-6e"/>
      <use x="136.572265625" xlink:href="#BitstreamVeraSans-Roman-66"/>
      <use x="171.77734375" xlink:href="#BitstreamVeraSans-Roman-69"/>
      <use x="199.560546875" xlink:href="#BitstreamVeraSans-Roman-6c"/>
      <use x="227.34375" xlink:href="#BitstreamVeraSans-Roman-74"/>
      <use x="266.552734375" xlink:href="#BitstreamVeraSans-Roman-65"/>
      <use x="328.076171875" xlink:href="#BitstreamVeraSans-Roman-72"/>
      <use x="369.158203125" xlink:href="#BitstreamVeraSans-Roman-65"/>
      <use x="430.681640625" xlink:href="#BitstreamVeraSans-Roman-64"/>
      <use x="494.158203125" xlink:href="#BitstreamVeraSans-Roman-20"/>
      <use x="525.9453125" xlink:href="#BitstreamVeraSans-Roman-47"/>
      <use x="603.435546875" xlink:href="#BitstreamVeraSans-Roman-79"/>
      <use x="662.615234375" xlink:href="#BitstreamVeraSans-Roman-72"/>
      <use x="703.697265625" xlink:href="#BitstreamVeraSans-Roman-6f"/>
      <use x="764.87890625" xlink:href="#BitstreamVeraSans-Roman-20"/>
      <use x="796.666015625" xlink:href="#BitstreamVeraSans-Roman-41"/>
      <use x="865.07421875" xlink:href="#BitstreamVeraSans-Roman-6e"/>
      <use x="928.453125" xlink:href="#BitstreamVeraSans-Roman-67"/>
      <use x="991.9296875" xlink:href="#BitstreamVeraSans-Roman-6c"/>
      <use x="1019.71289062" xlink:href="#BitstreamVeraSans-Roman-65"/>
     </g>
    </g>
    <g id="line2d_31">
     <path d="M 99.6 62.76375 
L 110.8 62.76375 
" style="fill:none;stroke:#008000;stroke-linecap:square;stroke-width:2.0;"/>
    </g>
    <g id="line2d_32"/>
    <g id="text_19">
     <!-- Kalman Filter -->
     <g transform="translate(119.6 65.56375)scale(0.08 -0.08)">
      <use xlink:href="#BitstreamVeraSans-Roman-4b"/>
      <use x="65.560546875" xlink:href="#BitstreamVeraSans-Roman-61"/>
      <use x="126.83984375" xlink:href="#BitstreamVeraSans-Roman-6c"/>
      <use x="154.623046875" xlink:href="#BitstreamVeraSans-Roman-6d"/>
      <use x="252.03515625" xlink:href="#BitstreamVeraSans-Roman-61"/>
      <use x="313.314453125" xlink:href="#BitstreamVeraSans-Roman-6e"/>
      <use x="376.693359375" xlink:href="#BitstreamVeraSans-Roman-20"/>
      <use x="408.48046875" xlink:href="#BitstreamVeraSans-Roman-46"/>
      <use x="465.890625" xlink:href="#BitstreamVeraSans-Roman-69"/>
      <use x="493.673828125" xlink:href="#BitstreamVeraSans-Roman-6c"/>
      <use x="521.45703125" xlink:href="#BitstreamVeraSans-Roman-74"/>
      <use x="560.666015625" xlink:href="#BitstreamVeraSans-Roman-65"/>
      <use x="622.189453125" xlink:href="#BitstreamVeraSans-Roman-72"/>
     </g>
    </g>
    <g id="line2d_33">
     <path d="M 99.6 74.50625 
L 110.8 74.50625 
" style="fill:none;stroke:#ff0000;stroke-dasharray:6.000000,6.000000;stroke-dashoffset:0.0;stroke-width:2.0;"/>
    </g>
    <g id="line2d_34"/>
    <g id="text_20">
     <!-- Combination Filter -->
     <g transform="translate(119.6 77.30625)scale(0.08 -0.08)">
      <use xlink:href="#BitstreamVeraSans-Roman-43"/>
      <use x="69.82421875" xlink:href="#BitstreamVeraSans-Roman-6f"/>
      <use x="131.005859375" xlink:href="#BitstreamVeraSans-Roman-6d"/>
      <use x="228.41796875" xlink:href="#BitstreamVeraSans-Roman-62"/>
      <use x="291.89453125" xlink:href="#BitstreamVeraSans-Roman-69"/>
      <use x="319.677734375" xlink:href="#BitstreamVeraSans-Roman-6e"/>
      <use x="383.056640625" xlink:href="#BitstreamVeraSans-Roman-61"/>
      <use x="444.3359375" xlink:href="#BitstreamVeraSans-Roman-74"/>
      <use x="483.544921875" xlink:href="#BitstreamVeraSans-Roman-69"/>
      <use x="511.328125" xlink:href="#BitstreamVeraSans-Roman-6f"/>
      <use x="572.509765625" xlink:href="#BitstreamVeraSans-Roman-6e"/>
      <use x="635.888671875" xlink:href="#BitstreamVeraSans-Roman-20"/>
      <use x="667.67578125" xlink:href="#BitstreamVeraSans-Roman-46"/>
      <use x="725.0859375" xlink:href="#BitstreamVeraSans-Roman-69"/>
      <use x="752.869140625" xlink:href="#BitstreamVeraSans-Roman-6c"/>
      <use x="780.65234375" xlink:href="#BitstreamVeraSans-Roman-74"/>
      <use x="819.861328125" xlink:href="#BitstreamVeraSans-Roman-65"/>
      <use x="881.384765625" xlink:href="#BitstreamVeraSans-Roman-72"/>
     </g>
    </g>
   </g>
  </g>
 </g>
 <defs>
  <clipPath id="pc4954830c6">
   <rect height="216.0" width="558.0" x="90.0" y="28.8"/>
  </clipPath>
 </defs>
</svg>
