<?xml version="1.0" encoding="utf-8" standalone="no"?>
<!DOCTYPE svg PUBLIC "-//W3C//DTD SVG 1.1//EN"
  "http://www.w3.org/Graphics/SVG/1.1/DTD/svg11.dtd">
<!-- Created with matplotlib (http://matplotlib.org/) -->
<svg height="288pt" version="1.1" viewBox="0 0 720 288" width="720pt" xmlns="http://www.w3.org/2000/svg" xmlns:xlink="http://www.w3.org/1999/xlink">
 <defs>
  <style type="text/css">
*{stroke-linecap:butt;stroke-linejoin:round;stroke-miterlimit:100000;}
  </style>
 </defs>
 <g id="figure_1">
  <g id="patch_1">
   <path d="M 0 288 
L 720 288 
L 720 0 
L 0 0 
z
" style="fill:#ffffff;"/>
  </g>
  <g id="axes_1">
   <g id="patch_2">
    <path d="M 90 244.8 
L 648 244.8 
L 648 28.8 
L 90 28.8 
z
" style="fill:#ffffff;"/>
   </g>
   <g id="PolyCollection_1">
    <defs>
     <path d="M 90 -141.508885 
L 90 -141.508885 
L 91.554318 -141.508885 
L 93.108635 -141.508885 
L 94.662953 -141.508885 
L 96.21727 -141.508885 
L 97.771588 -141.508885 
L 99.325905 -141.508885 
L 100.880223 -141.508885 
L 102.43454 -141.508885 
L 103.988858 -141.508885 
L 105.543175 -141.508885 
L 107.097493 -141.508885 
L 108.651811 -141.508885 
L 110.206128 -141.508885 
L 111.760446 -141.508885 
L 113.314763 -141.508885 
L 114.869081 -141.508885 
L 116.423398 -141.508885 
L 117.977716 -141.508885 
L 119.532033 -141.508885 
L 121.086351 -141.508885 
L 122.640669 -141.508885 
L 124.194986 -141.508885 
L 125.749304 -141.508885 
L 127.303621 -141.508885 
L 128.857939 -141.508885 
L 130.412256 -141.508885 
L 131.966574 -141.508885 
L 133.520891 -141.508885 
L 135.075209 -141.508885 
L 136.629526 -141.508885 
L 138.183844 -141.508885 
L 139.738162 -141.508885 
L 141.292479 -141.508885 
L 142.846797 -141.508885 
L 144.401114 -141.508885 
L 145.955432 -141.508885 
L 147.509749 -141.508885 
L 149.064067 -141.508885 
L 150.618384 -141.508885 
L 152.172702 -141.508885 
L 153.727019 -141.508885 
L 155.281337 -141.508885 
L 156.835655 -141.508885 
L 158.389972 -141.508885 
L 159.94429 -141.508885 
L 161.498607 -141.508885 
L 163.052925 -141.508885 
L 164.607242 -141.508885 
L 166.16156 -141.508885 
L 167.715877 -141.508885 
L 169.270195 -141.508885 
L 170.824513 -141.508885 
L 172.37883 -141.508885 
L 173.933148 -141.508885 
L 175.487465 -141.508885 
L 177.041783 -141.508885 
L 178.5961 -141.508885 
L 180.150418 -141.508885 
L 181.704735 -141.508885 
L 183.259053 -141.508885 
L 184.81337 -141.508885 
L 186.367688 -141.508885 
L 187.922006 -141.508885 
L 189.476323 -141.508885 
L 191.030641 -141.508885 
L 192.584958 -141.508885 
L 194.139276 -141.508885 
L 195.693593 -141.508885 
L 197.247911 -141.508885 
L 198.802228 -141.508885 
L 200.356546 -141.508885 
L 201.910864 -141.508885 
L 203.465181 -141.508885 
L 205.019499 -141.508885 
L 206.573816 -141.508885 
L 208.128134 -141.508885 
L 209.682451 -141.508885 
L 211.236769 -141.508885 
L 212.791086 -141.508885 
L 214.345404 -141.508885 
L 215.899721 -141.508885 
L 217.454039 -141.508885 
L 219.008357 -141.508885 
L 220.562674 -141.508885 
L 222.116992 -141.508885 
L 223.671309 -141.508885 
L 225.225627 -141.508885 
L 226.779944 -141.508885 
L 228.334262 -141.508885 
L 229.888579 -141.508885 
L 231.442897 -141.508885 
L 232.997214 -141.508885 
L 234.551532 -141.508885 
L 236.10585 -141.508885 
L 237.660167 -141.508885 
L 239.214485 -141.508885 
L 240.768802 -141.508885 
L 242.32312 -141.508885 
L 243.877437 -141.508885 
L 245.431755 -141.508885 
L 246.986072 -141.508885 
L 248.54039 -141.508885 
L 250.094708 -141.508885 
L 251.649025 -141.508885 
L 253.203343 -141.508885 
L 254.75766 -141.508885 
L 256.311978 -141.508885 
L 257.866295 -141.508885 
L 259.420613 -141.508885 
L 260.97493 -141.508885 
L 262.529248 -141.508885 
L 264.083565 -141.508885 
L 265.637883 -141.508885 
L 267.192201 -141.508885 
L 268.746518 -141.508885 
L 270.300836 -141.508885 
L 271.855153 -141.508885 
L 273.409471 -141.508885 
L 274.963788 -141.508885 
L 276.518106 -141.508885 
L 278.072423 -141.508885 
L 279.626741 -141.508885 
L 281.181058 -141.508885 
L 282.735376 -141.508885 
L 284.289694 -141.508885 
L 285.844011 -141.508885 
L 287.398329 -141.508885 
L 288.952646 -141.508885 
L 290.506964 -141.508885 
L 292.061281 -141.508885 
L 293.615599 -141.508885 
L 295.169916 -141.508885 
L 296.724234 -141.508885 
L 298.278552 -141.508885 
L 299.832869 -141.508885 
L 301.387187 -141.508885 
L 302.941504 -141.508885 
L 304.495822 -141.508885 
L 306.050139 -141.508885 
L 307.604457 -141.508885 
L 309.158774 -141.508885 
L 310.713092 -141.508885 
L 312.267409 -141.508885 
L 313.821727 -141.508885 
L 315.376045 -141.508885 
L 316.930362 -141.508885 
L 318.48468 -141.508885 
L 320.038997 -141.508885 
L 321.593315 -141.508885 
L 323.147632 -141.508885 
L 324.70195 -141.508885 
L 326.256267 -141.508885 
L 327.810585 -141.508885 
L 329.364903 -141.508885 
L 330.91922 -141.508885 
L 332.473538 -141.508885 
L 334.027855 -141.508885 
L 335.582173 -141.508885 
L 337.13649 -141.508885 
L 338.690808 -141.508885 
L 340.245125 -141.508885 
L 341.799443 -141.508885 
L 343.35376 -141.508885 
L 344.908078 -141.508885 
L 346.462396 -141.508885 
L 348.016713 -141.508885 
L 349.571031 -141.508885 
L 351.125348 -141.508885 
L 352.679666 -141.508885 
L 354.233983 -141.508885 
L 355.788301 -141.508885 
L 357.342618 -141.508885 
L 358.896936 -141.508885 
L 360.451253 -141.508885 
L 362.005571 -141.508885 
L 363.559889 -141.508885 
L 365.114206 -141.508885 
L 366.668524 -141.508885 
L 368.222841 -141.508885 
L 369.777159 -141.508885 
L 371.331476 -141.508885 
L 372.885794 -141.508885 
L 374.440111 -141.508885 
L 375.994429 -141.508885 
L 377.548747 -141.508885 
L 379.103064 -141.508885 
L 380.657382 -141.508885 
L 382.211699 -141.508885 
L 383.766017 -141.508885 
L 385.320334 -141.508885 
L 386.874652 -141.508885 
L 388.428969 -141.508885 
L 389.983287 -141.508885 
L 391.537604 -141.508885 
L 393.091922 -141.508885 
L 394.64624 -141.508885 
L 396.200557 -141.508885 
L 397.754875 -141.508885 
L 399.309192 -141.508885 
L 400.86351 -141.508885 
L 402.417827 -141.508885 
L 403.972145 -141.508885 
L 405.526462 -141.508885 
L 407.08078 -141.508885 
L 408.635097 -141.508885 
L 410.189415 -141.508885 
L 411.743733 -141.508885 
L 413.29805 -141.508885 
L 414.852368 -141.508885 
L 416.406685 -141.508885 
L 417.961003 -141.508885 
L 419.51532 -141.508885 
L 421.069638 -141.508885 
L 422.623955 -141.508885 
L 424.178273 -141.508885 
L 425.732591 -141.508885 
L 427.286908 -141.508885 
L 428.841226 -141.508885 
L 430.395543 -141.508885 
L 431.949861 -141.508885 
L 433.504178 -141.508885 
L 435.058496 -141.508885 
L 436.612813 -141.508885 
L 438.167131 -141.508885 
L 439.721448 -141.508885 
L 441.275766 -141.508885 
L 442.830084 -141.508885 
L 444.384401 -141.508885 
L 445.938719 -141.508885 
L 447.493036 -141.508885 
L 449.047354 -141.508885 
L 450.601671 -141.508885 
L 452.155989 -141.508885 
L 453.710306 -141.508885 
L 455.264624 -141.508885 
L 456.818942 -141.508885 
L 458.373259 -141.508885 
L 459.927577 -141.508885 
L 461.481894 -141.508885 
L 463.036212 -141.508885 
L 464.590529 -141.508885 
L 466.144847 -141.508885 
L 467.699164 -141.508885 
L 469.253482 -141.508885 
L 470.807799 -141.508885 
L 472.362117 -141.508885 
L 473.916435 -141.508885 
L 475.470752 -141.508885 
L 477.02507 -141.508885 
L 478.579387 -141.508885 
L 480.133705 -141.508885 
L 481.688022 -141.508885 
L 483.24234 -141.508885 
L 484.796657 -141.508885 
L 486.350975 -141.508885 
L 487.905292 -141.508885 
L 489.45961 -141.508885 
L 491.013928 -141.508885 
L 492.568245 -141.508885 
L 494.122563 -141.508885 
L 495.67688 -141.508885 
L 497.231198 -141.508885 
L 498.785515 -141.508885 
L 500.339833 -141.508885 
L 501.89415 -141.508885 
L 503.448468 -141.508885 
L 505.002786 -141.508885 
L 506.557103 -141.508885 
L 508.111421 -141.508885 
L 509.665738 -141.508885 
L 511.220056 -141.508885 
L 512.774373 -141.508885 
L 514.328691 -141.508885 
L 515.883008 -141.508885 
L 517.437326 -141.508885 
L 518.991643 -141.508885 
L 520.545961 -141.508885 
L 522.100279 -141.508885 
L 523.654596 -141.508885 
L 525.208914 -141.508885 
L 526.763231 -141.508885 
L 528.317549 -141.508885 
L 529.871866 -141.508885 
L 531.426184 -141.508885 
L 532.980501 -141.508885 
L 534.534819 -141.508885 
L 536.089136 -141.508885 
L 537.643454 -141.508885 
L 539.197772 -141.508885 
L 540.752089 -141.508885 
L 542.306407 -141.508885 
L 543.860724 -141.508885 
L 545.415042 -141.508885 
L 546.969359 -141.508885 
L 548.523677 -141.508885 
L 550.077994 -141.508885 
L 551.632312 -141.508885 
L 553.18663 -141.508885 
L 554.740947 -141.508885 
L 556.295265 -141.508885 
L 557.849582 -141.508885 
L 559.4039 -141.508885 
L 560.958217 -141.508885 
L 562.512535 -141.508885 
L 564.066852 -141.508885 
L 565.62117 -141.508885 
L 567.175487 -141.508885 
L 568.729805 -141.508885 
L 570.284123 -141.508885 
L 571.83844 -141.508885 
L 573.392758 -141.508885 
L 574.947075 -141.508885 
L 576.501393 -141.508885 
L 578.05571 -141.508885 
L 579.610028 -141.508885 
L 581.164345 -141.508885 
L 582.718663 -141.508885 
L 584.272981 -141.508885 
L 585.827298 -141.508885 
L 587.381616 -141.508885 
L 588.935933 -141.508885 
L 590.490251 -141.508885 
L 592.044568 -141.508885 
L 593.598886 -141.508885 
L 595.153203 -141.508885 
L 596.707521 -141.508885 
L 598.261838 -141.508885 
L 599.816156 -141.508885 
L 601.370474 -141.508885 
L 602.924791 -141.508885 
L 604.479109 -141.508885 
L 606.033426 -141.508885 
L 607.587744 -141.508885 
L 609.142061 -141.508885 
L 610.696379 -141.508885 
L 612.250696 -141.508885 
L 613.805014 -141.508885 
L 615.359331 -141.508885 
L 616.913649 -141.508885 
L 618.467967 -141.508885 
L 620.022284 -141.508885 
L 621.576602 -141.508885 
L 623.130919 -141.508885 
L 624.685237 -141.508885 
L 626.239554 -141.508885 
L 627.793872 -141.508885 
L 629.348189 -141.508885 
L 630.902507 -141.508885 
L 632.456825 -141.508885 
L 634.011142 -141.508885 
L 635.56546 -141.508885 
L 637.119777 -141.508885 
L 638.674095 -141.508885 
L 640.228412 -141.508885 
L 641.78273 -141.508885 
L 643.337047 -141.508885 
L 644.891365 -141.508885 
L 646.445682 -141.508885 
L 648 -141.508885 
L 648 -141.508885 
L 648 -141.508885 
L 646.445682 -148.344453 
L 644.891365 -155.890578 
L 643.337047 -161.356098 
L 641.78273 -167.495644 
L 640.228412 -173.762778 
L 638.674095 -183.671786 
L 637.119777 -188.710078 
L 635.56546 -192.214349 
L 634.011142 -197.644216 
L 632.456825 -206.341843 
L 630.902507 -213.224409 
L 629.348189 -215.533282 
L 627.793872 -221.529458 
L 626.239554 -223.403091 
L 624.685237 -228.295265 
L 623.130919 -237.200939 
L 621.576602 -233.785224 
L 620.022284 -236.801392 
L 618.467967 -240.10822 
L 616.913649 -248.138839 
L 615.359331 -243.28567 
L 613.805014 -252.188585 
L 612.250696 -252.322759 
L 610.696379 -256.657791 
L 609.142061 -250.382701 
L 607.587744 -252.917323 
L 606.033426 -259.2 
L 604.479109 -258.263143 
L 602.924791 -254.470224 
L 601.370474 -252.936179 
L 599.816156 -251.542876 
L 598.261838 -245.060979 
L 596.707521 -242.268596 
L 595.153203 -247.516265 
L 593.598886 -246.089934 
L 592.044568 -236.045325 
L 590.490251 -231.573846 
L 588.935933 -233.720468 
L 587.381616 -230.07319 
L 585.827298 -224.014417 
L 584.272981 -220.709675 
L 582.718663 -216.205483 
L 581.164345 -213.618163 
L 579.610028 -207.913126 
L 578.05571 -203.158601 
L 576.501393 -196.688298 
L 574.947075 -190.844049 
L 573.392758 -184.723383 
L 571.83844 -176.55018 
L 570.284123 -172.380621 
L 568.729805 -165.669582 
L 567.175487 -159.96152 
L 565.62117 -154.775394 
L 564.066852 -148.665606 
L 562.512535 -142.854094 
L 560.958217 -137.145364 
L 559.4039 -131.413604 
L 557.849582 -124.902516 
L 556.295265 -119.497899 
L 554.740947 -115.45194 
L 553.18663 -109.141811 
L 551.632312 -104.052363 
L 550.077994 -97.366064 
L 548.523677 -92.242845 
L 546.969359 -91.232721 
L 545.415042 -81.932745 
L 543.860724 -81.807022 
L 542.306407 -74.673165 
L 540.752089 -74.781377 
L 539.197772 -64.886083 
L 537.643454 -64.611437 
L 536.089136 -62.2644 
L 534.534819 -61.807298 
L 532.980501 -56.23704 
L 531.426184 -53.103081 
L 529.871866 -52.177118 
L 528.317549 -51.02723 
L 526.763231 -51.297826 
L 525.208914 -50.957261 
L 523.654596 -43.2 
L 522.100279 -46.662197 
L 520.545961 -50.000178 
L 518.991643 -51.756718 
L 517.437326 -50.312313 
L 515.883008 -47.275667 
L 514.328691 -45.647389 
L 512.774373 -54.1581 
L 511.220056 -51.823223 
L 509.665738 -56.231549 
L 508.111421 -61.499765 
L 506.557103 -57.381311 
L 505.002786 -64.549732 
L 503.448468 -62.790969 
L 501.89415 -65.583561 
L 500.339833 -72.219082 
L 498.785515 -78.694798 
L 497.231198 -77.492421 
L 495.67688 -83.91086 
L 494.122563 -88.889639 
L 492.568245 -93.131926 
L 491.013928 -96.04298 
L 489.45961 -99.307478 
L 487.905292 -104.564137 
L 486.350975 -109.499633 
L 484.796657 -114.967027 
L 483.24234 -120.64269 
L 481.688022 -124.264064 
L 480.133705 -129.843407 
L 478.579387 -134.240022 
L 477.02507 -139.347103 
L 475.470752 -144.024832 
L 473.916435 -148.920372 
L 472.362117 -153.976655 
L 470.807799 -158.755809 
L 469.253482 -162.493933 
L 467.699164 -167.894139 
L 466.144847 -170.640293 
L 464.590529 -176.289691 
L 463.036212 -180.029174 
L 461.481894 -184.983405 
L 459.927577 -186.799807 
L 458.373259 -188.490006 
L 456.818942 -196.157027 
L 455.264624 -195.027214 
L 453.710306 -199.003366 
L 452.155989 -200.905658 
L 450.601671 -204.106592 
L 449.047354 -210.781997 
L 447.493036 -206.667705 
L 445.938719 -210.612254 
L 444.384401 -213.198035 
L 442.830084 -215.064801 
L 441.275766 -218.28574 
L 439.721448 -213.692614 
L 438.167131 -217.043516 
L 436.612813 -214.199257 
L 435.058496 -218.794856 
L 433.504178 -219.187314 
L 431.949861 -219.11301 
L 430.395543 -213.692177 
L 428.841226 -218.222788 
L 427.286908 -215.396177 
L 425.732591 -211.672667 
L 424.178273 -209.50088 
L 422.623955 -209.92874 
L 421.069638 -204.997966 
L 419.51532 -207.646386 
L 417.961003 -204.494381 
L 416.406685 -199.000918 
L 414.852368 -195.231102 
L 413.29805 -193.518605 
L 411.743733 -188.649727 
L 410.189415 -188.174649 
L 408.635097 -185.885363 
L 407.08078 -180.377268 
L 405.526462 -178.438124 
L 403.972145 -173.297724 
L 402.417827 -171.690401 
L 400.86351 -168.00204 
L 399.309192 -163.791235 
L 397.754875 -159.720632 
L 396.200557 -154.940044 
L 394.64624 -151.887074 
L 393.091922 -147.846549 
L 391.537604 -144.116881 
L 389.983287 -140.389297 
L 388.428969 -136.629577 
L 386.874652 -133.096532 
L 385.320334 -129.777972 
L 383.766017 -125.779221 
L 382.211699 -122.845259 
L 380.657382 -119.081818 
L 379.103064 -116.574763 
L 377.548747 -113.882093 
L 375.994429 -109.377293 
L 374.440111 -107.388432 
L 372.885794 -103.39522 
L 371.331476 -101.899131 
L 369.777159 -98.19625 
L 368.222841 -97.649797 
L 366.668524 -96.979354 
L 365.114206 -90.939915 
L 363.559889 -93.513953 
L 362.005571 -88.272351 
L 360.451253 -86.449216 
L 358.896936 -88.34607 
L 357.342618 -88.644486 
L 355.788301 -83.880998 
L 354.233983 -88.001337 
L 352.679666 -87.331165 
L 351.125348 -83.92632 
L 349.571031 -83.654819 
L 348.016713 -83.204707 
L 346.462396 -88.008894 
L 344.908078 -87.333666 
L 343.35376 -88.400878 
L 341.799443 -90.070824 
L 340.245125 -90.370257 
L 338.690808 -88.932873 
L 337.13649 -92.062222 
L 335.582173 -92.603389 
L 334.027855 -95.090552 
L 332.473538 -97.295114 
L 330.91922 -100.268593 
L 329.364903 -99.428299 
L 327.810585 -102.563471 
L 326.256267 -105.252439 
L 324.70195 -108.527757 
L 323.147632 -108.611965 
L 321.593315 -112.659941 
L 320.038997 -115.04931 
L 318.48468 -117.563292 
L 316.930362 -119.046533 
L 315.376045 -122.337232 
L 313.821727 -126.034977 
L 312.267409 -127.810806 
L 310.713092 -130.382739 
L 309.158774 -133.698572 
L 307.604457 -136.206232 
L 306.050139 -139.124197 
L 304.495822 -141.708454 
L 302.941504 -144.483705 
L 301.387187 -147.221897 
L 299.832869 -149.858123 
L 298.278552 -152.358786 
L 296.724234 -153.825971 
L 295.169916 -156.524133 
L 293.615599 -159.73782 
L 292.061281 -160.616161 
L 290.506964 -162.770208 
L 288.952646 -165.700996 
L 287.398329 -166.724725 
L 285.844011 -168.58953 
L 284.289694 -169.921207 
L 282.735376 -172.478074 
L 281.181058 -174.194324 
L 279.626741 -173.817638 
L 278.072423 -174.578182 
L 276.518106 -176.823035 
L 274.963788 -177.641621 
L 273.409471 -176.758202 
L 271.855153 -178.746276 
L 270.300836 -180.078643 
L 268.746518 -178.650835 
L 267.192201 -179.449422 
L 265.637883 -181.359139 
L 264.083565 -179.381706 
L 262.529248 -178.131056 
L 260.97493 -180.017916 
L 259.420613 -178.432034 
L 257.866295 -176.464797 
L 256.311978 -177.066153 
L 254.75766 -175.383365 
L 253.203343 -176.369224 
L 251.649025 -175.496025 
L 250.094708 -173.347358 
L 248.54039 -171.672768 
L 246.986072 -169.569617 
L 245.431755 -169.582425 
L 243.877437 -168.499764 
L 242.32312 -167.176925 
L 240.768802 -164.354966 
L 239.214485 -163.807941 
L 237.660167 -161.898688 
L 236.10585 -159.799625 
L 234.551532 -158.268764 
L 232.997214 -157.780524 
L 231.442897 -155.065675 
L 229.888579 -153.04211 
L 228.334262 -151.995349 
L 226.779944 -150.461111 
L 225.225627 -148.635101 
L 223.671309 -146.677938 
L 222.116992 -145.035269 
L 220.562674 -143.45622 
L 219.008357 -141.755771 
L 217.454039 -140.214832 
L 215.899721 -138.591798 
L 214.345404 -137.307014 
L 212.791086 -135.943089 
L 211.236769 -134.03199 
L 209.682451 -132.748823 
L 208.128134 -131.605838 
L 206.573816 -130.20718 
L 205.019499 -128.761491 
L 203.465181 -128.883676 
L 201.910864 -126.956687 
L 200.356546 -126.841709 
L 198.802228 -125.790651 
L 197.247911 -125.049522 
L 195.693593 -123.431121 
L 194.139276 -123.076245 
L 192.584958 -122.481203 
L 191.030641 -122.381276 
L 189.476323 -122.685613 
L 187.922006 -122.788013 
L 186.367688 -121.391188 
L 184.81337 -121.988136 
L 183.259053 -122.1281 
L 181.704735 -122.078839 
L 180.150418 -121.117523 
L 178.5961 -121.334105 
L 177.041783 -121.572038 
L 175.487465 -121.920242 
L 173.933148 -122.665912 
L 172.37883 -124.110039 
L 170.824513 -124.502575 
L 169.270195 -124.130142 
L 167.715877 -124.956693 
L 166.16156 -125.513901 
L 164.607242 -126.886564 
L 163.052925 -126.704258 
L 161.498607 -127.923946 
L 159.94429 -129.310019 
L 158.389972 -129.316968 
L 156.835655 -130.532833 
L 155.281337 -131.44273 
L 153.727019 -131.565258 
L 152.172702 -132.631556 
L 150.618384 -133.263556 
L 149.064067 -134.648597 
L 147.509749 -135.082877 
L 145.955432 -135.830333 
L 144.401114 -136.473782 
L 142.846797 -137.229934 
L 141.292479 -138.064462 
L 139.738162 -138.791781 
L 138.183844 -139.401548 
L 136.629526 -140.106961 
L 135.075209 -140.749987 
L 133.520891 -141.310465 
L 131.966574 -141.828219 
L 130.412256 -142.296368 
L 128.857939 -142.817134 
L 127.303621 -143.174551 
L 125.749304 -143.496711 
L 124.194986 -143.912309 
L 122.640669 -144.155077 
L 121.086351 -144.471101 
L 119.532033 -144.425035 
L 117.977716 -144.764609 
L 116.423398 -144.824924 
L 114.869081 -144.817925 
L 113.314763 -144.948186 
L 111.760446 -144.893294 
L 110.206128 -144.870645 
L 108.651811 -144.767722 
L 107.097493 -144.598114 
L 105.543175 -144.261633 
L 103.988858 -144.153311 
L 102.43454 -143.929857 
L 100.880223 -143.705433 
L 99.325905 -143.415418 
L 97.771588 -143.093885 
L 96.21727 -142.79599 
L 94.662953 -142.505142 
L 93.108635 -142.206148 
L 91.554318 -141.855289 
L 90 -141.508885 
z
" id="m689d61e94d" style="stroke:#bfd3ff;stroke-opacity:0.6;"/>
    </defs>
    <g clip-path="url(#p9263058025)">
     <use style="fill:#bfd3ff;fill-opacity:0.6;stroke:#bfd3ff;stroke-opacity:0.6;" x="0.0" xlink:href="#m689d61e94d" y="288.0"/>
    </g>
   </g>
   <g id="line2d_1">
    <path clip-path="url(#p9263058025)" d="M 90 146.491115 
L 96.21727 145.20401 
L 102.43454 144.070143 
L 103.988858 143.846689 
L 105.543175 143.738367 
L 107.097493 143.401886 
L 110.206128 143.129355 
L 113.314763 143.051814 
L 114.869081 143.182075 
L 117.977716 143.235391 
L 119.532033 143.574965 
L 121.086351 143.528899 
L 128.857939 145.182866 
L 136.629526 147.893039 
L 147.509749 152.917123 
L 149.064067 153.351403 
L 150.618384 154.736444 
L 152.172702 155.368444 
L 153.727019 156.434742 
L 155.281337 156.55727 
L 156.835655 157.467167 
L 158.389972 158.683032 
L 159.94429 158.689981 
L 161.498607 160.076054 
L 163.052925 161.295742 
L 164.607242 161.113436 
L 166.16156 162.486099 
L 167.715877 163.043307 
L 169.270195 163.869858 
L 170.824513 163.497425 
L 172.37883 163.889961 
L 173.933148 165.334088 
L 175.487465 166.079758 
L 178.5961 166.665895 
L 180.150418 166.882477 
L 181.704735 165.921161 
L 183.259053 165.8719 
L 184.81337 166.011864 
L 186.367688 166.608812 
L 187.922006 165.211987 
L 189.476323 165.314387 
L 191.030641 165.618724 
L 192.584958 165.518797 
L 194.139276 164.923755 
L 195.693593 164.568879 
L 197.247911 162.950478 
L 198.802228 162.209349 
L 200.356546 161.158291 
L 201.910864 161.043313 
L 203.465181 159.116324 
L 205.019499 159.238509 
L 208.128134 156.394162 
L 209.682451 155.251177 
L 211.236769 153.96801 
L 212.791086 152.056911 
L 215.899721 149.408202 
L 223.671309 141.322062 
L 226.779944 137.538889 
L 228.334262 136.004651 
L 229.888579 134.95789 
L 231.442897 132.934325 
L 232.997214 130.219476 
L 234.551532 129.731236 
L 236.10585 128.200375 
L 237.660167 126.101312 
L 239.214485 124.192059 
L 240.768802 123.645034 
L 242.32312 120.823075 
L 243.877437 119.500236 
L 245.431755 118.417575 
L 246.986072 118.430383 
L 248.54039 116.327232 
L 250.094708 114.652642 
L 251.649025 112.503975 
L 253.203343 111.630776 
L 254.75766 112.616635 
L 256.311978 110.933847 
L 257.866295 111.535203 
L 259.420613 109.567966 
L 260.97493 107.982084 
L 262.529248 109.868944 
L 264.083565 108.618294 
L 265.637883 106.640861 
L 267.192201 108.550578 
L 268.746518 109.349165 
L 270.300836 107.921357 
L 271.855153 109.253724 
L 273.409471 111.241798 
L 274.963788 110.358379 
L 276.518106 111.176965 
L 278.072423 113.421818 
L 279.626741 114.182362 
L 281.181058 113.805676 
L 282.735376 115.521926 
L 284.289694 118.078793 
L 285.844011 119.41047 
L 287.398329 121.275275 
L 288.952646 122.299004 
L 290.506964 125.229792 
L 292.061281 127.383839 
L 293.615599 128.26218 
L 295.169916 131.475867 
L 296.724234 134.174029 
L 298.278552 135.641214 
L 301.387187 140.778103 
L 309.158774 154.301428 
L 310.713092 157.617261 
L 312.267409 160.189194 
L 313.821727 161.965023 
L 315.376045 165.662768 
L 316.930362 168.953467 
L 318.48468 170.436708 
L 321.593315 175.340059 
L 323.147632 179.388035 
L 324.70195 179.472243 
L 326.256267 182.747561 
L 327.810585 185.436529 
L 329.364903 188.571701 
L 330.91922 187.731407 
L 332.473538 190.704886 
L 334.027855 192.909448 
L 335.582173 195.396611 
L 337.13649 195.937778 
L 338.690808 199.067127 
L 340.245125 197.629743 
L 341.799443 197.929176 
L 343.35376 199.599122 
L 344.908078 200.666334 
L 346.462396 199.991106 
L 348.016713 204.795293 
L 349.571031 204.345181 
L 351.125348 204.07368 
L 352.679666 200.668835 
L 354.233983 199.998663 
L 355.788301 204.119002 
L 357.342618 199.355514 
L 358.896936 199.65393 
L 360.451253 201.550784 
L 362.005571 199.727649 
L 363.559889 194.486047 
L 365.114206 197.060085 
L 366.668524 191.020646 
L 368.222841 190.350203 
L 369.777159 189.80375 
L 371.331476 186.100869 
L 372.885794 184.60478 
L 374.440111 180.611568 
L 375.994429 178.622707 
L 377.548747 174.117907 
L 380.657382 168.918182 
L 382.211699 165.154741 
L 383.766017 162.220779 
L 385.320334 158.222028 
L 388.428969 151.370423 
L 394.64624 136.112926 
L 396.200557 133.059956 
L 397.754875 128.279368 
L 402.417827 116.309599 
L 403.972145 114.702276 
L 405.526462 109.561876 
L 407.08078 107.622732 
L 408.635097 102.114637 
L 410.189415 99.825351 
L 411.743733 99.350273 
L 413.29805 94.481395 
L 414.852368 92.768898 
L 416.406685 88.999082 
L 417.961003 83.505619 
L 419.51532 80.353614 
L 421.069638 83.002034 
L 422.623955 78.07126 
L 424.178273 78.49912 
L 425.732591 76.327333 
L 427.286908 72.603823 
L 428.841226 69.777212 
L 430.395543 74.307823 
L 431.949861 68.88699 
L 433.504178 68.812686 
L 435.058496 69.205144 
L 436.612813 73.800743 
L 438.167131 70.956484 
L 439.721448 74.307386 
L 441.275766 69.71426 
L 442.830084 72.935199 
L 444.384401 74.801965 
L 445.938719 77.387746 
L 447.493036 81.332295 
L 449.047354 77.218003 
L 450.601671 83.893408 
L 452.155989 87.094342 
L 453.710306 88.996634 
L 455.264624 92.972786 
L 456.818942 91.842973 
L 458.373259 99.509994 
L 461.481894 103.016595 
L 463.036212 107.970826 
L 464.590529 111.710309 
L 466.144847 117.359707 
L 467.699164 120.105861 
L 469.253482 125.506067 
L 470.807799 129.244191 
L 473.916435 139.079628 
L 478.579387 153.759978 
L 480.133705 158.156593 
L 481.688022 163.735936 
L 483.24234 167.35731 
L 486.350975 178.500367 
L 489.45961 188.692522 
L 491.013928 191.95702 
L 492.568245 194.868074 
L 494.122563 199.110361 
L 495.67688 204.08914 
L 497.231198 210.507579 
L 498.785515 209.305202 
L 501.89415 222.416439 
L 503.448468 225.209031 
L 505.002786 223.450268 
L 506.557103 230.618689 
L 508.111421 226.500235 
L 509.665738 231.768451 
L 511.220056 236.176777 
L 512.774373 233.8419 
L 514.328691 242.352611 
L 515.883008 240.724333 
L 517.437326 237.687687 
L 518.991643 236.243282 
L 520.545961 237.999822 
L 523.654596 244.8 
L 525.208914 237.042739 
L 526.763231 236.702174 
L 528.317549 236.97277 
L 529.871866 235.822882 
L 531.426184 234.896919 
L 532.980501 231.76296 
L 534.534819 226.192702 
L 536.089136 225.7356 
L 537.643454 223.388563 
L 539.197772 223.113917 
L 540.752089 213.218623 
L 542.306407 213.326835 
L 543.860724 206.192978 
L 545.415042 206.067255 
L 546.969359 196.767279 
L 548.523677 195.757155 
L 550.077994 190.633936 
L 551.632312 183.947637 
L 553.18663 178.858189 
L 554.740947 172.54806 
L 556.295265 168.502101 
L 557.849582 163.097484 
L 559.4039 156.586396 
L 564.066852 139.334394 
L 565.62117 133.224606 
L 567.175487 128.03848 
L 568.729805 122.330418 
L 570.284123 115.619379 
L 571.83844 111.44982 
L 573.392758 103.276617 
L 578.05571 84.841399 
L 579.610028 80.086874 
L 581.164345 74.381837 
L 582.718663 71.794517 
L 584.272981 67.290325 
L 585.827298 63.985583 
L 587.381616 57.92681 
L 588.935933 54.279532 
L 590.490251 56.426154 
L 592.044568 51.954675 
L 593.598886 41.910066 
L 595.153203 40.483735 
L 596.707521 45.731404 
L 598.261838 42.939021 
L 599.816156 36.457124 
L 602.924791 33.529776 
L 604.479109 29.736857 
L 606.033426 28.8 
L 607.587744 35.082677 
L 609.142061 37.617299 
L 610.696379 31.342209 
L 612.250696 35.677241 
L 613.805014 35.811415 
L 615.359331 44.71433 
L 616.913649 39.861161 
L 618.467967 47.89178 
L 620.022284 51.198608 
L 621.576602 54.214776 
L 623.130919 50.799061 
L 624.685237 59.704735 
L 626.239554 64.596909 
L 627.793872 66.470542 
L 629.348189 72.466718 
L 630.902507 74.775591 
L 632.456825 81.658157 
L 634.011142 90.355784 
L 635.56546 95.785651 
L 637.119777 99.289922 
L 638.674095 104.328214 
L 640.228412 114.237222 
L 643.337047 126.643902 
L 644.891365 132.109422 
L 646.445682 139.655547 
L 648 146.491115 
L 648 146.491115 
" style="fill:none;stroke:#5b6fbd;stroke-linecap:square;"/>
   </g>
   <g id="line2d_2">
    <path clip-path="url(#p9263058025)" d="M 90 146.491115 
L 99.325905 147.444381 
L 103.988858 147.813327 
L 105.543175 147.867488 
L 108.651811 148.120533 
L 113.314763 148.210765 
L 124.194986 147.692826 
L 133.520891 146.391904 
L 136.629526 145.790152 
L 149.064067 143.06097 
L 150.618384 142.36845 
L 152.172702 142.05245 
L 153.727019 141.519301 
L 155.281337 141.458037 
L 156.835655 141.003088 
L 158.389972 140.395156 
L 159.94429 140.391681 
L 163.052925 139.088801 
L 164.607242 139.179954 
L 166.16156 138.493622 
L 167.715877 138.215018 
L 169.270195 137.801743 
L 170.824513 137.987959 
L 172.37883 137.791691 
L 173.933148 137.069628 
L 175.487465 136.696793 
L 178.5961 136.403724 
L 180.150418 136.295433 
L 181.704735 136.776091 
L 184.81337 136.73074 
L 186.367688 136.432266 
L 187.922006 137.130679 
L 192.584958 136.977273 
L 194.139276 137.274794 
L 195.693593 137.452232 
L 197.247911 138.261433 
L 198.802228 138.631997 
L 200.356546 139.157526 
L 201.910864 139.215015 
L 203.465181 140.17851 
L 205.019499 140.117417 
L 208.128134 141.539591 
L 211.236769 142.752667 
L 212.791086 143.708216 
L 217.454039 145.844088 
L 222.116992 148.254306 
L 223.671309 149.075641 
L 226.779944 150.967227 
L 228.334262 151.734346 
L 229.888579 152.257727 
L 231.442897 153.269509 
L 232.997214 154.626934 
L 234.551532 154.871054 
L 236.10585 155.636484 
L 239.214485 157.640642 
L 240.768802 157.914155 
L 242.32312 159.325134 
L 245.431755 160.527884 
L 246.986072 160.52148 
L 248.54039 161.573056 
L 250.094708 162.410351 
L 251.649025 163.484684 
L 253.203343 163.921284 
L 254.75766 163.428354 
L 256.311978 164.269748 
L 257.866295 163.96907 
L 259.420613 164.952689 
L 260.97493 165.74563 
L 262.529248 164.8022 
L 264.083565 165.427525 
L 265.637883 166.416241 
L 267.192201 165.461383 
L 268.746518 165.062089 
L 270.300836 165.775993 
L 271.855153 165.10981 
L 273.409471 164.115773 
L 274.963788 164.557482 
L 276.518106 164.148189 
L 278.072423 163.025763 
L 279.626741 162.645491 
L 281.181058 162.833834 
L 282.735376 161.975709 
L 284.289694 160.697275 
L 285.844011 160.031437 
L 287.398329 159.099034 
L 288.952646 158.58717 
L 290.506964 157.121776 
L 292.061281 156.044752 
L 293.615599 155.605582 
L 295.169916 153.998738 
L 296.724234 152.649657 
L 298.278552 151.916065 
L 301.387187 149.34762 
L 309.158774 142.585958 
L 310.713092 140.928041 
L 312.267409 139.642075 
L 313.821727 138.75416 
L 315.376045 136.905288 
L 316.930362 135.259938 
L 318.48468 134.518318 
L 321.593315 132.066642 
L 323.147632 130.042654 
L 324.70195 130.00055 
L 326.256267 128.362891 
L 327.810585 127.018407 
L 329.364903 125.450821 
L 330.91922 125.870968 
L 332.473538 124.384229 
L 334.027855 123.281948 
L 335.582173 122.038366 
L 337.13649 121.767783 
L 338.690808 120.203108 
L 340.245125 120.9218 
L 341.799443 120.772084 
L 343.35376 119.937111 
L 344.908078 119.403505 
L 346.462396 119.741119 
L 348.016713 117.339025 
L 351.125348 117.699832 
L 352.679666 119.402254 
L 354.233983 119.73734 
L 355.788301 117.677171 
L 357.342618 120.058915 
L 358.896936 119.909707 
L 360.451253 118.96128 
L 362.005571 119.872847 
L 363.559889 122.493648 
L 365.114206 121.206629 
L 366.668524 124.226349 
L 369.777159 124.834797 
L 371.331476 126.686237 
L 372.885794 127.434282 
L 374.440111 129.430888 
L 375.994429 130.425318 
L 377.548747 132.677718 
L 380.657382 135.277581 
L 382.211699 137.159301 
L 383.766017 138.626282 
L 385.320334 140.625658 
L 388.428969 144.05146 
L 394.64624 151.680209 
L 396.200557 153.206694 
L 397.754875 155.596988 
L 402.417827 161.581872 
L 403.972145 162.385534 
L 405.526462 164.955734 
L 407.08078 165.925306 
L 408.635097 168.679353 
L 410.189415 169.823997 
L 411.743733 170.061535 
L 413.29805 172.495974 
L 414.852368 173.352223 
L 416.406685 175.237131 
L 417.961003 177.983862 
L 419.51532 179.559865 
L 421.069638 178.235655 
L 422.623955 180.701042 
L 424.178273 180.487112 
L 425.732591 181.573005 
L 427.286908 183.43476 
L 428.841226 184.848066 
L 430.395543 182.58276 
L 431.949861 185.293177 
L 433.504178 185.330329 
L 435.058496 185.1341 
L 436.612813 182.8363 
L 438.167131 184.25843 
L 439.721448 182.582979 
L 441.275766 184.879542 
L 442.830084 183.269072 
L 444.384401 182.335689 
L 445.938719 181.042799 
L 447.493036 179.070524 
L 449.047354 181.12767 
L 450.601671 177.789968 
L 452.155989 176.189501 
L 453.710306 175.238355 
L 455.264624 173.250279 
L 456.818942 173.815185 
L 458.373259 169.981675 
L 461.481894 168.228374 
L 463.036212 165.751259 
L 464.590529 163.881517 
L 466.144847 161.056818 
L 467.699164 159.683741 
L 469.253482 156.983638 
L 470.807799 155.114576 
L 477.02507 145.410223 
L 478.579387 142.856683 
L 480.133705 140.658375 
L 481.688022 137.868704 
L 483.24234 136.058017 
L 486.350975 130.486488 
L 489.45961 125.390411 
L 491.013928 123.758162 
L 492.568245 122.302635 
L 494.122563 120.181491 
L 495.67688 117.692102 
L 497.231198 114.482882 
L 498.785515 115.084071 
L 501.89415 108.528452 
L 503.448468 107.132156 
L 505.002786 108.011538 
L 506.557103 104.427327 
L 508.111421 106.486554 
L 509.665738 103.852446 
L 511.220056 101.648283 
L 512.774373 102.815722 
L 514.328691 98.560366 
L 515.883008 99.374505 
L 517.437326 100.892828 
L 518.991643 101.615031 
L 520.545961 100.736761 
L 523.654596 97.336672 
L 525.208914 101.215302 
L 526.763231 101.385585 
L 528.317549 101.250287 
L 531.426184 102.288212 
L 532.980501 103.855192 
L 534.534819 106.640321 
L 536.089136 106.868872 
L 537.643454 108.04239 
L 539.197772 108.179713 
L 540.752089 113.12736 
L 542.306407 113.073254 
L 543.860724 116.640183 
L 545.415042 116.703044 
L 546.969359 121.353032 
L 548.523677 121.858094 
L 550.077994 124.419704 
L 551.632312 127.762853 
L 553.18663 130.307577 
L 554.740947 133.462642 
L 556.295265 135.485621 
L 557.849582 138.18793 
L 559.4039 141.443474 
L 568.729805 158.571463 
L 570.284123 161.926982 
L 571.83844 164.011762 
L 573.392758 168.098363 
L 578.05571 177.315972 
L 579.610028 179.693235 
L 581.164345 182.545753 
L 582.718663 183.839413 
L 584.272981 186.091509 
L 585.827298 187.74388 
L 587.381616 190.773267 
L 588.935933 192.596906 
L 590.490251 191.523595 
L 592.044568 193.759334 
L 593.598886 198.781639 
L 595.153203 199.494804 
L 596.707521 196.87097 
L 598.261838 198.267161 
L 599.816156 201.50811 
L 602.924791 202.971784 
L 604.479109 204.868243 
L 606.033426 205.336672 
L 607.587744 202.195334 
L 609.142061 200.928022 
L 610.696379 204.065567 
L 612.250696 201.898051 
L 613.805014 201.830964 
L 615.359331 197.379507 
L 616.913649 199.806091 
L 618.467967 195.790782 
L 621.576602 192.629284 
L 623.130919 194.337141 
L 624.685237 189.884304 
L 626.239554 187.438217 
L 627.793872 186.501401 
L 629.348189 183.503313 
L 630.902507 182.348876 
L 632.456825 178.907593 
L 634.011142 174.55878 
L 635.56546 171.843846 
L 637.119777 170.091711 
L 638.674095 167.572565 
L 640.228412 162.618061 
L 643.337047 156.414721 
L 644.891365 153.681961 
L 646.445682 149.908898 
L 648 146.491115 
L 648 146.491115 
" style="fill:none;stroke:#38c0ff;stroke-linecap:square;"/>
   </g>
   <g id="line2d_3">
    <path clip-path="url(#p9263058025)" d="M 90 146.491115 
L 97.771588 146.6512 
L 105.543175 147.039719 
L 127.303621 148.375794 
L 133.520891 148.448036 
L 138.183844 148.308934 
L 142.846797 147.968673 
L 147.509749 147.410083 
L 152.172702 146.628466 
L 158.389972 145.22128 
L 161.498607 144.380972 
L 167.715877 142.361202 
L 175.487465 139.421031 
L 189.476323 133.668919 
L 195.693593 131.235525 
L 200.356546 129.708829 
L 203.465181 128.823103 
L 206.573816 128.03933 
L 209.682451 127.431089 
L 212.791086 127.006021 
L 215.899721 126.77401 
L 219.008357 126.739883 
L 222.116992 126.918274 
L 225.225627 127.318983 
L 228.334262 127.9525 
L 231.442897 128.770197 
L 236.10585 130.442817 
L 239.214485 131.834069 
L 242.32312 133.41517 
L 246.986072 136.124263 
L 250.094708 138.144952 
L 257.866295 143.790777 
L 264.083565 148.676983 
L 267.192201 151.212226 
L 276.518106 158.370582 
L 282.735376 162.575826 
L 285.844011 164.384371 
L 288.952646 165.994602 
L 292.061281 167.310236 
L 295.169916 168.393681 
L 298.278552 169.148706 
L 301.387187 169.607002 
L 304.495822 169.710457 
L 307.604457 169.459922 
L 310.713092 168.842773 
L 313.821727 167.892042 
L 316.930362 166.535168 
L 320.038997 164.892437 
L 321.593315 163.952235 
L 326.256267 160.623617 
L 329.364903 157.982937 
L 332.473538 155.197944 
L 335.582173 152.09129 
L 340.245125 147.099682 
L 344.908078 141.926871 
L 348.016713 138.283114 
L 352.679666 132.755293 
L 365.114206 118.936166 
L 369.777159 114.643953 
L 372.885794 112.110905 
L 375.994429 109.951716 
L 379.103064 108.238728 
L 382.211699 106.899561 
L 383.766017 106.386923 
L 386.874652 105.730443 
L 388.428969 105.571424 
L 389.983287 105.534936 
L 391.537604 105.619932 
L 393.091922 105.826479 
L 396.200557 106.602439 
L 397.754875 107.195969 
L 399.309192 107.922163 
L 402.417827 109.76922 
L 403.972145 110.805235 
L 407.08078 113.27552 
L 410.189415 116.242635 
L 411.743733 117.77898 
L 414.852368 121.224839 
L 416.406685 123.098535 
L 421.069638 129.375865 
L 425.732591 136.108274 
L 431.949861 145.898098 
L 436.612813 153.317487 
L 442.830084 163.031131 
L 445.938719 167.619634 
L 452.155989 175.976706 
L 455.264624 179.594672 
L 456.818942 181.375684 
L 459.927577 184.382879 
L 461.481894 185.799737 
L 464.590529 188.188658 
L 467.699164 189.997975 
L 469.253482 190.681889 
L 470.807799 191.243976 
L 472.362117 191.650307 
L 473.916435 191.891851 
L 475.470752 191.973847 
L 477.02507 191.903393 
L 478.579387 191.666497 
L 480.133705 191.286313 
L 483.24234 190.044255 
L 484.796657 189.179242 
L 486.350975 188.136043 
L 487.905292 186.931994 
L 491.013928 184.07487 
L 494.122563 180.78335 
L 495.67688 178.9062 
L 500.339833 172.514534 
L 505.002786 164.966489 
L 512.774373 151.068243 
L 517.437326 141.900811 
L 522.100279 132.902319 
L 525.208914 126.747255 
L 531.426184 115.065822 
L 534.534819 109.689251 
L 539.197772 102.103325 
L 542.306407 97.750429 
L 545.415042 93.863095 
L 548.523677 90.618962 
L 550.077994 89.180324 
L 551.632312 87.959596 
L 553.18663 86.904736 
L 554.740947 86.055527 
L 556.295265 85.338177 
L 557.849582 84.796967 
L 559.4039 84.467956 
L 560.958217 84.325747 
L 562.512535 84.369588 
L 564.066852 84.602829 
L 565.62117 85.035191 
L 567.175487 85.636573 
L 568.729805 86.423982 
L 570.284123 87.430109 
L 571.83844 88.572123 
L 573.392758 89.980506 
L 574.947075 91.588365 
L 576.501393 93.386692 
L 579.610028 97.560038 
L 582.718663 102.344519 
L 585.827298 107.614614 
L 590.490251 116.44146 
L 592.044568 119.522453 
L 599.816156 136.630337 
L 604.479109 147.748364 
L 607.587744 155.21484 
L 612.250696 166.127342 
L 613.805014 169.734452 
L 620.022284 182.845575 
L 624.685237 191.799979 
L 627.793872 197.076867 
L 630.902507 201.826608 
L 632.456825 203.939549 
L 634.011142 205.769029 
L 637.119777 208.959858 
L 638.674095 210.33397 
L 640.228412 211.385141 
L 641.78273 212.232063 
L 643.337047 212.878894 
L 644.891365 213.347601 
L 646.445682 213.570376 
L 648 213.570376 
L 648 213.570376 
" style="fill:none;stroke:#ff0000;stroke-linecap:square;"/>
   </g>
   <g id="line2d_4">
    <path clip-path="url(#p9263058025)" d="M 93.108635 145.414545 
L 94.662953 145.573689 
L 97.771588 145.577061 
L 99.325905 145.50453 
L 103.988858 145.805476 
L 105.543175 146.158742 
L 107.097493 145.458665 
L 108.651811 145.970693 
L 111.760446 146.42162 
L 113.314763 146.322685 
L 114.869081 146.890802 
L 116.423398 146.469641 
L 117.977716 146.676184 
L 119.532033 147.533055 
L 121.086351 146.349768 
L 122.640669 147.460794 
L 124.194986 147.236017 
L 125.749304 147.766326 
L 127.303621 147.479623 
L 128.857939 147.587805 
L 130.412256 148.089018 
L 131.966574 147.927574 
L 136.629526 148.464162 
L 138.183844 148.655587 
L 139.738162 148.362107 
L 142.846797 149.051761 
L 145.955432 148.465459 
L 147.509749 148.78459 
L 149.064067 147.823649 
L 150.618384 150.740942 
L 152.172702 148.430326 
L 153.727019 149.762918 
L 155.281337 146.867077 
L 156.835655 149.283019 
L 158.389972 150.221848 
L 159.94429 146.512435 
L 161.498607 150.744107 
L 163.052925 150.233578 
L 164.607242 145.931729 
L 166.16156 150.702961 
L 167.715877 148.20084 
L 169.270195 149.027282 
L 170.824513 145.348351 
L 172.37883 147.695564 
L 173.933148 150.922239 
L 175.487465 148.779111 
L 177.041783 147.559534 
L 178.5961 147.221183 
L 180.150418 147.155669 
L 181.704735 143.541435 
L 183.259053 146.339964 
L 184.81337 146.920577 
L 186.367688 148.322776 
L 187.922006 142.205129 
L 189.476323 146.805316 
L 191.030641 147.424936 
L 192.584958 146.1845 
L 194.139276 144.665301 
L 195.693593 145.402222 
L 197.247911 141.525253 
L 198.802228 144.217051 
L 200.356546 143.266075 
L 201.910864 146.138317 
L 203.465181 140.57839 
L 205.019499 146.866023 
L 206.573816 142.055197 
L 208.128134 142.199504 
L 209.682451 142.984009 
L 211.236769 142.553874 
L 212.791086 140.627146 
L 214.345404 142.306077 
L 215.899721 142.548915 
L 217.454039 141.511036 
L 219.008357 141.762933 
L 220.562674 141.2735 
L 222.116992 141.645997 
L 223.671309 141.450789 
L 225.225627 140.485804 
L 226.779944 140.888229 
L 228.334262 141.783494 
L 229.888579 143.27926 
L 231.442897 140.282056 
L 232.997214 138.160936 
L 234.551532 144.993011 
L 236.10585 141.793856 
L 237.660167 140.050399 
L 239.214485 140.632809 
L 240.768802 144.812637 
L 242.32312 137.832283 
L 243.877437 142.432148 
L 245.431755 143.169102 
L 246.986072 146.530415 
L 248.54039 140.037855 
L 250.094708 141.352844 
L 251.649025 139.898195 
L 253.203343 143.811812 
L 254.75766 149.516102 
L 256.311978 141.327688 
L 257.866295 148.3363 
L 259.420613 140.454891 
L 260.97493 141.625032 
L 262.529248 152.280712 
L 264.083565 142.653649 
L 265.637883 140.423605 
L 267.192201 152.350844 
L 268.746518 148.941479 
L 270.300836 142.110065 
L 271.855153 150.579318 
L 273.409471 152.591271 
L 274.963788 143.780455 
L 276.518106 149.002842 
L 278.072423 153.379169 
L 279.626741 148.824748 
L 281.181058 145.335302 
L 282.735376 151.757214 
L 284.289694 154.336543 
L 285.844011 150.577201 
L 287.398329 152.213037 
L 288.952646 149.632301 
L 290.506964 155.483874 
L 292.061281 153.100541 
L 293.615599 149.186196 
L 295.169916 156.351914 
L 296.724234 154.770091 
L 298.278552 150.992988 
L 299.832869 154.164089 
L 302.941504 154.892917 
L 304.495822 155.006628 
L 306.050139 154.420587 
L 307.604457 155.444528 
L 309.158774 154.185559 
L 310.713092 156.665336 
L 313.821727 151.940026 
L 315.376045 157.837188 
L 316.930362 156.588217 
L 318.48468 151.042254 
L 320.038997 154.204958 
L 321.593315 153.822594 
L 323.147632 158.911827 
L 324.70195 146.749499 
L 326.256267 156.541019 
L 327.810585 154.741881 
L 329.364903 156.111002 
L 330.91922 143.912776 
L 332.473538 155.614867 
L 334.027855 153.255538 
L 335.582173 154.122667 
L 337.13649 148.151619 
L 338.690808 156.093134 
L 340.245125 142.080681 
L 341.799443 147.409888 
L 343.35376 151.615137 
L 344.908078 149.765723 
L 346.462396 144.419261 
L 348.016713 161.232165 
L 349.571031 145.110002 
L 351.125348 145.658049 
L 352.679666 136.043768 
L 354.233983 144.434777 
L 355.788301 159.133862 
L 357.342618 131.874944 
L 358.896936 147.406767 
L 360.451253 152.311375 
L 362.005571 140.897052 
L 363.559889 130.407906 
L 365.114206 154.389231 
L 366.668524 127.959845 
L 368.222841 144.433943 
L 369.777159 144.814392 
L 371.331476 135.129284 
L 372.885794 141.90055 
L 374.440111 134.238438 
L 375.994429 140.388543 
L 377.548747 132.668692 
L 379.103064 138.228989 
L 380.657382 138.798529 
L 382.211699 134.943461 
L 383.766017 137.488617 
L 385.320334 134.221442 
L 386.874652 136.308523 
L 389.983287 134.95488 
L 393.091922 135.047089 
L 394.64624 134.093265 
L 396.200557 137.123456 
L 397.754875 131.822471 
L 399.309192 134.000973 
L 400.86351 133.570783 
L 402.417827 135.173836 
L 403.972145 141.559242 
L 405.526462 130.718435 
L 407.08078 140.541091 
L 408.635097 129.59021 
L 410.189415 139.466721 
L 411.743733 145.033397 
L 413.29805 131.551566 
L 414.852368 141.236529 
L 416.406685 134.923901 
L 417.961003 129.635106 
L 419.51532 136.819576 
L 421.069638 154.617466 
L 422.623955 131.361643 
L 424.178273 147.803951 
L 425.732591 139.827255 
L 427.286908 135.065985 
L 428.841226 137.818008 
L 430.395543 160.392734 
L 431.949861 129.857962 
L 433.504178 146.263119 
L 435.058496 147.695326 
L 436.612813 160.592139 
L 438.167131 137.76386 
L 439.721448 156.772941 
L 441.275766 132.397676 
L 442.830084 156.374169 
L 444.384401 152.219054 
L 445.938719 154.425264 
L 447.493036 158.594472 
L 449.047354 133.86692 
L 450.601671 166.973768 
L 452.155989 156.312783 
L 453.710306 152.328063 
L 455.264624 158.691444 
L 456.818942 143.024423 
L 458.373259 170.016419 
L 459.927577 151.67728 
L 461.481894 152.064517 
L 463.036212 161.69256 
L 464.590529 157.965256 
L 466.144847 163.82559 
L 467.699164 154.91735 
L 469.253482 163.060978 
L 470.807799 157.961082 
L 472.362117 161.155357 
L 473.916435 162.005692 
L 475.470752 161.512473 
L 477.02507 160.844145 
L 478.579387 162.161561 
L 480.133705 159.981583 
L 481.688022 163.610638 
L 483.24234 157.60285 
L 484.796657 163.906183 
L 486.350975 163.267136 
L 487.905292 161.635071 
L 489.45961 162.620523 
L 491.013928 156.507819 
L 492.568245 155.423324 
L 494.122563 159.508048 
L 495.67688 161.767881 
L 497.231198 166.185298 
L 498.785515 142.801771 
L 500.339833 166.361047 
L 501.89415 166.851388 
L 503.448468 155.059835 
L 505.002786 141.094568 
L 506.557103 168.486528 
L 508.111421 133.854149 
L 509.665738 162.655982 
L 511.220056 160.017517 
L 512.774373 139.326833 
L 514.328691 172.605176 
L 515.883008 141.494945 
L 517.437326 137.173544 
L 518.991643 142.059136 
L 520.545961 151.880841 
L 522.100279 156.733294 
L 523.654596 157.114438 
L 525.208914 122.68892 
L 526.763231 145.446133 
L 528.317549 147.321406 
L 529.871866 142.962826 
L 531.426184 143.64991 
L 532.980501 136.874951 
L 534.534819 129.399469 
L 536.089136 145.088555 
L 537.643454 139.289521 
L 539.197772 145.648397 
L 540.752089 116.12863 
L 542.306407 146.82315 
L 543.860724 124.601759 
L 545.415042 146.105351 
L 546.969359 117.955291 
L 548.523677 143.391672 
L 550.077994 130.771152 
L 551.632312 125.975037 
L 553.18663 130.874772 
L 554.740947 127.129267 
L 556.295265 134.076591 
L 557.849582 129.907716 
L 559.4039 126.512647 
L 560.958217 128.903919 
L 562.512535 128.974585 
L 564.066852 128.659211 
L 565.62117 127.743987 
L 567.175487 130.578129 
L 568.729805 128.976634 
L 570.284123 125.899123 
L 571.83844 133.697338 
L 573.392758 121.412654 
L 574.947075 127.710611 
L 576.501393 128.558761 
L 578.05571 126.637791 
L 579.610028 131.902445 
L 581.164345 128.985916 
L 582.718663 138.552241 
L 584.272981 132.670561 
L 585.827298 136.350923 
L 587.381616 127.900522 
L 588.935933 135.299893 
L 590.490251 153.077757 
L 592.044568 132.770935 
L 593.598886 115.670478 
L 595.153203 142.114595 
L 596.707521 162.592935 
L 598.261838 137.923033 
L 599.816156 126.602217 
L 601.370474 142.215938 
L 602.924791 141.784088 
L 604.479109 134.853014 
L 606.033426 143.616484 
L 607.587744 165.768729 
L 609.142061 154.26829 
L 610.696379 127.236779 
L 612.250696 159.79262 
L 613.805014 146.902811 
L 615.359331 173.808606 
L 616.913649 131.599768 
L 618.467967 171.132075 
L 620.022284 156.637705 
L 621.576602 155.745853 
L 623.130919 136.010415 
L 624.685237 173.817073 
L 626.239554 161.502142 
L 627.793872 152.240125 
L 629.348189 164.889637 
L 630.902507 153.575606 
L 632.456825 167.609414 
L 634.011142 173.178704 
L 635.56546 163.15199 
L 637.119777 157.243535 
L 638.674095 161.95049 
L 640.228412 176.895678 
L 641.78273 165.721038 
L 643.337047 165.32955 
L 644.891365 163.261385 
L 646.445682 169.645465 
L 648 167.465205 
L 648 167.465205 
" style="fill:none;stroke:#ff9600;stroke-linecap:square;"/>
   </g>
   <g id="patch_3">
    <path d="M 90 28.8 
L 648 28.8 
" style="fill:none;stroke:#000000;stroke-linecap:square;stroke-linejoin:miter;"/>
   </g>
   <g id="patch_4">
    <path d="M 648 244.8 
L 648 28.8 
" style="fill:none;stroke:#000000;stroke-linecap:square;stroke-linejoin:miter;"/>
   </g>
   <g id="patch_5">
    <path d="M 90 244.8 
L 648 244.8 
" style="fill:none;stroke:#000000;stroke-linecap:square;stroke-linejoin:miter;"/>
   </g>
   <g id="patch_6">
    <path d="M 90 244.8 
L 90 28.8 
" style="fill:none;stroke:#000000;stroke-linecap:square;stroke-linejoin:miter;"/>
   </g>
   <g id="matplotlib.axis_1">
    <g id="xtick_1">
     <g id="line2d_5">
      <defs>
       <path d="M 0 0 
L 0 -4 
" id="mad7890ae7f" style="stroke:#000000;stroke-width:0.5;"/>
      </defs>
      <g>
       <use style="stroke:#000000;stroke-width:0.5;" x="90.0" xlink:href="#mad7890ae7f" y="244.8"/>
      </g>
     </g>
     <g id="line2d_6">
      <defs>
       <path d="M 0 0 
L 0 4 
" id="me55d0bdc70" style="stroke:#000000;stroke-width:0.5;"/>
      </defs>
      <g>
       <use style="stroke:#000000;stroke-width:0.5;" x="90.0" xlink:href="#me55d0bdc70" y="28.8"/>
      </g>
     </g>
     <g id="text_1">
      <!-- 0 -->
      <defs>
       <path d="M 31.78125 66.40625 
Q 24.171875 66.40625 20.328125 58.90625 
Q 16.5 51.421875 16.5 36.375 
Q 16.5 21.390625 20.328125 13.890625 
Q 24.171875 6.390625 31.78125 6.390625 
Q 39.453125 6.390625 43.28125 13.890625 
Q 47.125 21.390625 47.125 36.375 
Q 47.125 51.421875 43.28125 58.90625 
Q 39.453125 66.40625 31.78125 66.40625 
M 31.78125 74.21875 
Q 44.046875 74.21875 50.515625 64.515625 
Q 56.984375 54.828125 56.984375 36.375 
Q 56.984375 17.96875 50.515625 8.265625 
Q 44.046875 -1.421875 31.78125 -1.421875 
Q 19.53125 -1.421875 13.0625 8.265625 
Q 6.59375 17.96875 6.59375 36.375 
Q 6.59375 54.828125 13.0625 64.515625 
Q 19.53125 74.21875 31.78125 74.21875 
" id="BitstreamVeraSans-Roman-30"/>
      </defs>
      <g transform="translate(86.1825 257.918125)scale(0.12 -0.12)">
       <use xlink:href="#BitstreamVeraSans-Roman-30"/>
      </g>
     </g>
    </g>
    <g id="xtick_2">
     <g id="line2d_7">
      <g>
       <use style="stroke:#000000;stroke-width:0.5;" x="185.384615385" xlink:href="#mad7890ae7f" y="244.8"/>
      </g>
     </g>
     <g id="line2d_8">
      <g>
       <use style="stroke:#000000;stroke-width:0.5;" x="185.384615385" xlink:href="#me55d0bdc70" y="28.8"/>
      </g>
     </g>
     <g id="text_2">
      <!-- 200 -->
      <defs>
       <path d="M 19.1875 8.296875 
L 53.609375 8.296875 
L 53.609375 0 
L 7.328125 0 
L 7.328125 8.296875 
Q 12.9375 14.109375 22.625 23.890625 
Q 32.328125 33.6875 34.8125 36.53125 
Q 39.546875 41.84375 41.421875 45.53125 
Q 43.3125 49.21875 43.3125 52.78125 
Q 43.3125 58.59375 39.234375 62.25 
Q 35.15625 65.921875 28.609375 65.921875 
Q 23.96875 65.921875 18.8125 64.3125 
Q 13.671875 62.703125 7.8125 59.421875 
L 7.8125 69.390625 
Q 13.765625 71.78125 18.9375 73 
Q 24.125 74.21875 28.421875 74.21875 
Q 39.75 74.21875 46.484375 68.546875 
Q 53.21875 62.890625 53.21875 53.421875 
Q 53.21875 48.921875 51.53125 44.890625 
Q 49.859375 40.875 45.40625 35.40625 
Q 44.1875 33.984375 37.640625 27.21875 
Q 31.109375 20.453125 19.1875 8.296875 
" id="BitstreamVeraSans-Roman-32"/>
      </defs>
      <g transform="translate(173.932115385 257.918125)scale(0.12 -0.12)">
       <use xlink:href="#BitstreamVeraSans-Roman-32"/>
       <use x="63.623046875" xlink:href="#BitstreamVeraSans-Roman-30"/>
       <use x="127.24609375" xlink:href="#BitstreamVeraSans-Roman-30"/>
      </g>
     </g>
    </g>
    <g id="xtick_3">
     <g id="line2d_9">
      <g>
       <use style="stroke:#000000;stroke-width:0.5;" x="280.769230769" xlink:href="#mad7890ae7f" y="244.8"/>
      </g>
     </g>
     <g id="line2d_10">
      <g>
       <use style="stroke:#000000;stroke-width:0.5;" x="280.769230769" xlink:href="#me55d0bdc70" y="28.8"/>
      </g>
     </g>
     <g id="text_3">
      <!-- 400 -->
      <defs>
       <path d="M 37.796875 64.3125 
L 12.890625 25.390625 
L 37.796875 25.390625 
z
M 35.203125 72.90625 
L 47.609375 72.90625 
L 47.609375 25.390625 
L 58.015625 25.390625 
L 58.015625 17.1875 
L 47.609375 17.1875 
L 47.609375 0 
L 37.796875 0 
L 37.796875 17.1875 
L 4.890625 17.1875 
L 4.890625 26.703125 
z
" id="BitstreamVeraSans-Roman-34"/>
      </defs>
      <g transform="translate(269.316730769 257.918125)scale(0.12 -0.12)">
       <use xlink:href="#BitstreamVeraSans-Roman-34"/>
       <use x="63.623046875" xlink:href="#BitstreamVeraSans-Roman-30"/>
       <use x="127.24609375" xlink:href="#BitstreamVeraSans-Roman-30"/>
      </g>
     </g>
    </g>
    <g id="xtick_4">
     <g id="line2d_11">
      <g>
       <use style="stroke:#000000;stroke-width:0.5;" x="376.153846154" xlink:href="#mad7890ae7f" y="244.8"/>
      </g>
     </g>
     <g id="line2d_12">
      <g>
       <use style="stroke:#000000;stroke-width:0.5;" x="376.153846154" xlink:href="#me55d0bdc70" y="28.8"/>
      </g>
     </g>
     <g id="text_4">
      <!-- 600 -->
      <defs>
       <path d="M 33.015625 40.375 
Q 26.375 40.375 22.484375 35.828125 
Q 18.609375 31.296875 18.609375 23.390625 
Q 18.609375 15.53125 22.484375 10.953125 
Q 26.375 6.390625 33.015625 6.390625 
Q 39.65625 6.390625 43.53125 10.953125 
Q 47.40625 15.53125 47.40625 23.390625 
Q 47.40625 31.296875 43.53125 35.828125 
Q 39.65625 40.375 33.015625 40.375 
M 52.59375 71.296875 
L 52.59375 62.3125 
Q 48.875 64.0625 45.09375 64.984375 
Q 41.3125 65.921875 37.59375 65.921875 
Q 27.828125 65.921875 22.671875 59.328125 
Q 17.53125 52.734375 16.796875 39.40625 
Q 19.671875 43.65625 24.015625 45.921875 
Q 28.375 48.1875 33.59375 48.1875 
Q 44.578125 48.1875 50.953125 41.515625 
Q 57.328125 34.859375 57.328125 23.390625 
Q 57.328125 12.15625 50.6875 5.359375 
Q 44.046875 -1.421875 33.015625 -1.421875 
Q 20.359375 -1.421875 13.671875 8.265625 
Q 6.984375 17.96875 6.984375 36.375 
Q 6.984375 53.65625 15.1875 63.9375 
Q 23.390625 74.21875 37.203125 74.21875 
Q 40.921875 74.21875 44.703125 73.484375 
Q 48.484375 72.75 52.59375 71.296875 
" id="BitstreamVeraSans-Roman-36"/>
      </defs>
      <g transform="translate(364.701346154 257.918125)scale(0.12 -0.12)">
       <use xlink:href="#BitstreamVeraSans-Roman-36"/>
       <use x="63.623046875" xlink:href="#BitstreamVeraSans-Roman-30"/>
       <use x="127.24609375" xlink:href="#BitstreamVeraSans-Roman-30"/>
      </g>
     </g>
    </g>
    <g id="xtick_5">
     <g id="line2d_13">
      <g>
       <use style="stroke:#000000;stroke-width:0.5;" x="471.538461538" xlink:href="#mad7890ae7f" y="244.8"/>
      </g>
     </g>
     <g id="line2d_14">
      <g>
       <use style="stroke:#000000;stroke-width:0.5;" x="471.538461538" xlink:href="#me55d0bdc70" y="28.8"/>
      </g>
     </g>
     <g id="text_5">
      <!-- 800 -->
      <defs>
       <path d="M 31.78125 34.625 
Q 24.75 34.625 20.71875 30.859375 
Q 16.703125 27.09375 16.703125 20.515625 
Q 16.703125 13.921875 20.71875 10.15625 
Q 24.75 6.390625 31.78125 6.390625 
Q 38.8125 6.390625 42.859375 10.171875 
Q 46.921875 13.96875 46.921875 20.515625 
Q 46.921875 27.09375 42.890625 30.859375 
Q 38.875 34.625 31.78125 34.625 
M 21.921875 38.8125 
Q 15.578125 40.375 12.03125 44.71875 
Q 8.5 49.078125 8.5 55.328125 
Q 8.5 64.0625 14.71875 69.140625 
Q 20.953125 74.21875 31.78125 74.21875 
Q 42.671875 74.21875 48.875 69.140625 
Q 55.078125 64.0625 55.078125 55.328125 
Q 55.078125 49.078125 51.53125 44.71875 
Q 48 40.375 41.703125 38.8125 
Q 48.828125 37.15625 52.796875 32.3125 
Q 56.78125 27.484375 56.78125 20.515625 
Q 56.78125 9.90625 50.3125 4.234375 
Q 43.84375 -1.421875 31.78125 -1.421875 
Q 19.734375 -1.421875 13.25 4.234375 
Q 6.78125 9.90625 6.78125 20.515625 
Q 6.78125 27.484375 10.78125 32.3125 
Q 14.796875 37.15625 21.921875 38.8125 
M 18.3125 54.390625 
Q 18.3125 48.734375 21.84375 45.5625 
Q 25.390625 42.390625 31.78125 42.390625 
Q 38.140625 42.390625 41.71875 45.5625 
Q 45.3125 48.734375 45.3125 54.390625 
Q 45.3125 60.0625 41.71875 63.234375 
Q 38.140625 66.40625 31.78125 66.40625 
Q 25.390625 66.40625 21.84375 63.234375 
Q 18.3125 60.0625 18.3125 54.390625 
" id="BitstreamVeraSans-Roman-38"/>
      </defs>
      <g transform="translate(460.085961538 257.918125)scale(0.12 -0.12)">
       <use xlink:href="#BitstreamVeraSans-Roman-38"/>
       <use x="63.623046875" xlink:href="#BitstreamVeraSans-Roman-30"/>
       <use x="127.24609375" xlink:href="#BitstreamVeraSans-Roman-30"/>
      </g>
     </g>
    </g>
    <g id="xtick_6">
     <g id="line2d_15">
      <g>
       <use style="stroke:#000000;stroke-width:0.5;" x="566.923076923" xlink:href="#mad7890ae7f" y="244.8"/>
      </g>
     </g>
     <g id="line2d_16">
      <g>
       <use style="stroke:#000000;stroke-width:0.5;" x="566.923076923" xlink:href="#me55d0bdc70" y="28.8"/>
      </g>
     </g>
     <g id="text_6">
      <!-- 1000 -->
      <defs>
       <path d="M 12.40625 8.296875 
L 28.515625 8.296875 
L 28.515625 63.921875 
L 10.984375 60.40625 
L 10.984375 69.390625 
L 28.421875 72.90625 
L 38.28125 72.90625 
L 38.28125 8.296875 
L 54.390625 8.296875 
L 54.390625 0 
L 12.40625 0 
z
" id="BitstreamVeraSans-Roman-31"/>
      </defs>
      <g transform="translate(551.653076923 257.918125)scale(0.12 -0.12)">
       <use xlink:href="#BitstreamVeraSans-Roman-31"/>
       <use x="63.623046875" xlink:href="#BitstreamVeraSans-Roman-30"/>
       <use x="127.24609375" xlink:href="#BitstreamVeraSans-Roman-30"/>
       <use x="190.869140625" xlink:href="#BitstreamVeraSans-Roman-30"/>
      </g>
     </g>
    </g>
    <g id="text_7">
     <!-- t (s) -->
     <defs>
      <path d="M 8.015625 75.875 
L 15.828125 75.875 
Q 23.140625 64.359375 26.78125 53.3125 
Q 30.421875 42.28125 30.421875 31.390625 
Q 30.421875 20.453125 26.78125 9.375 
Q 23.140625 -1.703125 15.828125 -13.1875 
L 8.015625 -13.1875 
Q 14.5 -2 17.703125 9.0625 
Q 20.90625 20.125 20.90625 31.390625 
Q 20.90625 42.671875 17.703125 53.65625 
Q 14.5 64.65625 8.015625 75.875 
" id="BitstreamVeraSans-Roman-29"/>
      <path id="BitstreamVeraSans-Roman-20"/>
      <path d="M 18.3125 70.21875 
L 18.3125 54.6875 
L 36.8125 54.6875 
L 36.8125 47.703125 
L 18.3125 47.703125 
L 18.3125 18.015625 
Q 18.3125 11.328125 20.140625 9.421875 
Q 21.96875 7.515625 27.59375 7.515625 
L 36.8125 7.515625 
L 36.8125 0 
L 27.59375 0 
Q 17.1875 0 13.234375 3.875 
Q 9.28125 7.765625 9.28125 18.015625 
L 9.28125 47.703125 
L 2.6875 47.703125 
L 2.6875 54.6875 
L 9.28125 54.6875 
L 9.28125 70.21875 
z
" id="BitstreamVeraSans-Roman-74"/>
      <path d="M 44.28125 53.078125 
L 44.28125 44.578125 
Q 40.484375 46.53125 36.375 47.5 
Q 32.28125 48.484375 27.875 48.484375 
Q 21.1875 48.484375 17.84375 46.4375 
Q 14.5 44.390625 14.5 40.28125 
Q 14.5 37.15625 16.890625 35.375 
Q 19.28125 33.59375 26.515625 31.984375 
L 29.59375 31.296875 
Q 39.15625 29.25 43.1875 25.515625 
Q 47.21875 21.78125 47.21875 15.09375 
Q 47.21875 7.46875 41.1875 3.015625 
Q 35.15625 -1.421875 24.609375 -1.421875 
Q 20.21875 -1.421875 15.453125 -0.5625 
Q 10.6875 0.296875 5.421875 2 
L 5.421875 11.28125 
Q 10.40625 8.6875 15.234375 7.390625 
Q 20.0625 6.109375 24.8125 6.109375 
Q 31.15625 6.109375 34.5625 8.28125 
Q 37.984375 10.453125 37.984375 14.40625 
Q 37.984375 18.0625 35.515625 20.015625 
Q 33.0625 21.96875 24.703125 23.78125 
L 21.578125 24.515625 
Q 13.234375 26.265625 9.515625 29.90625 
Q 5.8125 33.546875 5.8125 39.890625 
Q 5.8125 47.609375 11.28125 51.796875 
Q 16.75 56 26.8125 56 
Q 31.78125 56 36.171875 55.265625 
Q 40.578125 54.546875 44.28125 53.078125 
" id="BitstreamVeraSans-Roman-73"/>
      <path d="M 31 75.875 
Q 24.46875 64.65625 21.28125 53.65625 
Q 18.109375 42.671875 18.109375 31.390625 
Q 18.109375 20.125 21.3125 9.0625 
Q 24.515625 -2 31 -13.1875 
L 23.1875 -13.1875 
Q 15.875 -1.703125 12.234375 9.375 
Q 8.59375 20.453125 8.59375 31.390625 
Q 8.59375 42.28125 12.203125 53.3125 
Q 15.828125 64.359375 23.1875 75.875 
z
" id="BitstreamVeraSans-Roman-28"/>
     </defs>
     <g transform="translate(356.9334375 274.531875)scale(0.12 -0.12)">
      <use xlink:href="#BitstreamVeraSans-Roman-74"/>
      <use x="39.208984375" xlink:href="#BitstreamVeraSans-Roman-20"/>
      <use x="70.99609375" xlink:href="#BitstreamVeraSans-Roman-28"/>
      <use x="110.009765625" xlink:href="#BitstreamVeraSans-Roman-73"/>
      <use x="162.109375" xlink:href="#BitstreamVeraSans-Roman-29"/>
     </g>
    </g>
   </g>
   <g id="matplotlib.axis_2">
    <g id="ytick_1">
     <g id="line2d_17">
      <defs>
       <path d="M 0 0 
L 4 0 
" id="m7455998f40" style="stroke:#000000;stroke-width:0.5;"/>
      </defs>
      <g>
       <use style="stroke:#000000;stroke-width:0.5;" x="90.0" xlink:href="#m7455998f40" y="198.687542723"/>
      </g>
     </g>
     <g id="line2d_18">
      <defs>
       <path d="M 0 0 
L -4 0 
" id="m8b22cf2c8c" style="stroke:#000000;stroke-width:0.5;"/>
      </defs>
      <g>
       <use style="stroke:#000000;stroke-width:0.5;" x="648.0" xlink:href="#m8b22cf2c8c" y="198.687542723"/>
      </g>
     </g>
     <g id="text_8">
      <!-- 500 -->
      <defs>
       <path d="M 10.59375 35.5 
L 73.1875 35.5 
L 73.1875 27.203125 
L 10.59375 27.203125 
z
" id="BitstreamVeraSans-Roman-2212"/>
       <path d="M 10.796875 72.90625 
L 49.515625 72.90625 
L 49.515625 64.59375 
L 19.828125 64.59375 
L 19.828125 46.734375 
Q 21.96875 47.46875 24.109375 47.828125 
Q 26.265625 48.1875 28.421875 48.1875 
Q 40.625 48.1875 47.75 41.5 
Q 54.890625 34.8125 54.890625 23.390625 
Q 54.890625 11.625 47.5625 5.09375 
Q 40.234375 -1.421875 26.90625 -1.421875 
Q 22.3125 -1.421875 17.546875 -0.640625 
Q 12.796875 0.140625 7.71875 1.703125 
L 7.71875 11.625 
Q 12.109375 9.234375 16.796875 8.0625 
Q 21.484375 6.890625 26.703125 6.890625 
Q 35.15625 6.890625 40.078125 11.328125 
Q 45.015625 15.765625 45.015625 23.390625 
Q 45.015625 31 40.078125 35.4375 
Q 35.15625 39.890625 26.703125 39.890625 
Q 22.75 39.890625 18.8125 39.015625 
Q 14.890625 38.140625 10.796875 36.28125 
z
" id="BitstreamVeraSans-Roman-35"/>
      </defs>
      <g transform="translate(53.039375 201.998792723)scale(0.12 -0.12)">
       <use xlink:href="#BitstreamVeraSans-Roman-2212"/>
       <use x="83.7890625" xlink:href="#BitstreamVeraSans-Roman-35"/>
       <use x="147.412109375" xlink:href="#BitstreamVeraSans-Roman-30"/>
       <use x="211.03515625" xlink:href="#BitstreamVeraSans-Roman-30"/>
      </g>
     </g>
    </g>
    <g id="ytick_2">
     <g id="line2d_19">
      <g>
       <use style="stroke:#000000;stroke-width:0.5;" x="90.0" xlink:href="#m7455998f40" y="146.491114504"/>
      </g>
     </g>
     <g id="line2d_20">
      <g>
       <use style="stroke:#000000;stroke-width:0.5;" x="648.0" xlink:href="#m8b22cf2c8c" y="146.491114504"/>
      </g>
     </g>
     <g id="text_9">
      <!-- 0 -->
      <g transform="translate(78.365 149.802364504)scale(0.12 -0.12)">
       <use xlink:href="#BitstreamVeraSans-Roman-30"/>
      </g>
     </g>
    </g>
    <g id="ytick_3">
     <g id="line2d_21">
      <g>
       <use style="stroke:#000000;stroke-width:0.5;" x="90.0" xlink:href="#m7455998f40" y="94.2946862855"/>
      </g>
     </g>
     <g id="line2d_22">
      <g>
       <use style="stroke:#000000;stroke-width:0.5;" x="648.0" xlink:href="#m8b22cf2c8c" y="94.2946862855"/>
      </g>
     </g>
     <g id="text_10">
      <!-- 500 -->
      <g transform="translate(63.095 97.6059362855)scale(0.12 -0.12)">
       <use xlink:href="#BitstreamVeraSans-Roman-35"/>
       <use x="63.623046875" xlink:href="#BitstreamVeraSans-Roman-30"/>
       <use x="127.24609375" xlink:href="#BitstreamVeraSans-Roman-30"/>
      </g>
     </g>
    </g>
    <g id="ytick_4">
     <g id="line2d_23">
      <g>
       <use style="stroke:#000000;stroke-width:0.5;" x="90.0" xlink:href="#m7455998f40" y="42.098258067"/>
      </g>
     </g>
     <g id="line2d_24">
      <g>
       <use style="stroke:#000000;stroke-width:0.5;" x="648.0" xlink:href="#m8b22cf2c8c" y="42.098258067"/>
      </g>
     </g>
     <g id="text_11">
      <!-- 1000 -->
      <g transform="translate(55.46 45.409508067)scale(0.12 -0.12)">
       <use xlink:href="#BitstreamVeraSans-Roman-31"/>
       <use x="63.623046875" xlink:href="#BitstreamVeraSans-Roman-30"/>
       <use x="127.24609375" xlink:href="#BitstreamVeraSans-Roman-30"/>
       <use x="190.869140625" xlink:href="#BitstreamVeraSans-Roman-30"/>
      </g>
     </g>
    </g>
    <g id="text_12">
     <!-- Deviation (Arb. Units) -->
     <defs>
      <path d="M 54.890625 33.015625 
L 54.890625 0 
L 45.90625 0 
L 45.90625 32.71875 
Q 45.90625 40.484375 42.875 44.328125 
Q 39.84375 48.1875 33.796875 48.1875 
Q 26.515625 48.1875 22.3125 43.546875 
Q 18.109375 38.921875 18.109375 30.90625 
L 18.109375 0 
L 9.078125 0 
L 9.078125 54.6875 
L 18.109375 54.6875 
L 18.109375 46.1875 
Q 21.34375 51.125 25.703125 53.5625 
Q 30.078125 56 35.796875 56 
Q 45.21875 56 50.046875 50.171875 
Q 54.890625 44.34375 54.890625 33.015625 
" id="BitstreamVeraSans-Roman-6e"/>
      <path d="M 41.109375 46.296875 
Q 39.59375 47.171875 37.8125 47.578125 
Q 36.03125 48 33.890625 48 
Q 26.265625 48 22.1875 43.046875 
Q 18.109375 38.09375 18.109375 28.8125 
L 18.109375 0 
L 9.078125 0 
L 9.078125 54.6875 
L 18.109375 54.6875 
L 18.109375 46.1875 
Q 20.953125 51.171875 25.484375 53.578125 
Q 30.03125 56 36.53125 56 
Q 37.453125 56 38.578125 55.875 
Q 39.703125 55.765625 41.0625 55.515625 
z
" id="BitstreamVeraSans-Roman-72"/>
      <path d="M 30.609375 48.390625 
Q 23.390625 48.390625 19.1875 42.75 
Q 14.984375 37.109375 14.984375 27.296875 
Q 14.984375 17.484375 19.15625 11.84375 
Q 23.34375 6.203125 30.609375 6.203125 
Q 37.796875 6.203125 41.984375 11.859375 
Q 46.1875 17.53125 46.1875 27.296875 
Q 46.1875 37.015625 41.984375 42.703125 
Q 37.796875 48.390625 30.609375 48.390625 
M 30.609375 56 
Q 42.328125 56 49.015625 48.375 
Q 55.71875 40.765625 55.71875 27.296875 
Q 55.71875 13.875 49.015625 6.21875 
Q 42.328125 -1.421875 30.609375 -1.421875 
Q 18.84375 -1.421875 12.171875 6.21875 
Q 5.515625 13.875 5.515625 27.296875 
Q 5.515625 40.765625 12.171875 48.375 
Q 18.84375 56 30.609375 56 
" id="BitstreamVeraSans-Roman-6f"/>
      <path d="M 2.984375 54.6875 
L 12.5 54.6875 
L 29.59375 8.796875 
L 46.6875 54.6875 
L 56.203125 54.6875 
L 35.6875 0 
L 23.484375 0 
z
" id="BitstreamVeraSans-Roman-76"/>
      <path d="M 19.671875 64.796875 
L 19.671875 8.109375 
L 31.59375 8.109375 
Q 46.6875 8.109375 53.6875 14.9375 
Q 60.6875 21.78125 60.6875 36.53125 
Q 60.6875 51.171875 53.6875 57.984375 
Q 46.6875 64.796875 31.59375 64.796875 
z
M 9.8125 72.90625 
L 30.078125 72.90625 
Q 51.265625 72.90625 61.171875 64.09375 
Q 71.09375 55.28125 71.09375 36.53125 
Q 71.09375 17.671875 61.125 8.828125 
Q 51.171875 0 30.078125 0 
L 9.8125 0 
z
" id="BitstreamVeraSans-Roman-44"/>
      <path d="M 9.421875 54.6875 
L 18.40625 54.6875 
L 18.40625 0 
L 9.421875 0 
z
M 9.421875 75.984375 
L 18.40625 75.984375 
L 18.40625 64.59375 
L 9.421875 64.59375 
z
" id="BitstreamVeraSans-Roman-69"/>
      <path d="M 8.6875 72.90625 
L 18.609375 72.90625 
L 18.609375 28.609375 
Q 18.609375 16.890625 22.84375 11.734375 
Q 27.09375 6.59375 36.625 6.59375 
Q 46.09375 6.59375 50.34375 11.734375 
Q 54.59375 16.890625 54.59375 28.609375 
L 54.59375 72.90625 
L 64.5 72.90625 
L 64.5 27.390625 
Q 64.5 13.140625 57.4375 5.859375 
Q 50.390625 -1.421875 36.625 -1.421875 
Q 22.796875 -1.421875 15.734375 5.859375 
Q 8.6875 13.140625 8.6875 27.390625 
z
" id="BitstreamVeraSans-Roman-55"/>
      <path d="M 34.1875 63.1875 
L 20.796875 26.90625 
L 47.609375 26.90625 
z
M 28.609375 72.90625 
L 39.796875 72.90625 
L 67.578125 0 
L 57.328125 0 
L 50.6875 18.703125 
L 17.828125 18.703125 
L 11.1875 0 
L 0.78125 0 
z
" id="BitstreamVeraSans-Roman-41"/>
      <path d="M 56.203125 29.59375 
L 56.203125 25.203125 
L 14.890625 25.203125 
Q 15.484375 15.921875 20.484375 11.0625 
Q 25.484375 6.203125 34.421875 6.203125 
Q 39.59375 6.203125 44.453125 7.46875 
Q 49.3125 8.734375 54.109375 11.28125 
L 54.109375 2.78125 
Q 49.265625 0.734375 44.1875 -0.34375 
Q 39.109375 -1.421875 33.890625 -1.421875 
Q 20.796875 -1.421875 13.15625 6.1875 
Q 5.515625 13.8125 5.515625 26.8125 
Q 5.515625 40.234375 12.765625 48.109375 
Q 20.015625 56 32.328125 56 
Q 43.359375 56 49.78125 48.890625 
Q 56.203125 41.796875 56.203125 29.59375 
M 47.21875 32.234375 
Q 47.125 39.59375 43.09375 43.984375 
Q 39.0625 48.390625 32.421875 48.390625 
Q 24.90625 48.390625 20.390625 44.140625 
Q 15.875 39.890625 15.1875 32.171875 
z
" id="BitstreamVeraSans-Roman-65"/>
      <path d="M 10.6875 12.40625 
L 21 12.40625 
L 21 0 
L 10.6875 0 
z
" id="BitstreamVeraSans-Roman-2e"/>
      <path d="M 34.28125 27.484375 
Q 23.390625 27.484375 19.1875 25 
Q 14.984375 22.515625 14.984375 16.5 
Q 14.984375 11.71875 18.140625 8.90625 
Q 21.296875 6.109375 26.703125 6.109375 
Q 34.1875 6.109375 38.703125 11.40625 
Q 43.21875 16.703125 43.21875 25.484375 
L 43.21875 27.484375 
z
M 52.203125 31.203125 
L 52.203125 0 
L 43.21875 0 
L 43.21875 8.296875 
Q 40.140625 3.328125 35.546875 0.953125 
Q 30.953125 -1.421875 24.3125 -1.421875 
Q 15.921875 -1.421875 10.953125 3.296875 
Q 6 8.015625 6 15.921875 
Q 6 25.140625 12.171875 29.828125 
Q 18.359375 34.515625 30.609375 34.515625 
L 43.21875 34.515625 
L 43.21875 35.40625 
Q 43.21875 41.609375 39.140625 45 
Q 35.0625 48.390625 27.6875 48.390625 
Q 23 48.390625 18.546875 47.265625 
Q 14.109375 46.140625 10.015625 43.890625 
L 10.015625 52.203125 
Q 14.9375 54.109375 19.578125 55.046875 
Q 24.21875 56 28.609375 56 
Q 40.484375 56 46.34375 49.84375 
Q 52.203125 43.703125 52.203125 31.203125 
" id="BitstreamVeraSans-Roman-61"/>
      <path d="M 48.6875 27.296875 
Q 48.6875 37.203125 44.609375 42.84375 
Q 40.53125 48.484375 33.40625 48.484375 
Q 26.265625 48.484375 22.1875 42.84375 
Q 18.109375 37.203125 18.109375 27.296875 
Q 18.109375 17.390625 22.1875 11.75 
Q 26.265625 6.109375 33.40625 6.109375 
Q 40.53125 6.109375 44.609375 11.75 
Q 48.6875 17.390625 48.6875 27.296875 
M 18.109375 46.390625 
Q 20.953125 51.265625 25.265625 53.625 
Q 29.59375 56 35.59375 56 
Q 45.5625 56 51.78125 48.09375 
Q 58.015625 40.1875 58.015625 27.296875 
Q 58.015625 14.40625 51.78125 6.484375 
Q 45.5625 -1.421875 35.59375 -1.421875 
Q 29.59375 -1.421875 25.265625 0.953125 
Q 20.953125 3.328125 18.109375 8.203125 
L 18.109375 0 
L 9.078125 0 
L 9.078125 75.984375 
L 18.109375 75.984375 
z
" id="BitstreamVeraSans-Roman-62"/>
     </defs>
     <g transform="translate(45.54375 201.620625)rotate(-90.0)scale(0.12 -0.12)">
      <use xlink:href="#BitstreamVeraSans-Roman-44"/>
      <use x="77.001953125" xlink:href="#BitstreamVeraSans-Roman-65"/>
      <use x="138.525390625" xlink:href="#BitstreamVeraSans-Roman-76"/>
      <use x="197.705078125" xlink:href="#BitstreamVeraSans-Roman-69"/>
      <use x="225.48828125" xlink:href="#BitstreamVeraSans-Roman-61"/>
      <use x="286.767578125" xlink:href="#BitstreamVeraSans-Roman-74"/>
      <use x="325.9765625" xlink:href="#BitstreamVeraSans-Roman-69"/>
      <use x="353.759765625" xlink:href="#BitstreamVeraSans-Roman-6f"/>
      <use x="414.94140625" xlink:href="#BitstreamVeraSans-Roman-6e"/>
      <use x="478.3203125" xlink:href="#BitstreamVeraSans-Roman-20"/>
      <use x="510.107421875" xlink:href="#BitstreamVeraSans-Roman-28"/>
      <use x="549.12109375" xlink:href="#BitstreamVeraSans-Roman-41"/>
      <use x="617.529296875" xlink:href="#BitstreamVeraSans-Roman-72"/>
      <use x="658.642578125" xlink:href="#BitstreamVeraSans-Roman-62"/>
      <use x="722.119140625" xlink:href="#BitstreamVeraSans-Roman-2e"/>
      <use x="753.90625" xlink:href="#BitstreamVeraSans-Roman-20"/>
      <use x="785.693359375" xlink:href="#BitstreamVeraSans-Roman-55"/>
      <use x="858.88671875" xlink:href="#BitstreamVeraSans-Roman-6e"/>
      <use x="922.265625" xlink:href="#BitstreamVeraSans-Roman-69"/>
      <use x="950.048828125" xlink:href="#BitstreamVeraSans-Roman-74"/>
      <use x="989.2578125" xlink:href="#BitstreamVeraSans-Roman-73"/>
      <use x="1041.35742188" xlink:href="#BitstreamVeraSans-Roman-29"/>
     </g>
    </g>
   </g>
   <g id="text_13">
    <!-- PID -->
    <defs>
     <path d="M 19.671875 64.796875 
L 19.671875 37.40625 
L 32.078125 37.40625 
Q 38.96875 37.40625 42.71875 40.96875 
Q 46.484375 44.53125 46.484375 51.125 
Q 46.484375 57.671875 42.71875 61.234375 
Q 38.96875 64.796875 32.078125 64.796875 
z
M 9.8125 72.90625 
L 32.078125 72.90625 
Q 44.34375 72.90625 50.609375 67.359375 
Q 56.890625 61.8125 56.890625 51.125 
Q 56.890625 40.328125 50.609375 34.8125 
Q 44.34375 29.296875 32.078125 29.296875 
L 19.671875 29.296875 
L 19.671875 0 
L 9.8125 0 
z
" id="BitstreamVeraSans-Roman-50"/>
     <path d="M 9.8125 72.90625 
L 19.671875 72.90625 
L 19.671875 0 
L 9.8125 0 
z
" id="BitstreamVeraSans-Roman-49"/>
    </defs>
    <g transform="translate(356.990625 23.8)scale(0.144 -0.144)">
     <use xlink:href="#BitstreamVeraSans-Roman-50"/>
     <use x="60.302734375" xlink:href="#BitstreamVeraSans-Roman-49"/>
     <use x="89.794921875" xlink:href="#BitstreamVeraSans-Roman-44"/>
    </g>
   </g>
   <g id="legend_1">
    <g id="patch_7">
     <path d="M 94 82.17 
L 208.89375 82.17 
L 208.89375 32.8 
L 94 32.8 
z
" style="fill:#ffffff;stroke:#000000;stroke-linejoin:miter;"/>
    </g>
    <g id="line2d_25">
     <path d="M 99.6 39.27875 
L 110.8 39.27875 
" style="fill:none;stroke:#5b6fbd;stroke-linecap:square;"/>
    </g>
    <g id="line2d_26"/>
    <g id="text_14">
     <!-- Signal -->
     <defs>
      <path d="M 45.40625 27.984375 
Q 45.40625 37.75 41.375 43.109375 
Q 37.359375 48.484375 30.078125 48.484375 
Q 22.859375 48.484375 18.828125 43.109375 
Q 14.796875 37.75 14.796875 27.984375 
Q 14.796875 18.265625 18.828125 12.890625 
Q 22.859375 7.515625 30.078125 7.515625 
Q 37.359375 7.515625 41.375 12.890625 
Q 45.40625 18.265625 45.40625 27.984375 
M 54.390625 6.78125 
Q 54.390625 -7.171875 48.1875 -13.984375 
Q 42 -20.796875 29.203125 -20.796875 
Q 24.46875 -20.796875 20.265625 -20.09375 
Q 16.0625 -19.390625 12.109375 -17.921875 
L 12.109375 -9.1875 
Q 16.0625 -11.328125 19.921875 -12.34375 
Q 23.78125 -13.375 27.78125 -13.375 
Q 36.625 -13.375 41.015625 -8.765625 
Q 45.40625 -4.15625 45.40625 5.171875 
L 45.40625 9.625 
Q 42.625 4.78125 38.28125 2.390625 
Q 33.9375 0 27.875 0 
Q 17.828125 0 11.671875 7.65625 
Q 5.515625 15.328125 5.515625 27.984375 
Q 5.515625 40.671875 11.671875 48.328125 
Q 17.828125 56 27.875 56 
Q 33.9375 56 38.28125 53.609375 
Q 42.625 51.21875 45.40625 46.390625 
L 45.40625 54.6875 
L 54.390625 54.6875 
z
" id="BitstreamVeraSans-Roman-67"/>
      <path d="M 53.515625 70.515625 
L 53.515625 60.890625 
Q 47.90625 63.578125 42.921875 64.890625 
Q 37.9375 66.21875 33.296875 66.21875 
Q 25.25 66.21875 20.875 63.09375 
Q 16.5 59.96875 16.5 54.203125 
Q 16.5 49.359375 19.40625 46.890625 
Q 22.3125 44.4375 30.421875 42.921875 
L 36.375 41.703125 
Q 47.40625 39.59375 52.65625 34.296875 
Q 57.90625 29 57.90625 20.125 
Q 57.90625 9.515625 50.796875 4.046875 
Q 43.703125 -1.421875 29.984375 -1.421875 
Q 24.8125 -1.421875 18.96875 -0.25 
Q 13.140625 0.921875 6.890625 3.21875 
L 6.890625 13.375 
Q 12.890625 10.015625 18.65625 8.296875 
Q 24.421875 6.59375 29.984375 6.59375 
Q 38.421875 6.59375 43.015625 9.90625 
Q 47.609375 13.234375 47.609375 19.390625 
Q 47.609375 24.75 44.3125 27.78125 
Q 41.015625 30.8125 33.5 32.328125 
L 27.484375 33.5 
Q 16.453125 35.6875 11.515625 40.375 
Q 6.59375 45.0625 6.59375 53.421875 
Q 6.59375 63.09375 13.40625 68.65625 
Q 20.21875 74.21875 32.171875 74.21875 
Q 37.3125 74.21875 42.625 73.28125 
Q 47.953125 72.359375 53.515625 70.515625 
" id="BitstreamVeraSans-Roman-53"/>
      <path d="M 9.421875 75.984375 
L 18.40625 75.984375 
L 18.40625 0 
L 9.421875 0 
z
" id="BitstreamVeraSans-Roman-6c"/>
     </defs>
     <g transform="translate(119.6 42.07875)scale(0.08 -0.08)">
      <use xlink:href="#BitstreamVeraSans-Roman-53"/>
      <use x="63.4765625" xlink:href="#BitstreamVeraSans-Roman-69"/>
      <use x="91.259765625" xlink:href="#BitstreamVeraSans-Roman-67"/>
      <use x="154.736328125" xlink:href="#BitstreamVeraSans-Roman-6e"/>
      <use x="218.115234375" xlink:href="#BitstreamVeraSans-Roman-61"/>
      <use x="279.39453125" xlink:href="#BitstreamVeraSans-Roman-6c"/>
     </g>
    </g>
    <g id="line2d_27">
     <path d="M 99.6 51.02125 
L 110.8 51.02125 
" style="fill:none;stroke:#38c0ff;stroke-linecap:square;"/>
    </g>
    <g id="line2d_28"/>
    <g id="text_15">
     <!-- Proportional Kp = 0.5 -->
     <defs>
      <path d="M 10.59375 45.40625 
L 73.1875 45.40625 
L 73.1875 37.203125 
L 10.59375 37.203125 
z
M 10.59375 25.484375 
L 73.1875 25.484375 
L 73.1875 17.1875 
L 10.59375 17.1875 
z
" id="BitstreamVeraSans-Roman-3d"/>
      <path d="M 9.8125 72.90625 
L 19.671875 72.90625 
L 19.671875 42.09375 
L 52.390625 72.90625 
L 65.09375 72.90625 
L 28.90625 38.921875 
L 67.671875 0 
L 54.6875 0 
L 19.671875 35.109375 
L 19.671875 0 
L 9.8125 0 
z
" id="BitstreamVeraSans-Roman-4b"/>
      <path d="M 18.109375 8.203125 
L 18.109375 -20.796875 
L 9.078125 -20.796875 
L 9.078125 54.6875 
L 18.109375 54.6875 
L 18.109375 46.390625 
Q 20.953125 51.265625 25.265625 53.625 
Q 29.59375 56 35.59375 56 
Q 45.5625 56 51.78125 48.09375 
Q 58.015625 40.1875 58.015625 27.296875 
Q 58.015625 14.40625 51.78125 6.484375 
Q 45.5625 -1.421875 35.59375 -1.421875 
Q 29.59375 -1.421875 25.265625 0.953125 
Q 20.953125 3.328125 18.109375 8.203125 
M 48.6875 27.296875 
Q 48.6875 37.203125 44.609375 42.84375 
Q 40.53125 48.484375 33.40625 48.484375 
Q 26.265625 48.484375 22.1875 42.84375 
Q 18.109375 37.203125 18.109375 27.296875 
Q 18.109375 17.390625 22.1875 11.75 
Q 26.265625 6.109375 33.40625 6.109375 
Q 40.53125 6.109375 44.609375 11.75 
Q 48.6875 17.390625 48.6875 27.296875 
" id="BitstreamVeraSans-Roman-70"/>
     </defs>
     <g transform="translate(119.6 53.82125)scale(0.08 -0.08)">
      <use xlink:href="#BitstreamVeraSans-Roman-50"/>
      <use x="60.287109375" xlink:href="#BitstreamVeraSans-Roman-72"/>
      <use x="101.369140625" xlink:href="#BitstreamVeraSans-Roman-6f"/>
      <use x="162.55078125" xlink:href="#BitstreamVeraSans-Roman-70"/>
      <use x="226.02734375" xlink:href="#BitstreamVeraSans-Roman-6f"/>
      <use x="287.208984375" xlink:href="#BitstreamVeraSans-Roman-72"/>
      <use x="328.322265625" xlink:href="#BitstreamVeraSans-Roman-74"/>
      <use x="367.53125" xlink:href="#BitstreamVeraSans-Roman-69"/>
      <use x="395.314453125" xlink:href="#BitstreamVeraSans-Roman-6f"/>
      <use x="456.49609375" xlink:href="#BitstreamVeraSans-Roman-6e"/>
      <use x="519.875" xlink:href="#BitstreamVeraSans-Roman-61"/>
      <use x="581.154296875" xlink:href="#BitstreamVeraSans-Roman-6c"/>
      <use x="608.9375" xlink:href="#BitstreamVeraSans-Roman-20"/>
      <use x="640.724609375" xlink:href="#BitstreamVeraSans-Roman-4b"/>
      <use x="706.30078125" xlink:href="#BitstreamVeraSans-Roman-70"/>
      <use x="769.77734375" xlink:href="#BitstreamVeraSans-Roman-20"/>
      <use x="801.564453125" xlink:href="#BitstreamVeraSans-Roman-3d"/>
      <use x="885.353515625" xlink:href="#BitstreamVeraSans-Roman-20"/>
      <use x="917.140625" xlink:href="#BitstreamVeraSans-Roman-30"/>
      <use x="980.763671875" xlink:href="#BitstreamVeraSans-Roman-2e"/>
      <use x="1012.55078125" xlink:href="#BitstreamVeraSans-Roman-35"/>
     </g>
    </g>
    <g id="line2d_29">
     <path d="M 99.6 62.76375 
L 110.8 62.76375 
" style="fill:none;stroke:#ff0000;stroke-linecap:square;"/>
    </g>
    <g id="line2d_30"/>
    <g id="text_16">
     <!-- Integral Ki = 0.01 -->
     <g transform="translate(119.6 65.56375)scale(0.08 -0.08)">
      <use xlink:href="#BitstreamVeraSans-Roman-49"/>
      <use x="29.4921875" xlink:href="#BitstreamVeraSans-Roman-6e"/>
      <use x="92.87109375" xlink:href="#BitstreamVeraSans-Roman-74"/>
      <use x="132.080078125" xlink:href="#BitstreamVeraSans-Roman-65"/>
      <use x="193.603515625" xlink:href="#BitstreamVeraSans-Roman-67"/>
      <use x="257.080078125" xlink:href="#BitstreamVeraSans-Roman-72"/>
      <use x="298.193359375" xlink:href="#BitstreamVeraSans-Roman-61"/>
      <use x="359.47265625" xlink:href="#BitstreamVeraSans-Roman-6c"/>
      <use x="387.255859375" xlink:href="#BitstreamVeraSans-Roman-20"/>
      <use x="419.04296875" xlink:href="#BitstreamVeraSans-Roman-4b"/>
      <use x="484.619140625" xlink:href="#BitstreamVeraSans-Roman-69"/>
      <use x="512.40234375" xlink:href="#BitstreamVeraSans-Roman-20"/>
      <use x="544.189453125" xlink:href="#BitstreamVeraSans-Roman-3d"/>
      <use x="627.978515625" xlink:href="#BitstreamVeraSans-Roman-20"/>
      <use x="659.765625" xlink:href="#BitstreamVeraSans-Roman-30"/>
      <use x="723.388671875" xlink:href="#BitstreamVeraSans-Roman-2e"/>
      <use x="755.17578125" xlink:href="#BitstreamVeraSans-Roman-30"/>
      <use x="818.798828125" xlink:href="#BitstreamVeraSans-Roman-31"/>
     </g>
    </g>
    <g id="line2d_31">
     <path d="M 99.6 74.50625 
L 110.8 74.50625 
" style="fill:none;stroke:#ff9600;stroke-linecap:square;"/>
    </g>
    <g id="line2d_32"/>
    <g id="text_17">
     <!-- Derivitave Kd = 10 -->
     <defs>
      <path d="M 45.40625 46.390625 
L 45.40625 75.984375 
L 54.390625 75.984375 
L 54.390625 0 
L 45.40625 0 
L 45.40625 8.203125 
Q 42.578125 3.328125 38.25 0.953125 
Q 33.9375 -1.421875 27.875 -1.421875 
Q 17.96875 -1.421875 11.734375 6.484375 
Q 5.515625 14.40625 5.515625 27.296875 
Q 5.515625 40.1875 11.734375 48.09375 
Q 17.96875 56 27.875 56 
Q 33.9375 56 38.25 53.625 
Q 42.578125 51.265625 45.40625 46.390625 
M 14.796875 27.296875 
Q 14.796875 17.390625 18.875 11.75 
Q 22.953125 6.109375 30.078125 6.109375 
Q 37.203125 6.109375 41.296875 11.75 
Q 45.40625 17.390625 45.40625 27.296875 
Q 45.40625 37.203125 41.296875 42.84375 
Q 37.203125 48.484375 30.078125 48.484375 
Q 22.953125 48.484375 18.875 42.84375 
Q 14.796875 37.203125 14.796875 27.296875 
" id="BitstreamVeraSans-Roman-64"/>
     </defs>
     <g transform="translate(119.6 77.30625)scale(0.08 -0.08)">
      <use xlink:href="#BitstreamVeraSans-Roman-44"/>
      <use x="77.001953125" xlink:href="#BitstreamVeraSans-Roman-65"/>
      <use x="138.525390625" xlink:href="#BitstreamVeraSans-Roman-72"/>
      <use x="179.638671875" xlink:href="#BitstreamVeraSans-Roman-69"/>
      <use x="207.421875" xlink:href="#BitstreamVeraSans-Roman-76"/>
      <use x="266.6015625" xlink:href="#BitstreamVeraSans-Roman-69"/>
      <use x="294.384765625" xlink:href="#BitstreamVeraSans-Roman-74"/>
      <use x="333.59375" xlink:href="#BitstreamVeraSans-Roman-61"/>
      <use x="394.873046875" xlink:href="#BitstreamVeraSans-Roman-76"/>
      <use x="454.052734375" xlink:href="#BitstreamVeraSans-Roman-65"/>
      <use x="515.576171875" xlink:href="#BitstreamVeraSans-Roman-20"/>
      <use x="547.36328125" xlink:href="#BitstreamVeraSans-Roman-4b"/>
      <use x="612.939453125" xlink:href="#BitstreamVeraSans-Roman-64"/>
      <use x="676.416015625" xlink:href="#BitstreamVeraSans-Roman-20"/>
      <use x="708.203125" xlink:href="#BitstreamVeraSans-Roman-3d"/>
      <use x="791.9921875" xlink:href="#BitstreamVeraSans-Roman-20"/>
      <use x="823.779296875" xlink:href="#BitstreamVeraSans-Roman-31"/>
      <use x="887.40234375" xlink:href="#BitstreamVeraSans-Roman-30"/>
     </g>
    </g>
   </g>
  </g>
 </g>
 <defs>
  <clipPath id="p9263058025">
   <rect height="216.0" width="558.0" x="90.0" y="28.8"/>
  </clipPath>
 </defs>
</svg>
