<?xml version="1.0" encoding="utf-8" standalone="no"?>
<!DOCTYPE svg PUBLIC "-//W3C//DTD SVG 1.1//EN"
  "http://www.w3.org/Graphics/SVG/1.1/DTD/svg11.dtd">
<!-- Created with matplotlib (https://matplotlib.org/) -->
<svg height="576pt" version="1.1" viewBox="0 0 720 576" width="720pt" xmlns="http://www.w3.org/2000/svg" xmlns:xlink="http://www.w3.org/1999/xlink">
 <defs>
  <style type="text/css">
*{stroke-linecap:butt;stroke-linejoin:round;}
  </style>
 </defs>
 <g id="figure_1">
  <g id="patch_1">
   <path d="M 0 576 
L 720 576 
L 720 0 
L 0 0 
z
" style="fill:#ffffff;"/>
  </g>
  <g id="axes_1">
   <g id="patch_2">
    <path d="M 90 512.64 
L 648 512.64 
L 648 69.12 
L 90 69.12 
z
" style="fill:#ffffff;"/>
   </g>
   <g id="matplotlib.axis_1">
    <g id="xtick_1">
     <g id="line2d_1">
      <path clip-path="url(#pcf9df8644d)" d="M 90 512.64 
L 90 69.12 
" style="fill:none;stroke:#b0b0b0;stroke-linecap:square;stroke-width:0.8;"/>
     </g>
     <g id="line2d_2">
      <defs>
       <path d="M 0 0 
L 0 3.5 
" id="m0a009da978" style="stroke:#000000;stroke-width:0.8;"/>
      </defs>
      <g>
       <use style="stroke:#000000;stroke-width:0.8;" x="90" xlink:href="#m0a009da978" y="512.64"/>
      </g>
     </g>
     <g id="text_1">
      <!-- 0 -->
      <defs>
       <path d="M 31.78125 66.40625 
Q 24.171875 66.40625 20.328125 58.90625 
Q 16.5 51.421875 16.5 36.375 
Q 16.5 21.390625 20.328125 13.890625 
Q 24.171875 6.390625 31.78125 6.390625 
Q 39.453125 6.390625 43.28125 13.890625 
Q 47.125 21.390625 47.125 36.375 
Q 47.125 51.421875 43.28125 58.90625 
Q 39.453125 66.40625 31.78125 66.40625 
z
M 31.78125 74.21875 
Q 44.046875 74.21875 50.515625 64.515625 
Q 56.984375 54.828125 56.984375 36.375 
Q 56.984375 17.96875 50.515625 8.265625 
Q 44.046875 -1.421875 31.78125 -1.421875 
Q 19.53125 -1.421875 13.0625 8.265625 
Q 6.59375 17.96875 6.59375 36.375 
Q 6.59375 54.828125 13.0625 64.515625 
Q 19.53125 74.21875 31.78125 74.21875 
z
" id="DejaVuSans-48"/>
      </defs>
      <g transform="translate(86.81875 527.238438)scale(0.1 -0.1)">
       <use xlink:href="#DejaVuSans-48"/>
      </g>
     </g>
    </g>
    <g id="xtick_2">
     <g id="line2d_3">
      <path clip-path="url(#pcf9df8644d)" d="M 160.100503 512.64 
L 160.100503 69.12 
" style="fill:none;stroke:#b0b0b0;stroke-linecap:square;stroke-width:0.8;"/>
     </g>
     <g id="line2d_4">
      <g>
       <use style="stroke:#000000;stroke-width:0.8;" x="160.100503" xlink:href="#m0a009da978" y="512.64"/>
      </g>
     </g>
     <g id="text_2">
      <!-- 25 -->
      <defs>
       <path d="M 19.1875 8.296875 
L 53.609375 8.296875 
L 53.609375 0 
L 7.328125 0 
L 7.328125 8.296875 
Q 12.9375 14.109375 22.625 23.890625 
Q 32.328125 33.6875 34.8125 36.53125 
Q 39.546875 41.84375 41.421875 45.53125 
Q 43.3125 49.21875 43.3125 52.78125 
Q 43.3125 58.59375 39.234375 62.25 
Q 35.15625 65.921875 28.609375 65.921875 
Q 23.96875 65.921875 18.8125 64.3125 
Q 13.671875 62.703125 7.8125 59.421875 
L 7.8125 69.390625 
Q 13.765625 71.78125 18.9375 73 
Q 24.125 74.21875 28.421875 74.21875 
Q 39.75 74.21875 46.484375 68.546875 
Q 53.21875 62.890625 53.21875 53.421875 
Q 53.21875 48.921875 51.53125 44.890625 
Q 49.859375 40.875 45.40625 35.40625 
Q 44.1875 33.984375 37.640625 27.21875 
Q 31.109375 20.453125 19.1875 8.296875 
z
" id="DejaVuSans-50"/>
       <path d="M 10.796875 72.90625 
L 49.515625 72.90625 
L 49.515625 64.59375 
L 19.828125 64.59375 
L 19.828125 46.734375 
Q 21.96875 47.46875 24.109375 47.828125 
Q 26.265625 48.1875 28.421875 48.1875 
Q 40.625 48.1875 47.75 41.5 
Q 54.890625 34.8125 54.890625 23.390625 
Q 54.890625 11.625 47.5625 5.09375 
Q 40.234375 -1.421875 26.90625 -1.421875 
Q 22.3125 -1.421875 17.546875 -0.640625 
Q 12.796875 0.140625 7.71875 1.703125 
L 7.71875 11.625 
Q 12.109375 9.234375 16.796875 8.0625 
Q 21.484375 6.890625 26.703125 6.890625 
Q 35.15625 6.890625 40.078125 11.328125 
Q 45.015625 15.765625 45.015625 23.390625 
Q 45.015625 31 40.078125 35.4375 
Q 35.15625 39.890625 26.703125 39.890625 
Q 22.75 39.890625 18.8125 39.015625 
Q 14.890625 38.140625 10.796875 36.28125 
z
" id="DejaVuSans-53"/>
      </defs>
      <g transform="translate(153.738003 527.238438)scale(0.1 -0.1)">
       <use xlink:href="#DejaVuSans-50"/>
       <use x="63.623047" xlink:href="#DejaVuSans-53"/>
      </g>
     </g>
    </g>
    <g id="xtick_3">
     <g id="line2d_5">
      <path clip-path="url(#pcf9df8644d)" d="M 230.201005 512.64 
L 230.201005 69.12 
" style="fill:none;stroke:#b0b0b0;stroke-linecap:square;stroke-width:0.8;"/>
     </g>
     <g id="line2d_6">
      <g>
       <use style="stroke:#000000;stroke-width:0.8;" x="230.201005" xlink:href="#m0a009da978" y="512.64"/>
      </g>
     </g>
     <g id="text_3">
      <!-- 50 -->
      <g transform="translate(223.838505 527.238438)scale(0.1 -0.1)">
       <use xlink:href="#DejaVuSans-53"/>
       <use x="63.623047" xlink:href="#DejaVuSans-48"/>
      </g>
     </g>
    </g>
    <g id="xtick_4">
     <g id="line2d_7">
      <path clip-path="url(#pcf9df8644d)" d="M 300.301508 512.64 
L 300.301508 69.12 
" style="fill:none;stroke:#b0b0b0;stroke-linecap:square;stroke-width:0.8;"/>
     </g>
     <g id="line2d_8">
      <g>
       <use style="stroke:#000000;stroke-width:0.8;" x="300.301508" xlink:href="#m0a009da978" y="512.64"/>
      </g>
     </g>
     <g id="text_4">
      <!-- 75 -->
      <defs>
       <path d="M 8.203125 72.90625 
L 55.078125 72.90625 
L 55.078125 68.703125 
L 28.609375 0 
L 18.3125 0 
L 43.21875 64.59375 
L 8.203125 64.59375 
z
" id="DejaVuSans-55"/>
      </defs>
      <g transform="translate(293.939008 527.238438)scale(0.1 -0.1)">
       <use xlink:href="#DejaVuSans-55"/>
       <use x="63.623047" xlink:href="#DejaVuSans-53"/>
      </g>
     </g>
    </g>
    <g id="xtick_5">
     <g id="line2d_9">
      <path clip-path="url(#pcf9df8644d)" d="M 370.40201 512.64 
L 370.40201 69.12 
" style="fill:none;stroke:#b0b0b0;stroke-linecap:square;stroke-width:0.8;"/>
     </g>
     <g id="line2d_10">
      <g>
       <use style="stroke:#000000;stroke-width:0.8;" x="370.40201" xlink:href="#m0a009da978" y="512.64"/>
      </g>
     </g>
     <g id="text_5">
      <!-- 100 -->
      <defs>
       <path d="M 12.40625 8.296875 
L 28.515625 8.296875 
L 28.515625 63.921875 
L 10.984375 60.40625 
L 10.984375 69.390625 
L 28.421875 72.90625 
L 38.28125 72.90625 
L 38.28125 8.296875 
L 54.390625 8.296875 
L 54.390625 0 
L 12.40625 0 
z
" id="DejaVuSans-49"/>
      </defs>
      <g transform="translate(360.85826 527.238438)scale(0.1 -0.1)">
       <use xlink:href="#DejaVuSans-49"/>
       <use x="63.623047" xlink:href="#DejaVuSans-48"/>
       <use x="127.246094" xlink:href="#DejaVuSans-48"/>
      </g>
     </g>
    </g>
    <g id="xtick_6">
     <g id="line2d_11">
      <path clip-path="url(#pcf9df8644d)" d="M 440.502513 512.64 
L 440.502513 69.12 
" style="fill:none;stroke:#b0b0b0;stroke-linecap:square;stroke-width:0.8;"/>
     </g>
     <g id="line2d_12">
      <g>
       <use style="stroke:#000000;stroke-width:0.8;" x="440.502513" xlink:href="#m0a009da978" y="512.64"/>
      </g>
     </g>
     <g id="text_6">
      <!-- 125 -->
      <g transform="translate(430.958763 527.238438)scale(0.1 -0.1)">
       <use xlink:href="#DejaVuSans-49"/>
       <use x="63.623047" xlink:href="#DejaVuSans-50"/>
       <use x="127.246094" xlink:href="#DejaVuSans-53"/>
      </g>
     </g>
    </g>
    <g id="xtick_7">
     <g id="line2d_13">
      <path clip-path="url(#pcf9df8644d)" d="M 510.603015 512.64 
L 510.603015 69.12 
" style="fill:none;stroke:#b0b0b0;stroke-linecap:square;stroke-width:0.8;"/>
     </g>
     <g id="line2d_14">
      <g>
       <use style="stroke:#000000;stroke-width:0.8;" x="510.603015" xlink:href="#m0a009da978" y="512.64"/>
      </g>
     </g>
     <g id="text_7">
      <!-- 150 -->
      <g transform="translate(501.059265 527.238438)scale(0.1 -0.1)">
       <use xlink:href="#DejaVuSans-49"/>
       <use x="63.623047" xlink:href="#DejaVuSans-53"/>
       <use x="127.246094" xlink:href="#DejaVuSans-48"/>
      </g>
     </g>
    </g>
    <g id="xtick_8">
     <g id="line2d_15">
      <path clip-path="url(#pcf9df8644d)" d="M 580.703518 512.64 
L 580.703518 69.12 
" style="fill:none;stroke:#b0b0b0;stroke-linecap:square;stroke-width:0.8;"/>
     </g>
     <g id="line2d_16">
      <g>
       <use style="stroke:#000000;stroke-width:0.8;" x="580.703518" xlink:href="#m0a009da978" y="512.64"/>
      </g>
     </g>
     <g id="text_8">
      <!-- 175 -->
      <g transform="translate(571.159768 527.238438)scale(0.1 -0.1)">
       <use xlink:href="#DejaVuSans-49"/>
       <use x="63.623047" xlink:href="#DejaVuSans-55"/>
       <use x="127.246094" xlink:href="#DejaVuSans-53"/>
      </g>
     </g>
    </g>
    <g id="text_9">
     <!-- Data Point -->
     <defs>
      <path d="M 19.671875 64.796875 
L 19.671875 8.109375 
L 31.59375 8.109375 
Q 46.6875 8.109375 53.6875 14.9375 
Q 60.6875 21.78125 60.6875 36.53125 
Q 60.6875 51.171875 53.6875 57.984375 
Q 46.6875 64.796875 31.59375 64.796875 
z
M 9.8125 72.90625 
L 30.078125 72.90625 
Q 51.265625 72.90625 61.171875 64.09375 
Q 71.09375 55.28125 71.09375 36.53125 
Q 71.09375 17.671875 61.125 8.828125 
Q 51.171875 0 30.078125 0 
L 9.8125 0 
z
" id="DejaVuSans-68"/>
      <path d="M 34.28125 27.484375 
Q 23.390625 27.484375 19.1875 25 
Q 14.984375 22.515625 14.984375 16.5 
Q 14.984375 11.71875 18.140625 8.90625 
Q 21.296875 6.109375 26.703125 6.109375 
Q 34.1875 6.109375 38.703125 11.40625 
Q 43.21875 16.703125 43.21875 25.484375 
L 43.21875 27.484375 
z
M 52.203125 31.203125 
L 52.203125 0 
L 43.21875 0 
L 43.21875 8.296875 
Q 40.140625 3.328125 35.546875 0.953125 
Q 30.953125 -1.421875 24.3125 -1.421875 
Q 15.921875 -1.421875 10.953125 3.296875 
Q 6 8.015625 6 15.921875 
Q 6 25.140625 12.171875 29.828125 
Q 18.359375 34.515625 30.609375 34.515625 
L 43.21875 34.515625 
L 43.21875 35.40625 
Q 43.21875 41.609375 39.140625 45 
Q 35.0625 48.390625 27.6875 48.390625 
Q 23 48.390625 18.546875 47.265625 
Q 14.109375 46.140625 10.015625 43.890625 
L 10.015625 52.203125 
Q 14.9375 54.109375 19.578125 55.046875 
Q 24.21875 56 28.609375 56 
Q 40.484375 56 46.34375 49.84375 
Q 52.203125 43.703125 52.203125 31.203125 
z
" id="DejaVuSans-97"/>
      <path d="M 18.3125 70.21875 
L 18.3125 54.6875 
L 36.8125 54.6875 
L 36.8125 47.703125 
L 18.3125 47.703125 
L 18.3125 18.015625 
Q 18.3125 11.328125 20.140625 9.421875 
Q 21.96875 7.515625 27.59375 7.515625 
L 36.8125 7.515625 
L 36.8125 0 
L 27.59375 0 
Q 17.1875 0 13.234375 3.875 
Q 9.28125 7.765625 9.28125 18.015625 
L 9.28125 47.703125 
L 2.6875 47.703125 
L 2.6875 54.6875 
L 9.28125 54.6875 
L 9.28125 70.21875 
z
" id="DejaVuSans-116"/>
      <path id="DejaVuSans-32"/>
      <path d="M 19.671875 64.796875 
L 19.671875 37.40625 
L 32.078125 37.40625 
Q 38.96875 37.40625 42.71875 40.96875 
Q 46.484375 44.53125 46.484375 51.125 
Q 46.484375 57.671875 42.71875 61.234375 
Q 38.96875 64.796875 32.078125 64.796875 
z
M 9.8125 72.90625 
L 32.078125 72.90625 
Q 44.34375 72.90625 50.609375 67.359375 
Q 56.890625 61.8125 56.890625 51.125 
Q 56.890625 40.328125 50.609375 34.8125 
Q 44.34375 29.296875 32.078125 29.296875 
L 19.671875 29.296875 
L 19.671875 0 
L 9.8125 0 
z
" id="DejaVuSans-80"/>
      <path d="M 30.609375 48.390625 
Q 23.390625 48.390625 19.1875 42.75 
Q 14.984375 37.109375 14.984375 27.296875 
Q 14.984375 17.484375 19.15625 11.84375 
Q 23.34375 6.203125 30.609375 6.203125 
Q 37.796875 6.203125 41.984375 11.859375 
Q 46.1875 17.53125 46.1875 27.296875 
Q 46.1875 37.015625 41.984375 42.703125 
Q 37.796875 48.390625 30.609375 48.390625 
z
M 30.609375 56 
Q 42.328125 56 49.015625 48.375 
Q 55.71875 40.765625 55.71875 27.296875 
Q 55.71875 13.875 49.015625 6.21875 
Q 42.328125 -1.421875 30.609375 -1.421875 
Q 18.84375 -1.421875 12.171875 6.21875 
Q 5.515625 13.875 5.515625 27.296875 
Q 5.515625 40.765625 12.171875 48.375 
Q 18.84375 56 30.609375 56 
z
" id="DejaVuSans-111"/>
      <path d="M 9.421875 54.6875 
L 18.40625 54.6875 
L 18.40625 0 
L 9.421875 0 
z
M 9.421875 75.984375 
L 18.40625 75.984375 
L 18.40625 64.59375 
L 9.421875 64.59375 
z
" id="DejaVuSans-105"/>
      <path d="M 54.890625 33.015625 
L 54.890625 0 
L 45.90625 0 
L 45.90625 32.71875 
Q 45.90625 40.484375 42.875 44.328125 
Q 39.84375 48.1875 33.796875 48.1875 
Q 26.515625 48.1875 22.3125 43.546875 
Q 18.109375 38.921875 18.109375 30.90625 
L 18.109375 0 
L 9.078125 0 
L 9.078125 54.6875 
L 18.109375 54.6875 
L 18.109375 46.1875 
Q 21.34375 51.125 25.703125 53.5625 
Q 30.078125 56 35.796875 56 
Q 45.21875 56 50.046875 50.171875 
Q 54.890625 44.34375 54.890625 33.015625 
z
" id="DejaVuSans-110"/>
     </defs>
     <g transform="translate(342.882812 540.916563)scale(0.1 -0.1)">
      <use xlink:href="#DejaVuSans-68"/>
      <use x="77.001953" xlink:href="#DejaVuSans-97"/>
      <use x="138.28125" xlink:href="#DejaVuSans-116"/>
      <use x="177.490234" xlink:href="#DejaVuSans-97"/>
      <use x="238.769531" xlink:href="#DejaVuSans-32"/>
      <use x="270.556641" xlink:href="#DejaVuSans-80"/>
      <use x="330.8125" xlink:href="#DejaVuSans-111"/>
      <use x="391.994141" xlink:href="#DejaVuSans-105"/>
      <use x="419.777344" xlink:href="#DejaVuSans-110"/>
      <use x="483.15625" xlink:href="#DejaVuSans-116"/>
     </g>
    </g>
   </g>
   <g id="matplotlib.axis_2">
    <g id="ytick_1">
     <g id="line2d_17">
      <path clip-path="url(#pcf9df8644d)" d="M 90 465.655884 
L 648 465.655884 
" style="fill:none;stroke:#b0b0b0;stroke-linecap:square;stroke-width:0.8;"/>
     </g>
     <g id="line2d_18">
      <defs>
       <path d="M 0 0 
L -3.5 0 
" id="m9e3fe085c2" style="stroke:#000000;stroke-width:0.8;"/>
      </defs>
      <g>
       <use style="stroke:#000000;stroke-width:0.8;" x="90" xlink:href="#m9e3fe085c2" y="465.655884"/>
      </g>
     </g>
     <g id="text_10">
      <!-- −10 -->
      <defs>
       <path d="M 10.59375 35.5 
L 73.1875 35.5 
L 73.1875 27.203125 
L 10.59375 27.203125 
z
" id="DejaVuSans-8722"/>
      </defs>
      <g transform="translate(61.895313 469.455102)scale(0.1 -0.1)">
       <use xlink:href="#DejaVuSans-8722"/>
       <use x="83.789062" xlink:href="#DejaVuSans-49"/>
       <use x="147.412109" xlink:href="#DejaVuSans-48"/>
      </g>
     </g>
    </g>
    <g id="ytick_2">
     <g id="line2d_19">
      <path clip-path="url(#pcf9df8644d)" d="M 90 405.780624 
L 648 405.780624 
" style="fill:none;stroke:#b0b0b0;stroke-linecap:square;stroke-width:0.8;"/>
     </g>
     <g id="line2d_20">
      <g>
       <use style="stroke:#000000;stroke-width:0.8;" x="90" xlink:href="#m9e3fe085c2" y="405.780624"/>
      </g>
     </g>
     <g id="text_11">
      <!-- −5 -->
      <g transform="translate(68.257812 409.579842)scale(0.1 -0.1)">
       <use xlink:href="#DejaVuSans-8722"/>
       <use x="83.789062" xlink:href="#DejaVuSans-53"/>
      </g>
     </g>
    </g>
    <g id="ytick_3">
     <g id="line2d_21">
      <path clip-path="url(#pcf9df8644d)" d="M 90 345.905364 
L 648 345.905364 
" style="fill:none;stroke:#b0b0b0;stroke-linecap:square;stroke-width:0.8;"/>
     </g>
     <g id="line2d_22">
      <g>
       <use style="stroke:#000000;stroke-width:0.8;" x="90" xlink:href="#m9e3fe085c2" y="345.905364"/>
      </g>
     </g>
     <g id="text_12">
      <!-- 0 -->
      <g transform="translate(76.6375 349.704583)scale(0.1 -0.1)">
       <use xlink:href="#DejaVuSans-48"/>
      </g>
     </g>
    </g>
    <g id="ytick_4">
     <g id="line2d_23">
      <path clip-path="url(#pcf9df8644d)" d="M 90 286.030104 
L 648 286.030104 
" style="fill:none;stroke:#b0b0b0;stroke-linecap:square;stroke-width:0.8;"/>
     </g>
     <g id="line2d_24">
      <g>
       <use style="stroke:#000000;stroke-width:0.8;" x="90" xlink:href="#m9e3fe085c2" y="286.030104"/>
      </g>
     </g>
     <g id="text_13">
      <!-- 5 -->
      <g transform="translate(76.6375 289.829323)scale(0.1 -0.1)">
       <use xlink:href="#DejaVuSans-53"/>
      </g>
     </g>
    </g>
    <g id="ytick_5">
     <g id="line2d_25">
      <path clip-path="url(#pcf9df8644d)" d="M 90 226.154844 
L 648 226.154844 
" style="fill:none;stroke:#b0b0b0;stroke-linecap:square;stroke-width:0.8;"/>
     </g>
     <g id="line2d_26">
      <g>
       <use style="stroke:#000000;stroke-width:0.8;" x="90" xlink:href="#m9e3fe085c2" y="226.154844"/>
      </g>
     </g>
     <g id="text_14">
      <!-- 10 -->
      <g transform="translate(70.275 229.954063)scale(0.1 -0.1)">
       <use xlink:href="#DejaVuSans-49"/>
       <use x="63.623047" xlink:href="#DejaVuSans-48"/>
      </g>
     </g>
    </g>
    <g id="ytick_6">
     <g id="line2d_27">
      <path clip-path="url(#pcf9df8644d)" d="M 90 166.279584 
L 648 166.279584 
" style="fill:none;stroke:#b0b0b0;stroke-linecap:square;stroke-width:0.8;"/>
     </g>
     <g id="line2d_28">
      <g>
       <use style="stroke:#000000;stroke-width:0.8;" x="90" xlink:href="#m9e3fe085c2" y="166.279584"/>
      </g>
     </g>
     <g id="text_15">
      <!-- 15 -->
      <g transform="translate(70.275 170.078803)scale(0.1 -0.1)">
       <use xlink:href="#DejaVuSans-49"/>
       <use x="63.623047" xlink:href="#DejaVuSans-53"/>
      </g>
     </g>
    </g>
    <g id="ytick_7">
     <g id="line2d_29">
      <path clip-path="url(#pcf9df8644d)" d="M 90 106.404324 
L 648 106.404324 
" style="fill:none;stroke:#b0b0b0;stroke-linecap:square;stroke-width:0.8;"/>
     </g>
     <g id="line2d_30">
      <g>
       <use style="stroke:#000000;stroke-width:0.8;" x="90" xlink:href="#m9e3fe085c2" y="106.404324"/>
      </g>
     </g>
     <g id="text_16">
      <!-- 20 -->
      <g transform="translate(70.275 110.203543)scale(0.1 -0.1)">
       <use xlink:href="#DejaVuSans-50"/>
       <use x="63.623047" xlink:href="#DejaVuSans-48"/>
      </g>
     </g>
    </g>
    <g id="text_17">
     <!-- Arb. Units -->
     <defs>
      <path d="M 34.1875 63.1875 
L 20.796875 26.90625 
L 47.609375 26.90625 
z
M 28.609375 72.90625 
L 39.796875 72.90625 
L 67.578125 0 
L 57.328125 0 
L 50.6875 18.703125 
L 17.828125 18.703125 
L 11.1875 0 
L 0.78125 0 
z
" id="DejaVuSans-65"/>
      <path d="M 41.109375 46.296875 
Q 39.59375 47.171875 37.8125 47.578125 
Q 36.03125 48 33.890625 48 
Q 26.265625 48 22.1875 43.046875 
Q 18.109375 38.09375 18.109375 28.8125 
L 18.109375 0 
L 9.078125 0 
L 9.078125 54.6875 
L 18.109375 54.6875 
L 18.109375 46.1875 
Q 20.953125 51.171875 25.484375 53.578125 
Q 30.03125 56 36.53125 56 
Q 37.453125 56 38.578125 55.875 
Q 39.703125 55.765625 41.0625 55.515625 
z
" id="DejaVuSans-114"/>
      <path d="M 48.6875 27.296875 
Q 48.6875 37.203125 44.609375 42.84375 
Q 40.53125 48.484375 33.40625 48.484375 
Q 26.265625 48.484375 22.1875 42.84375 
Q 18.109375 37.203125 18.109375 27.296875 
Q 18.109375 17.390625 22.1875 11.75 
Q 26.265625 6.109375 33.40625 6.109375 
Q 40.53125 6.109375 44.609375 11.75 
Q 48.6875 17.390625 48.6875 27.296875 
z
M 18.109375 46.390625 
Q 20.953125 51.265625 25.265625 53.625 
Q 29.59375 56 35.59375 56 
Q 45.5625 56 51.78125 48.09375 
Q 58.015625 40.1875 58.015625 27.296875 
Q 58.015625 14.40625 51.78125 6.484375 
Q 45.5625 -1.421875 35.59375 -1.421875 
Q 29.59375 -1.421875 25.265625 0.953125 
Q 20.953125 3.328125 18.109375 8.203125 
L 18.109375 0 
L 9.078125 0 
L 9.078125 75.984375 
L 18.109375 75.984375 
z
" id="DejaVuSans-98"/>
      <path d="M 10.6875 12.40625 
L 21 12.40625 
L 21 0 
L 10.6875 0 
z
" id="DejaVuSans-46"/>
      <path d="M 8.6875 72.90625 
L 18.609375 72.90625 
L 18.609375 28.609375 
Q 18.609375 16.890625 22.84375 11.734375 
Q 27.09375 6.59375 36.625 6.59375 
Q 46.09375 6.59375 50.34375 11.734375 
Q 54.59375 16.890625 54.59375 28.609375 
L 54.59375 72.90625 
L 64.5 72.90625 
L 64.5 27.390625 
Q 64.5 13.140625 57.4375 5.859375 
Q 50.390625 -1.421875 36.625 -1.421875 
Q 22.796875 -1.421875 15.734375 5.859375 
Q 8.6875 13.140625 8.6875 27.390625 
z
" id="DejaVuSans-85"/>
      <path d="M 44.28125 53.078125 
L 44.28125 44.578125 
Q 40.484375 46.53125 36.375 47.5 
Q 32.28125 48.484375 27.875 48.484375 
Q 21.1875 48.484375 17.84375 46.4375 
Q 14.5 44.390625 14.5 40.28125 
Q 14.5 37.15625 16.890625 35.375 
Q 19.28125 33.59375 26.515625 31.984375 
L 29.59375 31.296875 
Q 39.15625 29.25 43.1875 25.515625 
Q 47.21875 21.78125 47.21875 15.09375 
Q 47.21875 7.46875 41.1875 3.015625 
Q 35.15625 -1.421875 24.609375 -1.421875 
Q 20.21875 -1.421875 15.453125 -0.5625 
Q 10.6875 0.296875 5.421875 2 
L 5.421875 11.28125 
Q 10.40625 8.6875 15.234375 7.390625 
Q 20.0625 6.109375 24.8125 6.109375 
Q 31.15625 6.109375 34.5625 8.28125 
Q 37.984375 10.453125 37.984375 14.40625 
Q 37.984375 18.0625 35.515625 20.015625 
Q 33.0625 21.96875 24.703125 23.78125 
L 21.578125 24.515625 
Q 13.234375 26.265625 9.515625 29.90625 
Q 5.8125 33.546875 5.8125 39.890625 
Q 5.8125 47.609375 11.28125 51.796875 
Q 16.75 56 26.8125 56 
Q 31.78125 56 36.171875 55.265625 
Q 40.578125 54.546875 44.28125 53.078125 
z
" id="DejaVuSans-115"/>
     </defs>
     <g transform="translate(55.815625 315.490156)rotate(-90)scale(0.1 -0.1)">
      <use xlink:href="#DejaVuSans-65"/>
      <use x="68.408203" xlink:href="#DejaVuSans-114"/>
      <use x="109.521484" xlink:href="#DejaVuSans-98"/>
      <use x="172.998047" xlink:href="#DejaVuSans-46"/>
      <use x="204.785156" xlink:href="#DejaVuSans-32"/>
      <use x="236.572266" xlink:href="#DejaVuSans-85"/>
      <use x="309.765625" xlink:href="#DejaVuSans-110"/>
      <use x="373.144531" xlink:href="#DejaVuSans-105"/>
      <use x="400.927734" xlink:href="#DejaVuSans-116"/>
      <use x="440.136719" xlink:href="#DejaVuSans-115"/>
     </g>
    </g>
   </g>
   <g id="line2d_31">
    <path clip-path="url(#pcf9df8644d)" d="M 90 345.905364 
L 92.80402 136.341954 
L 95.60804 130.354428 
L 101.21608 130.354428 
L 104.020101 142.32948 
L 106.824121 136.341954 
L 109.628141 136.341954 
L 112.432161 142.32948 
L 115.236181 142.32948 
L 118.040201 136.341954 
L 120.844221 136.341954 
L 123.648241 142.32948 
L 132.060302 142.32948 
L 134.864322 136.341954 
L 143.276382 154.304532 
L 148.884422 142.32948 
L 151.688442 166.279584 
L 154.492462 154.304532 
L 157.296482 166.279584 
L 160.100503 160.292058 
L 162.904523 160.292058 
L 165.708543 172.26711 
L 168.512563 166.279584 
L 176.924623 166.279584 
L 179.728643 178.254636 
L 202.160804 178.254636 
L 207.768844 166.279584 
L 210.572864 166.279584 
L 213.376884 172.26711 
L 216.180905 172.26711 
L 218.984925 178.254636 
L 224.592965 166.279584 
L 227.396985 166.279584 
L 233.005025 178.254636 
L 235.809045 166.279584 
L 244.221106 166.279584 
L 247.025126 154.304532 
L 249.829146 154.304532 
L 255.437186 166.279584 
L 258.241206 160.292058 
L 261.045226 166.279584 
L 263.849246 166.279584 
L 266.653266 160.292058 
L 272.261307 160.292058 
L 275.065327 166.279584 
L 277.869347 160.292058 
L 280.673367 160.292058 
L 286.281407 148.317006 
L 289.085427 154.304532 
L 294.693467 142.32948 
L 303.105528 142.32948 
L 305.909548 154.304532 
L 308.713568 160.292058 
L 311.517588 154.304532 
L 317.125628 154.304532 
L 319.929648 148.317006 
L 322.733668 154.304532 
L 328.341709 142.32948 
L 333.949749 142.32948 
L 339.557789 154.304532 
L 342.361809 154.304532 
L 345.165829 148.317006 
L 347.969849 148.317006 
L 350.773869 142.32948 
L 359.18593 142.32948 
L 361.98995 136.341954 
L 364.79397 142.32948 
L 367.59799 142.32948 
L 370.40201 136.341954 
L 376.01005 136.341954 
L 378.81407 142.32948 
L 381.61809 130.354428 
L 384.422111 136.341954 
L 387.226131 130.354428 
L 390.030151 142.32948 
L 454.522613 142.32948 
L 460.130653 154.304532 
L 462.934673 154.304532 
L 465.738693 148.317006 
L 468.542714 154.304532 
L 474.150754 142.32948 
L 479.758794 142.32948 
L 482.562814 148.317006 
L 485.366834 148.317006 
L 488.170854 154.304532 
L 493.778894 142.32948 
L 502.190955 142.32948 
L 504.994975 136.341954 
L 507.798995 142.32948 
L 513.407035 142.32948 
L 516.211055 154.304532 
L 524.623116 154.304532 
L 527.427136 160.292058 
L 535.839196 142.32948 
L 538.643216 142.32948 
L 541.447236 154.304532 
L 544.251256 154.304532 
L 547.055276 166.279584 
L 549.859296 166.279584 
L 552.663317 160.292058 
L 555.467337 166.279584 
L 558.271357 154.304532 
L 563.879397 154.304532 
L 569.487437 166.279584 
L 583.507538 166.279584 
L 586.311558 160.292058 
L 591.919598 160.292058 
L 594.723618 166.279584 
L 597.527638 166.279584 
L 603.135678 178.254636 
L 605.939698 178.254636 
L 611.547739 166.279584 
L 625.567839 166.279584 
L 631.175879 178.254636 
L 639.58794 178.254636 
L 642.39196 184.242162 
L 645.19598 178.254636 
L 648 178.254636 
L 648 178.254636 
" style="fill:none;stroke:#ff0000;stroke-linecap:square;stroke-width:1.5;"/>
   </g>
   <g id="line2d_32">
    <path clip-path="url(#pcf9df8644d)" d="M 90 345.905364 
L 92.80402 347.941123 
L 95.60804 348.539875 
L 98.41206 349.378129 
L 101.21608 349.73738 
L 104.020101 350.695385 
L 106.824121 350.934886 
L 109.628141 351.413888 
L 112.432161 352.371892 
L 115.236181 354.048399 
L 118.040201 355.126154 
L 120.844221 356.56316 
L 123.648241 356.922412 
L 126.452261 358.359418 
L 129.256281 358.359418 
L 132.060302 353.928649 
L 134.864322 346.384366 
L 137.668342 339.199335 
L 140.472362 332.732807 
L 143.276382 327.583534 
L 146.080402 319.560249 
L 148.884422 309.501206 
L 151.688442 301.837173 
L 154.492462 295.250894 
L 157.296482 286.269605 
L 160.100503 274.534054 
L 162.904523 266.151518 
L 165.708543 262.319501 
L 168.512563 259.325738 
L 171.316583 256.930728 
L 174.120603 255.25422 
L 176.924623 253.098711 
L 179.728643 250.703701 
L 182.532663 249.506195 
L 185.336683 247.590187 
L 188.140704 246.512432 
L 190.944724 246.871684 
L 193.748744 247.590187 
L 196.552764 247.709938 
L 199.356784 247.590187 
L 202.160804 247.709938 
L 204.964824 248.18894 
L 207.768844 248.907443 
L 210.572864 249.985198 
L 213.376884 253.098711 
L 216.180905 257.52948 
L 218.984925 263.277505 
L 221.788945 273.6958 
L 224.592965 283.036341 
L 227.396985 290.460873 
L 230.201005 299.561913 
L 233.005025 304.591435 
L 235.809045 318.123243 
L 238.613065 327.823035 
L 241.417085 333.930312 
L 244.221106 342.432599 
L 247.025126 353.689148 
L 249.829146 357.521164 
L 252.633166 359.796424 
L 255.437186 360.514927 
L 258.241206 363.50869 
L 261.045226 364.466694 
L 263.849246 364.586445 
L 266.653266 365.544449 
L 269.457286 368.657963 
L 272.261307 372.849231 
L 275.065327 373.807235 
L 277.869347 374.645489 
L 280.673367 376.800998 
L 286.281407 385.423035 
L 289.085427 389.973555 
L 291.889447 394.883326 
L 297.497487 400.032599 
L 300.301508 404.82262 
L 303.105528 413.803909 
L 308.713568 424.581455 
L 311.517588 428.892474 
L 314.321608 430.449231 
L 317.125628 433.083742 
L 319.929648 434.400998 
L 322.733668 436.077505 
L 325.537688 437.993514 
L 331.145729 444.579792 
L 333.949749 443.382287 
L 336.753769 442.424283 
L 339.557789 443.142786 
L 342.361809 444.939044 
L 345.165829 444.579792 
L 347.969849 445.178545 
L 350.773869 448.531559 
L 353.577889 453.920333 
L 356.38191 455.59684 
L 359.18593 455.357339 
L 361.98995 455.956091 
L 364.79397 456.914096 
L 367.59799 458.111601 
L 370.40201 460.027609 
L 376.01005 460.746112 
L 378.81407 460.386861 
L 381.61809 460.865863 
L 384.422111 462.302869 
L 387.226131 463.979376 
L 390.030151 464.458378 
L 392.834171 465.775634 
L 395.638191 466.494137 
L 398.442211 467.452141 
L 401.246231 469.128649 
L 404.050251 469.847152 
L 406.854271 471.403909 
L 409.658291 472.002661 
L 415.266332 473.439667 
L 418.070352 474.03842 
L 420.874372 474.397672 
L 423.678392 475.116175 
L 426.482412 475.954428 
L 429.286432 476.553181 
L 432.090452 476.912432 
L 434.894472 477.990187 
L 437.698492 478.109938 
L 443.306533 478.828441 
L 446.110553 478.948191 
L 448.914573 479.786445 
L 451.718593 481.103701 
L 454.522613 481.822204 
L 457.326633 483.25921 
L 460.130653 485.294969 
L 465.738693 488.887484 
L 468.542714 490.08499 
L 471.346734 490.923243 
L 474.150754 491.641746 
L 476.954774 492.48 
L 479.758794 490.444241 
L 482.562814 484.097464 
L 485.366834 481.343202 
L 488.170854 480.265447 
L 490.974874 478.109938 
L 493.778894 474.15817 
L 496.582915 469.128649 
L 499.386935 468.529896 
L 502.190955 467.691642 
L 504.994975 467.09289 
L 507.798995 466.015135 
L 510.603015 464.338628 
L 513.407035 460.985613 
L 516.211055 458.830104 
L 519.015075 457.033846 
L 524.623116 452.483326 
L 527.427136 451.525322 
L 530.231156 448.052557 
L 533.035176 443.861289 
L 535.839196 440.987277 
L 538.643216 437.394761 
L 541.447236 435.239252 
L 544.251256 431.047983 
L 547.055276 428.413472 
L 549.859296 426.617214 
L 552.663317 422.904948 
L 561.075377 412.965655 
L 563.879397 410.211393 
L 566.683417 407.936133 
L 569.487437 405.301622 
L 572.291457 402.188108 
L 575.095477 397.99684 
L 577.899497 393.087069 
L 580.703518 390.811809 
L 583.507538 389.015551 
L 586.311558 388.416798 
L 589.115578 386.860042 
L 591.919598 386.38104 
L 594.723618 385.423035 
L 597.527638 384.584782 
L 600.331658 380.872516 
L 605.939698 375.723243 
L 608.743719 372.72948 
L 611.547739 370.33447 
L 614.351759 368.657963 
L 617.155779 364.945696 
L 619.959799 360.993929 
L 622.763819 357.401414 
L 625.567839 355.006403 
L 628.371859 353.329896 
L 631.175879 349.378129 
L 633.979899 346.144865 
L 636.78392 344.827609 
L 642.39196 339.917838 
L 645.19598 337.043825 
L 648 338.959834 
L 648 338.959834 
" style="fill:none;stroke:#00ff00;stroke-linecap:square;stroke-width:1.5;"/>
   </g>
   <g id="line2d_33">
    <path clip-path="url(#pcf9df8644d)" d="M 90 345.905364 
L 92.80402 262.199751 
L 95.60804 244.476674 
L 98.41206 244.237173 
L 101.21608 244.835925 
L 104.020101 245.91368 
L 106.824121 244.117422 
L 109.628141 240.644657 
L 112.432161 268.786029 
L 115.236181 259.325738 
L 118.040201 288.185613 
L 120.844221 257.888732 
L 123.648241 286.509106 
L 126.452261 302.316175 
L 129.256281 280.641331 
L 132.060302 243.75817 
L 134.864322 231.304116 
L 137.668342 247.709938 
L 140.472362 224.358586 
L 143.276382 216.814304 
L 146.080402 193.223451 
L 148.884422 181.727401 
L 151.688442 186.517422 
L 154.492462 187.595177 
L 157.296482 202.08499 
L 160.100503 156.460042 
L 162.904523 172.626362 
L 165.708543 177.416383 
L 168.512563 119.33738 
L 171.316583 141.730728 
L 174.120603 148.556507 
L 176.924623 124.366902 
L 179.728643 163.04632 
L 182.532663 135.623451 
L 185.336683 139.096216 
L 188.140704 110.715343 
L 190.944724 146.520748 
L 193.748744 111.553597 
L 196.552764 125.803909 
L 199.356784 155.262536 
L 202.160804 95.028025 
L 207.768844 125.923659 
L 210.572864 187.116175 
L 213.376884 127.839667 
L 216.180905 141.251726 
L 218.984925 135.982703 
L 221.788945 154.544033 
L 224.592965 166.998087 
L 227.396985 174.54237 
L 230.201005 172.386861 
L 233.005025 158.016798 
L 235.809045 156.699543 
L 238.613065 225.915343 
L 241.417085 217.413056 
L 244.221106 181.008898 
L 247.025126 226.753597 
L 249.829146 241.003909 
L 252.633166 225.795593 
L 255.437186 188.553181 
L 258.241206 238.489148 
L 261.045226 286.149854 
L 263.849246 253.697464 
L 266.653266 243.518669 
L 269.457286 217.053805 
L 272.261307 269.265031 
L 275.065327 253.218462 
L 277.869347 226.514096 
L 280.673367 221.245073 
L 283.477387 288.065863 
L 286.281407 226.035094 
L 289.085427 290.820125 
L 291.889447 279.084574 
L 294.693467 262.918254 
L 297.497487 263.157755 
L 300.301508 261.121996 
L 303.105528 282.91659 
L 305.909548 297.645904 
L 308.713568 326.026778 
L 311.517588 291.059626 
L 314.321608 298.484158 
L 317.125628 293.694137 
L 319.929648 310.698711 
L 322.733668 277.767318 
L 325.537688 289.981871 
L 328.341709 316.925738 
L 331.145729 394.883326 
L 333.949749 297.406403 
L 336.753769 251.062952 
L 339.557789 321.596008 
L 342.361809 328.062536 
L 345.165829 284.832599 
L 347.969849 277.048815 
L 350.773869 286.149854 
L 353.577889 375.363992 
L 356.38191 261.481247 
L 359.18593 348.779376 
L 361.98995 346.025114 
L 364.79397 244.117422 
L 367.59799 332.493306 
L 370.40201 346.623867 
L 373.20603 315.00973 
L 376.01005 352.850894 
L 378.81407 341.953597 
L 381.61809 288.784366 
L 384.422111 288.305364 
L 387.226131 368.17896 
L 390.030151 295.729896 
L 392.834171 326.50578 
L 395.638191 275.132807 
L 398.442211 294.173139 
L 401.246231 336.924075 
L 404.050251 325.308274 
L 406.854271 324.23052 
L 409.658291 329.260042 
L 412.462312 324.470021 
L 415.266332 318.602245 
L 418.070352 353.210146 
L 420.874372 306.507443 
L 423.678392 360.634678 
L 426.482412 344.109106 
L 429.286432 361.23343 
L 432.090452 319.68 
L 434.894472 267.588524 
L 437.698492 299.681663 
L 440.502513 362.670437 
L 443.306533 304.112432 
L 446.110553 274.653805 
L 448.914573 275.013056 
L 451.718593 289.023867 
L 454.522613 334.888316 
L 457.326633 342.193098 
L 460.130653 355.724906 
L 462.934673 302.316175 
L 465.738693 230.585613 
L 468.542714 376.681247 
L 471.346734 307.944449 
L 474.150754 357.760665 
L 476.954774 328.541538 
L 479.758794 297.885405 
L 482.562814 315.249231 
L 485.366834 312.135717 
L 488.170854 302.076674 
L 490.974874 333.331559 
L 493.778894 323.871268 
L 496.582915 319.68 
L 499.386935 310.339459 
L 502.190955 331.894553 
L 504.994975 345.905364 
L 507.798995 288.185613 
L 510.603015 243.63842 
L 513.407035 299.322412 
L 516.211055 323.631767 
L 519.015075 228.909106 
L 521.819095 276.929064 
L 524.623116 267.468773 
L 527.427136 249.625946 
L 530.231156 261.241746 
L 533.035176 268.426778 
L 535.839196 298.723659 
L 538.643216 249.027193 
L 541.447236 301.597672 
L 544.251256 244.237173 
L 547.055276 213.58104 
L 549.859296 257.050478 
L 552.663317 274.534054 
L 555.467337 195.37896 
L 558.271357 228.070852 
L 561.075377 210.946528 
L 563.879397 231.543617 
L 566.683417 89.519501 
L 569.487437 187.355676 
L 572.291457 189.750686 
L 575.095477 229.74736 
L 577.899497 153.70578 
L 580.703518 168.674595 
L 583.507538 287.46711 
L 586.311558 170.111601 
L 589.115578 216.335301 
L 591.919598 182.565655 
L 594.723618 174.662121 
L 597.527638 205.078753 
L 600.331658 165.680832 
L 603.135678 182.565655 
L 605.939698 192.145696 
L 608.743719 198.492474 
L 611.547739 190.349439 
L 614.351759 162.208067 
L 617.155779 208.431767 
L 619.959799 155.142786 
L 622.763819 120.415135 
L 625.567839 102.093306 
L 628.371859 164.124075 
L 631.175879 156.579792 
L 633.979899 89.28 
L 636.78392 154.424283 
L 639.58794 165.680832 
L 642.39196 175.620125 
L 645.19598 99.818046 
L 648 128.43842 
L 648 128.43842 
" style="fill:none;stroke:#0000ff;stroke-linecap:square;stroke-width:1.5;"/>
   </g>
   <g id="line2d_34">
    <path clip-path="url(#pcf9df8644d)" d="M 90 345.905364 
L 92.80402 297.166902 
L 95.60804 276.210561 
L 98.41206 263.996008 
L 101.21608 258.247983 
L 104.020101 254.775218 
L 106.824121 256.212225 
L 109.628141 254.535717 
L 112.432161 254.535717 
L 115.236181 255.972723 
L 118.040201 257.768981 
L 120.844221 257.649231 
L 123.648241 257.768981 
L 126.452261 260.523243 
L 129.256281 258.726985 
L 132.060302 254.775218 
L 134.864322 247.590187 
L 137.668342 239.327401 
L 140.472362 228.669605 
L 143.276382 222.083326 
L 146.080402 213.461289 
L 151.688442 193.702453 
L 154.492462 186.15817 
L 157.296482 177.176881 
L 160.100503 161.609314 
L 162.904523 151.55027 
L 165.708543 148.077505 
L 168.512563 144.365239 
L 171.316583 139.455468 
L 174.120603 137.65921 
L 176.924623 136.341954 
L 179.728643 131.911185 
L 182.532663 128.55817 
L 188.140704 126.04341 
L 190.944724 125.444657 
L 193.748744 127.719917 
L 196.552764 126.881663 
L 199.356784 125.803909 
L 202.160804 124.366902 
L 204.964824 123.169397 
L 207.768844 123.169397 
L 210.572864 125.205156 
L 213.376884 126.04341 
L 216.180905 132.030936 
L 218.984925 136.701206 
L 221.788945 146.161497 
L 224.592965 156.460042 
L 227.396985 163.884574 
L 230.201005 174.662121 
L 233.005025 177.416383 
L 235.809045 188.193929 
L 238.613065 204.360249 
L 241.417085 209.389771 
L 244.221106 212.503285 
L 247.025126 228.310353 
L 249.829146 234.297879 
L 252.633166 235.255884 
L 255.437186 238.010146 
L 258.241206 236.453389 
L 261.045226 234.058378 
L 263.849246 235.734886 
L 266.653266 233.938628 
L 269.457286 241.482911 
L 272.261307 239.447152 
L 275.065327 239.686653 
L 277.869347 244.117422 
L 280.673367 243.159418 
L 283.477387 247.230936 
L 286.281407 255.493721 
L 289.085427 262.678753 
L 291.889447 267.468773 
L 294.693467 265.552765 
L 297.497487 268.426778 
L 300.301508 272.737796 
L 303.105528 274.534054 
L 305.909548 289.143617 
L 308.713568 291.299127 
L 311.517588 297.765655 
L 314.321608 295.370644 
L 317.125628 297.526154 
L 319.929648 294.41264 
L 322.733668 295.729896 
L 325.537688 296.448399 
L 328.341709 307.465447 
L 331.145729 311.297464 
L 333.949749 311.177713 
L 336.753769 306.866694 
L 339.557789 307.106195 
L 345.165829 307.345696 
L 347.969849 308.303701 
L 350.773869 313.812225 
L 353.577889 316.326985 
L 356.38191 321.236757 
L 359.18593 316.686237 
L 361.98995 317.644241 
L 364.79397 313.812225 
L 367.59799 315.608482 
L 370.40201 315.488732 
L 373.20603 314.770229 
L 376.01005 318.362744 
L 378.81407 317.28499 
L 381.61809 315.967734 
L 384.422111 313.213472 
L 387.226131 314.051726 
L 390.030151 317.524491 
L 392.834171 321.356507 
L 395.638191 316.207235 
L 398.442211 315.12948 
L 401.246231 321.356507 
L 404.050251 318.721996 
L 406.854271 320.638004 
L 409.658291 320.039252 
L 412.462312 319.560249 
L 415.266332 318.123243 
L 418.070352 317.524491 
L 420.874372 320.398503 
L 423.678392 318.482495 
L 426.482412 321.236757 
L 429.286432 319.799751 
L 432.090452 321.835509 
L 434.894472 326.984782 
L 437.698492 320.757755 
L 440.502513 322.194761 
L 443.306533 318.841746 
L 446.110553 318.721996 
L 448.914573 316.686237 
L 451.718593 318.961497 
L 454.522613 317.28499 
L 457.326633 322.434262 
L 460.130653 322.194761 
L 462.934673 322.07501 
L 465.738693 322.793514 
L 468.542714 328.78104 
L 471.346734 326.386029 
L 474.150754 324.35027 
L 476.954774 324.470021 
L 479.758794 324.709522 
L 482.562814 316.207235 
L 485.366834 314.770229 
L 488.170854 313.931975 
L 490.974874 314.051726 
L 493.778894 306.627193 
L 496.582915 300.759418 
L 502.190955 292.975634 
L 504.994975 293.215135 
L 507.798995 294.891642 
L 510.603015 289.143617 
L 513.407035 291.418877 
L 519.015075 276.929064 
L 521.819095 278.845073 
L 524.623116 275.731559 
L 527.427136 275.013056 
L 530.231156 270.941538 
L 533.035176 263.397256 
L 535.839196 260.523243 
L 538.643216 254.296216 
L 541.447236 250.4642 
L 544.251256 251.541954 
L 547.055276 243.63842 
L 549.859296 241.123659 
L 552.663317 244.716175 
L 555.467337 236.453389 
L 558.271357 236.333638 
L 561.075377 223.280832 
L 563.879397 220.047568 
L 566.683417 212.263784 
L 569.487437 209.868773 
L 572.291457 210.707027 
L 575.095477 204.360249 
L 577.899497 200.528233 
L 580.703518 197.414719 
L 583.507538 194.061705 
L 586.311558 192.265447 
L 589.115578 194.780208 
L 591.919598 189.032183 
L 594.723618 190.58894 
L 597.527638 187.595177 
L 600.331658 186.637173 
L 603.135678 181.847152 
L 605.939698 177.655884 
L 608.743719 174.183119 
L 611.547739 173.943617 
L 614.351759 169.632599 
L 617.155779 163.884574 
L 619.959799 159.573555 
L 622.763819 151.55027 
L 625.567839 147.359002 
L 628.371859 145.802245 
L 631.175879 144.963992 
L 633.979899 138.257963 
L 636.78392 135.862952 
L 639.58794 130.234678 
L 642.39196 129.995177 
L 645.19598 123.648399 
L 648 126.761913 
L 648 126.761913 
" style="fill:none;stroke:#646464;stroke-linecap:square;stroke-width:1.5;"/>
   </g>
   <g id="patch_3">
    <path d="M 90 512.64 
L 90 69.12 
" style="fill:none;stroke:#000000;stroke-linecap:square;stroke-linejoin:miter;stroke-width:0.8;"/>
   </g>
   <g id="patch_4">
    <path d="M 648 512.64 
L 648 69.12 
" style="fill:none;stroke:#000000;stroke-linecap:square;stroke-linejoin:miter;stroke-width:0.8;"/>
   </g>
   <g id="patch_5">
    <path d="M 90 512.64 
L 648 512.64 
" style="fill:none;stroke:#000000;stroke-linecap:square;stroke-linejoin:miter;stroke-width:0.8;"/>
   </g>
   <g id="patch_6">
    <path d="M 90 69.12 
L 648 69.12 
" style="fill:none;stroke:#000000;stroke-linecap:square;stroke-linejoin:miter;stroke-width:0.8;"/>
   </g>
   <g id="text_18">
    <!-- Raw Data From T-Bot -->
    <defs>
     <path d="M 44.390625 34.1875 
Q 47.5625 33.109375 50.5625 29.59375 
Q 53.5625 26.078125 56.59375 19.921875 
L 66.609375 0 
L 56 0 
L 46.6875 18.703125 
Q 43.0625 26.03125 39.671875 28.421875 
Q 36.28125 30.8125 30.421875 30.8125 
L 19.671875 30.8125 
L 19.671875 0 
L 9.8125 0 
L 9.8125 72.90625 
L 32.078125 72.90625 
Q 44.578125 72.90625 50.734375 67.671875 
Q 56.890625 62.453125 56.890625 51.90625 
Q 56.890625 45.015625 53.6875 40.46875 
Q 50.484375 35.9375 44.390625 34.1875 
z
M 19.671875 64.796875 
L 19.671875 38.921875 
L 32.078125 38.921875 
Q 39.203125 38.921875 42.84375 42.21875 
Q 46.484375 45.515625 46.484375 51.90625 
Q 46.484375 58.296875 42.84375 61.546875 
Q 39.203125 64.796875 32.078125 64.796875 
z
" id="DejaVuSans-82"/>
     <path d="M 4.203125 54.6875 
L 13.1875 54.6875 
L 24.421875 12.015625 
L 35.59375 54.6875 
L 46.1875 54.6875 
L 57.421875 12.015625 
L 68.609375 54.6875 
L 77.59375 54.6875 
L 63.28125 0 
L 52.6875 0 
L 40.921875 44.828125 
L 29.109375 0 
L 18.5 0 
z
" id="DejaVuSans-119"/>
     <path d="M 9.8125 72.90625 
L 51.703125 72.90625 
L 51.703125 64.59375 
L 19.671875 64.59375 
L 19.671875 43.109375 
L 48.578125 43.109375 
L 48.578125 34.8125 
L 19.671875 34.8125 
L 19.671875 0 
L 9.8125 0 
z
" id="DejaVuSans-70"/>
     <path d="M 52 44.1875 
Q 55.375 50.25 60.0625 53.125 
Q 64.75 56 71.09375 56 
Q 79.640625 56 84.28125 50.015625 
Q 88.921875 44.046875 88.921875 33.015625 
L 88.921875 0 
L 79.890625 0 
L 79.890625 32.71875 
Q 79.890625 40.578125 77.09375 44.375 
Q 74.3125 48.1875 68.609375 48.1875 
Q 61.625 48.1875 57.5625 43.546875 
Q 53.515625 38.921875 53.515625 30.90625 
L 53.515625 0 
L 44.484375 0 
L 44.484375 32.71875 
Q 44.484375 40.625 41.703125 44.40625 
Q 38.921875 48.1875 33.109375 48.1875 
Q 26.21875 48.1875 22.15625 43.53125 
Q 18.109375 38.875 18.109375 30.90625 
L 18.109375 0 
L 9.078125 0 
L 9.078125 54.6875 
L 18.109375 54.6875 
L 18.109375 46.1875 
Q 21.1875 51.21875 25.484375 53.609375 
Q 29.78125 56 35.6875 56 
Q 41.65625 56 45.828125 52.96875 
Q 50 49.953125 52 44.1875 
z
" id="DejaVuSans-109"/>
     <path d="M -0.296875 72.90625 
L 61.375 72.90625 
L 61.375 64.59375 
L 35.5 64.59375 
L 35.5 0 
L 25.59375 0 
L 25.59375 64.59375 
L -0.296875 64.59375 
z
" id="DejaVuSans-84"/>
     <path d="M 4.890625 31.390625 
L 31.203125 31.390625 
L 31.203125 23.390625 
L 4.890625 23.390625 
z
" id="DejaVuSans-45"/>
     <path d="M 19.671875 34.8125 
L 19.671875 8.109375 
L 35.5 8.109375 
Q 43.453125 8.109375 47.28125 11.40625 
Q 51.125 14.703125 51.125 21.484375 
Q 51.125 28.328125 47.28125 31.5625 
Q 43.453125 34.8125 35.5 34.8125 
z
M 19.671875 64.796875 
L 19.671875 42.828125 
L 34.28125 42.828125 
Q 41.5 42.828125 45.03125 45.53125 
Q 48.578125 48.25 48.578125 53.8125 
Q 48.578125 59.328125 45.03125 62.0625 
Q 41.5 64.796875 34.28125 64.796875 
z
M 9.8125 72.90625 
L 35.015625 72.90625 
Q 46.296875 72.90625 52.390625 68.21875 
Q 58.5 63.53125 58.5 54.890625 
Q 58.5 48.1875 55.375 44.234375 
Q 52.25 40.28125 46.1875 39.3125 
Q 53.46875 37.75 57.5 32.78125 
Q 61.53125 27.828125 61.53125 20.40625 
Q 61.53125 10.640625 54.890625 5.3125 
Q 48.25 0 35.984375 0 
L 9.8125 0 
z
" id="DejaVuSans-66"/>
    </defs>
    <g transform="translate(304.819687 63.12)scale(0.12 -0.12)">
     <use xlink:href="#DejaVuSans-82"/>
     <use x="69.451172" xlink:href="#DejaVuSans-97"/>
     <use x="130.730469" xlink:href="#DejaVuSans-119"/>
     <use x="212.517578" xlink:href="#DejaVuSans-32"/>
     <use x="244.304688" xlink:href="#DejaVuSans-68"/>
     <use x="321.306641" xlink:href="#DejaVuSans-97"/>
     <use x="382.585938" xlink:href="#DejaVuSans-116"/>
     <use x="421.794922" xlink:href="#DejaVuSans-97"/>
     <use x="483.074219" xlink:href="#DejaVuSans-32"/>
     <use x="514.861328" xlink:href="#DejaVuSans-70"/>
     <use x="572.271484" xlink:href="#DejaVuSans-114"/>
     <use x="613.353516" xlink:href="#DejaVuSans-111"/>
     <use x="674.535156" xlink:href="#DejaVuSans-109"/>
     <use x="771.947266" xlink:href="#DejaVuSans-32"/>
     <use x="803.734375" xlink:href="#DejaVuSans-84"/>
     <use x="864.677734" xlink:href="#DejaVuSans-45"/>
     <use x="900.714844" xlink:href="#DejaVuSans-66"/>
     <use x="969.318359" xlink:href="#DejaVuSans-111"/>
     <use x="1030.5" xlink:href="#DejaVuSans-116"/>
    </g>
   </g>
   <g id="legend_1">
    <g id="patch_7">
     <path d="M 95.6 122.49 
L 159.46875 122.49 
Q 161.06875 122.49 161.06875 120.89 
L 161.06875 74.72 
Q 161.06875 73.12 159.46875 73.12 
L 95.6 73.12 
Q 94 73.12 94 74.72 
L 94 120.89 
Q 94 122.49 95.6 122.49 
z
" style="fill:#ffffff;opacity:0.8;stroke:#cccccc;stroke-linejoin:miter;"/>
    </g>
    <g id="line2d_35">
     <path d="M 97.2 79.59875 
L 113.2 79.59875 
" style="fill:none;stroke:#ff0000;stroke-linecap:square;stroke-width:1.5;"/>
    </g>
    <g id="line2d_36"/>
    <g id="text_19">
     <!-- Column 1 -->
     <defs>
      <path d="M 64.40625 67.28125 
L 64.40625 56.890625 
Q 59.421875 61.53125 53.78125 63.8125 
Q 48.140625 66.109375 41.796875 66.109375 
Q 29.296875 66.109375 22.65625 58.46875 
Q 16.015625 50.828125 16.015625 36.375 
Q 16.015625 21.96875 22.65625 14.328125 
Q 29.296875 6.6875 41.796875 6.6875 
Q 48.140625 6.6875 53.78125 8.984375 
Q 59.421875 11.28125 64.40625 15.921875 
L 64.40625 5.609375 
Q 59.234375 2.09375 53.4375 0.328125 
Q 47.65625 -1.421875 41.21875 -1.421875 
Q 24.65625 -1.421875 15.125 8.703125 
Q 5.609375 18.84375 5.609375 36.375 
Q 5.609375 53.953125 15.125 64.078125 
Q 24.65625 74.21875 41.21875 74.21875 
Q 47.75 74.21875 53.53125 72.484375 
Q 59.328125 70.75 64.40625 67.28125 
z
" id="DejaVuSans-67"/>
      <path d="M 9.421875 75.984375 
L 18.40625 75.984375 
L 18.40625 0 
L 9.421875 0 
z
" id="DejaVuSans-108"/>
      <path d="M 8.5 21.578125 
L 8.5 54.6875 
L 17.484375 54.6875 
L 17.484375 21.921875 
Q 17.484375 14.15625 20.5 10.265625 
Q 23.53125 6.390625 29.59375 6.390625 
Q 36.859375 6.390625 41.078125 11.03125 
Q 45.3125 15.671875 45.3125 23.6875 
L 45.3125 54.6875 
L 54.296875 54.6875 
L 54.296875 0 
L 45.3125 0 
L 45.3125 8.40625 
Q 42.046875 3.421875 37.71875 1 
Q 33.40625 -1.421875 27.6875 -1.421875 
Q 18.265625 -1.421875 13.375 4.4375 
Q 8.5 10.296875 8.5 21.578125 
z
M 31.109375 56 
z
" id="DejaVuSans-117"/>
     </defs>
     <g transform="translate(119.6 82.39875)scale(0.08 -0.08)">
      <use xlink:href="#DejaVuSans-67"/>
      <use x="69.824219" xlink:href="#DejaVuSans-111"/>
      <use x="131.005859" xlink:href="#DejaVuSans-108"/>
      <use x="158.789062" xlink:href="#DejaVuSans-117"/>
      <use x="222.167969" xlink:href="#DejaVuSans-109"/>
      <use x="319.580078" xlink:href="#DejaVuSans-110"/>
      <use x="382.958984" xlink:href="#DejaVuSans-32"/>
      <use x="414.746094" xlink:href="#DejaVuSans-49"/>
     </g>
    </g>
    <g id="line2d_37">
     <path d="M 97.2 91.34125 
L 113.2 91.34125 
" style="fill:none;stroke:#00ff00;stroke-linecap:square;stroke-width:1.5;"/>
    </g>
    <g id="line2d_38"/>
    <g id="text_20">
     <!-- Column 2 -->
     <g transform="translate(119.6 94.14125)scale(0.08 -0.08)">
      <use xlink:href="#DejaVuSans-67"/>
      <use x="69.824219" xlink:href="#DejaVuSans-111"/>
      <use x="131.005859" xlink:href="#DejaVuSans-108"/>
      <use x="158.789062" xlink:href="#DejaVuSans-117"/>
      <use x="222.167969" xlink:href="#DejaVuSans-109"/>
      <use x="319.580078" xlink:href="#DejaVuSans-110"/>
      <use x="382.958984" xlink:href="#DejaVuSans-32"/>
      <use x="414.746094" xlink:href="#DejaVuSans-50"/>
     </g>
    </g>
    <g id="line2d_39">
     <path d="M 97.2 103.08375 
L 113.2 103.08375 
" style="fill:none;stroke:#0000ff;stroke-linecap:square;stroke-width:1.5;"/>
    </g>
    <g id="line2d_40"/>
    <g id="text_21">
     <!-- Column 3 -->
     <defs>
      <path d="M 40.578125 39.3125 
Q 47.65625 37.796875 51.625 33 
Q 55.609375 28.21875 55.609375 21.1875 
Q 55.609375 10.40625 48.1875 4.484375 
Q 40.765625 -1.421875 27.09375 -1.421875 
Q 22.515625 -1.421875 17.65625 -0.515625 
Q 12.796875 0.390625 7.625 2.203125 
L 7.625 11.71875 
Q 11.71875 9.328125 16.59375 8.109375 
Q 21.484375 6.890625 26.8125 6.890625 
Q 36.078125 6.890625 40.9375 10.546875 
Q 45.796875 14.203125 45.796875 21.1875 
Q 45.796875 27.640625 41.28125 31.265625 
Q 36.765625 34.90625 28.71875 34.90625 
L 20.21875 34.90625 
L 20.21875 43.015625 
L 29.109375 43.015625 
Q 36.375 43.015625 40.234375 45.921875 
Q 44.09375 48.828125 44.09375 54.296875 
Q 44.09375 59.90625 40.109375 62.90625 
Q 36.140625 65.921875 28.71875 65.921875 
Q 24.65625 65.921875 20.015625 65.03125 
Q 15.375 64.15625 9.8125 62.3125 
L 9.8125 71.09375 
Q 15.4375 72.65625 20.34375 73.4375 
Q 25.25 74.21875 29.59375 74.21875 
Q 40.828125 74.21875 47.359375 69.109375 
Q 53.90625 64.015625 53.90625 55.328125 
Q 53.90625 49.265625 50.4375 45.09375 
Q 46.96875 40.921875 40.578125 39.3125 
z
" id="DejaVuSans-51"/>
     </defs>
     <g transform="translate(119.6 105.88375)scale(0.08 -0.08)">
      <use xlink:href="#DejaVuSans-67"/>
      <use x="69.824219" xlink:href="#DejaVuSans-111"/>
      <use x="131.005859" xlink:href="#DejaVuSans-108"/>
      <use x="158.789062" xlink:href="#DejaVuSans-117"/>
      <use x="222.167969" xlink:href="#DejaVuSans-109"/>
      <use x="319.580078" xlink:href="#DejaVuSans-110"/>
      <use x="382.958984" xlink:href="#DejaVuSans-32"/>
      <use x="414.746094" xlink:href="#DejaVuSans-51"/>
     </g>
    </g>
    <g id="line2d_41">
     <path d="M 97.2 114.82625 
L 113.2 114.82625 
" style="fill:none;stroke:#646464;stroke-linecap:square;stroke-width:1.5;"/>
    </g>
    <g id="line2d_42"/>
    <g id="text_22">
     <!-- Column 4 -->
     <defs>
      <path d="M 37.796875 64.3125 
L 12.890625 25.390625 
L 37.796875 25.390625 
z
M 35.203125 72.90625 
L 47.609375 72.90625 
L 47.609375 25.390625 
L 58.015625 25.390625 
L 58.015625 17.1875 
L 47.609375 17.1875 
L 47.609375 0 
L 37.796875 0 
L 37.796875 17.1875 
L 4.890625 17.1875 
L 4.890625 26.703125 
z
" id="DejaVuSans-52"/>
     </defs>
     <g transform="translate(119.6 117.62625)scale(0.08 -0.08)">
      <use xlink:href="#DejaVuSans-67"/>
      <use x="69.824219" xlink:href="#DejaVuSans-111"/>
      <use x="131.005859" xlink:href="#DejaVuSans-108"/>
      <use x="158.789062" xlink:href="#DejaVuSans-117"/>
      <use x="222.167969" xlink:href="#DejaVuSans-109"/>
      <use x="319.580078" xlink:href="#DejaVuSans-110"/>
      <use x="382.958984" xlink:href="#DejaVuSans-32"/>
      <use x="414.746094" xlink:href="#DejaVuSans-52"/>
     </g>
    </g>
   </g>
  </g>
 </g>
 <defs>
  <clipPath id="pcf9df8644d">
   <rect height="443.52" width="558" x="90" y="69.12"/>
  </clipPath>
 </defs>
</svg>
