<?xml version="1.0" encoding="UTF-8" standalone="no"?>
<!-- Created with Inkscape (http://www.inkscape.org/) -->

<svg
   xmlns:dc="http://purl.org/dc/elements/1.1/"
   xmlns:cc="http://creativecommons.org/ns#"
   xmlns:rdf="http://www.w3.org/1999/02/22-rdf-syntax-ns#"
   xmlns:svg="http://www.w3.org/2000/svg"
   xmlns="http://www.w3.org/2000/svg"
   xmlns:sodipodi="http://sodipodi.sourceforge.net/DTD/sodipodi-0.dtd"
   xmlns:inkscape="http://www.inkscape.org/namespaces/inkscape"
   width="636"
   height="357"
   viewBox="0 0 168.275 94.456253"
   version="1.1"
   id="svg8"
   inkscape:version="0.92.5 (2060ec1f9f, 2020-04-08)"
   sodipodi:docname="ActionFigure.svg">
  <defs
     id="defs2" />
  <sodipodi:namedview
     id="base"
     pagecolor="#ffffff"
     bordercolor="#666666"
     borderopacity="1.0"
     inkscape:pageopacity="0.0"
     inkscape:pageshadow="2"
     inkscape:zoom="0.7"
     inkscape:cx="98.591625"
     inkscape:cy="234.59648"
     inkscape:document-units="mm"
     inkscape:current-layer="layer1"
     showgrid="false"
     units="px"
     inkscape:window-width="1366"
     inkscape:window-height="704"
     inkscape:window-x="0"
     inkscape:window-y="0"
     inkscape:window-maximized="1" />
  <metadata
     id="metadata5">
    <rdf:RDF>
      <cc:Work
         rdf:about="">
        <dc:format>image/svg+xml</dc:format>
        <dc:type
           rdf:resource="http://purl.org/dc/dcmitype/StillImage" />
        <dc:title></dc:title>
      </cc:Work>
    </rdf:RDF>
  </metadata>
  <g
     inkscape:label="Layer 1"
     inkscape:groupmode="layer"
     id="layer1"
     transform="translate(0,-202.54373)">
    <path
       style="fill:#050505;stroke-width:0.07542652"
       d="m 85.981658,212.91982 c -0.833186,-2e-5 -1.067742,0.0266 -1.432811,0.16198 -0.803388,0.29808 -1.306412,0.74226 -1.572688,1.3884 -0.06744,0.1637 -0.166461,0.39925 -0.219872,0.52371 -0.330912,0.77107 -0.454104,1.57995 -0.454104,2.97942 0,1.10657 0.0093,1.18241 0.177223,1.41778 0.36168,0.5071 0.30792,0.85448 -0.267385,1.72693 -0.271185,0.41125 -0.423948,0.49479 -1.079028,0.59 -0.483981,0.0703 -0.981502,0.22188 -1.356128,0.41301 -0.36244,0.1849 -0.581507,0.17982 -1.510149,-0.0342 -1.365519,-0.31479 -2.723385,0.14095 -3.924976,1.31724 -0.542196,0.53076 -0.893926,1.14592 -1.090962,1.90812 -0.127097,0.49171 -0.153531,1.82918 -0.03756,1.90084 0.174935,0.10812 0.07434,0.65063 -0.22119,1.19173 -0.564542,1.03376 -0.635879,1.28111 -0.645034,2.24025 -0.0096,1.01331 -0.06779,1.1666 -0.692976,1.82703 -0.224684,0.23736 -0.478556,0.59374 -0.564149,0.79198 -0.08561,0.19823 -0.285328,0.6318 -0.443953,0.96368 -0.158607,0.33187 -0.311824,0.70531 -0.340513,0.82976 -0.02865,0.12445 -0.147757,0.37902 -0.264511,0.56571 -0.480303,0.76799 -0.581516,1.26805 -0.611445,3.01698 -0.02394,1.39837 -0.01738,1.48196 0.134575,1.6971 0.292326,0.41395 0.292405,0.53785 0,0.96588 -0.296825,0.43517 -0.506763,1.12653 -0.685472,2.25793 -0.183565,1.1623 -0.133937,2.36236 0.159778,3.86642 0.149854,0.76751 0.245808,0.94651 0.562157,1.04876 0.238138,0.077 0.271492,0.12975 0.482164,0.76502 0.245607,0.74057 0.733632,1.56047 1.142669,1.91962 0.192371,0.16889 0.332606,0.2265 0.552443,0.2265 0.162049,0 0.315755,-0.0341 0.341404,-0.0756 0.02568,-0.0415 0.22706,-0.0754 0.4477,-0.0754 0.485222,0 0.597817,-0.10628 0.557746,-0.52658 -0.02883,-0.30227 -0.02839,-0.30318 0.239099,-0.30318 0.634193,0 0.774254,-0.42596 0.33832,-1.02887 -0.484243,-0.66968 -0.545306,-0.78741 -0.639731,-1.23238 -0.119148,-0.56144 -0.0263,-0.98453 0.364606,-1.65997 0.466203,-0.8056 0.732025,-0.85459 1.444743,-0.26694 0.321749,0.26529 0.474913,0.34141 0.685909,0.34141 0.397409,0 0.553483,-0.20219 0.488803,-0.63354 -0.07277,-0.48507 -0.940732,-1.46416 -1.811569,-2.04358 -0.76281,-0.50757 -0.97163,-0.76595 -0.97163,-1.20189 0,-0.23581 0.06831,-0.41504 0.276444,-0.72415 0.152117,-0.22586 0.276663,-0.44835 0.276663,-0.49454 0,-0.0462 0.09615,-0.21688 0.213896,-0.37941 0.302328,-0.41736 0.649297,-1.17721 0.83972,-1.83919 0.199753,-0.6944 0.39097,-1.26651 0.603486,-1.80515 0.114404,-0.29006 0.14795,-0.49141 0.114465,-0.68967 -0.05678,-0.33583 0.162303,-0.81842 0.626907,-1.38066 0.165867,-0.20072 0.378907,-0.51514 0.473332,-0.69873 0.218701,-0.42521 0.572343,-0.79706 0.729439,-0.76678 0.154606,0.0298 0.397226,0.43956 1.286521,2.17308 0.823227,1.60471 0.78071,1.35887 0.640395,3.7009 -0.05486,0.9151 -0.115452,1.39481 -0.196005,1.55059 -0.279554,0.5406 -0.820859,2.20145 -0.955722,2.93235 -0.05355,0.2904 -0.197892,0.74862 -0.320639,1.01826 -0.395059,0.86784 -0.44957,1.07828 -0.510232,1.96691 -0.04464,0.65427 -0.09991,0.95194 -0.219871,1.18708 -0.15313,0.30017 -0.235779,0.59143 -0.924789,3.2572 -0.166199,0.64301 -0.335481,1.28783 -0.376102,1.43303 -0.04062,0.14519 -0.103939,0.38293 -0.14076,0.52813 -0.03686,0.1452 -0.105913,0.41658 -0.153576,0.60326 -0.0477,0.18668 -0.103527,0.67341 -0.123969,1.08146 -0.03005,0.59908 -0.0052,0.87407 0.129272,1.42839 0.136025,0.56136 0.158502,0.81805 0.123524,1.40784 -0.122432,2.06378 -0.425634,3.61157 -1.116146,5.69919 -0.31918,0.96497 -0.491503,1.29205 -0.772533,1.46575 -0.892397,0.5515 -2.508808,4.27275 -2.836234,6.52961 -0.04814,0.33188 -0.118746,0.78715 -0.157114,1.01185 -0.03835,0.22471 -0.0698,1.13175 -0.0698,2.01553 0,1.5533 0.0061,1.62055 0.188283,2.01861 0.18402,0.40232 0.18671,0.43326 0.114684,1.34111 -0.116973,1.47428 -0.2373,2.35864 -0.521947,3.83305 -0.08413,0.43559 -0.201884,1.04654 -0.261637,1.35768 -0.05975,0.31113 -0.147906,0.973 -0.195996,1.47082 -0.132592,0.99551 -0.255907,1.79813 -0.255907,2.79843 0,0.28107 0.226301,0.50737 0.507367,0.50737 h 4.699719 c 0.281066,0 0.507366,-0.2263 0.507366,-0.50737 -0.02053,-1.13258 -0.504439,-2.58455 -0.659613,-3.152 -0.361549,-1.22249 -0.369228,-2.13152 -0.03914,-4.62437 0.107101,-0.80878 0.397977,-1.42132 0.964118,-2.02989 0.453196,-0.48714 0.772961,-1.06563 0.983345,-1.77929 0.05504,-0.18668 0.381763,-1.1879 0.726119,-2.22501 0.938985,-2.82797 0.962615,-2.92779 0.9639,-4.07303 7.95e-4,-0.6329 -0.04569,-1.21911 -0.131037,-1.65357 -0.07277,-0.3702 -0.113618,-0.74685 -0.09104,-0.83684 0.02263,-0.09 0.281939,-0.43192 0.576309,-0.75993 0.676606,-0.75394 1.246145,-1.70441 1.804048,-3.01014 0.141799,-0.33187 0.722363,-1.53674 1.290059,-2.67756 1.269355,-2.55089 1.694543,-3.64187 2.337708,-5.99641 0.245843,-0.90001 0.400947,-1.3328 0.482172,-1.34597 0.06534,-0.0106 0.283154,0.508 0.611655,1.45601 0.06412,0.18503 0.164241,0.60938 0.222527,0.94291 0.119313,0.68269 0.29008,1.20894 0.624924,1.92647 0.664069,1.42302 1.413312,3.78239 1.816417,5.7193 0.09566,0.4596 0.103003,2.07423 0.01503,3.29431 -0.05495,0.76135 -0.0843,0.87689 -0.355556,1.39547 -0.50409,0.9638 -0.785715,1.93764 -0.938041,3.24304 -0.07871,0.67412 -0.07434,0.921 0.02874,1.65932 0.12424,0.89007 0.300974,1.52727 0.614092,2.2124 0.09801,0.21447 0.28601,0.66142 0.417649,0.99329 0.13164,0.33188 0.434589,1.06171 0.673312,1.62175 0.374102,0.87765 0.446845,1.12762 0.526804,1.81023 0.05102,0.43559 0.141345,1.10159 0.200652,1.48011 0.164373,1.04911 0.143372,1.37396 -0.125961,1.95585 -0.588461,1.32945 -0.745347,2.58967 -0.745347,3.98332 0,0.63478 0.511192,1.14576 1.145979,1.14576 h 9.515896 c 0.634787,-10e-6 1.145765,-0.51098 1.145765,-1.14576 -0.301354,-2.27046 -2.68344,-2.06353 -3.822894,-3.42181 -0.658321,-0.7856 -0.876629,-1.13277 -1.09007,-1.73467 -0.110333,-0.31113 -0.224475,-0.59979 -0.253679,-0.64127 -0.118746,-0.1687 -0.229271,-0.71294 -0.260318,-1.28211 -0.01808,-0.33187 -0.07137,-0.77327 -0.118222,-0.98069 -0.468536,-2.07314 -0.569277,-4.19327 -0.403716,-8.48548 0.06604,-1.71244 0.07653,-1.79615 0.309806,-2.46808 0.132776,-0.38253 0.241301,-0.74837 0.241301,-0.81297 0,-0.0646 0.117802,-0.36574 0.261864,-0.66935 0.144062,-0.30358 0.318027,-0.75235 0.38648,-0.99726 0.174699,-0.62492 0.213512,-2.11671 0.103642,-3.99038 -0.05111,-0.87118 -0.10386,-2.43243 -0.117121,-3.46955 -0.03075,-2.40246 -0.07233,-3.18605 -0.20661,-3.88631 -0.05949,-0.3102 -0.147985,-0.80145 -0.196669,-1.09184 -0.04866,-0.2904 -0.117375,-0.66383 -0.152693,-0.82977 -0.07032,-0.33061 -0.167256,-0.81119 -0.304067,-1.50838 -0.04883,-0.2489 -0.11796,-0.58847 -0.153794,-0.75441 -0.261131,-1.20994 -0.325662,-1.50116 -0.451239,-2.03652 -0.312497,-1.33222 -0.362501,-1.51954 -0.47797,-1.79477 -0.06604,-0.15744 -0.258763,-0.48384 -0.428247,-0.72546 -0.211983,-0.3022 -0.355503,-0.62488 -0.460079,-1.03372 -0.143922,-0.56274 -0.198713,-0.76403 -0.376539,-1.38641 -0.04149,-0.1452 -0.104061,-0.36589 -0.138996,-0.49035 -0.03494,-0.12445 -0.137256,-0.44675 -0.227384,-0.7164 -0.121104,-0.36233 -0.150806,-0.57893 -0.114246,-0.82977 0.02717,-0.18668 0.07277,-1.06924 0.101213,-1.96116 0.02848,-0.89192 0.07757,-1.66252 0.109162,-1.71256 0.07347,-0.11643 0.251574,-0.0496 0.305832,0.1149 0.02298,0.0697 0.11401,0.31367 0.202408,0.54184 0.231909,0.59856 0.37149,1.13009 0.376321,1.43303 0.0026,0.14519 0.05075,0.38271 0.107616,0.52791 0.05687,0.1452 0.209991,0.56955 0.340303,0.94291 0.469191,1.34421 0.786222,1.9213 1.65622,3.01609 0.245607,0.30907 0.517509,0.75528 0.607461,0.99683 0.08956,0.24048 0.239579,0.52209 0.333454,0.6258 0.222361,0.24566 0.332074,0.64883 0.393338,1.44585 l 0.04971,0.64746 -0.331017,0.59376 c -0.433959,0.77862 -0.583936,1.24298 -0.590007,1.82703 -0.0061,0.59537 0.136182,0.912 0.569233,1.26686 0.180124,0.1476 0.430116,0.43524 0.555536,0.63906 0.125411,0.20383 0.332729,0.43416 0.460735,0.512 0.264205,0.16067 1.331405,0.34912 1.5981,0.28219 0.0971,-0.0244 0.344278,-0.20725 0.549342,-0.40637 0.205082,-0.19914 0.501837,-0.45996 0.659396,-0.57962 0.157559,-0.11968 0.321374,-0.28288 0.364174,-0.36285 0.0536,-0.10013 0.0521,-0.72479 -0.005,-2.00602 -0.09047,-2.02716 -0.188105,-3.04646 -0.358645,-3.74621 -0.06063,-0.2489 -0.128844,-0.53099 -0.151592,-0.62669 -0.02271,-0.0957 -0.192214,-0.29934 -0.376539,-0.45256 -0.318254,-0.26452 -0.332922,-0.29356 -0.28926,-0.58005 0.155593,-1.02103 0.117776,-1.5509 -0.196451,-2.75315 -0.364204,-1.39342 -1.136999,-3.0965 -1.66748,-3.67439 -0.182299,-0.19858 -0.394386,-0.53064 -0.471122,-0.73806 -0.07679,-0.20743 -0.221138,-0.52426 -0.321084,-0.70403 -0.307378,-0.55287 -0.412006,-1.03882 -0.408582,-1.89597 0.0026,-0.65116 -0.03023,-0.89459 -0.183408,-1.35106 -0.266293,-0.79346 -0.285853,-1.06314 -0.15071,-2.09595 0.164845,-1.25976 0.153558,-2.20933 -0.03756,-3.14051 -0.179494,-0.87451 -0.486339,-1.58413 -0.85319,-1.9731 -0.215172,-0.22816 -0.300154,-0.2665 -0.589562,-0.2665 -0.304521,0 -0.387101,-0.0432 -0.830206,-0.43444 -0.553667,-0.48876 -0.909205,-0.6216 -1.663515,-0.6216 -0.528821,0 -0.787479,-0.1113 -1.237906,-0.53233 -0.157873,-0.14758 -0.604351,-0.48155 -0.992177,-0.74226 -0.781321,-0.52526 -0.76405,-0.48523 -0.541174,-1.25206 0.04822,-0.16592 0.105293,-0.38663 0.126844,-0.49034 0.04918,-0.23672 0.289592,-1.07083 0.521719,-1.81024 0.185549,-0.591 0.187715,-0.63761 0.209266,-4.14838 0.007,-1.20789 -0.148875,-1.49334 -1.12013,-2.04403 -0.815399,-0.46233 -1.376631,-0.5959 -2.504544,-0.59598 h -2.19e-4 z"
       id="path826"
       inkscape:connector-curvature="0"
       sodipodi:nodetypes="ccccccsccsccccccccccccccccccscscsccccsccscscccccccsccccccsccscccccccscccscssscccccccccccssccccccssccccccccscccccccccsccccccccccccccccscccccccccccccccsccccccccsccccccccccscsccccccsccc" />
  </g>
</svg>
