<?xml version="1.0" encoding="UTF-8" standalone="no"?>
<!-- Created with Inkscape (http://www.inkscape.org/) -->

<svg
   xmlns:dc="http://purl.org/dc/elements/1.1/"
   xmlns:cc="http://creativecommons.org/ns#"
   xmlns:rdf="http://www.w3.org/1999/02/22-rdf-syntax-ns#"
   xmlns:svg="http://www.w3.org/2000/svg"
   xmlns="http://www.w3.org/2000/svg"
   xmlns:sodipodi="http://sodipodi.sourceforge.net/DTD/sodipodi-0.dtd"
   xmlns:inkscape="http://www.inkscape.org/namespaces/inkscape"
   width="636"
   height="357"
   viewBox="0 0 168.275 94.456253"
   version="1.1"
   id="svg8"
   inkscape:version="0.92.5 (2060ec1f9f, 2020-04-08)"
   sodipodi:docname="ActionFigure2.svg"
   inkscape:export-filename="/home/gareth/GitHub/T-BOTS/Python/Development/T-Bot_Tracking/TemplateImages/ActionFigure2.png"
   inkscape:export-xdpi="96.268906"
   inkscape:export-ydpi="96.268906">
  <defs
     id="defs2" />
  <sodipodi:namedview
     id="base"
     pagecolor="#ffffff"
     bordercolor="#666666"
     borderopacity="1.0"
     inkscape:pageopacity="0.0"
     inkscape:pageshadow="2"
     inkscape:zoom="0.35"
     inkscape:cx="329.56032"
     inkscape:cy="149.52749"
     inkscape:document-units="mm"
     inkscape:current-layer="layer1"
     showgrid="false"
     units="px"
     inkscape:window-width="1920"
     inkscape:window-height="1016"
     inkscape:window-x="0"
     inkscape:window-y="0"
     inkscape:window-maximized="1" />
  <metadata
     id="metadata5">
    <rdf:RDF>
      <cc:Work
         rdf:about="">
        <dc:format>image/svg+xml</dc:format>
        <dc:type
           rdf:resource="http://purl.org/dc/dcmitype/StillImage" />
        <dc:title></dc:title>
      </cc:Work>
    </rdf:RDF>
  </metadata>
  <g
     inkscape:label="Layer 1"
     inkscape:groupmode="layer"
     id="layer1"
     transform="translate(0,-202.54373)">
    <path
       style="fill:#050505;stroke-width:0.07542652"
       d="m 85.981658,212.91982 c -0.833186,-2e-5 -1.067742,0.0266 -1.432811,0.16198 -0.803388,0.29808 -1.306412,0.74226 -1.572688,1.3884 -0.06744,0.1637 -0.166461,0.39925 -0.219872,0.52371 -0.330912,0.77107 -0.454104,1.57995 -0.454104,2.97942 0,1.10657 0.0093,1.18241 0.177223,1.41778 0.36168,0.5071 0.30792,0.85448 -0.267385,1.72693 -0.271185,0.41125 -0.423948,0.49479 -1.079028,0.59 -0.483981,0.0703 -0.981502,0.22188 -1.356128,0.41301 -0.36244,0.1849 -0.581507,0.17982 -1.510149,-0.0342 -1.365519,-0.31479 -2.255663,0.0741 -3.457254,1.25042 -0.542196,0.53076 -1.027561,1.48001 -1.224597,2.24221 -0.249219,1.09882 0.339967,1.77219 -0.120367,2.63631 -0.564542,1.03376 -0.635879,1.28111 -0.645034,2.24025 -0.0096,1.01331 -0.06779,1.1666 -0.692976,1.82703 -0.224684,0.23736 -0.478556,0.59374 -0.564149,0.79198 -0.08561,0.19823 -0.285328,0.6318 -0.443953,0.96368 -0.158607,0.33187 -0.311824,0.70531 -0.340513,0.82976 -0.02865,0.12445 -0.147757,0.37902 -0.264511,0.56571 -0.767628,1.03772 0.413147,4.83695 -0.04256,5.51292 -0.296825,0.43517 -0.979233,1.31552 -1.157942,2.44692 -0.183565,1.1623 -0.133937,2.36236 0.159778,3.86642 0.04739,0.68225 0.309421,1.07812 0.610008,1.98082 0.245607,0.74057 0.576026,1.31124 0.985063,1.67039 0.192371,0.16889 0.608708,0.20474 0.717808,0.0139 0.119947,-0.20981 -0.418488,-0.83866 -0.533091,-1.1438 -0.0573,-0.15257 -0.175167,-0.27514 -0.271846,-0.55291 -0.04834,-0.13888 -0.187281,-0.60236 -0.207895,-0.8873 -0.02061,-0.28494 0.0771,-0.39134 0.201395,-0.38401 0.154139,0.19411 0.614692,1.44528 0.724724,1.69359 0.127769,0.28834 0.379965,0.6065 0.491449,0.76831 0.222964,0.3236 0.442118,0.68893 0.606727,0.71817 0.477739,0.0848 0.497591,-0.0784 0.45752,-0.49866 -0.125325,-0.23502 -0.266421,-0.43719 -0.384225,-0.65088 -0.117803,-0.21369 -0.212316,-0.39165 -0.244474,-0.48375 -0.03216,-0.0921 -0.633701,-1.67593 -0.640878,-1.89169 -0.0015,-0.0462 0.493604,-0.5024 0.631964,-0.29293 0.138359,0.20946 0.308731,0.99787 0.492322,1.27976 0.367182,0.5638 0.764602,1.16785 0.951355,1.39377 0.404062,0.4888 0.833313,-0.28422 0.397379,-0.88713 -0.484243,-0.66968 -0.439,-0.74016 -0.533425,-1.18513 -0.119148,-0.56144 -0.616889,-0.9491 -0.225983,-1.62454 0.466203,-0.8056 0.460354,-0.6656 1.173073,-0.0779 0.321749,0.26529 0.474913,0.34141 0.685909,0.34141 0.397409,0 0.553483,-0.20219 0.488803,-0.63354 -0.07277,-0.48507 -0.940732,-1.46416 -1.811569,-2.04358 -0.76281,-0.50757 -0.97163,-0.76595 -0.97163,-1.20189 0,-0.23581 0.06831,-0.41504 0.276444,-0.72415 0.152117,-0.22586 0.276663,-0.44835 0.276663,-0.49454 0,-0.0462 0.09615,-0.21688 0.213896,-0.37941 0.302328,-0.41736 0.649297,-1.17721 0.83972,-1.83919 0.199753,-0.6944 0.39097,-1.26651 0.603486,-1.80515 0.114404,-0.29006 0.14795,-0.49141 0.114465,-0.68967 -0.05678,-0.33583 0.162303,-0.81842 0.626907,-1.38066 0.165867,-0.20072 0.378907,-0.51514 0.473332,-0.69873 0.218701,-0.42521 0.705978,-2.20023 0.863074,-2.16995 0.154606,0.0298 0.263591,1.84273 1.152886,3.57625 0.823227,1.60471 0.78071,1.35887 0.640395,3.7009 -0.05486,0.9151 -0.115452,1.39481 -0.196005,1.55059 -0.279554,0.5406 -0.820859,2.20145 -0.955722,2.93235 -0.05355,0.2904 -0.197892,0.74862 -0.320639,1.01826 -0.395059,0.86784 -0.44957,1.07828 -0.510232,1.96691 -0.04464,0.65427 -0.09991,0.95194 -0.219871,1.18708 -0.15313,0.30017 -0.235779,0.59143 -0.924789,3.2572 -0.166199,0.64301 -0.335481,1.28783 -0.376102,1.43303 -0.398509,1.84647 -0.08023,3.54255 -0.165509,5.04908 -0.122432,2.06378 -0.425634,3.61157 -1.116146,5.69919 -0.31918,0.96497 -0.491503,1.29205 -0.772533,1.46575 -0.892397,0.5515 -1.941844,3.32781 -2.26927,5.58467 -0.04814,0.33188 -0.118746,0.78715 -0.157114,1.01185 -0.426794,1.8581 -0.231551,5.02288 -0.333797,6.32019 -0.116973,1.47428 -0.766467,2.35864 -1.051114,3.83305 -0.08413,0.43559 -0.201884,1.04654 -0.261637,1.35768 -0.05975,0.31113 -0.147906,0.973 -0.195996,1.47082 -0.132592,0.99551 -0.255907,1.79813 -0.255907,2.79843 0,0.28107 0.226301,0.50737 0.507367,0.50737 h 4.699719 c 0.281066,0 0.507366,-0.2263 0.507366,-0.50737 -0.02053,-1.13258 -0.504439,-2.58455 -0.659613,-3.152 -0.361549,-1.22249 0.159939,-2.13152 0.490027,-4.62437 1.365229,-3.77313 1.975934,-4.21452 2.673582,-6.03419 0.938985,-2.82797 0.962615,-2.92779 0.9639,-4.07303 7.95e-4,-0.6329 -0.04569,-1.21911 -0.131037,-1.65357 -0.07277,-0.3702 -0.113618,-0.74685 -0.09104,-0.83684 0.02263,-0.09 0.281939,-0.43192 0.576309,-0.75993 0.676606,-0.75394 1.246145,-1.70441 1.804048,-3.01014 0.141799,-0.33187 0.722363,-1.53674 1.290059,-2.67756 1.269355,-2.55089 1.694543,-3.64187 2.337708,-5.99641 0.245843,-0.90001 0.495441,-1.66353 0.576666,-1.6767 0.06534,-0.0106 0.9284,-0.069 1.256901,0.87897 0.06412,0.18503 0.565145,1.54482 0.623431,1.87835 0.119313,0.68269 0.29008,1.20894 0.624924,1.92647 0.664069,1.42302 1.413312,3.78239 1.816417,5.7193 0.09566,0.4596 0.103003,2.07423 0.01503,3.29431 -0.05495,0.76135 -0.0843,0.87689 -0.355556,1.39547 -0.50409,0.9638 -0.785715,1.93764 -0.938041,3.24304 -0.07871,0.67412 -0.07434,0.921 0.02874,1.65932 0.12424,0.89007 0.300974,1.52727 0.614092,2.2124 0.09801,0.21447 0.28601,0.66142 0.417649,0.99329 0.13164,0.33188 0.434589,1.06171 0.673312,1.62175 0.374102,0.87765 0.446845,1.12762 0.526804,1.81023 0.05102,0.43559 0.141345,1.10159 0.200652,1.48011 0.164373,1.04911 0.143372,1.37396 -0.125961,1.95585 -0.588461,1.32945 -1.217817,2.49518 -1.217817,3.88883 0,0.63478 0.51121,1.14097 1.145979,1.14576 l 8.847722,0.0668 c 0.634787,-1e-5 1.145775,-0.51098 1.145775,-1.14576 -0.301364,-2.27046 -2.68345,-2.06353 -3.822904,-3.42181 -0.658321,-0.7856 -0.876629,-1.13277 -1.09007,-1.73467 -0.110333,-0.31113 -0.224475,-0.59979 -0.253679,-0.64127 -0.118746,-0.1687 -0.229271,-0.71294 -0.260318,-1.28211 -0.01808,-0.33187 -0.07137,-0.77327 -0.118222,-0.98069 -0.468536,-2.07314 -0.569277,-4.19327 -0.403716,-8.48548 0.06604,-1.71244 0.07653,-1.79615 0.309806,-2.46808 0.132776,-0.38253 0.241301,-0.74837 0.241301,-0.81297 0,-0.0646 0.117802,-0.36574 0.261864,-0.66935 0.144062,-0.30358 0.318027,-0.75235 0.38648,-0.99726 0.174699,-0.62492 0.213512,-2.11671 0.103642,-3.99038 -0.05111,-0.87118 -0.10386,-2.43243 -0.117121,-3.46955 -0.03075,-2.40246 -0.07233,-3.18605 -0.20661,-3.88631 -0.05949,-0.3102 -0.147985,-0.80145 -0.196669,-1.09184 -0.04866,-0.2904 -0.117375,-0.66383 -0.152693,-0.82977 -0.07032,-0.33061 -0.167256,-0.81119 -0.304067,-1.50838 -0.04883,-0.2489 -0.11796,-0.58847 -0.153794,-0.75441 -0.261131,-1.20994 -0.325662,-1.50116 -0.451239,-2.03652 -0.312497,-1.33222 -0.362501,-1.51954 -0.47797,-1.79477 -0.06604,-0.15744 -0.258763,-0.48384 -0.428247,-0.72546 -0.211983,-0.3022 -0.355503,-0.62488 -0.460079,-1.03372 -0.143922,-0.56274 -0.198713,-0.76403 -0.376539,-1.38641 -0.04149,-0.1452 -0.104061,-0.36589 -0.138996,-0.49035 -0.03494,-0.12445 -0.137256,-0.44675 -0.227384,-0.7164 -0.121104,-0.36233 -0.150806,-0.57893 -0.114246,-0.82977 0.02717,-0.18668 0.07277,-1.06924 0.101213,-1.96116 0.02848,-0.89192 -0.1897,-3.86749 -0.158108,-3.91753 0.07347,-0.11643 0.518844,2.15537 0.573102,2.31987 0.02298,0.0697 0.11401,0.31367 0.202408,0.54184 0.231909,0.59856 0.37149,1.13009 0.376321,1.43303 0.0026,0.14519 0.05075,0.38271 0.107616,0.52791 0.05687,0.1452 0.209991,0.56955 0.340303,0.94291 0.469191,1.34421 0.786222,1.9213 1.65622,3.01609 1.206707,1.64173 1.567644,2.59689 1.383963,3.71594 l -0.331017,0.59376 c -0.433959,0.77862 -0.583936,1.24298 -0.590007,1.82703 -0.0061,0.59537 0.136182,0.912 0.569233,1.26686 0.180124,0.1476 0.430116,0.43524 0.555536,0.63906 0.125411,0.20383 0.332729,0.43416 0.460735,0.512 0.264205,0.16067 1.331405,0.34912 1.5981,0.28219 0.0971,-0.0244 0.344278,-0.20725 0.549342,-0.40637 0.205082,-0.19914 0.501837,-0.45996 0.659396,-0.57962 0.157559,-0.11968 0.321384,-0.28288 0.364184,-0.36285 0.0536,-0.10013 0.0521,-0.72479 -0.005,-2.00602 -0.44551,-4.75184 -1.051875,-5.09315 -1.80681,-7.99162 -0.364204,-1.39342 -1.136999,-3.0965 -1.66748,-3.67439 -0.182299,-0.19858 -0.394386,-0.53064 -0.471122,-0.73806 -0.07679,-0.20743 -0.221138,-0.52426 -0.321084,-0.70403 -0.307378,-0.55287 0.02231,-1.20586 0.02573,-2.06301 0.0026,-0.65116 -0.03023,-0.89459 -0.183408,-1.35106 -0.266293,-0.79346 -0.285853,-1.06314 -0.15071,-2.09595 0.164845,-1.25976 0.153558,-2.20933 -0.03756,-3.14051 -0.179494,-0.87451 -0.486339,-1.58413 -0.85319,-1.9731 -1.080619,-0.93738 -1.977247,-1.31454 -3.083283,-1.32254 -0.528821,0 -0.787479,-0.1113 -1.237906,-0.53233 -0.157873,-0.14758 -0.604351,-0.48155 -0.992177,-0.74226 -0.781321,-0.52526 -0.76405,-0.48523 -0.541174,-1.25206 0.04822,-0.16592 0.105293,-0.38663 0.126844,-0.49034 0.04918,-0.23672 0.289592,-1.07083 0.521719,-1.81024 0.185549,-0.591 0.187715,-0.63761 0.209266,-4.14838 0.007,-1.20789 -0.148875,-1.49334 -1.12013,-2.04403 -0.815399,-0.46233 -1.376631,-0.5959 -2.504544,-0.59598 h -2.19e-4 z"
       id="path826"
       inkscape:connector-curvature="0"
       sodipodi:nodetypes="ccccccsccsccccccccccccccsssscssscssssssccccsccscscccccccsccccccsccccccccscssscccccccccssccccccssccccccccscccccccccsccccccccccccccccsccccccccccccsccccccccccccccccccccccsccc" />
  </g>
</svg>
