<?xml version="1.0" encoding="UTF-8" standalone="no"?>
<!-- Created with Inkscape (http://www.inkscape.org/) -->

<svg
   xmlns:dc="http://purl.org/dc/elements/1.1/"
   xmlns:cc="http://creativecommons.org/ns#"
   xmlns:rdf="http://www.w3.org/1999/02/22-rdf-syntax-ns#"
   xmlns:svg="http://www.w3.org/2000/svg"
   xmlns="http://www.w3.org/2000/svg"
   xmlns:sodipodi="http://sodipodi.sourceforge.net/DTD/sodipodi-0.dtd"
   xmlns:inkscape="http://www.inkscape.org/namespaces/inkscape"
   width="636"
   height="357"
   viewBox="0 0 168.27499 94.456253"
   version="1.1"
   id="svg8"
   inkscape:version="0.92.4 (5da689c313, 2019-01-14)"
   sodipodi:docname="Elephant.svg"
   inkscape:export-filename="/home/pi/GitHub/T-BOTS/Python/Development/T-Bot_Tracking/TemplateImages/Elephant.png"
   inkscape:export-xdpi="96"
   inkscape:export-ydpi="96">
  <defs
     id="defs2" />
  <sodipodi:namedview
     id="base"
     pagecolor="#ffffff"
     bordercolor="#666666"
     borderopacity="1.0"
     inkscape:pageopacity="0.0"
     inkscape:pageshadow="2"
     inkscape:zoom="0.7"
     inkscape:cx="254.32036"
     inkscape:cy="456.37991"
     inkscape:document-units="mm"
     inkscape:current-layer="layer1"
     showgrid="false"
     units="px"
     inkscape:window-width="1920"
     inkscape:window-height="1016"
     inkscape:window-x="0"
     inkscape:window-y="0"
     inkscape:window-maximized="1" />
  <metadata
     id="metadata5">
    <rdf:RDF>
      <cc:Work
         rdf:about="">
        <dc:format>image/svg+xml</dc:format>
        <dc:type
           rdf:resource="http://purl.org/dc/dcmitype/StillImage" />
        <dc:title></dc:title>
      </cc:Work>
    </rdf:RDF>
  </metadata>
  <g
     inkscape:label="Layer 1"
     inkscape:groupmode="layer"
     id="layer1"
     transform="translate(0,-202.54373)">
    <path
       style="fill:#4d4d4d;stroke-width:0.32586119"
       d="m 91.057837,225.65366 c -3.441657,0.0675 -6.648969,2.09426 -6.648969,4.55888 0,0.59253 -0.109982,1.13923 -0.244396,1.21497 -0.134415,0.0757 -1.710768,-0.203 -3.503008,-0.61926 -11.915779,-2.76747 -21.194019,-1.21047 -27.481807,4.61107 -2.479112,4.08483 -1.789692,4.45638 -1.789692,8.09943 l 0.129837,2.14737 c 0.113714,1.88185 0.398844,4.70462 0.633265,6.27283 0.582774,3.89861 0.08199,7.09955 -2.177287,13.91147 -1.089286,3.28428 -1.704814,5.64481 -1.590482,6.10035 0.211017,0.84077 1.116305,1.41964 2.785728,1.78141 0.627283,0.13566 2.088647,0.19689 3.247793,0.13494 1.79008,-0.0957 2.217271,-0.24097 2.836648,-0.96103 0.40107,-0.46628 0.812627,-1.39708 0.913939,-2.06847 0.493954,-3.27323 1.941081,-8.28447 3.030125,-10.49184 1.395354,-2.82822 1.53787,-2.87666 4.798179,-1.63439 1.327276,0.50572 2.897023,0.78927 4.887918,0.88275 2.669976,0.12544 3.263141,0.0329 6.624785,-1.02977 1.47557,-0.46643 2.882219,-0.86491 3.677395,-1.05142 0.675259,-0.0658 1.165579,0.009 1.545931,0.22976 0.867025,0.7703 1.475236,3.00571 2.461142,8.3502 1.293973,7.01448 1.909367,7.76119 6.398209,7.7602 3.035267,-6.5e-4 4.421427,-0.40355 4.500327,-1.93543 0.0289,-0.0961 0.0464,-0.18701 0.0464,-0.26604 0,-0.0642 -0.0319,-0.19668 -0.077,-0.35768 -0.12852,-0.97292 -0.61531,-2.29134 -1.41419,-4.07073 -1.83641,-4.09037 -2.69534,-7.00179 -2.95757,-10.02404 -0.253168,-2.91766 0.0585,-5.05344 0.86429,-5.91832 1.27829,-1.37208 2.45801,-0.30437 4.89238,4.42776 2.226369,4.32779 5.009943,6.69028 9.126673,7.74493 4.71203,1.20717 9.87978,-0.51732 12.24016,-4.08409 0.46028,-0.69553 0.7012,-1.33299 0.81274,-2.22247 0.18598,-0.59011 0.29293,-1.18361 0.29723,-1.75978 0,-6.5e-4 -2e-5,-0.001 0,-0.002 5e-5,-0.009 10e-4,-0.0166 10e-4,-0.0249 1e-5,-0.006 -10e-4,-0.01 -10e-4,-0.0153 2.2e-4,-0.007 0.004,-0.0132 0.004,-0.0203 0,-0.0144 -0.002,-0.0249 -0.004,-0.0382 -9.9e-4,-0.35893 -0.0218,-0.5504 -0.17121,-0.60908 -0.0347,-0.0426 -0.0746,-0.0789 -0.12094,-0.10752 -0.0851,-0.18522 -0.24285,-0.18343 -0.5187,-0.12094 -0.59604,0.13502 -1.61721,0.12855 -3.11605,-0.007 -0.47688,-0.17693 -0.7306,-0.21544 -0.92858,-0.0637 -0.48392,0.0208 -0.55682,0.30999 -0.737,1.55292 -0.27379,1.88852 -1.2528,2.94555 -3.04031,3.2809 -2.91447,0.54675 -5.35913,-1.02531 -6.22448,-4.00199 -0.62363,-2.14521 -0.44831,-4.0697 0.78028,-8.56595 1.67529,-6.13083 0.93181,-10.92309 -2.1811,-14.06103 -1.14891,-1.15815 -1.96448,-1.64948 -3.4559,-2.07991 -1.616524,-0.46655 -2.260134,-0.8865 -3.744223,-2.44333 -1.51995,-1.59444 -2.05055,-1.93337 -3.49092,-2.23202 -0.63454,-0.13157 -1.27963,-0.18624 -1.916979,-0.17375 z m -42.711363,34.55783 c 0.126477,0.073 0.256942,0.0755 0.393324,0 z"
       id="path838"
       inkscape:connector-curvature="0"
       sodipodi:nodetypes="csccccccccccscccccccsccsccccscccccccscccccccccssccsccccc" />
  </g>
</svg>
