<?xml version="1.0" encoding="UTF-8" standalone="no"?>
<!-- Created with Inkscape (http://www.inkscape.org/) -->

<svg
   xmlns:dc="http://purl.org/dc/elements/1.1/"
   xmlns:cc="http://creativecommons.org/ns#"
   xmlns:rdf="http://www.w3.org/1999/02/22-rdf-syntax-ns#"
   xmlns:svg="http://www.w3.org/2000/svg"
   xmlns="http://www.w3.org/2000/svg"
   xmlns:sodipodi="http://sodipodi.sourceforge.net/DTD/sodipodi-0.dtd"
   xmlns:inkscape="http://www.inkscape.org/namespaces/inkscape"
   inkscape:export-ydpi="96"
   inkscape:export-xdpi="96"
   inkscape:export-filename="/home/pi/GitHub/T-BOTS/Python/Development/T-Bot_Tracking/TemplateImages/Track.png"
   sodipodi:docname="Track.svg"
   id="svg8"
   version="1.1"
   viewBox="0 0 168.01042 94.456247"
   height="357"
   width="635"
   inkscape:version="0.92.4 (5da689c313, 2019-01-14)">
  <defs
     id="defs2" />
  <sodipodi:namedview
     id="base"
     pagecolor="#ffffff"
     bordercolor="#666666"
     borderopacity="1.0"
     inkscape:pageopacity="0.0"
     inkscape:pageshadow="2"
     inkscape:zoom="2.8"
     inkscape:cx="290.10918"
     inkscape:cy="170.92897"
     inkscape:document-units="mm"
     inkscape:current-layer="layer1"
     showgrid="false"
     units="px"
     inkscape:window-width="1920"
     inkscape:window-height="1016"
     inkscape:window-x="0"
     inkscape:window-y="0"
     inkscape:window-maximized="1" />
  <metadata
     id="metadata5">
    <rdf:RDF>
      <cc:Work
         rdf:about="">
        <dc:format>image/svg+xml</dc:format>
        <dc:type
           rdf:resource="http://purl.org/dc/dcmitype/StillImage" />
        <dc:title></dc:title>
      </cc:Work>
    </rdf:RDF>
  </metadata>
  <g
     inkscape:label="Layer 1"
     inkscape:groupmode="layer"
     id="layer1"
     transform="translate(0,-202.54377)">
    <path
       style="fill:#666666;stroke-width:0.2597065"
       d="m 26.78871,285.20218 c -3.527425,-0.37654 -6.7041,-2.65234 -8.219955,-5.88883 l -0.695528,-1.48502 0.373809,-7.98598 -0.571131,-7.98597 c -0.313346,-4.38143 0.393078,-9.24217 0.396304,-14.27886 0.0032,-5.03668 -0.437661,-10.26016 -0.378504,-13.50974 0.103537,-5.68745 0.162787,-8.65557 0.26653,-10.38158 0.103744,-1.72601 0.251982,-2.20991 0.533496,-2.92891 0.19084,-0.48742 0.426088,-0.96782 0.697396,-1.43078 0.271307,-0.46297 0.578673,-0.90851 0.913749,-1.32621 0.335075,-0.41769 0.697861,-0.80755 1.080006,-1.15916 0.382145,-0.35162 0.783651,-0.66498 1.196167,-0.92969 0.68183,-0.43753 0.901733,-0.75742 1.820309,-0.99254 0.918577,-0.23512 2.535829,-0.38546 6.012355,-0.48387 3.476527,-0.0984 8.812329,0.38426 17.168008,0.35684 8.355678,-0.0274 19.731234,-0.56494 35.287267,-0.58708 8.269016,-0.0118 15.980267,0.51262 22.912202,0.51426 6.93193,0.002 13.08454,-0.51949 18.23627,-0.50564 5.15174,0.0138 9.3026,0.0335 12.23102,0.0584 2.92843,0.0248 4.63442,0.0549 4.89643,0.0896 0.90713,0.1201 1.79093,0.35854 2.63028,0.69992 0.83935,0.34138 1.63425,0.78569 2.36361,1.31755 0.72935,0.53187 1.39315,1.15128 1.97028,1.84284 0.57714,0.69156 1.06762,1.45527 1.45032,2.27575 0.83805,2.2327 1.04524,4.99544 1.0514,7.81547 0.006,2.82002 -0.18868,5.69732 -0.15471,8.15913 0.0549,3.98218 -0.3905,8.95431 0.0813,14.25059 0.45311,5.08716 -0.31269,10.44423 -0.36873,14.21106 -0.0999,6.70795 0.12967,9.85542 0.0294,11.76583 -0.10025,1.91041 -0.2468,2.30028 -0.5318,2.92606 -1.16296,2.55349 -3.1383,4.33855 -5.82573,5.26445 -0.42234,0.14551 -1.35627,0.23681 -3.557,0.29331 -2.20072,0.0565 -5.85723,-0.2053 -11.34673,-0.19904 -7.58876,0.009 -11.07214,0.30883 -13.17933,0.096 -2.10719,-0.21282 -2.64922,-0.65511 -3.97732,-1.56429 -0.7396,-0.50631 -1.75899,-1.5257 -2.2653,-2.2653 -1.69175,-2.47125 -1.74736,-2.81175 -2.00108,-12.25241 -0.12667,-4.71367 -0.35075,-9.00331 -0.49793,-9.53251 -0.3585,-1.289 -1.4308,-2.51334 -2.71022,-3.09451 -0.90486,-0.41102 -1.76708,-0.47753 -6.253603,-0.48245 -4.890832,-0.005 -5.27286,0.0294 -6.347753,0.57863 -1.626186,0.83083 -2.595933,2.15562 -2.82761,3.86287 -0.104422,0.76949 -0.22141,4.61228 -0.259971,8.53956 -0.03857,3.92726 -0.184696,7.66097 -0.32474,8.2971 -0.67378,3.06062 -3.543595,6.45877 -6.387777,7.56376 l -1.502282,0.58365 -12.920398,-0.45432 -12.920398,0.49062 c -7.106218,0.01 -13.288739,-0.19076 -18.286215,-0.21768 -4.997475,-0.0269 -8.809906,0.11996 -9.286064,0.0691 z"
       id="path826"
       inkscape:connector-curvature="0"
       sodipodi:nodetypes="ccccsssscssscssscssscssscscscsscscsccscccccccscccscc" />
  </g>
</svg>
